G04 #@! TF.GenerationSoftware,KiCad,Pcbnew,(5.1.5)-3*
G04 #@! TF.CreationDate,2020-02-22T22:04:57-05:00*
G04 #@! TF.ProjectId,Semiparametric-EQ,53656d69-7061-4726-916d-65747269632d,rev?*
G04 #@! TF.SameCoordinates,Original*
G04 #@! TF.FileFunction,Soldermask,Top*
G04 #@! TF.FilePolarity,Negative*
%FSLAX46Y46*%
G04 Gerber Fmt 4.6, Leading zero omitted, Abs format (unit mm)*
G04 Created by KiCad (PCBNEW (5.1.5)-3) date 2020-02-22 22:04:57*
%MOMM*%
%LPD*%
G04 APERTURE LIST*
%ADD10C,0.100000*%
G04 APERTURE END LIST*
D10*
G36*
X53453512Y3436073D02*
G01*
X53602812Y3406376D01*
X53766784Y3338456D01*
X53914354Y3239853D01*
X54039853Y3114354D01*
X54138456Y2966784D01*
X54206376Y2802812D01*
X54241000Y2628741D01*
X54241000Y2451259D01*
X54206376Y2277188D01*
X54138456Y2113216D01*
X54039853Y1965646D01*
X53914354Y1840147D01*
X53766784Y1741544D01*
X53602812Y1673624D01*
X53453512Y1643927D01*
X53428742Y1639000D01*
X53251258Y1639000D01*
X53226488Y1643927D01*
X53077188Y1673624D01*
X52913216Y1741544D01*
X52765646Y1840147D01*
X52640147Y1965646D01*
X52541544Y2113216D01*
X52473624Y2277188D01*
X52439000Y2451259D01*
X52439000Y2628741D01*
X52473624Y2802812D01*
X52541544Y2966784D01*
X52640147Y3114354D01*
X52765646Y3239853D01*
X52913216Y3338456D01*
X53077188Y3406376D01*
X53226488Y3436073D01*
X53251258Y3441000D01*
X53428742Y3441000D01*
X53453512Y3436073D01*
G37*
G36*
X50913512Y3436073D02*
G01*
X51062812Y3406376D01*
X51226784Y3338456D01*
X51374354Y3239853D01*
X51499853Y3114354D01*
X51598456Y2966784D01*
X51666376Y2802812D01*
X51701000Y2628741D01*
X51701000Y2451259D01*
X51666376Y2277188D01*
X51598456Y2113216D01*
X51499853Y1965646D01*
X51374354Y1840147D01*
X51226784Y1741544D01*
X51062812Y1673624D01*
X50913512Y1643927D01*
X50888742Y1639000D01*
X50711258Y1639000D01*
X50686488Y1643927D01*
X50537188Y1673624D01*
X50373216Y1741544D01*
X50225646Y1840147D01*
X50100147Y1965646D01*
X50001544Y2113216D01*
X49933624Y2277188D01*
X49899000Y2451259D01*
X49899000Y2628741D01*
X49933624Y2802812D01*
X50001544Y2966784D01*
X50100147Y3114354D01*
X50225646Y3239853D01*
X50373216Y3338456D01*
X50537188Y3406376D01*
X50686488Y3436073D01*
X50711258Y3441000D01*
X50888742Y3441000D01*
X50913512Y3436073D01*
G37*
G36*
X20433512Y3436073D02*
G01*
X20582812Y3406376D01*
X20746784Y3338456D01*
X20894354Y3239853D01*
X21019853Y3114354D01*
X21118456Y2966784D01*
X21186376Y2802812D01*
X21221000Y2628741D01*
X21221000Y2451259D01*
X21186376Y2277188D01*
X21118456Y2113216D01*
X21019853Y1965646D01*
X20894354Y1840147D01*
X20746784Y1741544D01*
X20582812Y1673624D01*
X20433512Y1643927D01*
X20408742Y1639000D01*
X20231258Y1639000D01*
X20206488Y1643927D01*
X20057188Y1673624D01*
X19893216Y1741544D01*
X19745646Y1840147D01*
X19620147Y1965646D01*
X19521544Y2113216D01*
X19453624Y2277188D01*
X19419000Y2451259D01*
X19419000Y2628741D01*
X19453624Y2802812D01*
X19521544Y2966784D01*
X19620147Y3114354D01*
X19745646Y3239853D01*
X19893216Y3338456D01*
X20057188Y3406376D01*
X20206488Y3436073D01*
X20231258Y3441000D01*
X20408742Y3441000D01*
X20433512Y3436073D01*
G37*
G36*
X49161000Y1639000D02*
G01*
X47359000Y1639000D01*
X47359000Y3441000D01*
X49161000Y3441000D01*
X49161000Y1639000D01*
G37*
G36*
X33133512Y3436073D02*
G01*
X33282812Y3406376D01*
X33446784Y3338456D01*
X33594354Y3239853D01*
X33719853Y3114354D01*
X33818456Y2966784D01*
X33886376Y2802812D01*
X33921000Y2628741D01*
X33921000Y2451259D01*
X33886376Y2277188D01*
X33818456Y2113216D01*
X33719853Y1965646D01*
X33594354Y1840147D01*
X33446784Y1741544D01*
X33282812Y1673624D01*
X33133512Y1643927D01*
X33108742Y1639000D01*
X32931258Y1639000D01*
X32906488Y1643927D01*
X32757188Y1673624D01*
X32593216Y1741544D01*
X32445646Y1840147D01*
X32320147Y1965646D01*
X32221544Y2113216D01*
X32153624Y2277188D01*
X32119000Y2451259D01*
X32119000Y2628741D01*
X32153624Y2802812D01*
X32221544Y2966784D01*
X32320147Y3114354D01*
X32445646Y3239853D01*
X32593216Y3338456D01*
X32757188Y3406376D01*
X32906488Y3436073D01*
X32931258Y3441000D01*
X33108742Y3441000D01*
X33133512Y3436073D01*
G37*
G36*
X30593512Y3436073D02*
G01*
X30742812Y3406376D01*
X30906784Y3338456D01*
X31054354Y3239853D01*
X31179853Y3114354D01*
X31278456Y2966784D01*
X31346376Y2802812D01*
X31381000Y2628741D01*
X31381000Y2451259D01*
X31346376Y2277188D01*
X31278456Y2113216D01*
X31179853Y1965646D01*
X31054354Y1840147D01*
X30906784Y1741544D01*
X30742812Y1673624D01*
X30593512Y1643927D01*
X30568742Y1639000D01*
X30391258Y1639000D01*
X30366488Y1643927D01*
X30217188Y1673624D01*
X30053216Y1741544D01*
X29905646Y1840147D01*
X29780147Y1965646D01*
X29681544Y2113216D01*
X29613624Y2277188D01*
X29579000Y2451259D01*
X29579000Y2628741D01*
X29613624Y2802812D01*
X29681544Y2966784D01*
X29780147Y3114354D01*
X29905646Y3239853D01*
X30053216Y3338456D01*
X30217188Y3406376D01*
X30366488Y3436073D01*
X30391258Y3441000D01*
X30568742Y3441000D01*
X30593512Y3436073D01*
G37*
G36*
X16141000Y1639000D02*
G01*
X14339000Y1639000D01*
X14339000Y3441000D01*
X16141000Y3441000D01*
X16141000Y1639000D01*
G37*
G36*
X12813512Y3436073D02*
G01*
X12962812Y3406376D01*
X13126784Y3338456D01*
X13274354Y3239853D01*
X13399853Y3114354D01*
X13498456Y2966784D01*
X13566376Y2802812D01*
X13601000Y2628741D01*
X13601000Y2451259D01*
X13566376Y2277188D01*
X13498456Y2113216D01*
X13399853Y1965646D01*
X13274354Y1840147D01*
X13126784Y1741544D01*
X12962812Y1673624D01*
X12813512Y1643927D01*
X12788742Y1639000D01*
X12611258Y1639000D01*
X12586488Y1643927D01*
X12437188Y1673624D01*
X12273216Y1741544D01*
X12125646Y1840147D01*
X12000147Y1965646D01*
X11901544Y2113216D01*
X11833624Y2277188D01*
X11799000Y2451259D01*
X11799000Y2628741D01*
X11833624Y2802812D01*
X11901544Y2966784D01*
X12000147Y3114354D01*
X12125646Y3239853D01*
X12273216Y3338456D01*
X12437188Y3406376D01*
X12586488Y3436073D01*
X12611258Y3441000D01*
X12788742Y3441000D01*
X12813512Y3436073D01*
G37*
G36*
X10273512Y3436073D02*
G01*
X10422812Y3406376D01*
X10586784Y3338456D01*
X10734354Y3239853D01*
X10859853Y3114354D01*
X10958456Y2966784D01*
X11026376Y2802812D01*
X11061000Y2628741D01*
X11061000Y2451259D01*
X11026376Y2277188D01*
X10958456Y2113216D01*
X10859853Y1965646D01*
X10734354Y1840147D01*
X10586784Y1741544D01*
X10422812Y1673624D01*
X10273512Y1643927D01*
X10248742Y1639000D01*
X10071258Y1639000D01*
X10046488Y1643927D01*
X9897188Y1673624D01*
X9733216Y1741544D01*
X9585646Y1840147D01*
X9460147Y1965646D01*
X9361544Y2113216D01*
X9293624Y2277188D01*
X9259000Y2451259D01*
X9259000Y2628741D01*
X9293624Y2802812D01*
X9361544Y2966784D01*
X9460147Y3114354D01*
X9585646Y3239853D01*
X9733216Y3338456D01*
X9897188Y3406376D01*
X10046488Y3436073D01*
X10071258Y3441000D01*
X10248742Y3441000D01*
X10273512Y3436073D01*
G37*
G36*
X28841000Y1639000D02*
G01*
X27039000Y1639000D01*
X27039000Y3441000D01*
X28841000Y3441000D01*
X28841000Y1639000D01*
G37*
G36*
X36338674Y3346535D02*
G01*
X36376367Y3335101D01*
X36411103Y3316534D01*
X36441548Y3291548D01*
X36466534Y3261103D01*
X36485101Y3226367D01*
X36496535Y3188674D01*
X36501000Y3143339D01*
X36501000Y2056661D01*
X36496535Y2011326D01*
X36485101Y1973633D01*
X36466534Y1938897D01*
X36441548Y1908452D01*
X36411103Y1883466D01*
X36376367Y1864899D01*
X36338674Y1853465D01*
X36293339Y1849000D01*
X35456661Y1849000D01*
X35411326Y1853465D01*
X35373633Y1864899D01*
X35338897Y1883466D01*
X35308452Y1908452D01*
X35283466Y1938897D01*
X35264899Y1973633D01*
X35253465Y2011326D01*
X35249000Y2056661D01*
X35249000Y3143339D01*
X35253465Y3188674D01*
X35264899Y3226367D01*
X35283466Y3261103D01*
X35308452Y3291548D01*
X35338897Y3316534D01*
X35373633Y3335101D01*
X35411326Y3346535D01*
X35456661Y3351000D01*
X36293339Y3351000D01*
X36338674Y3346535D01*
G37*
G36*
X38388674Y3346535D02*
G01*
X38426367Y3335101D01*
X38461103Y3316534D01*
X38491548Y3291548D01*
X38516534Y3261103D01*
X38535101Y3226367D01*
X38546535Y3188674D01*
X38551000Y3143339D01*
X38551000Y2056661D01*
X38546535Y2011326D01*
X38535101Y1973633D01*
X38516534Y1938897D01*
X38491548Y1908452D01*
X38461103Y1883466D01*
X38426367Y1864899D01*
X38388674Y1853465D01*
X38343339Y1849000D01*
X37506661Y1849000D01*
X37461326Y1853465D01*
X37423633Y1864899D01*
X37388897Y1883466D01*
X37358452Y1908452D01*
X37333466Y1938897D01*
X37314899Y1973633D01*
X37303465Y2011326D01*
X37299000Y2056661D01*
X37299000Y3143339D01*
X37303465Y3188674D01*
X37314899Y3226367D01*
X37333466Y3261103D01*
X37358452Y3291548D01*
X37388897Y3316534D01*
X37423633Y3335101D01*
X37461326Y3346535D01*
X37506661Y3351000D01*
X38343339Y3351000D01*
X38388674Y3346535D01*
G37*
G36*
X4375256Y5608702D02*
G01*
X4481579Y5587553D01*
X4782042Y5463097D01*
X5052451Y5282415D01*
X5282415Y5052451D01*
X5463097Y4782042D01*
X5587553Y4481579D01*
X5651000Y4162609D01*
X5651000Y3837391D01*
X5587553Y3518421D01*
X5463097Y3217958D01*
X5282415Y2947549D01*
X5052451Y2717585D01*
X4782042Y2536903D01*
X4481579Y2412447D01*
X4375256Y2391298D01*
X4162611Y2349000D01*
X3837389Y2349000D01*
X3624744Y2391298D01*
X3518421Y2412447D01*
X3217958Y2536903D01*
X2947549Y2717585D01*
X2717585Y2947549D01*
X2536903Y3217958D01*
X2412447Y3518421D01*
X2349000Y3837391D01*
X2349000Y4162609D01*
X2412447Y4481579D01*
X2536903Y4782042D01*
X2717585Y5052451D01*
X2947549Y5282415D01*
X3217958Y5463097D01*
X3518421Y5587553D01*
X3624744Y5608702D01*
X3837389Y5651000D01*
X4162611Y5651000D01*
X4375256Y5608702D01*
G37*
G36*
X61375256Y5608702D02*
G01*
X61481579Y5587553D01*
X61782042Y5463097D01*
X62052451Y5282415D01*
X62282415Y5052451D01*
X62463097Y4782042D01*
X62587553Y4481579D01*
X62651000Y4162609D01*
X62651000Y3837391D01*
X62587553Y3518421D01*
X62463097Y3217958D01*
X62282415Y2947549D01*
X62052451Y2717585D01*
X61782042Y2536903D01*
X61481579Y2412447D01*
X61375256Y2391298D01*
X61162611Y2349000D01*
X60837389Y2349000D01*
X60624744Y2391298D01*
X60518421Y2412447D01*
X60217958Y2536903D01*
X59947549Y2717585D01*
X59717585Y2947549D01*
X59536903Y3217958D01*
X59412447Y3518421D01*
X59349000Y3837391D01*
X59349000Y4162609D01*
X59412447Y4481579D01*
X59536903Y4782042D01*
X59717585Y5052451D01*
X59947549Y5282415D01*
X60217958Y5463097D01*
X60518421Y5587553D01*
X60624744Y5608702D01*
X60837389Y5651000D01*
X61162611Y5651000D01*
X61375256Y5608702D01*
G37*
G36*
X21221000Y4179000D02*
G01*
X19419000Y4179000D01*
X19419000Y5981000D01*
X21221000Y5981000D01*
X21221000Y4179000D01*
G37*
G36*
X53453512Y8516073D02*
G01*
X53602812Y8486376D01*
X53766784Y8418456D01*
X53914354Y8319853D01*
X54039853Y8194354D01*
X54138456Y8046784D01*
X54206376Y7882812D01*
X54241000Y7708741D01*
X54241000Y7531259D01*
X54206376Y7357188D01*
X54138456Y7193216D01*
X54039853Y7045646D01*
X53914354Y6920147D01*
X53766784Y6821544D01*
X53602812Y6753624D01*
X53453512Y6723927D01*
X53428742Y6719000D01*
X53251258Y6719000D01*
X53226488Y6723927D01*
X53077188Y6753624D01*
X52913216Y6821544D01*
X52765646Y6920147D01*
X52640147Y7045646D01*
X52541544Y7193216D01*
X52473624Y7357188D01*
X52439000Y7531259D01*
X52439000Y7708741D01*
X52473624Y7882812D01*
X52541544Y8046784D01*
X52640147Y8194354D01*
X52765646Y8319853D01*
X52913216Y8418456D01*
X53077188Y8486376D01*
X53226488Y8516073D01*
X53251258Y8521000D01*
X53428742Y8521000D01*
X53453512Y8516073D01*
G37*
G36*
X50913512Y8516073D02*
G01*
X51062812Y8486376D01*
X51226784Y8418456D01*
X51374354Y8319853D01*
X51499853Y8194354D01*
X51598456Y8046784D01*
X51666376Y7882812D01*
X51701000Y7708741D01*
X51701000Y7531259D01*
X51666376Y7357188D01*
X51598456Y7193216D01*
X51499853Y7045646D01*
X51374354Y6920147D01*
X51226784Y6821544D01*
X51062812Y6753624D01*
X50913512Y6723927D01*
X50888742Y6719000D01*
X50711258Y6719000D01*
X50686488Y6723927D01*
X50537188Y6753624D01*
X50373216Y6821544D01*
X50225646Y6920147D01*
X50100147Y7045646D01*
X50001544Y7193216D01*
X49933624Y7357188D01*
X49899000Y7531259D01*
X49899000Y7708741D01*
X49933624Y7882812D01*
X50001544Y8046784D01*
X50100147Y8194354D01*
X50225646Y8319853D01*
X50373216Y8418456D01*
X50537188Y8486376D01*
X50686488Y8516073D01*
X50711258Y8521000D01*
X50888742Y8521000D01*
X50913512Y8516073D01*
G37*
G36*
X55993512Y8516073D02*
G01*
X56142812Y8486376D01*
X56306784Y8418456D01*
X56454354Y8319853D01*
X56579853Y8194354D01*
X56678456Y8046784D01*
X56746376Y7882812D01*
X56781000Y7708741D01*
X56781000Y7531259D01*
X56746376Y7357188D01*
X56678456Y7193216D01*
X56579853Y7045646D01*
X56454354Y6920147D01*
X56306784Y6821544D01*
X56142812Y6753624D01*
X55993512Y6723927D01*
X55968742Y6719000D01*
X55791258Y6719000D01*
X55766488Y6723927D01*
X55617188Y6753624D01*
X55453216Y6821544D01*
X55305646Y6920147D01*
X55180147Y7045646D01*
X55081544Y7193216D01*
X55013624Y7357188D01*
X54979000Y7531259D01*
X54979000Y7708741D01*
X55013624Y7882812D01*
X55081544Y8046784D01*
X55180147Y8194354D01*
X55305646Y8319853D01*
X55453216Y8418456D01*
X55617188Y8486376D01*
X55766488Y8516073D01*
X55791258Y8521000D01*
X55968742Y8521000D01*
X55993512Y8516073D01*
G37*
G36*
X48373512Y8516073D02*
G01*
X48522812Y8486376D01*
X48686784Y8418456D01*
X48834354Y8319853D01*
X48959853Y8194354D01*
X49058456Y8046784D01*
X49126376Y7882812D01*
X49161000Y7708741D01*
X49161000Y7531259D01*
X49126376Y7357188D01*
X49058456Y7193216D01*
X48959853Y7045646D01*
X48834354Y6920147D01*
X48686784Y6821544D01*
X48522812Y6753624D01*
X48373512Y6723927D01*
X48348742Y6719000D01*
X48171258Y6719000D01*
X48146488Y6723927D01*
X47997188Y6753624D01*
X47833216Y6821544D01*
X47685646Y6920147D01*
X47560147Y7045646D01*
X47461544Y7193216D01*
X47393624Y7357188D01*
X47359000Y7531259D01*
X47359000Y7708741D01*
X47393624Y7882812D01*
X47461544Y8046784D01*
X47560147Y8194354D01*
X47685646Y8319853D01*
X47833216Y8418456D01*
X47997188Y8486376D01*
X48146488Y8516073D01*
X48171258Y8521000D01*
X48348742Y8521000D01*
X48373512Y8516073D01*
G37*
G36*
X45833512Y8516073D02*
G01*
X45982812Y8486376D01*
X46146784Y8418456D01*
X46294354Y8319853D01*
X46419853Y8194354D01*
X46518456Y8046784D01*
X46586376Y7882812D01*
X46621000Y7708741D01*
X46621000Y7531259D01*
X46586376Y7357188D01*
X46518456Y7193216D01*
X46419853Y7045646D01*
X46294354Y6920147D01*
X46146784Y6821544D01*
X45982812Y6753624D01*
X45833512Y6723927D01*
X45808742Y6719000D01*
X45631258Y6719000D01*
X45606488Y6723927D01*
X45457188Y6753624D01*
X45293216Y6821544D01*
X45145646Y6920147D01*
X45020147Y7045646D01*
X44921544Y7193216D01*
X44853624Y7357188D01*
X44819000Y7531259D01*
X44819000Y7708741D01*
X44853624Y7882812D01*
X44921544Y8046784D01*
X45020147Y8194354D01*
X45145646Y8319853D01*
X45293216Y8418456D01*
X45457188Y8486376D01*
X45606488Y8516073D01*
X45631258Y8521000D01*
X45808742Y8521000D01*
X45833512Y8516073D01*
G37*
G36*
X44081000Y6719000D02*
G01*
X42279000Y6719000D01*
X42279000Y8521000D01*
X44081000Y8521000D01*
X44081000Y6719000D01*
G37*
G36*
X15353512Y8516073D02*
G01*
X15502812Y8486376D01*
X15666784Y8418456D01*
X15814354Y8319853D01*
X15939853Y8194354D01*
X16038456Y8046784D01*
X16106376Y7882812D01*
X16141000Y7708741D01*
X16141000Y7531259D01*
X16106376Y7357188D01*
X16038456Y7193216D01*
X15939853Y7045646D01*
X15814354Y6920147D01*
X15666784Y6821544D01*
X15502812Y6753624D01*
X15353512Y6723927D01*
X15328742Y6719000D01*
X15151258Y6719000D01*
X15126488Y6723927D01*
X14977188Y6753624D01*
X14813216Y6821544D01*
X14665646Y6920147D01*
X14540147Y7045646D01*
X14441544Y7193216D01*
X14373624Y7357188D01*
X14339000Y7531259D01*
X14339000Y7708741D01*
X14373624Y7882812D01*
X14441544Y8046784D01*
X14540147Y8194354D01*
X14665646Y8319853D01*
X14813216Y8418456D01*
X14977188Y8486376D01*
X15126488Y8516073D01*
X15151258Y8521000D01*
X15328742Y8521000D01*
X15353512Y8516073D01*
G37*
G36*
X11061000Y6719000D02*
G01*
X9259000Y6719000D01*
X9259000Y8521000D01*
X11061000Y8521000D01*
X11061000Y6719000D01*
G37*
G36*
X37653512Y8516073D02*
G01*
X37802812Y8486376D01*
X37966784Y8418456D01*
X38114354Y8319853D01*
X38239853Y8194354D01*
X38338456Y8046784D01*
X38406376Y7882812D01*
X38441000Y7708741D01*
X38441000Y7531259D01*
X38406376Y7357188D01*
X38338456Y7193216D01*
X38239853Y7045646D01*
X38114354Y6920147D01*
X37966784Y6821544D01*
X37802812Y6753624D01*
X37653512Y6723927D01*
X37628742Y6719000D01*
X37451258Y6719000D01*
X37426488Y6723927D01*
X37277188Y6753624D01*
X37113216Y6821544D01*
X36965646Y6920147D01*
X36840147Y7045646D01*
X36741544Y7193216D01*
X36673624Y7357188D01*
X36639000Y7531259D01*
X36639000Y7708741D01*
X36673624Y7882812D01*
X36741544Y8046784D01*
X36840147Y8194354D01*
X36965646Y8319853D01*
X37113216Y8418456D01*
X37277188Y8486376D01*
X37426488Y8516073D01*
X37451258Y8521000D01*
X37628742Y8521000D01*
X37653512Y8516073D01*
G37*
G36*
X35113512Y8516073D02*
G01*
X35262812Y8486376D01*
X35426784Y8418456D01*
X35574354Y8319853D01*
X35699853Y8194354D01*
X35798456Y8046784D01*
X35866376Y7882812D01*
X35901000Y7708741D01*
X35901000Y7531259D01*
X35866376Y7357188D01*
X35798456Y7193216D01*
X35699853Y7045646D01*
X35574354Y6920147D01*
X35426784Y6821544D01*
X35262812Y6753624D01*
X35113512Y6723927D01*
X35088742Y6719000D01*
X34911258Y6719000D01*
X34886488Y6723927D01*
X34737188Y6753624D01*
X34573216Y6821544D01*
X34425646Y6920147D01*
X34300147Y7045646D01*
X34201544Y7193216D01*
X34133624Y7357188D01*
X34099000Y7531259D01*
X34099000Y7708741D01*
X34133624Y7882812D01*
X34201544Y8046784D01*
X34300147Y8194354D01*
X34425646Y8319853D01*
X34573216Y8418456D01*
X34737188Y8486376D01*
X34886488Y8516073D01*
X34911258Y8521000D01*
X35088742Y8521000D01*
X35113512Y8516073D01*
G37*
G36*
X25741000Y6719000D02*
G01*
X23939000Y6719000D01*
X23939000Y8521000D01*
X25741000Y8521000D01*
X25741000Y6719000D01*
G37*
G36*
X27493512Y8516073D02*
G01*
X27642812Y8486376D01*
X27806784Y8418456D01*
X27954354Y8319853D01*
X28079853Y8194354D01*
X28178456Y8046784D01*
X28246376Y7882812D01*
X28281000Y7708741D01*
X28281000Y7531259D01*
X28246376Y7357188D01*
X28178456Y7193216D01*
X28079853Y7045646D01*
X27954354Y6920147D01*
X27806784Y6821544D01*
X27642812Y6753624D01*
X27493512Y6723927D01*
X27468742Y6719000D01*
X27291258Y6719000D01*
X27266488Y6723927D01*
X27117188Y6753624D01*
X26953216Y6821544D01*
X26805646Y6920147D01*
X26680147Y7045646D01*
X26581544Y7193216D01*
X26513624Y7357188D01*
X26479000Y7531259D01*
X26479000Y7708741D01*
X26513624Y7882812D01*
X26581544Y8046784D01*
X26680147Y8194354D01*
X26805646Y8319853D01*
X26953216Y8418456D01*
X27117188Y8486376D01*
X27266488Y8516073D01*
X27291258Y8521000D01*
X27468742Y8521000D01*
X27493512Y8516073D01*
G37*
G36*
X30033512Y8516073D02*
G01*
X30182812Y8486376D01*
X30346784Y8418456D01*
X30494354Y8319853D01*
X30619853Y8194354D01*
X30718456Y8046784D01*
X30786376Y7882812D01*
X30821000Y7708741D01*
X30821000Y7531259D01*
X30786376Y7357188D01*
X30718456Y7193216D01*
X30619853Y7045646D01*
X30494354Y6920147D01*
X30346784Y6821544D01*
X30182812Y6753624D01*
X30033512Y6723927D01*
X30008742Y6719000D01*
X29831258Y6719000D01*
X29806488Y6723927D01*
X29657188Y6753624D01*
X29493216Y6821544D01*
X29345646Y6920147D01*
X29220147Y7045646D01*
X29121544Y7193216D01*
X29053624Y7357188D01*
X29019000Y7531259D01*
X29019000Y7708741D01*
X29053624Y7882812D01*
X29121544Y8046784D01*
X29220147Y8194354D01*
X29345646Y8319853D01*
X29493216Y8418456D01*
X29657188Y8486376D01*
X29806488Y8516073D01*
X29831258Y8521000D01*
X30008742Y8521000D01*
X30033512Y8516073D01*
G37*
G36*
X32573512Y8516073D02*
G01*
X32722812Y8486376D01*
X32886784Y8418456D01*
X33034354Y8319853D01*
X33159853Y8194354D01*
X33258456Y8046784D01*
X33326376Y7882812D01*
X33361000Y7708741D01*
X33361000Y7531259D01*
X33326376Y7357188D01*
X33258456Y7193216D01*
X33159853Y7045646D01*
X33034354Y6920147D01*
X32886784Y6821544D01*
X32722812Y6753624D01*
X32573512Y6723927D01*
X32548742Y6719000D01*
X32371258Y6719000D01*
X32346488Y6723927D01*
X32197188Y6753624D01*
X32033216Y6821544D01*
X31885646Y6920147D01*
X31760147Y7045646D01*
X31661544Y7193216D01*
X31593624Y7357188D01*
X31559000Y7531259D01*
X31559000Y7708741D01*
X31593624Y7882812D01*
X31661544Y8046784D01*
X31760147Y8194354D01*
X31885646Y8319853D01*
X32033216Y8418456D01*
X32197188Y8486376D01*
X32346488Y8516073D01*
X32371258Y8521000D01*
X32548742Y8521000D01*
X32573512Y8516073D01*
G37*
G36*
X12813512Y8516073D02*
G01*
X12962812Y8486376D01*
X13126784Y8418456D01*
X13274354Y8319853D01*
X13399853Y8194354D01*
X13498456Y8046784D01*
X13566376Y7882812D01*
X13601000Y7708741D01*
X13601000Y7531259D01*
X13566376Y7357188D01*
X13498456Y7193216D01*
X13399853Y7045646D01*
X13274354Y6920147D01*
X13126784Y6821544D01*
X12962812Y6753624D01*
X12813512Y6723927D01*
X12788742Y6719000D01*
X12611258Y6719000D01*
X12586488Y6723927D01*
X12437188Y6753624D01*
X12273216Y6821544D01*
X12125646Y6920147D01*
X12000147Y7045646D01*
X11901544Y7193216D01*
X11833624Y7357188D01*
X11799000Y7531259D01*
X11799000Y7708741D01*
X11833624Y7882812D01*
X11901544Y8046784D01*
X12000147Y8194354D01*
X12125646Y8319853D01*
X12273216Y8418456D01*
X12437188Y8486376D01*
X12586488Y8516073D01*
X12611258Y8521000D01*
X12788742Y8521000D01*
X12813512Y8516073D01*
G37*
G36*
X61073512Y11056073D02*
G01*
X61222812Y11026376D01*
X61386784Y10958456D01*
X61534354Y10859853D01*
X61659853Y10734354D01*
X61758456Y10586784D01*
X61826376Y10422812D01*
X61861000Y10248741D01*
X61861000Y10071259D01*
X61826376Y9897188D01*
X61758456Y9733216D01*
X61659853Y9585646D01*
X61534354Y9460147D01*
X61386784Y9361544D01*
X61222812Y9293624D01*
X61073512Y9263927D01*
X61048742Y9259000D01*
X60871258Y9259000D01*
X60846488Y9263927D01*
X60697188Y9293624D01*
X60533216Y9361544D01*
X60385646Y9460147D01*
X60260147Y9585646D01*
X60161544Y9733216D01*
X60093624Y9897188D01*
X60059000Y10071259D01*
X60059000Y10248741D01*
X60093624Y10422812D01*
X60161544Y10586784D01*
X60260147Y10734354D01*
X60385646Y10859853D01*
X60533216Y10958456D01*
X60697188Y11026376D01*
X60846488Y11056073D01*
X60871258Y11061000D01*
X61048742Y11061000D01*
X61073512Y11056073D01*
G37*
G36*
X61073512Y13596073D02*
G01*
X61222812Y13566376D01*
X61386784Y13498456D01*
X61534354Y13399853D01*
X61659853Y13274354D01*
X61758456Y13126784D01*
X61826376Y12962812D01*
X61861000Y12788741D01*
X61861000Y12611259D01*
X61826376Y12437188D01*
X61758456Y12273216D01*
X61659853Y12125646D01*
X61534354Y12000147D01*
X61386784Y11901544D01*
X61222812Y11833624D01*
X61073512Y11803927D01*
X61048742Y11799000D01*
X60871258Y11799000D01*
X60846488Y11803927D01*
X60697188Y11833624D01*
X60533216Y11901544D01*
X60385646Y12000147D01*
X60260147Y12125646D01*
X60161544Y12273216D01*
X60093624Y12437188D01*
X60059000Y12611259D01*
X60059000Y12788741D01*
X60093624Y12962812D01*
X60161544Y13126784D01*
X60260147Y13274354D01*
X60385646Y13399853D01*
X60533216Y13498456D01*
X60697188Y13566376D01*
X60846488Y13596073D01*
X60871258Y13601000D01*
X61048742Y13601000D01*
X61073512Y13596073D01*
G37*
G36*
X2653512Y13596073D02*
G01*
X2802812Y13566376D01*
X2966784Y13498456D01*
X3114354Y13399853D01*
X3239853Y13274354D01*
X3338456Y13126784D01*
X3406376Y12962812D01*
X3441000Y12788741D01*
X3441000Y12611259D01*
X3406376Y12437188D01*
X3338456Y12273216D01*
X3239853Y12125646D01*
X3114354Y12000147D01*
X2966784Y11901544D01*
X2802812Y11833624D01*
X2653512Y11803927D01*
X2628742Y11799000D01*
X2451258Y11799000D01*
X2426488Y11803927D01*
X2277188Y11833624D01*
X2113216Y11901544D01*
X1965646Y12000147D01*
X1840147Y12125646D01*
X1741544Y12273216D01*
X1673624Y12437188D01*
X1639000Y12611259D01*
X1639000Y12788741D01*
X1673624Y12962812D01*
X1741544Y13126784D01*
X1840147Y13274354D01*
X1965646Y13399853D01*
X2113216Y13498456D01*
X2277188Y13566376D01*
X2426488Y13596073D01*
X2451258Y13601000D01*
X2628742Y13601000D01*
X2653512Y13596073D01*
G37*
G36*
X43668228Y14598297D02*
G01*
X43823100Y14534147D01*
X43962481Y14441015D01*
X44081015Y14322481D01*
X44174147Y14183100D01*
X44238297Y14028228D01*
X44271000Y13863816D01*
X44271000Y13696184D01*
X44238297Y13531772D01*
X44174147Y13376900D01*
X44081015Y13237519D01*
X43962481Y13118985D01*
X43823100Y13025853D01*
X43668228Y12961703D01*
X43503816Y12929000D01*
X43336184Y12929000D01*
X43171772Y12961703D01*
X43016900Y13025853D01*
X42877519Y13118985D01*
X42758985Y13237519D01*
X42665853Y13376900D01*
X42601703Y13531772D01*
X42569000Y13696184D01*
X42569000Y13863816D01*
X42601703Y14028228D01*
X42665853Y14183100D01*
X42758985Y14322481D01*
X42877519Y14441015D01*
X43016900Y14534147D01*
X43171772Y14598297D01*
X43336184Y14631000D01*
X43503816Y14631000D01*
X43668228Y14598297D01*
G37*
G36*
X36048228Y14598297D02*
G01*
X36203100Y14534147D01*
X36342481Y14441015D01*
X36461015Y14322481D01*
X36554147Y14183100D01*
X36618297Y14028228D01*
X36651000Y13863816D01*
X36651000Y13696184D01*
X36618297Y13531772D01*
X36554147Y13376900D01*
X36461015Y13237519D01*
X36342481Y13118985D01*
X36203100Y13025853D01*
X36048228Y12961703D01*
X35883816Y12929000D01*
X35716184Y12929000D01*
X35551772Y12961703D01*
X35396900Y13025853D01*
X35257519Y13118985D01*
X35138985Y13237519D01*
X35045853Y13376900D01*
X34981703Y13531772D01*
X34949000Y13696184D01*
X34949000Y13863816D01*
X34981703Y14028228D01*
X35045853Y14183100D01*
X35138985Y14322481D01*
X35257519Y14441015D01*
X35396900Y14534147D01*
X35551772Y14598297D01*
X35716184Y14631000D01*
X35883816Y14631000D01*
X36048228Y14598297D01*
G37*
G36*
X12948228Y15418297D02*
G01*
X13103100Y15354147D01*
X13242481Y15261015D01*
X13361015Y15142481D01*
X13454147Y15003100D01*
X13518297Y14848228D01*
X13551000Y14683816D01*
X13551000Y14516184D01*
X13518297Y14351772D01*
X13454147Y14196900D01*
X13361015Y14057519D01*
X13242481Y13938985D01*
X13103100Y13845853D01*
X12948228Y13781703D01*
X12783816Y13749000D01*
X12616184Y13749000D01*
X12451772Y13781703D01*
X12296900Y13845853D01*
X12157519Y13938985D01*
X12038985Y14057519D01*
X11945853Y14196900D01*
X11881703Y14351772D01*
X11849000Y14516184D01*
X11849000Y14683816D01*
X11881703Y14848228D01*
X11945853Y15003100D01*
X12038985Y15142481D01*
X12157519Y15261015D01*
X12296900Y15354147D01*
X12451772Y15418297D01*
X12616184Y15451000D01*
X12783816Y15451000D01*
X12948228Y15418297D01*
G37*
G36*
X17948228Y15418297D02*
G01*
X18103100Y15354147D01*
X18242481Y15261015D01*
X18361015Y15142481D01*
X18454147Y15003100D01*
X18518297Y14848228D01*
X18551000Y14683816D01*
X18551000Y14516184D01*
X18518297Y14351772D01*
X18454147Y14196900D01*
X18361015Y14057519D01*
X18242481Y13938985D01*
X18103100Y13845853D01*
X17948228Y13781703D01*
X17783816Y13749000D01*
X17616184Y13749000D01*
X17451772Y13781703D01*
X17296900Y13845853D01*
X17157519Y13938985D01*
X17038985Y14057519D01*
X16945853Y14196900D01*
X16881703Y14351772D01*
X16849000Y14516184D01*
X16849000Y14683816D01*
X16881703Y14848228D01*
X16945853Y15003100D01*
X17038985Y15142481D01*
X17157519Y15261015D01*
X17296900Y15354147D01*
X17451772Y15418297D01*
X17616184Y15451000D01*
X17783816Y15451000D01*
X17948228Y15418297D01*
G37*
G36*
X58588674Y15196535D02*
G01*
X58626367Y15185101D01*
X58661103Y15166534D01*
X58691548Y15141548D01*
X58716534Y15111103D01*
X58735101Y15076367D01*
X58746535Y15038674D01*
X58751000Y14993339D01*
X58751000Y14156661D01*
X58746535Y14111326D01*
X58735101Y14073633D01*
X58716534Y14038897D01*
X58691548Y14008452D01*
X58661103Y13983466D01*
X58626367Y13964899D01*
X58588674Y13953465D01*
X58543339Y13949000D01*
X57456661Y13949000D01*
X57411326Y13953465D01*
X57373633Y13964899D01*
X57338897Y13983466D01*
X57308452Y14008452D01*
X57283466Y14038897D01*
X57264899Y14073633D01*
X57253465Y14111326D01*
X57249000Y14156661D01*
X57249000Y14993339D01*
X57253465Y15038674D01*
X57264899Y15076367D01*
X57283466Y15111103D01*
X57308452Y15141548D01*
X57338897Y15166534D01*
X57373633Y15185101D01*
X57411326Y15196535D01*
X57456661Y15201000D01*
X58543339Y15201000D01*
X58588674Y15196535D01*
G37*
G36*
X61861000Y14339000D02*
G01*
X60059000Y14339000D01*
X60059000Y16141000D01*
X61861000Y16141000D01*
X61861000Y14339000D01*
G37*
G36*
X2639314Y16138897D02*
G01*
X2802812Y16106376D01*
X2966784Y16038456D01*
X3114354Y15939853D01*
X3239853Y15814354D01*
X3338456Y15666784D01*
X3406376Y15502812D01*
X3423187Y15418295D01*
X3441000Y15328742D01*
X3441000Y15151258D01*
X3436073Y15126488D01*
X3406376Y14977188D01*
X3338456Y14813216D01*
X3239853Y14665646D01*
X3114354Y14540147D01*
X2966784Y14441544D01*
X2802812Y14373624D01*
X2653512Y14343927D01*
X2628742Y14339000D01*
X2451258Y14339000D01*
X2426488Y14343927D01*
X2277188Y14373624D01*
X2113216Y14441544D01*
X1965646Y14540147D01*
X1840147Y14665646D01*
X1741544Y14813216D01*
X1673624Y14977188D01*
X1643927Y15126488D01*
X1639000Y15151258D01*
X1639000Y15328742D01*
X1656813Y15418295D01*
X1673624Y15502812D01*
X1741544Y15666784D01*
X1840147Y15814354D01*
X1965646Y15939853D01*
X2113216Y16038456D01*
X2277188Y16106376D01*
X2440686Y16138897D01*
X2451258Y16141000D01*
X2628742Y16141000D01*
X2639314Y16138897D01*
G37*
G36*
X36048228Y17138297D02*
G01*
X36203100Y17074147D01*
X36342481Y16981015D01*
X36461015Y16862481D01*
X36554147Y16723100D01*
X36618297Y16568228D01*
X36651000Y16403816D01*
X36651000Y16236184D01*
X36618297Y16071772D01*
X36554147Y15916900D01*
X36461015Y15777519D01*
X36342481Y15658985D01*
X36203100Y15565853D01*
X36048228Y15501703D01*
X35883816Y15469000D01*
X35716184Y15469000D01*
X35551772Y15501703D01*
X35396900Y15565853D01*
X35257519Y15658985D01*
X35138985Y15777519D01*
X35045853Y15916900D01*
X34981703Y16071772D01*
X34949000Y16236184D01*
X34949000Y16403816D01*
X34981703Y16568228D01*
X35045853Y16723100D01*
X35138985Y16862481D01*
X35257519Y16981015D01*
X35396900Y17074147D01*
X35551772Y17138297D01*
X35716184Y17171000D01*
X35883816Y17171000D01*
X36048228Y17138297D01*
G37*
G36*
X43668228Y17138297D02*
G01*
X43823100Y17074147D01*
X43962481Y16981015D01*
X44081015Y16862481D01*
X44174147Y16723100D01*
X44238297Y16568228D01*
X44271000Y16403816D01*
X44271000Y16236184D01*
X44238297Y16071772D01*
X44174147Y15916900D01*
X44081015Y15777519D01*
X43962481Y15658985D01*
X43823100Y15565853D01*
X43668228Y15501703D01*
X43503816Y15469000D01*
X43336184Y15469000D01*
X43171772Y15501703D01*
X43016900Y15565853D01*
X42877519Y15658985D01*
X42758985Y15777519D01*
X42665853Y15916900D01*
X42601703Y16071772D01*
X42569000Y16236184D01*
X42569000Y16403816D01*
X42601703Y16568228D01*
X42665853Y16723100D01*
X42758985Y16862481D01*
X42877519Y16981015D01*
X43016900Y17074147D01*
X43171772Y17138297D01*
X43336184Y17171000D01*
X43503816Y17171000D01*
X43668228Y17138297D01*
G37*
G36*
X58588674Y17246535D02*
G01*
X58626367Y17235101D01*
X58661103Y17216534D01*
X58691548Y17191548D01*
X58716534Y17161103D01*
X58735101Y17126367D01*
X58746535Y17088674D01*
X58751000Y17043339D01*
X58751000Y16206661D01*
X58746535Y16161326D01*
X58735101Y16123633D01*
X58716534Y16088897D01*
X58691548Y16058452D01*
X58661103Y16033466D01*
X58626367Y16014899D01*
X58588674Y16003465D01*
X58543339Y15999000D01*
X57456661Y15999000D01*
X57411326Y16003465D01*
X57373633Y16014899D01*
X57338897Y16033466D01*
X57308452Y16058452D01*
X57283466Y16088897D01*
X57264899Y16123633D01*
X57253465Y16161326D01*
X57249000Y16206661D01*
X57249000Y17043339D01*
X57253465Y17088674D01*
X57264899Y17126367D01*
X57283466Y17161103D01*
X57308452Y17191548D01*
X57338897Y17216534D01*
X57373633Y17235101D01*
X57411326Y17246535D01*
X57456661Y17251000D01*
X58543339Y17251000D01*
X58588674Y17246535D01*
G37*
G36*
X23748228Y17718297D02*
G01*
X23903100Y17654147D01*
X24042481Y17561015D01*
X24161015Y17442481D01*
X24254147Y17303100D01*
X24318297Y17148228D01*
X24351000Y16983816D01*
X24351000Y16816184D01*
X24318297Y16651772D01*
X24254147Y16496900D01*
X24161015Y16357519D01*
X24042481Y16238985D01*
X23903100Y16145853D01*
X23748228Y16081703D01*
X23583816Y16049000D01*
X23416184Y16049000D01*
X23251772Y16081703D01*
X23096900Y16145853D01*
X22957519Y16238985D01*
X22838985Y16357519D01*
X22745853Y16496900D01*
X22681703Y16651772D01*
X22649000Y16816184D01*
X22649000Y16983816D01*
X22681703Y17148228D01*
X22745853Y17303100D01*
X22838985Y17442481D01*
X22957519Y17561015D01*
X23096900Y17654147D01*
X23251772Y17718297D01*
X23416184Y17751000D01*
X23583816Y17751000D01*
X23748228Y17718297D01*
G37*
G36*
X46688674Y17296535D02*
G01*
X46726367Y17285101D01*
X46761103Y17266534D01*
X46791548Y17241548D01*
X46816534Y17211103D01*
X46835101Y17176367D01*
X46846535Y17138674D01*
X46851000Y17093339D01*
X46851000Y16256661D01*
X46846535Y16211326D01*
X46835101Y16173633D01*
X46816534Y16138897D01*
X46791548Y16108452D01*
X46761103Y16083466D01*
X46726367Y16064899D01*
X46688674Y16053465D01*
X46643339Y16049000D01*
X45556661Y16049000D01*
X45511326Y16053465D01*
X45473633Y16064899D01*
X45438897Y16083466D01*
X45408452Y16108452D01*
X45383466Y16138897D01*
X45364899Y16173633D01*
X45353465Y16211326D01*
X45349000Y16256661D01*
X45349000Y17093339D01*
X45353465Y17138674D01*
X45364899Y17176367D01*
X45383466Y17211103D01*
X45408452Y17241548D01*
X45438897Y17266534D01*
X45473633Y17285101D01*
X45511326Y17296535D01*
X45556661Y17301000D01*
X46643339Y17301000D01*
X46688674Y17296535D01*
G37*
G36*
X2653512Y18676073D02*
G01*
X2802812Y18646376D01*
X2966784Y18578456D01*
X3114354Y18479853D01*
X3239853Y18354354D01*
X3338456Y18206784D01*
X3406376Y18042812D01*
X3441000Y17868741D01*
X3441000Y17691259D01*
X3406376Y17517188D01*
X3338456Y17353216D01*
X3239853Y17205646D01*
X3114354Y17080147D01*
X2966784Y16981544D01*
X2802812Y16913624D01*
X2653512Y16883927D01*
X2628742Y16879000D01*
X2451258Y16879000D01*
X2426488Y16883927D01*
X2277188Y16913624D01*
X2113216Y16981544D01*
X1965646Y17080147D01*
X1840147Y17205646D01*
X1741544Y17353216D01*
X1673624Y17517188D01*
X1639000Y17691259D01*
X1639000Y17868741D01*
X1673624Y18042812D01*
X1741544Y18206784D01*
X1840147Y18354354D01*
X1965646Y18479853D01*
X2113216Y18578456D01*
X2277188Y18646376D01*
X2426488Y18676073D01*
X2451258Y18681000D01*
X2628742Y18681000D01*
X2653512Y18676073D01*
G37*
G36*
X8351000Y17349000D02*
G01*
X6649000Y17349000D01*
X6649000Y19051000D01*
X8351000Y19051000D01*
X8351000Y17349000D01*
G37*
G36*
X56288674Y19096535D02*
G01*
X56326367Y19085101D01*
X56361103Y19066534D01*
X56391548Y19041548D01*
X56416534Y19011103D01*
X56435101Y18976367D01*
X56446535Y18938674D01*
X56451000Y18893339D01*
X56451000Y18056661D01*
X56446535Y18011326D01*
X56435101Y17973633D01*
X56416534Y17938897D01*
X56391548Y17908452D01*
X56361103Y17883466D01*
X56326367Y17864899D01*
X56288674Y17853465D01*
X56243339Y17849000D01*
X55156661Y17849000D01*
X55111326Y17853465D01*
X55073633Y17864899D01*
X55038897Y17883466D01*
X55008452Y17908452D01*
X54983466Y17938897D01*
X54964899Y17973633D01*
X54953465Y18011326D01*
X54949000Y18056661D01*
X54949000Y18893339D01*
X54953465Y18938674D01*
X54964899Y18976367D01*
X54983466Y19011103D01*
X55008452Y19041548D01*
X55038897Y19066534D01*
X55073633Y19085101D01*
X55111326Y19096535D01*
X55156661Y19101000D01*
X56243339Y19101000D01*
X56288674Y19096535D01*
G37*
G36*
X58588674Y19096535D02*
G01*
X58626367Y19085101D01*
X58661103Y19066534D01*
X58691548Y19041548D01*
X58716534Y19011103D01*
X58735101Y18976367D01*
X58746535Y18938674D01*
X58751000Y18893339D01*
X58751000Y18056661D01*
X58746535Y18011326D01*
X58735101Y17973633D01*
X58716534Y17938897D01*
X58691548Y17908452D01*
X58661103Y17883466D01*
X58626367Y17864899D01*
X58588674Y17853465D01*
X58543339Y17849000D01*
X57456661Y17849000D01*
X57411326Y17853465D01*
X57373633Y17864899D01*
X57338897Y17883466D01*
X57308452Y17908452D01*
X57283466Y17938897D01*
X57264899Y17973633D01*
X57253465Y18011326D01*
X57249000Y18056661D01*
X57249000Y18893339D01*
X57253465Y18938674D01*
X57264899Y18976367D01*
X57283466Y19011103D01*
X57308452Y19041548D01*
X57338897Y19066534D01*
X57373633Y19085101D01*
X57411326Y19096535D01*
X57456661Y19101000D01*
X58543339Y19101000D01*
X58588674Y19096535D01*
G37*
G36*
X36048228Y19678297D02*
G01*
X36203100Y19614147D01*
X36342481Y19521015D01*
X36461015Y19402481D01*
X36554147Y19263100D01*
X36618297Y19108228D01*
X36651000Y18943816D01*
X36651000Y18776184D01*
X36618297Y18611772D01*
X36554147Y18456900D01*
X36461015Y18317519D01*
X36342481Y18198985D01*
X36203100Y18105853D01*
X36048228Y18041703D01*
X35883816Y18009000D01*
X35716184Y18009000D01*
X35551772Y18041703D01*
X35396900Y18105853D01*
X35257519Y18198985D01*
X35138985Y18317519D01*
X35045853Y18456900D01*
X34981703Y18611772D01*
X34949000Y18776184D01*
X34949000Y18943816D01*
X34981703Y19108228D01*
X35045853Y19263100D01*
X35138985Y19402481D01*
X35257519Y19521015D01*
X35396900Y19614147D01*
X35551772Y19678297D01*
X35716184Y19711000D01*
X35883816Y19711000D01*
X36048228Y19678297D01*
G37*
G36*
X43668228Y19678297D02*
G01*
X43823100Y19614147D01*
X43962481Y19521015D01*
X44081015Y19402481D01*
X44174147Y19263100D01*
X44238297Y19108228D01*
X44271000Y18943816D01*
X44271000Y18776184D01*
X44238297Y18611772D01*
X44174147Y18456900D01*
X44081015Y18317519D01*
X43962481Y18198985D01*
X43823100Y18105853D01*
X43668228Y18041703D01*
X43503816Y18009000D01*
X43336184Y18009000D01*
X43171772Y18041703D01*
X43016900Y18105853D01*
X42877519Y18198985D01*
X42758985Y18317519D01*
X42665853Y18456900D01*
X42601703Y18611772D01*
X42569000Y18776184D01*
X42569000Y18943816D01*
X42601703Y19108228D01*
X42665853Y19263100D01*
X42758985Y19402481D01*
X42877519Y19521015D01*
X43016900Y19614147D01*
X43171772Y19678297D01*
X43336184Y19711000D01*
X43503816Y19711000D01*
X43668228Y19678297D01*
G37*
G36*
X46688674Y19346535D02*
G01*
X46726367Y19335101D01*
X46761103Y19316534D01*
X46791548Y19291548D01*
X46816534Y19261103D01*
X46835101Y19226367D01*
X46846535Y19188674D01*
X46851000Y19143339D01*
X46851000Y18306661D01*
X46846535Y18261326D01*
X46835101Y18223633D01*
X46816534Y18188897D01*
X46791548Y18158452D01*
X46761103Y18133466D01*
X46726367Y18114899D01*
X46688674Y18103465D01*
X46643339Y18099000D01*
X45556661Y18099000D01*
X45511326Y18103465D01*
X45473633Y18114899D01*
X45438897Y18133466D01*
X45408452Y18158452D01*
X45383466Y18188897D01*
X45364899Y18223633D01*
X45353465Y18261326D01*
X45349000Y18306661D01*
X45349000Y19143339D01*
X45353465Y19188674D01*
X45364899Y19226367D01*
X45383466Y19261103D01*
X45408452Y19291548D01*
X45438897Y19316534D01*
X45473633Y19335101D01*
X45511326Y19346535D01*
X45556661Y19351000D01*
X46643339Y19351000D01*
X46688674Y19346535D01*
G37*
G36*
X61861000Y19419000D02*
G01*
X60059000Y19419000D01*
X60059000Y21221000D01*
X61861000Y21221000D01*
X61861000Y19419000D01*
G37*
G36*
X2653512Y21216073D02*
G01*
X2802812Y21186376D01*
X2966784Y21118456D01*
X3114354Y21019853D01*
X3239853Y20894354D01*
X3338456Y20746784D01*
X3406376Y20582812D01*
X3441000Y20408741D01*
X3441000Y20231259D01*
X3406376Y20057188D01*
X3338456Y19893216D01*
X3239853Y19745646D01*
X3114354Y19620147D01*
X2966784Y19521544D01*
X2802812Y19453624D01*
X2653512Y19423927D01*
X2628742Y19419000D01*
X2451258Y19419000D01*
X2426488Y19423927D01*
X2277188Y19453624D01*
X2113216Y19521544D01*
X1965646Y19620147D01*
X1840147Y19745646D01*
X1741544Y19893216D01*
X1673624Y20057188D01*
X1639000Y20231259D01*
X1639000Y20408741D01*
X1673624Y20582812D01*
X1741544Y20746784D01*
X1840147Y20894354D01*
X1965646Y21019853D01*
X2113216Y21118456D01*
X2277188Y21186376D01*
X2426488Y21216073D01*
X2451258Y21221000D01*
X2628742Y21221000D01*
X2653512Y21216073D01*
G37*
G36*
X18088674Y20946535D02*
G01*
X18126367Y20935101D01*
X18161103Y20916534D01*
X18191548Y20891548D01*
X18216534Y20861103D01*
X18235101Y20826367D01*
X18246535Y20788674D01*
X18251000Y20743339D01*
X18251000Y19656661D01*
X18246535Y19611326D01*
X18235101Y19573633D01*
X18216534Y19538897D01*
X18191548Y19508452D01*
X18161103Y19483466D01*
X18126367Y19464899D01*
X18088674Y19453465D01*
X18043339Y19449000D01*
X17206661Y19449000D01*
X17161326Y19453465D01*
X17123633Y19464899D01*
X17088897Y19483466D01*
X17058452Y19508452D01*
X17033466Y19538897D01*
X17014899Y19573633D01*
X17003465Y19611326D01*
X16999000Y19656661D01*
X16999000Y20743339D01*
X17003465Y20788674D01*
X17014899Y20826367D01*
X17033466Y20861103D01*
X17058452Y20891548D01*
X17088897Y20916534D01*
X17123633Y20935101D01*
X17161326Y20946535D01*
X17206661Y20951000D01*
X18043339Y20951000D01*
X18088674Y20946535D01*
G37*
G36*
X16038674Y20946535D02*
G01*
X16076367Y20935101D01*
X16111103Y20916534D01*
X16141548Y20891548D01*
X16166534Y20861103D01*
X16185101Y20826367D01*
X16196535Y20788674D01*
X16201000Y20743339D01*
X16201000Y19656661D01*
X16196535Y19611326D01*
X16185101Y19573633D01*
X16166534Y19538897D01*
X16141548Y19508452D01*
X16111103Y19483466D01*
X16076367Y19464899D01*
X16038674Y19453465D01*
X15993339Y19449000D01*
X15156661Y19449000D01*
X15111326Y19453465D01*
X15073633Y19464899D01*
X15038897Y19483466D01*
X15008452Y19508452D01*
X14983466Y19538897D01*
X14964899Y19573633D01*
X14953465Y19611326D01*
X14949000Y19656661D01*
X14949000Y20743339D01*
X14953465Y20788674D01*
X14964899Y20826367D01*
X14983466Y20861103D01*
X15008452Y20891548D01*
X15038897Y20916534D01*
X15073633Y20935101D01*
X15111326Y20946535D01*
X15156661Y20951000D01*
X15993339Y20951000D01*
X16038674Y20946535D01*
G37*
G36*
X24351000Y19549000D02*
G01*
X22649000Y19549000D01*
X22649000Y21251000D01*
X24351000Y21251000D01*
X24351000Y19549000D01*
G37*
G36*
X7748228Y21518297D02*
G01*
X7903100Y21454147D01*
X8042481Y21361015D01*
X8161015Y21242481D01*
X8254147Y21103100D01*
X8318297Y20948228D01*
X8351000Y20783816D01*
X8351000Y20616184D01*
X8318297Y20451772D01*
X8254147Y20296900D01*
X8161015Y20157519D01*
X8042481Y20038985D01*
X7903100Y19945853D01*
X7748228Y19881703D01*
X7583816Y19849000D01*
X7416184Y19849000D01*
X7251772Y19881703D01*
X7096900Y19945853D01*
X6957519Y20038985D01*
X6838985Y20157519D01*
X6745853Y20296900D01*
X6681703Y20451772D01*
X6649000Y20616184D01*
X6649000Y20783816D01*
X6681703Y20948228D01*
X6745853Y21103100D01*
X6838985Y21242481D01*
X6957519Y21361015D01*
X7096900Y21454147D01*
X7251772Y21518297D01*
X7416184Y21551000D01*
X7583816Y21551000D01*
X7748228Y21518297D01*
G37*
G36*
X56288674Y21146535D02*
G01*
X56326367Y21135101D01*
X56361103Y21116534D01*
X56391548Y21091548D01*
X56416534Y21061103D01*
X56435101Y21026367D01*
X56446535Y20988674D01*
X56451000Y20943339D01*
X56451000Y20106661D01*
X56446535Y20061326D01*
X56435101Y20023633D01*
X56416534Y19988897D01*
X56391548Y19958452D01*
X56361103Y19933466D01*
X56326367Y19914899D01*
X56288674Y19903465D01*
X56243339Y19899000D01*
X55156661Y19899000D01*
X55111326Y19903465D01*
X55073633Y19914899D01*
X55038897Y19933466D01*
X55008452Y19958452D01*
X54983466Y19988897D01*
X54964899Y20023633D01*
X54953465Y20061326D01*
X54949000Y20106661D01*
X54949000Y20943339D01*
X54953465Y20988674D01*
X54964899Y21026367D01*
X54983466Y21061103D01*
X55008452Y21091548D01*
X55038897Y21116534D01*
X55073633Y21135101D01*
X55111326Y21146535D01*
X55156661Y21151000D01*
X56243339Y21151000D01*
X56288674Y21146535D01*
G37*
G36*
X58588674Y21146535D02*
G01*
X58626367Y21135101D01*
X58661103Y21116534D01*
X58691548Y21091548D01*
X58716534Y21061103D01*
X58735101Y21026367D01*
X58746535Y20988674D01*
X58751000Y20943339D01*
X58751000Y20106661D01*
X58746535Y20061326D01*
X58735101Y20023633D01*
X58716534Y19988897D01*
X58691548Y19958452D01*
X58661103Y19933466D01*
X58626367Y19914899D01*
X58588674Y19903465D01*
X58543339Y19899000D01*
X57456661Y19899000D01*
X57411326Y19903465D01*
X57373633Y19914899D01*
X57338897Y19933466D01*
X57308452Y19958452D01*
X57283466Y19988897D01*
X57264899Y20023633D01*
X57253465Y20061326D01*
X57249000Y20106661D01*
X57249000Y20943339D01*
X57253465Y20988674D01*
X57264899Y21026367D01*
X57283466Y21061103D01*
X57308452Y21091548D01*
X57338897Y21116534D01*
X57373633Y21135101D01*
X57411326Y21146535D01*
X57456661Y21151000D01*
X58543339Y21151000D01*
X58588674Y21146535D01*
G37*
G36*
X36651000Y20549000D02*
G01*
X34949000Y20549000D01*
X34949000Y22251000D01*
X36651000Y22251000D01*
X36651000Y20549000D01*
G37*
G36*
X43668228Y22218297D02*
G01*
X43823100Y22154147D01*
X43962481Y22061015D01*
X44081015Y21942481D01*
X44174147Y21803100D01*
X44238297Y21648228D01*
X44271000Y21483816D01*
X44271000Y21316184D01*
X44238297Y21151772D01*
X44174147Y20996900D01*
X44081015Y20857519D01*
X43962481Y20738985D01*
X43823100Y20645853D01*
X43668228Y20581703D01*
X43503816Y20549000D01*
X43336184Y20549000D01*
X43171772Y20581703D01*
X43016900Y20645853D01*
X42877519Y20738985D01*
X42758985Y20857519D01*
X42665853Y20996900D01*
X42601703Y21151772D01*
X42569000Y21316184D01*
X42569000Y21483816D01*
X42601703Y21648228D01*
X42665853Y21803100D01*
X42758985Y21942481D01*
X42877519Y22061015D01*
X43016900Y22154147D01*
X43171772Y22218297D01*
X43336184Y22251000D01*
X43503816Y22251000D01*
X43668228Y22218297D01*
G37*
G36*
X3441000Y21959000D02*
G01*
X1639000Y21959000D01*
X1639000Y23761000D01*
X3441000Y23761000D01*
X3441000Y21959000D01*
G37*
G36*
X61073512Y23756073D02*
G01*
X61222812Y23726376D01*
X61386784Y23658456D01*
X61534354Y23559853D01*
X61659853Y23434354D01*
X61758456Y23286784D01*
X61826376Y23122812D01*
X61861000Y22948741D01*
X61861000Y22771259D01*
X61826376Y22597188D01*
X61758456Y22433216D01*
X61659853Y22285646D01*
X61534354Y22160147D01*
X61386784Y22061544D01*
X61222812Y21993624D01*
X61073512Y21963927D01*
X61048742Y21959000D01*
X60871258Y21959000D01*
X60846488Y21963927D01*
X60697188Y21993624D01*
X60533216Y22061544D01*
X60385646Y22160147D01*
X60260147Y22285646D01*
X60161544Y22433216D01*
X60093624Y22597188D01*
X60059000Y22771259D01*
X60059000Y22948741D01*
X60093624Y23122812D01*
X60161544Y23286784D01*
X60260147Y23434354D01*
X60385646Y23559853D01*
X60533216Y23658456D01*
X60697188Y23726376D01*
X60846488Y23756073D01*
X60871258Y23761000D01*
X61048742Y23761000D01*
X61073512Y23756073D01*
G37*
G36*
X47948228Y24198297D02*
G01*
X48103100Y24134147D01*
X48242481Y24041015D01*
X48361015Y23922481D01*
X48454147Y23783100D01*
X48518297Y23628228D01*
X48551000Y23463816D01*
X48551000Y23296184D01*
X48518297Y23131772D01*
X48454147Y22976900D01*
X48361015Y22837519D01*
X48242481Y22718985D01*
X48103100Y22625853D01*
X47948228Y22561703D01*
X47783816Y22529000D01*
X47616184Y22529000D01*
X47451772Y22561703D01*
X47296900Y22625853D01*
X47157519Y22718985D01*
X47038985Y22837519D01*
X46945853Y22976900D01*
X46881703Y23131772D01*
X46849000Y23296184D01*
X46849000Y23463816D01*
X46881703Y23628228D01*
X46945853Y23783100D01*
X47038985Y23922481D01*
X47157519Y24041015D01*
X47296900Y24134147D01*
X47451772Y24198297D01*
X47616184Y24231000D01*
X47783816Y24231000D01*
X47948228Y24198297D01*
G37*
G36*
X55568228Y24198297D02*
G01*
X55723100Y24134147D01*
X55862481Y24041015D01*
X55981015Y23922481D01*
X56074147Y23783100D01*
X56138297Y23628228D01*
X56171000Y23463816D01*
X56171000Y23296184D01*
X56138297Y23131772D01*
X56074147Y22976900D01*
X55981015Y22837519D01*
X55862481Y22718985D01*
X55723100Y22625853D01*
X55568228Y22561703D01*
X55403816Y22529000D01*
X55236184Y22529000D01*
X55071772Y22561703D01*
X54916900Y22625853D01*
X54777519Y22718985D01*
X54658985Y22837519D01*
X54565853Y22976900D01*
X54501703Y23131772D01*
X54469000Y23296184D01*
X54469000Y23463816D01*
X54501703Y23628228D01*
X54565853Y23783100D01*
X54658985Y23922481D01*
X54777519Y24041015D01*
X54916900Y24134147D01*
X55071772Y24198297D01*
X55236184Y24231000D01*
X55403816Y24231000D01*
X55568228Y24198297D01*
G37*
G36*
X17108228Y25698297D02*
G01*
X17263100Y25634147D01*
X17402481Y25541015D01*
X17521015Y25422481D01*
X17614147Y25283100D01*
X17678297Y25128228D01*
X17711000Y24963816D01*
X17711000Y24796184D01*
X17678297Y24631772D01*
X17614147Y24476900D01*
X17521015Y24337519D01*
X17402481Y24218985D01*
X17263100Y24125853D01*
X17108228Y24061703D01*
X16943816Y24029000D01*
X16776184Y24029000D01*
X16611772Y24061703D01*
X16456900Y24125853D01*
X16317519Y24218985D01*
X16198985Y24337519D01*
X16105853Y24476900D01*
X16041703Y24631772D01*
X16009000Y24796184D01*
X16009000Y24963816D01*
X16041703Y25128228D01*
X16105853Y25283100D01*
X16198985Y25422481D01*
X16317519Y25541015D01*
X16456900Y25634147D01*
X16611772Y25698297D01*
X16776184Y25731000D01*
X16943816Y25731000D01*
X17108228Y25698297D01*
G37*
G36*
X9488228Y25698297D02*
G01*
X9643100Y25634147D01*
X9782481Y25541015D01*
X9901015Y25422481D01*
X9994147Y25283100D01*
X10058297Y25128228D01*
X10091000Y24963816D01*
X10091000Y24796184D01*
X10058297Y24631772D01*
X9994147Y24476900D01*
X9901015Y24337519D01*
X9782481Y24218985D01*
X9643100Y24125853D01*
X9488228Y24061703D01*
X9323816Y24029000D01*
X9156184Y24029000D01*
X8991772Y24061703D01*
X8836900Y24125853D01*
X8697519Y24218985D01*
X8578985Y24337519D01*
X8485853Y24476900D01*
X8421703Y24631772D01*
X8389000Y24796184D01*
X8389000Y24963816D01*
X8421703Y25128228D01*
X8485853Y25283100D01*
X8578985Y25422481D01*
X8697519Y25541015D01*
X8836900Y25634147D01*
X8991772Y25698297D01*
X9156184Y25731000D01*
X9323816Y25731000D01*
X9488228Y25698297D01*
G37*
G36*
X61073512Y26296073D02*
G01*
X61222812Y26266376D01*
X61386784Y26198456D01*
X61534354Y26099853D01*
X61659853Y25974354D01*
X61758456Y25826784D01*
X61826376Y25662812D01*
X61861000Y25488741D01*
X61861000Y25311259D01*
X61826376Y25137188D01*
X61758456Y24973216D01*
X61659853Y24825646D01*
X61534354Y24700147D01*
X61386784Y24601544D01*
X61222812Y24533624D01*
X61073512Y24503927D01*
X61048742Y24499000D01*
X60871258Y24499000D01*
X60846488Y24503927D01*
X60697188Y24533624D01*
X60533216Y24601544D01*
X60385646Y24700147D01*
X60260147Y24825646D01*
X60161544Y24973216D01*
X60093624Y25137188D01*
X60059000Y25311259D01*
X60059000Y25488741D01*
X60093624Y25662812D01*
X60161544Y25826784D01*
X60260147Y25974354D01*
X60385646Y26099853D01*
X60533216Y26198456D01*
X60697188Y26266376D01*
X60846488Y26296073D01*
X60871258Y26301000D01*
X61048742Y26301000D01*
X61073512Y26296073D01*
G37*
G36*
X55568228Y26738297D02*
G01*
X55723100Y26674147D01*
X55862481Y26581015D01*
X55981015Y26462481D01*
X56074147Y26323100D01*
X56138297Y26168228D01*
X56171000Y26003816D01*
X56171000Y25836184D01*
X56138297Y25671772D01*
X56074147Y25516900D01*
X55981015Y25377519D01*
X55862481Y25258985D01*
X55723100Y25165853D01*
X55568228Y25101703D01*
X55403816Y25069000D01*
X55236184Y25069000D01*
X55071772Y25101703D01*
X54916900Y25165853D01*
X54777519Y25258985D01*
X54658985Y25377519D01*
X54565853Y25516900D01*
X54501703Y25671772D01*
X54469000Y25836184D01*
X54469000Y26003816D01*
X54501703Y26168228D01*
X54565853Y26323100D01*
X54658985Y26462481D01*
X54777519Y26581015D01*
X54916900Y26674147D01*
X55071772Y26738297D01*
X55236184Y26771000D01*
X55403816Y26771000D01*
X55568228Y26738297D01*
G37*
G36*
X47948228Y26738297D02*
G01*
X48103100Y26674147D01*
X48242481Y26581015D01*
X48361015Y26462481D01*
X48454147Y26323100D01*
X48518297Y26168228D01*
X48551000Y26003816D01*
X48551000Y25836184D01*
X48518297Y25671772D01*
X48454147Y25516900D01*
X48361015Y25377519D01*
X48242481Y25258985D01*
X48103100Y25165853D01*
X47948228Y25101703D01*
X47783816Y25069000D01*
X47616184Y25069000D01*
X47451772Y25101703D01*
X47296900Y25165853D01*
X47157519Y25258985D01*
X47038985Y25377519D01*
X46945853Y25516900D01*
X46881703Y25671772D01*
X46849000Y25836184D01*
X46849000Y26003816D01*
X46881703Y26168228D01*
X46945853Y26323100D01*
X47038985Y26462481D01*
X47157519Y26581015D01*
X47296900Y26674147D01*
X47451772Y26738297D01*
X47616184Y26771000D01*
X47783816Y26771000D01*
X47948228Y26738297D01*
G37*
G36*
X17108228Y28238297D02*
G01*
X17263100Y28174147D01*
X17402481Y28081015D01*
X17521015Y27962481D01*
X17614147Y27823100D01*
X17678297Y27668228D01*
X17711000Y27503816D01*
X17711000Y27336184D01*
X17678297Y27171772D01*
X17614147Y27016900D01*
X17521015Y26877519D01*
X17402481Y26758985D01*
X17263100Y26665853D01*
X17108228Y26601703D01*
X16943816Y26569000D01*
X16776184Y26569000D01*
X16611772Y26601703D01*
X16456900Y26665853D01*
X16317519Y26758985D01*
X16198985Y26877519D01*
X16105853Y27016900D01*
X16041703Y27171772D01*
X16009000Y27336184D01*
X16009000Y27503816D01*
X16041703Y27668228D01*
X16105853Y27823100D01*
X16198985Y27962481D01*
X16317519Y28081015D01*
X16456900Y28174147D01*
X16611772Y28238297D01*
X16776184Y28271000D01*
X16943816Y28271000D01*
X17108228Y28238297D01*
G37*
G36*
X9488228Y28238297D02*
G01*
X9643100Y28174147D01*
X9782481Y28081015D01*
X9901015Y27962481D01*
X9994147Y27823100D01*
X10058297Y27668228D01*
X10091000Y27503816D01*
X10091000Y27336184D01*
X10058297Y27171772D01*
X9994147Y27016900D01*
X9901015Y26877519D01*
X9782481Y26758985D01*
X9643100Y26665853D01*
X9488228Y26601703D01*
X9323816Y26569000D01*
X9156184Y26569000D01*
X8991772Y26601703D01*
X8836900Y26665853D01*
X8697519Y26758985D01*
X8578985Y26877519D01*
X8485853Y27016900D01*
X8421703Y27171772D01*
X8389000Y27336184D01*
X8389000Y27503816D01*
X8421703Y27668228D01*
X8485853Y27823100D01*
X8578985Y27962481D01*
X8697519Y28081015D01*
X8836900Y28174147D01*
X8991772Y28238297D01*
X9156184Y28271000D01*
X9323816Y28271000D01*
X9488228Y28238297D01*
G37*
G36*
X22088674Y28296535D02*
G01*
X22126367Y28285101D01*
X22161103Y28266534D01*
X22191548Y28241548D01*
X22216534Y28211103D01*
X22235101Y28176367D01*
X22246535Y28138674D01*
X22251000Y28093339D01*
X22251000Y27256661D01*
X22246535Y27211326D01*
X22235101Y27173633D01*
X22216534Y27138897D01*
X22191548Y27108452D01*
X22161103Y27083466D01*
X22126367Y27064899D01*
X22088674Y27053465D01*
X22043339Y27049000D01*
X20956661Y27049000D01*
X20911326Y27053465D01*
X20873633Y27064899D01*
X20838897Y27083466D01*
X20808452Y27108452D01*
X20783466Y27138897D01*
X20764899Y27173633D01*
X20753465Y27211326D01*
X20749000Y27256661D01*
X20749000Y28093339D01*
X20753465Y28138674D01*
X20764899Y28176367D01*
X20783466Y28211103D01*
X20808452Y28241548D01*
X20838897Y28266534D01*
X20873633Y28285101D01*
X20911326Y28296535D01*
X20956661Y28301000D01*
X22043339Y28301000D01*
X22088674Y28296535D01*
G37*
G36*
X20088674Y28296535D02*
G01*
X20126367Y28285101D01*
X20161103Y28266534D01*
X20191548Y28241548D01*
X20216534Y28211103D01*
X20235101Y28176367D01*
X20246535Y28138674D01*
X20251000Y28093339D01*
X20251000Y27256661D01*
X20246535Y27211326D01*
X20235101Y27173633D01*
X20216534Y27138897D01*
X20191548Y27108452D01*
X20161103Y27083466D01*
X20126367Y27064899D01*
X20088674Y27053465D01*
X20043339Y27049000D01*
X18956661Y27049000D01*
X18911326Y27053465D01*
X18873633Y27064899D01*
X18838897Y27083466D01*
X18808452Y27108452D01*
X18783466Y27138897D01*
X18764899Y27173633D01*
X18753465Y27211326D01*
X18749000Y27256661D01*
X18749000Y28093339D01*
X18753465Y28138674D01*
X18764899Y28176367D01*
X18783466Y28211103D01*
X18808452Y28241548D01*
X18838897Y28266534D01*
X18873633Y28285101D01*
X18911326Y28296535D01*
X18956661Y28301000D01*
X20043339Y28301000D01*
X20088674Y28296535D01*
G37*
G36*
X47948228Y29278297D02*
G01*
X48103100Y29214147D01*
X48242481Y29121015D01*
X48361015Y29002481D01*
X48454147Y28863100D01*
X48518297Y28708228D01*
X48551000Y28543816D01*
X48551000Y28376184D01*
X48518297Y28211772D01*
X48454147Y28056900D01*
X48361015Y27917519D01*
X48242481Y27798985D01*
X48103100Y27705853D01*
X47948228Y27641703D01*
X47783816Y27609000D01*
X47616184Y27609000D01*
X47451772Y27641703D01*
X47296900Y27705853D01*
X47157519Y27798985D01*
X47038985Y27917519D01*
X46945853Y28056900D01*
X46881703Y28211772D01*
X46849000Y28376184D01*
X46849000Y28543816D01*
X46881703Y28708228D01*
X46945853Y28863100D01*
X47038985Y29002481D01*
X47157519Y29121015D01*
X47296900Y29214147D01*
X47451772Y29278297D01*
X47616184Y29311000D01*
X47783816Y29311000D01*
X47948228Y29278297D01*
G37*
G36*
X55568228Y29278297D02*
G01*
X55723100Y29214147D01*
X55862481Y29121015D01*
X55981015Y29002481D01*
X56074147Y28863100D01*
X56138297Y28708228D01*
X56171000Y28543816D01*
X56171000Y28376184D01*
X56138297Y28211772D01*
X56074147Y28056900D01*
X55981015Y27917519D01*
X55862481Y27798985D01*
X55723100Y27705853D01*
X55568228Y27641703D01*
X55403816Y27609000D01*
X55236184Y27609000D01*
X55071772Y27641703D01*
X54916900Y27705853D01*
X54777519Y27798985D01*
X54658985Y27917519D01*
X54565853Y28056900D01*
X54501703Y28211772D01*
X54469000Y28376184D01*
X54469000Y28543816D01*
X54501703Y28708228D01*
X54565853Y28863100D01*
X54658985Y29002481D01*
X54777519Y29121015D01*
X54916900Y29214147D01*
X55071772Y29278297D01*
X55236184Y29311000D01*
X55403816Y29311000D01*
X55568228Y29278297D01*
G37*
G36*
X30651000Y28299000D02*
G01*
X29649000Y28299000D01*
X29649000Y29601000D01*
X30651000Y29601000D01*
X30651000Y28299000D01*
G37*
G36*
X33951000Y28299000D02*
G01*
X32949000Y28299000D01*
X32949000Y29601000D01*
X33951000Y29601000D01*
X33951000Y28299000D01*
G37*
G36*
X20088674Y30346535D02*
G01*
X20126367Y30335101D01*
X20161103Y30316534D01*
X20191548Y30291548D01*
X20216534Y30261103D01*
X20235101Y30226367D01*
X20246535Y30188674D01*
X20251000Y30143339D01*
X20251000Y29306661D01*
X20246535Y29261326D01*
X20235101Y29223633D01*
X20216534Y29188897D01*
X20191548Y29158452D01*
X20161103Y29133466D01*
X20126367Y29114899D01*
X20088674Y29103465D01*
X20043339Y29099000D01*
X18956661Y29099000D01*
X18911326Y29103465D01*
X18873633Y29114899D01*
X18838897Y29133466D01*
X18808452Y29158452D01*
X18783466Y29188897D01*
X18764899Y29223633D01*
X18753465Y29261326D01*
X18749000Y29306661D01*
X18749000Y30143339D01*
X18753465Y30188674D01*
X18764899Y30226367D01*
X18783466Y30261103D01*
X18808452Y30291548D01*
X18838897Y30316534D01*
X18873633Y30335101D01*
X18911326Y30346535D01*
X18956661Y30351000D01*
X20043339Y30351000D01*
X20088674Y30346535D01*
G37*
G36*
X22088674Y30346535D02*
G01*
X22126367Y30335101D01*
X22161103Y30316534D01*
X22191548Y30291548D01*
X22216534Y30261103D01*
X22235101Y30226367D01*
X22246535Y30188674D01*
X22251000Y30143339D01*
X22251000Y29306661D01*
X22246535Y29261326D01*
X22235101Y29223633D01*
X22216534Y29188897D01*
X22191548Y29158452D01*
X22161103Y29133466D01*
X22126367Y29114899D01*
X22088674Y29103465D01*
X22043339Y29099000D01*
X20956661Y29099000D01*
X20911326Y29103465D01*
X20873633Y29114899D01*
X20838897Y29133466D01*
X20808452Y29158452D01*
X20783466Y29188897D01*
X20764899Y29223633D01*
X20753465Y29261326D01*
X20749000Y29306661D01*
X20749000Y30143339D01*
X20753465Y30188674D01*
X20764899Y30226367D01*
X20783466Y30261103D01*
X20808452Y30291548D01*
X20838897Y30316534D01*
X20873633Y30335101D01*
X20911326Y30346535D01*
X20956661Y30351000D01*
X22043339Y30351000D01*
X22088674Y30346535D01*
G37*
G36*
X9488228Y30778297D02*
G01*
X9643100Y30714147D01*
X9782481Y30621015D01*
X9901015Y30502481D01*
X9994147Y30363100D01*
X10058297Y30208228D01*
X10091000Y30043816D01*
X10091000Y29876184D01*
X10058297Y29711772D01*
X9994147Y29556900D01*
X9901015Y29417519D01*
X9782481Y29298985D01*
X9643100Y29205853D01*
X9488228Y29141703D01*
X9323816Y29109000D01*
X9156184Y29109000D01*
X8991772Y29141703D01*
X8836900Y29205853D01*
X8697519Y29298985D01*
X8578985Y29417519D01*
X8485853Y29556900D01*
X8421703Y29711772D01*
X8389000Y29876184D01*
X8389000Y30043816D01*
X8421703Y30208228D01*
X8485853Y30363100D01*
X8578985Y30502481D01*
X8697519Y30621015D01*
X8836900Y30714147D01*
X8991772Y30778297D01*
X9156184Y30811000D01*
X9323816Y30811000D01*
X9488228Y30778297D01*
G37*
G36*
X17108228Y30778297D02*
G01*
X17263100Y30714147D01*
X17402481Y30621015D01*
X17521015Y30502481D01*
X17614147Y30363100D01*
X17678297Y30208228D01*
X17711000Y30043816D01*
X17711000Y29876184D01*
X17678297Y29711772D01*
X17614147Y29556900D01*
X17521015Y29417519D01*
X17402481Y29298985D01*
X17263100Y29205853D01*
X17108228Y29141703D01*
X16943816Y29109000D01*
X16776184Y29109000D01*
X16611772Y29141703D01*
X16456900Y29205853D01*
X16317519Y29298985D01*
X16198985Y29417519D01*
X16105853Y29556900D01*
X16041703Y29711772D01*
X16009000Y29876184D01*
X16009000Y30043816D01*
X16041703Y30208228D01*
X16105853Y30363100D01*
X16198985Y30502481D01*
X16317519Y30621015D01*
X16456900Y30714147D01*
X16611772Y30778297D01*
X16776184Y30811000D01*
X16943816Y30811000D01*
X17108228Y30778297D01*
G37*
G36*
X61375256Y32608702D02*
G01*
X61481579Y32587553D01*
X61782042Y32463097D01*
X62052451Y32282415D01*
X62282415Y32052451D01*
X62438872Y31818297D01*
X62463098Y31782040D01*
X62499550Y31694037D01*
X62562327Y31542481D01*
X62587553Y31481578D01*
X62651000Y31162611D01*
X62651000Y30837389D01*
X62626485Y30714147D01*
X62587553Y30518421D01*
X62463097Y30217958D01*
X62282415Y29947549D01*
X62052451Y29717585D01*
X61782042Y29536903D01*
X61481579Y29412447D01*
X61375256Y29391298D01*
X61162611Y29349000D01*
X60837389Y29349000D01*
X60624744Y29391298D01*
X60518421Y29412447D01*
X60217958Y29536903D01*
X59947549Y29717585D01*
X59717585Y29947549D01*
X59536903Y30217958D01*
X59412447Y30518421D01*
X59373515Y30714147D01*
X59349000Y30837389D01*
X59349000Y31162611D01*
X59412447Y31481578D01*
X59437674Y31542481D01*
X59500450Y31694037D01*
X59536902Y31782040D01*
X59561128Y31818297D01*
X59717585Y32052451D01*
X59947549Y32282415D01*
X60217958Y32463097D01*
X60518421Y32587553D01*
X60624744Y32608702D01*
X60837389Y32651000D01*
X61162611Y32651000D01*
X61375256Y32608702D01*
G37*
G36*
X42051000Y29349000D02*
G01*
X40749000Y29349000D01*
X40749000Y30351000D01*
X42051000Y30351000D01*
X42051000Y29349000D01*
G37*
G36*
X39451000Y29349000D02*
G01*
X38149000Y29349000D01*
X38149000Y30351000D01*
X39451000Y30351000D01*
X39451000Y29349000D01*
G37*
G36*
X4375256Y32608702D02*
G01*
X4481579Y32587553D01*
X4782042Y32463097D01*
X5052451Y32282415D01*
X5282415Y32052451D01*
X5438872Y31818297D01*
X5463098Y31782040D01*
X5499550Y31694037D01*
X5562327Y31542481D01*
X5587553Y31481578D01*
X5651000Y31162611D01*
X5651000Y30837389D01*
X5626485Y30714147D01*
X5587553Y30518421D01*
X5463097Y30217958D01*
X5282415Y29947549D01*
X5052451Y29717585D01*
X4782042Y29536903D01*
X4481579Y29412447D01*
X4375256Y29391298D01*
X4162611Y29349000D01*
X3837389Y29349000D01*
X3624744Y29391298D01*
X3518421Y29412447D01*
X3217958Y29536903D01*
X2947549Y29717585D01*
X2717585Y29947549D01*
X2536903Y30217958D01*
X2412447Y30518421D01*
X2373515Y30714147D01*
X2349000Y30837389D01*
X2349000Y31162611D01*
X2412447Y31481578D01*
X2437674Y31542481D01*
X2500450Y31694037D01*
X2536902Y31782040D01*
X2561128Y31818297D01*
X2717585Y32052451D01*
X2947549Y32282415D01*
X3217958Y32463097D01*
X3518421Y32587553D01*
X3624744Y32608702D01*
X3837389Y32651000D01*
X4162611Y32651000D01*
X4375256Y32608702D01*
G37*
G36*
X26248228Y31118297D02*
G01*
X26403100Y31054147D01*
X26542481Y30961015D01*
X26661015Y30842481D01*
X26754147Y30703100D01*
X26818297Y30548228D01*
X26851000Y30383816D01*
X26851000Y30216184D01*
X26818297Y30051772D01*
X26754147Y29896900D01*
X26661015Y29757519D01*
X26542481Y29638985D01*
X26403100Y29545853D01*
X26248228Y29481703D01*
X26083816Y29449000D01*
X25916184Y29449000D01*
X25751772Y29481703D01*
X25596900Y29545853D01*
X25457519Y29638985D01*
X25338985Y29757519D01*
X25245853Y29896900D01*
X25181703Y30051772D01*
X25149000Y30216184D01*
X25149000Y30383816D01*
X25181703Y30548228D01*
X25245853Y30703100D01*
X25338985Y30842481D01*
X25457519Y30961015D01*
X25596900Y31054147D01*
X25751772Y31118297D01*
X25916184Y31151000D01*
X26083816Y31151000D01*
X26248228Y31118297D01*
G37*
G36*
X48551000Y30149000D02*
G01*
X46849000Y30149000D01*
X46849000Y31851000D01*
X48551000Y31851000D01*
X48551000Y30149000D01*
G37*
G36*
X55568228Y31818297D02*
G01*
X55723100Y31754147D01*
X55862481Y31661015D01*
X55981015Y31542481D01*
X56074147Y31403100D01*
X56138297Y31248228D01*
X56171000Y31083816D01*
X56171000Y30916184D01*
X56138297Y30751772D01*
X56074147Y30596900D01*
X55981015Y30457519D01*
X55862481Y30338985D01*
X55723100Y30245853D01*
X55568228Y30181703D01*
X55403816Y30149000D01*
X55236184Y30149000D01*
X55071772Y30181703D01*
X54916900Y30245853D01*
X54777519Y30338985D01*
X54658985Y30457519D01*
X54565853Y30596900D01*
X54501703Y30751772D01*
X54469000Y30916184D01*
X54469000Y31083816D01*
X54501703Y31248228D01*
X54565853Y31403100D01*
X54658985Y31542481D01*
X54777519Y31661015D01*
X54916900Y31754147D01*
X55071772Y31818297D01*
X55236184Y31851000D01*
X55403816Y31851000D01*
X55568228Y31818297D01*
G37*
G36*
X17108228Y33318297D02*
G01*
X17263100Y33254147D01*
X17402481Y33161015D01*
X17521015Y33042481D01*
X17614147Y32903100D01*
X17678297Y32748228D01*
X17711000Y32583816D01*
X17711000Y32416184D01*
X17678297Y32251772D01*
X17614147Y32096900D01*
X17521015Y31957519D01*
X17402481Y31838985D01*
X17263100Y31745853D01*
X17108228Y31681703D01*
X16943816Y31649000D01*
X16776184Y31649000D01*
X16611772Y31681703D01*
X16456900Y31745853D01*
X16317519Y31838985D01*
X16198985Y31957519D01*
X16105853Y32096900D01*
X16041703Y32251772D01*
X16009000Y32416184D01*
X16009000Y32583816D01*
X16041703Y32748228D01*
X16105853Y32903100D01*
X16198985Y33042481D01*
X16317519Y33161015D01*
X16456900Y33254147D01*
X16611772Y33318297D01*
X16776184Y33351000D01*
X16943816Y33351000D01*
X17108228Y33318297D01*
G37*
G36*
X10091000Y31649000D02*
G01*
X8389000Y31649000D01*
X8389000Y33351000D01*
X10091000Y33351000D01*
X10091000Y31649000D01*
G37*
G36*
X26851000Y31949000D02*
G01*
X25149000Y31949000D01*
X25149000Y33651000D01*
X26851000Y33651000D01*
X26851000Y31949000D01*
G37*
G36*
X35673512Y33916073D02*
G01*
X35822812Y33886376D01*
X35986784Y33818456D01*
X36134354Y33719853D01*
X36259853Y33594354D01*
X36358456Y33446784D01*
X36426376Y33282812D01*
X36461000Y33108741D01*
X36461000Y32931259D01*
X36426376Y32757188D01*
X36358456Y32593216D01*
X36259853Y32445646D01*
X36134354Y32320147D01*
X35986784Y32221544D01*
X35822812Y32153624D01*
X35673512Y32123927D01*
X35648742Y32119000D01*
X35471258Y32119000D01*
X35446488Y32123927D01*
X35297188Y32153624D01*
X35133216Y32221544D01*
X34985646Y32320147D01*
X34860147Y32445646D01*
X34761544Y32593216D01*
X34693624Y32757188D01*
X34659000Y32931259D01*
X34659000Y33108741D01*
X34693624Y33282812D01*
X34761544Y33446784D01*
X34860147Y33594354D01*
X34985646Y33719853D01*
X35133216Y33818456D01*
X35297188Y33886376D01*
X35446488Y33916073D01*
X35471258Y33921000D01*
X35648742Y33921000D01*
X35673512Y33916073D01*
G37*
G36*
X33921000Y32119000D02*
G01*
X32119000Y32119000D01*
X32119000Y33921000D01*
X33921000Y33921000D01*
X33921000Y32119000D01*
G37*
G36*
X39451000Y32649000D02*
G01*
X38149000Y32649000D01*
X38149000Y33651000D01*
X39451000Y33651000D01*
X39451000Y32649000D01*
G37*
G36*
X42051000Y32649000D02*
G01*
X40749000Y32649000D01*
X40749000Y33651000D01*
X42051000Y33651000D01*
X42051000Y32649000D01*
G37*
M02*
