G04 #@! TF.GenerationSoftware,KiCad,Pcbnew,(5.1.5)-3*
G04 #@! TF.CreationDate,2020-02-22T22:04:57-05:00*
G04 #@! TF.ProjectId,Semiparametric-EQ,53656d69-7061-4726-916d-65747269632d,rev?*
G04 #@! TF.SameCoordinates,Original*
G04 #@! TF.FileFunction,Soldermask,Bot*
G04 #@! TF.FilePolarity,Negative*
%FSLAX46Y46*%
G04 Gerber Fmt 4.6, Leading zero omitted, Abs format (unit mm)*
G04 Created by KiCad (PCBNEW (5.1.5)-3) date 2020-02-22 22:04:57*
%MOMM*%
%LPD*%
G04 APERTURE LIST*
%ADD10C,0.100000*%
G04 APERTURE END LIST*
D10*
G36*
X10273512Y3436073D02*
G01*
X10422812Y3406376D01*
X10586784Y3338456D01*
X10734354Y3239853D01*
X10859853Y3114354D01*
X10958456Y2966784D01*
X11026376Y2802812D01*
X11061000Y2628741D01*
X11061000Y2451259D01*
X11026376Y2277188D01*
X10958456Y2113216D01*
X10859853Y1965646D01*
X10734354Y1840147D01*
X10586784Y1741544D01*
X10422812Y1673624D01*
X10273512Y1643927D01*
X10248742Y1639000D01*
X10071258Y1639000D01*
X10046488Y1643927D01*
X9897188Y1673624D01*
X9733216Y1741544D01*
X9585646Y1840147D01*
X9460147Y1965646D01*
X9361544Y2113216D01*
X9293624Y2277188D01*
X9259000Y2451259D01*
X9259000Y2628741D01*
X9293624Y2802812D01*
X9361544Y2966784D01*
X9460147Y3114354D01*
X9585646Y3239853D01*
X9733216Y3338456D01*
X9897188Y3406376D01*
X10046488Y3436073D01*
X10071258Y3441000D01*
X10248742Y3441000D01*
X10273512Y3436073D01*
G37*
G36*
X50913512Y3436073D02*
G01*
X51062812Y3406376D01*
X51226784Y3338456D01*
X51374354Y3239853D01*
X51499853Y3114354D01*
X51598456Y2966784D01*
X51666376Y2802812D01*
X51701000Y2628741D01*
X51701000Y2451259D01*
X51666376Y2277188D01*
X51598456Y2113216D01*
X51499853Y1965646D01*
X51374354Y1840147D01*
X51226784Y1741544D01*
X51062812Y1673624D01*
X50913512Y1643927D01*
X50888742Y1639000D01*
X50711258Y1639000D01*
X50686488Y1643927D01*
X50537188Y1673624D01*
X50373216Y1741544D01*
X50225646Y1840147D01*
X50100147Y1965646D01*
X50001544Y2113216D01*
X49933624Y2277188D01*
X49899000Y2451259D01*
X49899000Y2628741D01*
X49933624Y2802812D01*
X50001544Y2966784D01*
X50100147Y3114354D01*
X50225646Y3239853D01*
X50373216Y3338456D01*
X50537188Y3406376D01*
X50686488Y3436073D01*
X50711258Y3441000D01*
X50888742Y3441000D01*
X50913512Y3436073D01*
G37*
G36*
X20433512Y3436073D02*
G01*
X20582812Y3406376D01*
X20746784Y3338456D01*
X20894354Y3239853D01*
X21019853Y3114354D01*
X21118456Y2966784D01*
X21186376Y2802812D01*
X21221000Y2628741D01*
X21221000Y2451259D01*
X21186376Y2277188D01*
X21118456Y2113216D01*
X21019853Y1965646D01*
X20894354Y1840147D01*
X20746784Y1741544D01*
X20582812Y1673624D01*
X20433512Y1643927D01*
X20408742Y1639000D01*
X20231258Y1639000D01*
X20206488Y1643927D01*
X20057188Y1673624D01*
X19893216Y1741544D01*
X19745646Y1840147D01*
X19620147Y1965646D01*
X19521544Y2113216D01*
X19453624Y2277188D01*
X19419000Y2451259D01*
X19419000Y2628741D01*
X19453624Y2802812D01*
X19521544Y2966784D01*
X19620147Y3114354D01*
X19745646Y3239853D01*
X19893216Y3338456D01*
X20057188Y3406376D01*
X20206488Y3436073D01*
X20231258Y3441000D01*
X20408742Y3441000D01*
X20433512Y3436073D01*
G37*
G36*
X49161000Y1639000D02*
G01*
X47359000Y1639000D01*
X47359000Y3441000D01*
X49161000Y3441000D01*
X49161000Y1639000D01*
G37*
G36*
X53453512Y3436073D02*
G01*
X53602812Y3406376D01*
X53766784Y3338456D01*
X53914354Y3239853D01*
X54039853Y3114354D01*
X54138456Y2966784D01*
X54206376Y2802812D01*
X54241000Y2628741D01*
X54241000Y2451259D01*
X54206376Y2277188D01*
X54138456Y2113216D01*
X54039853Y1965646D01*
X53914354Y1840147D01*
X53766784Y1741544D01*
X53602812Y1673624D01*
X53453512Y1643927D01*
X53428742Y1639000D01*
X53251258Y1639000D01*
X53226488Y1643927D01*
X53077188Y1673624D01*
X52913216Y1741544D01*
X52765646Y1840147D01*
X52640147Y1965646D01*
X52541544Y2113216D01*
X52473624Y2277188D01*
X52439000Y2451259D01*
X52439000Y2628741D01*
X52473624Y2802812D01*
X52541544Y2966784D01*
X52640147Y3114354D01*
X52765646Y3239853D01*
X52913216Y3338456D01*
X53077188Y3406376D01*
X53226488Y3436073D01*
X53251258Y3441000D01*
X53428742Y3441000D01*
X53453512Y3436073D01*
G37*
G36*
X33133512Y3436073D02*
G01*
X33282812Y3406376D01*
X33446784Y3338456D01*
X33594354Y3239853D01*
X33719853Y3114354D01*
X33818456Y2966784D01*
X33886376Y2802812D01*
X33921000Y2628741D01*
X33921000Y2451259D01*
X33886376Y2277188D01*
X33818456Y2113216D01*
X33719853Y1965646D01*
X33594354Y1840147D01*
X33446784Y1741544D01*
X33282812Y1673624D01*
X33133512Y1643927D01*
X33108742Y1639000D01*
X32931258Y1639000D01*
X32906488Y1643927D01*
X32757188Y1673624D01*
X32593216Y1741544D01*
X32445646Y1840147D01*
X32320147Y1965646D01*
X32221544Y2113216D01*
X32153624Y2277188D01*
X32119000Y2451259D01*
X32119000Y2628741D01*
X32153624Y2802812D01*
X32221544Y2966784D01*
X32320147Y3114354D01*
X32445646Y3239853D01*
X32593216Y3338456D01*
X32757188Y3406376D01*
X32906488Y3436073D01*
X32931258Y3441000D01*
X33108742Y3441000D01*
X33133512Y3436073D01*
G37*
G36*
X28841000Y1639000D02*
G01*
X27039000Y1639000D01*
X27039000Y3441000D01*
X28841000Y3441000D01*
X28841000Y1639000D01*
G37*
G36*
X30593512Y3436073D02*
G01*
X30742812Y3406376D01*
X30906784Y3338456D01*
X31054354Y3239853D01*
X31179853Y3114354D01*
X31278456Y2966784D01*
X31346376Y2802812D01*
X31381000Y2628741D01*
X31381000Y2451259D01*
X31346376Y2277188D01*
X31278456Y2113216D01*
X31179853Y1965646D01*
X31054354Y1840147D01*
X30906784Y1741544D01*
X30742812Y1673624D01*
X30593512Y1643927D01*
X30568742Y1639000D01*
X30391258Y1639000D01*
X30366488Y1643927D01*
X30217188Y1673624D01*
X30053216Y1741544D01*
X29905646Y1840147D01*
X29780147Y1965646D01*
X29681544Y2113216D01*
X29613624Y2277188D01*
X29579000Y2451259D01*
X29579000Y2628741D01*
X29613624Y2802812D01*
X29681544Y2966784D01*
X29780147Y3114354D01*
X29905646Y3239853D01*
X30053216Y3338456D01*
X30217188Y3406376D01*
X30366488Y3436073D01*
X30391258Y3441000D01*
X30568742Y3441000D01*
X30593512Y3436073D01*
G37*
G36*
X12813512Y3436073D02*
G01*
X12962812Y3406376D01*
X13126784Y3338456D01*
X13274354Y3239853D01*
X13399853Y3114354D01*
X13498456Y2966784D01*
X13566376Y2802812D01*
X13601000Y2628741D01*
X13601000Y2451259D01*
X13566376Y2277188D01*
X13498456Y2113216D01*
X13399853Y1965646D01*
X13274354Y1840147D01*
X13126784Y1741544D01*
X12962812Y1673624D01*
X12813512Y1643927D01*
X12788742Y1639000D01*
X12611258Y1639000D01*
X12586488Y1643927D01*
X12437188Y1673624D01*
X12273216Y1741544D01*
X12125646Y1840147D01*
X12000147Y1965646D01*
X11901544Y2113216D01*
X11833624Y2277188D01*
X11799000Y2451259D01*
X11799000Y2628741D01*
X11833624Y2802812D01*
X11901544Y2966784D01*
X12000147Y3114354D01*
X12125646Y3239853D01*
X12273216Y3338456D01*
X12437188Y3406376D01*
X12586488Y3436073D01*
X12611258Y3441000D01*
X12788742Y3441000D01*
X12813512Y3436073D01*
G37*
G36*
X16141000Y1639000D02*
G01*
X14339000Y1639000D01*
X14339000Y3441000D01*
X16141000Y3441000D01*
X16141000Y1639000D01*
G37*
G36*
X38438674Y3346535D02*
G01*
X38476367Y3335101D01*
X38511103Y3316534D01*
X38541548Y3291548D01*
X38566534Y3261103D01*
X38585101Y3226367D01*
X38596535Y3188674D01*
X38601000Y3143339D01*
X38601000Y2056661D01*
X38596535Y2011326D01*
X38585101Y1973633D01*
X38566534Y1938897D01*
X38541548Y1908452D01*
X38511103Y1883466D01*
X38476367Y1864899D01*
X38438674Y1853465D01*
X38393339Y1849000D01*
X37556661Y1849000D01*
X37511326Y1853465D01*
X37473633Y1864899D01*
X37438897Y1883466D01*
X37408452Y1908452D01*
X37383466Y1938897D01*
X37364899Y1973633D01*
X37353465Y2011326D01*
X37349000Y2056661D01*
X37349000Y3143339D01*
X37353465Y3188674D01*
X37364899Y3226367D01*
X37383466Y3261103D01*
X37408452Y3291548D01*
X37438897Y3316534D01*
X37473633Y3335101D01*
X37511326Y3346535D01*
X37556661Y3351000D01*
X38393339Y3351000D01*
X38438674Y3346535D01*
G37*
G36*
X40488674Y3346535D02*
G01*
X40526367Y3335101D01*
X40561103Y3316534D01*
X40591548Y3291548D01*
X40616534Y3261103D01*
X40635101Y3226367D01*
X40646535Y3188674D01*
X40651000Y3143339D01*
X40651000Y2056661D01*
X40646535Y2011326D01*
X40635101Y1973633D01*
X40616534Y1938897D01*
X40591548Y1908452D01*
X40561103Y1883466D01*
X40526367Y1864899D01*
X40488674Y1853465D01*
X40443339Y1849000D01*
X39606661Y1849000D01*
X39561326Y1853465D01*
X39523633Y1864899D01*
X39488897Y1883466D01*
X39458452Y1908452D01*
X39433466Y1938897D01*
X39414899Y1973633D01*
X39403465Y2011326D01*
X39399000Y2056661D01*
X39399000Y3143339D01*
X39403465Y3188674D01*
X39414899Y3226367D01*
X39433466Y3261103D01*
X39458452Y3291548D01*
X39488897Y3316534D01*
X39523633Y3335101D01*
X39561326Y3346535D01*
X39606661Y3351000D01*
X40443339Y3351000D01*
X40488674Y3346535D01*
G37*
G36*
X4286448Y5626367D02*
G01*
X4481579Y5587553D01*
X4694037Y5499550D01*
X4744067Y5478827D01*
X4782042Y5463097D01*
X5052451Y5282415D01*
X5282415Y5052451D01*
X5463097Y4782042D01*
X5576422Y4508452D01*
X5587553Y4481578D01*
X5632776Y4254230D01*
X5651000Y4162609D01*
X5651000Y3837391D01*
X5587553Y3518421D01*
X5463097Y3217958D01*
X5282415Y2947549D01*
X5052451Y2717585D01*
X4782042Y2536903D01*
X4481579Y2412447D01*
X4375256Y2391298D01*
X4162611Y2349000D01*
X3837389Y2349000D01*
X3624744Y2391298D01*
X3518421Y2412447D01*
X3217958Y2536903D01*
X2947549Y2717585D01*
X2717585Y2947549D01*
X2536903Y3217958D01*
X2412447Y3518421D01*
X2349000Y3837391D01*
X2349000Y4162609D01*
X2367225Y4254230D01*
X2412447Y4481578D01*
X2423579Y4508452D01*
X2536903Y4782042D01*
X2717585Y5052451D01*
X2947549Y5282415D01*
X3217958Y5463097D01*
X3255934Y5478827D01*
X3305963Y5499550D01*
X3518421Y5587553D01*
X3713552Y5626367D01*
X3837389Y5651000D01*
X4162611Y5651000D01*
X4286448Y5626367D01*
G37*
G36*
X61286448Y5626367D02*
G01*
X61481579Y5587553D01*
X61694037Y5499550D01*
X61744067Y5478827D01*
X61782042Y5463097D01*
X62052451Y5282415D01*
X62282415Y5052451D01*
X62463097Y4782042D01*
X62576422Y4508452D01*
X62587553Y4481578D01*
X62632776Y4254230D01*
X62651000Y4162609D01*
X62651000Y3837391D01*
X62587553Y3518421D01*
X62463097Y3217958D01*
X62282415Y2947549D01*
X62052451Y2717585D01*
X61782042Y2536903D01*
X61481579Y2412447D01*
X61375256Y2391298D01*
X61162611Y2349000D01*
X60837389Y2349000D01*
X60624744Y2391298D01*
X60518421Y2412447D01*
X60217958Y2536903D01*
X59947549Y2717585D01*
X59717585Y2947549D01*
X59536903Y3217958D01*
X59412447Y3518421D01*
X59349000Y3837391D01*
X59349000Y4162609D01*
X59367225Y4254230D01*
X59412447Y4481578D01*
X59423579Y4508452D01*
X59536903Y4782042D01*
X59717585Y5052451D01*
X59947549Y5282415D01*
X60217958Y5463097D01*
X60255934Y5478827D01*
X60305963Y5499550D01*
X60518421Y5587553D01*
X60713552Y5626367D01*
X60837389Y5651000D01*
X61162611Y5651000D01*
X61286448Y5626367D01*
G37*
G36*
X21221000Y4179000D02*
G01*
X19419000Y4179000D01*
X19419000Y5981000D01*
X21221000Y5981000D01*
X21221000Y4179000D01*
G37*
G36*
X44338674Y5746535D02*
G01*
X44376367Y5735101D01*
X44411103Y5716534D01*
X44441548Y5691548D01*
X44466534Y5661103D01*
X44485101Y5626367D01*
X44496535Y5588674D01*
X44501000Y5543339D01*
X44501000Y4456661D01*
X44496535Y4411326D01*
X44485101Y4373633D01*
X44466534Y4338897D01*
X44441548Y4308452D01*
X44411103Y4283466D01*
X44376367Y4264899D01*
X44338674Y4253465D01*
X44293339Y4249000D01*
X43456661Y4249000D01*
X43411326Y4253465D01*
X43373633Y4264899D01*
X43338897Y4283466D01*
X43308452Y4308452D01*
X43283466Y4338897D01*
X43264899Y4373633D01*
X43253465Y4411326D01*
X43249000Y4456661D01*
X43249000Y5543339D01*
X43253465Y5588674D01*
X43264899Y5626367D01*
X43283466Y5661103D01*
X43308452Y5691548D01*
X43338897Y5716534D01*
X43373633Y5735101D01*
X43411326Y5746535D01*
X43456661Y5751000D01*
X44293339Y5751000D01*
X44338674Y5746535D01*
G37*
G36*
X46388674Y5746535D02*
G01*
X46426367Y5735101D01*
X46461103Y5716534D01*
X46491548Y5691548D01*
X46516534Y5661103D01*
X46535101Y5626367D01*
X46546535Y5588674D01*
X46551000Y5543339D01*
X46551000Y4456661D01*
X46546535Y4411326D01*
X46535101Y4373633D01*
X46516534Y4338897D01*
X46491548Y4308452D01*
X46461103Y4283466D01*
X46426367Y4264899D01*
X46388674Y4253465D01*
X46343339Y4249000D01*
X45506661Y4249000D01*
X45461326Y4253465D01*
X45423633Y4264899D01*
X45388897Y4283466D01*
X45358452Y4308452D01*
X45333466Y4338897D01*
X45314899Y4373633D01*
X45303465Y4411326D01*
X45299000Y4456661D01*
X45299000Y5543339D01*
X45303465Y5588674D01*
X45314899Y5626367D01*
X45333466Y5661103D01*
X45358452Y5691548D01*
X45388897Y5716534D01*
X45423633Y5735101D01*
X45461326Y5746535D01*
X45506661Y5751000D01*
X46343339Y5751000D01*
X46388674Y5746535D01*
G37*
G36*
X48463674Y5746535D02*
G01*
X48501367Y5735101D01*
X48536103Y5716534D01*
X48566548Y5691548D01*
X48591534Y5661103D01*
X48610101Y5626367D01*
X48621535Y5588674D01*
X48626000Y5543339D01*
X48626000Y4456661D01*
X48621535Y4411326D01*
X48610101Y4373633D01*
X48591534Y4338897D01*
X48566548Y4308452D01*
X48536103Y4283466D01*
X48501367Y4264899D01*
X48463674Y4253465D01*
X48418339Y4249000D01*
X47581661Y4249000D01*
X47536326Y4253465D01*
X47498633Y4264899D01*
X47463897Y4283466D01*
X47433452Y4308452D01*
X47408466Y4338897D01*
X47389899Y4373633D01*
X47378465Y4411326D01*
X47374000Y4456661D01*
X47374000Y5543339D01*
X47378465Y5588674D01*
X47389899Y5626367D01*
X47408466Y5661103D01*
X47433452Y5691548D01*
X47463897Y5716534D01*
X47498633Y5735101D01*
X47536326Y5746535D01*
X47581661Y5751000D01*
X48418339Y5751000D01*
X48463674Y5746535D01*
G37*
G36*
X50513674Y5746535D02*
G01*
X50551367Y5735101D01*
X50586103Y5716534D01*
X50616548Y5691548D01*
X50641534Y5661103D01*
X50660101Y5626367D01*
X50671535Y5588674D01*
X50676000Y5543339D01*
X50676000Y4456661D01*
X50671535Y4411326D01*
X50660101Y4373633D01*
X50641534Y4338897D01*
X50616548Y4308452D01*
X50586103Y4283466D01*
X50551367Y4264899D01*
X50513674Y4253465D01*
X50468339Y4249000D01*
X49631661Y4249000D01*
X49586326Y4253465D01*
X49548633Y4264899D01*
X49513897Y4283466D01*
X49483452Y4308452D01*
X49458466Y4338897D01*
X49439899Y4373633D01*
X49428465Y4411326D01*
X49424000Y4456661D01*
X49424000Y5543339D01*
X49428465Y5588674D01*
X49439899Y5626367D01*
X49458466Y5661103D01*
X49483452Y5691548D01*
X49513897Y5716534D01*
X49548633Y5735101D01*
X49586326Y5746535D01*
X49631661Y5751000D01*
X50468339Y5751000D01*
X50513674Y5746535D01*
G37*
G36*
X33238674Y5946535D02*
G01*
X33276367Y5935101D01*
X33311103Y5916534D01*
X33341548Y5891548D01*
X33366534Y5861103D01*
X33385101Y5826367D01*
X33396535Y5788674D01*
X33401000Y5743339D01*
X33401000Y4656661D01*
X33396535Y4611326D01*
X33385101Y4573633D01*
X33366534Y4538897D01*
X33341548Y4508452D01*
X33311103Y4483466D01*
X33276367Y4464899D01*
X33238674Y4453465D01*
X33193339Y4449000D01*
X32356661Y4449000D01*
X32311326Y4453465D01*
X32273633Y4464899D01*
X32238897Y4483466D01*
X32208452Y4508452D01*
X32183466Y4538897D01*
X32164899Y4573633D01*
X32153465Y4611326D01*
X32149000Y4656661D01*
X32149000Y5743339D01*
X32153465Y5788674D01*
X32164899Y5826367D01*
X32183466Y5861103D01*
X32208452Y5891548D01*
X32238897Y5916534D01*
X32273633Y5935101D01*
X32311326Y5946535D01*
X32356661Y5951000D01*
X33193339Y5951000D01*
X33238674Y5946535D01*
G37*
G36*
X31188674Y5946535D02*
G01*
X31226367Y5935101D01*
X31261103Y5916534D01*
X31291548Y5891548D01*
X31316534Y5861103D01*
X31335101Y5826367D01*
X31346535Y5788674D01*
X31351000Y5743339D01*
X31351000Y4656661D01*
X31346535Y4611326D01*
X31335101Y4573633D01*
X31316534Y4538897D01*
X31291548Y4508452D01*
X31261103Y4483466D01*
X31226367Y4464899D01*
X31188674Y4453465D01*
X31143339Y4449000D01*
X30306661Y4449000D01*
X30261326Y4453465D01*
X30223633Y4464899D01*
X30188897Y4483466D01*
X30158452Y4508452D01*
X30133466Y4538897D01*
X30114899Y4573633D01*
X30103465Y4611326D01*
X30099000Y4656661D01*
X30099000Y5743339D01*
X30103465Y5788674D01*
X30114899Y5826367D01*
X30133466Y5861103D01*
X30158452Y5891548D01*
X30188897Y5916534D01*
X30223633Y5935101D01*
X30261326Y5946535D01*
X30306661Y5951000D01*
X31143339Y5951000D01*
X31188674Y5946535D01*
G37*
G36*
X27288674Y5946535D02*
G01*
X27326367Y5935101D01*
X27361103Y5916534D01*
X27391548Y5891548D01*
X27416534Y5861103D01*
X27435101Y5826367D01*
X27446535Y5788674D01*
X27451000Y5743339D01*
X27451000Y4656661D01*
X27446535Y4611326D01*
X27435101Y4573633D01*
X27416534Y4538897D01*
X27391548Y4508452D01*
X27361103Y4483466D01*
X27326367Y4464899D01*
X27288674Y4453465D01*
X27243339Y4449000D01*
X26406661Y4449000D01*
X26361326Y4453465D01*
X26323633Y4464899D01*
X26288897Y4483466D01*
X26258452Y4508452D01*
X26233466Y4538897D01*
X26214899Y4573633D01*
X26203465Y4611326D01*
X26199000Y4656661D01*
X26199000Y5743339D01*
X26203465Y5788674D01*
X26214899Y5826367D01*
X26233466Y5861103D01*
X26258452Y5891548D01*
X26288897Y5916534D01*
X26323633Y5935101D01*
X26361326Y5946535D01*
X26406661Y5951000D01*
X27243339Y5951000D01*
X27288674Y5946535D01*
G37*
G36*
X29138674Y5946535D02*
G01*
X29176367Y5935101D01*
X29211103Y5916534D01*
X29241548Y5891548D01*
X29266534Y5861103D01*
X29285101Y5826367D01*
X29296535Y5788674D01*
X29301000Y5743339D01*
X29301000Y4656661D01*
X29296535Y4611326D01*
X29285101Y4573633D01*
X29266534Y4538897D01*
X29241548Y4508452D01*
X29211103Y4483466D01*
X29176367Y4464899D01*
X29138674Y4453465D01*
X29093339Y4449000D01*
X28256661Y4449000D01*
X28211326Y4453465D01*
X28173633Y4464899D01*
X28138897Y4483466D01*
X28108452Y4508452D01*
X28083466Y4538897D01*
X28064899Y4573633D01*
X28053465Y4611326D01*
X28049000Y4656661D01*
X28049000Y5743339D01*
X28053465Y5788674D01*
X28064899Y5826367D01*
X28083466Y5861103D01*
X28108452Y5891548D01*
X28138897Y5916534D01*
X28173633Y5935101D01*
X28211326Y5946535D01*
X28256661Y5951000D01*
X29093339Y5951000D01*
X29138674Y5946535D01*
G37*
G36*
X25238674Y5946535D02*
G01*
X25276367Y5935101D01*
X25311103Y5916534D01*
X25341548Y5891548D01*
X25366534Y5861103D01*
X25385101Y5826367D01*
X25396535Y5788674D01*
X25401000Y5743339D01*
X25401000Y4656661D01*
X25396535Y4611326D01*
X25385101Y4573633D01*
X25366534Y4538897D01*
X25341548Y4508452D01*
X25311103Y4483466D01*
X25276367Y4464899D01*
X25238674Y4453465D01*
X25193339Y4449000D01*
X24356661Y4449000D01*
X24311326Y4453465D01*
X24273633Y4464899D01*
X24238897Y4483466D01*
X24208452Y4508452D01*
X24183466Y4538897D01*
X24164899Y4573633D01*
X24153465Y4611326D01*
X24149000Y4656661D01*
X24149000Y5743339D01*
X24153465Y5788674D01*
X24164899Y5826367D01*
X24183466Y5861103D01*
X24208452Y5891548D01*
X24238897Y5916534D01*
X24273633Y5935101D01*
X24311326Y5946535D01*
X24356661Y5951000D01*
X25193339Y5951000D01*
X25238674Y5946535D01*
G37*
G36*
X35288674Y5946535D02*
G01*
X35326367Y5935101D01*
X35361103Y5916534D01*
X35391548Y5891548D01*
X35416534Y5861103D01*
X35435101Y5826367D01*
X35446535Y5788674D01*
X35451000Y5743339D01*
X35451000Y4656661D01*
X35446535Y4611326D01*
X35435101Y4573633D01*
X35416534Y4538897D01*
X35391548Y4508452D01*
X35361103Y4483466D01*
X35326367Y4464899D01*
X35288674Y4453465D01*
X35243339Y4449000D01*
X34406661Y4449000D01*
X34361326Y4453465D01*
X34323633Y4464899D01*
X34288897Y4483466D01*
X34258452Y4508452D01*
X34233466Y4538897D01*
X34214899Y4573633D01*
X34203465Y4611326D01*
X34199000Y4656661D01*
X34199000Y5743339D01*
X34203465Y5788674D01*
X34214899Y5826367D01*
X34233466Y5861103D01*
X34258452Y5891548D01*
X34288897Y5916534D01*
X34323633Y5935101D01*
X34361326Y5946535D01*
X34406661Y5951000D01*
X35243339Y5951000D01*
X35288674Y5946535D01*
G37*
G36*
X40608674Y6876535D02*
G01*
X40646367Y6865101D01*
X40681103Y6846534D01*
X40711548Y6821548D01*
X40736534Y6791103D01*
X40755101Y6756367D01*
X40766535Y6718674D01*
X40771000Y6673339D01*
X40771000Y5836661D01*
X40766535Y5791326D01*
X40755101Y5753633D01*
X40736534Y5718897D01*
X40711548Y5688452D01*
X40681103Y5663466D01*
X40646367Y5644899D01*
X40608674Y5633465D01*
X40563339Y5629000D01*
X39476661Y5629000D01*
X39431326Y5633465D01*
X39393633Y5644899D01*
X39358897Y5663466D01*
X39328452Y5688452D01*
X39303466Y5718897D01*
X39284899Y5753633D01*
X39273465Y5791326D01*
X39269000Y5836661D01*
X39269000Y6673339D01*
X39273465Y6718674D01*
X39284899Y6756367D01*
X39303466Y6791103D01*
X39328452Y6821548D01*
X39358897Y6846534D01*
X39393633Y6865101D01*
X39431326Y6876535D01*
X39476661Y6881000D01*
X40563339Y6881000D01*
X40608674Y6876535D01*
G37*
G36*
X53453512Y8516073D02*
G01*
X53602812Y8486376D01*
X53766784Y8418456D01*
X53914354Y8319853D01*
X54039853Y8194354D01*
X54138456Y8046784D01*
X54206376Y7882812D01*
X54241000Y7708741D01*
X54241000Y7531259D01*
X54206376Y7357188D01*
X54138456Y7193216D01*
X54039853Y7045646D01*
X53914354Y6920147D01*
X53766784Y6821544D01*
X53602812Y6753624D01*
X53453512Y6723927D01*
X53428742Y6719000D01*
X53251258Y6719000D01*
X53226488Y6723927D01*
X53077188Y6753624D01*
X52913216Y6821544D01*
X52765646Y6920147D01*
X52640147Y7045646D01*
X52541544Y7193216D01*
X52473624Y7357188D01*
X52439000Y7531259D01*
X52439000Y7708741D01*
X52473624Y7882812D01*
X52541544Y8046784D01*
X52640147Y8194354D01*
X52765646Y8319853D01*
X52913216Y8418456D01*
X53077188Y8486376D01*
X53226488Y8516073D01*
X53251258Y8521000D01*
X53428742Y8521000D01*
X53453512Y8516073D01*
G37*
G36*
X50913512Y8516073D02*
G01*
X51062812Y8486376D01*
X51226784Y8418456D01*
X51374354Y8319853D01*
X51499853Y8194354D01*
X51598456Y8046784D01*
X51666376Y7882812D01*
X51701000Y7708741D01*
X51701000Y7531259D01*
X51666376Y7357188D01*
X51598456Y7193216D01*
X51499853Y7045646D01*
X51374354Y6920147D01*
X51226784Y6821544D01*
X51062812Y6753624D01*
X50913512Y6723927D01*
X50888742Y6719000D01*
X50711258Y6719000D01*
X50686488Y6723927D01*
X50537188Y6753624D01*
X50373216Y6821544D01*
X50225646Y6920147D01*
X50100147Y7045646D01*
X50001544Y7193216D01*
X49933624Y7357188D01*
X49899000Y7531259D01*
X49899000Y7708741D01*
X49933624Y7882812D01*
X50001544Y8046784D01*
X50100147Y8194354D01*
X50225646Y8319853D01*
X50373216Y8418456D01*
X50537188Y8486376D01*
X50686488Y8516073D01*
X50711258Y8521000D01*
X50888742Y8521000D01*
X50913512Y8516073D01*
G37*
G36*
X48373512Y8516073D02*
G01*
X48522812Y8486376D01*
X48686784Y8418456D01*
X48834354Y8319853D01*
X48959853Y8194354D01*
X49058456Y8046784D01*
X49126376Y7882812D01*
X49161000Y7708741D01*
X49161000Y7531259D01*
X49126376Y7357188D01*
X49058456Y7193216D01*
X48959853Y7045646D01*
X48834354Y6920147D01*
X48686784Y6821544D01*
X48522812Y6753624D01*
X48373512Y6723927D01*
X48348742Y6719000D01*
X48171258Y6719000D01*
X48146488Y6723927D01*
X47997188Y6753624D01*
X47833216Y6821544D01*
X47685646Y6920147D01*
X47560147Y7045646D01*
X47461544Y7193216D01*
X47393624Y7357188D01*
X47359000Y7531259D01*
X47359000Y7708741D01*
X47393624Y7882812D01*
X47461544Y8046784D01*
X47560147Y8194354D01*
X47685646Y8319853D01*
X47833216Y8418456D01*
X47997188Y8486376D01*
X48146488Y8516073D01*
X48171258Y8521000D01*
X48348742Y8521000D01*
X48373512Y8516073D01*
G37*
G36*
X45833512Y8516073D02*
G01*
X45982812Y8486376D01*
X46146784Y8418456D01*
X46294354Y8319853D01*
X46419853Y8194354D01*
X46518456Y8046784D01*
X46586376Y7882812D01*
X46621000Y7708741D01*
X46621000Y7531259D01*
X46586376Y7357188D01*
X46518456Y7193216D01*
X46419853Y7045646D01*
X46294354Y6920147D01*
X46146784Y6821544D01*
X45982812Y6753624D01*
X45833512Y6723927D01*
X45808742Y6719000D01*
X45631258Y6719000D01*
X45606488Y6723927D01*
X45457188Y6753624D01*
X45293216Y6821544D01*
X45145646Y6920147D01*
X45020147Y7045646D01*
X44921544Y7193216D01*
X44853624Y7357188D01*
X44819000Y7531259D01*
X44819000Y7708741D01*
X44853624Y7882812D01*
X44921544Y8046784D01*
X45020147Y8194354D01*
X45145646Y8319853D01*
X45293216Y8418456D01*
X45457188Y8486376D01*
X45606488Y8516073D01*
X45631258Y8521000D01*
X45808742Y8521000D01*
X45833512Y8516073D01*
G37*
G36*
X44081000Y6719000D02*
G01*
X42279000Y6719000D01*
X42279000Y8521000D01*
X44081000Y8521000D01*
X44081000Y6719000D01*
G37*
G36*
X30033512Y8516073D02*
G01*
X30182812Y8486376D01*
X30346784Y8418456D01*
X30494354Y8319853D01*
X30619853Y8194354D01*
X30718456Y8046784D01*
X30786376Y7882812D01*
X30821000Y7708741D01*
X30821000Y7531259D01*
X30786376Y7357188D01*
X30718456Y7193216D01*
X30619853Y7045646D01*
X30494354Y6920147D01*
X30346784Y6821544D01*
X30182812Y6753624D01*
X30033512Y6723927D01*
X30008742Y6719000D01*
X29831258Y6719000D01*
X29806488Y6723927D01*
X29657188Y6753624D01*
X29493216Y6821544D01*
X29345646Y6920147D01*
X29220147Y7045646D01*
X29121544Y7193216D01*
X29053624Y7357188D01*
X29019000Y7531259D01*
X29019000Y7708741D01*
X29053624Y7882812D01*
X29121544Y8046784D01*
X29220147Y8194354D01*
X29345646Y8319853D01*
X29493216Y8418456D01*
X29657188Y8486376D01*
X29806488Y8516073D01*
X29831258Y8521000D01*
X30008742Y8521000D01*
X30033512Y8516073D01*
G37*
G36*
X55993512Y8516073D02*
G01*
X56142812Y8486376D01*
X56306784Y8418456D01*
X56454354Y8319853D01*
X56579853Y8194354D01*
X56678456Y8046784D01*
X56746376Y7882812D01*
X56781000Y7708741D01*
X56781000Y7531259D01*
X56746376Y7357188D01*
X56678456Y7193216D01*
X56579853Y7045646D01*
X56454354Y6920147D01*
X56306784Y6821544D01*
X56142812Y6753624D01*
X55993512Y6723927D01*
X55968742Y6719000D01*
X55791258Y6719000D01*
X55766488Y6723927D01*
X55617188Y6753624D01*
X55453216Y6821544D01*
X55305646Y6920147D01*
X55180147Y7045646D01*
X55081544Y7193216D01*
X55013624Y7357188D01*
X54979000Y7531259D01*
X54979000Y7708741D01*
X55013624Y7882812D01*
X55081544Y8046784D01*
X55180147Y8194354D01*
X55305646Y8319853D01*
X55453216Y8418456D01*
X55617188Y8486376D01*
X55766488Y8516073D01*
X55791258Y8521000D01*
X55968742Y8521000D01*
X55993512Y8516073D01*
G37*
G36*
X15353512Y8516073D02*
G01*
X15502812Y8486376D01*
X15666784Y8418456D01*
X15814354Y8319853D01*
X15939853Y8194354D01*
X16038456Y8046784D01*
X16106376Y7882812D01*
X16141000Y7708741D01*
X16141000Y7531259D01*
X16106376Y7357188D01*
X16038456Y7193216D01*
X15939853Y7045646D01*
X15814354Y6920147D01*
X15666784Y6821544D01*
X15502812Y6753624D01*
X15353512Y6723927D01*
X15328742Y6719000D01*
X15151258Y6719000D01*
X15126488Y6723927D01*
X14977188Y6753624D01*
X14813216Y6821544D01*
X14665646Y6920147D01*
X14540147Y7045646D01*
X14441544Y7193216D01*
X14373624Y7357188D01*
X14339000Y7531259D01*
X14339000Y7708741D01*
X14373624Y7882812D01*
X14441544Y8046784D01*
X14540147Y8194354D01*
X14665646Y8319853D01*
X14813216Y8418456D01*
X14977188Y8486376D01*
X15126488Y8516073D01*
X15151258Y8521000D01*
X15328742Y8521000D01*
X15353512Y8516073D01*
G37*
G36*
X12813512Y8516073D02*
G01*
X12962812Y8486376D01*
X13126784Y8418456D01*
X13274354Y8319853D01*
X13399853Y8194354D01*
X13498456Y8046784D01*
X13566376Y7882812D01*
X13601000Y7708741D01*
X13601000Y7531259D01*
X13566376Y7357188D01*
X13498456Y7193216D01*
X13399853Y7045646D01*
X13274354Y6920147D01*
X13126784Y6821544D01*
X12962812Y6753624D01*
X12813512Y6723927D01*
X12788742Y6719000D01*
X12611258Y6719000D01*
X12586488Y6723927D01*
X12437188Y6753624D01*
X12273216Y6821544D01*
X12125646Y6920147D01*
X12000147Y7045646D01*
X11901544Y7193216D01*
X11833624Y7357188D01*
X11799000Y7531259D01*
X11799000Y7708741D01*
X11833624Y7882812D01*
X11901544Y8046784D01*
X12000147Y8194354D01*
X12125646Y8319853D01*
X12273216Y8418456D01*
X12437188Y8486376D01*
X12586488Y8516073D01*
X12611258Y8521000D01*
X12788742Y8521000D01*
X12813512Y8516073D01*
G37*
G36*
X11061000Y6719000D02*
G01*
X9259000Y6719000D01*
X9259000Y8521000D01*
X11061000Y8521000D01*
X11061000Y6719000D01*
G37*
G36*
X37653512Y8516073D02*
G01*
X37802812Y8486376D01*
X37966784Y8418456D01*
X38114354Y8319853D01*
X38239853Y8194354D01*
X38338456Y8046784D01*
X38406376Y7882812D01*
X38441000Y7708741D01*
X38441000Y7531259D01*
X38406376Y7357188D01*
X38338456Y7193216D01*
X38239853Y7045646D01*
X38114354Y6920147D01*
X37966784Y6821544D01*
X37802812Y6753624D01*
X37653512Y6723927D01*
X37628742Y6719000D01*
X37451258Y6719000D01*
X37426488Y6723927D01*
X37277188Y6753624D01*
X37113216Y6821544D01*
X36965646Y6920147D01*
X36840147Y7045646D01*
X36741544Y7193216D01*
X36673624Y7357188D01*
X36639000Y7531259D01*
X36639000Y7708741D01*
X36673624Y7882812D01*
X36741544Y8046784D01*
X36840147Y8194354D01*
X36965646Y8319853D01*
X37113216Y8418456D01*
X37277188Y8486376D01*
X37426488Y8516073D01*
X37451258Y8521000D01*
X37628742Y8521000D01*
X37653512Y8516073D01*
G37*
G36*
X35113512Y8516073D02*
G01*
X35262812Y8486376D01*
X35426784Y8418456D01*
X35574354Y8319853D01*
X35699853Y8194354D01*
X35798456Y8046784D01*
X35866376Y7882812D01*
X35901000Y7708741D01*
X35901000Y7531259D01*
X35866376Y7357188D01*
X35798456Y7193216D01*
X35699853Y7045646D01*
X35574354Y6920147D01*
X35426784Y6821544D01*
X35262812Y6753624D01*
X35113512Y6723927D01*
X35088742Y6719000D01*
X34911258Y6719000D01*
X34886488Y6723927D01*
X34737188Y6753624D01*
X34573216Y6821544D01*
X34425646Y6920147D01*
X34300147Y7045646D01*
X34201544Y7193216D01*
X34133624Y7357188D01*
X34099000Y7531259D01*
X34099000Y7708741D01*
X34133624Y7882812D01*
X34201544Y8046784D01*
X34300147Y8194354D01*
X34425646Y8319853D01*
X34573216Y8418456D01*
X34737188Y8486376D01*
X34886488Y8516073D01*
X34911258Y8521000D01*
X35088742Y8521000D01*
X35113512Y8516073D01*
G37*
G36*
X32573512Y8516073D02*
G01*
X32722812Y8486376D01*
X32886784Y8418456D01*
X33034354Y8319853D01*
X33159853Y8194354D01*
X33258456Y8046784D01*
X33326376Y7882812D01*
X33361000Y7708741D01*
X33361000Y7531259D01*
X33326376Y7357188D01*
X33258456Y7193216D01*
X33159853Y7045646D01*
X33034354Y6920147D01*
X32886784Y6821544D01*
X32722812Y6753624D01*
X32573512Y6723927D01*
X32548742Y6719000D01*
X32371258Y6719000D01*
X32346488Y6723927D01*
X32197188Y6753624D01*
X32033216Y6821544D01*
X31885646Y6920147D01*
X31760147Y7045646D01*
X31661544Y7193216D01*
X31593624Y7357188D01*
X31559000Y7531259D01*
X31559000Y7708741D01*
X31593624Y7882812D01*
X31661544Y8046784D01*
X31760147Y8194354D01*
X31885646Y8319853D01*
X32033216Y8418456D01*
X32197188Y8486376D01*
X32346488Y8516073D01*
X32371258Y8521000D01*
X32548742Y8521000D01*
X32573512Y8516073D01*
G37*
G36*
X27493512Y8516073D02*
G01*
X27642812Y8486376D01*
X27806784Y8418456D01*
X27954354Y8319853D01*
X28079853Y8194354D01*
X28178456Y8046784D01*
X28246376Y7882812D01*
X28281000Y7708741D01*
X28281000Y7531259D01*
X28246376Y7357188D01*
X28178456Y7193216D01*
X28079853Y7045646D01*
X27954354Y6920147D01*
X27806784Y6821544D01*
X27642812Y6753624D01*
X27493512Y6723927D01*
X27468742Y6719000D01*
X27291258Y6719000D01*
X27266488Y6723927D01*
X27117188Y6753624D01*
X26953216Y6821544D01*
X26805646Y6920147D01*
X26680147Y7045646D01*
X26581544Y7193216D01*
X26513624Y7357188D01*
X26479000Y7531259D01*
X26479000Y7708741D01*
X26513624Y7882812D01*
X26581544Y8046784D01*
X26680147Y8194354D01*
X26805646Y8319853D01*
X26953216Y8418456D01*
X27117188Y8486376D01*
X27266488Y8516073D01*
X27291258Y8521000D01*
X27468742Y8521000D01*
X27493512Y8516073D01*
G37*
G36*
X25741000Y6719000D02*
G01*
X23939000Y6719000D01*
X23939000Y8521000D01*
X25741000Y8521000D01*
X25741000Y6719000D01*
G37*
G36*
X40608674Y8926535D02*
G01*
X40646367Y8915101D01*
X40681103Y8896534D01*
X40711548Y8871548D01*
X40736534Y8841103D01*
X40755101Y8806367D01*
X40766535Y8768674D01*
X40771000Y8723339D01*
X40771000Y7886661D01*
X40766535Y7841326D01*
X40755101Y7803633D01*
X40736534Y7768897D01*
X40711548Y7738452D01*
X40681103Y7713466D01*
X40646367Y7694899D01*
X40608674Y7683465D01*
X40563339Y7679000D01*
X39476661Y7679000D01*
X39431326Y7683465D01*
X39393633Y7694899D01*
X39358897Y7713466D01*
X39328452Y7738452D01*
X39303466Y7768897D01*
X39284899Y7803633D01*
X39273465Y7841326D01*
X39269000Y7886661D01*
X39269000Y8723339D01*
X39273465Y8768674D01*
X39284899Y8806367D01*
X39303466Y8841103D01*
X39328452Y8871548D01*
X39358897Y8896534D01*
X39393633Y8915101D01*
X39431326Y8926535D01*
X39476661Y8931000D01*
X40563339Y8931000D01*
X40608674Y8926535D01*
G37*
G36*
X61073512Y11056073D02*
G01*
X61222812Y11026376D01*
X61386784Y10958456D01*
X61534354Y10859853D01*
X61659853Y10734354D01*
X61758456Y10586784D01*
X61826376Y10422812D01*
X61861000Y10248741D01*
X61861000Y10071259D01*
X61826376Y9897188D01*
X61758456Y9733216D01*
X61659853Y9585646D01*
X61534354Y9460147D01*
X61386784Y9361544D01*
X61222812Y9293624D01*
X61073512Y9263927D01*
X61048742Y9259000D01*
X60871258Y9259000D01*
X60846488Y9263927D01*
X60697188Y9293624D01*
X60533216Y9361544D01*
X60385646Y9460147D01*
X60260147Y9585646D01*
X60161544Y9733216D01*
X60093624Y9897188D01*
X60059000Y10071259D01*
X60059000Y10248741D01*
X60093624Y10422812D01*
X60161544Y10586784D01*
X60260147Y10734354D01*
X60385646Y10859853D01*
X60533216Y10958456D01*
X60697188Y11026376D01*
X60846488Y11056073D01*
X60871258Y11061000D01*
X61048742Y11061000D01*
X61073512Y11056073D01*
G37*
G36*
X56988674Y10576535D02*
G01*
X57026367Y10565101D01*
X57061103Y10546534D01*
X57091548Y10521548D01*
X57116534Y10491103D01*
X57135101Y10456367D01*
X57146535Y10418674D01*
X57151000Y10373339D01*
X57151000Y9536661D01*
X57146535Y9491326D01*
X57135101Y9453633D01*
X57116534Y9418897D01*
X57091548Y9388452D01*
X57061103Y9363466D01*
X57026367Y9344899D01*
X56988674Y9333465D01*
X56943339Y9329000D01*
X55856661Y9329000D01*
X55811326Y9333465D01*
X55773633Y9344899D01*
X55738897Y9363466D01*
X55708452Y9388452D01*
X55683466Y9418897D01*
X55664899Y9453633D01*
X55653465Y9491326D01*
X55649000Y9536661D01*
X55649000Y10373339D01*
X55653465Y10418674D01*
X55664899Y10456367D01*
X55683466Y10491103D01*
X55708452Y10521548D01*
X55738897Y10546534D01*
X55773633Y10565101D01*
X55811326Y10576535D01*
X55856661Y10581000D01*
X56943339Y10581000D01*
X56988674Y10576535D01*
G37*
G36*
X50888674Y10826535D02*
G01*
X50926367Y10815101D01*
X50961103Y10796534D01*
X50991548Y10771548D01*
X51016534Y10741103D01*
X51035101Y10706367D01*
X51046535Y10668674D01*
X51051000Y10623339D01*
X51051000Y9536661D01*
X51046535Y9491326D01*
X51035101Y9453633D01*
X51016534Y9418897D01*
X50991548Y9388452D01*
X50961103Y9363466D01*
X50926367Y9344899D01*
X50888674Y9333465D01*
X50843339Y9329000D01*
X50006661Y9329000D01*
X49961326Y9333465D01*
X49923633Y9344899D01*
X49888897Y9363466D01*
X49858452Y9388452D01*
X49833466Y9418897D01*
X49814899Y9453633D01*
X49803465Y9491326D01*
X49799000Y9536661D01*
X49799000Y10623339D01*
X49803465Y10668674D01*
X49814899Y10706367D01*
X49833466Y10741103D01*
X49858452Y10771548D01*
X49888897Y10796534D01*
X49923633Y10815101D01*
X49961326Y10826535D01*
X50006661Y10831000D01*
X50843339Y10831000D01*
X50888674Y10826535D01*
G37*
G36*
X48838674Y10826535D02*
G01*
X48876367Y10815101D01*
X48911103Y10796534D01*
X48941548Y10771548D01*
X48966534Y10741103D01*
X48985101Y10706367D01*
X48996535Y10668674D01*
X49001000Y10623339D01*
X49001000Y9536661D01*
X48996535Y9491326D01*
X48985101Y9453633D01*
X48966534Y9418897D01*
X48941548Y9388452D01*
X48911103Y9363466D01*
X48876367Y9344899D01*
X48838674Y9333465D01*
X48793339Y9329000D01*
X47956661Y9329000D01*
X47911326Y9333465D01*
X47873633Y9344899D01*
X47838897Y9363466D01*
X47808452Y9388452D01*
X47783466Y9418897D01*
X47764899Y9453633D01*
X47753465Y9491326D01*
X47749000Y9536661D01*
X47749000Y10623339D01*
X47753465Y10668674D01*
X47764899Y10706367D01*
X47783466Y10741103D01*
X47808452Y10771548D01*
X47838897Y10796534D01*
X47873633Y10815101D01*
X47911326Y10826535D01*
X47956661Y10831000D01*
X48793339Y10831000D01*
X48838674Y10826535D01*
G37*
G36*
X56988674Y12626535D02*
G01*
X57026367Y12615101D01*
X57061103Y12596534D01*
X57091548Y12571548D01*
X57116534Y12541103D01*
X57135101Y12506367D01*
X57146535Y12468674D01*
X57151000Y12423339D01*
X57151000Y11586661D01*
X57146535Y11541326D01*
X57135101Y11503633D01*
X57116534Y11468897D01*
X57091548Y11438452D01*
X57061103Y11413466D01*
X57026367Y11394899D01*
X56988674Y11383465D01*
X56943339Y11379000D01*
X55856661Y11379000D01*
X55811326Y11383465D01*
X55773633Y11394899D01*
X55738897Y11413466D01*
X55708452Y11438452D01*
X55683466Y11468897D01*
X55664899Y11503633D01*
X55653465Y11541326D01*
X55649000Y11586661D01*
X55649000Y12423339D01*
X55653465Y12468674D01*
X55664899Y12506367D01*
X55683466Y12541103D01*
X55708452Y12571548D01*
X55738897Y12596534D01*
X55773633Y12615101D01*
X55811326Y12626535D01*
X55856661Y12631000D01*
X56943339Y12631000D01*
X56988674Y12626535D01*
G37*
G36*
X61073512Y13596073D02*
G01*
X61222812Y13566376D01*
X61386784Y13498456D01*
X61534354Y13399853D01*
X61659853Y13274354D01*
X61758456Y13126784D01*
X61826376Y12962812D01*
X61861000Y12788741D01*
X61861000Y12611259D01*
X61826376Y12437188D01*
X61758456Y12273216D01*
X61659853Y12125646D01*
X61534354Y12000147D01*
X61386784Y11901544D01*
X61222812Y11833624D01*
X61073512Y11803927D01*
X61048742Y11799000D01*
X60871258Y11799000D01*
X60846488Y11803927D01*
X60697188Y11833624D01*
X60533216Y11901544D01*
X60385646Y12000147D01*
X60260147Y12125646D01*
X60161544Y12273216D01*
X60093624Y12437188D01*
X60059000Y12611259D01*
X60059000Y12788741D01*
X60093624Y12962812D01*
X60161544Y13126784D01*
X60260147Y13274354D01*
X60385646Y13399853D01*
X60533216Y13498456D01*
X60697188Y13566376D01*
X60846488Y13596073D01*
X60871258Y13601000D01*
X61048742Y13601000D01*
X61073512Y13596073D01*
G37*
G36*
X2653512Y13596073D02*
G01*
X2802812Y13566376D01*
X2966784Y13498456D01*
X3114354Y13399853D01*
X3239853Y13274354D01*
X3338456Y13126784D01*
X3406376Y12962812D01*
X3441000Y12788741D01*
X3441000Y12611259D01*
X3406376Y12437188D01*
X3338456Y12273216D01*
X3239853Y12125646D01*
X3114354Y12000147D01*
X2966784Y11901544D01*
X2802812Y11833624D01*
X2653512Y11803927D01*
X2628742Y11799000D01*
X2451258Y11799000D01*
X2426488Y11803927D01*
X2277188Y11833624D01*
X2113216Y11901544D01*
X1965646Y12000147D01*
X1840147Y12125646D01*
X1741544Y12273216D01*
X1673624Y12437188D01*
X1639000Y12611259D01*
X1639000Y12788741D01*
X1673624Y12962812D01*
X1741544Y13126784D01*
X1840147Y13274354D01*
X1965646Y13399853D01*
X2113216Y13498456D01*
X2277188Y13566376D01*
X2426488Y13596073D01*
X2451258Y13601000D01*
X2628742Y13601000D01*
X2653512Y13596073D01*
G37*
G36*
X43668228Y14598297D02*
G01*
X43823100Y14534147D01*
X43962481Y14441015D01*
X44081015Y14322481D01*
X44174147Y14183100D01*
X44238297Y14028228D01*
X44271000Y13863816D01*
X44271000Y13696184D01*
X44238297Y13531772D01*
X44174147Y13376900D01*
X44081015Y13237519D01*
X43962481Y13118985D01*
X43823100Y13025853D01*
X43668228Y12961703D01*
X43503816Y12929000D01*
X43336184Y12929000D01*
X43171772Y12961703D01*
X43016900Y13025853D01*
X42877519Y13118985D01*
X42758985Y13237519D01*
X42665853Y13376900D01*
X42601703Y13531772D01*
X42569000Y13696184D01*
X42569000Y13863816D01*
X42601703Y14028228D01*
X42665853Y14183100D01*
X42758985Y14322481D01*
X42877519Y14441015D01*
X43016900Y14534147D01*
X43171772Y14598297D01*
X43336184Y14631000D01*
X43503816Y14631000D01*
X43668228Y14598297D01*
G37*
G36*
X36048228Y14598297D02*
G01*
X36203100Y14534147D01*
X36342481Y14441015D01*
X36461015Y14322481D01*
X36554147Y14183100D01*
X36618297Y14028228D01*
X36651000Y13863816D01*
X36651000Y13696184D01*
X36618297Y13531772D01*
X36554147Y13376900D01*
X36461015Y13237519D01*
X36342481Y13118985D01*
X36203100Y13025853D01*
X36048228Y12961703D01*
X35883816Y12929000D01*
X35716184Y12929000D01*
X35551772Y12961703D01*
X35396900Y13025853D01*
X35257519Y13118985D01*
X35138985Y13237519D01*
X35045853Y13376900D01*
X34981703Y13531772D01*
X34949000Y13696184D01*
X34949000Y13863816D01*
X34981703Y14028228D01*
X35045853Y14183100D01*
X35138985Y14322481D01*
X35257519Y14441015D01*
X35396900Y14534147D01*
X35551772Y14598297D01*
X35716184Y14631000D01*
X35883816Y14631000D01*
X36048228Y14598297D01*
G37*
G36*
X34288674Y14696535D02*
G01*
X34326367Y14685101D01*
X34361103Y14666534D01*
X34391548Y14641548D01*
X34416534Y14611103D01*
X34435101Y14576367D01*
X34446535Y14538674D01*
X34451000Y14493339D01*
X34451000Y13656661D01*
X34446535Y13611326D01*
X34435101Y13573633D01*
X34416534Y13538897D01*
X34391548Y13508452D01*
X34361103Y13483466D01*
X34326367Y13464899D01*
X34288674Y13453465D01*
X34243339Y13449000D01*
X33156661Y13449000D01*
X33111326Y13453465D01*
X33073633Y13464899D01*
X33038897Y13483466D01*
X33008452Y13508452D01*
X32983466Y13538897D01*
X32964899Y13573633D01*
X32953465Y13611326D01*
X32949000Y13656661D01*
X32949000Y14493339D01*
X32953465Y14538674D01*
X32964899Y14576367D01*
X32983466Y14611103D01*
X33008452Y14641548D01*
X33038897Y14666534D01*
X33073633Y14685101D01*
X33111326Y14696535D01*
X33156661Y14701000D01*
X34243339Y14701000D01*
X34288674Y14696535D01*
G37*
G36*
X17948228Y15418297D02*
G01*
X18103100Y15354147D01*
X18242481Y15261015D01*
X18361015Y15142481D01*
X18454147Y15003100D01*
X18518297Y14848228D01*
X18551000Y14683816D01*
X18551000Y14516184D01*
X18518297Y14351772D01*
X18454147Y14196900D01*
X18361015Y14057519D01*
X18242481Y13938985D01*
X18103100Y13845853D01*
X17948228Y13781703D01*
X17783816Y13749000D01*
X17616184Y13749000D01*
X17451772Y13781703D01*
X17296900Y13845853D01*
X17157519Y13938985D01*
X17038985Y14057519D01*
X16945853Y14196900D01*
X16881703Y14351772D01*
X16849000Y14516184D01*
X16849000Y14683816D01*
X16881703Y14848228D01*
X16945853Y15003100D01*
X17038985Y15142481D01*
X17157519Y15261015D01*
X17296900Y15354147D01*
X17451772Y15418297D01*
X17616184Y15451000D01*
X17783816Y15451000D01*
X17948228Y15418297D01*
G37*
G36*
X12948228Y15418297D02*
G01*
X13103100Y15354147D01*
X13242481Y15261015D01*
X13361015Y15142481D01*
X13454147Y15003100D01*
X13518297Y14848228D01*
X13551000Y14683816D01*
X13551000Y14516184D01*
X13518297Y14351772D01*
X13454147Y14196900D01*
X13361015Y14057519D01*
X13242481Y13938985D01*
X13103100Y13845853D01*
X12948228Y13781703D01*
X12783816Y13749000D01*
X12616184Y13749000D01*
X12451772Y13781703D01*
X12296900Y13845853D01*
X12157519Y13938985D01*
X12038985Y14057519D01*
X11945853Y14196900D01*
X11881703Y14351772D01*
X11849000Y14516184D01*
X11849000Y14683816D01*
X11881703Y14848228D01*
X11945853Y15003100D01*
X12038985Y15142481D01*
X12157519Y15261015D01*
X12296900Y15354147D01*
X12451772Y15418297D01*
X12616184Y15451000D01*
X12783816Y15451000D01*
X12948228Y15418297D01*
G37*
G36*
X26788674Y15396535D02*
G01*
X26826367Y15385101D01*
X26861103Y15366534D01*
X26891548Y15341548D01*
X26916534Y15311103D01*
X26935101Y15276367D01*
X26946535Y15238674D01*
X26951000Y15193339D01*
X26951000Y14356661D01*
X26946535Y14311326D01*
X26935101Y14273633D01*
X26916534Y14238897D01*
X26891548Y14208452D01*
X26861103Y14183466D01*
X26826367Y14164899D01*
X26788674Y14153465D01*
X26743339Y14149000D01*
X25656661Y14149000D01*
X25611326Y14153465D01*
X25573633Y14164899D01*
X25538897Y14183466D01*
X25508452Y14208452D01*
X25483466Y14238897D01*
X25464899Y14273633D01*
X25453465Y14311326D01*
X25449000Y14356661D01*
X25449000Y15193339D01*
X25453465Y15238674D01*
X25464899Y15276367D01*
X25483466Y15311103D01*
X25508452Y15341548D01*
X25538897Y15366534D01*
X25573633Y15385101D01*
X25611326Y15396535D01*
X25656661Y15401000D01*
X26743339Y15401000D01*
X26788674Y15396535D01*
G37*
G36*
X2639314Y16138897D02*
G01*
X2802812Y16106376D01*
X2966784Y16038456D01*
X3114354Y15939853D01*
X3239853Y15814354D01*
X3338456Y15666784D01*
X3406376Y15502812D01*
X3441000Y15328741D01*
X3441000Y15151259D01*
X3406376Y14977188D01*
X3338456Y14813216D01*
X3239853Y14665646D01*
X3114354Y14540147D01*
X2966784Y14441544D01*
X2802812Y14373624D01*
X2653512Y14343927D01*
X2628742Y14339000D01*
X2451258Y14339000D01*
X2426488Y14343927D01*
X2277188Y14373624D01*
X2113216Y14441544D01*
X1965646Y14540147D01*
X1840147Y14665646D01*
X1741544Y14813216D01*
X1673624Y14977188D01*
X1639000Y15151259D01*
X1639000Y15328741D01*
X1673624Y15502812D01*
X1741544Y15666784D01*
X1840147Y15814354D01*
X1965646Y15939853D01*
X2113216Y16038456D01*
X2277188Y16106376D01*
X2440686Y16138897D01*
X2451258Y16141000D01*
X2628742Y16141000D01*
X2639314Y16138897D01*
G37*
G36*
X61861000Y14339000D02*
G01*
X60059000Y14339000D01*
X60059000Y16141000D01*
X61861000Y16141000D01*
X61861000Y14339000D01*
G37*
G36*
X36048228Y17138297D02*
G01*
X36203100Y17074147D01*
X36342481Y16981015D01*
X36461015Y16862481D01*
X36554147Y16723100D01*
X36618297Y16568228D01*
X36651000Y16403816D01*
X36651000Y16236184D01*
X36618297Y16071772D01*
X36554147Y15916900D01*
X36461015Y15777519D01*
X36342481Y15658985D01*
X36203100Y15565853D01*
X36048228Y15501703D01*
X35883816Y15469000D01*
X35716184Y15469000D01*
X35551772Y15501703D01*
X35396900Y15565853D01*
X35257519Y15658985D01*
X35138985Y15777519D01*
X35045853Y15916900D01*
X34981703Y16071772D01*
X34949000Y16236184D01*
X34949000Y16403816D01*
X34981703Y16568228D01*
X35045853Y16723100D01*
X35138985Y16862481D01*
X35257519Y16981015D01*
X35396900Y17074147D01*
X35551772Y17138297D01*
X35716184Y17171000D01*
X35883816Y17171000D01*
X36048228Y17138297D01*
G37*
G36*
X43668228Y17138297D02*
G01*
X43823100Y17074147D01*
X43962481Y16981015D01*
X44081015Y16862481D01*
X44174147Y16723100D01*
X44238297Y16568228D01*
X44271000Y16403816D01*
X44271000Y16236184D01*
X44238297Y16071772D01*
X44174147Y15916900D01*
X44081015Y15777519D01*
X43962481Y15658985D01*
X43823100Y15565853D01*
X43668228Y15501703D01*
X43503816Y15469000D01*
X43336184Y15469000D01*
X43171772Y15501703D01*
X43016900Y15565853D01*
X42877519Y15658985D01*
X42758985Y15777519D01*
X42665853Y15916900D01*
X42601703Y16071772D01*
X42569000Y16236184D01*
X42569000Y16403816D01*
X42601703Y16568228D01*
X42665853Y16723100D01*
X42758985Y16862481D01*
X42877519Y16981015D01*
X43016900Y17074147D01*
X43171772Y17138297D01*
X43336184Y17171000D01*
X43503816Y17171000D01*
X43668228Y17138297D01*
G37*
G36*
X34288674Y16746535D02*
G01*
X34326367Y16735101D01*
X34361103Y16716534D01*
X34391548Y16691548D01*
X34416534Y16661103D01*
X34435101Y16626367D01*
X34446535Y16588674D01*
X34451000Y16543339D01*
X34451000Y15706661D01*
X34446535Y15661326D01*
X34435101Y15623633D01*
X34416534Y15588897D01*
X34391548Y15558452D01*
X34361103Y15533466D01*
X34326367Y15514899D01*
X34288674Y15503465D01*
X34243339Y15499000D01*
X33156661Y15499000D01*
X33111326Y15503465D01*
X33073633Y15514899D01*
X33038897Y15533466D01*
X33008452Y15558452D01*
X32983466Y15588897D01*
X32964899Y15623633D01*
X32953465Y15661326D01*
X32949000Y15706661D01*
X32949000Y16543339D01*
X32953465Y16588674D01*
X32964899Y16626367D01*
X32983466Y16661103D01*
X33008452Y16691548D01*
X33038897Y16716534D01*
X33073633Y16735101D01*
X33111326Y16746535D01*
X33156661Y16751000D01*
X34243339Y16751000D01*
X34288674Y16746535D01*
G37*
G36*
X23748228Y17718297D02*
G01*
X23903100Y17654147D01*
X24042481Y17561015D01*
X24161015Y17442481D01*
X24254147Y17303100D01*
X24318297Y17148228D01*
X24351000Y16983816D01*
X24351000Y16816184D01*
X24318297Y16651772D01*
X24254147Y16496900D01*
X24161015Y16357519D01*
X24042481Y16238985D01*
X23903100Y16145853D01*
X23748228Y16081703D01*
X23583816Y16049000D01*
X23416184Y16049000D01*
X23251772Y16081703D01*
X23096900Y16145853D01*
X22957519Y16238985D01*
X22838985Y16357519D01*
X22745853Y16496900D01*
X22681703Y16651772D01*
X22649000Y16816184D01*
X22649000Y16983816D01*
X22681703Y17148228D01*
X22745853Y17303100D01*
X22838985Y17442481D01*
X22957519Y17561015D01*
X23096900Y17654147D01*
X23251772Y17718297D01*
X23416184Y17751000D01*
X23583816Y17751000D01*
X23748228Y17718297D01*
G37*
G36*
X46688674Y17296535D02*
G01*
X46726367Y17285101D01*
X46761103Y17266534D01*
X46791548Y17241548D01*
X46816534Y17211103D01*
X46835101Y17176367D01*
X46846535Y17138674D01*
X46851000Y17093339D01*
X46851000Y16256661D01*
X46846535Y16211326D01*
X46835101Y16173633D01*
X46816534Y16138897D01*
X46791548Y16108452D01*
X46761103Y16083466D01*
X46726367Y16064899D01*
X46688674Y16053465D01*
X46643339Y16049000D01*
X45556661Y16049000D01*
X45511326Y16053465D01*
X45473633Y16064899D01*
X45438897Y16083466D01*
X45408452Y16108452D01*
X45383466Y16138897D01*
X45364899Y16173633D01*
X45353465Y16211326D01*
X45349000Y16256661D01*
X45349000Y17093339D01*
X45353465Y17138674D01*
X45364899Y17176367D01*
X45383466Y17211103D01*
X45408452Y17241548D01*
X45438897Y17266534D01*
X45473633Y17285101D01*
X45511326Y17296535D01*
X45556661Y17301000D01*
X46643339Y17301000D01*
X46688674Y17296535D01*
G37*
G36*
X26788674Y17446535D02*
G01*
X26826367Y17435101D01*
X26861103Y17416534D01*
X26891548Y17391548D01*
X26916534Y17361103D01*
X26935101Y17326367D01*
X26946535Y17288674D01*
X26951000Y17243339D01*
X26951000Y16406661D01*
X26946535Y16361326D01*
X26935101Y16323633D01*
X26916534Y16288897D01*
X26891548Y16258452D01*
X26861103Y16233466D01*
X26826367Y16214899D01*
X26788674Y16203465D01*
X26743339Y16199000D01*
X25656661Y16199000D01*
X25611326Y16203465D01*
X25573633Y16214899D01*
X25538897Y16233466D01*
X25508452Y16258452D01*
X25483466Y16288897D01*
X25464899Y16323633D01*
X25453465Y16361326D01*
X25449000Y16406661D01*
X25449000Y17243339D01*
X25453465Y17288674D01*
X25464899Y17326367D01*
X25483466Y17361103D01*
X25508452Y17391548D01*
X25538897Y17416534D01*
X25573633Y17435101D01*
X25611326Y17446535D01*
X25656661Y17451000D01*
X26743339Y17451000D01*
X26788674Y17446535D01*
G37*
G36*
X18288674Y17496535D02*
G01*
X18326367Y17485101D01*
X18361103Y17466534D01*
X18391548Y17441548D01*
X18416534Y17411103D01*
X18435101Y17376367D01*
X18446535Y17338674D01*
X18451000Y17293339D01*
X18451000Y16456661D01*
X18446535Y16411326D01*
X18435101Y16373633D01*
X18416534Y16338897D01*
X18391548Y16308452D01*
X18361103Y16283466D01*
X18326367Y16264899D01*
X18288674Y16253465D01*
X18243339Y16249000D01*
X17156661Y16249000D01*
X17111326Y16253465D01*
X17073633Y16264899D01*
X17038897Y16283466D01*
X17008452Y16308452D01*
X16983466Y16338897D01*
X16964899Y16373633D01*
X16953465Y16411326D01*
X16949000Y16456661D01*
X16949000Y17293339D01*
X16953465Y17338674D01*
X16964899Y17376367D01*
X16983466Y17411103D01*
X17008452Y17441548D01*
X17038897Y17466534D01*
X17073633Y17485101D01*
X17111326Y17496535D01*
X17156661Y17501000D01*
X18243339Y17501000D01*
X18288674Y17496535D01*
G37*
G36*
X20488674Y17496535D02*
G01*
X20526367Y17485101D01*
X20561103Y17466534D01*
X20591548Y17441548D01*
X20616534Y17411103D01*
X20635101Y17376367D01*
X20646535Y17338674D01*
X20651000Y17293339D01*
X20651000Y16456661D01*
X20646535Y16411326D01*
X20635101Y16373633D01*
X20616534Y16338897D01*
X20591548Y16308452D01*
X20561103Y16283466D01*
X20526367Y16264899D01*
X20488674Y16253465D01*
X20443339Y16249000D01*
X19356661Y16249000D01*
X19311326Y16253465D01*
X19273633Y16264899D01*
X19238897Y16283466D01*
X19208452Y16308452D01*
X19183466Y16338897D01*
X19164899Y16373633D01*
X19153465Y16411326D01*
X19149000Y16456661D01*
X19149000Y17293339D01*
X19153465Y17338674D01*
X19164899Y17376367D01*
X19183466Y17411103D01*
X19208452Y17441548D01*
X19238897Y17466534D01*
X19273633Y17485101D01*
X19311326Y17496535D01*
X19356661Y17501000D01*
X20443339Y17501000D01*
X20488674Y17496535D01*
G37*
G36*
X2653512Y18676073D02*
G01*
X2802812Y18646376D01*
X2966784Y18578456D01*
X3114354Y18479853D01*
X3239853Y18354354D01*
X3338456Y18206784D01*
X3406376Y18042812D01*
X3441000Y17868741D01*
X3441000Y17691259D01*
X3406376Y17517188D01*
X3338456Y17353216D01*
X3239853Y17205646D01*
X3114354Y17080147D01*
X2966784Y16981544D01*
X2802812Y16913624D01*
X2653512Y16883927D01*
X2628742Y16879000D01*
X2451258Y16879000D01*
X2426488Y16883927D01*
X2277188Y16913624D01*
X2113216Y16981544D01*
X1965646Y17080147D01*
X1840147Y17205646D01*
X1741544Y17353216D01*
X1673624Y17517188D01*
X1639000Y17691259D01*
X1639000Y17868741D01*
X1673624Y18042812D01*
X1741544Y18206784D01*
X1840147Y18354354D01*
X1965646Y18479853D01*
X2113216Y18578456D01*
X2277188Y18646376D01*
X2426488Y18676073D01*
X2451258Y18681000D01*
X2628742Y18681000D01*
X2653512Y18676073D01*
G37*
G36*
X8351000Y17349000D02*
G01*
X6649000Y17349000D01*
X6649000Y19051000D01*
X8351000Y19051000D01*
X8351000Y17349000D01*
G37*
G36*
X36048228Y19678297D02*
G01*
X36203100Y19614147D01*
X36342481Y19521015D01*
X36461015Y19402481D01*
X36554147Y19263100D01*
X36618297Y19108228D01*
X36651000Y18943816D01*
X36651000Y18776184D01*
X36618297Y18611772D01*
X36554147Y18456900D01*
X36461015Y18317519D01*
X36342481Y18198985D01*
X36203100Y18105853D01*
X36048228Y18041703D01*
X35883816Y18009000D01*
X35716184Y18009000D01*
X35551772Y18041703D01*
X35396900Y18105853D01*
X35257519Y18198985D01*
X35138985Y18317519D01*
X35045853Y18456900D01*
X34981703Y18611772D01*
X34949000Y18776184D01*
X34949000Y18943816D01*
X34981703Y19108228D01*
X35045853Y19263100D01*
X35138985Y19402481D01*
X35257519Y19521015D01*
X35396900Y19614147D01*
X35551772Y19678297D01*
X35716184Y19711000D01*
X35883816Y19711000D01*
X36048228Y19678297D01*
G37*
G36*
X43668228Y19678297D02*
G01*
X43823100Y19614147D01*
X43962481Y19521015D01*
X44081015Y19402481D01*
X44174147Y19263100D01*
X44238297Y19108228D01*
X44271000Y18943816D01*
X44271000Y18776184D01*
X44238297Y18611772D01*
X44174147Y18456900D01*
X44081015Y18317519D01*
X43962481Y18198985D01*
X43823100Y18105853D01*
X43668228Y18041703D01*
X43503816Y18009000D01*
X43336184Y18009000D01*
X43171772Y18041703D01*
X43016900Y18105853D01*
X42877519Y18198985D01*
X42758985Y18317519D01*
X42665853Y18456900D01*
X42601703Y18611772D01*
X42569000Y18776184D01*
X42569000Y18943816D01*
X42601703Y19108228D01*
X42665853Y19263100D01*
X42758985Y19402481D01*
X42877519Y19521015D01*
X43016900Y19614147D01*
X43171772Y19678297D01*
X43336184Y19711000D01*
X43503816Y19711000D01*
X43668228Y19678297D01*
G37*
G36*
X33788674Y19296535D02*
G01*
X33826367Y19285101D01*
X33861103Y19266534D01*
X33891548Y19241548D01*
X33916534Y19211103D01*
X33935101Y19176367D01*
X33946535Y19138674D01*
X33951000Y19093339D01*
X33951000Y18256661D01*
X33946535Y18211326D01*
X33935101Y18173633D01*
X33916534Y18138897D01*
X33891548Y18108452D01*
X33861103Y18083466D01*
X33826367Y18064899D01*
X33788674Y18053465D01*
X33743339Y18049000D01*
X32656661Y18049000D01*
X32611326Y18053465D01*
X32573633Y18064899D01*
X32538897Y18083466D01*
X32508452Y18108452D01*
X32483466Y18138897D01*
X32464899Y18173633D01*
X32453465Y18211326D01*
X32449000Y18256661D01*
X32449000Y19093339D01*
X32453465Y19138674D01*
X32464899Y19176367D01*
X32483466Y19211103D01*
X32508452Y19241548D01*
X32538897Y19266534D01*
X32573633Y19285101D01*
X32611326Y19296535D01*
X32656661Y19301000D01*
X33743339Y19301000D01*
X33788674Y19296535D01*
G37*
G36*
X46688674Y19346535D02*
G01*
X46726367Y19335101D01*
X46761103Y19316534D01*
X46791548Y19291548D01*
X46816534Y19261103D01*
X46835101Y19226367D01*
X46846535Y19188674D01*
X46851000Y19143339D01*
X46851000Y18306661D01*
X46846535Y18261326D01*
X46835101Y18223633D01*
X46816534Y18188897D01*
X46791548Y18158452D01*
X46761103Y18133466D01*
X46726367Y18114899D01*
X46688674Y18103465D01*
X46643339Y18099000D01*
X45556661Y18099000D01*
X45511326Y18103465D01*
X45473633Y18114899D01*
X45438897Y18133466D01*
X45408452Y18158452D01*
X45383466Y18188897D01*
X45364899Y18223633D01*
X45353465Y18261326D01*
X45349000Y18306661D01*
X45349000Y19143339D01*
X45353465Y19188674D01*
X45364899Y19226367D01*
X45383466Y19261103D01*
X45408452Y19291548D01*
X45438897Y19316534D01*
X45473633Y19335101D01*
X45511326Y19346535D01*
X45556661Y19351000D01*
X46643339Y19351000D01*
X46688674Y19346535D01*
G37*
G36*
X20488674Y19546535D02*
G01*
X20526367Y19535101D01*
X20561103Y19516534D01*
X20591548Y19491548D01*
X20616534Y19461103D01*
X20635101Y19426367D01*
X20646535Y19388674D01*
X20651000Y19343339D01*
X20651000Y18506661D01*
X20646535Y18461326D01*
X20635101Y18423633D01*
X20616534Y18388897D01*
X20591548Y18358452D01*
X20561103Y18333466D01*
X20526367Y18314899D01*
X20488674Y18303465D01*
X20443339Y18299000D01*
X19356661Y18299000D01*
X19311326Y18303465D01*
X19273633Y18314899D01*
X19238897Y18333466D01*
X19208452Y18358452D01*
X19183466Y18388897D01*
X19164899Y18423633D01*
X19153465Y18461326D01*
X19149000Y18506661D01*
X19149000Y19343339D01*
X19153465Y19388674D01*
X19164899Y19426367D01*
X19183466Y19461103D01*
X19208452Y19491548D01*
X19238897Y19516534D01*
X19273633Y19535101D01*
X19311326Y19546535D01*
X19356661Y19551000D01*
X20443339Y19551000D01*
X20488674Y19546535D01*
G37*
G36*
X18288674Y19546535D02*
G01*
X18326367Y19535101D01*
X18361103Y19516534D01*
X18391548Y19491548D01*
X18416534Y19461103D01*
X18435101Y19426367D01*
X18446535Y19388674D01*
X18451000Y19343339D01*
X18451000Y18506661D01*
X18446535Y18461326D01*
X18435101Y18423633D01*
X18416534Y18388897D01*
X18391548Y18358452D01*
X18361103Y18333466D01*
X18326367Y18314899D01*
X18288674Y18303465D01*
X18243339Y18299000D01*
X17156661Y18299000D01*
X17111326Y18303465D01*
X17073633Y18314899D01*
X17038897Y18333466D01*
X17008452Y18358452D01*
X16983466Y18388897D01*
X16964899Y18423633D01*
X16953465Y18461326D01*
X16949000Y18506661D01*
X16949000Y19343339D01*
X16953465Y19388674D01*
X16964899Y19426367D01*
X16983466Y19461103D01*
X17008452Y19491548D01*
X17038897Y19516534D01*
X17073633Y19535101D01*
X17111326Y19546535D01*
X17156661Y19551000D01*
X18243339Y19551000D01*
X18288674Y19546535D01*
G37*
G36*
X38788674Y19996535D02*
G01*
X38826367Y19985101D01*
X38861103Y19966534D01*
X38891548Y19941548D01*
X38916534Y19911103D01*
X38935101Y19876367D01*
X38946535Y19838674D01*
X38951000Y19793339D01*
X38951000Y18956661D01*
X38946535Y18911326D01*
X38935101Y18873633D01*
X38916534Y18838897D01*
X38891548Y18808452D01*
X38861103Y18783466D01*
X38826367Y18764899D01*
X38788674Y18753465D01*
X38743339Y18749000D01*
X37656661Y18749000D01*
X37611326Y18753465D01*
X37573633Y18764899D01*
X37538897Y18783466D01*
X37508452Y18808452D01*
X37483466Y18838897D01*
X37464899Y18873633D01*
X37453465Y18911326D01*
X37449000Y18956661D01*
X37449000Y19793339D01*
X37453465Y19838674D01*
X37464899Y19876367D01*
X37483466Y19911103D01*
X37508452Y19941548D01*
X37538897Y19966534D01*
X37573633Y19985101D01*
X37611326Y19996535D01*
X37656661Y20001000D01*
X38743339Y20001000D01*
X38788674Y19996535D01*
G37*
G36*
X61861000Y19419000D02*
G01*
X60059000Y19419000D01*
X60059000Y21221000D01*
X61861000Y21221000D01*
X61861000Y19419000D01*
G37*
G36*
X2653512Y21216073D02*
G01*
X2802812Y21186376D01*
X2966784Y21118456D01*
X3114354Y21019853D01*
X3239853Y20894354D01*
X3338456Y20746784D01*
X3406376Y20582812D01*
X3441000Y20408741D01*
X3441000Y20231259D01*
X3406376Y20057188D01*
X3338456Y19893216D01*
X3239853Y19745646D01*
X3114354Y19620147D01*
X2966784Y19521544D01*
X2802812Y19453624D01*
X2665778Y19426367D01*
X2628742Y19419000D01*
X2451258Y19419000D01*
X2414222Y19426367D01*
X2277188Y19453624D01*
X2113216Y19521544D01*
X1965646Y19620147D01*
X1840147Y19745646D01*
X1741544Y19893216D01*
X1673624Y20057188D01*
X1639000Y20231259D01*
X1639000Y20408741D01*
X1673624Y20582812D01*
X1741544Y20746784D01*
X1840147Y20894354D01*
X1965646Y21019853D01*
X2113216Y21118456D01*
X2277188Y21186376D01*
X2426488Y21216073D01*
X2451258Y21221000D01*
X2628742Y21221000D01*
X2653512Y21216073D01*
G37*
G36*
X24351000Y19549000D02*
G01*
X22649000Y19549000D01*
X22649000Y21251000D01*
X24351000Y21251000D01*
X24351000Y19549000D01*
G37*
G36*
X7748228Y21518297D02*
G01*
X7903100Y21454147D01*
X8042481Y21361015D01*
X8161015Y21242481D01*
X8254147Y21103100D01*
X8318297Y20948228D01*
X8351000Y20783816D01*
X8351000Y20616184D01*
X8318297Y20451772D01*
X8254147Y20296900D01*
X8161015Y20157519D01*
X8042481Y20038985D01*
X7903100Y19945853D01*
X7748228Y19881703D01*
X7583816Y19849000D01*
X7416184Y19849000D01*
X7251772Y19881703D01*
X7096900Y19945853D01*
X6957519Y20038985D01*
X6838985Y20157519D01*
X6745853Y20296900D01*
X6681703Y20451772D01*
X6649000Y20616184D01*
X6649000Y20783816D01*
X6681703Y20948228D01*
X6745853Y21103100D01*
X6838985Y21242481D01*
X6957519Y21361015D01*
X7096900Y21454147D01*
X7251772Y21518297D01*
X7416184Y21551000D01*
X7583816Y21551000D01*
X7748228Y21518297D01*
G37*
G36*
X53138674Y21546535D02*
G01*
X53176367Y21535101D01*
X53211103Y21516534D01*
X53241548Y21491548D01*
X53266534Y21461103D01*
X53285101Y21426367D01*
X53296535Y21388674D01*
X53301000Y21343339D01*
X53301000Y20256661D01*
X53296535Y20211326D01*
X53285101Y20173633D01*
X53266534Y20138897D01*
X53241548Y20108452D01*
X53211103Y20083466D01*
X53176367Y20064899D01*
X53138674Y20053465D01*
X53093339Y20049000D01*
X52256661Y20049000D01*
X52211326Y20053465D01*
X52173633Y20064899D01*
X52138897Y20083466D01*
X52108452Y20108452D01*
X52083466Y20138897D01*
X52064899Y20173633D01*
X52053465Y20211326D01*
X52049000Y20256661D01*
X52049000Y21343339D01*
X52053465Y21388674D01*
X52064899Y21426367D01*
X52083466Y21461103D01*
X52108452Y21491548D01*
X52138897Y21516534D01*
X52173633Y21535101D01*
X52211326Y21546535D01*
X52256661Y21551000D01*
X53093339Y21551000D01*
X53138674Y21546535D01*
G37*
G36*
X55188674Y21546535D02*
G01*
X55226367Y21535101D01*
X55261103Y21516534D01*
X55291548Y21491548D01*
X55316534Y21461103D01*
X55335101Y21426367D01*
X55346535Y21388674D01*
X55351000Y21343339D01*
X55351000Y20256661D01*
X55346535Y20211326D01*
X55335101Y20173633D01*
X55316534Y20138897D01*
X55291548Y20108452D01*
X55261103Y20083466D01*
X55226367Y20064899D01*
X55188674Y20053465D01*
X55143339Y20049000D01*
X54306661Y20049000D01*
X54261326Y20053465D01*
X54223633Y20064899D01*
X54188897Y20083466D01*
X54158452Y20108452D01*
X54133466Y20138897D01*
X54114899Y20173633D01*
X54103465Y20211326D01*
X54099000Y20256661D01*
X54099000Y21343339D01*
X54103465Y21388674D01*
X54114899Y21426367D01*
X54133466Y21461103D01*
X54158452Y21491548D01*
X54188897Y21516534D01*
X54223633Y21535101D01*
X54261326Y21546535D01*
X54306661Y21551000D01*
X55143339Y21551000D01*
X55188674Y21546535D01*
G37*
G36*
X33788674Y21346535D02*
G01*
X33826367Y21335101D01*
X33861103Y21316534D01*
X33891548Y21291548D01*
X33916534Y21261103D01*
X33935101Y21226367D01*
X33946535Y21188674D01*
X33951000Y21143339D01*
X33951000Y20306661D01*
X33946535Y20261326D01*
X33935101Y20223633D01*
X33916534Y20188897D01*
X33891548Y20158452D01*
X33861103Y20133466D01*
X33826367Y20114899D01*
X33788674Y20103465D01*
X33743339Y20099000D01*
X32656661Y20099000D01*
X32611326Y20103465D01*
X32573633Y20114899D01*
X32538897Y20133466D01*
X32508452Y20158452D01*
X32483466Y20188897D01*
X32464899Y20223633D01*
X32453465Y20261326D01*
X32449000Y20306661D01*
X32449000Y21143339D01*
X32453465Y21188674D01*
X32464899Y21226367D01*
X32483466Y21261103D01*
X32508452Y21291548D01*
X32538897Y21316534D01*
X32573633Y21335101D01*
X32611326Y21346535D01*
X32656661Y21351000D01*
X33743339Y21351000D01*
X33788674Y21346535D01*
G37*
G36*
X43668228Y22218297D02*
G01*
X43823100Y22154147D01*
X43962481Y22061015D01*
X44081015Y21942481D01*
X44174147Y21803100D01*
X44238297Y21648228D01*
X44271000Y21483816D01*
X44271000Y21316184D01*
X44238297Y21151772D01*
X44174147Y20996900D01*
X44081015Y20857519D01*
X43962481Y20738985D01*
X43823100Y20645853D01*
X43668228Y20581703D01*
X43503816Y20549000D01*
X43336184Y20549000D01*
X43171772Y20581703D01*
X43016900Y20645853D01*
X42877519Y20738985D01*
X42758985Y20857519D01*
X42665853Y20996900D01*
X42601703Y21151772D01*
X42569000Y21316184D01*
X42569000Y21483816D01*
X42601703Y21648228D01*
X42665853Y21803100D01*
X42758985Y21942481D01*
X42877519Y22061015D01*
X43016900Y22154147D01*
X43171772Y22218297D01*
X43336184Y22251000D01*
X43503816Y22251000D01*
X43668228Y22218297D01*
G37*
G36*
X36651000Y20549000D02*
G01*
X34949000Y20549000D01*
X34949000Y22251000D01*
X36651000Y22251000D01*
X36651000Y20549000D01*
G37*
G36*
X50688674Y21896535D02*
G01*
X50726367Y21885101D01*
X50761103Y21866534D01*
X50791548Y21841548D01*
X50816534Y21811103D01*
X50835101Y21776367D01*
X50846535Y21738674D01*
X50851000Y21693339D01*
X50851000Y20856661D01*
X50846535Y20811326D01*
X50835101Y20773633D01*
X50816534Y20738897D01*
X50791548Y20708452D01*
X50761103Y20683466D01*
X50726367Y20664899D01*
X50688674Y20653465D01*
X50643339Y20649000D01*
X49556661Y20649000D01*
X49511326Y20653465D01*
X49473633Y20664899D01*
X49438897Y20683466D01*
X49408452Y20708452D01*
X49383466Y20738897D01*
X49364899Y20773633D01*
X49353465Y20811326D01*
X49349000Y20856661D01*
X49349000Y21693339D01*
X49353465Y21738674D01*
X49364899Y21776367D01*
X49383466Y21811103D01*
X49408452Y21841548D01*
X49438897Y21866534D01*
X49473633Y21885101D01*
X49511326Y21896535D01*
X49556661Y21901000D01*
X50643339Y21901000D01*
X50688674Y21896535D01*
G37*
G36*
X38788674Y22046535D02*
G01*
X38826367Y22035101D01*
X38861103Y22016534D01*
X38891548Y21991548D01*
X38916534Y21961103D01*
X38935101Y21926367D01*
X38946535Y21888674D01*
X38951000Y21843339D01*
X38951000Y21006661D01*
X38946535Y20961326D01*
X38935101Y20923633D01*
X38916534Y20888897D01*
X38891548Y20858452D01*
X38861103Y20833466D01*
X38826367Y20814899D01*
X38788674Y20803465D01*
X38743339Y20799000D01*
X37656661Y20799000D01*
X37611326Y20803465D01*
X37573633Y20814899D01*
X37538897Y20833466D01*
X37508452Y20858452D01*
X37483466Y20888897D01*
X37464899Y20923633D01*
X37453465Y20961326D01*
X37449000Y21006661D01*
X37449000Y21843339D01*
X37453465Y21888674D01*
X37464899Y21926367D01*
X37483466Y21961103D01*
X37508452Y21991548D01*
X37538897Y22016534D01*
X37573633Y22035101D01*
X37611326Y22046535D01*
X37656661Y22051000D01*
X38743339Y22051000D01*
X38788674Y22046535D01*
G37*
G36*
X41688674Y22096535D02*
G01*
X41726367Y22085101D01*
X41761103Y22066534D01*
X41791548Y22041548D01*
X41816534Y22011103D01*
X41835101Y21976367D01*
X41846535Y21938674D01*
X41851000Y21893339D01*
X41851000Y21056661D01*
X41846535Y21011326D01*
X41835101Y20973633D01*
X41816534Y20938897D01*
X41791548Y20908452D01*
X41761103Y20883466D01*
X41726367Y20864899D01*
X41688674Y20853465D01*
X41643339Y20849000D01*
X40556661Y20849000D01*
X40511326Y20853465D01*
X40473633Y20864899D01*
X40438897Y20883466D01*
X40408452Y20908452D01*
X40383466Y20938897D01*
X40364899Y20973633D01*
X40353465Y21011326D01*
X40349000Y21056661D01*
X40349000Y21893339D01*
X40353465Y21938674D01*
X40364899Y21976367D01*
X40383466Y22011103D01*
X40408452Y22041548D01*
X40438897Y22066534D01*
X40473633Y22085101D01*
X40511326Y22096535D01*
X40556661Y22101000D01*
X41643339Y22101000D01*
X41688674Y22096535D01*
G37*
G36*
X61073512Y23756073D02*
G01*
X61222812Y23726376D01*
X61386784Y23658456D01*
X61534354Y23559853D01*
X61659853Y23434354D01*
X61758456Y23286784D01*
X61826376Y23122812D01*
X61847419Y23017017D01*
X61859069Y22958452D01*
X61861000Y22948741D01*
X61861000Y22771259D01*
X61826376Y22597188D01*
X61758456Y22433216D01*
X61659853Y22285646D01*
X61534354Y22160147D01*
X61386784Y22061544D01*
X61222812Y21993624D01*
X61073512Y21963927D01*
X61048742Y21959000D01*
X60871258Y21959000D01*
X60846488Y21963927D01*
X60697188Y21993624D01*
X60533216Y22061544D01*
X60385646Y22160147D01*
X60260147Y22285646D01*
X60161544Y22433216D01*
X60093624Y22597188D01*
X60059000Y22771259D01*
X60059000Y22948741D01*
X60060932Y22958452D01*
X60072581Y23017017D01*
X60093624Y23122812D01*
X60161544Y23286784D01*
X60260147Y23434354D01*
X60385646Y23559853D01*
X60533216Y23658456D01*
X60697188Y23726376D01*
X60846488Y23756073D01*
X60871258Y23761000D01*
X61048742Y23761000D01*
X61073512Y23756073D01*
G37*
G36*
X3441000Y21959000D02*
G01*
X1639000Y21959000D01*
X1639000Y23761000D01*
X3441000Y23761000D01*
X3441000Y21959000D01*
G37*
G36*
X55568228Y24198297D02*
G01*
X55723100Y24134147D01*
X55862481Y24041015D01*
X55981015Y23922481D01*
X56074147Y23783100D01*
X56138297Y23628228D01*
X56171000Y23463816D01*
X56171000Y23296184D01*
X56138297Y23131772D01*
X56074147Y22976900D01*
X55981015Y22837519D01*
X55862481Y22718985D01*
X55723100Y22625853D01*
X55568228Y22561703D01*
X55403816Y22529000D01*
X55236184Y22529000D01*
X55071772Y22561703D01*
X54916900Y22625853D01*
X54777519Y22718985D01*
X54658985Y22837519D01*
X54565853Y22976900D01*
X54501703Y23131772D01*
X54469000Y23296184D01*
X54469000Y23463816D01*
X54501703Y23628228D01*
X54565853Y23783100D01*
X54658985Y23922481D01*
X54777519Y24041015D01*
X54916900Y24134147D01*
X55071772Y24198297D01*
X55236184Y24231000D01*
X55403816Y24231000D01*
X55568228Y24198297D01*
G37*
G36*
X47948228Y24198297D02*
G01*
X48103100Y24134147D01*
X48242481Y24041015D01*
X48361015Y23922481D01*
X48454147Y23783100D01*
X48518297Y23628228D01*
X48551000Y23463816D01*
X48551000Y23296184D01*
X48518297Y23131772D01*
X48454147Y22976900D01*
X48361015Y22837519D01*
X48242481Y22718985D01*
X48103100Y22625853D01*
X47948228Y22561703D01*
X47783816Y22529000D01*
X47616184Y22529000D01*
X47451772Y22561703D01*
X47296900Y22625853D01*
X47157519Y22718985D01*
X47038985Y22837519D01*
X46945853Y22976900D01*
X46881703Y23131772D01*
X46849000Y23296184D01*
X46849000Y23463816D01*
X46881703Y23628228D01*
X46945853Y23783100D01*
X47038985Y23922481D01*
X47157519Y24041015D01*
X47296900Y24134147D01*
X47451772Y24198297D01*
X47616184Y24231000D01*
X47783816Y24231000D01*
X47948228Y24198297D01*
G37*
G36*
X50688674Y23946535D02*
G01*
X50726367Y23935101D01*
X50761103Y23916534D01*
X50791548Y23891548D01*
X50816534Y23861103D01*
X50835101Y23826367D01*
X50846535Y23788674D01*
X50851000Y23743339D01*
X50851000Y22906661D01*
X50846535Y22861326D01*
X50835101Y22823633D01*
X50816534Y22788897D01*
X50791548Y22758452D01*
X50761103Y22733466D01*
X50726367Y22714899D01*
X50688674Y22703465D01*
X50643339Y22699000D01*
X49556661Y22699000D01*
X49511326Y22703465D01*
X49473633Y22714899D01*
X49438897Y22733466D01*
X49408452Y22758452D01*
X49383466Y22788897D01*
X49364899Y22823633D01*
X49353465Y22861326D01*
X49349000Y22906661D01*
X49349000Y23743339D01*
X49353465Y23788674D01*
X49364899Y23826367D01*
X49383466Y23861103D01*
X49408452Y23891548D01*
X49438897Y23916534D01*
X49473633Y23935101D01*
X49511326Y23946535D01*
X49556661Y23951000D01*
X50643339Y23951000D01*
X50688674Y23946535D01*
G37*
G36*
X53488674Y24096535D02*
G01*
X53526367Y24085101D01*
X53561103Y24066534D01*
X53591548Y24041548D01*
X53616534Y24011103D01*
X53635101Y23976367D01*
X53646535Y23938674D01*
X53651000Y23893339D01*
X53651000Y23056661D01*
X53646535Y23011326D01*
X53635101Y22973633D01*
X53616534Y22938897D01*
X53591548Y22908452D01*
X53561103Y22883466D01*
X53526367Y22864899D01*
X53488674Y22853465D01*
X53443339Y22849000D01*
X52356661Y22849000D01*
X52311326Y22853465D01*
X52273633Y22864899D01*
X52238897Y22883466D01*
X52208452Y22908452D01*
X52183466Y22938897D01*
X52164899Y22973633D01*
X52153465Y23011326D01*
X52149000Y23056661D01*
X52149000Y23893339D01*
X52153465Y23938674D01*
X52164899Y23976367D01*
X52183466Y24011103D01*
X52208452Y24041548D01*
X52238897Y24066534D01*
X52273633Y24085101D01*
X52311326Y24096535D01*
X52356661Y24101000D01*
X53443339Y24101000D01*
X53488674Y24096535D01*
G37*
G36*
X41688674Y24146535D02*
G01*
X41726367Y24135101D01*
X41761103Y24116534D01*
X41791548Y24091548D01*
X41816534Y24061103D01*
X41835101Y24026367D01*
X41846535Y23988674D01*
X41851000Y23943339D01*
X41851000Y23106661D01*
X41846535Y23061326D01*
X41835101Y23023633D01*
X41816534Y22988897D01*
X41791548Y22958452D01*
X41761103Y22933466D01*
X41726367Y22914899D01*
X41688674Y22903465D01*
X41643339Y22899000D01*
X40556661Y22899000D01*
X40511326Y22903465D01*
X40473633Y22914899D01*
X40438897Y22933466D01*
X40408452Y22958452D01*
X40383466Y22988897D01*
X40364899Y23023633D01*
X40353465Y23061326D01*
X40349000Y23106661D01*
X40349000Y23943339D01*
X40353465Y23988674D01*
X40364899Y24026367D01*
X40383466Y24061103D01*
X40408452Y24091548D01*
X40438897Y24116534D01*
X40473633Y24135101D01*
X40511326Y24146535D01*
X40556661Y24151000D01*
X41643339Y24151000D01*
X41688674Y24146535D01*
G37*
G36*
X9488228Y25698297D02*
G01*
X9643100Y25634147D01*
X9782481Y25541015D01*
X9901015Y25422481D01*
X9994147Y25283100D01*
X10058297Y25128228D01*
X10091000Y24963816D01*
X10091000Y24796184D01*
X10058297Y24631772D01*
X9994147Y24476900D01*
X9901015Y24337519D01*
X9782481Y24218985D01*
X9643100Y24125853D01*
X9488228Y24061703D01*
X9323816Y24029000D01*
X9156184Y24029000D01*
X8991772Y24061703D01*
X8836900Y24125853D01*
X8697519Y24218985D01*
X8578985Y24337519D01*
X8485853Y24476900D01*
X8421703Y24631772D01*
X8389000Y24796184D01*
X8389000Y24963816D01*
X8421703Y25128228D01*
X8485853Y25283100D01*
X8578985Y25422481D01*
X8697519Y25541015D01*
X8836900Y25634147D01*
X8991772Y25698297D01*
X9156184Y25731000D01*
X9323816Y25731000D01*
X9488228Y25698297D01*
G37*
G36*
X17108228Y25698297D02*
G01*
X17263100Y25634147D01*
X17402481Y25541015D01*
X17521015Y25422481D01*
X17614147Y25283100D01*
X17678297Y25128228D01*
X17711000Y24963816D01*
X17711000Y24796184D01*
X17678297Y24631772D01*
X17614147Y24476900D01*
X17521015Y24337519D01*
X17402481Y24218985D01*
X17263100Y24125853D01*
X17108228Y24061703D01*
X16943816Y24029000D01*
X16776184Y24029000D01*
X16611772Y24061703D01*
X16456900Y24125853D01*
X16317519Y24218985D01*
X16198985Y24337519D01*
X16105853Y24476900D01*
X16041703Y24631772D01*
X16009000Y24796184D01*
X16009000Y24963816D01*
X16041703Y25128228D01*
X16105853Y25283100D01*
X16198985Y25422481D01*
X16317519Y25541015D01*
X16456900Y25634147D01*
X16611772Y25698297D01*
X16776184Y25731000D01*
X16943816Y25731000D01*
X17108228Y25698297D01*
G37*
G36*
X12228674Y25496535D02*
G01*
X12266367Y25485101D01*
X12301103Y25466534D01*
X12331548Y25441548D01*
X12356534Y25411103D01*
X12375101Y25376367D01*
X12386535Y25338674D01*
X12391000Y25293339D01*
X12391000Y24456661D01*
X12386535Y24411326D01*
X12375101Y24373633D01*
X12356534Y24338897D01*
X12331548Y24308452D01*
X12301103Y24283466D01*
X12266367Y24264899D01*
X12228674Y24253465D01*
X12183339Y24249000D01*
X11096661Y24249000D01*
X11051326Y24253465D01*
X11013633Y24264899D01*
X10978897Y24283466D01*
X10948452Y24308452D01*
X10923466Y24338897D01*
X10904899Y24373633D01*
X10893465Y24411326D01*
X10889000Y24456661D01*
X10889000Y25293339D01*
X10893465Y25338674D01*
X10904899Y25376367D01*
X10923466Y25411103D01*
X10948452Y25441548D01*
X10978897Y25466534D01*
X11013633Y25485101D01*
X11051326Y25496535D01*
X11096661Y25501000D01*
X12183339Y25501000D01*
X12228674Y25496535D01*
G37*
G36*
X61073512Y26296073D02*
G01*
X61222812Y26266376D01*
X61386784Y26198456D01*
X61534354Y26099853D01*
X61659853Y25974354D01*
X61758456Y25826784D01*
X61826376Y25662812D01*
X61861000Y25488741D01*
X61861000Y25311259D01*
X61826376Y25137188D01*
X61758456Y24973216D01*
X61659853Y24825646D01*
X61534354Y24700147D01*
X61386784Y24601544D01*
X61222812Y24533624D01*
X61073512Y24503927D01*
X61048742Y24499000D01*
X60871258Y24499000D01*
X60846488Y24503927D01*
X60697188Y24533624D01*
X60533216Y24601544D01*
X60385646Y24700147D01*
X60260147Y24825646D01*
X60161544Y24973216D01*
X60093624Y25137188D01*
X60059000Y25311259D01*
X60059000Y25488741D01*
X60093624Y25662812D01*
X60161544Y25826784D01*
X60260147Y25974354D01*
X60385646Y26099853D01*
X60533216Y26198456D01*
X60697188Y26266376D01*
X60846488Y26296073D01*
X60871258Y26301000D01*
X61048742Y26301000D01*
X61073512Y26296073D01*
G37*
G36*
X53488674Y26146535D02*
G01*
X53526367Y26135101D01*
X53561103Y26116534D01*
X53591548Y26091548D01*
X53616534Y26061103D01*
X53635101Y26026367D01*
X53646535Y25988674D01*
X53651000Y25943339D01*
X53651000Y25106661D01*
X53646535Y25061326D01*
X53635101Y25023633D01*
X53616534Y24988897D01*
X53591548Y24958452D01*
X53561103Y24933466D01*
X53526367Y24914899D01*
X53488674Y24903465D01*
X53443339Y24899000D01*
X52356661Y24899000D01*
X52311326Y24903465D01*
X52273633Y24914899D01*
X52238897Y24933466D01*
X52208452Y24958452D01*
X52183466Y24988897D01*
X52164899Y25023633D01*
X52153465Y25061326D01*
X52149000Y25106661D01*
X52149000Y25943339D01*
X52153465Y25988674D01*
X52164899Y26026367D01*
X52183466Y26061103D01*
X52208452Y26091548D01*
X52238897Y26116534D01*
X52273633Y26135101D01*
X52311326Y26146535D01*
X52356661Y26151000D01*
X53443339Y26151000D01*
X53488674Y26146535D01*
G37*
G36*
X47948228Y26738297D02*
G01*
X48103100Y26674147D01*
X48242481Y26581015D01*
X48361015Y26462481D01*
X48454147Y26323100D01*
X48518297Y26168228D01*
X48551000Y26003816D01*
X48551000Y25836184D01*
X48518297Y25671772D01*
X48454147Y25516900D01*
X48361015Y25377519D01*
X48242481Y25258985D01*
X48103100Y25165853D01*
X47948228Y25101703D01*
X47783816Y25069000D01*
X47616184Y25069000D01*
X47451772Y25101703D01*
X47296900Y25165853D01*
X47157519Y25258985D01*
X47038985Y25377519D01*
X46945853Y25516900D01*
X46881703Y25671772D01*
X46849000Y25836184D01*
X46849000Y26003816D01*
X46881703Y26168228D01*
X46945853Y26323100D01*
X47038985Y26462481D01*
X47157519Y26581015D01*
X47296900Y26674147D01*
X47451772Y26738297D01*
X47616184Y26771000D01*
X47783816Y26771000D01*
X47948228Y26738297D01*
G37*
G36*
X55568228Y26738297D02*
G01*
X55723100Y26674147D01*
X55862481Y26581015D01*
X55981015Y26462481D01*
X56074147Y26323100D01*
X56138297Y26168228D01*
X56171000Y26003816D01*
X56171000Y25836184D01*
X56138297Y25671772D01*
X56074147Y25516900D01*
X55981015Y25377519D01*
X55862481Y25258985D01*
X55723100Y25165853D01*
X55568228Y25101703D01*
X55403816Y25069000D01*
X55236184Y25069000D01*
X55071772Y25101703D01*
X54916900Y25165853D01*
X54777519Y25258985D01*
X54658985Y25377519D01*
X54565853Y25516900D01*
X54501703Y25671772D01*
X54469000Y25836184D01*
X54469000Y26003816D01*
X54501703Y26168228D01*
X54565853Y26323100D01*
X54658985Y26462481D01*
X54777519Y26581015D01*
X54916900Y26674147D01*
X55071772Y26738297D01*
X55236184Y26771000D01*
X55403816Y26771000D01*
X55568228Y26738297D01*
G37*
G36*
X5788674Y27246535D02*
G01*
X5826367Y27235101D01*
X5861103Y27216534D01*
X5891548Y27191548D01*
X5916534Y27161103D01*
X5935101Y27126367D01*
X5946535Y27088674D01*
X5951000Y27043339D01*
X5951000Y25956661D01*
X5946535Y25911326D01*
X5935101Y25873633D01*
X5916534Y25838897D01*
X5891548Y25808452D01*
X5861103Y25783466D01*
X5826367Y25764899D01*
X5788674Y25753465D01*
X5743339Y25749000D01*
X4906661Y25749000D01*
X4861326Y25753465D01*
X4823633Y25764899D01*
X4788897Y25783466D01*
X4758452Y25808452D01*
X4733466Y25838897D01*
X4714899Y25873633D01*
X4703465Y25911326D01*
X4699000Y25956661D01*
X4699000Y27043339D01*
X4703465Y27088674D01*
X4714899Y27126367D01*
X4733466Y27161103D01*
X4758452Y27191548D01*
X4788897Y27216534D01*
X4823633Y27235101D01*
X4861326Y27246535D01*
X4906661Y27251000D01*
X5743339Y27251000D01*
X5788674Y27246535D01*
G37*
G36*
X3738674Y27246535D02*
G01*
X3776367Y27235101D01*
X3811103Y27216534D01*
X3841548Y27191548D01*
X3866534Y27161103D01*
X3885101Y27126367D01*
X3896535Y27088674D01*
X3901000Y27043339D01*
X3901000Y25956661D01*
X3896535Y25911326D01*
X3885101Y25873633D01*
X3866534Y25838897D01*
X3841548Y25808452D01*
X3811103Y25783466D01*
X3776367Y25764899D01*
X3738674Y25753465D01*
X3693339Y25749000D01*
X2856661Y25749000D01*
X2811326Y25753465D01*
X2773633Y25764899D01*
X2738897Y25783466D01*
X2708452Y25808452D01*
X2683466Y25838897D01*
X2664899Y25873633D01*
X2653465Y25911326D01*
X2649000Y25956661D01*
X2649000Y27043339D01*
X2653465Y27088674D01*
X2664899Y27126367D01*
X2683466Y27161103D01*
X2708452Y27191548D01*
X2738897Y27216534D01*
X2773633Y27235101D01*
X2811326Y27246535D01*
X2856661Y27251000D01*
X3693339Y27251000D01*
X3738674Y27246535D01*
G37*
G36*
X12228674Y27546535D02*
G01*
X12266367Y27535101D01*
X12301103Y27516534D01*
X12331548Y27491548D01*
X12356534Y27461103D01*
X12375101Y27426367D01*
X12386535Y27388674D01*
X12391000Y27343339D01*
X12391000Y26506661D01*
X12386535Y26461326D01*
X12375101Y26423633D01*
X12356534Y26388897D01*
X12331548Y26358452D01*
X12301103Y26333466D01*
X12266367Y26314899D01*
X12228674Y26303465D01*
X12183339Y26299000D01*
X11096661Y26299000D01*
X11051326Y26303465D01*
X11013633Y26314899D01*
X10978897Y26333466D01*
X10948452Y26358452D01*
X10923466Y26388897D01*
X10904899Y26423633D01*
X10893465Y26461326D01*
X10889000Y26506661D01*
X10889000Y27343339D01*
X10893465Y27388674D01*
X10904899Y27426367D01*
X10923466Y27461103D01*
X10948452Y27491548D01*
X10978897Y27516534D01*
X11013633Y27535101D01*
X11051326Y27546535D01*
X11096661Y27551000D01*
X12183339Y27551000D01*
X12228674Y27546535D01*
G37*
G36*
X17108228Y28238297D02*
G01*
X17263100Y28174147D01*
X17402481Y28081015D01*
X17521015Y27962481D01*
X17614147Y27823100D01*
X17678297Y27668228D01*
X17711000Y27503816D01*
X17711000Y27336184D01*
X17678297Y27171772D01*
X17614147Y27016900D01*
X17521015Y26877519D01*
X17402481Y26758985D01*
X17263100Y26665853D01*
X17108228Y26601703D01*
X16943816Y26569000D01*
X16776184Y26569000D01*
X16611772Y26601703D01*
X16456900Y26665853D01*
X16317519Y26758985D01*
X16198985Y26877519D01*
X16105853Y27016900D01*
X16041703Y27171772D01*
X16009000Y27336184D01*
X16009000Y27503816D01*
X16041703Y27668228D01*
X16105853Y27823100D01*
X16198985Y27962481D01*
X16317519Y28081015D01*
X16456900Y28174147D01*
X16611772Y28238297D01*
X16776184Y28271000D01*
X16943816Y28271000D01*
X17108228Y28238297D01*
G37*
G36*
X9488228Y28238297D02*
G01*
X9643100Y28174147D01*
X9782481Y28081015D01*
X9901015Y27962481D01*
X9994147Y27823100D01*
X10058297Y27668228D01*
X10091000Y27503816D01*
X10091000Y27336184D01*
X10058297Y27171772D01*
X9994147Y27016900D01*
X9901015Y26877519D01*
X9782481Y26758985D01*
X9643100Y26665853D01*
X9488228Y26601703D01*
X9323816Y26569000D01*
X9156184Y26569000D01*
X8991772Y26601703D01*
X8836900Y26665853D01*
X8697519Y26758985D01*
X8578985Y26877519D01*
X8485853Y27016900D01*
X8421703Y27171772D01*
X8389000Y27336184D01*
X8389000Y27503816D01*
X8421703Y27668228D01*
X8485853Y27823100D01*
X8578985Y27962481D01*
X8697519Y28081015D01*
X8836900Y28174147D01*
X8991772Y28238297D01*
X9156184Y28271000D01*
X9323816Y28271000D01*
X9488228Y28238297D01*
G37*
G36*
X55568228Y29278297D02*
G01*
X55723100Y29214147D01*
X55862481Y29121015D01*
X55981015Y29002481D01*
X56074147Y28863100D01*
X56138297Y28708228D01*
X56171000Y28543816D01*
X56171000Y28376184D01*
X56138297Y28211772D01*
X56074147Y28056900D01*
X55981015Y27917519D01*
X55862481Y27798985D01*
X55723100Y27705853D01*
X55568228Y27641703D01*
X55403816Y27609000D01*
X55236184Y27609000D01*
X55071772Y27641703D01*
X54916900Y27705853D01*
X54777519Y27798985D01*
X54658985Y27917519D01*
X54565853Y28056900D01*
X54501703Y28211772D01*
X54469000Y28376184D01*
X54469000Y28543816D01*
X54501703Y28708228D01*
X54565853Y28863100D01*
X54658985Y29002481D01*
X54777519Y29121015D01*
X54916900Y29214147D01*
X55071772Y29278297D01*
X55236184Y29311000D01*
X55403816Y29311000D01*
X55568228Y29278297D01*
G37*
G36*
X47948228Y29278297D02*
G01*
X48103100Y29214147D01*
X48242481Y29121015D01*
X48361015Y29002481D01*
X48454147Y28863100D01*
X48518297Y28708228D01*
X48551000Y28543816D01*
X48551000Y28376184D01*
X48518297Y28211772D01*
X48454147Y28056900D01*
X48361015Y27917519D01*
X48242481Y27798985D01*
X48103100Y27705853D01*
X47948228Y27641703D01*
X47783816Y27609000D01*
X47616184Y27609000D01*
X47451772Y27641703D01*
X47296900Y27705853D01*
X47157519Y27798985D01*
X47038985Y27917519D01*
X46945853Y28056900D01*
X46881703Y28211772D01*
X46849000Y28376184D01*
X46849000Y28543816D01*
X46881703Y28708228D01*
X46945853Y28863100D01*
X47038985Y29002481D01*
X47157519Y29121015D01*
X47296900Y29214147D01*
X47451772Y29278297D01*
X47616184Y29311000D01*
X47783816Y29311000D01*
X47948228Y29278297D01*
G37*
G36*
X53588674Y29596535D02*
G01*
X53626367Y29585101D01*
X53661103Y29566534D01*
X53691548Y29541548D01*
X53716534Y29511103D01*
X53735101Y29476367D01*
X53746535Y29438674D01*
X53751000Y29393339D01*
X53751000Y28556661D01*
X53746535Y28511326D01*
X53735101Y28473633D01*
X53716534Y28438897D01*
X53691548Y28408452D01*
X53661103Y28383466D01*
X53626367Y28364899D01*
X53588674Y28353465D01*
X53543339Y28349000D01*
X52456661Y28349000D01*
X52411326Y28353465D01*
X52373633Y28364899D01*
X52338897Y28383466D01*
X52308452Y28408452D01*
X52283466Y28438897D01*
X52264899Y28473633D01*
X52253465Y28511326D01*
X52249000Y28556661D01*
X52249000Y29393339D01*
X52253465Y29438674D01*
X52264899Y29476367D01*
X52283466Y29511103D01*
X52308452Y29541548D01*
X52338897Y29566534D01*
X52373633Y29585101D01*
X52411326Y29596535D01*
X52456661Y29601000D01*
X53543339Y29601000D01*
X53588674Y29596535D01*
G37*
G36*
X9488228Y30778297D02*
G01*
X9643100Y30714147D01*
X9782481Y30621015D01*
X9901015Y30502481D01*
X9994147Y30363100D01*
X10058297Y30208228D01*
X10091000Y30043816D01*
X10091000Y29876184D01*
X10058297Y29711772D01*
X9994147Y29556900D01*
X9901015Y29417519D01*
X9782481Y29298985D01*
X9643100Y29205853D01*
X9488228Y29141703D01*
X9323816Y29109000D01*
X9156184Y29109000D01*
X8991772Y29141703D01*
X8836900Y29205853D01*
X8697519Y29298985D01*
X8578985Y29417519D01*
X8485853Y29556900D01*
X8421703Y29711772D01*
X8389000Y29876184D01*
X8389000Y30043816D01*
X8421703Y30208228D01*
X8485853Y30363100D01*
X8578985Y30502481D01*
X8697519Y30621015D01*
X8836900Y30714147D01*
X8991772Y30778297D01*
X9156184Y30811000D01*
X9323816Y30811000D01*
X9488228Y30778297D01*
G37*
G36*
X17108228Y30778297D02*
G01*
X17263100Y30714147D01*
X17402481Y30621015D01*
X17521015Y30502481D01*
X17614147Y30363100D01*
X17678297Y30208228D01*
X17711000Y30043816D01*
X17711000Y29876184D01*
X17678297Y29711772D01*
X17614147Y29556900D01*
X17521015Y29417519D01*
X17402481Y29298985D01*
X17263100Y29205853D01*
X17108228Y29141703D01*
X16943816Y29109000D01*
X16776184Y29109000D01*
X16611772Y29141703D01*
X16456900Y29205853D01*
X16317519Y29298985D01*
X16198985Y29417519D01*
X16105853Y29556900D01*
X16041703Y29711772D01*
X16009000Y29876184D01*
X16009000Y30043816D01*
X16041703Y30208228D01*
X16105853Y30363100D01*
X16198985Y30502481D01*
X16317519Y30621015D01*
X16456900Y30714147D01*
X16611772Y30778297D01*
X16776184Y30811000D01*
X16943816Y30811000D01*
X17108228Y30778297D01*
G37*
G36*
X4375256Y32608702D02*
G01*
X4481579Y32587553D01*
X4782042Y32463097D01*
X5052451Y32282415D01*
X5282415Y32052451D01*
X5463097Y31782042D01*
X5463098Y31782040D01*
X5490909Y31714899D01*
X5584522Y31488897D01*
X5587553Y31481578D01*
X5651000Y31162611D01*
X5651000Y30837389D01*
X5626485Y30714147D01*
X5587553Y30518421D01*
X5463097Y30217958D01*
X5282415Y29947549D01*
X5052451Y29717585D01*
X4782042Y29536903D01*
X4481579Y29412447D01*
X4393208Y29394869D01*
X4162611Y29349000D01*
X3837389Y29349000D01*
X3606792Y29394869D01*
X3518421Y29412447D01*
X3217958Y29536903D01*
X2947549Y29717585D01*
X2717585Y29947549D01*
X2536903Y30217958D01*
X2412447Y30518421D01*
X2373515Y30714147D01*
X2349000Y30837389D01*
X2349000Y31162611D01*
X2412447Y31481578D01*
X2415479Y31488897D01*
X2509091Y31714899D01*
X2536902Y31782040D01*
X2536903Y31782042D01*
X2717585Y32052451D01*
X2947549Y32282415D01*
X3217958Y32463097D01*
X3518421Y32587553D01*
X3624744Y32608702D01*
X3837389Y32651000D01*
X4162611Y32651000D01*
X4375256Y32608702D01*
G37*
G36*
X12288674Y30596535D02*
G01*
X12326367Y30585101D01*
X12361103Y30566534D01*
X12391548Y30541548D01*
X12416534Y30511103D01*
X12435101Y30476367D01*
X12446535Y30438674D01*
X12451000Y30393339D01*
X12451000Y29556661D01*
X12446535Y29511326D01*
X12435101Y29473633D01*
X12416534Y29438897D01*
X12391548Y29408452D01*
X12361103Y29383466D01*
X12326367Y29364899D01*
X12288674Y29353465D01*
X12243339Y29349000D01*
X11156661Y29349000D01*
X11111326Y29353465D01*
X11073633Y29364899D01*
X11038897Y29383466D01*
X11008452Y29408452D01*
X10983466Y29438897D01*
X10964899Y29473633D01*
X10953465Y29511326D01*
X10949000Y29556661D01*
X10949000Y30393339D01*
X10953465Y30438674D01*
X10964899Y30476367D01*
X10983466Y30511103D01*
X11008452Y30541548D01*
X11038897Y30566534D01*
X11073633Y30585101D01*
X11111326Y30596535D01*
X11156661Y30601000D01*
X12243339Y30601000D01*
X12288674Y30596535D01*
G37*
G36*
X61375256Y32608702D02*
G01*
X61481579Y32587553D01*
X61782042Y32463097D01*
X62052451Y32282415D01*
X62282415Y32052451D01*
X62463097Y31782042D01*
X62463098Y31782040D01*
X62490909Y31714899D01*
X62584522Y31488897D01*
X62587553Y31481578D01*
X62651000Y31162611D01*
X62651000Y30837389D01*
X62626485Y30714147D01*
X62587553Y30518421D01*
X62463097Y30217958D01*
X62282415Y29947549D01*
X62052451Y29717585D01*
X61782042Y29536903D01*
X61481579Y29412447D01*
X61393208Y29394869D01*
X61162611Y29349000D01*
X60837389Y29349000D01*
X60606792Y29394869D01*
X60518421Y29412447D01*
X60217958Y29536903D01*
X59947549Y29717585D01*
X59717585Y29947549D01*
X59536903Y30217958D01*
X59412447Y30518421D01*
X59373515Y30714147D01*
X59349000Y30837389D01*
X59349000Y31162611D01*
X59412447Y31481578D01*
X59415479Y31488897D01*
X59509091Y31714899D01*
X59536902Y31782040D01*
X59536903Y31782042D01*
X59717585Y32052451D01*
X59947549Y32282415D01*
X60217958Y32463097D01*
X60518421Y32587553D01*
X60624744Y32608702D01*
X60837389Y32651000D01*
X61162611Y32651000D01*
X61375256Y32608702D01*
G37*
G36*
X26248228Y31118297D02*
G01*
X26403100Y31054147D01*
X26542481Y30961015D01*
X26661015Y30842481D01*
X26754147Y30703100D01*
X26818297Y30548228D01*
X26851000Y30383816D01*
X26851000Y30216184D01*
X26818297Y30051772D01*
X26754147Y29896900D01*
X26661015Y29757519D01*
X26542481Y29638985D01*
X26403100Y29545853D01*
X26248228Y29481703D01*
X26083816Y29449000D01*
X25916184Y29449000D01*
X25751772Y29481703D01*
X25596900Y29545853D01*
X25457519Y29638985D01*
X25338985Y29757519D01*
X25245853Y29896900D01*
X25181703Y30051772D01*
X25149000Y30216184D01*
X25149000Y30383816D01*
X25181703Y30548228D01*
X25245853Y30703100D01*
X25338985Y30842481D01*
X25457519Y30961015D01*
X25596900Y31054147D01*
X25751772Y31118297D01*
X25916184Y31151000D01*
X26083816Y31151000D01*
X26248228Y31118297D01*
G37*
G36*
X15028674Y30896535D02*
G01*
X15066367Y30885101D01*
X15101103Y30866534D01*
X15131548Y30841548D01*
X15156534Y30811103D01*
X15175101Y30776367D01*
X15186535Y30738674D01*
X15191000Y30693339D01*
X15191000Y29856661D01*
X15186535Y29811326D01*
X15175101Y29773633D01*
X15156534Y29738897D01*
X15131548Y29708452D01*
X15101103Y29683466D01*
X15066367Y29664899D01*
X15028674Y29653465D01*
X14983339Y29649000D01*
X13896661Y29649000D01*
X13851326Y29653465D01*
X13813633Y29664899D01*
X13778897Y29683466D01*
X13748452Y29708452D01*
X13723466Y29738897D01*
X13704899Y29773633D01*
X13693465Y29811326D01*
X13689000Y29856661D01*
X13689000Y30693339D01*
X13693465Y30738674D01*
X13704899Y30776367D01*
X13723466Y30811103D01*
X13748452Y30841548D01*
X13778897Y30866534D01*
X13813633Y30885101D01*
X13851326Y30896535D01*
X13896661Y30901000D01*
X14983339Y30901000D01*
X15028674Y30896535D01*
G37*
G36*
X55568228Y31818297D02*
G01*
X55723100Y31754147D01*
X55862481Y31661015D01*
X55981015Y31542481D01*
X56074147Y31403100D01*
X56138297Y31248228D01*
X56171000Y31083816D01*
X56171000Y30916184D01*
X56138297Y30751772D01*
X56074147Y30596900D01*
X55981015Y30457519D01*
X55862481Y30338985D01*
X55723100Y30245853D01*
X55568228Y30181703D01*
X55403816Y30149000D01*
X55236184Y30149000D01*
X55071772Y30181703D01*
X54916900Y30245853D01*
X54777519Y30338985D01*
X54658985Y30457519D01*
X54565853Y30596900D01*
X54501703Y30751772D01*
X54469000Y30916184D01*
X54469000Y31083816D01*
X54501703Y31248228D01*
X54565853Y31403100D01*
X54658985Y31542481D01*
X54777519Y31661015D01*
X54916900Y31754147D01*
X55071772Y31818297D01*
X55236184Y31851000D01*
X55403816Y31851000D01*
X55568228Y31818297D01*
G37*
G36*
X48551000Y30149000D02*
G01*
X46849000Y30149000D01*
X46849000Y31851000D01*
X48551000Y31851000D01*
X48551000Y30149000D01*
G37*
G36*
X53588674Y31646535D02*
G01*
X53626367Y31635101D01*
X53661103Y31616534D01*
X53691548Y31591548D01*
X53716534Y31561103D01*
X53735101Y31526367D01*
X53746535Y31488674D01*
X53751000Y31443339D01*
X53751000Y30606661D01*
X53746535Y30561326D01*
X53735101Y30523633D01*
X53716534Y30488897D01*
X53691548Y30458452D01*
X53661103Y30433466D01*
X53626367Y30414899D01*
X53588674Y30403465D01*
X53543339Y30399000D01*
X52456661Y30399000D01*
X52411326Y30403465D01*
X52373633Y30414899D01*
X52338897Y30433466D01*
X52308452Y30458452D01*
X52283466Y30488897D01*
X52264899Y30523633D01*
X52253465Y30561326D01*
X52249000Y30606661D01*
X52249000Y31443339D01*
X52253465Y31488674D01*
X52264899Y31526367D01*
X52283466Y31561103D01*
X52308452Y31591548D01*
X52338897Y31616534D01*
X52373633Y31635101D01*
X52411326Y31646535D01*
X52456661Y31651000D01*
X53543339Y31651000D01*
X53588674Y31646535D01*
G37*
G36*
X12288674Y32646535D02*
G01*
X12326367Y32635101D01*
X12361103Y32616534D01*
X12391548Y32591548D01*
X12416534Y32561103D01*
X12435101Y32526367D01*
X12446535Y32488674D01*
X12451000Y32443339D01*
X12451000Y31606661D01*
X12446535Y31561326D01*
X12435101Y31523633D01*
X12416534Y31488897D01*
X12391548Y31458452D01*
X12361103Y31433466D01*
X12326367Y31414899D01*
X12288674Y31403465D01*
X12243339Y31399000D01*
X11156661Y31399000D01*
X11111326Y31403465D01*
X11073633Y31414899D01*
X11038897Y31433466D01*
X11008452Y31458452D01*
X10983466Y31488897D01*
X10964899Y31523633D01*
X10953465Y31561326D01*
X10949000Y31606661D01*
X10949000Y32443339D01*
X10953465Y32488674D01*
X10964899Y32526367D01*
X10983466Y32561103D01*
X11008452Y32591548D01*
X11038897Y32616534D01*
X11073633Y32635101D01*
X11111326Y32646535D01*
X11156661Y32651000D01*
X12243339Y32651000D01*
X12288674Y32646535D01*
G37*
G36*
X17108228Y33318297D02*
G01*
X17263100Y33254147D01*
X17402481Y33161015D01*
X17521015Y33042481D01*
X17614147Y32903100D01*
X17678297Y32748228D01*
X17711000Y32583816D01*
X17711000Y32416184D01*
X17678297Y32251772D01*
X17614147Y32096900D01*
X17521015Y31957519D01*
X17402481Y31838985D01*
X17263100Y31745853D01*
X17108228Y31681703D01*
X16943816Y31649000D01*
X16776184Y31649000D01*
X16611772Y31681703D01*
X16456900Y31745853D01*
X16317519Y31838985D01*
X16198985Y31957519D01*
X16105853Y32096900D01*
X16041703Y32251772D01*
X16009000Y32416184D01*
X16009000Y32583816D01*
X16041703Y32748228D01*
X16105853Y32903100D01*
X16198985Y33042481D01*
X16317519Y33161015D01*
X16456900Y33254147D01*
X16611772Y33318297D01*
X16776184Y33351000D01*
X16943816Y33351000D01*
X17108228Y33318297D01*
G37*
G36*
X10091000Y31649000D02*
G01*
X8389000Y31649000D01*
X8389000Y33351000D01*
X10091000Y33351000D01*
X10091000Y31649000D01*
G37*
G36*
X15028674Y32946535D02*
G01*
X15066367Y32935101D01*
X15101103Y32916534D01*
X15131548Y32891548D01*
X15156534Y32861103D01*
X15175101Y32826367D01*
X15186535Y32788674D01*
X15191000Y32743339D01*
X15191000Y31906661D01*
X15186535Y31861326D01*
X15175101Y31823633D01*
X15156534Y31788897D01*
X15131548Y31758452D01*
X15101103Y31733466D01*
X15066367Y31714899D01*
X15028674Y31703465D01*
X14983339Y31699000D01*
X13896661Y31699000D01*
X13851326Y31703465D01*
X13813633Y31714899D01*
X13778897Y31733466D01*
X13748452Y31758452D01*
X13723466Y31788897D01*
X13704899Y31823633D01*
X13693465Y31861326D01*
X13689000Y31906661D01*
X13689000Y32743339D01*
X13693465Y32788674D01*
X13704899Y32826367D01*
X13723466Y32861103D01*
X13748452Y32891548D01*
X13778897Y32916534D01*
X13813633Y32935101D01*
X13851326Y32946535D01*
X13896661Y32951000D01*
X14983339Y32951000D01*
X15028674Y32946535D01*
G37*
G36*
X26851000Y31949000D02*
G01*
X25149000Y31949000D01*
X25149000Y33651000D01*
X26851000Y33651000D01*
X26851000Y31949000D01*
G37*
G36*
X35673512Y33916073D02*
G01*
X35822812Y33886376D01*
X35986784Y33818456D01*
X36134354Y33719853D01*
X36259853Y33594354D01*
X36358456Y33446784D01*
X36426376Y33282812D01*
X36461000Y33108741D01*
X36461000Y32931259D01*
X36426376Y32757188D01*
X36358456Y32593216D01*
X36259853Y32445646D01*
X36134354Y32320147D01*
X35986784Y32221544D01*
X35822812Y32153624D01*
X35673512Y32123927D01*
X35648742Y32119000D01*
X35471258Y32119000D01*
X35446488Y32123927D01*
X35297188Y32153624D01*
X35133216Y32221544D01*
X34985646Y32320147D01*
X34860147Y32445646D01*
X34761544Y32593216D01*
X34693624Y32757188D01*
X34659000Y32931259D01*
X34659000Y33108741D01*
X34693624Y33282812D01*
X34761544Y33446784D01*
X34860147Y33594354D01*
X34985646Y33719853D01*
X35133216Y33818456D01*
X35297188Y33886376D01*
X35446488Y33916073D01*
X35471258Y33921000D01*
X35648742Y33921000D01*
X35673512Y33916073D01*
G37*
G36*
X33921000Y32119000D02*
G01*
X32119000Y32119000D01*
X32119000Y33921000D01*
X33921000Y33921000D01*
X33921000Y32119000D01*
G37*
M02*
