G04 #@! TF.GenerationSoftware,KiCad,Pcbnew,(5.1.5)-3*
G04 #@! TF.CreationDate,2020-02-22T22:04:57-05:00*
G04 #@! TF.ProjectId,Semiparametric-EQ,53656d69-7061-4726-916d-65747269632d,rev?*
G04 #@! TF.SameCoordinates,Original*
G04 #@! TF.FileFunction,Copper,L1,Top*
G04 #@! TF.FilePolarity,Positive*
%FSLAX46Y46*%
G04 Gerber Fmt 4.6, Leading zero omitted, Abs format (unit mm)*
G04 Created by KiCad (PCBNEW (5.1.5)-3) date 2020-02-22 22:04:57*
%MOMM*%
%LPD*%
G04 APERTURE LIST*
%ADD10C,1.600000*%
%ADD11C,0.100000*%
%ADD12R,1.600000X1.600000*%
%ADD13O,1.600000X1.600000*%
%ADD14R,1.700000X1.700000*%
%ADD15O,1.700000X1.700000*%
%ADD16R,1.200000X0.900000*%
%ADD17R,0.900000X1.200000*%
%ADD18C,0.800000*%
%ADD19C,0.750000*%
%ADD20C,1.000000*%
%ADD21C,0.250000*%
G04 APERTURE END LIST*
D10*
X17700000Y14600000D03*
X12700000Y14600000D03*
G04 #@! TA.AperFunction,SMDPad,CuDef*
D11*
G36*
X21974505Y30298796D02*
G01*
X21998773Y30295196D01*
X22022572Y30289235D01*
X22045671Y30280970D01*
X22067850Y30270480D01*
X22088893Y30257868D01*
X22108599Y30243253D01*
X22126777Y30226777D01*
X22143253Y30208599D01*
X22157868Y30188893D01*
X22170480Y30167850D01*
X22180970Y30145671D01*
X22189235Y30122572D01*
X22195196Y30098773D01*
X22198796Y30074505D01*
X22200000Y30050001D01*
X22200000Y29399999D01*
X22198796Y29375495D01*
X22195196Y29351227D01*
X22189235Y29327428D01*
X22180970Y29304329D01*
X22170480Y29282150D01*
X22157868Y29261107D01*
X22143253Y29241401D01*
X22126777Y29223223D01*
X22108599Y29206747D01*
X22088893Y29192132D01*
X22067850Y29179520D01*
X22045671Y29169030D01*
X22022572Y29160765D01*
X21998773Y29154804D01*
X21974505Y29151204D01*
X21950001Y29150000D01*
X21049999Y29150000D01*
X21025495Y29151204D01*
X21001227Y29154804D01*
X20977428Y29160765D01*
X20954329Y29169030D01*
X20932150Y29179520D01*
X20911107Y29192132D01*
X20891401Y29206747D01*
X20873223Y29223223D01*
X20856747Y29241401D01*
X20842132Y29261107D01*
X20829520Y29282150D01*
X20819030Y29304329D01*
X20810765Y29327428D01*
X20804804Y29351227D01*
X20801204Y29375495D01*
X20800000Y29399999D01*
X20800000Y30050001D01*
X20801204Y30074505D01*
X20804804Y30098773D01*
X20810765Y30122572D01*
X20819030Y30145671D01*
X20829520Y30167850D01*
X20842132Y30188893D01*
X20856747Y30208599D01*
X20873223Y30226777D01*
X20891401Y30243253D01*
X20911107Y30257868D01*
X20932150Y30270480D01*
X20954329Y30280970D01*
X20977428Y30289235D01*
X21001227Y30295196D01*
X21025495Y30298796D01*
X21049999Y30300000D01*
X21950001Y30300000D01*
X21974505Y30298796D01*
G37*
G04 #@! TD.AperFunction*
G04 #@! TA.AperFunction,SMDPad,CuDef*
G36*
X21974505Y28248796D02*
G01*
X21998773Y28245196D01*
X22022572Y28239235D01*
X22045671Y28230970D01*
X22067850Y28220480D01*
X22088893Y28207868D01*
X22108599Y28193253D01*
X22126777Y28176777D01*
X22143253Y28158599D01*
X22157868Y28138893D01*
X22170480Y28117850D01*
X22180970Y28095671D01*
X22189235Y28072572D01*
X22195196Y28048773D01*
X22198796Y28024505D01*
X22200000Y28000001D01*
X22200000Y27349999D01*
X22198796Y27325495D01*
X22195196Y27301227D01*
X22189235Y27277428D01*
X22180970Y27254329D01*
X22170480Y27232150D01*
X22157868Y27211107D01*
X22143253Y27191401D01*
X22126777Y27173223D01*
X22108599Y27156747D01*
X22088893Y27142132D01*
X22067850Y27129520D01*
X22045671Y27119030D01*
X22022572Y27110765D01*
X21998773Y27104804D01*
X21974505Y27101204D01*
X21950001Y27100000D01*
X21049999Y27100000D01*
X21025495Y27101204D01*
X21001227Y27104804D01*
X20977428Y27110765D01*
X20954329Y27119030D01*
X20932150Y27129520D01*
X20911107Y27142132D01*
X20891401Y27156747D01*
X20873223Y27173223D01*
X20856747Y27191401D01*
X20842132Y27211107D01*
X20829520Y27232150D01*
X20819030Y27254329D01*
X20810765Y27277428D01*
X20804804Y27301227D01*
X20801204Y27325495D01*
X20800000Y27349999D01*
X20800000Y28000001D01*
X20801204Y28024505D01*
X20804804Y28048773D01*
X20810765Y28072572D01*
X20819030Y28095671D01*
X20829520Y28117850D01*
X20842132Y28138893D01*
X20856747Y28158599D01*
X20873223Y28176777D01*
X20891401Y28193253D01*
X20911107Y28207868D01*
X20932150Y28220480D01*
X20954329Y28230970D01*
X20977428Y28239235D01*
X21001227Y28245196D01*
X21025495Y28248796D01*
X21049999Y28250000D01*
X21950001Y28250000D01*
X21974505Y28248796D01*
G37*
G04 #@! TD.AperFunction*
D12*
X23500000Y20400000D03*
D10*
X23500000Y16900000D03*
G04 #@! TA.AperFunction,SMDPad,CuDef*
D11*
G36*
X19974505Y30298796D02*
G01*
X19998773Y30295196D01*
X20022572Y30289235D01*
X20045671Y30280970D01*
X20067850Y30270480D01*
X20088893Y30257868D01*
X20108599Y30243253D01*
X20126777Y30226777D01*
X20143253Y30208599D01*
X20157868Y30188893D01*
X20170480Y30167850D01*
X20180970Y30145671D01*
X20189235Y30122572D01*
X20195196Y30098773D01*
X20198796Y30074505D01*
X20200000Y30050001D01*
X20200000Y29399999D01*
X20198796Y29375495D01*
X20195196Y29351227D01*
X20189235Y29327428D01*
X20180970Y29304329D01*
X20170480Y29282150D01*
X20157868Y29261107D01*
X20143253Y29241401D01*
X20126777Y29223223D01*
X20108599Y29206747D01*
X20088893Y29192132D01*
X20067850Y29179520D01*
X20045671Y29169030D01*
X20022572Y29160765D01*
X19998773Y29154804D01*
X19974505Y29151204D01*
X19950001Y29150000D01*
X19049999Y29150000D01*
X19025495Y29151204D01*
X19001227Y29154804D01*
X18977428Y29160765D01*
X18954329Y29169030D01*
X18932150Y29179520D01*
X18911107Y29192132D01*
X18891401Y29206747D01*
X18873223Y29223223D01*
X18856747Y29241401D01*
X18842132Y29261107D01*
X18829520Y29282150D01*
X18819030Y29304329D01*
X18810765Y29327428D01*
X18804804Y29351227D01*
X18801204Y29375495D01*
X18800000Y29399999D01*
X18800000Y30050001D01*
X18801204Y30074505D01*
X18804804Y30098773D01*
X18810765Y30122572D01*
X18819030Y30145671D01*
X18829520Y30167850D01*
X18842132Y30188893D01*
X18856747Y30208599D01*
X18873223Y30226777D01*
X18891401Y30243253D01*
X18911107Y30257868D01*
X18932150Y30270480D01*
X18954329Y30280970D01*
X18977428Y30289235D01*
X19001227Y30295196D01*
X19025495Y30298796D01*
X19049999Y30300000D01*
X19950001Y30300000D01*
X19974505Y30298796D01*
G37*
G04 #@! TD.AperFunction*
G04 #@! TA.AperFunction,SMDPad,CuDef*
G36*
X19974505Y28248796D02*
G01*
X19998773Y28245196D01*
X20022572Y28239235D01*
X20045671Y28230970D01*
X20067850Y28220480D01*
X20088893Y28207868D01*
X20108599Y28193253D01*
X20126777Y28176777D01*
X20143253Y28158599D01*
X20157868Y28138893D01*
X20170480Y28117850D01*
X20180970Y28095671D01*
X20189235Y28072572D01*
X20195196Y28048773D01*
X20198796Y28024505D01*
X20200000Y28000001D01*
X20200000Y27349999D01*
X20198796Y27325495D01*
X20195196Y27301227D01*
X20189235Y27277428D01*
X20180970Y27254329D01*
X20170480Y27232150D01*
X20157868Y27211107D01*
X20143253Y27191401D01*
X20126777Y27173223D01*
X20108599Y27156747D01*
X20088893Y27142132D01*
X20067850Y27129520D01*
X20045671Y27119030D01*
X20022572Y27110765D01*
X19998773Y27104804D01*
X19974505Y27101204D01*
X19950001Y27100000D01*
X19049999Y27100000D01*
X19025495Y27101204D01*
X19001227Y27104804D01*
X18977428Y27110765D01*
X18954329Y27119030D01*
X18932150Y27129520D01*
X18911107Y27142132D01*
X18891401Y27156747D01*
X18873223Y27173223D01*
X18856747Y27191401D01*
X18842132Y27211107D01*
X18829520Y27232150D01*
X18819030Y27254329D01*
X18810765Y27277428D01*
X18804804Y27301227D01*
X18801204Y27325495D01*
X18800000Y27349999D01*
X18800000Y28000001D01*
X18801204Y28024505D01*
X18804804Y28048773D01*
X18810765Y28072572D01*
X18819030Y28095671D01*
X18829520Y28117850D01*
X18842132Y28138893D01*
X18856747Y28158599D01*
X18873223Y28176777D01*
X18891401Y28193253D01*
X18911107Y28207868D01*
X18932150Y28220480D01*
X18954329Y28230970D01*
X18977428Y28239235D01*
X19001227Y28245196D01*
X19025495Y28248796D01*
X19049999Y28250000D01*
X19950001Y28250000D01*
X19974505Y28248796D01*
G37*
G04 #@! TD.AperFunction*
D12*
X9240000Y32500000D03*
D13*
X16860000Y24880000D03*
X9240000Y29960000D03*
X16860000Y27420000D03*
X9240000Y27420000D03*
X16860000Y29960000D03*
X9240000Y24880000D03*
X16860000Y32500000D03*
D12*
X26000000Y32800000D03*
D10*
X26000000Y30300000D03*
X7500000Y20700000D03*
D12*
X7500000Y18200000D03*
D14*
X2540000Y22860000D03*
D15*
X2540000Y20320000D03*
X2540000Y17780000D03*
X2540000Y15240000D03*
X2540000Y12700000D03*
D14*
X33020000Y33020000D03*
D15*
X35560000Y33020000D03*
G04 #@! TA.AperFunction,SMDPad,CuDef*
D11*
G36*
X15924505Y20898796D02*
G01*
X15948773Y20895196D01*
X15972572Y20889235D01*
X15995671Y20880970D01*
X16017850Y20870480D01*
X16038893Y20857868D01*
X16058599Y20843253D01*
X16076777Y20826777D01*
X16093253Y20808599D01*
X16107868Y20788893D01*
X16120480Y20767850D01*
X16130970Y20745671D01*
X16139235Y20722572D01*
X16145196Y20698773D01*
X16148796Y20674505D01*
X16150000Y20650001D01*
X16150000Y19749999D01*
X16148796Y19725495D01*
X16145196Y19701227D01*
X16139235Y19677428D01*
X16130970Y19654329D01*
X16120480Y19632150D01*
X16107868Y19611107D01*
X16093253Y19591401D01*
X16076777Y19573223D01*
X16058599Y19556747D01*
X16038893Y19542132D01*
X16017850Y19529520D01*
X15995671Y19519030D01*
X15972572Y19510765D01*
X15948773Y19504804D01*
X15924505Y19501204D01*
X15900001Y19500000D01*
X15249999Y19500000D01*
X15225495Y19501204D01*
X15201227Y19504804D01*
X15177428Y19510765D01*
X15154329Y19519030D01*
X15132150Y19529520D01*
X15111107Y19542132D01*
X15091401Y19556747D01*
X15073223Y19573223D01*
X15056747Y19591401D01*
X15042132Y19611107D01*
X15029520Y19632150D01*
X15019030Y19654329D01*
X15010765Y19677428D01*
X15004804Y19701227D01*
X15001204Y19725495D01*
X15000000Y19749999D01*
X15000000Y20650001D01*
X15001204Y20674505D01*
X15004804Y20698773D01*
X15010765Y20722572D01*
X15019030Y20745671D01*
X15029520Y20767850D01*
X15042132Y20788893D01*
X15056747Y20808599D01*
X15073223Y20826777D01*
X15091401Y20843253D01*
X15111107Y20857868D01*
X15132150Y20870480D01*
X15154329Y20880970D01*
X15177428Y20889235D01*
X15201227Y20895196D01*
X15225495Y20898796D01*
X15249999Y20900000D01*
X15900001Y20900000D01*
X15924505Y20898796D01*
G37*
G04 #@! TD.AperFunction*
G04 #@! TA.AperFunction,SMDPad,CuDef*
G36*
X17974505Y20898796D02*
G01*
X17998773Y20895196D01*
X18022572Y20889235D01*
X18045671Y20880970D01*
X18067850Y20870480D01*
X18088893Y20857868D01*
X18108599Y20843253D01*
X18126777Y20826777D01*
X18143253Y20808599D01*
X18157868Y20788893D01*
X18170480Y20767850D01*
X18180970Y20745671D01*
X18189235Y20722572D01*
X18195196Y20698773D01*
X18198796Y20674505D01*
X18200000Y20650001D01*
X18200000Y19749999D01*
X18198796Y19725495D01*
X18195196Y19701227D01*
X18189235Y19677428D01*
X18180970Y19654329D01*
X18170480Y19632150D01*
X18157868Y19611107D01*
X18143253Y19591401D01*
X18126777Y19573223D01*
X18108599Y19556747D01*
X18088893Y19542132D01*
X18067850Y19529520D01*
X18045671Y19519030D01*
X18022572Y19510765D01*
X17998773Y19504804D01*
X17974505Y19501204D01*
X17950001Y19500000D01*
X17299999Y19500000D01*
X17275495Y19501204D01*
X17251227Y19504804D01*
X17227428Y19510765D01*
X17204329Y19519030D01*
X17182150Y19529520D01*
X17161107Y19542132D01*
X17141401Y19556747D01*
X17123223Y19573223D01*
X17106747Y19591401D01*
X17092132Y19611107D01*
X17079520Y19632150D01*
X17069030Y19654329D01*
X17060765Y19677428D01*
X17054804Y19701227D01*
X17051204Y19725495D01*
X17050000Y19749999D01*
X17050000Y20650001D01*
X17051204Y20674505D01*
X17054804Y20698773D01*
X17060765Y20722572D01*
X17069030Y20745671D01*
X17079520Y20767850D01*
X17092132Y20788893D01*
X17106747Y20808599D01*
X17123223Y20826777D01*
X17141401Y20843253D01*
X17161107Y20857868D01*
X17182150Y20870480D01*
X17204329Y20880970D01*
X17227428Y20889235D01*
X17251227Y20895196D01*
X17275495Y20898796D01*
X17299999Y20900000D01*
X17950001Y20900000D01*
X17974505Y20898796D01*
G37*
G04 #@! TD.AperFunction*
G04 #@! TA.AperFunction,SMDPad,CuDef*
G36*
X38274505Y3298796D02*
G01*
X38298773Y3295196D01*
X38322572Y3289235D01*
X38345671Y3280970D01*
X38367850Y3270480D01*
X38388893Y3257868D01*
X38408599Y3243253D01*
X38426777Y3226777D01*
X38443253Y3208599D01*
X38457868Y3188893D01*
X38470480Y3167850D01*
X38480970Y3145671D01*
X38489235Y3122572D01*
X38495196Y3098773D01*
X38498796Y3074505D01*
X38500000Y3050001D01*
X38500000Y2149999D01*
X38498796Y2125495D01*
X38495196Y2101227D01*
X38489235Y2077428D01*
X38480970Y2054329D01*
X38470480Y2032150D01*
X38457868Y2011107D01*
X38443253Y1991401D01*
X38426777Y1973223D01*
X38408599Y1956747D01*
X38388893Y1942132D01*
X38367850Y1929520D01*
X38345671Y1919030D01*
X38322572Y1910765D01*
X38298773Y1904804D01*
X38274505Y1901204D01*
X38250001Y1900000D01*
X37599999Y1900000D01*
X37575495Y1901204D01*
X37551227Y1904804D01*
X37527428Y1910765D01*
X37504329Y1919030D01*
X37482150Y1929520D01*
X37461107Y1942132D01*
X37441401Y1956747D01*
X37423223Y1973223D01*
X37406747Y1991401D01*
X37392132Y2011107D01*
X37379520Y2032150D01*
X37369030Y2054329D01*
X37360765Y2077428D01*
X37354804Y2101227D01*
X37351204Y2125495D01*
X37350000Y2149999D01*
X37350000Y3050001D01*
X37351204Y3074505D01*
X37354804Y3098773D01*
X37360765Y3122572D01*
X37369030Y3145671D01*
X37379520Y3167850D01*
X37392132Y3188893D01*
X37406747Y3208599D01*
X37423223Y3226777D01*
X37441401Y3243253D01*
X37461107Y3257868D01*
X37482150Y3270480D01*
X37504329Y3280970D01*
X37527428Y3289235D01*
X37551227Y3295196D01*
X37575495Y3298796D01*
X37599999Y3300000D01*
X38250001Y3300000D01*
X38274505Y3298796D01*
G37*
G04 #@! TD.AperFunction*
G04 #@! TA.AperFunction,SMDPad,CuDef*
G36*
X36224505Y3298796D02*
G01*
X36248773Y3295196D01*
X36272572Y3289235D01*
X36295671Y3280970D01*
X36317850Y3270480D01*
X36338893Y3257868D01*
X36358599Y3243253D01*
X36376777Y3226777D01*
X36393253Y3208599D01*
X36407868Y3188893D01*
X36420480Y3167850D01*
X36430970Y3145671D01*
X36439235Y3122572D01*
X36445196Y3098773D01*
X36448796Y3074505D01*
X36450000Y3050001D01*
X36450000Y2149999D01*
X36448796Y2125495D01*
X36445196Y2101227D01*
X36439235Y2077428D01*
X36430970Y2054329D01*
X36420480Y2032150D01*
X36407868Y2011107D01*
X36393253Y1991401D01*
X36376777Y1973223D01*
X36358599Y1956747D01*
X36338893Y1942132D01*
X36317850Y1929520D01*
X36295671Y1919030D01*
X36272572Y1910765D01*
X36248773Y1904804D01*
X36224505Y1901204D01*
X36200001Y1900000D01*
X35549999Y1900000D01*
X35525495Y1901204D01*
X35501227Y1904804D01*
X35477428Y1910765D01*
X35454329Y1919030D01*
X35432150Y1929520D01*
X35411107Y1942132D01*
X35391401Y1956747D01*
X35373223Y1973223D01*
X35356747Y1991401D01*
X35342132Y2011107D01*
X35329520Y2032150D01*
X35319030Y2054329D01*
X35310765Y2077428D01*
X35304804Y2101227D01*
X35301204Y2125495D01*
X35300000Y2149999D01*
X35300000Y3050001D01*
X35301204Y3074505D01*
X35304804Y3098773D01*
X35310765Y3122572D01*
X35319030Y3145671D01*
X35329520Y3167850D01*
X35342132Y3188893D01*
X35356747Y3208599D01*
X35373223Y3226777D01*
X35391401Y3243253D01*
X35411107Y3257868D01*
X35432150Y3270480D01*
X35454329Y3280970D01*
X35477428Y3289235D01*
X35501227Y3295196D01*
X35525495Y3298796D01*
X35549999Y3300000D01*
X36200001Y3300000D01*
X36224505Y3298796D01*
G37*
G04 #@! TD.AperFunction*
G04 #@! TA.AperFunction,SMDPad,CuDef*
G36*
X58474505Y15148796D02*
G01*
X58498773Y15145196D01*
X58522572Y15139235D01*
X58545671Y15130970D01*
X58567850Y15120480D01*
X58588893Y15107868D01*
X58608599Y15093253D01*
X58626777Y15076777D01*
X58643253Y15058599D01*
X58657868Y15038893D01*
X58670480Y15017850D01*
X58680970Y14995671D01*
X58689235Y14972572D01*
X58695196Y14948773D01*
X58698796Y14924505D01*
X58700000Y14900001D01*
X58700000Y14249999D01*
X58698796Y14225495D01*
X58695196Y14201227D01*
X58689235Y14177428D01*
X58680970Y14154329D01*
X58670480Y14132150D01*
X58657868Y14111107D01*
X58643253Y14091401D01*
X58626777Y14073223D01*
X58608599Y14056747D01*
X58588893Y14042132D01*
X58567850Y14029520D01*
X58545671Y14019030D01*
X58522572Y14010765D01*
X58498773Y14004804D01*
X58474505Y14001204D01*
X58450001Y14000000D01*
X57549999Y14000000D01*
X57525495Y14001204D01*
X57501227Y14004804D01*
X57477428Y14010765D01*
X57454329Y14019030D01*
X57432150Y14029520D01*
X57411107Y14042132D01*
X57391401Y14056747D01*
X57373223Y14073223D01*
X57356747Y14091401D01*
X57342132Y14111107D01*
X57329520Y14132150D01*
X57319030Y14154329D01*
X57310765Y14177428D01*
X57304804Y14201227D01*
X57301204Y14225495D01*
X57300000Y14249999D01*
X57300000Y14900001D01*
X57301204Y14924505D01*
X57304804Y14948773D01*
X57310765Y14972572D01*
X57319030Y14995671D01*
X57329520Y15017850D01*
X57342132Y15038893D01*
X57356747Y15058599D01*
X57373223Y15076777D01*
X57391401Y15093253D01*
X57411107Y15107868D01*
X57432150Y15120480D01*
X57454329Y15130970D01*
X57477428Y15139235D01*
X57501227Y15145196D01*
X57525495Y15148796D01*
X57549999Y15150000D01*
X58450001Y15150000D01*
X58474505Y15148796D01*
G37*
G04 #@! TD.AperFunction*
G04 #@! TA.AperFunction,SMDPad,CuDef*
G36*
X58474505Y17198796D02*
G01*
X58498773Y17195196D01*
X58522572Y17189235D01*
X58545671Y17180970D01*
X58567850Y17170480D01*
X58588893Y17157868D01*
X58608599Y17143253D01*
X58626777Y17126777D01*
X58643253Y17108599D01*
X58657868Y17088893D01*
X58670480Y17067850D01*
X58680970Y17045671D01*
X58689235Y17022572D01*
X58695196Y16998773D01*
X58698796Y16974505D01*
X58700000Y16950001D01*
X58700000Y16299999D01*
X58698796Y16275495D01*
X58695196Y16251227D01*
X58689235Y16227428D01*
X58680970Y16204329D01*
X58670480Y16182150D01*
X58657868Y16161107D01*
X58643253Y16141401D01*
X58626777Y16123223D01*
X58608599Y16106747D01*
X58588893Y16092132D01*
X58567850Y16079520D01*
X58545671Y16069030D01*
X58522572Y16060765D01*
X58498773Y16054804D01*
X58474505Y16051204D01*
X58450001Y16050000D01*
X57549999Y16050000D01*
X57525495Y16051204D01*
X57501227Y16054804D01*
X57477428Y16060765D01*
X57454329Y16069030D01*
X57432150Y16079520D01*
X57411107Y16092132D01*
X57391401Y16106747D01*
X57373223Y16123223D01*
X57356747Y16141401D01*
X57342132Y16161107D01*
X57329520Y16182150D01*
X57319030Y16204329D01*
X57310765Y16227428D01*
X57304804Y16251227D01*
X57301204Y16275495D01*
X57300000Y16299999D01*
X57300000Y16950001D01*
X57301204Y16974505D01*
X57304804Y16998773D01*
X57310765Y17022572D01*
X57319030Y17045671D01*
X57329520Y17067850D01*
X57342132Y17088893D01*
X57356747Y17108599D01*
X57373223Y17126777D01*
X57391401Y17143253D01*
X57411107Y17157868D01*
X57432150Y17170480D01*
X57454329Y17180970D01*
X57477428Y17189235D01*
X57501227Y17195196D01*
X57525495Y17198796D01*
X57549999Y17200000D01*
X58450001Y17200000D01*
X58474505Y17198796D01*
G37*
G04 #@! TD.AperFunction*
G04 #@! TA.AperFunction,SMDPad,CuDef*
G36*
X58474505Y19048796D02*
G01*
X58498773Y19045196D01*
X58522572Y19039235D01*
X58545671Y19030970D01*
X58567850Y19020480D01*
X58588893Y19007868D01*
X58608599Y18993253D01*
X58626777Y18976777D01*
X58643253Y18958599D01*
X58657868Y18938893D01*
X58670480Y18917850D01*
X58680970Y18895671D01*
X58689235Y18872572D01*
X58695196Y18848773D01*
X58698796Y18824505D01*
X58700000Y18800001D01*
X58700000Y18149999D01*
X58698796Y18125495D01*
X58695196Y18101227D01*
X58689235Y18077428D01*
X58680970Y18054329D01*
X58670480Y18032150D01*
X58657868Y18011107D01*
X58643253Y17991401D01*
X58626777Y17973223D01*
X58608599Y17956747D01*
X58588893Y17942132D01*
X58567850Y17929520D01*
X58545671Y17919030D01*
X58522572Y17910765D01*
X58498773Y17904804D01*
X58474505Y17901204D01*
X58450001Y17900000D01*
X57549999Y17900000D01*
X57525495Y17901204D01*
X57501227Y17904804D01*
X57477428Y17910765D01*
X57454329Y17919030D01*
X57432150Y17929520D01*
X57411107Y17942132D01*
X57391401Y17956747D01*
X57373223Y17973223D01*
X57356747Y17991401D01*
X57342132Y18011107D01*
X57329520Y18032150D01*
X57319030Y18054329D01*
X57310765Y18077428D01*
X57304804Y18101227D01*
X57301204Y18125495D01*
X57300000Y18149999D01*
X57300000Y18800001D01*
X57301204Y18824505D01*
X57304804Y18848773D01*
X57310765Y18872572D01*
X57319030Y18895671D01*
X57329520Y18917850D01*
X57342132Y18938893D01*
X57356747Y18958599D01*
X57373223Y18976777D01*
X57391401Y18993253D01*
X57411107Y19007868D01*
X57432150Y19020480D01*
X57454329Y19030970D01*
X57477428Y19039235D01*
X57501227Y19045196D01*
X57525495Y19048796D01*
X57549999Y19050000D01*
X58450001Y19050000D01*
X58474505Y19048796D01*
G37*
G04 #@! TD.AperFunction*
G04 #@! TA.AperFunction,SMDPad,CuDef*
G36*
X58474505Y21098796D02*
G01*
X58498773Y21095196D01*
X58522572Y21089235D01*
X58545671Y21080970D01*
X58567850Y21070480D01*
X58588893Y21057868D01*
X58608599Y21043253D01*
X58626777Y21026777D01*
X58643253Y21008599D01*
X58657868Y20988893D01*
X58670480Y20967850D01*
X58680970Y20945671D01*
X58689235Y20922572D01*
X58695196Y20898773D01*
X58698796Y20874505D01*
X58700000Y20850001D01*
X58700000Y20199999D01*
X58698796Y20175495D01*
X58695196Y20151227D01*
X58689235Y20127428D01*
X58680970Y20104329D01*
X58670480Y20082150D01*
X58657868Y20061107D01*
X58643253Y20041401D01*
X58626777Y20023223D01*
X58608599Y20006747D01*
X58588893Y19992132D01*
X58567850Y19979520D01*
X58545671Y19969030D01*
X58522572Y19960765D01*
X58498773Y19954804D01*
X58474505Y19951204D01*
X58450001Y19950000D01*
X57549999Y19950000D01*
X57525495Y19951204D01*
X57501227Y19954804D01*
X57477428Y19960765D01*
X57454329Y19969030D01*
X57432150Y19979520D01*
X57411107Y19992132D01*
X57391401Y20006747D01*
X57373223Y20023223D01*
X57356747Y20041401D01*
X57342132Y20061107D01*
X57329520Y20082150D01*
X57319030Y20104329D01*
X57310765Y20127428D01*
X57304804Y20151227D01*
X57301204Y20175495D01*
X57300000Y20199999D01*
X57300000Y20850001D01*
X57301204Y20874505D01*
X57304804Y20898773D01*
X57310765Y20922572D01*
X57319030Y20945671D01*
X57329520Y20967850D01*
X57342132Y20988893D01*
X57356747Y21008599D01*
X57373223Y21026777D01*
X57391401Y21043253D01*
X57411107Y21057868D01*
X57432150Y21070480D01*
X57454329Y21080970D01*
X57477428Y21089235D01*
X57501227Y21095196D01*
X57525495Y21098796D01*
X57549999Y21100000D01*
X58450001Y21100000D01*
X58474505Y21098796D01*
G37*
G04 #@! TD.AperFunction*
G04 #@! TA.AperFunction,SMDPad,CuDef*
G36*
X56174505Y21098796D02*
G01*
X56198773Y21095196D01*
X56222572Y21089235D01*
X56245671Y21080970D01*
X56267850Y21070480D01*
X56288893Y21057868D01*
X56308599Y21043253D01*
X56326777Y21026777D01*
X56343253Y21008599D01*
X56357868Y20988893D01*
X56370480Y20967850D01*
X56380970Y20945671D01*
X56389235Y20922572D01*
X56395196Y20898773D01*
X56398796Y20874505D01*
X56400000Y20850001D01*
X56400000Y20199999D01*
X56398796Y20175495D01*
X56395196Y20151227D01*
X56389235Y20127428D01*
X56380970Y20104329D01*
X56370480Y20082150D01*
X56357868Y20061107D01*
X56343253Y20041401D01*
X56326777Y20023223D01*
X56308599Y20006747D01*
X56288893Y19992132D01*
X56267850Y19979520D01*
X56245671Y19969030D01*
X56222572Y19960765D01*
X56198773Y19954804D01*
X56174505Y19951204D01*
X56150001Y19950000D01*
X55249999Y19950000D01*
X55225495Y19951204D01*
X55201227Y19954804D01*
X55177428Y19960765D01*
X55154329Y19969030D01*
X55132150Y19979520D01*
X55111107Y19992132D01*
X55091401Y20006747D01*
X55073223Y20023223D01*
X55056747Y20041401D01*
X55042132Y20061107D01*
X55029520Y20082150D01*
X55019030Y20104329D01*
X55010765Y20127428D01*
X55004804Y20151227D01*
X55001204Y20175495D01*
X55000000Y20199999D01*
X55000000Y20850001D01*
X55001204Y20874505D01*
X55004804Y20898773D01*
X55010765Y20922572D01*
X55019030Y20945671D01*
X55029520Y20967850D01*
X55042132Y20988893D01*
X55056747Y21008599D01*
X55073223Y21026777D01*
X55091401Y21043253D01*
X55111107Y21057868D01*
X55132150Y21070480D01*
X55154329Y21080970D01*
X55177428Y21089235D01*
X55201227Y21095196D01*
X55225495Y21098796D01*
X55249999Y21100000D01*
X56150001Y21100000D01*
X56174505Y21098796D01*
G37*
G04 #@! TD.AperFunction*
G04 #@! TA.AperFunction,SMDPad,CuDef*
G36*
X56174505Y19048796D02*
G01*
X56198773Y19045196D01*
X56222572Y19039235D01*
X56245671Y19030970D01*
X56267850Y19020480D01*
X56288893Y19007868D01*
X56308599Y18993253D01*
X56326777Y18976777D01*
X56343253Y18958599D01*
X56357868Y18938893D01*
X56370480Y18917850D01*
X56380970Y18895671D01*
X56389235Y18872572D01*
X56395196Y18848773D01*
X56398796Y18824505D01*
X56400000Y18800001D01*
X56400000Y18149999D01*
X56398796Y18125495D01*
X56395196Y18101227D01*
X56389235Y18077428D01*
X56380970Y18054329D01*
X56370480Y18032150D01*
X56357868Y18011107D01*
X56343253Y17991401D01*
X56326777Y17973223D01*
X56308599Y17956747D01*
X56288893Y17942132D01*
X56267850Y17929520D01*
X56245671Y17919030D01*
X56222572Y17910765D01*
X56198773Y17904804D01*
X56174505Y17901204D01*
X56150001Y17900000D01*
X55249999Y17900000D01*
X55225495Y17901204D01*
X55201227Y17904804D01*
X55177428Y17910765D01*
X55154329Y17919030D01*
X55132150Y17929520D01*
X55111107Y17942132D01*
X55091401Y17956747D01*
X55073223Y17973223D01*
X55056747Y17991401D01*
X55042132Y18011107D01*
X55029520Y18032150D01*
X55019030Y18054329D01*
X55010765Y18077428D01*
X55004804Y18101227D01*
X55001204Y18125495D01*
X55000000Y18149999D01*
X55000000Y18800001D01*
X55001204Y18824505D01*
X55004804Y18848773D01*
X55010765Y18872572D01*
X55019030Y18895671D01*
X55029520Y18917850D01*
X55042132Y18938893D01*
X55056747Y18958599D01*
X55073223Y18976777D01*
X55091401Y18993253D01*
X55111107Y19007868D01*
X55132150Y19020480D01*
X55154329Y19030970D01*
X55177428Y19039235D01*
X55201227Y19045196D01*
X55225495Y19048796D01*
X55249999Y19050000D01*
X56150001Y19050000D01*
X56174505Y19048796D01*
G37*
G04 #@! TD.AperFunction*
G04 #@! TA.AperFunction,SMDPad,CuDef*
G36*
X46574505Y17248796D02*
G01*
X46598773Y17245196D01*
X46622572Y17239235D01*
X46645671Y17230970D01*
X46667850Y17220480D01*
X46688893Y17207868D01*
X46708599Y17193253D01*
X46726777Y17176777D01*
X46743253Y17158599D01*
X46757868Y17138893D01*
X46770480Y17117850D01*
X46780970Y17095671D01*
X46789235Y17072572D01*
X46795196Y17048773D01*
X46798796Y17024505D01*
X46800000Y17000001D01*
X46800000Y16349999D01*
X46798796Y16325495D01*
X46795196Y16301227D01*
X46789235Y16277428D01*
X46780970Y16254329D01*
X46770480Y16232150D01*
X46757868Y16211107D01*
X46743253Y16191401D01*
X46726777Y16173223D01*
X46708599Y16156747D01*
X46688893Y16142132D01*
X46667850Y16129520D01*
X46645671Y16119030D01*
X46622572Y16110765D01*
X46598773Y16104804D01*
X46574505Y16101204D01*
X46550001Y16100000D01*
X45649999Y16100000D01*
X45625495Y16101204D01*
X45601227Y16104804D01*
X45577428Y16110765D01*
X45554329Y16119030D01*
X45532150Y16129520D01*
X45511107Y16142132D01*
X45491401Y16156747D01*
X45473223Y16173223D01*
X45456747Y16191401D01*
X45442132Y16211107D01*
X45429520Y16232150D01*
X45419030Y16254329D01*
X45410765Y16277428D01*
X45404804Y16301227D01*
X45401204Y16325495D01*
X45400000Y16349999D01*
X45400000Y17000001D01*
X45401204Y17024505D01*
X45404804Y17048773D01*
X45410765Y17072572D01*
X45419030Y17095671D01*
X45429520Y17117850D01*
X45442132Y17138893D01*
X45456747Y17158599D01*
X45473223Y17176777D01*
X45491401Y17193253D01*
X45511107Y17207868D01*
X45532150Y17220480D01*
X45554329Y17230970D01*
X45577428Y17239235D01*
X45601227Y17245196D01*
X45625495Y17248796D01*
X45649999Y17250000D01*
X46550001Y17250000D01*
X46574505Y17248796D01*
G37*
G04 #@! TD.AperFunction*
G04 #@! TA.AperFunction,SMDPad,CuDef*
G36*
X46574505Y19298796D02*
G01*
X46598773Y19295196D01*
X46622572Y19289235D01*
X46645671Y19280970D01*
X46667850Y19270480D01*
X46688893Y19257868D01*
X46708599Y19243253D01*
X46726777Y19226777D01*
X46743253Y19208599D01*
X46757868Y19188893D01*
X46770480Y19167850D01*
X46780970Y19145671D01*
X46789235Y19122572D01*
X46795196Y19098773D01*
X46798796Y19074505D01*
X46800000Y19050001D01*
X46800000Y18399999D01*
X46798796Y18375495D01*
X46795196Y18351227D01*
X46789235Y18327428D01*
X46780970Y18304329D01*
X46770480Y18282150D01*
X46757868Y18261107D01*
X46743253Y18241401D01*
X46726777Y18223223D01*
X46708599Y18206747D01*
X46688893Y18192132D01*
X46667850Y18179520D01*
X46645671Y18169030D01*
X46622572Y18160765D01*
X46598773Y18154804D01*
X46574505Y18151204D01*
X46550001Y18150000D01*
X45649999Y18150000D01*
X45625495Y18151204D01*
X45601227Y18154804D01*
X45577428Y18160765D01*
X45554329Y18169030D01*
X45532150Y18179520D01*
X45511107Y18192132D01*
X45491401Y18206747D01*
X45473223Y18223223D01*
X45456747Y18241401D01*
X45442132Y18261107D01*
X45429520Y18282150D01*
X45419030Y18304329D01*
X45410765Y18327428D01*
X45404804Y18351227D01*
X45401204Y18375495D01*
X45400000Y18399999D01*
X45400000Y19050001D01*
X45401204Y19074505D01*
X45404804Y19098773D01*
X45410765Y19122572D01*
X45419030Y19145671D01*
X45429520Y19167850D01*
X45442132Y19188893D01*
X45456747Y19208599D01*
X45473223Y19226777D01*
X45491401Y19243253D01*
X45511107Y19257868D01*
X45532150Y19270480D01*
X45554329Y19280970D01*
X45577428Y19289235D01*
X45601227Y19295196D01*
X45625495Y19298796D01*
X45649999Y19300000D01*
X46550001Y19300000D01*
X46574505Y19298796D01*
G37*
G04 #@! TD.AperFunction*
D15*
X15240000Y7620000D03*
X12700000Y7620000D03*
D14*
X10160000Y7620000D03*
D15*
X10160000Y2540000D03*
X12700000Y2540000D03*
D14*
X15240000Y2540000D03*
X27940000Y2540000D03*
D15*
X30480000Y2540000D03*
X33020000Y2540000D03*
X37540000Y7620000D03*
X35000000Y7620000D03*
X32460000Y7620000D03*
X29920000Y7620000D03*
X27380000Y7620000D03*
D14*
X24840000Y7620000D03*
X60960000Y15240000D03*
D15*
X60960000Y12700000D03*
X60960000Y10160000D03*
D14*
X60960000Y20320000D03*
D15*
X60960000Y22860000D03*
X60960000Y25400000D03*
X53340000Y2540000D03*
X50800000Y2540000D03*
D14*
X48260000Y2540000D03*
X43180000Y7620000D03*
D15*
X45720000Y7620000D03*
X48260000Y7620000D03*
X50800000Y7620000D03*
X53340000Y7620000D03*
X55880000Y7620000D03*
X20320000Y2540000D03*
D14*
X20320000Y5080000D03*
D13*
X55320000Y31000000D03*
X47700000Y23380000D03*
X55320000Y28460000D03*
X47700000Y25920000D03*
X55320000Y25920000D03*
X47700000Y28460000D03*
X55320000Y23380000D03*
D12*
X47700000Y31000000D03*
X35800000Y21400000D03*
D13*
X43420000Y13780000D03*
X35800000Y18860000D03*
X43420000Y16320000D03*
X35800000Y16320000D03*
X43420000Y18860000D03*
X35800000Y13780000D03*
X43420000Y21400000D03*
D16*
X38800000Y29850000D03*
X38800000Y33150000D03*
D17*
X33450000Y28950000D03*
X30150000Y28950000D03*
D16*
X41400000Y33150000D03*
X41400000Y29850000D03*
D18*
X41300000Y23600000D03*
X51600000Y14400000D03*
X29500000Y14300000D03*
X28300000Y23200000D03*
X42100000Y4900000D03*
X36600000Y28900000D03*
X43400000Y29100000D03*
X21800000Y22600000D03*
X42400000Y11500000D03*
X17700000Y19000000D03*
X43900000Y26000000D03*
X21500000Y27675000D03*
X38400000Y24950000D03*
X5400000Y18900000D03*
X11600000Y32100000D03*
X40800000Y10400000D03*
X18900000Y10400000D03*
X36300000Y24700000D03*
X37925000Y2600000D03*
D19*
X16191370Y34300000D02*
X16860000Y33631370D01*
X4860000Y22860000D02*
X7600000Y25600000D01*
X2540000Y22860000D02*
X4860000Y22860000D01*
X7600000Y25600000D02*
X7600000Y33900000D01*
X7600000Y33900000D02*
X8000000Y34300000D01*
X16860000Y33631370D02*
X16860000Y32500000D01*
X8000000Y34300000D02*
X16191370Y34300000D01*
X17160000Y32800000D02*
X16860000Y32500000D01*
X26000000Y32800000D02*
X17160000Y32800000D01*
X27550000Y32800000D02*
X26000000Y32800000D01*
X28300000Y32050000D02*
X27550000Y32800000D01*
X26000000Y34350000D02*
X26000000Y32800000D01*
X26150000Y34500000D02*
X26000000Y34350000D01*
X55320000Y33080000D02*
X53900000Y34500000D01*
X55320000Y31000000D02*
X55320000Y33080000D01*
X53900000Y34500000D02*
X26150000Y34500000D01*
X43420000Y21400000D02*
X38550000Y21400000D01*
X38550000Y21400000D02*
X36650000Y23300000D01*
X28300000Y32050000D02*
X29950000Y32050000D01*
X29950000Y32050000D02*
X31950000Y30050000D01*
X31950000Y30050000D02*
X31950000Y25800000D01*
X34450000Y23300000D02*
X36650000Y23300000D01*
X31950000Y25800000D02*
X34450000Y23300000D01*
X4680000Y20320000D02*
X4820000Y20460000D01*
X2540000Y20320000D02*
X4680000Y20320000D01*
X6400000Y21800000D02*
X6200000Y21800000D01*
X7500000Y20700000D02*
X6400000Y21800000D01*
X4820000Y20460000D02*
X6200000Y21800000D01*
X6200000Y21800000D02*
X9240000Y24880000D01*
X47700000Y23380000D02*
X47700000Y13135000D01*
X46065000Y11500000D02*
X47700000Y13135000D01*
X42400000Y11500000D02*
X46065000Y11500000D01*
X10039999Y24080001D02*
X9240000Y24880000D01*
X14419999Y24080001D02*
X10039999Y24080001D01*
X21800000Y22600000D02*
X15900000Y22600000D01*
X15900000Y22600000D02*
X14419999Y24080001D01*
X17700000Y20125000D02*
X17625000Y20200000D01*
X17700000Y19000000D02*
X17700000Y20125000D01*
X47620000Y26000000D02*
X47700000Y25920000D01*
X43900000Y26000000D02*
X47620000Y26000000D01*
X32460000Y7620000D02*
X32460000Y14560000D01*
X34220000Y16320000D02*
X35800000Y16320000D01*
X32460000Y14560000D02*
X34220000Y16320000D01*
X19265000Y29960000D02*
X19500000Y29725000D01*
X16860000Y29960000D02*
X19265000Y29960000D01*
X19500000Y29725000D02*
X21500000Y29725000D01*
X22575000Y29725000D02*
X21500000Y29725000D01*
X23500000Y20400000D02*
X23500000Y28800000D01*
X23500000Y28800000D02*
X22575000Y29725000D01*
X23500000Y28800000D02*
X24800000Y28800000D01*
X24800000Y28800000D02*
X25200000Y28400000D01*
X25200000Y28400000D02*
X27850000Y28400000D01*
X28400000Y28950000D02*
X30150000Y28950000D01*
X27850000Y28400000D02*
X28400000Y28950000D01*
X19500000Y27675000D02*
X18575000Y27675000D01*
X18320000Y27420000D02*
X16860000Y27420000D01*
X18575000Y27675000D02*
X18320000Y27420000D01*
X21500000Y27675000D02*
X19500000Y27675000D01*
X35815000Y2540000D02*
X35875000Y2600000D01*
X33020000Y2540000D02*
X35815000Y2540000D01*
X33020000Y2540000D02*
X30360000Y5200000D01*
X30360000Y5200000D02*
X24200000Y5200000D01*
X24200000Y5200000D02*
X22800000Y6600000D01*
X22800000Y6600000D02*
X22800000Y9200000D01*
X23500000Y9900000D02*
X23500000Y16900000D01*
X22800000Y9200000D02*
X23500000Y9900000D01*
X25305001Y2540000D02*
X21745001Y6100000D01*
X26800000Y18600000D02*
X29600000Y21400000D01*
X27940000Y2540000D02*
X25305001Y2540000D01*
X29600000Y21400000D02*
X35800000Y21400000D01*
X21745001Y6100000D02*
X21745001Y18145001D01*
X21745001Y18145001D02*
X22200000Y18600000D01*
X22200000Y18600000D02*
X26800000Y18600000D01*
X38400000Y28250000D02*
X38400000Y26650000D01*
X38800000Y28650000D02*
X38400000Y28250000D01*
X38800000Y29850000D02*
X38800000Y28650000D01*
X38400000Y24950000D02*
X38400000Y26650000D01*
X35560000Y33020000D02*
X35560000Y29860000D01*
X34650000Y28950000D02*
X33450000Y28950000D01*
X35560000Y29860000D02*
X34650000Y28950000D01*
X41400000Y33150000D02*
X38800000Y33150000D01*
X35690000Y33150000D02*
X35560000Y33020000D01*
X38800000Y33150000D02*
X35690000Y33150000D01*
X8299990Y600010D02*
X7600000Y1300000D01*
X7600000Y1300000D02*
X7600000Y10300000D01*
X5200000Y12700000D02*
X2540000Y12700000D01*
X7600000Y10300000D02*
X5200000Y12700000D01*
X8299990Y600010D02*
X39640010Y600010D01*
X40300000Y4000000D02*
X41800000Y2500000D01*
X40300000Y9000000D02*
X40300000Y4000000D01*
X38800000Y10500000D02*
X40300000Y9000000D01*
X41800000Y2500000D02*
X41580000Y2540000D01*
X38800000Y16300000D02*
X38800000Y10500000D01*
X43420000Y18860000D02*
X41360000Y18860000D01*
X39640010Y600010D02*
X41800000Y2500000D01*
X41360000Y18860000D02*
X38800000Y16300000D01*
X41580000Y2540000D02*
X48260000Y2540000D01*
X43555000Y18725000D02*
X43420000Y18860000D01*
X46100000Y18725000D02*
X43555000Y18725000D01*
X46100000Y18725000D02*
X46100000Y22600000D01*
X46100000Y22600000D02*
X44100000Y24600000D01*
X44100000Y24600000D02*
X43000000Y24600000D01*
X41400000Y26200000D02*
X41400000Y29850000D01*
X43000000Y24600000D02*
X41400000Y26200000D01*
X5400000Y18900000D02*
X5400000Y16500000D01*
X4140000Y15240000D02*
X2540000Y15240000D01*
X5400000Y16500000D02*
X4140000Y15240000D01*
X15728630Y24880000D02*
X14700000Y25908630D01*
X16860000Y24880000D02*
X15728630Y24880000D01*
X14700000Y25908630D02*
X14700000Y30800000D01*
X13400000Y32100000D02*
X11600000Y32100000D01*
X14700000Y30800000D02*
X13400000Y32100000D01*
X60960000Y10160000D02*
X41140000Y10160000D01*
X41140000Y10160000D02*
X40900000Y10400000D01*
X40900000Y10400000D02*
X40800000Y10400000D01*
X15260000Y7600000D02*
X15240000Y7620000D01*
X18020000Y10400000D02*
X15240000Y7620000D01*
X18020000Y10400000D02*
X18900000Y10400000D01*
X16400000Y17200000D02*
X15575000Y18025000D01*
X15240000Y4140000D02*
X20300000Y9200000D01*
X15575000Y18025000D02*
X15575000Y20200000D01*
X18200000Y17200000D02*
X16400000Y17200000D01*
X15240000Y2540000D02*
X15240000Y4140000D01*
X20300000Y15100000D02*
X18200000Y17200000D01*
X20300000Y9200000D02*
X20300000Y15100000D01*
X36950000Y24700000D02*
X36300000Y24700000D01*
X37950000Y23700000D02*
X36950000Y24700000D01*
X46568630Y28460000D02*
X43428630Y31600000D01*
X43428630Y31600000D02*
X40950000Y31600000D01*
X39100000Y23700000D02*
X37950000Y23700000D01*
X47700000Y28460000D02*
X46568630Y28460000D01*
X40950000Y31600000D02*
X40100000Y30750000D01*
X40100000Y24700000D02*
X39100000Y23700000D01*
X40100000Y30750000D02*
X40100000Y24700000D01*
X37925000Y5025000D02*
X37925000Y2600000D01*
X37925000Y5725000D02*
X37925000Y5025000D01*
X37800000Y16860000D02*
X37800000Y10000000D01*
X35800000Y18860000D02*
X37800000Y16860000D01*
X39300000Y8500000D02*
X39300000Y7100000D01*
X37800000Y10000000D02*
X39300000Y8500000D01*
X39300000Y7100000D02*
X37925000Y5725000D01*
D20*
X59875000Y12700000D02*
X60960000Y12700000D01*
X58000000Y14575000D02*
X59875000Y12700000D01*
X58000000Y18475000D02*
X58000000Y16625000D01*
X58000000Y18475000D02*
X55700000Y18475000D01*
X60755000Y20525000D02*
X60960000Y20320000D01*
X58000000Y20525000D02*
X60755000Y20525000D01*
X55000000Y20525000D02*
X53000000Y22525000D01*
X55700000Y20525000D02*
X55000000Y20525000D01*
X53000000Y22525000D02*
X53000000Y25200000D01*
X53720000Y25920000D02*
X55320000Y25920000D01*
X53000000Y25200000D02*
X53720000Y25920000D01*
D19*
X45745000Y16320000D02*
X46100000Y16675000D01*
X43420000Y16320000D02*
X45745000Y16320000D01*
D21*
G36*
X6848057Y34402431D02*
G01*
X6764487Y34246081D01*
X6713023Y34076430D01*
X6695646Y33900000D01*
X6700001Y33855783D01*
X6700000Y25972793D01*
X4487208Y23760000D01*
X3912615Y23760000D01*
X3907403Y23812918D01*
X3877383Y23911881D01*
X3828633Y24003086D01*
X3763027Y24083027D01*
X3683086Y24148633D01*
X3591881Y24197383D01*
X3492918Y24227403D01*
X3390000Y24237540D01*
X1690000Y24237540D01*
X1587082Y24227403D01*
X1488119Y24197383D01*
X1396914Y24148633D01*
X1316973Y24083027D01*
X1251367Y24003086D01*
X1202617Y23911881D01*
X1172597Y23812918D01*
X1162460Y23710000D01*
X1162460Y22010000D01*
X1172597Y21907082D01*
X1202617Y21808119D01*
X1251367Y21716914D01*
X1316973Y21636973D01*
X1396914Y21571367D01*
X1488119Y21522617D01*
X1587082Y21492597D01*
X1690000Y21482460D01*
X1804810Y21482460D01*
X1663489Y21388032D01*
X1471968Y21196511D01*
X1321491Y20971307D01*
X1217841Y20721073D01*
X1165000Y20455426D01*
X1165000Y20184574D01*
X1217841Y19918927D01*
X1321491Y19668693D01*
X1471968Y19443489D01*
X1663489Y19251968D01*
X1881888Y19106038D01*
X1658078Y18972275D01*
X1442423Y18777311D01*
X1268947Y18544021D01*
X1144317Y18281370D01*
X1100990Y18138525D01*
X1221546Y17909000D01*
X2411000Y17909000D01*
X2411000Y17929000D01*
X2669000Y17929000D01*
X2669000Y17909000D01*
X3858454Y17909000D01*
X3979010Y18138525D01*
X3935683Y18281370D01*
X3811053Y18544021D01*
X3637577Y18777311D01*
X3421922Y18972275D01*
X3198112Y19106038D01*
X3416511Y19251968D01*
X3584543Y19420000D01*
X4634964Y19420000D01*
X4580275Y19338152D01*
X4510547Y19169813D01*
X4475000Y18991105D01*
X4475000Y18808895D01*
X4500000Y18683210D01*
X4500001Y16872794D01*
X3767208Y16140000D01*
X3584543Y16140000D01*
X3416511Y16308032D01*
X3198112Y16453962D01*
X3421922Y16587725D01*
X3637577Y16782689D01*
X3811053Y17015979D01*
X3935683Y17278630D01*
X3979010Y17421475D01*
X3858454Y17651000D01*
X2669000Y17651000D01*
X2669000Y17631000D01*
X2411000Y17631000D01*
X2411000Y17651000D01*
X1221546Y17651000D01*
X1100990Y17421475D01*
X1144317Y17278630D01*
X1268947Y17015979D01*
X1442423Y16782689D01*
X1658078Y16587725D01*
X1881888Y16453962D01*
X1663489Y16308032D01*
X1471968Y16116511D01*
X1321491Y15891307D01*
X1217841Y15641073D01*
X1165000Y15375426D01*
X1165000Y15104574D01*
X1217841Y14838927D01*
X1321491Y14588693D01*
X1471968Y14363489D01*
X1663489Y14171968D01*
X1888693Y14021491D01*
X2013004Y13970000D01*
X1888693Y13918509D01*
X1663489Y13768032D01*
X1471968Y13576511D01*
X1321491Y13351307D01*
X1217841Y13101073D01*
X1165000Y12835426D01*
X1165000Y12564574D01*
X1217841Y12298927D01*
X1321491Y12048693D01*
X1471968Y11823489D01*
X1663489Y11631968D01*
X1888693Y11481491D01*
X2138927Y11377841D01*
X2404574Y11325000D01*
X2675426Y11325000D01*
X2941073Y11377841D01*
X3191307Y11481491D01*
X3416511Y11631968D01*
X3584543Y11800000D01*
X4827208Y11800000D01*
X6700001Y9927207D01*
X6700000Y1344207D01*
X6695646Y1300000D01*
X6708194Y1172597D01*
X6713023Y1123570D01*
X6764486Y953920D01*
X6848057Y797569D01*
X6960525Y660525D01*
X6994865Y632343D01*
X7077208Y550000D01*
X1026899Y550000D01*
X913108Y561157D01*
X829521Y586394D01*
X752432Y627383D01*
X684773Y682564D01*
X629119Y749839D01*
X587593Y826639D01*
X561775Y910044D01*
X550000Y1022073D01*
X550000Y4209294D01*
X1875000Y4209294D01*
X1875000Y3790706D01*
X1956663Y3380160D01*
X2116849Y2993435D01*
X2349405Y2645391D01*
X2645391Y2349405D01*
X2993435Y2116849D01*
X3380160Y1956663D01*
X3790706Y1875000D01*
X4209294Y1875000D01*
X4619840Y1956663D01*
X5006565Y2116849D01*
X5354609Y2349405D01*
X5650595Y2645391D01*
X5883151Y2993435D01*
X6043337Y3380160D01*
X6125000Y3790706D01*
X6125000Y4209294D01*
X6043337Y4619840D01*
X5883151Y5006565D01*
X5650595Y5354609D01*
X5354609Y5650595D01*
X5006565Y5883151D01*
X4619840Y6043337D01*
X4209294Y6125000D01*
X3790706Y6125000D01*
X3380160Y6043337D01*
X2993435Y5883151D01*
X2645391Y5650595D01*
X2349405Y5354609D01*
X2116849Y5006565D01*
X1956663Y4619840D01*
X1875000Y4209294D01*
X550000Y4209294D01*
X550000Y31209294D01*
X1875000Y31209294D01*
X1875000Y30790706D01*
X1956663Y30380160D01*
X2116849Y29993435D01*
X2349405Y29645391D01*
X2645391Y29349405D01*
X2993435Y29116849D01*
X3380160Y28956663D01*
X3790706Y28875000D01*
X4209294Y28875000D01*
X4619840Y28956663D01*
X5006565Y29116849D01*
X5354609Y29349405D01*
X5650595Y29645391D01*
X5883151Y29993435D01*
X6043337Y30380160D01*
X6125000Y30790706D01*
X6125000Y31209294D01*
X6043337Y31619840D01*
X5883151Y32006565D01*
X5650595Y32354609D01*
X5354609Y32650595D01*
X5006565Y32883151D01*
X4619840Y33043337D01*
X4209294Y33125000D01*
X3790706Y33125000D01*
X3380160Y33043337D01*
X2993435Y32883151D01*
X2645391Y32650595D01*
X2349405Y32354609D01*
X2116849Y32006565D01*
X1956663Y31619840D01*
X1875000Y31209294D01*
X550000Y31209294D01*
X550000Y33973100D01*
X561158Y34086892D01*
X586393Y34170478D01*
X627385Y34247571D01*
X682562Y34315224D01*
X749841Y34370883D01*
X826638Y34412407D01*
X910044Y34438225D01*
X1022073Y34450000D01*
X6887096Y34450000D01*
X6848057Y34402431D01*
G37*
X6848057Y34402431D02*
X6764487Y34246081D01*
X6713023Y34076430D01*
X6695646Y33900000D01*
X6700001Y33855783D01*
X6700000Y25972793D01*
X4487208Y23760000D01*
X3912615Y23760000D01*
X3907403Y23812918D01*
X3877383Y23911881D01*
X3828633Y24003086D01*
X3763027Y24083027D01*
X3683086Y24148633D01*
X3591881Y24197383D01*
X3492918Y24227403D01*
X3390000Y24237540D01*
X1690000Y24237540D01*
X1587082Y24227403D01*
X1488119Y24197383D01*
X1396914Y24148633D01*
X1316973Y24083027D01*
X1251367Y24003086D01*
X1202617Y23911881D01*
X1172597Y23812918D01*
X1162460Y23710000D01*
X1162460Y22010000D01*
X1172597Y21907082D01*
X1202617Y21808119D01*
X1251367Y21716914D01*
X1316973Y21636973D01*
X1396914Y21571367D01*
X1488119Y21522617D01*
X1587082Y21492597D01*
X1690000Y21482460D01*
X1804810Y21482460D01*
X1663489Y21388032D01*
X1471968Y21196511D01*
X1321491Y20971307D01*
X1217841Y20721073D01*
X1165000Y20455426D01*
X1165000Y20184574D01*
X1217841Y19918927D01*
X1321491Y19668693D01*
X1471968Y19443489D01*
X1663489Y19251968D01*
X1881888Y19106038D01*
X1658078Y18972275D01*
X1442423Y18777311D01*
X1268947Y18544021D01*
X1144317Y18281370D01*
X1100990Y18138525D01*
X1221546Y17909000D01*
X2411000Y17909000D01*
X2411000Y17929000D01*
X2669000Y17929000D01*
X2669000Y17909000D01*
X3858454Y17909000D01*
X3979010Y18138525D01*
X3935683Y18281370D01*
X3811053Y18544021D01*
X3637577Y18777311D01*
X3421922Y18972275D01*
X3198112Y19106038D01*
X3416511Y19251968D01*
X3584543Y19420000D01*
X4634964Y19420000D01*
X4580275Y19338152D01*
X4510547Y19169813D01*
X4475000Y18991105D01*
X4475000Y18808895D01*
X4500000Y18683210D01*
X4500001Y16872794D01*
X3767208Y16140000D01*
X3584543Y16140000D01*
X3416511Y16308032D01*
X3198112Y16453962D01*
X3421922Y16587725D01*
X3637577Y16782689D01*
X3811053Y17015979D01*
X3935683Y17278630D01*
X3979010Y17421475D01*
X3858454Y17651000D01*
X2669000Y17651000D01*
X2669000Y17631000D01*
X2411000Y17631000D01*
X2411000Y17651000D01*
X1221546Y17651000D01*
X1100990Y17421475D01*
X1144317Y17278630D01*
X1268947Y17015979D01*
X1442423Y16782689D01*
X1658078Y16587725D01*
X1881888Y16453962D01*
X1663489Y16308032D01*
X1471968Y16116511D01*
X1321491Y15891307D01*
X1217841Y15641073D01*
X1165000Y15375426D01*
X1165000Y15104574D01*
X1217841Y14838927D01*
X1321491Y14588693D01*
X1471968Y14363489D01*
X1663489Y14171968D01*
X1888693Y14021491D01*
X2013004Y13970000D01*
X1888693Y13918509D01*
X1663489Y13768032D01*
X1471968Y13576511D01*
X1321491Y13351307D01*
X1217841Y13101073D01*
X1165000Y12835426D01*
X1165000Y12564574D01*
X1217841Y12298927D01*
X1321491Y12048693D01*
X1471968Y11823489D01*
X1663489Y11631968D01*
X1888693Y11481491D01*
X2138927Y11377841D01*
X2404574Y11325000D01*
X2675426Y11325000D01*
X2941073Y11377841D01*
X3191307Y11481491D01*
X3416511Y11631968D01*
X3584543Y11800000D01*
X4827208Y11800000D01*
X6700001Y9927207D01*
X6700000Y1344207D01*
X6695646Y1300000D01*
X6708194Y1172597D01*
X6713023Y1123570D01*
X6764486Y953920D01*
X6848057Y797569D01*
X6960525Y660525D01*
X6994865Y632343D01*
X7077208Y550000D01*
X1026899Y550000D01*
X913108Y561157D01*
X829521Y586394D01*
X752432Y627383D01*
X684773Y682564D01*
X629119Y749839D01*
X587593Y826639D01*
X561775Y910044D01*
X550000Y1022073D01*
X550000Y4209294D01*
X1875000Y4209294D01*
X1875000Y3790706D01*
X1956663Y3380160D01*
X2116849Y2993435D01*
X2349405Y2645391D01*
X2645391Y2349405D01*
X2993435Y2116849D01*
X3380160Y1956663D01*
X3790706Y1875000D01*
X4209294Y1875000D01*
X4619840Y1956663D01*
X5006565Y2116849D01*
X5354609Y2349405D01*
X5650595Y2645391D01*
X5883151Y2993435D01*
X6043337Y3380160D01*
X6125000Y3790706D01*
X6125000Y4209294D01*
X6043337Y4619840D01*
X5883151Y5006565D01*
X5650595Y5354609D01*
X5354609Y5650595D01*
X5006565Y5883151D01*
X4619840Y6043337D01*
X4209294Y6125000D01*
X3790706Y6125000D01*
X3380160Y6043337D01*
X2993435Y5883151D01*
X2645391Y5650595D01*
X2349405Y5354609D01*
X2116849Y5006565D01*
X1956663Y4619840D01*
X1875000Y4209294D01*
X550000Y4209294D01*
X550000Y31209294D01*
X1875000Y31209294D01*
X1875000Y30790706D01*
X1956663Y30380160D01*
X2116849Y29993435D01*
X2349405Y29645391D01*
X2645391Y29349405D01*
X2993435Y29116849D01*
X3380160Y28956663D01*
X3790706Y28875000D01*
X4209294Y28875000D01*
X4619840Y28956663D01*
X5006565Y29116849D01*
X5354609Y29349405D01*
X5650595Y29645391D01*
X5883151Y29993435D01*
X6043337Y30380160D01*
X6125000Y30790706D01*
X6125000Y31209294D01*
X6043337Y31619840D01*
X5883151Y32006565D01*
X5650595Y32354609D01*
X5354609Y32650595D01*
X5006565Y32883151D01*
X4619840Y33043337D01*
X4209294Y33125000D01*
X3790706Y33125000D01*
X3380160Y33043337D01*
X2993435Y32883151D01*
X2645391Y32650595D01*
X2349405Y32354609D01*
X2116849Y32006565D01*
X1956663Y31619840D01*
X1875000Y31209294D01*
X550000Y31209294D01*
X550000Y33973100D01*
X561158Y34086892D01*
X586393Y34170478D01*
X627385Y34247571D01*
X682562Y34315224D01*
X749841Y34370883D01*
X826638Y34412407D01*
X910044Y34438225D01*
X1022073Y34450000D01*
X6887096Y34450000D01*
X6848057Y34402431D01*
G36*
X64086892Y34438842D02*
G01*
X64170478Y34413607D01*
X64247571Y34372615D01*
X64315224Y34317438D01*
X64370883Y34250159D01*
X64412407Y34173362D01*
X64438225Y34089956D01*
X64450001Y33977917D01*
X64450000Y1026899D01*
X64438843Y913108D01*
X64413606Y829521D01*
X64372617Y752432D01*
X64317436Y684773D01*
X64250161Y629119D01*
X64173361Y587593D01*
X64089956Y561775D01*
X63977927Y550000D01*
X40945819Y550000D01*
X42184979Y1640000D01*
X46887385Y1640000D01*
X46892597Y1587082D01*
X46922617Y1488119D01*
X46971367Y1396914D01*
X47036973Y1316973D01*
X47116914Y1251367D01*
X47208119Y1202617D01*
X47307082Y1172597D01*
X47410000Y1162460D01*
X49110000Y1162460D01*
X49212918Y1172597D01*
X49311881Y1202617D01*
X49403086Y1251367D01*
X49483027Y1316973D01*
X49548633Y1396914D01*
X49597383Y1488119D01*
X49627403Y1587082D01*
X49637540Y1690000D01*
X49637540Y1804810D01*
X49731968Y1663489D01*
X49923489Y1471968D01*
X50148693Y1321491D01*
X50398927Y1217841D01*
X50664574Y1165000D01*
X50935426Y1165000D01*
X51201073Y1217841D01*
X51451307Y1321491D01*
X51676511Y1471968D01*
X51868032Y1663489D01*
X52018509Y1888693D01*
X52070000Y2013004D01*
X52121491Y1888693D01*
X52271968Y1663489D01*
X52463489Y1471968D01*
X52688693Y1321491D01*
X52938927Y1217841D01*
X53204574Y1165000D01*
X53475426Y1165000D01*
X53741073Y1217841D01*
X53991307Y1321491D01*
X54216511Y1471968D01*
X54408032Y1663489D01*
X54558509Y1888693D01*
X54662159Y2138927D01*
X54715000Y2404574D01*
X54715000Y2675426D01*
X54662159Y2941073D01*
X54558509Y3191307D01*
X54408032Y3416511D01*
X54216511Y3608032D01*
X53991307Y3758509D01*
X53741073Y3862159D01*
X53475426Y3915000D01*
X53204574Y3915000D01*
X52938927Y3862159D01*
X52688693Y3758509D01*
X52463489Y3608032D01*
X52271968Y3416511D01*
X52121491Y3191307D01*
X52070000Y3066996D01*
X52018509Y3191307D01*
X51868032Y3416511D01*
X51676511Y3608032D01*
X51451307Y3758509D01*
X51201073Y3862159D01*
X50935426Y3915000D01*
X50664574Y3915000D01*
X50398927Y3862159D01*
X50148693Y3758509D01*
X49923489Y3608032D01*
X49731968Y3416511D01*
X49637540Y3275190D01*
X49637540Y3390000D01*
X49627403Y3492918D01*
X49597383Y3591881D01*
X49548633Y3683086D01*
X49483027Y3763027D01*
X49403086Y3828633D01*
X49311881Y3877383D01*
X49212918Y3907403D01*
X49110000Y3917540D01*
X47410000Y3917540D01*
X47307082Y3907403D01*
X47208119Y3877383D01*
X47116914Y3828633D01*
X47036973Y3763027D01*
X46971367Y3683086D01*
X46922617Y3591881D01*
X46892597Y3492918D01*
X46887385Y3440000D01*
X42132792Y3440000D01*
X41363498Y4209294D01*
X58875000Y4209294D01*
X58875000Y3790706D01*
X58956663Y3380160D01*
X59116849Y2993435D01*
X59349405Y2645391D01*
X59645391Y2349405D01*
X59993435Y2116849D01*
X60380160Y1956663D01*
X60790706Y1875000D01*
X61209294Y1875000D01*
X61619840Y1956663D01*
X62006565Y2116849D01*
X62354609Y2349405D01*
X62650595Y2645391D01*
X62883151Y2993435D01*
X63043337Y3380160D01*
X63125000Y3790706D01*
X63125000Y4209294D01*
X63043337Y4619840D01*
X62883151Y5006565D01*
X62650595Y5354609D01*
X62354609Y5650595D01*
X62006565Y5883151D01*
X61619840Y6043337D01*
X61209294Y6125000D01*
X60790706Y6125000D01*
X60380160Y6043337D01*
X59993435Y5883151D01*
X59645391Y5650595D01*
X59349405Y5354609D01*
X59116849Y5006565D01*
X58956663Y4619840D01*
X58875000Y4209294D01*
X41363498Y4209294D01*
X41200000Y4372792D01*
X41200000Y8470000D01*
X41802460Y8470000D01*
X41802460Y6770000D01*
X41812597Y6667082D01*
X41842617Y6568119D01*
X41891367Y6476914D01*
X41956973Y6396973D01*
X42036914Y6331367D01*
X42128119Y6282617D01*
X42227082Y6252597D01*
X42330000Y6242460D01*
X44030000Y6242460D01*
X44132918Y6252597D01*
X44231881Y6282617D01*
X44323086Y6331367D01*
X44403027Y6396973D01*
X44468633Y6476914D01*
X44517383Y6568119D01*
X44547403Y6667082D01*
X44557540Y6770000D01*
X44557540Y6884810D01*
X44651968Y6743489D01*
X44843489Y6551968D01*
X45068693Y6401491D01*
X45318927Y6297841D01*
X45584574Y6245000D01*
X45855426Y6245000D01*
X46121073Y6297841D01*
X46371307Y6401491D01*
X46596511Y6551968D01*
X46788032Y6743489D01*
X46938509Y6968693D01*
X46990000Y7093004D01*
X47041491Y6968693D01*
X47191968Y6743489D01*
X47383489Y6551968D01*
X47608693Y6401491D01*
X47858927Y6297841D01*
X48124574Y6245000D01*
X48395426Y6245000D01*
X48661073Y6297841D01*
X48911307Y6401491D01*
X49136511Y6551968D01*
X49328032Y6743489D01*
X49478509Y6968693D01*
X49530000Y7093004D01*
X49581491Y6968693D01*
X49731968Y6743489D01*
X49923489Y6551968D01*
X50148693Y6401491D01*
X50398927Y6297841D01*
X50664574Y6245000D01*
X50935426Y6245000D01*
X51201073Y6297841D01*
X51451307Y6401491D01*
X51676511Y6551968D01*
X51868032Y6743489D01*
X52018509Y6968693D01*
X52070000Y7093004D01*
X52121491Y6968693D01*
X52271968Y6743489D01*
X52463489Y6551968D01*
X52688693Y6401491D01*
X52938927Y6297841D01*
X53204574Y6245000D01*
X53475426Y6245000D01*
X53741073Y6297841D01*
X53991307Y6401491D01*
X54216511Y6551968D01*
X54408032Y6743489D01*
X54558509Y6968693D01*
X54610000Y7093004D01*
X54661491Y6968693D01*
X54811968Y6743489D01*
X55003489Y6551968D01*
X55228693Y6401491D01*
X55478927Y6297841D01*
X55744574Y6245000D01*
X56015426Y6245000D01*
X56281073Y6297841D01*
X56531307Y6401491D01*
X56756511Y6551968D01*
X56948032Y6743489D01*
X57098509Y6968693D01*
X57202159Y7218927D01*
X57255000Y7484574D01*
X57255000Y7755426D01*
X57202159Y8021073D01*
X57098509Y8271307D01*
X56948032Y8496511D01*
X56756511Y8688032D01*
X56531307Y8838509D01*
X56281073Y8942159D01*
X56015426Y8995000D01*
X55744574Y8995000D01*
X55478927Y8942159D01*
X55228693Y8838509D01*
X55003489Y8688032D01*
X54811968Y8496511D01*
X54661491Y8271307D01*
X54610000Y8146996D01*
X54558509Y8271307D01*
X54408032Y8496511D01*
X54216511Y8688032D01*
X53991307Y8838509D01*
X53741073Y8942159D01*
X53475426Y8995000D01*
X53204574Y8995000D01*
X52938927Y8942159D01*
X52688693Y8838509D01*
X52463489Y8688032D01*
X52271968Y8496511D01*
X52121491Y8271307D01*
X52070000Y8146996D01*
X52018509Y8271307D01*
X51868032Y8496511D01*
X51676511Y8688032D01*
X51451307Y8838509D01*
X51201073Y8942159D01*
X50935426Y8995000D01*
X50664574Y8995000D01*
X50398927Y8942159D01*
X50148693Y8838509D01*
X49923489Y8688032D01*
X49731968Y8496511D01*
X49581491Y8271307D01*
X49530000Y8146996D01*
X49478509Y8271307D01*
X49328032Y8496511D01*
X49136511Y8688032D01*
X48911307Y8838509D01*
X48661073Y8942159D01*
X48395426Y8995000D01*
X48124574Y8995000D01*
X47858927Y8942159D01*
X47608693Y8838509D01*
X47383489Y8688032D01*
X47191968Y8496511D01*
X47041491Y8271307D01*
X46990000Y8146996D01*
X46938509Y8271307D01*
X46788032Y8496511D01*
X46596511Y8688032D01*
X46371307Y8838509D01*
X46121073Y8942159D01*
X45855426Y8995000D01*
X45584574Y8995000D01*
X45318927Y8942159D01*
X45068693Y8838509D01*
X44843489Y8688032D01*
X44651968Y8496511D01*
X44557540Y8355190D01*
X44557540Y8470000D01*
X44547403Y8572918D01*
X44517383Y8671881D01*
X44468633Y8763086D01*
X44403027Y8843027D01*
X44323086Y8908633D01*
X44231881Y8957383D01*
X44132918Y8987403D01*
X44030000Y8997540D01*
X42330000Y8997540D01*
X42227082Y8987403D01*
X42128119Y8957383D01*
X42036914Y8908633D01*
X41956973Y8843027D01*
X41891367Y8763086D01*
X41842617Y8671881D01*
X41812597Y8572918D01*
X41802460Y8470000D01*
X41200000Y8470000D01*
X41200000Y8955804D01*
X41204353Y9000001D01*
X41200000Y9044198D01*
X41200000Y9044207D01*
X41186977Y9176431D01*
X41162282Y9257841D01*
X41184203Y9260000D01*
X59915457Y9260000D01*
X60083489Y9091968D01*
X60308693Y8941491D01*
X60558927Y8837841D01*
X60824574Y8785000D01*
X61095426Y8785000D01*
X61361073Y8837841D01*
X61611307Y8941491D01*
X61836511Y9091968D01*
X62028032Y9283489D01*
X62178509Y9508693D01*
X62282159Y9758927D01*
X62335000Y10024574D01*
X62335000Y10295426D01*
X62282159Y10561073D01*
X62178509Y10811307D01*
X62028032Y11036511D01*
X61836511Y11228032D01*
X61611307Y11378509D01*
X61486996Y11430000D01*
X61611307Y11481491D01*
X61836511Y11631968D01*
X62028032Y11823489D01*
X62178509Y12048693D01*
X62282159Y12298927D01*
X62335000Y12564574D01*
X62335000Y12835426D01*
X62282159Y13101073D01*
X62178509Y13351307D01*
X62028032Y13576511D01*
X61836511Y13768032D01*
X61695190Y13862460D01*
X61810000Y13862460D01*
X61912918Y13872597D01*
X62011881Y13902617D01*
X62103086Y13951367D01*
X62183027Y14016973D01*
X62248633Y14096914D01*
X62297383Y14188119D01*
X62327403Y14287082D01*
X62337540Y14390000D01*
X62337540Y16090000D01*
X62327403Y16192918D01*
X62297383Y16291881D01*
X62248633Y16383086D01*
X62183027Y16463027D01*
X62103086Y16528633D01*
X62011881Y16577383D01*
X61912918Y16607403D01*
X61810000Y16617540D01*
X60110000Y16617540D01*
X60007082Y16607403D01*
X59908119Y16577383D01*
X59816914Y16528633D01*
X59736973Y16463027D01*
X59671367Y16383086D01*
X59622617Y16291881D01*
X59592597Y16192918D01*
X59582460Y16090000D01*
X59582460Y14442108D01*
X59227540Y14797028D01*
X59227540Y14900001D01*
X59212600Y15051691D01*
X59168353Y15197552D01*
X59096501Y15331979D01*
X58999804Y15449804D01*
X58881979Y15546501D01*
X58781888Y15600000D01*
X58881979Y15653499D01*
X58999804Y15750196D01*
X59096501Y15868021D01*
X59168353Y16002448D01*
X59212600Y16148309D01*
X59227540Y16299999D01*
X59227540Y16950001D01*
X59212600Y17101691D01*
X59168353Y17247552D01*
X59096501Y17381979D01*
X59025000Y17469103D01*
X59025000Y17630897D01*
X59096501Y17718021D01*
X59168353Y17852448D01*
X59212600Y17998309D01*
X59227540Y18149999D01*
X59227540Y18800001D01*
X59212600Y18951691D01*
X59168353Y19097552D01*
X59096501Y19231979D01*
X58999804Y19349804D01*
X58881979Y19446501D01*
X58781888Y19500000D01*
X59582460Y19500000D01*
X59582460Y19470000D01*
X59592597Y19367082D01*
X59622617Y19268119D01*
X59671367Y19176914D01*
X59736973Y19096973D01*
X59816914Y19031367D01*
X59908119Y18982617D01*
X60007082Y18952597D01*
X60110000Y18942460D01*
X61810000Y18942460D01*
X61912918Y18952597D01*
X62011881Y18982617D01*
X62103086Y19031367D01*
X62183027Y19096973D01*
X62248633Y19176914D01*
X62297383Y19268119D01*
X62327403Y19367082D01*
X62337540Y19470000D01*
X62337540Y21170000D01*
X62327403Y21272918D01*
X62297383Y21371881D01*
X62248633Y21463086D01*
X62183027Y21543027D01*
X62103086Y21608633D01*
X62011881Y21657383D01*
X61912918Y21687403D01*
X61810000Y21697540D01*
X61695190Y21697540D01*
X61836511Y21791968D01*
X62028032Y21983489D01*
X62178509Y22208693D01*
X62282159Y22458927D01*
X62335000Y22724574D01*
X62335000Y22995426D01*
X62282159Y23261073D01*
X62178509Y23511307D01*
X62028032Y23736511D01*
X61836511Y23928032D01*
X61611307Y24078509D01*
X61486996Y24130000D01*
X61611307Y24181491D01*
X61836511Y24331968D01*
X62028032Y24523489D01*
X62178509Y24748693D01*
X62282159Y24998927D01*
X62335000Y25264574D01*
X62335000Y25535426D01*
X62282159Y25801073D01*
X62178509Y26051307D01*
X62028032Y26276511D01*
X61836511Y26468032D01*
X61611307Y26618509D01*
X61361073Y26722159D01*
X61095426Y26775000D01*
X60824574Y26775000D01*
X60558927Y26722159D01*
X60308693Y26618509D01*
X60083489Y26468032D01*
X59891968Y26276511D01*
X59741491Y26051307D01*
X59637841Y25801073D01*
X59585000Y25535426D01*
X59585000Y25264574D01*
X59637841Y24998927D01*
X59741491Y24748693D01*
X59891968Y24523489D01*
X60083489Y24331968D01*
X60308693Y24181491D01*
X60433004Y24130000D01*
X60308693Y24078509D01*
X60083489Y23928032D01*
X59891968Y23736511D01*
X59741491Y23511307D01*
X59637841Y23261073D01*
X59585000Y22995426D01*
X59585000Y22724574D01*
X59637841Y22458927D01*
X59741491Y22208693D01*
X59891968Y21983489D01*
X60083489Y21791968D01*
X60224810Y21697540D01*
X60110000Y21697540D01*
X60007082Y21687403D01*
X59908119Y21657383D01*
X59816914Y21608633D01*
X59745470Y21550000D01*
X58781888Y21550000D01*
X58747552Y21568353D01*
X58601691Y21612600D01*
X58450001Y21627540D01*
X57549999Y21627540D01*
X57398309Y21612600D01*
X57252448Y21568353D01*
X57118021Y21496501D01*
X57000196Y21399804D01*
X56903499Y21281979D01*
X56850000Y21181888D01*
X56796501Y21281979D01*
X56699804Y21399804D01*
X56581979Y21496501D01*
X56447552Y21568353D01*
X56301691Y21612600D01*
X56150001Y21627540D01*
X55347029Y21627540D01*
X54822784Y22151784D01*
X54933512Y22105919D01*
X55189499Y22055000D01*
X55450501Y22055000D01*
X55706488Y22105919D01*
X55947623Y22205800D01*
X56164638Y22350805D01*
X56349195Y22535362D01*
X56494200Y22752377D01*
X56594081Y22993512D01*
X56645000Y23249499D01*
X56645000Y23510501D01*
X56594081Y23766488D01*
X56494200Y24007623D01*
X56349195Y24224638D01*
X56164638Y24409195D01*
X55947623Y24554200D01*
X55716340Y24650000D01*
X55947623Y24745800D01*
X56164638Y24890805D01*
X56349195Y25075362D01*
X56494200Y25292377D01*
X56594081Y25533512D01*
X56645000Y25789499D01*
X56645000Y26050501D01*
X56594081Y26306488D01*
X56494200Y26547623D01*
X56349195Y26764638D01*
X56164638Y26949195D01*
X55947623Y27094200D01*
X55716340Y27190000D01*
X55947623Y27285800D01*
X56164638Y27430805D01*
X56349195Y27615362D01*
X56494200Y27832377D01*
X56594081Y28073512D01*
X56645000Y28329499D01*
X56645000Y28590501D01*
X56594081Y28846488D01*
X56494200Y29087623D01*
X56349195Y29304638D01*
X56164638Y29489195D01*
X55947623Y29634200D01*
X55716340Y29730000D01*
X55947623Y29825800D01*
X56164638Y29970805D01*
X56349195Y30155362D01*
X56494200Y30372377D01*
X56594081Y30613512D01*
X56645000Y30869499D01*
X56645000Y31130501D01*
X56629328Y31209294D01*
X58875000Y31209294D01*
X58875000Y30790706D01*
X58956663Y30380160D01*
X59116849Y29993435D01*
X59349405Y29645391D01*
X59645391Y29349405D01*
X59993435Y29116849D01*
X60380160Y28956663D01*
X60790706Y28875000D01*
X61209294Y28875000D01*
X61619840Y28956663D01*
X62006565Y29116849D01*
X62354609Y29349405D01*
X62650595Y29645391D01*
X62883151Y29993435D01*
X63043337Y30380160D01*
X63125000Y30790706D01*
X63125000Y31209294D01*
X63043337Y31619840D01*
X62883151Y32006565D01*
X62650595Y32354609D01*
X62354609Y32650595D01*
X62006565Y32883151D01*
X61619840Y33043337D01*
X61209294Y33125000D01*
X60790706Y33125000D01*
X60380160Y33043337D01*
X59993435Y32883151D01*
X59645391Y32650595D01*
X59349405Y32354609D01*
X59116849Y32006565D01*
X58956663Y31619840D01*
X58875000Y31209294D01*
X56629328Y31209294D01*
X56594081Y31386488D01*
X56494200Y31627623D01*
X56349195Y31844638D01*
X56220000Y31973833D01*
X56220000Y33035797D01*
X56224354Y33080001D01*
X56219922Y33125000D01*
X56206977Y33256431D01*
X56155514Y33426081D01*
X56071943Y33582432D01*
X55959475Y33719475D01*
X55925135Y33747657D01*
X55222792Y34450000D01*
X63973100Y34450000D01*
X64086892Y34438842D01*
G37*
X64086892Y34438842D02*
X64170478Y34413607D01*
X64247571Y34372615D01*
X64315224Y34317438D01*
X64370883Y34250159D01*
X64412407Y34173362D01*
X64438225Y34089956D01*
X64450001Y33977917D01*
X64450000Y1026899D01*
X64438843Y913108D01*
X64413606Y829521D01*
X64372617Y752432D01*
X64317436Y684773D01*
X64250161Y629119D01*
X64173361Y587593D01*
X64089956Y561775D01*
X63977927Y550000D01*
X40945819Y550000D01*
X42184979Y1640000D01*
X46887385Y1640000D01*
X46892597Y1587082D01*
X46922617Y1488119D01*
X46971367Y1396914D01*
X47036973Y1316973D01*
X47116914Y1251367D01*
X47208119Y1202617D01*
X47307082Y1172597D01*
X47410000Y1162460D01*
X49110000Y1162460D01*
X49212918Y1172597D01*
X49311881Y1202617D01*
X49403086Y1251367D01*
X49483027Y1316973D01*
X49548633Y1396914D01*
X49597383Y1488119D01*
X49627403Y1587082D01*
X49637540Y1690000D01*
X49637540Y1804810D01*
X49731968Y1663489D01*
X49923489Y1471968D01*
X50148693Y1321491D01*
X50398927Y1217841D01*
X50664574Y1165000D01*
X50935426Y1165000D01*
X51201073Y1217841D01*
X51451307Y1321491D01*
X51676511Y1471968D01*
X51868032Y1663489D01*
X52018509Y1888693D01*
X52070000Y2013004D01*
X52121491Y1888693D01*
X52271968Y1663489D01*
X52463489Y1471968D01*
X52688693Y1321491D01*
X52938927Y1217841D01*
X53204574Y1165000D01*
X53475426Y1165000D01*
X53741073Y1217841D01*
X53991307Y1321491D01*
X54216511Y1471968D01*
X54408032Y1663489D01*
X54558509Y1888693D01*
X54662159Y2138927D01*
X54715000Y2404574D01*
X54715000Y2675426D01*
X54662159Y2941073D01*
X54558509Y3191307D01*
X54408032Y3416511D01*
X54216511Y3608032D01*
X53991307Y3758509D01*
X53741073Y3862159D01*
X53475426Y3915000D01*
X53204574Y3915000D01*
X52938927Y3862159D01*
X52688693Y3758509D01*
X52463489Y3608032D01*
X52271968Y3416511D01*
X52121491Y3191307D01*
X52070000Y3066996D01*
X52018509Y3191307D01*
X51868032Y3416511D01*
X51676511Y3608032D01*
X51451307Y3758509D01*
X51201073Y3862159D01*
X50935426Y3915000D01*
X50664574Y3915000D01*
X50398927Y3862159D01*
X50148693Y3758509D01*
X49923489Y3608032D01*
X49731968Y3416511D01*
X49637540Y3275190D01*
X49637540Y3390000D01*
X49627403Y3492918D01*
X49597383Y3591881D01*
X49548633Y3683086D01*
X49483027Y3763027D01*
X49403086Y3828633D01*
X49311881Y3877383D01*
X49212918Y3907403D01*
X49110000Y3917540D01*
X47410000Y3917540D01*
X47307082Y3907403D01*
X47208119Y3877383D01*
X47116914Y3828633D01*
X47036973Y3763027D01*
X46971367Y3683086D01*
X46922617Y3591881D01*
X46892597Y3492918D01*
X46887385Y3440000D01*
X42132792Y3440000D01*
X41363498Y4209294D01*
X58875000Y4209294D01*
X58875000Y3790706D01*
X58956663Y3380160D01*
X59116849Y2993435D01*
X59349405Y2645391D01*
X59645391Y2349405D01*
X59993435Y2116849D01*
X60380160Y1956663D01*
X60790706Y1875000D01*
X61209294Y1875000D01*
X61619840Y1956663D01*
X62006565Y2116849D01*
X62354609Y2349405D01*
X62650595Y2645391D01*
X62883151Y2993435D01*
X63043337Y3380160D01*
X63125000Y3790706D01*
X63125000Y4209294D01*
X63043337Y4619840D01*
X62883151Y5006565D01*
X62650595Y5354609D01*
X62354609Y5650595D01*
X62006565Y5883151D01*
X61619840Y6043337D01*
X61209294Y6125000D01*
X60790706Y6125000D01*
X60380160Y6043337D01*
X59993435Y5883151D01*
X59645391Y5650595D01*
X59349405Y5354609D01*
X59116849Y5006565D01*
X58956663Y4619840D01*
X58875000Y4209294D01*
X41363498Y4209294D01*
X41200000Y4372792D01*
X41200000Y8470000D01*
X41802460Y8470000D01*
X41802460Y6770000D01*
X41812597Y6667082D01*
X41842617Y6568119D01*
X41891367Y6476914D01*
X41956973Y6396973D01*
X42036914Y6331367D01*
X42128119Y6282617D01*
X42227082Y6252597D01*
X42330000Y6242460D01*
X44030000Y6242460D01*
X44132918Y6252597D01*
X44231881Y6282617D01*
X44323086Y6331367D01*
X44403027Y6396973D01*
X44468633Y6476914D01*
X44517383Y6568119D01*
X44547403Y6667082D01*
X44557540Y6770000D01*
X44557540Y6884810D01*
X44651968Y6743489D01*
X44843489Y6551968D01*
X45068693Y6401491D01*
X45318927Y6297841D01*
X45584574Y6245000D01*
X45855426Y6245000D01*
X46121073Y6297841D01*
X46371307Y6401491D01*
X46596511Y6551968D01*
X46788032Y6743489D01*
X46938509Y6968693D01*
X46990000Y7093004D01*
X47041491Y6968693D01*
X47191968Y6743489D01*
X47383489Y6551968D01*
X47608693Y6401491D01*
X47858927Y6297841D01*
X48124574Y6245000D01*
X48395426Y6245000D01*
X48661073Y6297841D01*
X48911307Y6401491D01*
X49136511Y6551968D01*
X49328032Y6743489D01*
X49478509Y6968693D01*
X49530000Y7093004D01*
X49581491Y6968693D01*
X49731968Y6743489D01*
X49923489Y6551968D01*
X50148693Y6401491D01*
X50398927Y6297841D01*
X50664574Y6245000D01*
X50935426Y6245000D01*
X51201073Y6297841D01*
X51451307Y6401491D01*
X51676511Y6551968D01*
X51868032Y6743489D01*
X52018509Y6968693D01*
X52070000Y7093004D01*
X52121491Y6968693D01*
X52271968Y6743489D01*
X52463489Y6551968D01*
X52688693Y6401491D01*
X52938927Y6297841D01*
X53204574Y6245000D01*
X53475426Y6245000D01*
X53741073Y6297841D01*
X53991307Y6401491D01*
X54216511Y6551968D01*
X54408032Y6743489D01*
X54558509Y6968693D01*
X54610000Y7093004D01*
X54661491Y6968693D01*
X54811968Y6743489D01*
X55003489Y6551968D01*
X55228693Y6401491D01*
X55478927Y6297841D01*
X55744574Y6245000D01*
X56015426Y6245000D01*
X56281073Y6297841D01*
X56531307Y6401491D01*
X56756511Y6551968D01*
X56948032Y6743489D01*
X57098509Y6968693D01*
X57202159Y7218927D01*
X57255000Y7484574D01*
X57255000Y7755426D01*
X57202159Y8021073D01*
X57098509Y8271307D01*
X56948032Y8496511D01*
X56756511Y8688032D01*
X56531307Y8838509D01*
X56281073Y8942159D01*
X56015426Y8995000D01*
X55744574Y8995000D01*
X55478927Y8942159D01*
X55228693Y8838509D01*
X55003489Y8688032D01*
X54811968Y8496511D01*
X54661491Y8271307D01*
X54610000Y8146996D01*
X54558509Y8271307D01*
X54408032Y8496511D01*
X54216511Y8688032D01*
X53991307Y8838509D01*
X53741073Y8942159D01*
X53475426Y8995000D01*
X53204574Y8995000D01*
X52938927Y8942159D01*
X52688693Y8838509D01*
X52463489Y8688032D01*
X52271968Y8496511D01*
X52121491Y8271307D01*
X52070000Y8146996D01*
X52018509Y8271307D01*
X51868032Y8496511D01*
X51676511Y8688032D01*
X51451307Y8838509D01*
X51201073Y8942159D01*
X50935426Y8995000D01*
X50664574Y8995000D01*
X50398927Y8942159D01*
X50148693Y8838509D01*
X49923489Y8688032D01*
X49731968Y8496511D01*
X49581491Y8271307D01*
X49530000Y8146996D01*
X49478509Y8271307D01*
X49328032Y8496511D01*
X49136511Y8688032D01*
X48911307Y8838509D01*
X48661073Y8942159D01*
X48395426Y8995000D01*
X48124574Y8995000D01*
X47858927Y8942159D01*
X47608693Y8838509D01*
X47383489Y8688032D01*
X47191968Y8496511D01*
X47041491Y8271307D01*
X46990000Y8146996D01*
X46938509Y8271307D01*
X46788032Y8496511D01*
X46596511Y8688032D01*
X46371307Y8838509D01*
X46121073Y8942159D01*
X45855426Y8995000D01*
X45584574Y8995000D01*
X45318927Y8942159D01*
X45068693Y8838509D01*
X44843489Y8688032D01*
X44651968Y8496511D01*
X44557540Y8355190D01*
X44557540Y8470000D01*
X44547403Y8572918D01*
X44517383Y8671881D01*
X44468633Y8763086D01*
X44403027Y8843027D01*
X44323086Y8908633D01*
X44231881Y8957383D01*
X44132918Y8987403D01*
X44030000Y8997540D01*
X42330000Y8997540D01*
X42227082Y8987403D01*
X42128119Y8957383D01*
X42036914Y8908633D01*
X41956973Y8843027D01*
X41891367Y8763086D01*
X41842617Y8671881D01*
X41812597Y8572918D01*
X41802460Y8470000D01*
X41200000Y8470000D01*
X41200000Y8955804D01*
X41204353Y9000001D01*
X41200000Y9044198D01*
X41200000Y9044207D01*
X41186977Y9176431D01*
X41162282Y9257841D01*
X41184203Y9260000D01*
X59915457Y9260000D01*
X60083489Y9091968D01*
X60308693Y8941491D01*
X60558927Y8837841D01*
X60824574Y8785000D01*
X61095426Y8785000D01*
X61361073Y8837841D01*
X61611307Y8941491D01*
X61836511Y9091968D01*
X62028032Y9283489D01*
X62178509Y9508693D01*
X62282159Y9758927D01*
X62335000Y10024574D01*
X62335000Y10295426D01*
X62282159Y10561073D01*
X62178509Y10811307D01*
X62028032Y11036511D01*
X61836511Y11228032D01*
X61611307Y11378509D01*
X61486996Y11430000D01*
X61611307Y11481491D01*
X61836511Y11631968D01*
X62028032Y11823489D01*
X62178509Y12048693D01*
X62282159Y12298927D01*
X62335000Y12564574D01*
X62335000Y12835426D01*
X62282159Y13101073D01*
X62178509Y13351307D01*
X62028032Y13576511D01*
X61836511Y13768032D01*
X61695190Y13862460D01*
X61810000Y13862460D01*
X61912918Y13872597D01*
X62011881Y13902617D01*
X62103086Y13951367D01*
X62183027Y14016973D01*
X62248633Y14096914D01*
X62297383Y14188119D01*
X62327403Y14287082D01*
X62337540Y14390000D01*
X62337540Y16090000D01*
X62327403Y16192918D01*
X62297383Y16291881D01*
X62248633Y16383086D01*
X62183027Y16463027D01*
X62103086Y16528633D01*
X62011881Y16577383D01*
X61912918Y16607403D01*
X61810000Y16617540D01*
X60110000Y16617540D01*
X60007082Y16607403D01*
X59908119Y16577383D01*
X59816914Y16528633D01*
X59736973Y16463027D01*
X59671367Y16383086D01*
X59622617Y16291881D01*
X59592597Y16192918D01*
X59582460Y16090000D01*
X59582460Y14442108D01*
X59227540Y14797028D01*
X59227540Y14900001D01*
X59212600Y15051691D01*
X59168353Y15197552D01*
X59096501Y15331979D01*
X58999804Y15449804D01*
X58881979Y15546501D01*
X58781888Y15600000D01*
X58881979Y15653499D01*
X58999804Y15750196D01*
X59096501Y15868021D01*
X59168353Y16002448D01*
X59212600Y16148309D01*
X59227540Y16299999D01*
X59227540Y16950001D01*
X59212600Y17101691D01*
X59168353Y17247552D01*
X59096501Y17381979D01*
X59025000Y17469103D01*
X59025000Y17630897D01*
X59096501Y17718021D01*
X59168353Y17852448D01*
X59212600Y17998309D01*
X59227540Y18149999D01*
X59227540Y18800001D01*
X59212600Y18951691D01*
X59168353Y19097552D01*
X59096501Y19231979D01*
X58999804Y19349804D01*
X58881979Y19446501D01*
X58781888Y19500000D01*
X59582460Y19500000D01*
X59582460Y19470000D01*
X59592597Y19367082D01*
X59622617Y19268119D01*
X59671367Y19176914D01*
X59736973Y19096973D01*
X59816914Y19031367D01*
X59908119Y18982617D01*
X60007082Y18952597D01*
X60110000Y18942460D01*
X61810000Y18942460D01*
X61912918Y18952597D01*
X62011881Y18982617D01*
X62103086Y19031367D01*
X62183027Y19096973D01*
X62248633Y19176914D01*
X62297383Y19268119D01*
X62327403Y19367082D01*
X62337540Y19470000D01*
X62337540Y21170000D01*
X62327403Y21272918D01*
X62297383Y21371881D01*
X62248633Y21463086D01*
X62183027Y21543027D01*
X62103086Y21608633D01*
X62011881Y21657383D01*
X61912918Y21687403D01*
X61810000Y21697540D01*
X61695190Y21697540D01*
X61836511Y21791968D01*
X62028032Y21983489D01*
X62178509Y22208693D01*
X62282159Y22458927D01*
X62335000Y22724574D01*
X62335000Y22995426D01*
X62282159Y23261073D01*
X62178509Y23511307D01*
X62028032Y23736511D01*
X61836511Y23928032D01*
X61611307Y24078509D01*
X61486996Y24130000D01*
X61611307Y24181491D01*
X61836511Y24331968D01*
X62028032Y24523489D01*
X62178509Y24748693D01*
X62282159Y24998927D01*
X62335000Y25264574D01*
X62335000Y25535426D01*
X62282159Y25801073D01*
X62178509Y26051307D01*
X62028032Y26276511D01*
X61836511Y26468032D01*
X61611307Y26618509D01*
X61361073Y26722159D01*
X61095426Y26775000D01*
X60824574Y26775000D01*
X60558927Y26722159D01*
X60308693Y26618509D01*
X60083489Y26468032D01*
X59891968Y26276511D01*
X59741491Y26051307D01*
X59637841Y25801073D01*
X59585000Y25535426D01*
X59585000Y25264574D01*
X59637841Y24998927D01*
X59741491Y24748693D01*
X59891968Y24523489D01*
X60083489Y24331968D01*
X60308693Y24181491D01*
X60433004Y24130000D01*
X60308693Y24078509D01*
X60083489Y23928032D01*
X59891968Y23736511D01*
X59741491Y23511307D01*
X59637841Y23261073D01*
X59585000Y22995426D01*
X59585000Y22724574D01*
X59637841Y22458927D01*
X59741491Y22208693D01*
X59891968Y21983489D01*
X60083489Y21791968D01*
X60224810Y21697540D01*
X60110000Y21697540D01*
X60007082Y21687403D01*
X59908119Y21657383D01*
X59816914Y21608633D01*
X59745470Y21550000D01*
X58781888Y21550000D01*
X58747552Y21568353D01*
X58601691Y21612600D01*
X58450001Y21627540D01*
X57549999Y21627540D01*
X57398309Y21612600D01*
X57252448Y21568353D01*
X57118021Y21496501D01*
X57000196Y21399804D01*
X56903499Y21281979D01*
X56850000Y21181888D01*
X56796501Y21281979D01*
X56699804Y21399804D01*
X56581979Y21496501D01*
X56447552Y21568353D01*
X56301691Y21612600D01*
X56150001Y21627540D01*
X55347029Y21627540D01*
X54822784Y22151784D01*
X54933512Y22105919D01*
X55189499Y22055000D01*
X55450501Y22055000D01*
X55706488Y22105919D01*
X55947623Y22205800D01*
X56164638Y22350805D01*
X56349195Y22535362D01*
X56494200Y22752377D01*
X56594081Y22993512D01*
X56645000Y23249499D01*
X56645000Y23510501D01*
X56594081Y23766488D01*
X56494200Y24007623D01*
X56349195Y24224638D01*
X56164638Y24409195D01*
X55947623Y24554200D01*
X55716340Y24650000D01*
X55947623Y24745800D01*
X56164638Y24890805D01*
X56349195Y25075362D01*
X56494200Y25292377D01*
X56594081Y25533512D01*
X56645000Y25789499D01*
X56645000Y26050501D01*
X56594081Y26306488D01*
X56494200Y26547623D01*
X56349195Y26764638D01*
X56164638Y26949195D01*
X55947623Y27094200D01*
X55716340Y27190000D01*
X55947623Y27285800D01*
X56164638Y27430805D01*
X56349195Y27615362D01*
X56494200Y27832377D01*
X56594081Y28073512D01*
X56645000Y28329499D01*
X56645000Y28590501D01*
X56594081Y28846488D01*
X56494200Y29087623D01*
X56349195Y29304638D01*
X56164638Y29489195D01*
X55947623Y29634200D01*
X55716340Y29730000D01*
X55947623Y29825800D01*
X56164638Y29970805D01*
X56349195Y30155362D01*
X56494200Y30372377D01*
X56594081Y30613512D01*
X56645000Y30869499D01*
X56645000Y31130501D01*
X56629328Y31209294D01*
X58875000Y31209294D01*
X58875000Y30790706D01*
X58956663Y30380160D01*
X59116849Y29993435D01*
X59349405Y29645391D01*
X59645391Y29349405D01*
X59993435Y29116849D01*
X60380160Y28956663D01*
X60790706Y28875000D01*
X61209294Y28875000D01*
X61619840Y28956663D01*
X62006565Y29116849D01*
X62354609Y29349405D01*
X62650595Y29645391D01*
X62883151Y29993435D01*
X63043337Y30380160D01*
X63125000Y30790706D01*
X63125000Y31209294D01*
X63043337Y31619840D01*
X62883151Y32006565D01*
X62650595Y32354609D01*
X62354609Y32650595D01*
X62006565Y32883151D01*
X61619840Y33043337D01*
X61209294Y33125000D01*
X60790706Y33125000D01*
X60380160Y33043337D01*
X59993435Y32883151D01*
X59645391Y32650595D01*
X59349405Y32354609D01*
X59116849Y32006565D01*
X58956663Y31619840D01*
X58875000Y31209294D01*
X56629328Y31209294D01*
X56594081Y31386488D01*
X56494200Y31627623D01*
X56349195Y31844638D01*
X56220000Y31973833D01*
X56220000Y33035797D01*
X56224354Y33080001D01*
X56219922Y33125000D01*
X56206977Y33256431D01*
X56155514Y33426081D01*
X56071943Y33582432D01*
X55959475Y33719475D01*
X55925135Y33747657D01*
X55222792Y34450000D01*
X63973100Y34450000D01*
X64086892Y34438842D01*
G36*
X9372342Y23474866D02*
G01*
X9400524Y23440526D01*
X9537567Y23328058D01*
X9693918Y23244487D01*
X9863568Y23193024D01*
X9995792Y23180001D01*
X9995801Y23180001D01*
X10039998Y23175648D01*
X10084195Y23180001D01*
X14047207Y23180001D01*
X15232343Y21994865D01*
X15260525Y21960525D01*
X15397568Y21848057D01*
X15553919Y21764486D01*
X15723569Y21713023D01*
X15855793Y21700000D01*
X15855802Y21700000D01*
X15899999Y21695647D01*
X15944196Y21700000D01*
X21583211Y21700000D01*
X21708895Y21675000D01*
X21891105Y21675000D01*
X22069813Y21710547D01*
X22238152Y21780275D01*
X22389653Y21881505D01*
X22518495Y22010347D01*
X22600000Y22132328D01*
X22600000Y21717690D01*
X22597082Y21717403D01*
X22498119Y21687383D01*
X22406914Y21638633D01*
X22326973Y21573027D01*
X22261367Y21493086D01*
X22212617Y21401881D01*
X22182597Y21302918D01*
X22172460Y21200000D01*
X22172460Y19600000D01*
X22182055Y19502587D01*
X22155793Y19500000D01*
X22105454Y19495042D01*
X22023569Y19486977D01*
X21853918Y19435514D01*
X21775743Y19393728D01*
X21697568Y19351943D01*
X21560525Y19239475D01*
X21532339Y19205130D01*
X21139862Y18812654D01*
X21105527Y18784476D01*
X21077349Y18750141D01*
X21077346Y18750138D01*
X20993058Y18647432D01*
X20909488Y18491082D01*
X20858024Y18321431D01*
X20840647Y18145001D01*
X20845002Y18100784D01*
X20845002Y15827790D01*
X18867657Y17805135D01*
X18839475Y17839475D01*
X18702432Y17951943D01*
X18546081Y18035514D01*
X18376431Y18086977D01*
X18244207Y18100000D01*
X18244206Y18100000D01*
X18200000Y18104354D01*
X18155794Y18100000D01*
X17916789Y18100000D01*
X17969813Y18110547D01*
X18138152Y18180275D01*
X18289653Y18281505D01*
X18418495Y18410347D01*
X18519725Y18561848D01*
X18589453Y18730187D01*
X18625000Y18908895D01*
X18625000Y19091105D01*
X18600000Y19216789D01*
X18600000Y19324567D01*
X18668353Y19452448D01*
X18712600Y19598309D01*
X18727540Y19749999D01*
X18727540Y20650001D01*
X18712600Y20801691D01*
X18668353Y20947552D01*
X18596501Y21081979D01*
X18499804Y21199804D01*
X18381979Y21296501D01*
X18247552Y21368353D01*
X18101691Y21412600D01*
X17950001Y21427540D01*
X17299999Y21427540D01*
X17148309Y21412600D01*
X17002448Y21368353D01*
X16868021Y21296501D01*
X16750196Y21199804D01*
X16653499Y21081979D01*
X16600000Y20981888D01*
X16546501Y21081979D01*
X16449804Y21199804D01*
X16331979Y21296501D01*
X16197552Y21368353D01*
X16051691Y21412600D01*
X15900001Y21427540D01*
X15249999Y21427540D01*
X15098309Y21412600D01*
X14952448Y21368353D01*
X14818021Y21296501D01*
X14700196Y21199804D01*
X14603499Y21081979D01*
X14531647Y20947552D01*
X14487400Y20801691D01*
X14472460Y20650001D01*
X14472460Y19749999D01*
X14487400Y19598309D01*
X14531647Y19452448D01*
X14603499Y19318021D01*
X14675001Y19230897D01*
X14675000Y18069207D01*
X14670646Y18025000D01*
X14675000Y17980794D01*
X14688023Y17848570D01*
X14739486Y17678920D01*
X14823057Y17522569D01*
X14935525Y17385525D01*
X14969865Y17357343D01*
X15732347Y16594860D01*
X15760525Y16560525D01*
X15794860Y16532347D01*
X15794862Y16532345D01*
X15834276Y16499999D01*
X15897568Y16448057D01*
X16053919Y16364486D01*
X16223569Y16313023D01*
X16355793Y16300000D01*
X16355795Y16300000D01*
X16399999Y16295646D01*
X16444203Y16300000D01*
X17827208Y16300000D01*
X18404125Y15723083D01*
X18327623Y15774200D01*
X18086488Y15874081D01*
X17830501Y15925000D01*
X17569499Y15925000D01*
X17313512Y15874081D01*
X17072377Y15774200D01*
X16855362Y15629195D01*
X16670805Y15444638D01*
X16525800Y15227623D01*
X16425919Y14986488D01*
X16375000Y14730501D01*
X16375000Y14469499D01*
X16425919Y14213512D01*
X16525800Y13972377D01*
X16670805Y13755362D01*
X16855362Y13570805D01*
X17072377Y13425800D01*
X17313512Y13325919D01*
X17569499Y13275000D01*
X17830501Y13275000D01*
X18086488Y13325919D01*
X18327623Y13425800D01*
X18544638Y13570805D01*
X18729195Y13755362D01*
X18874200Y13972377D01*
X18974081Y14213512D01*
X19025000Y14469499D01*
X19025000Y14730501D01*
X18974081Y14986488D01*
X18874200Y15227623D01*
X18823083Y15304125D01*
X19400001Y14727207D01*
X19400000Y11178399D01*
X19338152Y11219725D01*
X19169813Y11289453D01*
X18991105Y11325000D01*
X18808895Y11325000D01*
X18683211Y11300000D01*
X18064207Y11300000D01*
X18020000Y11304354D01*
X17843569Y11286977D01*
X17673918Y11235514D01*
X17615622Y11204354D01*
X17517568Y11151943D01*
X17380525Y11039475D01*
X17352343Y11005135D01*
X15342208Y8995000D01*
X15104574Y8995000D01*
X14838927Y8942159D01*
X14588693Y8838509D01*
X14363489Y8688032D01*
X14171968Y8496511D01*
X14021491Y8271307D01*
X13970000Y8146996D01*
X13918509Y8271307D01*
X13768032Y8496511D01*
X13576511Y8688032D01*
X13351307Y8838509D01*
X13101073Y8942159D01*
X12835426Y8995000D01*
X12564574Y8995000D01*
X12298927Y8942159D01*
X12048693Y8838509D01*
X11823489Y8688032D01*
X11631968Y8496511D01*
X11537540Y8355190D01*
X11537540Y8470000D01*
X11527403Y8572918D01*
X11497383Y8671881D01*
X11448633Y8763086D01*
X11383027Y8843027D01*
X11303086Y8908633D01*
X11211881Y8957383D01*
X11112918Y8987403D01*
X11010000Y8997540D01*
X9310000Y8997540D01*
X9207082Y8987403D01*
X9108119Y8957383D01*
X9016914Y8908633D01*
X8936973Y8843027D01*
X8871367Y8763086D01*
X8822617Y8671881D01*
X8792597Y8572918D01*
X8782460Y8470000D01*
X8782460Y6770000D01*
X8792597Y6667082D01*
X8822617Y6568119D01*
X8871367Y6476914D01*
X8936973Y6396973D01*
X9016914Y6331367D01*
X9108119Y6282617D01*
X9207082Y6252597D01*
X9310000Y6242460D01*
X11010000Y6242460D01*
X11112918Y6252597D01*
X11211881Y6282617D01*
X11303086Y6331367D01*
X11383027Y6396973D01*
X11448633Y6476914D01*
X11497383Y6568119D01*
X11527403Y6667082D01*
X11537540Y6770000D01*
X11537540Y6884810D01*
X11631968Y6743489D01*
X11823489Y6551968D01*
X12048693Y6401491D01*
X12298927Y6297841D01*
X12564574Y6245000D01*
X12835426Y6245000D01*
X13101073Y6297841D01*
X13351307Y6401491D01*
X13576511Y6551968D01*
X13768032Y6743489D01*
X13918509Y6968693D01*
X13970000Y7093004D01*
X14021491Y6968693D01*
X14171968Y6743489D01*
X14363489Y6551968D01*
X14588693Y6401491D01*
X14838927Y6297841D01*
X15104574Y6245000D01*
X15375426Y6245000D01*
X15641073Y6297841D01*
X15891307Y6401491D01*
X16116511Y6551968D01*
X16308032Y6743489D01*
X16458509Y6968693D01*
X16562159Y7218927D01*
X16615000Y7484574D01*
X16615000Y7722208D01*
X18392792Y9500000D01*
X18683211Y9500000D01*
X18808895Y9475000D01*
X18991105Y9475000D01*
X19169813Y9510547D01*
X19338152Y9580275D01*
X19400000Y9621601D01*
X19400000Y9572792D01*
X14634861Y4807653D01*
X14600526Y4779475D01*
X14572348Y4745140D01*
X14572345Y4745137D01*
X14488057Y4642431D01*
X14404487Y4486081D01*
X14353023Y4316430D01*
X14335646Y4140000D01*
X14340001Y4095784D01*
X14340001Y3912615D01*
X14287082Y3907403D01*
X14188119Y3877383D01*
X14096914Y3828633D01*
X14016973Y3763027D01*
X13951367Y3683086D01*
X13902617Y3591881D01*
X13872597Y3492918D01*
X13868224Y3448525D01*
X13697311Y3637577D01*
X13464021Y3811053D01*
X13201370Y3935683D01*
X13058525Y3979010D01*
X12829000Y3858454D01*
X12829000Y2669000D01*
X12849000Y2669000D01*
X12849000Y2411000D01*
X12829000Y2411000D01*
X12829000Y2391000D01*
X12571000Y2391000D01*
X12571000Y2411000D01*
X10289000Y2411000D01*
X10289000Y2391000D01*
X10031000Y2391000D01*
X10031000Y2411000D01*
X8840866Y2411000D01*
X8720985Y2181474D01*
X8818580Y1907625D01*
X8967725Y1658078D01*
X9110627Y1500010D01*
X8672782Y1500010D01*
X8500000Y1672792D01*
X8500000Y2898526D01*
X8720985Y2898526D01*
X8840866Y2669000D01*
X10031000Y2669000D01*
X10031000Y3858454D01*
X10289000Y3858454D01*
X10289000Y2669000D01*
X12571000Y2669000D01*
X12571000Y3858454D01*
X12341475Y3979010D01*
X12198630Y3935683D01*
X11935979Y3811053D01*
X11702689Y3637577D01*
X11507725Y3421922D01*
X11430000Y3291874D01*
X11352275Y3421922D01*
X11157311Y3637577D01*
X10924021Y3811053D01*
X10661370Y3935683D01*
X10518525Y3979010D01*
X10289000Y3858454D01*
X10031000Y3858454D01*
X9801475Y3979010D01*
X9658630Y3935683D01*
X9395979Y3811053D01*
X9162689Y3637577D01*
X8967725Y3421922D01*
X8818580Y3172375D01*
X8720985Y2898526D01*
X8500000Y2898526D01*
X8500000Y10255793D01*
X8504354Y10300000D01*
X8486977Y10476431D01*
X8435514Y10646082D01*
X8351943Y10802432D01*
X8304267Y10860525D01*
X8239475Y10939475D01*
X8205135Y10967657D01*
X5867657Y13305135D01*
X5839475Y13339475D01*
X5702432Y13451943D01*
X5546081Y13535514D01*
X5376431Y13586977D01*
X5244207Y13600000D01*
X5244206Y13600000D01*
X5200000Y13604354D01*
X5155794Y13600000D01*
X3584543Y13600000D01*
X3416511Y13768032D01*
X3191307Y13918509D01*
X3066996Y13970000D01*
X3191307Y14021491D01*
X3416511Y14171968D01*
X3584543Y14340000D01*
X4095794Y14340000D01*
X4140000Y14335646D01*
X4184206Y14340000D01*
X4184207Y14340000D01*
X4316431Y14353023D01*
X4486081Y14404486D01*
X4642432Y14488057D01*
X4779475Y14600525D01*
X4807657Y14634865D01*
X4903293Y14730501D01*
X11375000Y14730501D01*
X11375000Y14469499D01*
X11425919Y14213512D01*
X11525800Y13972377D01*
X11670805Y13755362D01*
X11855362Y13570805D01*
X12072377Y13425800D01*
X12313512Y13325919D01*
X12569499Y13275000D01*
X12830501Y13275000D01*
X13086488Y13325919D01*
X13327623Y13425800D01*
X13544638Y13570805D01*
X13729195Y13755362D01*
X13874200Y13972377D01*
X13974081Y14213512D01*
X14025000Y14469499D01*
X14025000Y14730501D01*
X13974081Y14986488D01*
X13874200Y15227623D01*
X13729195Y15444638D01*
X13544638Y15629195D01*
X13327623Y15774200D01*
X13086488Y15874081D01*
X12830501Y15925000D01*
X12569499Y15925000D01*
X12313512Y15874081D01*
X12072377Y15774200D01*
X11855362Y15629195D01*
X11670805Y15444638D01*
X11525800Y15227623D01*
X11425919Y14986488D01*
X11375000Y14730501D01*
X4903293Y14730501D01*
X6005140Y15832347D01*
X6039475Y15860525D01*
X6069171Y15896709D01*
X6116121Y15953919D01*
X6151943Y15997568D01*
X6235514Y16153919D01*
X6286977Y16323569D01*
X6300000Y16455793D01*
X6304354Y16499999D01*
X6300000Y16544206D01*
X6300000Y16909395D01*
X6346622Y16871133D01*
X6456589Y16812354D01*
X6575910Y16776159D01*
X6700000Y16763937D01*
X7212750Y16767000D01*
X7371000Y16925250D01*
X7371000Y18071000D01*
X7629000Y18071000D01*
X7629000Y16925250D01*
X7787250Y16767000D01*
X8300000Y16763937D01*
X8424090Y16776159D01*
X8543411Y16812354D01*
X8653378Y16871133D01*
X8749764Y16950236D01*
X8828867Y17046622D01*
X8887646Y17156589D01*
X8923841Y17275910D01*
X8936063Y17400000D01*
X8933000Y17912750D01*
X8774750Y18071000D01*
X7629000Y18071000D01*
X7371000Y18071000D01*
X7351000Y18071000D01*
X7351000Y18329000D01*
X7371000Y18329000D01*
X7371000Y18349000D01*
X7629000Y18349000D01*
X7629000Y18329000D01*
X8774750Y18329000D01*
X8933000Y18487250D01*
X8936063Y19000000D01*
X8923841Y19124090D01*
X8887646Y19243411D01*
X8828867Y19353378D01*
X8749764Y19449764D01*
X8653378Y19528867D01*
X8543411Y19587646D01*
X8424090Y19623841D01*
X8300000Y19636063D01*
X8292577Y19636019D01*
X8344638Y19670805D01*
X8529195Y19855362D01*
X8674200Y20072377D01*
X8774081Y20313512D01*
X8825000Y20569499D01*
X8825000Y20830501D01*
X8774081Y21086488D01*
X8674200Y21327623D01*
X8529195Y21544638D01*
X8344638Y21729195D01*
X8127623Y21874200D01*
X7886488Y21974081D01*
X7677420Y22015667D01*
X9196762Y23555000D01*
X9292208Y23555000D01*
X9372342Y23474866D01*
G37*
X9372342Y23474866D02*
X9400524Y23440526D01*
X9537567Y23328058D01*
X9693918Y23244487D01*
X9863568Y23193024D01*
X9995792Y23180001D01*
X9995801Y23180001D01*
X10039998Y23175648D01*
X10084195Y23180001D01*
X14047207Y23180001D01*
X15232343Y21994865D01*
X15260525Y21960525D01*
X15397568Y21848057D01*
X15553919Y21764486D01*
X15723569Y21713023D01*
X15855793Y21700000D01*
X15855802Y21700000D01*
X15899999Y21695647D01*
X15944196Y21700000D01*
X21583211Y21700000D01*
X21708895Y21675000D01*
X21891105Y21675000D01*
X22069813Y21710547D01*
X22238152Y21780275D01*
X22389653Y21881505D01*
X22518495Y22010347D01*
X22600000Y22132328D01*
X22600000Y21717690D01*
X22597082Y21717403D01*
X22498119Y21687383D01*
X22406914Y21638633D01*
X22326973Y21573027D01*
X22261367Y21493086D01*
X22212617Y21401881D01*
X22182597Y21302918D01*
X22172460Y21200000D01*
X22172460Y19600000D01*
X22182055Y19502587D01*
X22155793Y19500000D01*
X22105454Y19495042D01*
X22023569Y19486977D01*
X21853918Y19435514D01*
X21775743Y19393728D01*
X21697568Y19351943D01*
X21560525Y19239475D01*
X21532339Y19205130D01*
X21139862Y18812654D01*
X21105527Y18784476D01*
X21077349Y18750141D01*
X21077346Y18750138D01*
X20993058Y18647432D01*
X20909488Y18491082D01*
X20858024Y18321431D01*
X20840647Y18145001D01*
X20845002Y18100784D01*
X20845002Y15827790D01*
X18867657Y17805135D01*
X18839475Y17839475D01*
X18702432Y17951943D01*
X18546081Y18035514D01*
X18376431Y18086977D01*
X18244207Y18100000D01*
X18244206Y18100000D01*
X18200000Y18104354D01*
X18155794Y18100000D01*
X17916789Y18100000D01*
X17969813Y18110547D01*
X18138152Y18180275D01*
X18289653Y18281505D01*
X18418495Y18410347D01*
X18519725Y18561848D01*
X18589453Y18730187D01*
X18625000Y18908895D01*
X18625000Y19091105D01*
X18600000Y19216789D01*
X18600000Y19324567D01*
X18668353Y19452448D01*
X18712600Y19598309D01*
X18727540Y19749999D01*
X18727540Y20650001D01*
X18712600Y20801691D01*
X18668353Y20947552D01*
X18596501Y21081979D01*
X18499804Y21199804D01*
X18381979Y21296501D01*
X18247552Y21368353D01*
X18101691Y21412600D01*
X17950001Y21427540D01*
X17299999Y21427540D01*
X17148309Y21412600D01*
X17002448Y21368353D01*
X16868021Y21296501D01*
X16750196Y21199804D01*
X16653499Y21081979D01*
X16600000Y20981888D01*
X16546501Y21081979D01*
X16449804Y21199804D01*
X16331979Y21296501D01*
X16197552Y21368353D01*
X16051691Y21412600D01*
X15900001Y21427540D01*
X15249999Y21427540D01*
X15098309Y21412600D01*
X14952448Y21368353D01*
X14818021Y21296501D01*
X14700196Y21199804D01*
X14603499Y21081979D01*
X14531647Y20947552D01*
X14487400Y20801691D01*
X14472460Y20650001D01*
X14472460Y19749999D01*
X14487400Y19598309D01*
X14531647Y19452448D01*
X14603499Y19318021D01*
X14675001Y19230897D01*
X14675000Y18069207D01*
X14670646Y18025000D01*
X14675000Y17980794D01*
X14688023Y17848570D01*
X14739486Y17678920D01*
X14823057Y17522569D01*
X14935525Y17385525D01*
X14969865Y17357343D01*
X15732347Y16594860D01*
X15760525Y16560525D01*
X15794860Y16532347D01*
X15794862Y16532345D01*
X15834276Y16499999D01*
X15897568Y16448057D01*
X16053919Y16364486D01*
X16223569Y16313023D01*
X16355793Y16300000D01*
X16355795Y16300000D01*
X16399999Y16295646D01*
X16444203Y16300000D01*
X17827208Y16300000D01*
X18404125Y15723083D01*
X18327623Y15774200D01*
X18086488Y15874081D01*
X17830501Y15925000D01*
X17569499Y15925000D01*
X17313512Y15874081D01*
X17072377Y15774200D01*
X16855362Y15629195D01*
X16670805Y15444638D01*
X16525800Y15227623D01*
X16425919Y14986488D01*
X16375000Y14730501D01*
X16375000Y14469499D01*
X16425919Y14213512D01*
X16525800Y13972377D01*
X16670805Y13755362D01*
X16855362Y13570805D01*
X17072377Y13425800D01*
X17313512Y13325919D01*
X17569499Y13275000D01*
X17830501Y13275000D01*
X18086488Y13325919D01*
X18327623Y13425800D01*
X18544638Y13570805D01*
X18729195Y13755362D01*
X18874200Y13972377D01*
X18974081Y14213512D01*
X19025000Y14469499D01*
X19025000Y14730501D01*
X18974081Y14986488D01*
X18874200Y15227623D01*
X18823083Y15304125D01*
X19400001Y14727207D01*
X19400000Y11178399D01*
X19338152Y11219725D01*
X19169813Y11289453D01*
X18991105Y11325000D01*
X18808895Y11325000D01*
X18683211Y11300000D01*
X18064207Y11300000D01*
X18020000Y11304354D01*
X17843569Y11286977D01*
X17673918Y11235514D01*
X17615622Y11204354D01*
X17517568Y11151943D01*
X17380525Y11039475D01*
X17352343Y11005135D01*
X15342208Y8995000D01*
X15104574Y8995000D01*
X14838927Y8942159D01*
X14588693Y8838509D01*
X14363489Y8688032D01*
X14171968Y8496511D01*
X14021491Y8271307D01*
X13970000Y8146996D01*
X13918509Y8271307D01*
X13768032Y8496511D01*
X13576511Y8688032D01*
X13351307Y8838509D01*
X13101073Y8942159D01*
X12835426Y8995000D01*
X12564574Y8995000D01*
X12298927Y8942159D01*
X12048693Y8838509D01*
X11823489Y8688032D01*
X11631968Y8496511D01*
X11537540Y8355190D01*
X11537540Y8470000D01*
X11527403Y8572918D01*
X11497383Y8671881D01*
X11448633Y8763086D01*
X11383027Y8843027D01*
X11303086Y8908633D01*
X11211881Y8957383D01*
X11112918Y8987403D01*
X11010000Y8997540D01*
X9310000Y8997540D01*
X9207082Y8987403D01*
X9108119Y8957383D01*
X9016914Y8908633D01*
X8936973Y8843027D01*
X8871367Y8763086D01*
X8822617Y8671881D01*
X8792597Y8572918D01*
X8782460Y8470000D01*
X8782460Y6770000D01*
X8792597Y6667082D01*
X8822617Y6568119D01*
X8871367Y6476914D01*
X8936973Y6396973D01*
X9016914Y6331367D01*
X9108119Y6282617D01*
X9207082Y6252597D01*
X9310000Y6242460D01*
X11010000Y6242460D01*
X11112918Y6252597D01*
X11211881Y6282617D01*
X11303086Y6331367D01*
X11383027Y6396973D01*
X11448633Y6476914D01*
X11497383Y6568119D01*
X11527403Y6667082D01*
X11537540Y6770000D01*
X11537540Y6884810D01*
X11631968Y6743489D01*
X11823489Y6551968D01*
X12048693Y6401491D01*
X12298927Y6297841D01*
X12564574Y6245000D01*
X12835426Y6245000D01*
X13101073Y6297841D01*
X13351307Y6401491D01*
X13576511Y6551968D01*
X13768032Y6743489D01*
X13918509Y6968693D01*
X13970000Y7093004D01*
X14021491Y6968693D01*
X14171968Y6743489D01*
X14363489Y6551968D01*
X14588693Y6401491D01*
X14838927Y6297841D01*
X15104574Y6245000D01*
X15375426Y6245000D01*
X15641073Y6297841D01*
X15891307Y6401491D01*
X16116511Y6551968D01*
X16308032Y6743489D01*
X16458509Y6968693D01*
X16562159Y7218927D01*
X16615000Y7484574D01*
X16615000Y7722208D01*
X18392792Y9500000D01*
X18683211Y9500000D01*
X18808895Y9475000D01*
X18991105Y9475000D01*
X19169813Y9510547D01*
X19338152Y9580275D01*
X19400000Y9621601D01*
X19400000Y9572792D01*
X14634861Y4807653D01*
X14600526Y4779475D01*
X14572348Y4745140D01*
X14572345Y4745137D01*
X14488057Y4642431D01*
X14404487Y4486081D01*
X14353023Y4316430D01*
X14335646Y4140000D01*
X14340001Y4095784D01*
X14340001Y3912615D01*
X14287082Y3907403D01*
X14188119Y3877383D01*
X14096914Y3828633D01*
X14016973Y3763027D01*
X13951367Y3683086D01*
X13902617Y3591881D01*
X13872597Y3492918D01*
X13868224Y3448525D01*
X13697311Y3637577D01*
X13464021Y3811053D01*
X13201370Y3935683D01*
X13058525Y3979010D01*
X12829000Y3858454D01*
X12829000Y2669000D01*
X12849000Y2669000D01*
X12849000Y2411000D01*
X12829000Y2411000D01*
X12829000Y2391000D01*
X12571000Y2391000D01*
X12571000Y2411000D01*
X10289000Y2411000D01*
X10289000Y2391000D01*
X10031000Y2391000D01*
X10031000Y2411000D01*
X8840866Y2411000D01*
X8720985Y2181474D01*
X8818580Y1907625D01*
X8967725Y1658078D01*
X9110627Y1500010D01*
X8672782Y1500010D01*
X8500000Y1672792D01*
X8500000Y2898526D01*
X8720985Y2898526D01*
X8840866Y2669000D01*
X10031000Y2669000D01*
X10031000Y3858454D01*
X10289000Y3858454D01*
X10289000Y2669000D01*
X12571000Y2669000D01*
X12571000Y3858454D01*
X12341475Y3979010D01*
X12198630Y3935683D01*
X11935979Y3811053D01*
X11702689Y3637577D01*
X11507725Y3421922D01*
X11430000Y3291874D01*
X11352275Y3421922D01*
X11157311Y3637577D01*
X10924021Y3811053D01*
X10661370Y3935683D01*
X10518525Y3979010D01*
X10289000Y3858454D01*
X10031000Y3858454D01*
X9801475Y3979010D01*
X9658630Y3935683D01*
X9395979Y3811053D01*
X9162689Y3637577D01*
X8967725Y3421922D01*
X8818580Y3172375D01*
X8720985Y2898526D01*
X8500000Y2898526D01*
X8500000Y10255793D01*
X8504354Y10300000D01*
X8486977Y10476431D01*
X8435514Y10646082D01*
X8351943Y10802432D01*
X8304267Y10860525D01*
X8239475Y10939475D01*
X8205135Y10967657D01*
X5867657Y13305135D01*
X5839475Y13339475D01*
X5702432Y13451943D01*
X5546081Y13535514D01*
X5376431Y13586977D01*
X5244207Y13600000D01*
X5244206Y13600000D01*
X5200000Y13604354D01*
X5155794Y13600000D01*
X3584543Y13600000D01*
X3416511Y13768032D01*
X3191307Y13918509D01*
X3066996Y13970000D01*
X3191307Y14021491D01*
X3416511Y14171968D01*
X3584543Y14340000D01*
X4095794Y14340000D01*
X4140000Y14335646D01*
X4184206Y14340000D01*
X4184207Y14340000D01*
X4316431Y14353023D01*
X4486081Y14404486D01*
X4642432Y14488057D01*
X4779475Y14600525D01*
X4807657Y14634865D01*
X4903293Y14730501D01*
X11375000Y14730501D01*
X11375000Y14469499D01*
X11425919Y14213512D01*
X11525800Y13972377D01*
X11670805Y13755362D01*
X11855362Y13570805D01*
X12072377Y13425800D01*
X12313512Y13325919D01*
X12569499Y13275000D01*
X12830501Y13275000D01*
X13086488Y13325919D01*
X13327623Y13425800D01*
X13544638Y13570805D01*
X13729195Y13755362D01*
X13874200Y13972377D01*
X13974081Y14213512D01*
X14025000Y14469499D01*
X14025000Y14730501D01*
X13974081Y14986488D01*
X13874200Y15227623D01*
X13729195Y15444638D01*
X13544638Y15629195D01*
X13327623Y15774200D01*
X13086488Y15874081D01*
X12830501Y15925000D01*
X12569499Y15925000D01*
X12313512Y15874081D01*
X12072377Y15774200D01*
X11855362Y15629195D01*
X11670805Y15444638D01*
X11525800Y15227623D01*
X11425919Y14986488D01*
X11375000Y14730501D01*
X4903293Y14730501D01*
X6005140Y15832347D01*
X6039475Y15860525D01*
X6069171Y15896709D01*
X6116121Y15953919D01*
X6151943Y15997568D01*
X6235514Y16153919D01*
X6286977Y16323569D01*
X6300000Y16455793D01*
X6304354Y16499999D01*
X6300000Y16544206D01*
X6300000Y16909395D01*
X6346622Y16871133D01*
X6456589Y16812354D01*
X6575910Y16776159D01*
X6700000Y16763937D01*
X7212750Y16767000D01*
X7371000Y16925250D01*
X7371000Y18071000D01*
X7629000Y18071000D01*
X7629000Y16925250D01*
X7787250Y16767000D01*
X8300000Y16763937D01*
X8424090Y16776159D01*
X8543411Y16812354D01*
X8653378Y16871133D01*
X8749764Y16950236D01*
X8828867Y17046622D01*
X8887646Y17156589D01*
X8923841Y17275910D01*
X8936063Y17400000D01*
X8933000Y17912750D01*
X8774750Y18071000D01*
X7629000Y18071000D01*
X7371000Y18071000D01*
X7351000Y18071000D01*
X7351000Y18329000D01*
X7371000Y18329000D01*
X7371000Y18349000D01*
X7629000Y18349000D01*
X7629000Y18329000D01*
X8774750Y18329000D01*
X8933000Y18487250D01*
X8936063Y19000000D01*
X8923841Y19124090D01*
X8887646Y19243411D01*
X8828867Y19353378D01*
X8749764Y19449764D01*
X8653378Y19528867D01*
X8543411Y19587646D01*
X8424090Y19623841D01*
X8300000Y19636063D01*
X8292577Y19636019D01*
X8344638Y19670805D01*
X8529195Y19855362D01*
X8674200Y20072377D01*
X8774081Y20313512D01*
X8825000Y20569499D01*
X8825000Y20830501D01*
X8774081Y21086488D01*
X8674200Y21327623D01*
X8529195Y21544638D01*
X8344638Y21729195D01*
X8127623Y21874200D01*
X7886488Y21974081D01*
X7677420Y22015667D01*
X9196762Y23555000D01*
X9292208Y23555000D01*
X9372342Y23474866D01*
G36*
X34482597Y20497082D02*
G01*
X34512617Y20398119D01*
X34561367Y20306914D01*
X34626973Y20226973D01*
X34706914Y20161367D01*
X34798119Y20112617D01*
X34897082Y20082597D01*
X35000000Y20072460D01*
X35264745Y20072460D01*
X35172377Y20034200D01*
X34955362Y19889195D01*
X34770805Y19704638D01*
X34625800Y19487623D01*
X34525919Y19246488D01*
X34475000Y18990501D01*
X34475000Y18729499D01*
X34525919Y18473512D01*
X34625800Y18232377D01*
X34770805Y18015362D01*
X34955362Y17830805D01*
X35172377Y17685800D01*
X35403660Y17590000D01*
X35172377Y17494200D01*
X34955362Y17349195D01*
X34826167Y17220000D01*
X34264207Y17220000D01*
X34220000Y17224354D01*
X34175793Y17220000D01*
X34043569Y17206977D01*
X33873919Y17155514D01*
X33717568Y17071943D01*
X33580525Y16959475D01*
X33552345Y16925137D01*
X31854861Y15227653D01*
X31820526Y15199475D01*
X31792348Y15165140D01*
X31792345Y15165137D01*
X31708057Y15062431D01*
X31624487Y14906081D01*
X31573023Y14736430D01*
X31555646Y14560000D01*
X31560001Y14515783D01*
X31560000Y8664543D01*
X31391968Y8496511D01*
X31241491Y8271307D01*
X31190000Y8146996D01*
X31138509Y8271307D01*
X30988032Y8496511D01*
X30796511Y8688032D01*
X30571307Y8838509D01*
X30321073Y8942159D01*
X30055426Y8995000D01*
X29784574Y8995000D01*
X29518927Y8942159D01*
X29268693Y8838509D01*
X29043489Y8688032D01*
X28851968Y8496511D01*
X28701491Y8271307D01*
X28650000Y8146996D01*
X28598509Y8271307D01*
X28448032Y8496511D01*
X28256511Y8688032D01*
X28031307Y8838509D01*
X27781073Y8942159D01*
X27515426Y8995000D01*
X27244574Y8995000D01*
X26978927Y8942159D01*
X26728693Y8838509D01*
X26503489Y8688032D01*
X26311968Y8496511D01*
X26217540Y8355190D01*
X26217540Y8470000D01*
X26207403Y8572918D01*
X26177383Y8671881D01*
X26128633Y8763086D01*
X26063027Y8843027D01*
X25983086Y8908633D01*
X25891881Y8957383D01*
X25792918Y8987403D01*
X25690000Y8997540D01*
X23990000Y8997540D01*
X23887082Y8987403D01*
X23848488Y8975696D01*
X24105136Y9232344D01*
X24139475Y9260525D01*
X24251943Y9397568D01*
X24335514Y9553919D01*
X24386977Y9723569D01*
X24400000Y9855793D01*
X24400000Y9855802D01*
X24404353Y9899999D01*
X24400000Y9944196D01*
X24400000Y15926167D01*
X24529195Y16055362D01*
X24674200Y16272377D01*
X24774081Y16513512D01*
X24825000Y16769499D01*
X24825000Y17030501D01*
X24774081Y17286488D01*
X24674200Y17527623D01*
X24559021Y17700000D01*
X26755794Y17700000D01*
X26800000Y17695646D01*
X26844206Y17700000D01*
X26844207Y17700000D01*
X26976431Y17713023D01*
X27146081Y17764486D01*
X27302432Y17848057D01*
X27439475Y17960525D01*
X27467657Y17994865D01*
X29972793Y20500000D01*
X34482310Y20500000D01*
X34482597Y20497082D01*
G37*
X34482597Y20497082D02*
X34512617Y20398119D01*
X34561367Y20306914D01*
X34626973Y20226973D01*
X34706914Y20161367D01*
X34798119Y20112617D01*
X34897082Y20082597D01*
X35000000Y20072460D01*
X35264745Y20072460D01*
X35172377Y20034200D01*
X34955362Y19889195D01*
X34770805Y19704638D01*
X34625800Y19487623D01*
X34525919Y19246488D01*
X34475000Y18990501D01*
X34475000Y18729499D01*
X34525919Y18473512D01*
X34625800Y18232377D01*
X34770805Y18015362D01*
X34955362Y17830805D01*
X35172377Y17685800D01*
X35403660Y17590000D01*
X35172377Y17494200D01*
X34955362Y17349195D01*
X34826167Y17220000D01*
X34264207Y17220000D01*
X34220000Y17224354D01*
X34175793Y17220000D01*
X34043569Y17206977D01*
X33873919Y17155514D01*
X33717568Y17071943D01*
X33580525Y16959475D01*
X33552345Y16925137D01*
X31854861Y15227653D01*
X31820526Y15199475D01*
X31792348Y15165140D01*
X31792345Y15165137D01*
X31708057Y15062431D01*
X31624487Y14906081D01*
X31573023Y14736430D01*
X31555646Y14560000D01*
X31560001Y14515783D01*
X31560000Y8664543D01*
X31391968Y8496511D01*
X31241491Y8271307D01*
X31190000Y8146996D01*
X31138509Y8271307D01*
X30988032Y8496511D01*
X30796511Y8688032D01*
X30571307Y8838509D01*
X30321073Y8942159D01*
X30055426Y8995000D01*
X29784574Y8995000D01*
X29518927Y8942159D01*
X29268693Y8838509D01*
X29043489Y8688032D01*
X28851968Y8496511D01*
X28701491Y8271307D01*
X28650000Y8146996D01*
X28598509Y8271307D01*
X28448032Y8496511D01*
X28256511Y8688032D01*
X28031307Y8838509D01*
X27781073Y8942159D01*
X27515426Y8995000D01*
X27244574Y8995000D01*
X26978927Y8942159D01*
X26728693Y8838509D01*
X26503489Y8688032D01*
X26311968Y8496511D01*
X26217540Y8355190D01*
X26217540Y8470000D01*
X26207403Y8572918D01*
X26177383Y8671881D01*
X26128633Y8763086D01*
X26063027Y8843027D01*
X25983086Y8908633D01*
X25891881Y8957383D01*
X25792918Y8987403D01*
X25690000Y8997540D01*
X23990000Y8997540D01*
X23887082Y8987403D01*
X23848488Y8975696D01*
X24105136Y9232344D01*
X24139475Y9260525D01*
X24251943Y9397568D01*
X24335514Y9553919D01*
X24386977Y9723569D01*
X24400000Y9855793D01*
X24400000Y9855802D01*
X24404353Y9899999D01*
X24400000Y9944196D01*
X24400000Y15926167D01*
X24529195Y16055362D01*
X24674200Y16272377D01*
X24774081Y16513512D01*
X24825000Y16769499D01*
X24825000Y17030501D01*
X24774081Y17286488D01*
X24674200Y17527623D01*
X24559021Y17700000D01*
X26755794Y17700000D01*
X26800000Y17695646D01*
X26844206Y17700000D01*
X26844207Y17700000D01*
X26976431Y17713023D01*
X27146081Y17764486D01*
X27302432Y17848057D01*
X27439475Y17960525D01*
X27467657Y17994865D01*
X29972793Y20500000D01*
X34482310Y20500000D01*
X34482597Y20497082D01*
G36*
X54420001Y32707207D02*
G01*
X54420000Y31973833D01*
X54290805Y31844638D01*
X54145800Y31627623D01*
X54045919Y31386488D01*
X53995000Y31130501D01*
X53995000Y30869499D01*
X54045919Y30613512D01*
X54145800Y30372377D01*
X54290805Y30155362D01*
X54475362Y29970805D01*
X54692377Y29825800D01*
X54923660Y29730000D01*
X54692377Y29634200D01*
X54475362Y29489195D01*
X54290805Y29304638D01*
X54145800Y29087623D01*
X54045919Y28846488D01*
X53995000Y28590501D01*
X53995000Y28329499D01*
X54045919Y28073512D01*
X54145800Y27832377D01*
X54290805Y27615362D01*
X54475362Y27430805D01*
X54692377Y27285800D01*
X54923660Y27190000D01*
X54692377Y27094200D01*
X54475362Y26949195D01*
X54471167Y26945000D01*
X53770351Y26945000D01*
X53720000Y26949959D01*
X53519065Y26930169D01*
X53325851Y26871558D01*
X53169568Y26788023D01*
X53147785Y26776380D01*
X52991709Y26648291D01*
X52959612Y26609180D01*
X52310824Y25960391D01*
X52271710Y25928291D01*
X52143621Y25772215D01*
X52103722Y25697568D01*
X52048443Y25594148D01*
X51989831Y25400934D01*
X51970041Y25200000D01*
X51975001Y25149640D01*
X51975000Y22575351D01*
X51970041Y22525000D01*
X51975000Y22474650D01*
X51989831Y22324066D01*
X52048442Y22130853D01*
X52143620Y21952785D01*
X52271709Y21796709D01*
X52310829Y21764604D01*
X54239611Y19835820D01*
X54271709Y19796709D01*
X54427785Y19668620D01*
X54605852Y19573442D01*
X54740453Y19532611D01*
X54799064Y19514831D01*
X54817422Y19513023D01*
X54910988Y19503808D01*
X54918112Y19500000D01*
X54818021Y19446501D01*
X54700196Y19349804D01*
X54603499Y19231979D01*
X54531647Y19097552D01*
X54487400Y18951691D01*
X54472460Y18800001D01*
X54472460Y18149999D01*
X54487400Y17998309D01*
X54531647Y17852448D01*
X54603499Y17718021D01*
X54700196Y17600196D01*
X54818021Y17503499D01*
X54952448Y17431647D01*
X55098309Y17387400D01*
X55249999Y17372460D01*
X56150001Y17372460D01*
X56301691Y17387400D01*
X56447552Y17431647D01*
X56481888Y17450000D01*
X56959323Y17450000D01*
X56903499Y17381979D01*
X56831647Y17247552D01*
X56787400Y17101691D01*
X56772460Y16950001D01*
X56772460Y16299999D01*
X56787400Y16148309D01*
X56831647Y16002448D01*
X56903499Y15868021D01*
X57000196Y15750196D01*
X57118021Y15653499D01*
X57218112Y15600000D01*
X57118021Y15546501D01*
X57000196Y15449804D01*
X56903499Y15331979D01*
X56831647Y15197552D01*
X56787400Y15051691D01*
X56772460Y14900001D01*
X56772460Y14249999D01*
X56787400Y14098309D01*
X56831647Y13952448D01*
X56903499Y13818021D01*
X57000196Y13700196D01*
X57118021Y13603499D01*
X57252448Y13531647D01*
X57398309Y13487400D01*
X57549999Y13472460D01*
X57652973Y13472460D01*
X59114612Y12010819D01*
X59146709Y11971709D01*
X59302785Y11843620D01*
X59480852Y11748442D01*
X59674065Y11689831D01*
X59824649Y11675000D01*
X59824659Y11675000D01*
X59874999Y11670042D01*
X59925339Y11675000D01*
X60040457Y11675000D01*
X60083489Y11631968D01*
X60308693Y11481491D01*
X60433004Y11430000D01*
X60308693Y11378509D01*
X60083489Y11228032D01*
X59915457Y11060000D01*
X46897792Y11060000D01*
X48305140Y12467347D01*
X48339475Y12495525D01*
X48451943Y12632568D01*
X48535514Y12788919D01*
X48586977Y12958569D01*
X48600000Y13090793D01*
X48600000Y13090795D01*
X48604354Y13134999D01*
X48600000Y13179203D01*
X48600000Y22406167D01*
X48729195Y22535362D01*
X48874200Y22752377D01*
X48974081Y22993512D01*
X49025000Y23249499D01*
X49025000Y23510501D01*
X48974081Y23766488D01*
X48874200Y24007623D01*
X48729195Y24224638D01*
X48544638Y24409195D01*
X48327623Y24554200D01*
X48096340Y24650000D01*
X48327623Y24745800D01*
X48544638Y24890805D01*
X48729195Y25075362D01*
X48874200Y25292377D01*
X48974081Y25533512D01*
X49025000Y25789499D01*
X49025000Y26050501D01*
X48974081Y26306488D01*
X48874200Y26547623D01*
X48729195Y26764638D01*
X48544638Y26949195D01*
X48327623Y27094200D01*
X48096340Y27190000D01*
X48327623Y27285800D01*
X48544638Y27430805D01*
X48729195Y27615362D01*
X48874200Y27832377D01*
X48974081Y28073512D01*
X49025000Y28329499D01*
X49025000Y28590501D01*
X48974081Y28846488D01*
X48874200Y29087623D01*
X48729195Y29304638D01*
X48544638Y29489195D01*
X48327623Y29634200D01*
X48235255Y29672460D01*
X48500000Y29672460D01*
X48602918Y29682597D01*
X48701881Y29712617D01*
X48793086Y29761367D01*
X48873027Y29826973D01*
X48938633Y29906914D01*
X48987383Y29998119D01*
X49017403Y30097082D01*
X49027540Y30200000D01*
X49027540Y31800000D01*
X49017403Y31902918D01*
X48987383Y32001881D01*
X48938633Y32093086D01*
X48873027Y32173027D01*
X48793086Y32238633D01*
X48701881Y32287383D01*
X48602918Y32317403D01*
X48500000Y32327540D01*
X46900000Y32327540D01*
X46797082Y32317403D01*
X46698119Y32287383D01*
X46606914Y32238633D01*
X46526973Y32173027D01*
X46461367Y32093086D01*
X46412617Y32001881D01*
X46382597Y31902918D01*
X46372460Y31800000D01*
X46372460Y30200000D01*
X46382597Y30097082D01*
X46412617Y29998119D01*
X46461367Y29906914D01*
X46526973Y29826973D01*
X46606914Y29761367D01*
X46698119Y29712617D01*
X46797082Y29682597D01*
X46900000Y29672460D01*
X47164745Y29672460D01*
X47072377Y29634200D01*
X46855362Y29489195D01*
X46833795Y29467628D01*
X44096287Y32205135D01*
X44068105Y32239475D01*
X43931062Y32351943D01*
X43774711Y32435514D01*
X43605061Y32486977D01*
X43472837Y32500000D01*
X43472836Y32500000D01*
X43428630Y32504354D01*
X43384424Y32500000D01*
X42487954Y32500000D01*
X42517403Y32597082D01*
X42527540Y32700000D01*
X42527540Y33600000D01*
X53527208Y33600000D01*
X54420001Y32707207D01*
G37*
X54420001Y32707207D02*
X54420000Y31973833D01*
X54290805Y31844638D01*
X54145800Y31627623D01*
X54045919Y31386488D01*
X53995000Y31130501D01*
X53995000Y30869499D01*
X54045919Y30613512D01*
X54145800Y30372377D01*
X54290805Y30155362D01*
X54475362Y29970805D01*
X54692377Y29825800D01*
X54923660Y29730000D01*
X54692377Y29634200D01*
X54475362Y29489195D01*
X54290805Y29304638D01*
X54145800Y29087623D01*
X54045919Y28846488D01*
X53995000Y28590501D01*
X53995000Y28329499D01*
X54045919Y28073512D01*
X54145800Y27832377D01*
X54290805Y27615362D01*
X54475362Y27430805D01*
X54692377Y27285800D01*
X54923660Y27190000D01*
X54692377Y27094200D01*
X54475362Y26949195D01*
X54471167Y26945000D01*
X53770351Y26945000D01*
X53720000Y26949959D01*
X53519065Y26930169D01*
X53325851Y26871558D01*
X53169568Y26788023D01*
X53147785Y26776380D01*
X52991709Y26648291D01*
X52959612Y26609180D01*
X52310824Y25960391D01*
X52271710Y25928291D01*
X52143621Y25772215D01*
X52103722Y25697568D01*
X52048443Y25594148D01*
X51989831Y25400934D01*
X51970041Y25200000D01*
X51975001Y25149640D01*
X51975000Y22575351D01*
X51970041Y22525000D01*
X51975000Y22474650D01*
X51989831Y22324066D01*
X52048442Y22130853D01*
X52143620Y21952785D01*
X52271709Y21796709D01*
X52310829Y21764604D01*
X54239611Y19835820D01*
X54271709Y19796709D01*
X54427785Y19668620D01*
X54605852Y19573442D01*
X54740453Y19532611D01*
X54799064Y19514831D01*
X54817422Y19513023D01*
X54910988Y19503808D01*
X54918112Y19500000D01*
X54818021Y19446501D01*
X54700196Y19349804D01*
X54603499Y19231979D01*
X54531647Y19097552D01*
X54487400Y18951691D01*
X54472460Y18800001D01*
X54472460Y18149999D01*
X54487400Y17998309D01*
X54531647Y17852448D01*
X54603499Y17718021D01*
X54700196Y17600196D01*
X54818021Y17503499D01*
X54952448Y17431647D01*
X55098309Y17387400D01*
X55249999Y17372460D01*
X56150001Y17372460D01*
X56301691Y17387400D01*
X56447552Y17431647D01*
X56481888Y17450000D01*
X56959323Y17450000D01*
X56903499Y17381979D01*
X56831647Y17247552D01*
X56787400Y17101691D01*
X56772460Y16950001D01*
X56772460Y16299999D01*
X56787400Y16148309D01*
X56831647Y16002448D01*
X56903499Y15868021D01*
X57000196Y15750196D01*
X57118021Y15653499D01*
X57218112Y15600000D01*
X57118021Y15546501D01*
X57000196Y15449804D01*
X56903499Y15331979D01*
X56831647Y15197552D01*
X56787400Y15051691D01*
X56772460Y14900001D01*
X56772460Y14249999D01*
X56787400Y14098309D01*
X56831647Y13952448D01*
X56903499Y13818021D01*
X57000196Y13700196D01*
X57118021Y13603499D01*
X57252448Y13531647D01*
X57398309Y13487400D01*
X57549999Y13472460D01*
X57652973Y13472460D01*
X59114612Y12010819D01*
X59146709Y11971709D01*
X59302785Y11843620D01*
X59480852Y11748442D01*
X59674065Y11689831D01*
X59824649Y11675000D01*
X59824659Y11675000D01*
X59874999Y11670042D01*
X59925339Y11675000D01*
X60040457Y11675000D01*
X60083489Y11631968D01*
X60308693Y11481491D01*
X60433004Y11430000D01*
X60308693Y11378509D01*
X60083489Y11228032D01*
X59915457Y11060000D01*
X46897792Y11060000D01*
X48305140Y12467347D01*
X48339475Y12495525D01*
X48451943Y12632568D01*
X48535514Y12788919D01*
X48586977Y12958569D01*
X48600000Y13090793D01*
X48600000Y13090795D01*
X48604354Y13134999D01*
X48600000Y13179203D01*
X48600000Y22406167D01*
X48729195Y22535362D01*
X48874200Y22752377D01*
X48974081Y22993512D01*
X49025000Y23249499D01*
X49025000Y23510501D01*
X48974081Y23766488D01*
X48874200Y24007623D01*
X48729195Y24224638D01*
X48544638Y24409195D01*
X48327623Y24554200D01*
X48096340Y24650000D01*
X48327623Y24745800D01*
X48544638Y24890805D01*
X48729195Y25075362D01*
X48874200Y25292377D01*
X48974081Y25533512D01*
X49025000Y25789499D01*
X49025000Y26050501D01*
X48974081Y26306488D01*
X48874200Y26547623D01*
X48729195Y26764638D01*
X48544638Y26949195D01*
X48327623Y27094200D01*
X48096340Y27190000D01*
X48327623Y27285800D01*
X48544638Y27430805D01*
X48729195Y27615362D01*
X48874200Y27832377D01*
X48974081Y28073512D01*
X49025000Y28329499D01*
X49025000Y28590501D01*
X48974081Y28846488D01*
X48874200Y29087623D01*
X48729195Y29304638D01*
X48544638Y29489195D01*
X48327623Y29634200D01*
X48235255Y29672460D01*
X48500000Y29672460D01*
X48602918Y29682597D01*
X48701881Y29712617D01*
X48793086Y29761367D01*
X48873027Y29826973D01*
X48938633Y29906914D01*
X48987383Y29998119D01*
X49017403Y30097082D01*
X49027540Y30200000D01*
X49027540Y31800000D01*
X49017403Y31902918D01*
X48987383Y32001881D01*
X48938633Y32093086D01*
X48873027Y32173027D01*
X48793086Y32238633D01*
X48701881Y32287383D01*
X48602918Y32317403D01*
X48500000Y32327540D01*
X46900000Y32327540D01*
X46797082Y32317403D01*
X46698119Y32287383D01*
X46606914Y32238633D01*
X46526973Y32173027D01*
X46461367Y32093086D01*
X46412617Y32001881D01*
X46382597Y31902918D01*
X46372460Y31800000D01*
X46372460Y30200000D01*
X46382597Y30097082D01*
X46412617Y29998119D01*
X46461367Y29906914D01*
X46526973Y29826973D01*
X46606914Y29761367D01*
X46698119Y29712617D01*
X46797082Y29682597D01*
X46900000Y29672460D01*
X47164745Y29672460D01*
X47072377Y29634200D01*
X46855362Y29489195D01*
X46833795Y29467628D01*
X44096287Y32205135D01*
X44068105Y32239475D01*
X43931062Y32351943D01*
X43774711Y32435514D01*
X43605061Y32486977D01*
X43472837Y32500000D01*
X43472836Y32500000D01*
X43428630Y32504354D01*
X43384424Y32500000D01*
X42487954Y32500000D01*
X42517403Y32597082D01*
X42527540Y32700000D01*
X42527540Y33600000D01*
X53527208Y33600000D01*
X54420001Y32707207D01*
G36*
X31050001Y25844216D02*
G01*
X31045646Y25800000D01*
X31063023Y25623570D01*
X31114487Y25453919D01*
X31198057Y25297569D01*
X31282345Y25194863D01*
X31282348Y25194860D01*
X31310526Y25160525D01*
X31344861Y25132347D01*
X33782343Y22694865D01*
X33810525Y22660525D01*
X33947568Y22548057D01*
X34103919Y22464486D01*
X34238804Y22423569D01*
X34273569Y22413023D01*
X34450000Y22395646D01*
X34494206Y22400000D01*
X34512046Y22400000D01*
X34482597Y22302918D01*
X34482310Y22300000D01*
X29644206Y22300000D01*
X29600000Y22304354D01*
X29555793Y22300000D01*
X29423569Y22286977D01*
X29253919Y22235514D01*
X29116099Y22161848D01*
X29097568Y22151943D01*
X28994862Y22067655D01*
X28994860Y22067653D01*
X28960525Y22039475D01*
X28932347Y22005140D01*
X26427208Y19500000D01*
X24817690Y19500000D01*
X24827540Y19600000D01*
X24827540Y21200000D01*
X24817403Y21302918D01*
X24787383Y21401881D01*
X24738633Y21493086D01*
X24673027Y21573027D01*
X24593086Y21638633D01*
X24501881Y21687383D01*
X24402918Y21717403D01*
X24400000Y21717690D01*
X24400000Y27900000D01*
X24427209Y27900000D01*
X24532339Y27794870D01*
X24560525Y27760525D01*
X24697568Y27648057D01*
X24853919Y27564486D01*
X25023569Y27513023D01*
X25155793Y27500000D01*
X25155802Y27500000D01*
X25199999Y27495647D01*
X25244196Y27500000D01*
X27805794Y27500000D01*
X27850000Y27495646D01*
X27894206Y27500000D01*
X27894207Y27500000D01*
X28026431Y27513023D01*
X28196081Y27564486D01*
X28352432Y27648057D01*
X28489475Y27760525D01*
X28517658Y27794866D01*
X28772791Y28050000D01*
X29267041Y28050000D01*
X29326973Y27976973D01*
X29406914Y27911367D01*
X29498119Y27862617D01*
X29597082Y27832597D01*
X29700000Y27822460D01*
X30600000Y27822460D01*
X30702918Y27832597D01*
X30801881Y27862617D01*
X30893086Y27911367D01*
X30973027Y27976973D01*
X31038633Y28056914D01*
X31050000Y28078181D01*
X31050001Y25844216D01*
G37*
X31050001Y25844216D02*
X31045646Y25800000D01*
X31063023Y25623570D01*
X31114487Y25453919D01*
X31198057Y25297569D01*
X31282345Y25194863D01*
X31282348Y25194860D01*
X31310526Y25160525D01*
X31344861Y25132347D01*
X33782343Y22694865D01*
X33810525Y22660525D01*
X33947568Y22548057D01*
X34103919Y22464486D01*
X34238804Y22423569D01*
X34273569Y22413023D01*
X34450000Y22395646D01*
X34494206Y22400000D01*
X34512046Y22400000D01*
X34482597Y22302918D01*
X34482310Y22300000D01*
X29644206Y22300000D01*
X29600000Y22304354D01*
X29555793Y22300000D01*
X29423569Y22286977D01*
X29253919Y22235514D01*
X29116099Y22161848D01*
X29097568Y22151943D01*
X28994862Y22067655D01*
X28994860Y22067653D01*
X28960525Y22039475D01*
X28932347Y22005140D01*
X26427208Y19500000D01*
X24817690Y19500000D01*
X24827540Y19600000D01*
X24827540Y21200000D01*
X24817403Y21302918D01*
X24787383Y21401881D01*
X24738633Y21493086D01*
X24673027Y21573027D01*
X24593086Y21638633D01*
X24501881Y21687383D01*
X24402918Y21717403D01*
X24400000Y21717690D01*
X24400000Y27900000D01*
X24427209Y27900000D01*
X24532339Y27794870D01*
X24560525Y27760525D01*
X24697568Y27648057D01*
X24853919Y27564486D01*
X25023569Y27513023D01*
X25155793Y27500000D01*
X25155802Y27500000D01*
X25199999Y27495647D01*
X25244196Y27500000D01*
X27805794Y27500000D01*
X27850000Y27495646D01*
X27894206Y27500000D01*
X27894207Y27500000D01*
X28026431Y27513023D01*
X28196081Y27564486D01*
X28352432Y27648057D01*
X28489475Y27760525D01*
X28517658Y27794866D01*
X28772791Y28050000D01*
X29267041Y28050000D01*
X29326973Y27976973D01*
X29406914Y27911367D01*
X29498119Y27862617D01*
X29597082Y27832597D01*
X29700000Y27822460D01*
X30600000Y27822460D01*
X30702918Y27832597D01*
X30801881Y27862617D01*
X30893086Y27911367D01*
X30973027Y27976973D01*
X31038633Y28056914D01*
X31050000Y28078181D01*
X31050001Y25844216D01*
G36*
X42332343Y23994865D02*
G01*
X42360525Y23960525D01*
X42394863Y23932345D01*
X42497568Y23848057D01*
X42653918Y23764486D01*
X42823569Y23713023D01*
X43000000Y23695646D01*
X43044207Y23700000D01*
X43727208Y23700000D01*
X45200001Y22227206D01*
X45200000Y19681712D01*
X45130897Y19625000D01*
X44502407Y19625000D01*
X44449195Y19704638D01*
X44264638Y19889195D01*
X44047623Y20034200D01*
X43816340Y20130000D01*
X44047623Y20225800D01*
X44264638Y20370805D01*
X44449195Y20555362D01*
X44594200Y20772377D01*
X44694081Y21013512D01*
X44745000Y21269499D01*
X44745000Y21530501D01*
X44694081Y21786488D01*
X44594200Y22027623D01*
X44449195Y22244638D01*
X44264638Y22429195D01*
X44047623Y22574200D01*
X43806488Y22674081D01*
X43550501Y22725000D01*
X43289499Y22725000D01*
X43033512Y22674081D01*
X42792377Y22574200D01*
X42575362Y22429195D01*
X42446167Y22300000D01*
X38922792Y22300000D01*
X38422792Y22800000D01*
X39055794Y22800000D01*
X39100000Y22795646D01*
X39144206Y22800000D01*
X39144207Y22800000D01*
X39276431Y22813023D01*
X39446081Y22864486D01*
X39602432Y22948057D01*
X39739475Y23060525D01*
X39767657Y23094865D01*
X40705135Y24032343D01*
X40739475Y24060525D01*
X40851943Y24197568D01*
X40871951Y24235000D01*
X40935514Y24353918D01*
X40986977Y24523569D01*
X41004354Y24700000D01*
X41000000Y24744207D01*
X41000000Y25327208D01*
X42332343Y23994865D01*
G37*
X42332343Y23994865D02*
X42360525Y23960525D01*
X42394863Y23932345D01*
X42497568Y23848057D01*
X42653918Y23764486D01*
X42823569Y23713023D01*
X43000000Y23695646D01*
X43044207Y23700000D01*
X43727208Y23700000D01*
X45200001Y22227206D01*
X45200000Y19681712D01*
X45130897Y19625000D01*
X44502407Y19625000D01*
X44449195Y19704638D01*
X44264638Y19889195D01*
X44047623Y20034200D01*
X43816340Y20130000D01*
X44047623Y20225800D01*
X44264638Y20370805D01*
X44449195Y20555362D01*
X44594200Y20772377D01*
X44694081Y21013512D01*
X44745000Y21269499D01*
X44745000Y21530501D01*
X44694081Y21786488D01*
X44594200Y22027623D01*
X44449195Y22244638D01*
X44264638Y22429195D01*
X44047623Y22574200D01*
X43806488Y22674081D01*
X43550501Y22725000D01*
X43289499Y22725000D01*
X43033512Y22674081D01*
X42792377Y22574200D01*
X42575362Y22429195D01*
X42446167Y22300000D01*
X38922792Y22300000D01*
X38422792Y22800000D01*
X39055794Y22800000D01*
X39100000Y22795646D01*
X39144206Y22800000D01*
X39144207Y22800000D01*
X39276431Y22813023D01*
X39446081Y22864486D01*
X39602432Y22948057D01*
X39739475Y23060525D01*
X39767657Y23094865D01*
X40705135Y24032343D01*
X40739475Y24060525D01*
X40851943Y24197568D01*
X40871951Y24235000D01*
X40935514Y24353918D01*
X40986977Y24523569D01*
X41004354Y24700000D01*
X41000000Y24744207D01*
X41000000Y25327208D01*
X42332343Y23994865D01*
G36*
X37998119Y32212617D02*
G01*
X38097082Y32182597D01*
X38200000Y32172460D01*
X39400000Y32172460D01*
X39502918Y32182597D01*
X39601881Y32212617D01*
X39671820Y32250000D01*
X40323350Y32250000D01*
X40310525Y32239475D01*
X40282343Y32205135D01*
X39494865Y31417657D01*
X39460525Y31389475D01*
X39348057Y31252431D01*
X39264486Y31096080D01*
X39233782Y30994863D01*
X39213023Y30926430D01*
X39203283Y30827540D01*
X38200000Y30827540D01*
X38097082Y30817403D01*
X37998119Y30787383D01*
X37906914Y30738633D01*
X37826973Y30673027D01*
X37761367Y30593086D01*
X37712617Y30501881D01*
X37682597Y30402918D01*
X37672460Y30300000D01*
X37672460Y29400000D01*
X37682597Y29297082D01*
X37712617Y29198119D01*
X37761367Y29106914D01*
X37826973Y29026973D01*
X37869379Y28992171D01*
X37794866Y28917658D01*
X37760525Y28889475D01*
X37648057Y28752431D01*
X37564486Y28596080D01*
X37519435Y28447568D01*
X37513023Y28426430D01*
X37495646Y28250000D01*
X37500000Y28205793D01*
X37500001Y26694207D01*
X37500000Y25412905D01*
X37452432Y25451943D01*
X37296081Y25535514D01*
X37126431Y25586977D01*
X36994207Y25600000D01*
X36994206Y25600000D01*
X36950000Y25604354D01*
X36905794Y25600000D01*
X36516789Y25600000D01*
X36391105Y25625000D01*
X36208895Y25625000D01*
X36030187Y25589453D01*
X35861848Y25519725D01*
X35710347Y25418495D01*
X35581505Y25289653D01*
X35480275Y25138152D01*
X35410547Y24969813D01*
X35375000Y24791105D01*
X35375000Y24608895D01*
X35410547Y24430187D01*
X35480275Y24261848D01*
X35521601Y24200000D01*
X34822792Y24200000D01*
X32850000Y26172792D01*
X32850000Y27846879D01*
X32897082Y27832597D01*
X33000000Y27822460D01*
X33900000Y27822460D01*
X34002918Y27832597D01*
X34101881Y27862617D01*
X34193086Y27911367D01*
X34273027Y27976973D01*
X34332959Y28050000D01*
X34605794Y28050000D01*
X34650000Y28045646D01*
X34694206Y28050000D01*
X34694207Y28050000D01*
X34826431Y28063023D01*
X34996081Y28114486D01*
X35152432Y28198057D01*
X35289475Y28310525D01*
X35317657Y28344865D01*
X36165135Y29192343D01*
X36199475Y29220525D01*
X36311943Y29357568D01*
X36395514Y29513919D01*
X36446977Y29683569D01*
X36460000Y29815793D01*
X36460000Y29815802D01*
X36464353Y29859999D01*
X36460000Y29904196D01*
X36460000Y31975457D01*
X36628032Y32143489D01*
X36699201Y32250000D01*
X37928180Y32250000D01*
X37998119Y32212617D01*
G37*
X37998119Y32212617D02*
X38097082Y32182597D01*
X38200000Y32172460D01*
X39400000Y32172460D01*
X39502918Y32182597D01*
X39601881Y32212617D01*
X39671820Y32250000D01*
X40323350Y32250000D01*
X40310525Y32239475D01*
X40282343Y32205135D01*
X39494865Y31417657D01*
X39460525Y31389475D01*
X39348057Y31252431D01*
X39264486Y31096080D01*
X39233782Y30994863D01*
X39213023Y30926430D01*
X39203283Y30827540D01*
X38200000Y30827540D01*
X38097082Y30817403D01*
X37998119Y30787383D01*
X37906914Y30738633D01*
X37826973Y30673027D01*
X37761367Y30593086D01*
X37712617Y30501881D01*
X37682597Y30402918D01*
X37672460Y30300000D01*
X37672460Y29400000D01*
X37682597Y29297082D01*
X37712617Y29198119D01*
X37761367Y29106914D01*
X37826973Y29026973D01*
X37869379Y28992171D01*
X37794866Y28917658D01*
X37760525Y28889475D01*
X37648057Y28752431D01*
X37564486Y28596080D01*
X37519435Y28447568D01*
X37513023Y28426430D01*
X37495646Y28250000D01*
X37500000Y28205793D01*
X37500001Y26694207D01*
X37500000Y25412905D01*
X37452432Y25451943D01*
X37296081Y25535514D01*
X37126431Y25586977D01*
X36994207Y25600000D01*
X36994206Y25600000D01*
X36950000Y25604354D01*
X36905794Y25600000D01*
X36516789Y25600000D01*
X36391105Y25625000D01*
X36208895Y25625000D01*
X36030187Y25589453D01*
X35861848Y25519725D01*
X35710347Y25418495D01*
X35581505Y25289653D01*
X35480275Y25138152D01*
X35410547Y24969813D01*
X35375000Y24791105D01*
X35375000Y24608895D01*
X35410547Y24430187D01*
X35480275Y24261848D01*
X35521601Y24200000D01*
X34822792Y24200000D01*
X32850000Y26172792D01*
X32850000Y27846879D01*
X32897082Y27832597D01*
X33000000Y27822460D01*
X33900000Y27822460D01*
X34002918Y27832597D01*
X34101881Y27862617D01*
X34193086Y27911367D01*
X34273027Y27976973D01*
X34332959Y28050000D01*
X34605794Y28050000D01*
X34650000Y28045646D01*
X34694206Y28050000D01*
X34694207Y28050000D01*
X34826431Y28063023D01*
X34996081Y28114486D01*
X35152432Y28198057D01*
X35289475Y28310525D01*
X35317657Y28344865D01*
X36165135Y29192343D01*
X36199475Y29220525D01*
X36311943Y29357568D01*
X36395514Y29513919D01*
X36446977Y29683569D01*
X36460000Y29815793D01*
X36460000Y29815802D01*
X36464353Y29859999D01*
X36460000Y29904196D01*
X36460000Y31975457D01*
X36628032Y32143489D01*
X36699201Y32250000D01*
X37928180Y32250000D01*
X37998119Y32212617D01*
G36*
X45900973Y27854865D02*
G01*
X45929155Y27820525D01*
X46020396Y27745646D01*
X46066198Y27708057D01*
X46222548Y27624486D01*
X46392199Y27573023D01*
X46568630Y27555646D01*
X46612837Y27560000D01*
X46726167Y27560000D01*
X46855362Y27430805D01*
X47072377Y27285800D01*
X47303660Y27190000D01*
X47072377Y27094200D01*
X46855362Y26949195D01*
X46806167Y26900000D01*
X44116789Y26900000D01*
X43991105Y26925000D01*
X43808895Y26925000D01*
X43630187Y26889453D01*
X43461848Y26819725D01*
X43310347Y26718495D01*
X43181505Y26589653D01*
X43080275Y26438152D01*
X43010547Y26269813D01*
X42975000Y26091105D01*
X42975000Y25908895D01*
X42977757Y25895035D01*
X42300000Y26572792D01*
X42300000Y28967041D01*
X42373027Y29026973D01*
X42438633Y29106914D01*
X42487383Y29198119D01*
X42517403Y29297082D01*
X42527540Y29400000D01*
X42527540Y30300000D01*
X42517403Y30402918D01*
X42487383Y30501881D01*
X42438633Y30593086D01*
X42373027Y30673027D01*
X42340160Y30700000D01*
X43055838Y30700000D01*
X45900973Y27854865D01*
G37*
X45900973Y27854865D02*
X45929155Y27820525D01*
X46020396Y27745646D01*
X46066198Y27708057D01*
X46222548Y27624486D01*
X46392199Y27573023D01*
X46568630Y27555646D01*
X46612837Y27560000D01*
X46726167Y27560000D01*
X46855362Y27430805D01*
X47072377Y27285800D01*
X47303660Y27190000D01*
X47072377Y27094200D01*
X46855362Y26949195D01*
X46806167Y26900000D01*
X44116789Y26900000D01*
X43991105Y26925000D01*
X43808895Y26925000D01*
X43630187Y26889453D01*
X43461848Y26819725D01*
X43310347Y26718495D01*
X43181505Y26589653D01*
X43080275Y26438152D01*
X43010547Y26269813D01*
X42975000Y26091105D01*
X42975000Y25908895D01*
X42977757Y25895035D01*
X42300000Y26572792D01*
X42300000Y28967041D01*
X42373027Y29026973D01*
X42438633Y29106914D01*
X42487383Y29198119D01*
X42517403Y29297082D01*
X42527540Y29400000D01*
X42527540Y30300000D01*
X42517403Y30402918D01*
X42487383Y30501881D01*
X42438633Y30593086D01*
X42373027Y30673027D01*
X42340160Y30700000D01*
X43055838Y30700000D01*
X45900973Y27854865D01*
G36*
X24682597Y31897082D02*
G01*
X24712617Y31798119D01*
X24761367Y31706914D01*
X24826973Y31626973D01*
X24906914Y31561367D01*
X24998119Y31512617D01*
X25097082Y31482597D01*
X25200000Y31472460D01*
X25242595Y31472460D01*
X25189531Y31292902D01*
X26000000Y30482434D01*
X26810469Y31292902D01*
X26757405Y31472460D01*
X26800000Y31472460D01*
X26902918Y31482597D01*
X27001881Y31512617D01*
X27093086Y31561367D01*
X27173027Y31626973D01*
X27238633Y31706914D01*
X27284494Y31792714D01*
X27632347Y31444860D01*
X27660525Y31410525D01*
X27694860Y31382347D01*
X27694862Y31382345D01*
X27762334Y31326973D01*
X27797568Y31298057D01*
X27953919Y31214486D01*
X28123569Y31163023D01*
X28255793Y31150000D01*
X28255795Y31150000D01*
X28299999Y31145646D01*
X28344203Y31150000D01*
X29577208Y31150000D01*
X30655094Y30072113D01*
X30600000Y30077540D01*
X29700000Y30077540D01*
X29597082Y30067403D01*
X29498119Y30037383D01*
X29406914Y29988633D01*
X29326973Y29923027D01*
X29267041Y29850000D01*
X28444196Y29850000D01*
X28399999Y29854353D01*
X28355802Y29850000D01*
X28355793Y29850000D01*
X28223569Y29836977D01*
X28053919Y29785514D01*
X27897568Y29701943D01*
X27760525Y29589475D01*
X27732339Y29555130D01*
X27477208Y29300000D01*
X27035518Y29300000D01*
X27108977Y29373459D01*
X26992904Y29489532D01*
X27236071Y29561394D01*
X27356415Y29816732D01*
X27424632Y30090641D01*
X27438102Y30372596D01*
X27396307Y30651761D01*
X27300852Y30917408D01*
X27236071Y31038606D01*
X26992902Y31110469D01*
X26182434Y30300000D01*
X26196576Y30285858D01*
X26014142Y30103424D01*
X26000000Y30117566D01*
X25985858Y30103424D01*
X25803424Y30285858D01*
X25817566Y30300000D01*
X25007098Y31110469D01*
X24763929Y31038606D01*
X24643585Y30783268D01*
X24575368Y30509359D01*
X24561898Y30227404D01*
X24603693Y29948239D01*
X24692893Y29700000D01*
X23872792Y29700000D01*
X23242655Y30330137D01*
X23214475Y30364475D01*
X23077432Y30476943D01*
X22921081Y30560514D01*
X22751431Y30611977D01*
X22619207Y30625000D01*
X22619206Y30625000D01*
X22575000Y30629354D01*
X22530794Y30625000D01*
X22469103Y30625000D01*
X22381979Y30696501D01*
X22247552Y30768353D01*
X22101691Y30812600D01*
X21950001Y30827540D01*
X21049999Y30827540D01*
X20898309Y30812600D01*
X20752448Y30768353D01*
X20618021Y30696501D01*
X20530897Y30625000D01*
X20469103Y30625000D01*
X20381979Y30696501D01*
X20247552Y30768353D01*
X20101691Y30812600D01*
X19950001Y30827540D01*
X19505506Y30827540D01*
X19441431Y30846977D01*
X19309207Y30860000D01*
X19309206Y30860000D01*
X19265000Y30864354D01*
X19220794Y30860000D01*
X17833833Y30860000D01*
X17704638Y30989195D01*
X17487623Y31134200D01*
X17256340Y31230000D01*
X17487623Y31325800D01*
X17704638Y31470805D01*
X17889195Y31655362D01*
X18034200Y31872377D01*
X18045642Y31900000D01*
X24682310Y31900000D01*
X24682597Y31897082D01*
G37*
X24682597Y31897082D02*
X24712617Y31798119D01*
X24761367Y31706914D01*
X24826973Y31626973D01*
X24906914Y31561367D01*
X24998119Y31512617D01*
X25097082Y31482597D01*
X25200000Y31472460D01*
X25242595Y31472460D01*
X25189531Y31292902D01*
X26000000Y30482434D01*
X26810469Y31292902D01*
X26757405Y31472460D01*
X26800000Y31472460D01*
X26902918Y31482597D01*
X27001881Y31512617D01*
X27093086Y31561367D01*
X27173027Y31626973D01*
X27238633Y31706914D01*
X27284494Y31792714D01*
X27632347Y31444860D01*
X27660525Y31410525D01*
X27694860Y31382347D01*
X27694862Y31382345D01*
X27762334Y31326973D01*
X27797568Y31298057D01*
X27953919Y31214486D01*
X28123569Y31163023D01*
X28255793Y31150000D01*
X28255795Y31150000D01*
X28299999Y31145646D01*
X28344203Y31150000D01*
X29577208Y31150000D01*
X30655094Y30072113D01*
X30600000Y30077540D01*
X29700000Y30077540D01*
X29597082Y30067403D01*
X29498119Y30037383D01*
X29406914Y29988633D01*
X29326973Y29923027D01*
X29267041Y29850000D01*
X28444196Y29850000D01*
X28399999Y29854353D01*
X28355802Y29850000D01*
X28355793Y29850000D01*
X28223569Y29836977D01*
X28053919Y29785514D01*
X27897568Y29701943D01*
X27760525Y29589475D01*
X27732339Y29555130D01*
X27477208Y29300000D01*
X27035518Y29300000D01*
X27108977Y29373459D01*
X26992904Y29489532D01*
X27236071Y29561394D01*
X27356415Y29816732D01*
X27424632Y30090641D01*
X27438102Y30372596D01*
X27396307Y30651761D01*
X27300852Y30917408D01*
X27236071Y31038606D01*
X26992902Y31110469D01*
X26182434Y30300000D01*
X26196576Y30285858D01*
X26014142Y30103424D01*
X26000000Y30117566D01*
X25985858Y30103424D01*
X25803424Y30285858D01*
X25817566Y30300000D01*
X25007098Y31110469D01*
X24763929Y31038606D01*
X24643585Y30783268D01*
X24575368Y30509359D01*
X24561898Y30227404D01*
X24603693Y29948239D01*
X24692893Y29700000D01*
X23872792Y29700000D01*
X23242655Y30330137D01*
X23214475Y30364475D01*
X23077432Y30476943D01*
X22921081Y30560514D01*
X22751431Y30611977D01*
X22619207Y30625000D01*
X22619206Y30625000D01*
X22575000Y30629354D01*
X22530794Y30625000D01*
X22469103Y30625000D01*
X22381979Y30696501D01*
X22247552Y30768353D01*
X22101691Y30812600D01*
X21950001Y30827540D01*
X21049999Y30827540D01*
X20898309Y30812600D01*
X20752448Y30768353D01*
X20618021Y30696501D01*
X20530897Y30625000D01*
X20469103Y30625000D01*
X20381979Y30696501D01*
X20247552Y30768353D01*
X20101691Y30812600D01*
X19950001Y30827540D01*
X19505506Y30827540D01*
X19441431Y30846977D01*
X19309207Y30860000D01*
X19309206Y30860000D01*
X19265000Y30864354D01*
X19220794Y30860000D01*
X17833833Y30860000D01*
X17704638Y30989195D01*
X17487623Y31134200D01*
X17256340Y31230000D01*
X17487623Y31325800D01*
X17704638Y31470805D01*
X17889195Y31655362D01*
X18034200Y31872377D01*
X18045642Y31900000D01*
X24682310Y31900000D01*
X24682597Y31897082D01*
G36*
X31537000Y33307250D02*
G01*
X31695250Y33149000D01*
X32891000Y33149000D01*
X32891000Y33169000D01*
X33149000Y33169000D01*
X33149000Y33149000D01*
X33169000Y33149000D01*
X33169000Y32891000D01*
X33149000Y32891000D01*
X33149000Y31695250D01*
X33307250Y31537000D01*
X33870000Y31533937D01*
X33994090Y31546159D01*
X34113411Y31582354D01*
X34223378Y31641133D01*
X34319764Y31720236D01*
X34398867Y31816622D01*
X34457646Y31926589D01*
X34493841Y32045910D01*
X34502422Y32133035D01*
X34660000Y31975457D01*
X34660001Y30232793D01*
X34307829Y29880621D01*
X34273027Y29923027D01*
X34193086Y29988633D01*
X34101881Y30037383D01*
X34002918Y30067403D01*
X33900000Y30077540D01*
X33000000Y30077540D01*
X32897082Y30067403D01*
X32853929Y30054313D01*
X32849717Y30097082D01*
X32836977Y30226431D01*
X32785514Y30396081D01*
X32701943Y30552432D01*
X32618655Y30653919D01*
X32617655Y30655138D01*
X32617653Y30655140D01*
X32589475Y30689475D01*
X32555141Y30717652D01*
X31102793Y32170000D01*
X31533937Y32170000D01*
X31546159Y32045910D01*
X31582354Y31926589D01*
X31641133Y31816622D01*
X31720236Y31720236D01*
X31816622Y31641133D01*
X31926589Y31582354D01*
X32045910Y31546159D01*
X32170000Y31533937D01*
X32732750Y31537000D01*
X32891000Y31695250D01*
X32891000Y32891000D01*
X31695250Y32891000D01*
X31537000Y32732750D01*
X31533937Y32170000D01*
X31102793Y32170000D01*
X30617657Y32655135D01*
X30589475Y32689475D01*
X30452432Y32801943D01*
X30296081Y32885514D01*
X30126431Y32936977D01*
X29994207Y32950000D01*
X29994206Y32950000D01*
X29950000Y32954354D01*
X29905794Y32950000D01*
X28672793Y32950000D01*
X28217657Y33405135D01*
X28189475Y33439475D01*
X28052432Y33551943D01*
X27962523Y33600000D01*
X31535407Y33600000D01*
X31537000Y33307250D01*
G37*
X31537000Y33307250D02*
X31695250Y33149000D01*
X32891000Y33149000D01*
X32891000Y33169000D01*
X33149000Y33169000D01*
X33149000Y33149000D01*
X33169000Y33149000D01*
X33169000Y32891000D01*
X33149000Y32891000D01*
X33149000Y31695250D01*
X33307250Y31537000D01*
X33870000Y31533937D01*
X33994090Y31546159D01*
X34113411Y31582354D01*
X34223378Y31641133D01*
X34319764Y31720236D01*
X34398867Y31816622D01*
X34457646Y31926589D01*
X34493841Y32045910D01*
X34502422Y32133035D01*
X34660000Y31975457D01*
X34660001Y30232793D01*
X34307829Y29880621D01*
X34273027Y29923027D01*
X34193086Y29988633D01*
X34101881Y30037383D01*
X34002918Y30067403D01*
X33900000Y30077540D01*
X33000000Y30077540D01*
X32897082Y30067403D01*
X32853929Y30054313D01*
X32849717Y30097082D01*
X32836977Y30226431D01*
X32785514Y30396081D01*
X32701943Y30552432D01*
X32618655Y30653919D01*
X32617655Y30655138D01*
X32617653Y30655140D01*
X32589475Y30689475D01*
X32555141Y30717652D01*
X31102793Y32170000D01*
X31533937Y32170000D01*
X31546159Y32045910D01*
X31582354Y31926589D01*
X31641133Y31816622D01*
X31720236Y31720236D01*
X31816622Y31641133D01*
X31926589Y31582354D01*
X32045910Y31546159D01*
X32170000Y31533937D01*
X32732750Y31537000D01*
X32891000Y31695250D01*
X32891000Y32891000D01*
X31695250Y32891000D01*
X31537000Y32732750D01*
X31533937Y32170000D01*
X31102793Y32170000D01*
X30617657Y32655135D01*
X30589475Y32689475D01*
X30452432Y32801943D01*
X30296081Y32885514D01*
X30126431Y32936977D01*
X29994207Y32950000D01*
X29994206Y32950000D01*
X29950000Y32954354D01*
X29905794Y32950000D01*
X28672793Y32950000D01*
X28217657Y33405135D01*
X28189475Y33439475D01*
X28052432Y33551943D01*
X27962523Y33600000D01*
X31535407Y33600000D01*
X31537000Y33307250D01*
M02*
