G04 #@! TF.GenerationSoftware,KiCad,Pcbnew,(5.1.5)-3*
G04 #@! TF.CreationDate,2020-02-22T22:04:57-05:00*
G04 #@! TF.ProjectId,Semiparametric-EQ,53656d69-7061-4726-916d-65747269632d,rev?*
G04 #@! TF.SameCoordinates,Original*
G04 #@! TF.FileFunction,Legend,Top*
G04 #@! TF.FilePolarity,Positive*
%FSLAX46Y46*%
G04 Gerber Fmt 4.6, Leading zero omitted, Abs format (unit mm)*
G04 Created by KiCad (PCBNEW (5.1.5)-3) date 2020-02-22 22:04:57*
%MOMM*%
%LPD*%
G04 APERTURE LIST*
%ADD10C,0.150000*%
%ADD11C,0.120000*%
G04 APERTURE END LIST*
D10*
X27528571Y21347619D02*
X27195238Y21823809D01*
X26957142Y21347619D02*
X26957142Y22347619D01*
X27338095Y22347619D01*
X27433333Y22300000D01*
X27480952Y22252380D01*
X27528571Y22157142D01*
X27528571Y22014285D01*
X27480952Y21919047D01*
X27433333Y21871428D01*
X27338095Y21823809D01*
X26957142Y21823809D01*
X28338095Y21395238D02*
X28242857Y21347619D01*
X28052380Y21347619D01*
X27957142Y21395238D01*
X27909523Y21490476D01*
X27909523Y21871428D01*
X27957142Y21966666D01*
X28052380Y22014285D01*
X28242857Y22014285D01*
X28338095Y21966666D01*
X28385714Y21871428D01*
X28385714Y21776190D01*
X27909523Y21680952D01*
X28719047Y22014285D02*
X28957142Y21347619D01*
X29195238Y22014285D01*
X30528571Y22347619D02*
X30623809Y22347619D01*
X30719047Y22300000D01*
X30766666Y22252380D01*
X30814285Y22157142D01*
X30861904Y21966666D01*
X30861904Y21728571D01*
X30814285Y21538095D01*
X30766666Y21442857D01*
X30719047Y21395238D01*
X30623809Y21347619D01*
X30528571Y21347619D01*
X30433333Y21395238D01*
X30385714Y21442857D01*
X30338095Y21538095D01*
X30290476Y21728571D01*
X30290476Y21966666D01*
X30338095Y22157142D01*
X30385714Y22252380D01*
X30433333Y22300000D01*
X30528571Y22347619D01*
X31290476Y21442857D02*
X31338095Y21395238D01*
X31290476Y21347619D01*
X31242857Y21395238D01*
X31290476Y21442857D01*
X31290476Y21347619D01*
X32290476Y21347619D02*
X31719047Y21347619D01*
X32004761Y21347619D02*
X32004761Y22347619D01*
X31909523Y22204761D01*
X31814285Y22109523D01*
X31719047Y22061904D01*
X22733333Y24095238D02*
X22876190Y24047619D01*
X23114285Y24047619D01*
X23209523Y24095238D01*
X23257142Y24142857D01*
X23304761Y24238095D01*
X23304761Y24333333D01*
X23257142Y24428571D01*
X23209523Y24476190D01*
X23114285Y24523809D01*
X22923809Y24571428D01*
X22828571Y24619047D01*
X22780952Y24666666D01*
X22733333Y24761904D01*
X22733333Y24857142D01*
X22780952Y24952380D01*
X22828571Y25000000D01*
X22923809Y25047619D01*
X23161904Y25047619D01*
X23304761Y25000000D01*
X24114285Y24095238D02*
X24019047Y24047619D01*
X23828571Y24047619D01*
X23733333Y24095238D01*
X23685714Y24190476D01*
X23685714Y24571428D01*
X23733333Y24666666D01*
X23828571Y24714285D01*
X24019047Y24714285D01*
X24114285Y24666666D01*
X24161904Y24571428D01*
X24161904Y24476190D01*
X23685714Y24380952D01*
X24590476Y24047619D02*
X24590476Y24714285D01*
X24590476Y24619047D02*
X24638095Y24666666D01*
X24733333Y24714285D01*
X24876190Y24714285D01*
X24971428Y24666666D01*
X25019047Y24571428D01*
X25019047Y24047619D01*
X25019047Y24571428D02*
X25066666Y24666666D01*
X25161904Y24714285D01*
X25304761Y24714285D01*
X25400000Y24666666D01*
X25447619Y24571428D01*
X25447619Y24047619D01*
X25923809Y24047619D02*
X25923809Y24714285D01*
X25923809Y25047619D02*
X25876190Y25000000D01*
X25923809Y24952380D01*
X25971428Y25000000D01*
X25923809Y25047619D01*
X25923809Y24952380D01*
X26400000Y24428571D02*
X27161904Y24428571D01*
X27638095Y24047619D02*
X27638095Y25047619D01*
X28019047Y25047619D01*
X28114285Y25000000D01*
X28161904Y24952380D01*
X28209523Y24857142D01*
X28209523Y24714285D01*
X28161904Y24619047D01*
X28114285Y24571428D01*
X28019047Y24523809D01*
X27638095Y24523809D01*
X29066666Y24047619D02*
X29066666Y24571428D01*
X29019047Y24666666D01*
X28923809Y24714285D01*
X28733333Y24714285D01*
X28638095Y24666666D01*
X29066666Y24095238D02*
X28971428Y24047619D01*
X28733333Y24047619D01*
X28638095Y24095238D01*
X28590476Y24190476D01*
X28590476Y24285714D01*
X28638095Y24380952D01*
X28733333Y24428571D01*
X28971428Y24428571D01*
X29066666Y24476190D01*
X29542857Y24047619D02*
X29542857Y24714285D01*
X29542857Y24523809D02*
X29590476Y24619047D01*
X29638095Y24666666D01*
X29733333Y24714285D01*
X29828571Y24714285D01*
X30590476Y24047619D02*
X30590476Y24571428D01*
X30542857Y24666666D01*
X30447619Y24714285D01*
X30257142Y24714285D01*
X30161904Y24666666D01*
X30590476Y24095238D02*
X30495238Y24047619D01*
X30257142Y24047619D01*
X30161904Y24095238D01*
X30114285Y24190476D01*
X30114285Y24285714D01*
X30161904Y24380952D01*
X30257142Y24428571D01*
X30495238Y24428571D01*
X30590476Y24476190D01*
X31066666Y24047619D02*
X31066666Y24714285D01*
X31066666Y24619047D02*
X31114285Y24666666D01*
X31209523Y24714285D01*
X31352380Y24714285D01*
X31447619Y24666666D01*
X31495238Y24571428D01*
X31495238Y24047619D01*
X31495238Y24571428D02*
X31542857Y24666666D01*
X31638095Y24714285D01*
X31780952Y24714285D01*
X31876190Y24666666D01*
X31923809Y24571428D01*
X31923809Y24047619D01*
X32780952Y24095238D02*
X32685714Y24047619D01*
X32495238Y24047619D01*
X32400000Y24095238D01*
X32352380Y24190476D01*
X32352380Y24571428D01*
X32400000Y24666666D01*
X32495238Y24714285D01*
X32685714Y24714285D01*
X32780952Y24666666D01*
X32828571Y24571428D01*
X32828571Y24476190D01*
X32352380Y24380952D01*
X33114285Y24714285D02*
X33495238Y24714285D01*
X33257142Y25047619D02*
X33257142Y24190476D01*
X33304761Y24095238D01*
X33400000Y24047619D01*
X33495238Y24047619D01*
X33828571Y24047619D02*
X33828571Y24714285D01*
X33828571Y24523809D02*
X33876190Y24619047D01*
X33923809Y24666666D01*
X34019047Y24714285D01*
X34114285Y24714285D01*
X34447619Y24047619D02*
X34447619Y24714285D01*
X34447619Y25047619D02*
X34400000Y25000000D01*
X34447619Y24952380D01*
X34495238Y25000000D01*
X34447619Y25047619D01*
X34447619Y24952380D01*
X35352380Y24095238D02*
X35257142Y24047619D01*
X35066666Y24047619D01*
X34971428Y24095238D01*
X34923809Y24142857D01*
X34876190Y24238095D01*
X34876190Y24523809D01*
X34923809Y24619047D01*
X34971428Y24666666D01*
X35066666Y24714285D01*
X35257142Y24714285D01*
X35352380Y24666666D01*
X36542857Y24571428D02*
X36876190Y24571428D01*
X37019047Y24047619D02*
X36542857Y24047619D01*
X36542857Y25047619D01*
X37019047Y25047619D01*
X38114285Y23952380D02*
X38019047Y24000000D01*
X37923809Y24095238D01*
X37780952Y24238095D01*
X37685714Y24285714D01*
X37590476Y24285714D01*
X37638095Y24047619D02*
X37542857Y24095238D01*
X37447619Y24190476D01*
X37400000Y24380952D01*
X37400000Y24714285D01*
X37447619Y24904761D01*
X37542857Y25000000D01*
X37638095Y25047619D01*
X37828571Y25047619D01*
X37923809Y25000000D01*
X38019047Y24904761D01*
X38066666Y24714285D01*
X38066666Y24380952D01*
X38019047Y24190476D01*
X37923809Y24095238D01*
X37828571Y24047619D01*
X37638095Y24047619D01*
X30466666Y31247619D02*
X30657142Y31247619D01*
X30752380Y31200000D01*
X30847619Y31104761D01*
X30895238Y30914285D01*
X30895238Y30580952D01*
X30847619Y30390476D01*
X30752380Y30295238D01*
X30657142Y30247619D01*
X30466666Y30247619D01*
X30371428Y30295238D01*
X30276190Y30390476D01*
X30228571Y30580952D01*
X30228571Y30914285D01*
X30276190Y31104761D01*
X30371428Y31200000D01*
X30466666Y31247619D01*
X31228571Y30914285D02*
X31466666Y30247619D01*
X31704761Y30914285D01*
X32466666Y30295238D02*
X32371428Y30247619D01*
X32180952Y30247619D01*
X32085714Y30295238D01*
X32038095Y30390476D01*
X32038095Y30771428D01*
X32085714Y30866666D01*
X32180952Y30914285D01*
X32371428Y30914285D01*
X32466666Y30866666D01*
X32514285Y30771428D01*
X32514285Y30676190D01*
X32038095Y30580952D01*
X32942857Y30247619D02*
X32942857Y30914285D01*
X32942857Y30723809D02*
X32990476Y30819047D01*
X33038095Y30866666D01*
X33133333Y30914285D01*
X33228571Y30914285D01*
X33704761Y30247619D02*
X33609523Y30295238D01*
X33561904Y30390476D01*
X33561904Y31247619D01*
X34228571Y30247619D02*
X34133333Y30295238D01*
X34085714Y30342857D01*
X34038095Y30438095D01*
X34038095Y30723809D01*
X34085714Y30819047D01*
X34133333Y30866666D01*
X34228571Y30914285D01*
X34371428Y30914285D01*
X34466666Y30866666D01*
X34514285Y30819047D01*
X34561904Y30723809D01*
X34561904Y30438095D01*
X34514285Y30342857D01*
X34466666Y30295238D01*
X34371428Y30247619D01*
X34228571Y30247619D01*
X35419047Y30247619D02*
X35419047Y30771428D01*
X35371428Y30866666D01*
X35276190Y30914285D01*
X35085714Y30914285D01*
X34990476Y30866666D01*
X35419047Y30295238D02*
X35323809Y30247619D01*
X35085714Y30247619D01*
X34990476Y30295238D01*
X34942857Y30390476D01*
X34942857Y30485714D01*
X34990476Y30580952D01*
X35085714Y30628571D01*
X35323809Y30628571D01*
X35419047Y30676190D01*
X36323809Y30247619D02*
X36323809Y31247619D01*
X36323809Y30295238D02*
X36228571Y30247619D01*
X36038095Y30247619D01*
X35942857Y30295238D01*
X35895238Y30342857D01*
X35847619Y30438095D01*
X35847619Y30723809D01*
X35895238Y30819047D01*
X35942857Y30866666D01*
X36038095Y30914285D01*
X36228571Y30914285D01*
X36323809Y30866666D01*
X63052380Y18633333D02*
X63052380Y19204761D01*
X64052380Y18919047D02*
X63052380Y18919047D01*
X64052380Y19538095D02*
X63385714Y19538095D01*
X63576190Y19538095D02*
X63480952Y19585714D01*
X63433333Y19633333D01*
X63385714Y19728571D01*
X63385714Y19823809D01*
X64004761Y20538095D02*
X64052380Y20442857D01*
X64052380Y20252380D01*
X64004761Y20157142D01*
X63909523Y20109523D01*
X63528571Y20109523D01*
X63433333Y20157142D01*
X63385714Y20252380D01*
X63385714Y20442857D01*
X63433333Y20538095D01*
X63528571Y20585714D01*
X63623809Y20585714D01*
X63719047Y20109523D01*
X64052380Y21014285D02*
X63052380Y21014285D01*
X63433333Y21014285D02*
X63385714Y21109523D01*
X63385714Y21300000D01*
X63433333Y21395238D01*
X63480952Y21442857D01*
X63576190Y21490476D01*
X63861904Y21490476D01*
X63957142Y21442857D01*
X64004761Y21395238D01*
X64052380Y21300000D01*
X64052380Y21109523D01*
X64004761Y21014285D01*
X64052380Y22061904D02*
X64004761Y21966666D01*
X63909523Y21919047D01*
X63052380Y21919047D01*
X64004761Y22823809D02*
X64052380Y22728571D01*
X64052380Y22538095D01*
X64004761Y22442857D01*
X63909523Y22395238D01*
X63528571Y22395238D01*
X63433333Y22442857D01*
X63385714Y22538095D01*
X63385714Y22728571D01*
X63433333Y22823809D01*
X63528571Y22871428D01*
X63623809Y22871428D01*
X63719047Y22395238D01*
X63528571Y24395238D02*
X63528571Y24061904D01*
X64052380Y24061904D02*
X63052380Y24061904D01*
X63052380Y24538095D01*
X64052380Y24919047D02*
X63385714Y24919047D01*
X63576190Y24919047D02*
X63480952Y24966666D01*
X63433333Y25014285D01*
X63385714Y25109523D01*
X63385714Y25204761D01*
X64004761Y25919047D02*
X64052380Y25823809D01*
X64052380Y25633333D01*
X64004761Y25538095D01*
X63909523Y25490476D01*
X63528571Y25490476D01*
X63433333Y25538095D01*
X63385714Y25633333D01*
X63385714Y25823809D01*
X63433333Y25919047D01*
X63528571Y25966666D01*
X63623809Y25966666D01*
X63719047Y25490476D01*
X63385714Y26823809D02*
X64385714Y26823809D01*
X64004761Y26823809D02*
X64052380Y26728571D01*
X64052380Y26538095D01*
X64004761Y26442857D01*
X63957142Y26395238D01*
X63861904Y26347619D01*
X63576190Y26347619D01*
X63480952Y26395238D01*
X63433333Y26442857D01*
X63385714Y26538095D01*
X63385714Y26728571D01*
X63433333Y26823809D01*
X63052380Y8433333D02*
X63052380Y9004761D01*
X64052380Y8719047D02*
X63052380Y8719047D01*
X64052380Y9338095D02*
X63385714Y9338095D01*
X63576190Y9338095D02*
X63480952Y9385714D01*
X63433333Y9433333D01*
X63385714Y9528571D01*
X63385714Y9623809D01*
X64004761Y10338095D02*
X64052380Y10242857D01*
X64052380Y10052380D01*
X64004761Y9957142D01*
X63909523Y9909523D01*
X63528571Y9909523D01*
X63433333Y9957142D01*
X63385714Y10052380D01*
X63385714Y10242857D01*
X63433333Y10338095D01*
X63528571Y10385714D01*
X63623809Y10385714D01*
X63719047Y9909523D01*
X64052380Y10814285D02*
X63052380Y10814285D01*
X63433333Y10814285D02*
X63385714Y10909523D01*
X63385714Y11100000D01*
X63433333Y11195238D01*
X63480952Y11242857D01*
X63576190Y11290476D01*
X63861904Y11290476D01*
X63957142Y11242857D01*
X64004761Y11195238D01*
X64052380Y11100000D01*
X64052380Y10909523D01*
X64004761Y10814285D01*
X64052380Y11861904D02*
X64004761Y11766666D01*
X63909523Y11719047D01*
X63052380Y11719047D01*
X64004761Y12623809D02*
X64052380Y12528571D01*
X64052380Y12338095D01*
X64004761Y12242857D01*
X63909523Y12195238D01*
X63528571Y12195238D01*
X63433333Y12242857D01*
X63385714Y12338095D01*
X63385714Y12528571D01*
X63433333Y12623809D01*
X63528571Y12671428D01*
X63623809Y12671428D01*
X63719047Y12195238D01*
X51295238Y4547619D02*
X51295238Y5547619D01*
X51295238Y5071428D02*
X51866666Y5071428D01*
X51866666Y4547619D02*
X51866666Y5547619D01*
X52342857Y4547619D02*
X52342857Y5214285D01*
X52342857Y5547619D02*
X52295238Y5500000D01*
X52342857Y5452380D01*
X52390476Y5500000D01*
X52342857Y5547619D01*
X52342857Y5452380D01*
X52819047Y4928571D02*
X53580952Y4928571D01*
X54057142Y4547619D02*
X54057142Y5547619D01*
X54390476Y4833333D01*
X54723809Y5547619D01*
X54723809Y4547619D01*
X55200000Y4547619D02*
X55200000Y5214285D01*
X55200000Y5547619D02*
X55152380Y5500000D01*
X55200000Y5452380D01*
X55247619Y5500000D01*
X55200000Y5547619D01*
X55200000Y5452380D01*
X56104761Y4547619D02*
X56104761Y5547619D01*
X56104761Y4595238D02*
X56009523Y4547619D01*
X55819047Y4547619D01*
X55723809Y4595238D01*
X55676190Y4642857D01*
X55628571Y4738095D01*
X55628571Y5023809D01*
X55676190Y5119047D01*
X55723809Y5166666D01*
X55819047Y5214285D01*
X56009523Y5214285D01*
X56104761Y5166666D01*
X42090476Y9747619D02*
X42090476Y10747619D01*
X42090476Y10271428D02*
X42661904Y10271428D01*
X42661904Y9747619D02*
X42661904Y10747619D01*
X43138095Y9747619D02*
X43138095Y10414285D01*
X43138095Y10747619D02*
X43090476Y10700000D01*
X43138095Y10652380D01*
X43185714Y10700000D01*
X43138095Y10747619D01*
X43138095Y10652380D01*
X43614285Y10128571D02*
X44376190Y10128571D01*
X44852380Y9747619D02*
X44852380Y10747619D01*
X45185714Y10033333D01*
X45519047Y10747619D01*
X45519047Y9747619D01*
X45995238Y9747619D02*
X45995238Y10414285D01*
X45995238Y10747619D02*
X45947619Y10700000D01*
X45995238Y10652380D01*
X46042857Y10700000D01*
X45995238Y10747619D01*
X45995238Y10652380D01*
X46900000Y9747619D02*
X46900000Y10747619D01*
X46900000Y9795238D02*
X46804761Y9747619D01*
X46614285Y9747619D01*
X46519047Y9795238D01*
X46471428Y9842857D01*
X46423809Y9938095D01*
X46423809Y10223809D01*
X46471428Y10319047D01*
X46519047Y10366666D01*
X46614285Y10414285D01*
X46804761Y10414285D01*
X46900000Y10366666D01*
X52280952Y10271428D02*
X51947619Y10271428D01*
X51947619Y9747619D02*
X51947619Y10747619D01*
X52423809Y10747619D01*
X52804761Y9747619D02*
X52804761Y10414285D01*
X52804761Y10223809D02*
X52852380Y10319047D01*
X52900000Y10366666D01*
X52995238Y10414285D01*
X53090476Y10414285D01*
X53804761Y9795238D02*
X53709523Y9747619D01*
X53519047Y9747619D01*
X53423809Y9795238D01*
X53376190Y9890476D01*
X53376190Y10271428D01*
X53423809Y10366666D01*
X53519047Y10414285D01*
X53709523Y10414285D01*
X53804761Y10366666D01*
X53852380Y10271428D01*
X53852380Y10176190D01*
X53376190Y10080952D01*
X54709523Y10414285D02*
X54709523Y9414285D01*
X54709523Y9795238D02*
X54614285Y9747619D01*
X54423809Y9747619D01*
X54328571Y9795238D01*
X54280952Y9842857D01*
X54233333Y9938095D01*
X54233333Y10223809D01*
X54280952Y10319047D01*
X54328571Y10366666D01*
X54423809Y10414285D01*
X54614285Y10414285D01*
X54709523Y10366666D01*
X26852380Y147619D02*
X26376190Y147619D01*
X26376190Y1147619D01*
X27328571Y147619D02*
X27233333Y195238D01*
X27185714Y242857D01*
X27138095Y338095D01*
X27138095Y623809D01*
X27185714Y719047D01*
X27233333Y766666D01*
X27328571Y814285D01*
X27471428Y814285D01*
X27566666Y766666D01*
X27614285Y719047D01*
X27661904Y623809D01*
X27661904Y338095D01*
X27614285Y242857D01*
X27566666Y195238D01*
X27471428Y147619D01*
X27328571Y147619D01*
X27995238Y814285D02*
X28185714Y147619D01*
X28376190Y623809D01*
X28566666Y147619D01*
X28757142Y814285D01*
X29138095Y528571D02*
X29900000Y528571D01*
X30376190Y147619D02*
X30376190Y1147619D01*
X30709523Y433333D01*
X31042857Y1147619D01*
X31042857Y147619D01*
X31519047Y147619D02*
X31519047Y814285D01*
X31519047Y1147619D02*
X31471428Y1100000D01*
X31519047Y1052380D01*
X31566666Y1100000D01*
X31519047Y1147619D01*
X31519047Y1052380D01*
X32423809Y147619D02*
X32423809Y1147619D01*
X32423809Y195238D02*
X32328571Y147619D01*
X32138095Y147619D01*
X32042857Y195238D01*
X31995238Y242857D01*
X31947619Y338095D01*
X31947619Y623809D01*
X31995238Y719047D01*
X32042857Y766666D01*
X32138095Y814285D01*
X32328571Y814285D01*
X32423809Y766666D01*
X27152380Y9747619D02*
X26676190Y9747619D01*
X26676190Y10747619D01*
X27628571Y9747619D02*
X27533333Y9795238D01*
X27485714Y9842857D01*
X27438095Y9938095D01*
X27438095Y10223809D01*
X27485714Y10319047D01*
X27533333Y10366666D01*
X27628571Y10414285D01*
X27771428Y10414285D01*
X27866666Y10366666D01*
X27914285Y10319047D01*
X27961904Y10223809D01*
X27961904Y9938095D01*
X27914285Y9842857D01*
X27866666Y9795238D01*
X27771428Y9747619D01*
X27628571Y9747619D01*
X28295238Y10414285D02*
X28485714Y9747619D01*
X28676190Y10223809D01*
X28866666Y9747619D01*
X29057142Y10414285D01*
X29438095Y10128571D02*
X30200000Y10128571D01*
X30676190Y9747619D02*
X30676190Y10747619D01*
X31009523Y10033333D01*
X31342857Y10747619D01*
X31342857Y9747619D01*
X31819047Y9747619D02*
X31819047Y10414285D01*
X31819047Y10747619D02*
X31771428Y10700000D01*
X31819047Y10652380D01*
X31866666Y10700000D01*
X31819047Y10747619D01*
X31819047Y10652380D01*
X32723809Y9747619D02*
X32723809Y10747619D01*
X32723809Y9795238D02*
X32628571Y9747619D01*
X32438095Y9747619D01*
X32342857Y9795238D01*
X32295238Y9842857D01*
X32247619Y9938095D01*
X32247619Y10223809D01*
X32295238Y10319047D01*
X32342857Y10366666D01*
X32438095Y10414285D01*
X32628571Y10414285D01*
X32723809Y10366666D01*
X34295238Y10271428D02*
X33961904Y10271428D01*
X33961904Y9747619D02*
X33961904Y10747619D01*
X34438095Y10747619D01*
X34819047Y9747619D02*
X34819047Y10414285D01*
X34819047Y10223809D02*
X34866666Y10319047D01*
X34914285Y10366666D01*
X35009523Y10414285D01*
X35104761Y10414285D01*
X35819047Y9795238D02*
X35723809Y9747619D01*
X35533333Y9747619D01*
X35438095Y9795238D01*
X35390476Y9890476D01*
X35390476Y10271428D01*
X35438095Y10366666D01*
X35533333Y10414285D01*
X35723809Y10414285D01*
X35819047Y10366666D01*
X35866666Y10271428D01*
X35866666Y10176190D01*
X35390476Y10080952D01*
X36723809Y10414285D02*
X36723809Y9414285D01*
X36723809Y9795238D02*
X36628571Y9747619D01*
X36438095Y9747619D01*
X36342857Y9795238D01*
X36295238Y9842857D01*
X36247619Y9938095D01*
X36247619Y10223809D01*
X36295238Y10319047D01*
X36342857Y10366666D01*
X36438095Y10414285D01*
X36628571Y10414285D01*
X36723809Y10366666D01*
X23052380Y523809D02*
X22052380Y523809D01*
X22052380Y904761D01*
X22100000Y999999D01*
X22147619Y1047619D01*
X22242857Y1095238D01*
X22385714Y1095238D01*
X22480952Y1047619D01*
X22528571Y999999D01*
X22576190Y904761D01*
X22576190Y523809D01*
X23004761Y1904761D02*
X23052380Y1809523D01*
X23052380Y1619047D01*
X23004761Y1523809D01*
X22909523Y1476190D01*
X22528571Y1476190D01*
X22433333Y1523809D01*
X22385714Y1619047D01*
X22385714Y1809523D01*
X22433333Y1904761D01*
X22528571Y1952380D01*
X22623809Y1952380D01*
X22719047Y1476190D01*
X23052380Y2809523D02*
X22528571Y2809523D01*
X22433333Y2761904D01*
X22385714Y2666666D01*
X22385714Y2476190D01*
X22433333Y2380952D01*
X23004761Y2809523D02*
X23052380Y2714285D01*
X23052380Y2476190D01*
X23004761Y2380952D01*
X22909523Y2333333D01*
X22814285Y2333333D01*
X22719047Y2380952D01*
X22671428Y2476190D01*
X22671428Y2714285D01*
X22623809Y2809523D01*
X23052380Y3285714D02*
X22052380Y3285714D01*
X22671428Y3380952D02*
X23052380Y3666666D01*
X22385714Y3666666D02*
X22766666Y3285714D01*
X22004761Y4809523D02*
X23290476Y3952380D01*
X23004761Y5095238D02*
X23052380Y5238095D01*
X23052380Y5476190D01*
X23004761Y5571428D01*
X22957142Y5619047D01*
X22861904Y5666666D01*
X22766666Y5666666D01*
X22671428Y5619047D01*
X22623809Y5571428D01*
X22576190Y5476190D01*
X22528571Y5285714D01*
X22480952Y5190476D01*
X22433333Y5142857D01*
X22338095Y5095238D01*
X22242857Y5095238D01*
X22147619Y5142857D01*
X22100000Y5190476D01*
X22052380Y5285714D01*
X22052380Y5523809D01*
X22100000Y5666666D01*
X23052380Y6095238D02*
X22052380Y6095238D01*
X23052380Y6523809D02*
X22528571Y6523809D01*
X22433333Y6476190D01*
X22385714Y6380952D01*
X22385714Y6238095D01*
X22433333Y6142857D01*
X22480952Y6095238D01*
X23004761Y7380952D02*
X23052380Y7285714D01*
X23052380Y7095238D01*
X23004761Y6999999D01*
X22909523Y6952380D01*
X22528571Y6952380D01*
X22433333Y6999999D01*
X22385714Y7095238D01*
X22385714Y7285714D01*
X22433333Y7380952D01*
X22528571Y7428571D01*
X22623809Y7428571D01*
X22719047Y6952380D01*
X23052380Y7999999D02*
X23004761Y7904761D01*
X22909523Y7857142D01*
X22052380Y7857142D01*
X22385714Y8238095D02*
X22385714Y8619047D01*
X23052380Y8380952D02*
X22195238Y8380952D01*
X22100000Y8428571D01*
X22052380Y8523809D01*
X22052380Y8619047D01*
X8609523Y5171428D02*
X8752380Y5123809D01*
X8800000Y5076190D01*
X8847619Y4980952D01*
X8847619Y4838095D01*
X8800000Y4742857D01*
X8752380Y4695238D01*
X8657142Y4647619D01*
X8276190Y4647619D01*
X8276190Y5647619D01*
X8609523Y5647619D01*
X8704761Y5600000D01*
X8752380Y5552380D01*
X8800000Y5457142D01*
X8800000Y5361904D01*
X8752380Y5266666D01*
X8704761Y5219047D01*
X8609523Y5171428D01*
X8276190Y5171428D01*
X9704761Y4647619D02*
X9704761Y5171428D01*
X9657142Y5266666D01*
X9561904Y5314285D01*
X9371428Y5314285D01*
X9276190Y5266666D01*
X9704761Y4695238D02*
X9609523Y4647619D01*
X9371428Y4647619D01*
X9276190Y4695238D01*
X9228571Y4790476D01*
X9228571Y4885714D01*
X9276190Y4980952D01*
X9371428Y5028571D01*
X9609523Y5028571D01*
X9704761Y5076190D01*
X10133333Y4695238D02*
X10228571Y4647619D01*
X10419047Y4647619D01*
X10514285Y4695238D01*
X10561904Y4790476D01*
X10561904Y4838095D01*
X10514285Y4933333D01*
X10419047Y4980952D01*
X10276190Y4980952D01*
X10180952Y5028571D01*
X10133333Y5123809D01*
X10133333Y5171428D01*
X10180952Y5266666D01*
X10276190Y5314285D01*
X10419047Y5314285D01*
X10514285Y5266666D01*
X10942857Y4695238D02*
X11038095Y4647619D01*
X11228571Y4647619D01*
X11323809Y4695238D01*
X11371428Y4790476D01*
X11371428Y4838095D01*
X11323809Y4933333D01*
X11228571Y4980952D01*
X11085714Y4980952D01*
X10990476Y5028571D01*
X10942857Y5123809D01*
X10942857Y5171428D01*
X10990476Y5266666D01*
X11085714Y5314285D01*
X11228571Y5314285D01*
X11323809Y5266666D01*
X12895238Y5171428D02*
X12561904Y5171428D01*
X12561904Y4647619D02*
X12561904Y5647619D01*
X13038095Y5647619D01*
X13419047Y4647619D02*
X13419047Y5314285D01*
X13419047Y5123809D02*
X13466666Y5219047D01*
X13514285Y5266666D01*
X13609523Y5314285D01*
X13704761Y5314285D01*
X14419047Y4695238D02*
X14323809Y4647619D01*
X14133333Y4647619D01*
X14038095Y4695238D01*
X13990476Y4790476D01*
X13990476Y5171428D01*
X14038095Y5266666D01*
X14133333Y5314285D01*
X14323809Y5314285D01*
X14419047Y5266666D01*
X14466666Y5171428D01*
X14466666Y5076190D01*
X13990476Y4980952D01*
X15323809Y5314285D02*
X15323809Y4314285D01*
X15323809Y4695238D02*
X15228571Y4647619D01*
X15038095Y4647619D01*
X14942857Y4695238D01*
X14895238Y4742857D01*
X14847619Y4838095D01*
X14847619Y5123809D01*
X14895238Y5219047D01*
X14942857Y5266666D01*
X15038095Y5314285D01*
X15228571Y5314285D01*
X15323809Y5266666D01*
X8309523Y10271428D02*
X8452380Y10223809D01*
X8500000Y10176190D01*
X8547619Y10080952D01*
X8547619Y9938095D01*
X8500000Y9842857D01*
X8452380Y9795238D01*
X8357142Y9747619D01*
X7976190Y9747619D01*
X7976190Y10747619D01*
X8309523Y10747619D01*
X8404761Y10700000D01*
X8452380Y10652380D01*
X8500000Y10557142D01*
X8500000Y10461904D01*
X8452380Y10366666D01*
X8404761Y10319047D01*
X8309523Y10271428D01*
X7976190Y10271428D01*
X9404761Y9747619D02*
X9404761Y10271428D01*
X9357142Y10366666D01*
X9261904Y10414285D01*
X9071428Y10414285D01*
X8976190Y10366666D01*
X9404761Y9795238D02*
X9309523Y9747619D01*
X9071428Y9747619D01*
X8976190Y9795238D01*
X8928571Y9890476D01*
X8928571Y9985714D01*
X8976190Y10080952D01*
X9071428Y10128571D01*
X9309523Y10128571D01*
X9404761Y10176190D01*
X9833333Y9795238D02*
X9928571Y9747619D01*
X10119047Y9747619D01*
X10214285Y9795238D01*
X10261904Y9890476D01*
X10261904Y9938095D01*
X10214285Y10033333D01*
X10119047Y10080952D01*
X9976190Y10080952D01*
X9880952Y10128571D01*
X9833333Y10223809D01*
X9833333Y10271428D01*
X9880952Y10366666D01*
X9976190Y10414285D01*
X10119047Y10414285D01*
X10214285Y10366666D01*
X10642857Y9795238D02*
X10738095Y9747619D01*
X10928571Y9747619D01*
X11023809Y9795238D01*
X11071428Y9890476D01*
X11071428Y9938095D01*
X11023809Y10033333D01*
X10928571Y10080952D01*
X10785714Y10080952D01*
X10690476Y10128571D01*
X10642857Y10223809D01*
X10642857Y10271428D01*
X10690476Y10366666D01*
X10785714Y10414285D01*
X10928571Y10414285D01*
X11023809Y10366666D01*
D11*
X18920000Y10230000D02*
X11480000Y10230000D01*
X18920000Y18970000D02*
X11480000Y18970000D01*
X18920000Y10230000D02*
X18920000Y18970000D01*
X11480000Y10230000D02*
X11480000Y18970000D01*
X22210000Y28961252D02*
X22210000Y28438748D01*
X20790000Y28961252D02*
X20790000Y28438748D01*
X27620000Y18650000D02*
G75*
G03X27620000Y18650000I-4120000J0D01*
G01*
X27580000Y18650000D02*
X19420000Y18650000D01*
X27580000Y18610000D02*
X19420000Y18610000D01*
X27580000Y18570000D02*
X19420000Y18570000D01*
X27579000Y18530000D02*
X19421000Y18530000D01*
X27577000Y18490000D02*
X19423000Y18490000D01*
X27576000Y18450000D02*
X19424000Y18450000D01*
X27574000Y18410000D02*
X19426000Y18410000D01*
X27571000Y18370000D02*
X19429000Y18370000D01*
X27568000Y18330000D02*
X19432000Y18330000D01*
X27565000Y18290000D02*
X19435000Y18290000D01*
X27561000Y18250000D02*
X19439000Y18250000D01*
X27557000Y18210000D02*
X19443000Y18210000D01*
X27552000Y18170000D02*
X19448000Y18170000D01*
X27548000Y18130000D02*
X19452000Y18130000D01*
X27542000Y18090000D02*
X19458000Y18090000D01*
X27537000Y18050000D02*
X19463000Y18050000D01*
X27530000Y18010000D02*
X19470000Y18010000D01*
X27524000Y17970000D02*
X19476000Y17970000D01*
X27517000Y17929000D02*
X24540000Y17929000D01*
X22460000Y17929000D02*
X19483000Y17929000D01*
X27510000Y17889000D02*
X24540000Y17889000D01*
X22460000Y17889000D02*
X19490000Y17889000D01*
X27502000Y17849000D02*
X24540000Y17849000D01*
X22460000Y17849000D02*
X19498000Y17849000D01*
X27494000Y17809000D02*
X24540000Y17809000D01*
X22460000Y17809000D02*
X19506000Y17809000D01*
X27485000Y17769000D02*
X24540000Y17769000D01*
X22460000Y17769000D02*
X19515000Y17769000D01*
X27476000Y17729000D02*
X24540000Y17729000D01*
X22460000Y17729000D02*
X19524000Y17729000D01*
X27467000Y17689000D02*
X24540000Y17689000D01*
X22460000Y17689000D02*
X19533000Y17689000D01*
X27457000Y17649000D02*
X24540000Y17649000D01*
X22460000Y17649000D02*
X19543000Y17649000D01*
X27447000Y17609000D02*
X24540000Y17609000D01*
X22460000Y17609000D02*
X19553000Y17609000D01*
X27436000Y17569000D02*
X24540000Y17569000D01*
X22460000Y17569000D02*
X19564000Y17569000D01*
X27425000Y17529000D02*
X24540000Y17529000D01*
X22460000Y17529000D02*
X19575000Y17529000D01*
X27414000Y17489000D02*
X24540000Y17489000D01*
X22460000Y17489000D02*
X19586000Y17489000D01*
X27402000Y17449000D02*
X24540000Y17449000D01*
X22460000Y17449000D02*
X19598000Y17449000D01*
X27389000Y17409000D02*
X24540000Y17409000D01*
X22460000Y17409000D02*
X19611000Y17409000D01*
X27377000Y17369000D02*
X24540000Y17369000D01*
X22460000Y17369000D02*
X19623000Y17369000D01*
X27363000Y17329000D02*
X24540000Y17329000D01*
X22460000Y17329000D02*
X19637000Y17329000D01*
X27350000Y17289000D02*
X24540000Y17289000D01*
X22460000Y17289000D02*
X19650000Y17289000D01*
X27335000Y17249000D02*
X24540000Y17249000D01*
X22460000Y17249000D02*
X19665000Y17249000D01*
X27321000Y17209000D02*
X24540000Y17209000D01*
X22460000Y17209000D02*
X19679000Y17209000D01*
X27305000Y17169000D02*
X24540000Y17169000D01*
X22460000Y17169000D02*
X19695000Y17169000D01*
X27290000Y17129000D02*
X24540000Y17129000D01*
X22460000Y17129000D02*
X19710000Y17129000D01*
X27274000Y17089000D02*
X24540000Y17089000D01*
X22460000Y17089000D02*
X19726000Y17089000D01*
X27257000Y17049000D02*
X24540000Y17049000D01*
X22460000Y17049000D02*
X19743000Y17049000D01*
X27240000Y17009000D02*
X24540000Y17009000D01*
X22460000Y17009000D02*
X19760000Y17009000D01*
X27222000Y16969000D02*
X24540000Y16969000D01*
X22460000Y16969000D02*
X19778000Y16969000D01*
X27204000Y16929000D02*
X24540000Y16929000D01*
X22460000Y16929000D02*
X19796000Y16929000D01*
X27186000Y16889000D02*
X24540000Y16889000D01*
X22460000Y16889000D02*
X19814000Y16889000D01*
X27166000Y16849000D02*
X24540000Y16849000D01*
X22460000Y16849000D02*
X19834000Y16849000D01*
X27147000Y16809000D02*
X24540000Y16809000D01*
X22460000Y16809000D02*
X19853000Y16809000D01*
X27127000Y16769000D02*
X24540000Y16769000D01*
X22460000Y16769000D02*
X19873000Y16769000D01*
X27106000Y16729000D02*
X24540000Y16729000D01*
X22460000Y16729000D02*
X19894000Y16729000D01*
X27084000Y16689000D02*
X24540000Y16689000D01*
X22460000Y16689000D02*
X19916000Y16689000D01*
X27062000Y16649000D02*
X24540000Y16649000D01*
X22460000Y16649000D02*
X19938000Y16649000D01*
X27040000Y16609000D02*
X24540000Y16609000D01*
X22460000Y16609000D02*
X19960000Y16609000D01*
X27017000Y16569000D02*
X24540000Y16569000D01*
X22460000Y16569000D02*
X19983000Y16569000D01*
X26993000Y16529000D02*
X24540000Y16529000D01*
X22460000Y16529000D02*
X20007000Y16529000D01*
X26969000Y16489000D02*
X24540000Y16489000D01*
X22460000Y16489000D02*
X20031000Y16489000D01*
X26944000Y16449000D02*
X24540000Y16449000D01*
X22460000Y16449000D02*
X20056000Y16449000D01*
X26918000Y16409000D02*
X24540000Y16409000D01*
X22460000Y16409000D02*
X20082000Y16409000D01*
X26892000Y16369000D02*
X24540000Y16369000D01*
X22460000Y16369000D02*
X20108000Y16369000D01*
X26865000Y16329000D02*
X24540000Y16329000D01*
X22460000Y16329000D02*
X20135000Y16329000D01*
X26838000Y16289000D02*
X24540000Y16289000D01*
X22460000Y16289000D02*
X20162000Y16289000D01*
X26809000Y16249000D02*
X24540000Y16249000D01*
X22460000Y16249000D02*
X20191000Y16249000D01*
X26780000Y16209000D02*
X24540000Y16209000D01*
X22460000Y16209000D02*
X20220000Y16209000D01*
X26750000Y16169000D02*
X24540000Y16169000D01*
X22460000Y16169000D02*
X20250000Y16169000D01*
X26720000Y16129000D02*
X24540000Y16129000D01*
X22460000Y16129000D02*
X20280000Y16129000D01*
X26689000Y16089000D02*
X24540000Y16089000D01*
X22460000Y16089000D02*
X20311000Y16089000D01*
X26656000Y16049000D02*
X24540000Y16049000D01*
X22460000Y16049000D02*
X20344000Y16049000D01*
X26624000Y16009000D02*
X24540000Y16009000D01*
X22460000Y16009000D02*
X20376000Y16009000D01*
X26590000Y15969000D02*
X24540000Y15969000D01*
X22460000Y15969000D02*
X20410000Y15969000D01*
X26555000Y15929000D02*
X24540000Y15929000D01*
X22460000Y15929000D02*
X20445000Y15929000D01*
X26519000Y15889000D02*
X24540000Y15889000D01*
X22460000Y15889000D02*
X20481000Y15889000D01*
X26483000Y15849000D02*
X20517000Y15849000D01*
X26445000Y15809000D02*
X20555000Y15809000D01*
X26407000Y15769000D02*
X20593000Y15769000D01*
X26367000Y15729000D02*
X20633000Y15729000D01*
X26326000Y15689000D02*
X20674000Y15689000D01*
X26284000Y15649000D02*
X20716000Y15649000D01*
X26241000Y15609000D02*
X20759000Y15609000D01*
X26197000Y15569000D02*
X20803000Y15569000D01*
X26151000Y15529000D02*
X20849000Y15529000D01*
X26104000Y15489000D02*
X20896000Y15489000D01*
X26056000Y15449000D02*
X20944000Y15449000D01*
X26005000Y15409000D02*
X20995000Y15409000D01*
X25954000Y15369000D02*
X21046000Y15369000D01*
X25900000Y15329000D02*
X21100000Y15329000D01*
X25845000Y15289000D02*
X21155000Y15289000D01*
X25787000Y15249000D02*
X21213000Y15249000D01*
X25728000Y15209000D02*
X21272000Y15209000D01*
X25666000Y15169000D02*
X21334000Y15169000D01*
X25602000Y15129000D02*
X21398000Y15129000D01*
X25534000Y15089000D02*
X21466000Y15089000D01*
X25464000Y15049000D02*
X21536000Y15049000D01*
X25390000Y15009000D02*
X21610000Y15009000D01*
X25313000Y14969000D02*
X21687000Y14969000D01*
X25231000Y14929000D02*
X21769000Y14929000D01*
X25145000Y14889000D02*
X21855000Y14889000D01*
X25052000Y14849000D02*
X21948000Y14849000D01*
X24953000Y14809000D02*
X22047000Y14809000D01*
X24846000Y14769000D02*
X22154000Y14769000D01*
X24729000Y14729000D02*
X22271000Y14729000D01*
X24598000Y14689000D02*
X22402000Y14689000D01*
X24448000Y14649000D02*
X22552000Y14649000D01*
X24268000Y14609000D02*
X22732000Y14609000D01*
X24033000Y14569000D02*
X22967000Y14569000D01*
X25815000Y23059698D02*
X25815000Y22259698D01*
X26215000Y22659698D02*
X25415000Y22659698D01*
X20210000Y28961252D02*
X20210000Y28438748D01*
X18790000Y28961252D02*
X18790000Y28438748D01*
X14050000Y33830000D02*
G75*
G02X12050000Y33830000I-1000000J0D01*
G01*
X12050000Y33830000D02*
X10400000Y33830000D01*
X10400000Y33830000D02*
X10400000Y23550000D01*
X10400000Y23550000D02*
X15700000Y23550000D01*
X15700000Y23550000D02*
X15700000Y33830000D01*
X15700000Y33830000D02*
X14050000Y33830000D01*
X7910000Y33890000D02*
X7910000Y23490000D01*
X7910000Y23490000D02*
X18190000Y23490000D01*
X18190000Y23490000D02*
X18190000Y33890000D01*
X18190000Y33890000D02*
X7910000Y33890000D01*
X29270000Y31550000D02*
G75*
G03X29270000Y31550000I-3270000J0D01*
G01*
X29230000Y31550000D02*
X22770000Y31550000D01*
X29230000Y31510000D02*
X22770000Y31510000D01*
X29230000Y31470000D02*
X22770000Y31470000D01*
X29228000Y31430000D02*
X22772000Y31430000D01*
X29227000Y31390000D02*
X22773000Y31390000D01*
X29224000Y31350000D02*
X22776000Y31350000D01*
X29222000Y31310000D02*
X27040000Y31310000D01*
X24960000Y31310000D02*
X22778000Y31310000D01*
X29218000Y31270000D02*
X27040000Y31270000D01*
X24960000Y31270000D02*
X22782000Y31270000D01*
X29215000Y31230000D02*
X27040000Y31230000D01*
X24960000Y31230000D02*
X22785000Y31230000D01*
X29211000Y31190000D02*
X27040000Y31190000D01*
X24960000Y31190000D02*
X22789000Y31190000D01*
X29206000Y31150000D02*
X27040000Y31150000D01*
X24960000Y31150000D02*
X22794000Y31150000D01*
X29201000Y31110000D02*
X27040000Y31110000D01*
X24960000Y31110000D02*
X22799000Y31110000D01*
X29195000Y31070000D02*
X27040000Y31070000D01*
X24960000Y31070000D02*
X22805000Y31070000D01*
X29189000Y31030000D02*
X27040000Y31030000D01*
X24960000Y31030000D02*
X22811000Y31030000D01*
X29182000Y30990000D02*
X27040000Y30990000D01*
X24960000Y30990000D02*
X22818000Y30990000D01*
X29175000Y30950000D02*
X27040000Y30950000D01*
X24960000Y30950000D02*
X22825000Y30950000D01*
X29167000Y30910000D02*
X27040000Y30910000D01*
X24960000Y30910000D02*
X22833000Y30910000D01*
X29159000Y30870000D02*
X27040000Y30870000D01*
X24960000Y30870000D02*
X22841000Y30870000D01*
X29150000Y30829000D02*
X27040000Y30829000D01*
X24960000Y30829000D02*
X22850000Y30829000D01*
X29141000Y30789000D02*
X27040000Y30789000D01*
X24960000Y30789000D02*
X22859000Y30789000D01*
X29131000Y30749000D02*
X27040000Y30749000D01*
X24960000Y30749000D02*
X22869000Y30749000D01*
X29121000Y30709000D02*
X27040000Y30709000D01*
X24960000Y30709000D02*
X22879000Y30709000D01*
X29110000Y30669000D02*
X27040000Y30669000D01*
X24960000Y30669000D02*
X22890000Y30669000D01*
X29098000Y30629000D02*
X27040000Y30629000D01*
X24960000Y30629000D02*
X22902000Y30629000D01*
X29086000Y30589000D02*
X27040000Y30589000D01*
X24960000Y30589000D02*
X22914000Y30589000D01*
X29074000Y30549000D02*
X27040000Y30549000D01*
X24960000Y30549000D02*
X22926000Y30549000D01*
X29061000Y30509000D02*
X27040000Y30509000D01*
X24960000Y30509000D02*
X22939000Y30509000D01*
X29047000Y30469000D02*
X27040000Y30469000D01*
X24960000Y30469000D02*
X22953000Y30469000D01*
X29033000Y30429000D02*
X27040000Y30429000D01*
X24960000Y30429000D02*
X22967000Y30429000D01*
X29018000Y30389000D02*
X27040000Y30389000D01*
X24960000Y30389000D02*
X22982000Y30389000D01*
X29002000Y30349000D02*
X27040000Y30349000D01*
X24960000Y30349000D02*
X22998000Y30349000D01*
X28986000Y30309000D02*
X27040000Y30309000D01*
X24960000Y30309000D02*
X23014000Y30309000D01*
X28970000Y30269000D02*
X27040000Y30269000D01*
X24960000Y30269000D02*
X23030000Y30269000D01*
X28952000Y30229000D02*
X27040000Y30229000D01*
X24960000Y30229000D02*
X23048000Y30229000D01*
X28934000Y30189000D02*
X27040000Y30189000D01*
X24960000Y30189000D02*
X23066000Y30189000D01*
X28916000Y30149000D02*
X27040000Y30149000D01*
X24960000Y30149000D02*
X23084000Y30149000D01*
X28896000Y30109000D02*
X27040000Y30109000D01*
X24960000Y30109000D02*
X23104000Y30109000D01*
X28876000Y30069000D02*
X27040000Y30069000D01*
X24960000Y30069000D02*
X23124000Y30069000D01*
X28856000Y30029000D02*
X27040000Y30029000D01*
X24960000Y30029000D02*
X23144000Y30029000D01*
X28834000Y29989000D02*
X27040000Y29989000D01*
X24960000Y29989000D02*
X23166000Y29989000D01*
X28812000Y29949000D02*
X27040000Y29949000D01*
X24960000Y29949000D02*
X23188000Y29949000D01*
X28790000Y29909000D02*
X27040000Y29909000D01*
X24960000Y29909000D02*
X23210000Y29909000D01*
X28766000Y29869000D02*
X27040000Y29869000D01*
X24960000Y29869000D02*
X23234000Y29869000D01*
X28742000Y29829000D02*
X27040000Y29829000D01*
X24960000Y29829000D02*
X23258000Y29829000D01*
X28716000Y29789000D02*
X27040000Y29789000D01*
X24960000Y29789000D02*
X23284000Y29789000D01*
X28690000Y29749000D02*
X27040000Y29749000D01*
X24960000Y29749000D02*
X23310000Y29749000D01*
X28664000Y29709000D02*
X27040000Y29709000D01*
X24960000Y29709000D02*
X23336000Y29709000D01*
X28636000Y29669000D02*
X27040000Y29669000D01*
X24960000Y29669000D02*
X23364000Y29669000D01*
X28607000Y29629000D02*
X27040000Y29629000D01*
X24960000Y29629000D02*
X23393000Y29629000D01*
X28578000Y29589000D02*
X27040000Y29589000D01*
X24960000Y29589000D02*
X23422000Y29589000D01*
X28548000Y29549000D02*
X27040000Y29549000D01*
X24960000Y29549000D02*
X23452000Y29549000D01*
X28516000Y29509000D02*
X27040000Y29509000D01*
X24960000Y29509000D02*
X23484000Y29509000D01*
X28484000Y29469000D02*
X27040000Y29469000D01*
X24960000Y29469000D02*
X23516000Y29469000D01*
X28450000Y29429000D02*
X27040000Y29429000D01*
X24960000Y29429000D02*
X23550000Y29429000D01*
X28416000Y29389000D02*
X27040000Y29389000D01*
X24960000Y29389000D02*
X23584000Y29389000D01*
X28380000Y29349000D02*
X27040000Y29349000D01*
X24960000Y29349000D02*
X23620000Y29349000D01*
X28343000Y29309000D02*
X27040000Y29309000D01*
X24960000Y29309000D02*
X23657000Y29309000D01*
X28305000Y29269000D02*
X27040000Y29269000D01*
X24960000Y29269000D02*
X23695000Y29269000D01*
X28265000Y29229000D02*
X23735000Y29229000D01*
X28224000Y29189000D02*
X23776000Y29189000D01*
X28182000Y29149000D02*
X23818000Y29149000D01*
X28137000Y29109000D02*
X23863000Y29109000D01*
X28092000Y29069000D02*
X23908000Y29069000D01*
X28044000Y29029000D02*
X23956000Y29029000D01*
X27995000Y28989000D02*
X24005000Y28989000D01*
X27944000Y28949000D02*
X24056000Y28949000D01*
X27890000Y28909000D02*
X24110000Y28909000D01*
X27834000Y28869000D02*
X24166000Y28869000D01*
X27776000Y28829000D02*
X24224000Y28829000D01*
X27714000Y28789000D02*
X24286000Y28789000D01*
X27650000Y28749000D02*
X24350000Y28749000D01*
X27581000Y28709000D02*
X24419000Y28709000D01*
X27509000Y28669000D02*
X24491000Y28669000D01*
X27432000Y28629000D02*
X24568000Y28629000D01*
X27350000Y28589000D02*
X24650000Y28589000D01*
X27262000Y28549000D02*
X24738000Y28549000D01*
X27165000Y28509000D02*
X24835000Y28509000D01*
X27059000Y28469000D02*
X24941000Y28469000D01*
X26940000Y28429000D02*
X25060000Y28429000D01*
X26802000Y28389000D02*
X25198000Y28389000D01*
X26633000Y28349000D02*
X25367000Y28349000D01*
X26402000Y28309000D02*
X25598000Y28309000D01*
X27839000Y35050241D02*
X27839000Y34420241D01*
X28154000Y34735241D02*
X27524000Y34735241D01*
X5346000Y16264759D02*
X5976000Y16264759D01*
X5661000Y15949759D02*
X5661000Y16579759D01*
X7098000Y22691000D02*
X7902000Y22691000D01*
X6867000Y22651000D02*
X8133000Y22651000D01*
X6698000Y22611000D02*
X8302000Y22611000D01*
X6560000Y22571000D02*
X8440000Y22571000D01*
X6441000Y22531000D02*
X8559000Y22531000D01*
X6335000Y22491000D02*
X8665000Y22491000D01*
X6238000Y22451000D02*
X8762000Y22451000D01*
X6150000Y22411000D02*
X8850000Y22411000D01*
X6068000Y22371000D02*
X8932000Y22371000D01*
X5991000Y22331000D02*
X9009000Y22331000D01*
X5919000Y22291000D02*
X9081000Y22291000D01*
X5850000Y22251000D02*
X9150000Y22251000D01*
X5786000Y22211000D02*
X9214000Y22211000D01*
X5724000Y22171000D02*
X9276000Y22171000D01*
X5666000Y22131000D02*
X9334000Y22131000D01*
X5610000Y22091000D02*
X9390000Y22091000D01*
X5556000Y22051000D02*
X9444000Y22051000D01*
X5505000Y22011000D02*
X9495000Y22011000D01*
X5456000Y21971000D02*
X9544000Y21971000D01*
X5408000Y21931000D02*
X9592000Y21931000D01*
X5363000Y21891000D02*
X9637000Y21891000D01*
X5318000Y21851000D02*
X9682000Y21851000D01*
X5276000Y21811000D02*
X9724000Y21811000D01*
X5235000Y21771000D02*
X9765000Y21771000D01*
X8540000Y21731000D02*
X9805000Y21731000D01*
X5195000Y21731000D02*
X6460000Y21731000D01*
X8540000Y21691000D02*
X9843000Y21691000D01*
X5157000Y21691000D02*
X6460000Y21691000D01*
X8540000Y21651000D02*
X9880000Y21651000D01*
X5120000Y21651000D02*
X6460000Y21651000D01*
X8540000Y21611000D02*
X9916000Y21611000D01*
X5084000Y21611000D02*
X6460000Y21611000D01*
X8540000Y21571000D02*
X9950000Y21571000D01*
X5050000Y21571000D02*
X6460000Y21571000D01*
X8540000Y21531000D02*
X9984000Y21531000D01*
X5016000Y21531000D02*
X6460000Y21531000D01*
X8540000Y21491000D02*
X10016000Y21491000D01*
X4984000Y21491000D02*
X6460000Y21491000D01*
X8540000Y21451000D02*
X10048000Y21451000D01*
X4952000Y21451000D02*
X6460000Y21451000D01*
X8540000Y21411000D02*
X10078000Y21411000D01*
X4922000Y21411000D02*
X6460000Y21411000D01*
X8540000Y21371000D02*
X10107000Y21371000D01*
X4893000Y21371000D02*
X6460000Y21371000D01*
X8540000Y21331000D02*
X10136000Y21331000D01*
X4864000Y21331000D02*
X6460000Y21331000D01*
X8540000Y21291000D02*
X10164000Y21291000D01*
X4836000Y21291000D02*
X6460000Y21291000D01*
X8540000Y21251000D02*
X10190000Y21251000D01*
X4810000Y21251000D02*
X6460000Y21251000D01*
X8540000Y21211000D02*
X10216000Y21211000D01*
X4784000Y21211000D02*
X6460000Y21211000D01*
X8540000Y21171000D02*
X10242000Y21171000D01*
X4758000Y21171000D02*
X6460000Y21171000D01*
X8540000Y21131000D02*
X10266000Y21131000D01*
X4734000Y21131000D02*
X6460000Y21131000D01*
X8540000Y21091000D02*
X10290000Y21091000D01*
X4710000Y21091000D02*
X6460000Y21091000D01*
X8540000Y21051000D02*
X10312000Y21051000D01*
X4688000Y21051000D02*
X6460000Y21051000D01*
X8540000Y21011000D02*
X10334000Y21011000D01*
X4666000Y21011000D02*
X6460000Y21011000D01*
X8540000Y20971000D02*
X10356000Y20971000D01*
X4644000Y20971000D02*
X6460000Y20971000D01*
X8540000Y20931000D02*
X10376000Y20931000D01*
X4624000Y20931000D02*
X6460000Y20931000D01*
X8540000Y20891000D02*
X10396000Y20891000D01*
X4604000Y20891000D02*
X6460000Y20891000D01*
X8540000Y20851000D02*
X10416000Y20851000D01*
X4584000Y20851000D02*
X6460000Y20851000D01*
X8540000Y20811000D02*
X10434000Y20811000D01*
X4566000Y20811000D02*
X6460000Y20811000D01*
X8540000Y20771000D02*
X10452000Y20771000D01*
X4548000Y20771000D02*
X6460000Y20771000D01*
X8540000Y20731000D02*
X10470000Y20731000D01*
X4530000Y20731000D02*
X6460000Y20731000D01*
X8540000Y20691000D02*
X10486000Y20691000D01*
X4514000Y20691000D02*
X6460000Y20691000D01*
X8540000Y20651000D02*
X10502000Y20651000D01*
X4498000Y20651000D02*
X6460000Y20651000D01*
X8540000Y20611000D02*
X10518000Y20611000D01*
X4482000Y20611000D02*
X6460000Y20611000D01*
X8540000Y20571000D02*
X10533000Y20571000D01*
X4467000Y20571000D02*
X6460000Y20571000D01*
X8540000Y20531000D02*
X10547000Y20531000D01*
X4453000Y20531000D02*
X6460000Y20531000D01*
X8540000Y20491000D02*
X10561000Y20491000D01*
X4439000Y20491000D02*
X6460000Y20491000D01*
X8540000Y20451000D02*
X10574000Y20451000D01*
X4426000Y20451000D02*
X6460000Y20451000D01*
X8540000Y20411000D02*
X10586000Y20411000D01*
X4414000Y20411000D02*
X6460000Y20411000D01*
X8540000Y20371000D02*
X10598000Y20371000D01*
X4402000Y20371000D02*
X6460000Y20371000D01*
X8540000Y20331000D02*
X10610000Y20331000D01*
X4390000Y20331000D02*
X6460000Y20331000D01*
X8540000Y20291000D02*
X10621000Y20291000D01*
X4379000Y20291000D02*
X6460000Y20291000D01*
X8540000Y20251000D02*
X10631000Y20251000D01*
X4369000Y20251000D02*
X6460000Y20251000D01*
X8540000Y20211000D02*
X10641000Y20211000D01*
X4359000Y20211000D02*
X6460000Y20211000D01*
X8540000Y20171000D02*
X10650000Y20171000D01*
X4350000Y20171000D02*
X6460000Y20171000D01*
X8540000Y20130000D02*
X10659000Y20130000D01*
X4341000Y20130000D02*
X6460000Y20130000D01*
X8540000Y20090000D02*
X10667000Y20090000D01*
X4333000Y20090000D02*
X6460000Y20090000D01*
X8540000Y20050000D02*
X10675000Y20050000D01*
X4325000Y20050000D02*
X6460000Y20050000D01*
X8540000Y20010000D02*
X10682000Y20010000D01*
X4318000Y20010000D02*
X6460000Y20010000D01*
X8540000Y19970000D02*
X10689000Y19970000D01*
X4311000Y19970000D02*
X6460000Y19970000D01*
X8540000Y19930000D02*
X10695000Y19930000D01*
X4305000Y19930000D02*
X6460000Y19930000D01*
X8540000Y19890000D02*
X10701000Y19890000D01*
X4299000Y19890000D02*
X6460000Y19890000D01*
X8540000Y19850000D02*
X10706000Y19850000D01*
X4294000Y19850000D02*
X6460000Y19850000D01*
X8540000Y19810000D02*
X10711000Y19810000D01*
X4289000Y19810000D02*
X6460000Y19810000D01*
X8540000Y19770000D02*
X10715000Y19770000D01*
X4285000Y19770000D02*
X6460000Y19770000D01*
X8540000Y19730000D02*
X10718000Y19730000D01*
X4282000Y19730000D02*
X6460000Y19730000D01*
X8540000Y19690000D02*
X10722000Y19690000D01*
X4278000Y19690000D02*
X6460000Y19690000D01*
X4276000Y19650000D02*
X10724000Y19650000D01*
X4273000Y19610000D02*
X10727000Y19610000D01*
X4272000Y19570000D02*
X10728000Y19570000D01*
X4270000Y19530000D02*
X10730000Y19530000D01*
X4270000Y19490000D02*
X10730000Y19490000D01*
X4270000Y19450000D02*
X10730000Y19450000D01*
X10770000Y19450000D02*
G75*
G03X10770000Y19450000I-3270000J0D01*
G01*
X1210000Y11370000D02*
X3870000Y11370000D01*
X1210000Y21590000D02*
X1210000Y11370000D01*
X3870000Y21590000D02*
X3870000Y11370000D01*
X1210000Y21590000D02*
X3870000Y21590000D01*
X1210000Y22860000D02*
X1210000Y24190000D01*
X1210000Y24190000D02*
X2540000Y24190000D01*
X36890000Y31690000D02*
X36890000Y34350000D01*
X34290000Y31690000D02*
X36890000Y31690000D01*
X34290000Y34350000D02*
X36890000Y34350000D01*
X34290000Y31690000D02*
X34290000Y34350000D01*
X33020000Y31690000D02*
X31690000Y31690000D01*
X31690000Y31690000D02*
X31690000Y33020000D01*
X16861252Y20910000D02*
X16338748Y20910000D01*
X16861252Y19490000D02*
X16338748Y19490000D01*
X37161252Y1890000D02*
X36638748Y1890000D01*
X37161252Y3310000D02*
X36638748Y3310000D01*
X57290000Y15861252D02*
X57290000Y15338748D01*
X58710000Y15861252D02*
X58710000Y15338748D01*
X57290000Y19761252D02*
X57290000Y19238748D01*
X58710000Y19761252D02*
X58710000Y19238748D01*
X56410000Y19761252D02*
X56410000Y19238748D01*
X54990000Y19761252D02*
X54990000Y19238748D01*
X45390000Y17961252D02*
X45390000Y17438748D01*
X46810000Y17961252D02*
X46810000Y17438748D01*
X8830000Y6290000D02*
X8830000Y7620000D01*
X10160000Y6290000D02*
X8830000Y6290000D01*
X11430000Y6290000D02*
X11430000Y8950000D01*
X11430000Y8950000D02*
X16570000Y8950000D01*
X11430000Y6290000D02*
X16570000Y6290000D01*
X16570000Y6290000D02*
X16570000Y8950000D01*
X16570000Y3870000D02*
X16570000Y2540000D01*
X15240000Y3870000D02*
X16570000Y3870000D01*
X13970000Y3870000D02*
X13970000Y1210000D01*
X13970000Y1210000D02*
X8830000Y1210000D01*
X13970000Y3870000D02*
X8830000Y3870000D01*
X8830000Y3870000D02*
X8830000Y1210000D01*
X34350000Y1210000D02*
X34350000Y3870000D01*
X29210000Y1210000D02*
X34350000Y1210000D01*
X29210000Y3870000D02*
X34350000Y3870000D01*
X29210000Y1210000D02*
X29210000Y3870000D01*
X27940000Y1210000D02*
X26610000Y1210000D01*
X26610000Y1210000D02*
X26610000Y2540000D01*
X23510000Y6290000D02*
X23510000Y7620000D01*
X24840000Y6290000D02*
X23510000Y6290000D01*
X26110000Y6290000D02*
X26110000Y8950000D01*
X26110000Y8950000D02*
X38870000Y8950000D01*
X26110000Y6290000D02*
X38870000Y6290000D01*
X38870000Y6290000D02*
X38870000Y8950000D01*
X59630000Y8830000D02*
X62290000Y8830000D01*
X59630000Y13970000D02*
X59630000Y8830000D01*
X62290000Y13970000D02*
X62290000Y8830000D01*
X59630000Y13970000D02*
X62290000Y13970000D01*
X59630000Y15240000D02*
X59630000Y16570000D01*
X59630000Y16570000D02*
X60960000Y16570000D01*
X62290000Y26730000D02*
X59630000Y26730000D01*
X62290000Y21590000D02*
X62290000Y26730000D01*
X59630000Y21590000D02*
X59630000Y26730000D01*
X62290000Y21590000D02*
X59630000Y21590000D01*
X62290000Y20320000D02*
X62290000Y18990000D01*
X62290000Y18990000D02*
X60960000Y18990000D01*
X46930000Y1210000D02*
X46930000Y2540000D01*
X48260000Y1210000D02*
X46930000Y1210000D01*
X49530000Y1210000D02*
X49530000Y3870000D01*
X49530000Y3870000D02*
X54670000Y3870000D01*
X49530000Y1210000D02*
X54670000Y1210000D01*
X54670000Y1210000D02*
X54670000Y3870000D01*
X57210000Y6290000D02*
X57210000Y8950000D01*
X44450000Y6290000D02*
X57210000Y6290000D01*
X44450000Y8950000D02*
X57210000Y8950000D01*
X44450000Y6290000D02*
X44450000Y8950000D01*
X43180000Y6290000D02*
X41850000Y6290000D01*
X41850000Y6290000D02*
X41850000Y7620000D01*
X18990000Y6410000D02*
X20320000Y6410000D01*
X18990000Y5080000D02*
X18990000Y6410000D01*
X18990000Y3810000D02*
X21650000Y3810000D01*
X21650000Y3810000D02*
X21650000Y1210000D01*
X18990000Y3810000D02*
X18990000Y1210000D01*
X18990000Y1210000D02*
X21650000Y1210000D01*
X56650000Y32390000D02*
X46370000Y32390000D01*
X56650000Y21990000D02*
X56650000Y32390000D01*
X46370000Y21990000D02*
X56650000Y21990000D01*
X46370000Y32390000D02*
X46370000Y21990000D01*
X54160000Y32330000D02*
X52510000Y32330000D01*
X54160000Y22050000D02*
X54160000Y32330000D01*
X48860000Y22050000D02*
X54160000Y22050000D01*
X48860000Y32330000D02*
X48860000Y22050000D01*
X50510000Y32330000D02*
X48860000Y32330000D01*
X52510000Y32330000D02*
G75*
G02X50510000Y32330000I-1000000J0D01*
G01*
X40610000Y22730000D02*
G75*
G02X38610000Y22730000I-1000000J0D01*
G01*
X38610000Y22730000D02*
X36960000Y22730000D01*
X36960000Y22730000D02*
X36960000Y12450000D01*
X36960000Y12450000D02*
X42260000Y12450000D01*
X42260000Y12450000D02*
X42260000Y22730000D01*
X42260000Y22730000D02*
X40610000Y22730000D01*
X34470000Y22790000D02*
X34470000Y12390000D01*
X34470000Y12390000D02*
X44750000Y12390000D01*
X44750000Y12390000D02*
X44750000Y22790000D01*
X44750000Y22790000D02*
X34470000Y22790000D01*
X39800000Y33750000D02*
X39800000Y29850000D01*
X37800000Y33750000D02*
X37800000Y29850000D01*
X39800000Y33750000D02*
X37800000Y33750000D01*
X34050000Y27950000D02*
X34050000Y29950000D01*
X34050000Y29950000D02*
X30150000Y29950000D01*
X34050000Y27950000D02*
X30150000Y27950000D01*
X42400000Y33750000D02*
X40400000Y33750000D01*
X40400000Y33750000D02*
X40400000Y29850000D01*
X42400000Y33750000D02*
X42400000Y29850000D01*
D10*
X20257142Y11233333D02*
X20304761Y11185714D01*
X20352380Y11042857D01*
X20352380Y10947619D01*
X20304761Y10804761D01*
X20209523Y10709523D01*
X20114285Y10661904D01*
X19923809Y10614285D01*
X19780952Y10614285D01*
X19590476Y10661904D01*
X19495238Y10709523D01*
X19400000Y10804761D01*
X19352380Y10947619D01*
X19352380Y11042857D01*
X19400000Y11185714D01*
X19447619Y11233333D01*
X19352380Y12138095D02*
X19352380Y11661904D01*
X19828571Y11614285D01*
X19780952Y11661904D01*
X19733333Y11757142D01*
X19733333Y11995238D01*
X19780952Y12090476D01*
X19828571Y12138095D01*
X19923809Y12185714D01*
X20161904Y12185714D01*
X20257142Y12138095D01*
X20304761Y12090476D01*
X20352380Y11995238D01*
X20352380Y11757142D01*
X20304761Y11661904D01*
X20257142Y11614285D01*
X21957142Y24657142D02*
X22004761Y24609523D01*
X22052380Y24466666D01*
X22052380Y24371428D01*
X22004761Y24228571D01*
X21909523Y24133333D01*
X21814285Y24085714D01*
X21623809Y24038095D01*
X21480952Y24038095D01*
X21290476Y24085714D01*
X21195238Y24133333D01*
X21100000Y24228571D01*
X21052380Y24371428D01*
X21052380Y24466666D01*
X21100000Y24609523D01*
X21147619Y24657142D01*
X22052380Y25609523D02*
X22052380Y25038095D01*
X22052380Y25323809D02*
X21052380Y25323809D01*
X21195238Y25228571D01*
X21290476Y25133333D01*
X21338095Y25038095D01*
X21052380Y26228571D02*
X21052380Y26323809D01*
X21100000Y26419047D01*
X21147619Y26466666D01*
X21242857Y26514285D01*
X21433333Y26561904D01*
X21671428Y26561904D01*
X21861904Y26514285D01*
X21957142Y26466666D01*
X22004761Y26419047D01*
X22052380Y26323809D01*
X22052380Y26228571D01*
X22004761Y26133333D01*
X21957142Y26085714D01*
X21861904Y26038095D01*
X21671428Y25990476D01*
X21433333Y25990476D01*
X21242857Y26038095D01*
X21147619Y26085714D01*
X21100000Y26133333D01*
X21052380Y26228571D01*
X29107142Y18007142D02*
X29154761Y17959523D01*
X29202380Y17816666D01*
X29202380Y17721428D01*
X29154761Y17578571D01*
X29059523Y17483333D01*
X28964285Y17435714D01*
X28773809Y17388095D01*
X28630952Y17388095D01*
X28440476Y17435714D01*
X28345238Y17483333D01*
X28250000Y17578571D01*
X28202380Y17721428D01*
X28202380Y17816666D01*
X28250000Y17959523D01*
X28297619Y18007142D01*
X29202380Y18959523D02*
X29202380Y18388095D01*
X29202380Y18673809D02*
X28202380Y18673809D01*
X28345238Y18578571D01*
X28440476Y18483333D01*
X28488095Y18388095D01*
X28297619Y19340476D02*
X28250000Y19388095D01*
X28202380Y19483333D01*
X28202380Y19721428D01*
X28250000Y19816666D01*
X28297619Y19864285D01*
X28392857Y19911904D01*
X28488095Y19911904D01*
X28630952Y19864285D01*
X29202380Y19292857D01*
X29202380Y19911904D01*
X19952380Y24657142D02*
X19476190Y24323809D01*
X19952380Y24085714D02*
X18952380Y24085714D01*
X18952380Y24466666D01*
X19000000Y24561904D01*
X19047619Y24609523D01*
X19142857Y24657142D01*
X19285714Y24657142D01*
X19380952Y24609523D01*
X19428571Y24561904D01*
X19476190Y24466666D01*
X19476190Y24085714D01*
X19952380Y25609523D02*
X19952380Y25038095D01*
X19952380Y25323809D02*
X18952380Y25323809D01*
X19095238Y25228571D01*
X19190476Y25133333D01*
X19238095Y25038095D01*
X19285714Y26466666D02*
X19952380Y26466666D01*
X18904761Y26228571D02*
X19619047Y25990476D01*
X19619047Y26609523D01*
X12288095Y35377619D02*
X12288095Y34568095D01*
X12335714Y34472857D01*
X12383333Y34425238D01*
X12478571Y34377619D01*
X12669047Y34377619D01*
X12764285Y34425238D01*
X12811904Y34472857D01*
X12859523Y34568095D01*
X12859523Y35377619D01*
X13859523Y34377619D02*
X13288095Y34377619D01*
X13573809Y34377619D02*
X13573809Y35377619D01*
X13478571Y35234761D01*
X13383333Y35139523D01*
X13288095Y35091904D01*
X28657142Y26357142D02*
X28704761Y26309523D01*
X28752380Y26166666D01*
X28752380Y26071428D01*
X28704761Y25928571D01*
X28609523Y25833333D01*
X28514285Y25785714D01*
X28323809Y25738095D01*
X28180952Y25738095D01*
X27990476Y25785714D01*
X27895238Y25833333D01*
X27800000Y25928571D01*
X27752380Y26071428D01*
X27752380Y26166666D01*
X27800000Y26309523D01*
X27847619Y26357142D01*
X28752380Y27309523D02*
X28752380Y26738095D01*
X28752380Y27023809D02*
X27752380Y27023809D01*
X27895238Y26928571D01*
X27990476Y26833333D01*
X28038095Y26738095D01*
X27752380Y28166666D02*
X27752380Y27976190D01*
X27800000Y27880952D01*
X27847619Y27833333D01*
X27990476Y27738095D01*
X28180952Y27690476D01*
X28561904Y27690476D01*
X28657142Y27738095D01*
X28704761Y27785714D01*
X28752380Y27880952D01*
X28752380Y28071428D01*
X28704761Y28166666D01*
X28657142Y28214285D01*
X28561904Y28261904D01*
X28323809Y28261904D01*
X28228571Y28214285D01*
X28180952Y28166666D01*
X28133333Y28071428D01*
X28133333Y27880952D01*
X28180952Y27785714D01*
X28228571Y27738095D01*
X28323809Y27690476D01*
X6657142Y14692857D02*
X6609523Y14645238D01*
X6466666Y14597619D01*
X6371428Y14597619D01*
X6228571Y14645238D01*
X6133333Y14740476D01*
X6085714Y14835714D01*
X6038095Y15026190D01*
X6038095Y15169047D01*
X6085714Y15359523D01*
X6133333Y15454761D01*
X6228571Y15550000D01*
X6371428Y15597619D01*
X6466666Y15597619D01*
X6609523Y15550000D01*
X6657142Y15502380D01*
X7609523Y14597619D02*
X7038095Y14597619D01*
X7323809Y14597619D02*
X7323809Y15597619D01*
X7228571Y15454761D01*
X7133333Y15359523D01*
X7038095Y15311904D01*
X7942857Y15597619D02*
X8609523Y15597619D01*
X8180952Y14597619D01*
X2206666Y25737619D02*
X2206666Y25023333D01*
X2159047Y24880476D01*
X2063809Y24785238D01*
X1920952Y24737619D01*
X1825714Y24737619D01*
X3206666Y24737619D02*
X2635238Y24737619D01*
X2920952Y24737619D02*
X2920952Y25737619D01*
X2825714Y25594761D01*
X2730476Y25499523D01*
X2635238Y25451904D01*
X29852380Y32686666D02*
X30566666Y32686666D01*
X30709523Y32639047D01*
X30804761Y32543809D01*
X30852380Y32400952D01*
X30852380Y32305714D01*
X29947619Y33115238D02*
X29900000Y33162857D01*
X29852380Y33258095D01*
X29852380Y33496190D01*
X29900000Y33591428D01*
X29947619Y33639047D01*
X30042857Y33686666D01*
X30138095Y33686666D01*
X30280952Y33639047D01*
X30852380Y33067619D01*
X30852380Y33686666D01*
X13533333Y19747619D02*
X13200000Y20223809D01*
X12961904Y19747619D02*
X12961904Y20747619D01*
X13342857Y20747619D01*
X13438095Y20700000D01*
X13485714Y20652380D01*
X13533333Y20557142D01*
X13533333Y20414285D01*
X13485714Y20319047D01*
X13438095Y20271428D01*
X13342857Y20223809D01*
X12961904Y20223809D01*
X14390476Y20414285D02*
X14390476Y19747619D01*
X14152380Y20795238D02*
X13914285Y20080952D01*
X14533333Y20080952D01*
X36733333Y497619D02*
X36400000Y973809D01*
X36161904Y497619D02*
X36161904Y1497619D01*
X36542857Y1497619D01*
X36638095Y1450000D01*
X36685714Y1402380D01*
X36733333Y1307142D01*
X36733333Y1164285D01*
X36685714Y1069047D01*
X36638095Y1021428D01*
X36542857Y973809D01*
X36161904Y973809D01*
X37304761Y1069047D02*
X37209523Y1116666D01*
X37161904Y1164285D01*
X37114285Y1259523D01*
X37114285Y1307142D01*
X37161904Y1402380D01*
X37209523Y1450000D01*
X37304761Y1497619D01*
X37495238Y1497619D01*
X37590476Y1450000D01*
X37638095Y1402380D01*
X37685714Y1307142D01*
X37685714Y1259523D01*
X37638095Y1164285D01*
X37590476Y1116666D01*
X37495238Y1069047D01*
X37304761Y1069047D01*
X37209523Y1021428D01*
X37161904Y973809D01*
X37114285Y878571D01*
X37114285Y688095D01*
X37161904Y592857D01*
X37209523Y545238D01*
X37304761Y497619D01*
X37495238Y497619D01*
X37590476Y545238D01*
X37638095Y592857D01*
X37685714Y688095D01*
X37685714Y878571D01*
X37638095Y973809D01*
X37590476Y1021428D01*
X37495238Y1069047D01*
X56652380Y15057142D02*
X56176190Y14723809D01*
X56652380Y14485714D02*
X55652380Y14485714D01*
X55652380Y14866666D01*
X55700000Y14961904D01*
X55747619Y15009523D01*
X55842857Y15057142D01*
X55985714Y15057142D01*
X56080952Y15009523D01*
X56128571Y14961904D01*
X56176190Y14866666D01*
X56176190Y14485714D01*
X56652380Y16009523D02*
X56652380Y15438095D01*
X56652380Y15723809D02*
X55652380Y15723809D01*
X55795238Y15628571D01*
X55890476Y15533333D01*
X55938095Y15438095D01*
X55747619Y16390476D02*
X55700000Y16438095D01*
X55652380Y16533333D01*
X55652380Y16771428D01*
X55700000Y16866666D01*
X55747619Y16914285D01*
X55842857Y16961904D01*
X55938095Y16961904D01*
X56080952Y16914285D01*
X56652380Y16342857D01*
X56652380Y16961904D01*
X58652380Y22257142D02*
X58176190Y21923809D01*
X58652380Y21685714D02*
X57652380Y21685714D01*
X57652380Y22066666D01*
X57700000Y22161904D01*
X57747619Y22209523D01*
X57842857Y22257142D01*
X57985714Y22257142D01*
X58080952Y22209523D01*
X58128571Y22161904D01*
X58176190Y22066666D01*
X58176190Y21685714D01*
X58652380Y23209523D02*
X58652380Y22638095D01*
X58652380Y22923809D02*
X57652380Y22923809D01*
X57795238Y22828571D01*
X57890476Y22733333D01*
X57938095Y22638095D01*
X57652380Y23542857D02*
X57652380Y24161904D01*
X58033333Y23828571D01*
X58033333Y23971428D01*
X58080952Y24066666D01*
X58128571Y24114285D01*
X58223809Y24161904D01*
X58461904Y24161904D01*
X58557142Y24114285D01*
X58604761Y24066666D01*
X58652380Y23971428D01*
X58652380Y23685714D01*
X58604761Y23590476D01*
X58557142Y23542857D01*
X54452380Y19057142D02*
X53976190Y18723809D01*
X54452380Y18485714D02*
X53452380Y18485714D01*
X53452380Y18866666D01*
X53500000Y18961904D01*
X53547619Y19009523D01*
X53642857Y19057142D01*
X53785714Y19057142D01*
X53880952Y19009523D01*
X53928571Y18961904D01*
X53976190Y18866666D01*
X53976190Y18485714D01*
X54452380Y20009523D02*
X54452380Y19438095D01*
X54452380Y19723809D02*
X53452380Y19723809D01*
X53595238Y19628571D01*
X53690476Y19533333D01*
X53738095Y19438095D01*
X53452380Y20914285D02*
X53452380Y20438095D01*
X53928571Y20390476D01*
X53880952Y20438095D01*
X53833333Y20533333D01*
X53833333Y20771428D01*
X53880952Y20866666D01*
X53928571Y20914285D01*
X54023809Y20961904D01*
X54261904Y20961904D01*
X54357142Y20914285D01*
X54404761Y20866666D01*
X54452380Y20771428D01*
X54452380Y20533333D01*
X54404761Y20438095D01*
X54357142Y20390476D01*
X48202380Y17057142D02*
X47726190Y16723809D01*
X48202380Y16485714D02*
X47202380Y16485714D01*
X47202380Y16866666D01*
X47250000Y16961904D01*
X47297619Y17009523D01*
X47392857Y17057142D01*
X47535714Y17057142D01*
X47630952Y17009523D01*
X47678571Y16961904D01*
X47726190Y16866666D01*
X47726190Y16485714D01*
X47297619Y17438095D02*
X47250000Y17485714D01*
X47202380Y17580952D01*
X47202380Y17819047D01*
X47250000Y17914285D01*
X47297619Y17961904D01*
X47392857Y18009523D01*
X47488095Y18009523D01*
X47630952Y17961904D01*
X48202380Y17390476D01*
X48202380Y18009523D01*
X47202380Y18628571D02*
X47202380Y18723809D01*
X47250000Y18819047D01*
X47297619Y18866666D01*
X47392857Y18914285D01*
X47583333Y18961904D01*
X47821428Y18961904D01*
X48011904Y18914285D01*
X48107142Y18866666D01*
X48154761Y18819047D01*
X48202380Y18723809D01*
X48202380Y18628571D01*
X48154761Y18533333D01*
X48107142Y18485714D01*
X48011904Y18438095D01*
X47821428Y18390476D01*
X47583333Y18390476D01*
X47392857Y18438095D01*
X47297619Y18485714D01*
X47250000Y18533333D01*
X47202380Y18628571D01*
X8282380Y7024761D02*
X7806190Y6691428D01*
X8282380Y6453333D02*
X7282380Y6453333D01*
X7282380Y6834285D01*
X7330000Y6929523D01*
X7377619Y6977142D01*
X7472857Y7024761D01*
X7615714Y7024761D01*
X7710952Y6977142D01*
X7758571Y6929523D01*
X7806190Y6834285D01*
X7806190Y6453333D01*
X7282380Y7310476D02*
X8282380Y7643809D01*
X7282380Y7977142D01*
X8282380Y8834285D02*
X8282380Y8262857D01*
X8282380Y8548571D02*
X7282380Y8548571D01*
X7425238Y8453333D01*
X7520476Y8358095D01*
X7568095Y8262857D01*
X8252380Y2004761D02*
X7776190Y1671428D01*
X8252380Y1433333D02*
X7252380Y1433333D01*
X7252380Y1814285D01*
X7300000Y1909523D01*
X7347619Y1957142D01*
X7442857Y2004761D01*
X7585714Y2004761D01*
X7680952Y1957142D01*
X7728571Y1909523D01*
X7776190Y1814285D01*
X7776190Y1433333D01*
X7252380Y2290476D02*
X8252380Y2623809D01*
X7252380Y2957142D01*
X7347619Y3242857D02*
X7300000Y3290476D01*
X7252380Y3385714D01*
X7252380Y3623809D01*
X7300000Y3719047D01*
X7347619Y3766666D01*
X7442857Y3814285D01*
X7538095Y3814285D01*
X7680952Y3766666D01*
X8252380Y3195238D01*
X8252380Y3814285D01*
X26062380Y1944761D02*
X25586190Y1611428D01*
X26062380Y1373333D02*
X25062380Y1373333D01*
X25062380Y1754285D01*
X25110000Y1849523D01*
X25157619Y1897142D01*
X25252857Y1944761D01*
X25395714Y1944761D01*
X25490952Y1897142D01*
X25538571Y1849523D01*
X25586190Y1754285D01*
X25586190Y1373333D01*
X25062380Y2230476D02*
X26062380Y2563809D01*
X25062380Y2897142D01*
X25062380Y3135238D02*
X25062380Y3754285D01*
X25443333Y3420952D01*
X25443333Y3563809D01*
X25490952Y3659047D01*
X25538571Y3706666D01*
X25633809Y3754285D01*
X25871904Y3754285D01*
X25967142Y3706666D01*
X26014761Y3659047D01*
X26062380Y3563809D01*
X26062380Y3278095D01*
X26014761Y3182857D01*
X25967142Y3135238D01*
X23704761Y9747619D02*
X23371428Y10223809D01*
X23133333Y9747619D02*
X23133333Y10747619D01*
X23514285Y10747619D01*
X23609523Y10700000D01*
X23657142Y10652380D01*
X23704761Y10557142D01*
X23704761Y10414285D01*
X23657142Y10319047D01*
X23609523Y10271428D01*
X23514285Y10223809D01*
X23133333Y10223809D01*
X23990476Y10747619D02*
X24323809Y9747619D01*
X24657142Y10747619D01*
X25419047Y10414285D02*
X25419047Y9747619D01*
X25180952Y10795238D02*
X24942857Y10080952D01*
X25561904Y10080952D01*
X58852380Y9104761D02*
X58376190Y8771428D01*
X58852380Y8533333D02*
X57852380Y8533333D01*
X57852380Y8914285D01*
X57900000Y9009523D01*
X57947619Y9057142D01*
X58042857Y9104761D01*
X58185714Y9104761D01*
X58280952Y9057142D01*
X58328571Y9009523D01*
X58376190Y8914285D01*
X58376190Y8533333D01*
X57852380Y9390476D02*
X58852380Y9723809D01*
X57852380Y10057142D01*
X57852380Y10866666D02*
X57852380Y10390476D01*
X58328571Y10342857D01*
X58280952Y10390476D01*
X58233333Y10485714D01*
X58233333Y10723809D01*
X58280952Y10819047D01*
X58328571Y10866666D01*
X58423809Y10914285D01*
X58661904Y10914285D01*
X58757142Y10866666D01*
X58804761Y10819047D01*
X58852380Y10723809D01*
X58852380Y10485714D01*
X58804761Y10390476D01*
X58757142Y10342857D01*
X60364761Y17537619D02*
X60031428Y18013809D01*
X59793333Y17537619D02*
X59793333Y18537619D01*
X60174285Y18537619D01*
X60269523Y18490000D01*
X60317142Y18442380D01*
X60364761Y18347142D01*
X60364761Y18204285D01*
X60317142Y18109047D01*
X60269523Y18061428D01*
X60174285Y18013809D01*
X59793333Y18013809D01*
X60650476Y18537619D02*
X60983809Y17537619D01*
X61317142Y18537619D01*
X62079047Y18537619D02*
X61888571Y18537619D01*
X61793333Y18490000D01*
X61745714Y18442380D01*
X61650476Y18299523D01*
X61602857Y18109047D01*
X61602857Y17728095D01*
X61650476Y17632857D01*
X61698095Y17585238D01*
X61793333Y17537619D01*
X61983809Y17537619D01*
X62079047Y17585238D01*
X62126666Y17632857D01*
X62174285Y17728095D01*
X62174285Y17966190D01*
X62126666Y18061428D01*
X62079047Y18109047D01*
X61983809Y18156666D01*
X61793333Y18156666D01*
X61698095Y18109047D01*
X61650476Y18061428D01*
X61602857Y17966190D01*
X46052380Y1504761D02*
X45576190Y1171428D01*
X46052380Y933333D02*
X45052380Y933333D01*
X45052380Y1314285D01*
X45100000Y1409523D01*
X45147619Y1457142D01*
X45242857Y1504761D01*
X45385714Y1504761D01*
X45480952Y1457142D01*
X45528571Y1409523D01*
X45576190Y1314285D01*
X45576190Y933333D01*
X45052380Y1790476D02*
X46052380Y2123809D01*
X45052380Y2457142D01*
X45052380Y2695238D02*
X45052380Y3361904D01*
X46052380Y2933333D01*
X41302380Y7024761D02*
X40826190Y6691428D01*
X41302380Y6453333D02*
X40302380Y6453333D01*
X40302380Y6834285D01*
X40350000Y6929523D01*
X40397619Y6977142D01*
X40492857Y7024761D01*
X40635714Y7024761D01*
X40730952Y6977142D01*
X40778571Y6929523D01*
X40826190Y6834285D01*
X40826190Y6453333D01*
X40302380Y7310476D02*
X41302380Y7643809D01*
X40302380Y7977142D01*
X40730952Y8453333D02*
X40683333Y8358095D01*
X40635714Y8310476D01*
X40540476Y8262857D01*
X40492857Y8262857D01*
X40397619Y8310476D01*
X40350000Y8358095D01*
X40302380Y8453333D01*
X40302380Y8643809D01*
X40350000Y8739047D01*
X40397619Y8786666D01*
X40492857Y8834285D01*
X40540476Y8834285D01*
X40635714Y8786666D01*
X40683333Y8739047D01*
X40730952Y8643809D01*
X40730952Y8453333D01*
X40778571Y8358095D01*
X40826190Y8310476D01*
X40921428Y8262857D01*
X41111904Y8262857D01*
X41207142Y8310476D01*
X41254761Y8358095D01*
X41302380Y8453333D01*
X41302380Y8643809D01*
X41254761Y8739047D01*
X41207142Y8786666D01*
X41111904Y8834285D01*
X40921428Y8834285D01*
X40826190Y8786666D01*
X40778571Y8739047D01*
X40730952Y8643809D01*
X18204761Y1166666D02*
X18252380Y1309523D01*
X18252380Y1547619D01*
X18204761Y1642857D01*
X18157142Y1690476D01*
X18061904Y1738095D01*
X17966666Y1738095D01*
X17871428Y1690476D01*
X17823809Y1642857D01*
X17776190Y1547619D01*
X17728571Y1357142D01*
X17680952Y1261904D01*
X17633333Y1214285D01*
X17538095Y1166666D01*
X17442857Y1166666D01*
X17347619Y1214285D01*
X17300000Y1261904D01*
X17252380Y1357142D01*
X17252380Y1595238D01*
X17300000Y1738095D01*
X17252380Y2071428D02*
X18252380Y2309523D01*
X17538095Y2500000D01*
X18252380Y2690476D01*
X17252380Y2928571D01*
X18252380Y3833333D02*
X18252380Y3261904D01*
X18252380Y3547619D02*
X17252380Y3547619D01*
X17395238Y3452380D01*
X17490476Y3357142D01*
X17538095Y3261904D01*
X50748095Y33877619D02*
X50748095Y33068095D01*
X50795714Y32972857D01*
X50843333Y32925238D01*
X50938571Y32877619D01*
X51129047Y32877619D01*
X51224285Y32925238D01*
X51271904Y32972857D01*
X51319523Y33068095D01*
X51319523Y33877619D01*
X51748095Y33782380D02*
X51795714Y33830000D01*
X51890952Y33877619D01*
X52129047Y33877619D01*
X52224285Y33830000D01*
X52271904Y33782380D01*
X52319523Y33687142D01*
X52319523Y33591904D01*
X52271904Y33449047D01*
X51700476Y32877619D01*
X52319523Y32877619D01*
X38848095Y24277619D02*
X38848095Y23468095D01*
X38895714Y23372857D01*
X38943333Y23325238D01*
X39038571Y23277619D01*
X39229047Y23277619D01*
X39324285Y23325238D01*
X39371904Y23372857D01*
X39419523Y23468095D01*
X39419523Y24277619D01*
X39800476Y24277619D02*
X40419523Y24277619D01*
X40086190Y23896666D01*
X40229047Y23896666D01*
X40324285Y23849047D01*
X40371904Y23801428D01*
X40419523Y23706190D01*
X40419523Y23468095D01*
X40371904Y23372857D01*
X40324285Y23325238D01*
X40229047Y23277619D01*
X39943333Y23277619D01*
X39848095Y23325238D01*
X39800476Y23372857D01*
X60238095Y34397619D02*
X60238095Y35397619D01*
X60238095Y34921428D02*
X60809523Y34921428D01*
X60809523Y34397619D02*
X60809523Y35397619D01*
X61809523Y34397619D02*
X61238095Y34397619D01*
X61523809Y34397619D02*
X61523809Y35397619D01*
X61428571Y35254761D01*
X61333333Y35159523D01*
X61238095Y35111904D01*
X3238095Y34397619D02*
X3238095Y35397619D01*
X3238095Y34921428D02*
X3809523Y34921428D01*
X3809523Y34397619D02*
X3809523Y35397619D01*
X4238095Y35302380D02*
X4285714Y35350000D01*
X4380952Y35397619D01*
X4619047Y35397619D01*
X4714285Y35350000D01*
X4761904Y35302380D01*
X4809523Y35207142D01*
X4809523Y35111904D01*
X4761904Y34969047D01*
X4190476Y34397619D01*
X4809523Y34397619D01*
X3238095Y7397619D02*
X3238095Y8397619D01*
X3238095Y7921428D02*
X3809523Y7921428D01*
X3809523Y7397619D02*
X3809523Y8397619D01*
X4190476Y8397619D02*
X4809523Y8397619D01*
X4476190Y8016666D01*
X4619047Y8016666D01*
X4714285Y7969047D01*
X4761904Y7921428D01*
X4809523Y7826190D01*
X4809523Y7588095D01*
X4761904Y7492857D01*
X4714285Y7445238D01*
X4619047Y7397619D01*
X4333333Y7397619D01*
X4238095Y7445238D01*
X4190476Y7492857D01*
X60238095Y7397619D02*
X60238095Y8397619D01*
X60238095Y7921428D02*
X60809523Y7921428D01*
X60809523Y7397619D02*
X60809523Y8397619D01*
X61714285Y8064285D02*
X61714285Y7397619D01*
X61476190Y8445238D02*
X61238095Y7730952D01*
X61857142Y7730952D01*
X39752380Y27361904D02*
X38752380Y27361904D01*
X38752380Y27600000D01*
X38800000Y27742857D01*
X38895238Y27838095D01*
X38990476Y27885714D01*
X39180952Y27933333D01*
X39323809Y27933333D01*
X39514285Y27885714D01*
X39609523Y27838095D01*
X39704761Y27742857D01*
X39752380Y27600000D01*
X39752380Y27361904D01*
X39752380Y28885714D02*
X39752380Y28314285D01*
X39752380Y28600000D02*
X38752380Y28600000D01*
X38895238Y28504761D01*
X38990476Y28409523D01*
X39038095Y28314285D01*
X31061904Y26497619D02*
X31061904Y27497619D01*
X31300000Y27497619D01*
X31442857Y27450000D01*
X31538095Y27354761D01*
X31585714Y27259523D01*
X31633333Y27069047D01*
X31633333Y26926190D01*
X31585714Y26735714D01*
X31538095Y26640476D01*
X31442857Y26545238D01*
X31300000Y26497619D01*
X31061904Y26497619D01*
X32014285Y27402380D02*
X32061904Y27450000D01*
X32157142Y27497619D01*
X32395238Y27497619D01*
X32490476Y27450000D01*
X32538095Y27402380D01*
X32585714Y27307142D01*
X32585714Y27211904D01*
X32538095Y27069047D01*
X31966666Y26497619D01*
X32585714Y26497619D01*
X42452380Y27361904D02*
X41452380Y27361904D01*
X41452380Y27600000D01*
X41500000Y27742857D01*
X41595238Y27838095D01*
X41690476Y27885714D01*
X41880952Y27933333D01*
X42023809Y27933333D01*
X42214285Y27885714D01*
X42309523Y27838095D01*
X42404761Y27742857D01*
X42452380Y27600000D01*
X42452380Y27361904D01*
X41452380Y28266666D02*
X41452380Y28885714D01*
X41833333Y28552380D01*
X41833333Y28695238D01*
X41880952Y28790476D01*
X41928571Y28838095D01*
X42023809Y28885714D01*
X42261904Y28885714D01*
X42357142Y28838095D01*
X42404761Y28790476D01*
X42452380Y28695238D01*
X42452380Y28409523D01*
X42404761Y28314285D01*
X42357142Y28266666D01*
M02*
