G04 #@! TF.GenerationSoftware,KiCad,Pcbnew,(5.1.5)-3*
G04 #@! TF.CreationDate,2020-02-22T22:04:57-05:00*
G04 #@! TF.ProjectId,Semiparametric-EQ,53656d69-7061-4726-916d-65747269632d,rev?*
G04 #@! TF.SameCoordinates,Original*
G04 #@! TF.FileFunction,Paste,Bot*
G04 #@! TF.FilePolarity,Positive*
%FSLAX46Y46*%
G04 Gerber Fmt 4.6, Leading zero omitted, Abs format (unit mm)*
G04 Created by KiCad (PCBNEW (5.1.5)-3) date 2020-02-22 22:04:57*
%MOMM*%
%LPD*%
G04 APERTURE LIST*
%ADD10C,0.100000*%
G04 APERTURE END LIST*
D10*
G36*
X3624505Y27198796D02*
G01*
X3648773Y27195196D01*
X3672572Y27189235D01*
X3695671Y27180970D01*
X3717850Y27170480D01*
X3738893Y27157868D01*
X3758599Y27143253D01*
X3776777Y27126777D01*
X3793253Y27108599D01*
X3807868Y27088893D01*
X3820480Y27067850D01*
X3830970Y27045671D01*
X3839235Y27022572D01*
X3845196Y26998773D01*
X3848796Y26974505D01*
X3850000Y26950001D01*
X3850000Y26049999D01*
X3848796Y26025495D01*
X3845196Y26001227D01*
X3839235Y25977428D01*
X3830970Y25954329D01*
X3820480Y25932150D01*
X3807868Y25911107D01*
X3793253Y25891401D01*
X3776777Y25873223D01*
X3758599Y25856747D01*
X3738893Y25842132D01*
X3717850Y25829520D01*
X3695671Y25819030D01*
X3672572Y25810765D01*
X3648773Y25804804D01*
X3624505Y25801204D01*
X3600001Y25800000D01*
X2949999Y25800000D01*
X2925495Y25801204D01*
X2901227Y25804804D01*
X2877428Y25810765D01*
X2854329Y25819030D01*
X2832150Y25829520D01*
X2811107Y25842132D01*
X2791401Y25856747D01*
X2773223Y25873223D01*
X2756747Y25891401D01*
X2742132Y25911107D01*
X2729520Y25932150D01*
X2719030Y25954329D01*
X2710765Y25977428D01*
X2704804Y26001227D01*
X2701204Y26025495D01*
X2700000Y26049999D01*
X2700000Y26950001D01*
X2701204Y26974505D01*
X2704804Y26998773D01*
X2710765Y27022572D01*
X2719030Y27045671D01*
X2729520Y27067850D01*
X2742132Y27088893D01*
X2756747Y27108599D01*
X2773223Y27126777D01*
X2791401Y27143253D01*
X2811107Y27157868D01*
X2832150Y27170480D01*
X2854329Y27180970D01*
X2877428Y27189235D01*
X2901227Y27195196D01*
X2925495Y27198796D01*
X2949999Y27200000D01*
X3600001Y27200000D01*
X3624505Y27198796D01*
G37*
G36*
X5674505Y27198796D02*
G01*
X5698773Y27195196D01*
X5722572Y27189235D01*
X5745671Y27180970D01*
X5767850Y27170480D01*
X5788893Y27157868D01*
X5808599Y27143253D01*
X5826777Y27126777D01*
X5843253Y27108599D01*
X5857868Y27088893D01*
X5870480Y27067850D01*
X5880970Y27045671D01*
X5889235Y27022572D01*
X5895196Y26998773D01*
X5898796Y26974505D01*
X5900000Y26950001D01*
X5900000Y26049999D01*
X5898796Y26025495D01*
X5895196Y26001227D01*
X5889235Y25977428D01*
X5880970Y25954329D01*
X5870480Y25932150D01*
X5857868Y25911107D01*
X5843253Y25891401D01*
X5826777Y25873223D01*
X5808599Y25856747D01*
X5788893Y25842132D01*
X5767850Y25829520D01*
X5745671Y25819030D01*
X5722572Y25810765D01*
X5698773Y25804804D01*
X5674505Y25801204D01*
X5650001Y25800000D01*
X4999999Y25800000D01*
X4975495Y25801204D01*
X4951227Y25804804D01*
X4927428Y25810765D01*
X4904329Y25819030D01*
X4882150Y25829520D01*
X4861107Y25842132D01*
X4841401Y25856747D01*
X4823223Y25873223D01*
X4806747Y25891401D01*
X4792132Y25911107D01*
X4779520Y25932150D01*
X4769030Y25954329D01*
X4760765Y25977428D01*
X4754804Y26001227D01*
X4751204Y26025495D01*
X4750000Y26049999D01*
X4750000Y26950001D01*
X4751204Y26974505D01*
X4754804Y26998773D01*
X4760765Y27022572D01*
X4769030Y27045671D01*
X4779520Y27067850D01*
X4792132Y27088893D01*
X4806747Y27108599D01*
X4823223Y27126777D01*
X4841401Y27143253D01*
X4861107Y27157868D01*
X4882150Y27170480D01*
X4904329Y27180970D01*
X4927428Y27189235D01*
X4951227Y27195196D01*
X4975495Y27198796D01*
X4999999Y27200000D01*
X5650001Y27200000D01*
X5674505Y27198796D01*
G37*
G36*
X12174505Y32598796D02*
G01*
X12198773Y32595196D01*
X12222572Y32589235D01*
X12245671Y32580970D01*
X12267850Y32570480D01*
X12288893Y32557868D01*
X12308599Y32543253D01*
X12326777Y32526777D01*
X12343253Y32508599D01*
X12357868Y32488893D01*
X12370480Y32467850D01*
X12380970Y32445671D01*
X12389235Y32422572D01*
X12395196Y32398773D01*
X12398796Y32374505D01*
X12400000Y32350001D01*
X12400000Y31699999D01*
X12398796Y31675495D01*
X12395196Y31651227D01*
X12389235Y31627428D01*
X12380970Y31604329D01*
X12370480Y31582150D01*
X12357868Y31561107D01*
X12343253Y31541401D01*
X12326777Y31523223D01*
X12308599Y31506747D01*
X12288893Y31492132D01*
X12267850Y31479520D01*
X12245671Y31469030D01*
X12222572Y31460765D01*
X12198773Y31454804D01*
X12174505Y31451204D01*
X12150001Y31450000D01*
X11249999Y31450000D01*
X11225495Y31451204D01*
X11201227Y31454804D01*
X11177428Y31460765D01*
X11154329Y31469030D01*
X11132150Y31479520D01*
X11111107Y31492132D01*
X11091401Y31506747D01*
X11073223Y31523223D01*
X11056747Y31541401D01*
X11042132Y31561107D01*
X11029520Y31582150D01*
X11019030Y31604329D01*
X11010765Y31627428D01*
X11004804Y31651227D01*
X11001204Y31675495D01*
X11000000Y31699999D01*
X11000000Y32350001D01*
X11001204Y32374505D01*
X11004804Y32398773D01*
X11010765Y32422572D01*
X11019030Y32445671D01*
X11029520Y32467850D01*
X11042132Y32488893D01*
X11056747Y32508599D01*
X11073223Y32526777D01*
X11091401Y32543253D01*
X11111107Y32557868D01*
X11132150Y32570480D01*
X11154329Y32580970D01*
X11177428Y32589235D01*
X11201227Y32595196D01*
X11225495Y32598796D01*
X11249999Y32600000D01*
X12150001Y32600000D01*
X12174505Y32598796D01*
G37*
G36*
X12174505Y30548796D02*
G01*
X12198773Y30545196D01*
X12222572Y30539235D01*
X12245671Y30530970D01*
X12267850Y30520480D01*
X12288893Y30507868D01*
X12308599Y30493253D01*
X12326777Y30476777D01*
X12343253Y30458599D01*
X12357868Y30438893D01*
X12370480Y30417850D01*
X12380970Y30395671D01*
X12389235Y30372572D01*
X12395196Y30348773D01*
X12398796Y30324505D01*
X12400000Y30300001D01*
X12400000Y29649999D01*
X12398796Y29625495D01*
X12395196Y29601227D01*
X12389235Y29577428D01*
X12380970Y29554329D01*
X12370480Y29532150D01*
X12357868Y29511107D01*
X12343253Y29491401D01*
X12326777Y29473223D01*
X12308599Y29456747D01*
X12288893Y29442132D01*
X12267850Y29429520D01*
X12245671Y29419030D01*
X12222572Y29410765D01*
X12198773Y29404804D01*
X12174505Y29401204D01*
X12150001Y29400000D01*
X11249999Y29400000D01*
X11225495Y29401204D01*
X11201227Y29404804D01*
X11177428Y29410765D01*
X11154329Y29419030D01*
X11132150Y29429520D01*
X11111107Y29442132D01*
X11091401Y29456747D01*
X11073223Y29473223D01*
X11056747Y29491401D01*
X11042132Y29511107D01*
X11029520Y29532150D01*
X11019030Y29554329D01*
X11010765Y29577428D01*
X11004804Y29601227D01*
X11001204Y29625495D01*
X11000000Y29649999D01*
X11000000Y30300001D01*
X11001204Y30324505D01*
X11004804Y30348773D01*
X11010765Y30372572D01*
X11019030Y30395671D01*
X11029520Y30417850D01*
X11042132Y30438893D01*
X11056747Y30458599D01*
X11073223Y30476777D01*
X11091401Y30493253D01*
X11111107Y30507868D01*
X11132150Y30520480D01*
X11154329Y30530970D01*
X11177428Y30539235D01*
X11201227Y30545196D01*
X11225495Y30548796D01*
X11249999Y30550000D01*
X12150001Y30550000D01*
X12174505Y30548796D01*
G37*
G36*
X14914505Y32898796D02*
G01*
X14938773Y32895196D01*
X14962572Y32889235D01*
X14985671Y32880970D01*
X15007850Y32870480D01*
X15028893Y32857868D01*
X15048599Y32843253D01*
X15066777Y32826777D01*
X15083253Y32808599D01*
X15097868Y32788893D01*
X15110480Y32767850D01*
X15120970Y32745671D01*
X15129235Y32722572D01*
X15135196Y32698773D01*
X15138796Y32674505D01*
X15140000Y32650001D01*
X15140000Y31999999D01*
X15138796Y31975495D01*
X15135196Y31951227D01*
X15129235Y31927428D01*
X15120970Y31904329D01*
X15110480Y31882150D01*
X15097868Y31861107D01*
X15083253Y31841401D01*
X15066777Y31823223D01*
X15048599Y31806747D01*
X15028893Y31792132D01*
X15007850Y31779520D01*
X14985671Y31769030D01*
X14962572Y31760765D01*
X14938773Y31754804D01*
X14914505Y31751204D01*
X14890001Y31750000D01*
X13989999Y31750000D01*
X13965495Y31751204D01*
X13941227Y31754804D01*
X13917428Y31760765D01*
X13894329Y31769030D01*
X13872150Y31779520D01*
X13851107Y31792132D01*
X13831401Y31806747D01*
X13813223Y31823223D01*
X13796747Y31841401D01*
X13782132Y31861107D01*
X13769520Y31882150D01*
X13759030Y31904329D01*
X13750765Y31927428D01*
X13744804Y31951227D01*
X13741204Y31975495D01*
X13740000Y31999999D01*
X13740000Y32650001D01*
X13741204Y32674505D01*
X13744804Y32698773D01*
X13750765Y32722572D01*
X13759030Y32745671D01*
X13769520Y32767850D01*
X13782132Y32788893D01*
X13796747Y32808599D01*
X13813223Y32826777D01*
X13831401Y32843253D01*
X13851107Y32857868D01*
X13872150Y32870480D01*
X13894329Y32880970D01*
X13917428Y32889235D01*
X13941227Y32895196D01*
X13965495Y32898796D01*
X13989999Y32900000D01*
X14890001Y32900000D01*
X14914505Y32898796D01*
G37*
G36*
X14914505Y30848796D02*
G01*
X14938773Y30845196D01*
X14962572Y30839235D01*
X14985671Y30830970D01*
X15007850Y30820480D01*
X15028893Y30807868D01*
X15048599Y30793253D01*
X15066777Y30776777D01*
X15083253Y30758599D01*
X15097868Y30738893D01*
X15110480Y30717850D01*
X15120970Y30695671D01*
X15129235Y30672572D01*
X15135196Y30648773D01*
X15138796Y30624505D01*
X15140000Y30600001D01*
X15140000Y29949999D01*
X15138796Y29925495D01*
X15135196Y29901227D01*
X15129235Y29877428D01*
X15120970Y29854329D01*
X15110480Y29832150D01*
X15097868Y29811107D01*
X15083253Y29791401D01*
X15066777Y29773223D01*
X15048599Y29756747D01*
X15028893Y29742132D01*
X15007850Y29729520D01*
X14985671Y29719030D01*
X14962572Y29710765D01*
X14938773Y29704804D01*
X14914505Y29701204D01*
X14890001Y29700000D01*
X13989999Y29700000D01*
X13965495Y29701204D01*
X13941227Y29704804D01*
X13917428Y29710765D01*
X13894329Y29719030D01*
X13872150Y29729520D01*
X13851107Y29742132D01*
X13831401Y29756747D01*
X13813223Y29773223D01*
X13796747Y29791401D01*
X13782132Y29811107D01*
X13769520Y29832150D01*
X13759030Y29854329D01*
X13750765Y29877428D01*
X13744804Y29901227D01*
X13741204Y29925495D01*
X13740000Y29949999D01*
X13740000Y30600001D01*
X13741204Y30624505D01*
X13744804Y30648773D01*
X13750765Y30672572D01*
X13759030Y30695671D01*
X13769520Y30717850D01*
X13782132Y30738893D01*
X13796747Y30758599D01*
X13813223Y30776777D01*
X13831401Y30793253D01*
X13851107Y30807868D01*
X13872150Y30820480D01*
X13894329Y30830970D01*
X13917428Y30839235D01*
X13941227Y30845196D01*
X13965495Y30848796D01*
X13989999Y30850000D01*
X14890001Y30850000D01*
X14914505Y30848796D01*
G37*
G36*
X12114505Y25448796D02*
G01*
X12138773Y25445196D01*
X12162572Y25439235D01*
X12185671Y25430970D01*
X12207850Y25420480D01*
X12228893Y25407868D01*
X12248599Y25393253D01*
X12266777Y25376777D01*
X12283253Y25358599D01*
X12297868Y25338893D01*
X12310480Y25317850D01*
X12320970Y25295671D01*
X12329235Y25272572D01*
X12335196Y25248773D01*
X12338796Y25224505D01*
X12340000Y25200001D01*
X12340000Y24549999D01*
X12338796Y24525495D01*
X12335196Y24501227D01*
X12329235Y24477428D01*
X12320970Y24454329D01*
X12310480Y24432150D01*
X12297868Y24411107D01*
X12283253Y24391401D01*
X12266777Y24373223D01*
X12248599Y24356747D01*
X12228893Y24342132D01*
X12207850Y24329520D01*
X12185671Y24319030D01*
X12162572Y24310765D01*
X12138773Y24304804D01*
X12114505Y24301204D01*
X12090001Y24300000D01*
X11189999Y24300000D01*
X11165495Y24301204D01*
X11141227Y24304804D01*
X11117428Y24310765D01*
X11094329Y24319030D01*
X11072150Y24329520D01*
X11051107Y24342132D01*
X11031401Y24356747D01*
X11013223Y24373223D01*
X10996747Y24391401D01*
X10982132Y24411107D01*
X10969520Y24432150D01*
X10959030Y24454329D01*
X10950765Y24477428D01*
X10944804Y24501227D01*
X10941204Y24525495D01*
X10940000Y24549999D01*
X10940000Y25200001D01*
X10941204Y25224505D01*
X10944804Y25248773D01*
X10950765Y25272572D01*
X10959030Y25295671D01*
X10969520Y25317850D01*
X10982132Y25338893D01*
X10996747Y25358599D01*
X11013223Y25376777D01*
X11031401Y25393253D01*
X11051107Y25407868D01*
X11072150Y25420480D01*
X11094329Y25430970D01*
X11117428Y25439235D01*
X11141227Y25445196D01*
X11165495Y25448796D01*
X11189999Y25450000D01*
X12090001Y25450000D01*
X12114505Y25448796D01*
G37*
G36*
X12114505Y27498796D02*
G01*
X12138773Y27495196D01*
X12162572Y27489235D01*
X12185671Y27480970D01*
X12207850Y27470480D01*
X12228893Y27457868D01*
X12248599Y27443253D01*
X12266777Y27426777D01*
X12283253Y27408599D01*
X12297868Y27388893D01*
X12310480Y27367850D01*
X12320970Y27345671D01*
X12329235Y27322572D01*
X12335196Y27298773D01*
X12338796Y27274505D01*
X12340000Y27250001D01*
X12340000Y26599999D01*
X12338796Y26575495D01*
X12335196Y26551227D01*
X12329235Y26527428D01*
X12320970Y26504329D01*
X12310480Y26482150D01*
X12297868Y26461107D01*
X12283253Y26441401D01*
X12266777Y26423223D01*
X12248599Y26406747D01*
X12228893Y26392132D01*
X12207850Y26379520D01*
X12185671Y26369030D01*
X12162572Y26360765D01*
X12138773Y26354804D01*
X12114505Y26351204D01*
X12090001Y26350000D01*
X11189999Y26350000D01*
X11165495Y26351204D01*
X11141227Y26354804D01*
X11117428Y26360765D01*
X11094329Y26369030D01*
X11072150Y26379520D01*
X11051107Y26392132D01*
X11031401Y26406747D01*
X11013223Y26423223D01*
X10996747Y26441401D01*
X10982132Y26461107D01*
X10969520Y26482150D01*
X10959030Y26504329D01*
X10950765Y26527428D01*
X10944804Y26551227D01*
X10941204Y26575495D01*
X10940000Y26599999D01*
X10940000Y27250001D01*
X10941204Y27274505D01*
X10944804Y27298773D01*
X10950765Y27322572D01*
X10959030Y27345671D01*
X10969520Y27367850D01*
X10982132Y27388893D01*
X10996747Y27408599D01*
X11013223Y27426777D01*
X11031401Y27443253D01*
X11051107Y27457868D01*
X11072150Y27470480D01*
X11094329Y27480970D01*
X11117428Y27489235D01*
X11141227Y27495196D01*
X11165495Y27498796D01*
X11189999Y27500000D01*
X12090001Y27500000D01*
X12114505Y27498796D01*
G37*
G36*
X18174505Y17448796D02*
G01*
X18198773Y17445196D01*
X18222572Y17439235D01*
X18245671Y17430970D01*
X18267850Y17420480D01*
X18288893Y17407868D01*
X18308599Y17393253D01*
X18326777Y17376777D01*
X18343253Y17358599D01*
X18357868Y17338893D01*
X18370480Y17317850D01*
X18380970Y17295671D01*
X18389235Y17272572D01*
X18395196Y17248773D01*
X18398796Y17224505D01*
X18400000Y17200001D01*
X18400000Y16549999D01*
X18398796Y16525495D01*
X18395196Y16501227D01*
X18389235Y16477428D01*
X18380970Y16454329D01*
X18370480Y16432150D01*
X18357868Y16411107D01*
X18343253Y16391401D01*
X18326777Y16373223D01*
X18308599Y16356747D01*
X18288893Y16342132D01*
X18267850Y16329520D01*
X18245671Y16319030D01*
X18222572Y16310765D01*
X18198773Y16304804D01*
X18174505Y16301204D01*
X18150001Y16300000D01*
X17249999Y16300000D01*
X17225495Y16301204D01*
X17201227Y16304804D01*
X17177428Y16310765D01*
X17154329Y16319030D01*
X17132150Y16329520D01*
X17111107Y16342132D01*
X17091401Y16356747D01*
X17073223Y16373223D01*
X17056747Y16391401D01*
X17042132Y16411107D01*
X17029520Y16432150D01*
X17019030Y16454329D01*
X17010765Y16477428D01*
X17004804Y16501227D01*
X17001204Y16525495D01*
X17000000Y16549999D01*
X17000000Y17200001D01*
X17001204Y17224505D01*
X17004804Y17248773D01*
X17010765Y17272572D01*
X17019030Y17295671D01*
X17029520Y17317850D01*
X17042132Y17338893D01*
X17056747Y17358599D01*
X17073223Y17376777D01*
X17091401Y17393253D01*
X17111107Y17407868D01*
X17132150Y17420480D01*
X17154329Y17430970D01*
X17177428Y17439235D01*
X17201227Y17445196D01*
X17225495Y17448796D01*
X17249999Y17450000D01*
X18150001Y17450000D01*
X18174505Y17448796D01*
G37*
G36*
X18174505Y19498796D02*
G01*
X18198773Y19495196D01*
X18222572Y19489235D01*
X18245671Y19480970D01*
X18267850Y19470480D01*
X18288893Y19457868D01*
X18308599Y19443253D01*
X18326777Y19426777D01*
X18343253Y19408599D01*
X18357868Y19388893D01*
X18370480Y19367850D01*
X18380970Y19345671D01*
X18389235Y19322572D01*
X18395196Y19298773D01*
X18398796Y19274505D01*
X18400000Y19250001D01*
X18400000Y18599999D01*
X18398796Y18575495D01*
X18395196Y18551227D01*
X18389235Y18527428D01*
X18380970Y18504329D01*
X18370480Y18482150D01*
X18357868Y18461107D01*
X18343253Y18441401D01*
X18326777Y18423223D01*
X18308599Y18406747D01*
X18288893Y18392132D01*
X18267850Y18379520D01*
X18245671Y18369030D01*
X18222572Y18360765D01*
X18198773Y18354804D01*
X18174505Y18351204D01*
X18150001Y18350000D01*
X17249999Y18350000D01*
X17225495Y18351204D01*
X17201227Y18354804D01*
X17177428Y18360765D01*
X17154329Y18369030D01*
X17132150Y18379520D01*
X17111107Y18392132D01*
X17091401Y18406747D01*
X17073223Y18423223D01*
X17056747Y18441401D01*
X17042132Y18461107D01*
X17029520Y18482150D01*
X17019030Y18504329D01*
X17010765Y18527428D01*
X17004804Y18551227D01*
X17001204Y18575495D01*
X17000000Y18599999D01*
X17000000Y19250001D01*
X17001204Y19274505D01*
X17004804Y19298773D01*
X17010765Y19322572D01*
X17019030Y19345671D01*
X17029520Y19367850D01*
X17042132Y19388893D01*
X17056747Y19408599D01*
X17073223Y19426777D01*
X17091401Y19443253D01*
X17111107Y19457868D01*
X17132150Y19470480D01*
X17154329Y19480970D01*
X17177428Y19489235D01*
X17201227Y19495196D01*
X17225495Y19498796D01*
X17249999Y19500000D01*
X18150001Y19500000D01*
X18174505Y19498796D01*
G37*
G36*
X31074505Y5898796D02*
G01*
X31098773Y5895196D01*
X31122572Y5889235D01*
X31145671Y5880970D01*
X31167850Y5870480D01*
X31188893Y5857868D01*
X31208599Y5843253D01*
X31226777Y5826777D01*
X31243253Y5808599D01*
X31257868Y5788893D01*
X31270480Y5767850D01*
X31280970Y5745671D01*
X31289235Y5722572D01*
X31295196Y5698773D01*
X31298796Y5674505D01*
X31300000Y5650001D01*
X31300000Y4749999D01*
X31298796Y4725495D01*
X31295196Y4701227D01*
X31289235Y4677428D01*
X31280970Y4654329D01*
X31270480Y4632150D01*
X31257868Y4611107D01*
X31243253Y4591401D01*
X31226777Y4573223D01*
X31208599Y4556747D01*
X31188893Y4542132D01*
X31167850Y4529520D01*
X31145671Y4519030D01*
X31122572Y4510765D01*
X31098773Y4504804D01*
X31074505Y4501204D01*
X31050001Y4500000D01*
X30399999Y4500000D01*
X30375495Y4501204D01*
X30351227Y4504804D01*
X30327428Y4510765D01*
X30304329Y4519030D01*
X30282150Y4529520D01*
X30261107Y4542132D01*
X30241401Y4556747D01*
X30223223Y4573223D01*
X30206747Y4591401D01*
X30192132Y4611107D01*
X30179520Y4632150D01*
X30169030Y4654329D01*
X30160765Y4677428D01*
X30154804Y4701227D01*
X30151204Y4725495D01*
X30150000Y4749999D01*
X30150000Y5650001D01*
X30151204Y5674505D01*
X30154804Y5698773D01*
X30160765Y5722572D01*
X30169030Y5745671D01*
X30179520Y5767850D01*
X30192132Y5788893D01*
X30206747Y5808599D01*
X30223223Y5826777D01*
X30241401Y5843253D01*
X30261107Y5857868D01*
X30282150Y5870480D01*
X30304329Y5880970D01*
X30327428Y5889235D01*
X30351227Y5895196D01*
X30375495Y5898796D01*
X30399999Y5900000D01*
X31050001Y5900000D01*
X31074505Y5898796D01*
G37*
G36*
X29024505Y5898796D02*
G01*
X29048773Y5895196D01*
X29072572Y5889235D01*
X29095671Y5880970D01*
X29117850Y5870480D01*
X29138893Y5857868D01*
X29158599Y5843253D01*
X29176777Y5826777D01*
X29193253Y5808599D01*
X29207868Y5788893D01*
X29220480Y5767850D01*
X29230970Y5745671D01*
X29239235Y5722572D01*
X29245196Y5698773D01*
X29248796Y5674505D01*
X29250000Y5650001D01*
X29250000Y4749999D01*
X29248796Y4725495D01*
X29245196Y4701227D01*
X29239235Y4677428D01*
X29230970Y4654329D01*
X29220480Y4632150D01*
X29207868Y4611107D01*
X29193253Y4591401D01*
X29176777Y4573223D01*
X29158599Y4556747D01*
X29138893Y4542132D01*
X29117850Y4529520D01*
X29095671Y4519030D01*
X29072572Y4510765D01*
X29048773Y4504804D01*
X29024505Y4501204D01*
X29000001Y4500000D01*
X28349999Y4500000D01*
X28325495Y4501204D01*
X28301227Y4504804D01*
X28277428Y4510765D01*
X28254329Y4519030D01*
X28232150Y4529520D01*
X28211107Y4542132D01*
X28191401Y4556747D01*
X28173223Y4573223D01*
X28156747Y4591401D01*
X28142132Y4611107D01*
X28129520Y4632150D01*
X28119030Y4654329D01*
X28110765Y4677428D01*
X28104804Y4701227D01*
X28101204Y4725495D01*
X28100000Y4749999D01*
X28100000Y5650001D01*
X28101204Y5674505D01*
X28104804Y5698773D01*
X28110765Y5722572D01*
X28119030Y5745671D01*
X28129520Y5767850D01*
X28142132Y5788893D01*
X28156747Y5808599D01*
X28173223Y5826777D01*
X28191401Y5843253D01*
X28211107Y5857868D01*
X28232150Y5870480D01*
X28254329Y5880970D01*
X28277428Y5889235D01*
X28301227Y5895196D01*
X28325495Y5898796D01*
X28349999Y5900000D01*
X29000001Y5900000D01*
X29024505Y5898796D01*
G37*
G36*
X35174505Y5898796D02*
G01*
X35198773Y5895196D01*
X35222572Y5889235D01*
X35245671Y5880970D01*
X35267850Y5870480D01*
X35288893Y5857868D01*
X35308599Y5843253D01*
X35326777Y5826777D01*
X35343253Y5808599D01*
X35357868Y5788893D01*
X35370480Y5767850D01*
X35380970Y5745671D01*
X35389235Y5722572D01*
X35395196Y5698773D01*
X35398796Y5674505D01*
X35400000Y5650001D01*
X35400000Y4749999D01*
X35398796Y4725495D01*
X35395196Y4701227D01*
X35389235Y4677428D01*
X35380970Y4654329D01*
X35370480Y4632150D01*
X35357868Y4611107D01*
X35343253Y4591401D01*
X35326777Y4573223D01*
X35308599Y4556747D01*
X35288893Y4542132D01*
X35267850Y4529520D01*
X35245671Y4519030D01*
X35222572Y4510765D01*
X35198773Y4504804D01*
X35174505Y4501204D01*
X35150001Y4500000D01*
X34499999Y4500000D01*
X34475495Y4501204D01*
X34451227Y4504804D01*
X34427428Y4510765D01*
X34404329Y4519030D01*
X34382150Y4529520D01*
X34361107Y4542132D01*
X34341401Y4556747D01*
X34323223Y4573223D01*
X34306747Y4591401D01*
X34292132Y4611107D01*
X34279520Y4632150D01*
X34269030Y4654329D01*
X34260765Y4677428D01*
X34254804Y4701227D01*
X34251204Y4725495D01*
X34250000Y4749999D01*
X34250000Y5650001D01*
X34251204Y5674505D01*
X34254804Y5698773D01*
X34260765Y5722572D01*
X34269030Y5745671D01*
X34279520Y5767850D01*
X34292132Y5788893D01*
X34306747Y5808599D01*
X34323223Y5826777D01*
X34341401Y5843253D01*
X34361107Y5857868D01*
X34382150Y5870480D01*
X34404329Y5880970D01*
X34427428Y5889235D01*
X34451227Y5895196D01*
X34475495Y5898796D01*
X34499999Y5900000D01*
X35150001Y5900000D01*
X35174505Y5898796D01*
G37*
G36*
X33124505Y5898796D02*
G01*
X33148773Y5895196D01*
X33172572Y5889235D01*
X33195671Y5880970D01*
X33217850Y5870480D01*
X33238893Y5857868D01*
X33258599Y5843253D01*
X33276777Y5826777D01*
X33293253Y5808599D01*
X33307868Y5788893D01*
X33320480Y5767850D01*
X33330970Y5745671D01*
X33339235Y5722572D01*
X33345196Y5698773D01*
X33348796Y5674505D01*
X33350000Y5650001D01*
X33350000Y4749999D01*
X33348796Y4725495D01*
X33345196Y4701227D01*
X33339235Y4677428D01*
X33330970Y4654329D01*
X33320480Y4632150D01*
X33307868Y4611107D01*
X33293253Y4591401D01*
X33276777Y4573223D01*
X33258599Y4556747D01*
X33238893Y4542132D01*
X33217850Y4529520D01*
X33195671Y4519030D01*
X33172572Y4510765D01*
X33148773Y4504804D01*
X33124505Y4501204D01*
X33100001Y4500000D01*
X32449999Y4500000D01*
X32425495Y4501204D01*
X32401227Y4504804D01*
X32377428Y4510765D01*
X32354329Y4519030D01*
X32332150Y4529520D01*
X32311107Y4542132D01*
X32291401Y4556747D01*
X32273223Y4573223D01*
X32256747Y4591401D01*
X32242132Y4611107D01*
X32229520Y4632150D01*
X32219030Y4654329D01*
X32210765Y4677428D01*
X32204804Y4701227D01*
X32201204Y4725495D01*
X32200000Y4749999D01*
X32200000Y5650001D01*
X32201204Y5674505D01*
X32204804Y5698773D01*
X32210765Y5722572D01*
X32219030Y5745671D01*
X32229520Y5767850D01*
X32242132Y5788893D01*
X32256747Y5808599D01*
X32273223Y5826777D01*
X32291401Y5843253D01*
X32311107Y5857868D01*
X32332150Y5870480D01*
X32354329Y5880970D01*
X32377428Y5889235D01*
X32401227Y5895196D01*
X32425495Y5898796D01*
X32449999Y5900000D01*
X33100001Y5900000D01*
X33124505Y5898796D01*
G37*
G36*
X53024505Y21498796D02*
G01*
X53048773Y21495196D01*
X53072572Y21489235D01*
X53095671Y21480970D01*
X53117850Y21470480D01*
X53138893Y21457868D01*
X53158599Y21443253D01*
X53176777Y21426777D01*
X53193253Y21408599D01*
X53207868Y21388893D01*
X53220480Y21367850D01*
X53230970Y21345671D01*
X53239235Y21322572D01*
X53245196Y21298773D01*
X53248796Y21274505D01*
X53250000Y21250001D01*
X53250000Y20349999D01*
X53248796Y20325495D01*
X53245196Y20301227D01*
X53239235Y20277428D01*
X53230970Y20254329D01*
X53220480Y20232150D01*
X53207868Y20211107D01*
X53193253Y20191401D01*
X53176777Y20173223D01*
X53158599Y20156747D01*
X53138893Y20142132D01*
X53117850Y20129520D01*
X53095671Y20119030D01*
X53072572Y20110765D01*
X53048773Y20104804D01*
X53024505Y20101204D01*
X53000001Y20100000D01*
X52349999Y20100000D01*
X52325495Y20101204D01*
X52301227Y20104804D01*
X52277428Y20110765D01*
X52254329Y20119030D01*
X52232150Y20129520D01*
X52211107Y20142132D01*
X52191401Y20156747D01*
X52173223Y20173223D01*
X52156747Y20191401D01*
X52142132Y20211107D01*
X52129520Y20232150D01*
X52119030Y20254329D01*
X52110765Y20277428D01*
X52104804Y20301227D01*
X52101204Y20325495D01*
X52100000Y20349999D01*
X52100000Y21250001D01*
X52101204Y21274505D01*
X52104804Y21298773D01*
X52110765Y21322572D01*
X52119030Y21345671D01*
X52129520Y21367850D01*
X52142132Y21388893D01*
X52156747Y21408599D01*
X52173223Y21426777D01*
X52191401Y21443253D01*
X52211107Y21457868D01*
X52232150Y21470480D01*
X52254329Y21480970D01*
X52277428Y21489235D01*
X52301227Y21495196D01*
X52325495Y21498796D01*
X52349999Y21500000D01*
X53000001Y21500000D01*
X53024505Y21498796D01*
G37*
G36*
X55074505Y21498796D02*
G01*
X55098773Y21495196D01*
X55122572Y21489235D01*
X55145671Y21480970D01*
X55167850Y21470480D01*
X55188893Y21457868D01*
X55208599Y21443253D01*
X55226777Y21426777D01*
X55243253Y21408599D01*
X55257868Y21388893D01*
X55270480Y21367850D01*
X55280970Y21345671D01*
X55289235Y21322572D01*
X55295196Y21298773D01*
X55298796Y21274505D01*
X55300000Y21250001D01*
X55300000Y20349999D01*
X55298796Y20325495D01*
X55295196Y20301227D01*
X55289235Y20277428D01*
X55280970Y20254329D01*
X55270480Y20232150D01*
X55257868Y20211107D01*
X55243253Y20191401D01*
X55226777Y20173223D01*
X55208599Y20156747D01*
X55188893Y20142132D01*
X55167850Y20129520D01*
X55145671Y20119030D01*
X55122572Y20110765D01*
X55098773Y20104804D01*
X55074505Y20101204D01*
X55050001Y20100000D01*
X54399999Y20100000D01*
X54375495Y20101204D01*
X54351227Y20104804D01*
X54327428Y20110765D01*
X54304329Y20119030D01*
X54282150Y20129520D01*
X54261107Y20142132D01*
X54241401Y20156747D01*
X54223223Y20173223D01*
X54206747Y20191401D01*
X54192132Y20211107D01*
X54179520Y20232150D01*
X54169030Y20254329D01*
X54160765Y20277428D01*
X54154804Y20301227D01*
X54151204Y20325495D01*
X54150000Y20349999D01*
X54150000Y21250001D01*
X54151204Y21274505D01*
X54154804Y21298773D01*
X54160765Y21322572D01*
X54169030Y21345671D01*
X54179520Y21367850D01*
X54192132Y21388893D01*
X54206747Y21408599D01*
X54223223Y21426777D01*
X54241401Y21443253D01*
X54261107Y21457868D01*
X54282150Y21470480D01*
X54304329Y21480970D01*
X54327428Y21489235D01*
X54351227Y21495196D01*
X54375495Y21498796D01*
X54399999Y21500000D01*
X55050001Y21500000D01*
X55074505Y21498796D01*
G37*
G36*
X50399505Y5698796D02*
G01*
X50423773Y5695196D01*
X50447572Y5689235D01*
X50470671Y5680970D01*
X50492850Y5670480D01*
X50513893Y5657868D01*
X50533599Y5643253D01*
X50551777Y5626777D01*
X50568253Y5608599D01*
X50582868Y5588893D01*
X50595480Y5567850D01*
X50605970Y5545671D01*
X50614235Y5522572D01*
X50620196Y5498773D01*
X50623796Y5474505D01*
X50625000Y5450001D01*
X50625000Y4549999D01*
X50623796Y4525495D01*
X50620196Y4501227D01*
X50614235Y4477428D01*
X50605970Y4454329D01*
X50595480Y4432150D01*
X50582868Y4411107D01*
X50568253Y4391401D01*
X50551777Y4373223D01*
X50533599Y4356747D01*
X50513893Y4342132D01*
X50492850Y4329520D01*
X50470671Y4319030D01*
X50447572Y4310765D01*
X50423773Y4304804D01*
X50399505Y4301204D01*
X50375001Y4300000D01*
X49724999Y4300000D01*
X49700495Y4301204D01*
X49676227Y4304804D01*
X49652428Y4310765D01*
X49629329Y4319030D01*
X49607150Y4329520D01*
X49586107Y4342132D01*
X49566401Y4356747D01*
X49548223Y4373223D01*
X49531747Y4391401D01*
X49517132Y4411107D01*
X49504520Y4432150D01*
X49494030Y4454329D01*
X49485765Y4477428D01*
X49479804Y4501227D01*
X49476204Y4525495D01*
X49475000Y4549999D01*
X49475000Y5450001D01*
X49476204Y5474505D01*
X49479804Y5498773D01*
X49485765Y5522572D01*
X49494030Y5545671D01*
X49504520Y5567850D01*
X49517132Y5588893D01*
X49531747Y5608599D01*
X49548223Y5626777D01*
X49566401Y5643253D01*
X49586107Y5657868D01*
X49607150Y5670480D01*
X49629329Y5680970D01*
X49652428Y5689235D01*
X49676227Y5695196D01*
X49700495Y5698796D01*
X49724999Y5700000D01*
X50375001Y5700000D01*
X50399505Y5698796D01*
G37*
G36*
X48349505Y5698796D02*
G01*
X48373773Y5695196D01*
X48397572Y5689235D01*
X48420671Y5680970D01*
X48442850Y5670480D01*
X48463893Y5657868D01*
X48483599Y5643253D01*
X48501777Y5626777D01*
X48518253Y5608599D01*
X48532868Y5588893D01*
X48545480Y5567850D01*
X48555970Y5545671D01*
X48564235Y5522572D01*
X48570196Y5498773D01*
X48573796Y5474505D01*
X48575000Y5450001D01*
X48575000Y4549999D01*
X48573796Y4525495D01*
X48570196Y4501227D01*
X48564235Y4477428D01*
X48555970Y4454329D01*
X48545480Y4432150D01*
X48532868Y4411107D01*
X48518253Y4391401D01*
X48501777Y4373223D01*
X48483599Y4356747D01*
X48463893Y4342132D01*
X48442850Y4329520D01*
X48420671Y4319030D01*
X48397572Y4310765D01*
X48373773Y4304804D01*
X48349505Y4301204D01*
X48325001Y4300000D01*
X47674999Y4300000D01*
X47650495Y4301204D01*
X47626227Y4304804D01*
X47602428Y4310765D01*
X47579329Y4319030D01*
X47557150Y4329520D01*
X47536107Y4342132D01*
X47516401Y4356747D01*
X47498223Y4373223D01*
X47481747Y4391401D01*
X47467132Y4411107D01*
X47454520Y4432150D01*
X47444030Y4454329D01*
X47435765Y4477428D01*
X47429804Y4501227D01*
X47426204Y4525495D01*
X47425000Y4549999D01*
X47425000Y5450001D01*
X47426204Y5474505D01*
X47429804Y5498773D01*
X47435765Y5522572D01*
X47444030Y5545671D01*
X47454520Y5567850D01*
X47467132Y5588893D01*
X47481747Y5608599D01*
X47498223Y5626777D01*
X47516401Y5643253D01*
X47536107Y5657868D01*
X47557150Y5670480D01*
X47579329Y5680970D01*
X47602428Y5689235D01*
X47626227Y5695196D01*
X47650495Y5698796D01*
X47674999Y5700000D01*
X48325001Y5700000D01*
X48349505Y5698796D01*
G37*
G36*
X50774505Y10778796D02*
G01*
X50798773Y10775196D01*
X50822572Y10769235D01*
X50845671Y10760970D01*
X50867850Y10750480D01*
X50888893Y10737868D01*
X50908599Y10723253D01*
X50926777Y10706777D01*
X50943253Y10688599D01*
X50957868Y10668893D01*
X50970480Y10647850D01*
X50980970Y10625671D01*
X50989235Y10602572D01*
X50995196Y10578773D01*
X50998796Y10554505D01*
X51000000Y10530001D01*
X51000000Y9629999D01*
X50998796Y9605495D01*
X50995196Y9581227D01*
X50989235Y9557428D01*
X50980970Y9534329D01*
X50970480Y9512150D01*
X50957868Y9491107D01*
X50943253Y9471401D01*
X50926777Y9453223D01*
X50908599Y9436747D01*
X50888893Y9422132D01*
X50867850Y9409520D01*
X50845671Y9399030D01*
X50822572Y9390765D01*
X50798773Y9384804D01*
X50774505Y9381204D01*
X50750001Y9380000D01*
X50099999Y9380000D01*
X50075495Y9381204D01*
X50051227Y9384804D01*
X50027428Y9390765D01*
X50004329Y9399030D01*
X49982150Y9409520D01*
X49961107Y9422132D01*
X49941401Y9436747D01*
X49923223Y9453223D01*
X49906747Y9471401D01*
X49892132Y9491107D01*
X49879520Y9512150D01*
X49869030Y9534329D01*
X49860765Y9557428D01*
X49854804Y9581227D01*
X49851204Y9605495D01*
X49850000Y9629999D01*
X49850000Y10530001D01*
X49851204Y10554505D01*
X49854804Y10578773D01*
X49860765Y10602572D01*
X49869030Y10625671D01*
X49879520Y10647850D01*
X49892132Y10668893D01*
X49906747Y10688599D01*
X49923223Y10706777D01*
X49941401Y10723253D01*
X49961107Y10737868D01*
X49982150Y10750480D01*
X50004329Y10760970D01*
X50027428Y10769235D01*
X50051227Y10775196D01*
X50075495Y10778796D01*
X50099999Y10780000D01*
X50750001Y10780000D01*
X50774505Y10778796D01*
G37*
G36*
X48724505Y10778796D02*
G01*
X48748773Y10775196D01*
X48772572Y10769235D01*
X48795671Y10760970D01*
X48817850Y10750480D01*
X48838893Y10737868D01*
X48858599Y10723253D01*
X48876777Y10706777D01*
X48893253Y10688599D01*
X48907868Y10668893D01*
X48920480Y10647850D01*
X48930970Y10625671D01*
X48939235Y10602572D01*
X48945196Y10578773D01*
X48948796Y10554505D01*
X48950000Y10530001D01*
X48950000Y9629999D01*
X48948796Y9605495D01*
X48945196Y9581227D01*
X48939235Y9557428D01*
X48930970Y9534329D01*
X48920480Y9512150D01*
X48907868Y9491107D01*
X48893253Y9471401D01*
X48876777Y9453223D01*
X48858599Y9436747D01*
X48838893Y9422132D01*
X48817850Y9409520D01*
X48795671Y9399030D01*
X48772572Y9390765D01*
X48748773Y9384804D01*
X48724505Y9381204D01*
X48700001Y9380000D01*
X48049999Y9380000D01*
X48025495Y9381204D01*
X48001227Y9384804D01*
X47977428Y9390765D01*
X47954329Y9399030D01*
X47932150Y9409520D01*
X47911107Y9422132D01*
X47891401Y9436747D01*
X47873223Y9453223D01*
X47856747Y9471401D01*
X47842132Y9491107D01*
X47829520Y9512150D01*
X47819030Y9534329D01*
X47810765Y9557428D01*
X47804804Y9581227D01*
X47801204Y9605495D01*
X47800000Y9629999D01*
X47800000Y10530001D01*
X47801204Y10554505D01*
X47804804Y10578773D01*
X47810765Y10602572D01*
X47819030Y10625671D01*
X47829520Y10647850D01*
X47842132Y10668893D01*
X47856747Y10688599D01*
X47873223Y10706777D01*
X47891401Y10723253D01*
X47911107Y10737868D01*
X47932150Y10750480D01*
X47954329Y10760970D01*
X47977428Y10769235D01*
X48001227Y10775196D01*
X48025495Y10778796D01*
X48049999Y10780000D01*
X48700001Y10780000D01*
X48724505Y10778796D01*
G37*
G36*
X53474505Y31598796D02*
G01*
X53498773Y31595196D01*
X53522572Y31589235D01*
X53545671Y31580970D01*
X53567850Y31570480D01*
X53588893Y31557868D01*
X53608599Y31543253D01*
X53626777Y31526777D01*
X53643253Y31508599D01*
X53657868Y31488893D01*
X53670480Y31467850D01*
X53680970Y31445671D01*
X53689235Y31422572D01*
X53695196Y31398773D01*
X53698796Y31374505D01*
X53700000Y31350001D01*
X53700000Y30699999D01*
X53698796Y30675495D01*
X53695196Y30651227D01*
X53689235Y30627428D01*
X53680970Y30604329D01*
X53670480Y30582150D01*
X53657868Y30561107D01*
X53643253Y30541401D01*
X53626777Y30523223D01*
X53608599Y30506747D01*
X53588893Y30492132D01*
X53567850Y30479520D01*
X53545671Y30469030D01*
X53522572Y30460765D01*
X53498773Y30454804D01*
X53474505Y30451204D01*
X53450001Y30450000D01*
X52549999Y30450000D01*
X52525495Y30451204D01*
X52501227Y30454804D01*
X52477428Y30460765D01*
X52454329Y30469030D01*
X52432150Y30479520D01*
X52411107Y30492132D01*
X52391401Y30506747D01*
X52373223Y30523223D01*
X52356747Y30541401D01*
X52342132Y30561107D01*
X52329520Y30582150D01*
X52319030Y30604329D01*
X52310765Y30627428D01*
X52304804Y30651227D01*
X52301204Y30675495D01*
X52300000Y30699999D01*
X52300000Y31350001D01*
X52301204Y31374505D01*
X52304804Y31398773D01*
X52310765Y31422572D01*
X52319030Y31445671D01*
X52329520Y31467850D01*
X52342132Y31488893D01*
X52356747Y31508599D01*
X52373223Y31526777D01*
X52391401Y31543253D01*
X52411107Y31557868D01*
X52432150Y31570480D01*
X52454329Y31580970D01*
X52477428Y31589235D01*
X52501227Y31595196D01*
X52525495Y31598796D01*
X52549999Y31600000D01*
X53450001Y31600000D01*
X53474505Y31598796D01*
G37*
G36*
X53474505Y29548796D02*
G01*
X53498773Y29545196D01*
X53522572Y29539235D01*
X53545671Y29530970D01*
X53567850Y29520480D01*
X53588893Y29507868D01*
X53608599Y29493253D01*
X53626777Y29476777D01*
X53643253Y29458599D01*
X53657868Y29438893D01*
X53670480Y29417850D01*
X53680970Y29395671D01*
X53689235Y29372572D01*
X53695196Y29348773D01*
X53698796Y29324505D01*
X53700000Y29300001D01*
X53700000Y28649999D01*
X53698796Y28625495D01*
X53695196Y28601227D01*
X53689235Y28577428D01*
X53680970Y28554329D01*
X53670480Y28532150D01*
X53657868Y28511107D01*
X53643253Y28491401D01*
X53626777Y28473223D01*
X53608599Y28456747D01*
X53588893Y28442132D01*
X53567850Y28429520D01*
X53545671Y28419030D01*
X53522572Y28410765D01*
X53498773Y28404804D01*
X53474505Y28401204D01*
X53450001Y28400000D01*
X52549999Y28400000D01*
X52525495Y28401204D01*
X52501227Y28404804D01*
X52477428Y28410765D01*
X52454329Y28419030D01*
X52432150Y28429520D01*
X52411107Y28442132D01*
X52391401Y28456747D01*
X52373223Y28473223D01*
X52356747Y28491401D01*
X52342132Y28511107D01*
X52329520Y28532150D01*
X52319030Y28554329D01*
X52310765Y28577428D01*
X52304804Y28601227D01*
X52301204Y28625495D01*
X52300000Y28649999D01*
X52300000Y29300001D01*
X52301204Y29324505D01*
X52304804Y29348773D01*
X52310765Y29372572D01*
X52319030Y29395671D01*
X52329520Y29417850D01*
X52342132Y29438893D01*
X52356747Y29458599D01*
X52373223Y29476777D01*
X52391401Y29493253D01*
X52411107Y29507868D01*
X52432150Y29520480D01*
X52454329Y29530970D01*
X52477428Y29539235D01*
X52501227Y29545196D01*
X52525495Y29548796D01*
X52549999Y29550000D01*
X53450001Y29550000D01*
X53474505Y29548796D01*
G37*
G36*
X50574505Y23898796D02*
G01*
X50598773Y23895196D01*
X50622572Y23889235D01*
X50645671Y23880970D01*
X50667850Y23870480D01*
X50688893Y23857868D01*
X50708599Y23843253D01*
X50726777Y23826777D01*
X50743253Y23808599D01*
X50757868Y23788893D01*
X50770480Y23767850D01*
X50780970Y23745671D01*
X50789235Y23722572D01*
X50795196Y23698773D01*
X50798796Y23674505D01*
X50800000Y23650001D01*
X50800000Y22999999D01*
X50798796Y22975495D01*
X50795196Y22951227D01*
X50789235Y22927428D01*
X50780970Y22904329D01*
X50770480Y22882150D01*
X50757868Y22861107D01*
X50743253Y22841401D01*
X50726777Y22823223D01*
X50708599Y22806747D01*
X50688893Y22792132D01*
X50667850Y22779520D01*
X50645671Y22769030D01*
X50622572Y22760765D01*
X50598773Y22754804D01*
X50574505Y22751204D01*
X50550001Y22750000D01*
X49649999Y22750000D01*
X49625495Y22751204D01*
X49601227Y22754804D01*
X49577428Y22760765D01*
X49554329Y22769030D01*
X49532150Y22779520D01*
X49511107Y22792132D01*
X49491401Y22806747D01*
X49473223Y22823223D01*
X49456747Y22841401D01*
X49442132Y22861107D01*
X49429520Y22882150D01*
X49419030Y22904329D01*
X49410765Y22927428D01*
X49404804Y22951227D01*
X49401204Y22975495D01*
X49400000Y22999999D01*
X49400000Y23650001D01*
X49401204Y23674505D01*
X49404804Y23698773D01*
X49410765Y23722572D01*
X49419030Y23745671D01*
X49429520Y23767850D01*
X49442132Y23788893D01*
X49456747Y23808599D01*
X49473223Y23826777D01*
X49491401Y23843253D01*
X49511107Y23857868D01*
X49532150Y23870480D01*
X49554329Y23880970D01*
X49577428Y23889235D01*
X49601227Y23895196D01*
X49625495Y23898796D01*
X49649999Y23900000D01*
X50550001Y23900000D01*
X50574505Y23898796D01*
G37*
G36*
X50574505Y21848796D02*
G01*
X50598773Y21845196D01*
X50622572Y21839235D01*
X50645671Y21830970D01*
X50667850Y21820480D01*
X50688893Y21807868D01*
X50708599Y21793253D01*
X50726777Y21776777D01*
X50743253Y21758599D01*
X50757868Y21738893D01*
X50770480Y21717850D01*
X50780970Y21695671D01*
X50789235Y21672572D01*
X50795196Y21648773D01*
X50798796Y21624505D01*
X50800000Y21600001D01*
X50800000Y20949999D01*
X50798796Y20925495D01*
X50795196Y20901227D01*
X50789235Y20877428D01*
X50780970Y20854329D01*
X50770480Y20832150D01*
X50757868Y20811107D01*
X50743253Y20791401D01*
X50726777Y20773223D01*
X50708599Y20756747D01*
X50688893Y20742132D01*
X50667850Y20729520D01*
X50645671Y20719030D01*
X50622572Y20710765D01*
X50598773Y20704804D01*
X50574505Y20701204D01*
X50550001Y20700000D01*
X49649999Y20700000D01*
X49625495Y20701204D01*
X49601227Y20704804D01*
X49577428Y20710765D01*
X49554329Y20719030D01*
X49532150Y20729520D01*
X49511107Y20742132D01*
X49491401Y20756747D01*
X49473223Y20773223D01*
X49456747Y20791401D01*
X49442132Y20811107D01*
X49429520Y20832150D01*
X49419030Y20854329D01*
X49410765Y20877428D01*
X49404804Y20901227D01*
X49401204Y20925495D01*
X49400000Y20949999D01*
X49400000Y21600001D01*
X49401204Y21624505D01*
X49404804Y21648773D01*
X49410765Y21672572D01*
X49419030Y21695671D01*
X49429520Y21717850D01*
X49442132Y21738893D01*
X49456747Y21758599D01*
X49473223Y21776777D01*
X49491401Y21793253D01*
X49511107Y21807868D01*
X49532150Y21820480D01*
X49554329Y21830970D01*
X49577428Y21839235D01*
X49601227Y21845196D01*
X49625495Y21848796D01*
X49649999Y21850000D01*
X50550001Y21850000D01*
X50574505Y21848796D01*
G37*
G36*
X26674505Y17398796D02*
G01*
X26698773Y17395196D01*
X26722572Y17389235D01*
X26745671Y17380970D01*
X26767850Y17370480D01*
X26788893Y17357868D01*
X26808599Y17343253D01*
X26826777Y17326777D01*
X26843253Y17308599D01*
X26857868Y17288893D01*
X26870480Y17267850D01*
X26880970Y17245671D01*
X26889235Y17222572D01*
X26895196Y17198773D01*
X26898796Y17174505D01*
X26900000Y17150001D01*
X26900000Y16499999D01*
X26898796Y16475495D01*
X26895196Y16451227D01*
X26889235Y16427428D01*
X26880970Y16404329D01*
X26870480Y16382150D01*
X26857868Y16361107D01*
X26843253Y16341401D01*
X26826777Y16323223D01*
X26808599Y16306747D01*
X26788893Y16292132D01*
X26767850Y16279520D01*
X26745671Y16269030D01*
X26722572Y16260765D01*
X26698773Y16254804D01*
X26674505Y16251204D01*
X26650001Y16250000D01*
X25749999Y16250000D01*
X25725495Y16251204D01*
X25701227Y16254804D01*
X25677428Y16260765D01*
X25654329Y16269030D01*
X25632150Y16279520D01*
X25611107Y16292132D01*
X25591401Y16306747D01*
X25573223Y16323223D01*
X25556747Y16341401D01*
X25542132Y16361107D01*
X25529520Y16382150D01*
X25519030Y16404329D01*
X25510765Y16427428D01*
X25504804Y16451227D01*
X25501204Y16475495D01*
X25500000Y16499999D01*
X25500000Y17150001D01*
X25501204Y17174505D01*
X25504804Y17198773D01*
X25510765Y17222572D01*
X25519030Y17245671D01*
X25529520Y17267850D01*
X25542132Y17288893D01*
X25556747Y17308599D01*
X25573223Y17326777D01*
X25591401Y17343253D01*
X25611107Y17357868D01*
X25632150Y17370480D01*
X25654329Y17380970D01*
X25677428Y17389235D01*
X25701227Y17395196D01*
X25725495Y17398796D01*
X25749999Y17400000D01*
X26650001Y17400000D01*
X26674505Y17398796D01*
G37*
G36*
X26674505Y15348796D02*
G01*
X26698773Y15345196D01*
X26722572Y15339235D01*
X26745671Y15330970D01*
X26767850Y15320480D01*
X26788893Y15307868D01*
X26808599Y15293253D01*
X26826777Y15276777D01*
X26843253Y15258599D01*
X26857868Y15238893D01*
X26870480Y15217850D01*
X26880970Y15195671D01*
X26889235Y15172572D01*
X26895196Y15148773D01*
X26898796Y15124505D01*
X26900000Y15100001D01*
X26900000Y14449999D01*
X26898796Y14425495D01*
X26895196Y14401227D01*
X26889235Y14377428D01*
X26880970Y14354329D01*
X26870480Y14332150D01*
X26857868Y14311107D01*
X26843253Y14291401D01*
X26826777Y14273223D01*
X26808599Y14256747D01*
X26788893Y14242132D01*
X26767850Y14229520D01*
X26745671Y14219030D01*
X26722572Y14210765D01*
X26698773Y14204804D01*
X26674505Y14201204D01*
X26650001Y14200000D01*
X25749999Y14200000D01*
X25725495Y14201204D01*
X25701227Y14204804D01*
X25677428Y14210765D01*
X25654329Y14219030D01*
X25632150Y14229520D01*
X25611107Y14242132D01*
X25591401Y14256747D01*
X25573223Y14273223D01*
X25556747Y14291401D01*
X25542132Y14311107D01*
X25529520Y14332150D01*
X25519030Y14354329D01*
X25510765Y14377428D01*
X25504804Y14401227D01*
X25501204Y14425495D01*
X25500000Y14449999D01*
X25500000Y15100001D01*
X25501204Y15124505D01*
X25504804Y15148773D01*
X25510765Y15172572D01*
X25519030Y15195671D01*
X25529520Y15217850D01*
X25542132Y15238893D01*
X25556747Y15258599D01*
X25573223Y15276777D01*
X25591401Y15293253D01*
X25611107Y15307868D01*
X25632150Y15320480D01*
X25654329Y15330970D01*
X25677428Y15339235D01*
X25701227Y15345196D01*
X25725495Y15348796D01*
X25749999Y15350000D01*
X26650001Y15350000D01*
X26674505Y15348796D01*
G37*
G36*
X25124505Y5898796D02*
G01*
X25148773Y5895196D01*
X25172572Y5889235D01*
X25195671Y5880970D01*
X25217850Y5870480D01*
X25238893Y5857868D01*
X25258599Y5843253D01*
X25276777Y5826777D01*
X25293253Y5808599D01*
X25307868Y5788893D01*
X25320480Y5767850D01*
X25330970Y5745671D01*
X25339235Y5722572D01*
X25345196Y5698773D01*
X25348796Y5674505D01*
X25350000Y5650001D01*
X25350000Y4749999D01*
X25348796Y4725495D01*
X25345196Y4701227D01*
X25339235Y4677428D01*
X25330970Y4654329D01*
X25320480Y4632150D01*
X25307868Y4611107D01*
X25293253Y4591401D01*
X25276777Y4573223D01*
X25258599Y4556747D01*
X25238893Y4542132D01*
X25217850Y4529520D01*
X25195671Y4519030D01*
X25172572Y4510765D01*
X25148773Y4504804D01*
X25124505Y4501204D01*
X25100001Y4500000D01*
X24449999Y4500000D01*
X24425495Y4501204D01*
X24401227Y4504804D01*
X24377428Y4510765D01*
X24354329Y4519030D01*
X24332150Y4529520D01*
X24311107Y4542132D01*
X24291401Y4556747D01*
X24273223Y4573223D01*
X24256747Y4591401D01*
X24242132Y4611107D01*
X24229520Y4632150D01*
X24219030Y4654329D01*
X24210765Y4677428D01*
X24204804Y4701227D01*
X24201204Y4725495D01*
X24200000Y4749999D01*
X24200000Y5650001D01*
X24201204Y5674505D01*
X24204804Y5698773D01*
X24210765Y5722572D01*
X24219030Y5745671D01*
X24229520Y5767850D01*
X24242132Y5788893D01*
X24256747Y5808599D01*
X24273223Y5826777D01*
X24291401Y5843253D01*
X24311107Y5857868D01*
X24332150Y5870480D01*
X24354329Y5880970D01*
X24377428Y5889235D01*
X24401227Y5895196D01*
X24425495Y5898796D01*
X24449999Y5900000D01*
X25100001Y5900000D01*
X25124505Y5898796D01*
G37*
G36*
X27174505Y5898796D02*
G01*
X27198773Y5895196D01*
X27222572Y5889235D01*
X27245671Y5880970D01*
X27267850Y5870480D01*
X27288893Y5857868D01*
X27308599Y5843253D01*
X27326777Y5826777D01*
X27343253Y5808599D01*
X27357868Y5788893D01*
X27370480Y5767850D01*
X27380970Y5745671D01*
X27389235Y5722572D01*
X27395196Y5698773D01*
X27398796Y5674505D01*
X27400000Y5650001D01*
X27400000Y4749999D01*
X27398796Y4725495D01*
X27395196Y4701227D01*
X27389235Y4677428D01*
X27380970Y4654329D01*
X27370480Y4632150D01*
X27357868Y4611107D01*
X27343253Y4591401D01*
X27326777Y4573223D01*
X27308599Y4556747D01*
X27288893Y4542132D01*
X27267850Y4529520D01*
X27245671Y4519030D01*
X27222572Y4510765D01*
X27198773Y4504804D01*
X27174505Y4501204D01*
X27150001Y4500000D01*
X26499999Y4500000D01*
X26475495Y4501204D01*
X26451227Y4504804D01*
X26427428Y4510765D01*
X26404329Y4519030D01*
X26382150Y4529520D01*
X26361107Y4542132D01*
X26341401Y4556747D01*
X26323223Y4573223D01*
X26306747Y4591401D01*
X26292132Y4611107D01*
X26279520Y4632150D01*
X26269030Y4654329D01*
X26260765Y4677428D01*
X26254804Y4701227D01*
X26251204Y4725495D01*
X26250000Y4749999D01*
X26250000Y5650001D01*
X26251204Y5674505D01*
X26254804Y5698773D01*
X26260765Y5722572D01*
X26269030Y5745671D01*
X26279520Y5767850D01*
X26292132Y5788893D01*
X26306747Y5808599D01*
X26323223Y5826777D01*
X26341401Y5843253D01*
X26361107Y5857868D01*
X26382150Y5870480D01*
X26404329Y5880970D01*
X26427428Y5889235D01*
X26451227Y5895196D01*
X26475495Y5898796D01*
X26499999Y5900000D01*
X27150001Y5900000D01*
X27174505Y5898796D01*
G37*
G36*
X40494505Y8878796D02*
G01*
X40518773Y8875196D01*
X40542572Y8869235D01*
X40565671Y8860970D01*
X40587850Y8850480D01*
X40608893Y8837868D01*
X40628599Y8823253D01*
X40646777Y8806777D01*
X40663253Y8788599D01*
X40677868Y8768893D01*
X40690480Y8747850D01*
X40700970Y8725671D01*
X40709235Y8702572D01*
X40715196Y8678773D01*
X40718796Y8654505D01*
X40720000Y8630001D01*
X40720000Y7979999D01*
X40718796Y7955495D01*
X40715196Y7931227D01*
X40709235Y7907428D01*
X40700970Y7884329D01*
X40690480Y7862150D01*
X40677868Y7841107D01*
X40663253Y7821401D01*
X40646777Y7803223D01*
X40628599Y7786747D01*
X40608893Y7772132D01*
X40587850Y7759520D01*
X40565671Y7749030D01*
X40542572Y7740765D01*
X40518773Y7734804D01*
X40494505Y7731204D01*
X40470001Y7730000D01*
X39569999Y7730000D01*
X39545495Y7731204D01*
X39521227Y7734804D01*
X39497428Y7740765D01*
X39474329Y7749030D01*
X39452150Y7759520D01*
X39431107Y7772132D01*
X39411401Y7786747D01*
X39393223Y7803223D01*
X39376747Y7821401D01*
X39362132Y7841107D01*
X39349520Y7862150D01*
X39339030Y7884329D01*
X39330765Y7907428D01*
X39324804Y7931227D01*
X39321204Y7955495D01*
X39320000Y7979999D01*
X39320000Y8630001D01*
X39321204Y8654505D01*
X39324804Y8678773D01*
X39330765Y8702572D01*
X39339030Y8725671D01*
X39349520Y8747850D01*
X39362132Y8768893D01*
X39376747Y8788599D01*
X39393223Y8806777D01*
X39411401Y8823253D01*
X39431107Y8837868D01*
X39452150Y8850480D01*
X39474329Y8860970D01*
X39497428Y8869235D01*
X39521227Y8875196D01*
X39545495Y8878796D01*
X39569999Y8880000D01*
X40470001Y8880000D01*
X40494505Y8878796D01*
G37*
G36*
X40494505Y6828796D02*
G01*
X40518773Y6825196D01*
X40542572Y6819235D01*
X40565671Y6810970D01*
X40587850Y6800480D01*
X40608893Y6787868D01*
X40628599Y6773253D01*
X40646777Y6756777D01*
X40663253Y6738599D01*
X40677868Y6718893D01*
X40690480Y6697850D01*
X40700970Y6675671D01*
X40709235Y6652572D01*
X40715196Y6628773D01*
X40718796Y6604505D01*
X40720000Y6580001D01*
X40720000Y5929999D01*
X40718796Y5905495D01*
X40715196Y5881227D01*
X40709235Y5857428D01*
X40700970Y5834329D01*
X40690480Y5812150D01*
X40677868Y5791107D01*
X40663253Y5771401D01*
X40646777Y5753223D01*
X40628599Y5736747D01*
X40608893Y5722132D01*
X40587850Y5709520D01*
X40565671Y5699030D01*
X40542572Y5690765D01*
X40518773Y5684804D01*
X40494505Y5681204D01*
X40470001Y5680000D01*
X39569999Y5680000D01*
X39545495Y5681204D01*
X39521227Y5684804D01*
X39497428Y5690765D01*
X39474329Y5699030D01*
X39452150Y5709520D01*
X39431107Y5722132D01*
X39411401Y5736747D01*
X39393223Y5753223D01*
X39376747Y5771401D01*
X39362132Y5791107D01*
X39349520Y5812150D01*
X39339030Y5834329D01*
X39330765Y5857428D01*
X39324804Y5881227D01*
X39321204Y5905495D01*
X39320000Y5929999D01*
X39320000Y6580001D01*
X39321204Y6604505D01*
X39324804Y6628773D01*
X39330765Y6652572D01*
X39339030Y6675671D01*
X39349520Y6697850D01*
X39362132Y6718893D01*
X39376747Y6738599D01*
X39393223Y6756777D01*
X39411401Y6773253D01*
X39431107Y6787868D01*
X39452150Y6800480D01*
X39474329Y6810970D01*
X39497428Y6819235D01*
X39521227Y6825196D01*
X39545495Y6828796D01*
X39569999Y6830000D01*
X40470001Y6830000D01*
X40494505Y6828796D01*
G37*
G36*
X20374505Y17448796D02*
G01*
X20398773Y17445196D01*
X20422572Y17439235D01*
X20445671Y17430970D01*
X20467850Y17420480D01*
X20488893Y17407868D01*
X20508599Y17393253D01*
X20526777Y17376777D01*
X20543253Y17358599D01*
X20557868Y17338893D01*
X20570480Y17317850D01*
X20580970Y17295671D01*
X20589235Y17272572D01*
X20595196Y17248773D01*
X20598796Y17224505D01*
X20600000Y17200001D01*
X20600000Y16549999D01*
X20598796Y16525495D01*
X20595196Y16501227D01*
X20589235Y16477428D01*
X20580970Y16454329D01*
X20570480Y16432150D01*
X20557868Y16411107D01*
X20543253Y16391401D01*
X20526777Y16373223D01*
X20508599Y16356747D01*
X20488893Y16342132D01*
X20467850Y16329520D01*
X20445671Y16319030D01*
X20422572Y16310765D01*
X20398773Y16304804D01*
X20374505Y16301204D01*
X20350001Y16300000D01*
X19449999Y16300000D01*
X19425495Y16301204D01*
X19401227Y16304804D01*
X19377428Y16310765D01*
X19354329Y16319030D01*
X19332150Y16329520D01*
X19311107Y16342132D01*
X19291401Y16356747D01*
X19273223Y16373223D01*
X19256747Y16391401D01*
X19242132Y16411107D01*
X19229520Y16432150D01*
X19219030Y16454329D01*
X19210765Y16477428D01*
X19204804Y16501227D01*
X19201204Y16525495D01*
X19200000Y16549999D01*
X19200000Y17200001D01*
X19201204Y17224505D01*
X19204804Y17248773D01*
X19210765Y17272572D01*
X19219030Y17295671D01*
X19229520Y17317850D01*
X19242132Y17338893D01*
X19256747Y17358599D01*
X19273223Y17376777D01*
X19291401Y17393253D01*
X19311107Y17407868D01*
X19332150Y17420480D01*
X19354329Y17430970D01*
X19377428Y17439235D01*
X19401227Y17445196D01*
X19425495Y17448796D01*
X19449999Y17450000D01*
X20350001Y17450000D01*
X20374505Y17448796D01*
G37*
G36*
X20374505Y19498796D02*
G01*
X20398773Y19495196D01*
X20422572Y19489235D01*
X20445671Y19480970D01*
X20467850Y19470480D01*
X20488893Y19457868D01*
X20508599Y19443253D01*
X20526777Y19426777D01*
X20543253Y19408599D01*
X20557868Y19388893D01*
X20570480Y19367850D01*
X20580970Y19345671D01*
X20589235Y19322572D01*
X20595196Y19298773D01*
X20598796Y19274505D01*
X20600000Y19250001D01*
X20600000Y18599999D01*
X20598796Y18575495D01*
X20595196Y18551227D01*
X20589235Y18527428D01*
X20580970Y18504329D01*
X20570480Y18482150D01*
X20557868Y18461107D01*
X20543253Y18441401D01*
X20526777Y18423223D01*
X20508599Y18406747D01*
X20488893Y18392132D01*
X20467850Y18379520D01*
X20445671Y18369030D01*
X20422572Y18360765D01*
X20398773Y18354804D01*
X20374505Y18351204D01*
X20350001Y18350000D01*
X19449999Y18350000D01*
X19425495Y18351204D01*
X19401227Y18354804D01*
X19377428Y18360765D01*
X19354329Y18369030D01*
X19332150Y18379520D01*
X19311107Y18392132D01*
X19291401Y18406747D01*
X19273223Y18423223D01*
X19256747Y18441401D01*
X19242132Y18461107D01*
X19229520Y18482150D01*
X19219030Y18504329D01*
X19210765Y18527428D01*
X19204804Y18551227D01*
X19201204Y18575495D01*
X19200000Y18599999D01*
X19200000Y19250001D01*
X19201204Y19274505D01*
X19204804Y19298773D01*
X19210765Y19322572D01*
X19219030Y19345671D01*
X19229520Y19367850D01*
X19242132Y19388893D01*
X19256747Y19408599D01*
X19273223Y19426777D01*
X19291401Y19443253D01*
X19311107Y19457868D01*
X19332150Y19470480D01*
X19354329Y19480970D01*
X19377428Y19489235D01*
X19401227Y19495196D01*
X19425495Y19498796D01*
X19449999Y19500000D01*
X20350001Y19500000D01*
X20374505Y19498796D01*
G37*
G36*
X33674505Y21298796D02*
G01*
X33698773Y21295196D01*
X33722572Y21289235D01*
X33745671Y21280970D01*
X33767850Y21270480D01*
X33788893Y21257868D01*
X33808599Y21243253D01*
X33826777Y21226777D01*
X33843253Y21208599D01*
X33857868Y21188893D01*
X33870480Y21167850D01*
X33880970Y21145671D01*
X33889235Y21122572D01*
X33895196Y21098773D01*
X33898796Y21074505D01*
X33900000Y21050001D01*
X33900000Y20399999D01*
X33898796Y20375495D01*
X33895196Y20351227D01*
X33889235Y20327428D01*
X33880970Y20304329D01*
X33870480Y20282150D01*
X33857868Y20261107D01*
X33843253Y20241401D01*
X33826777Y20223223D01*
X33808599Y20206747D01*
X33788893Y20192132D01*
X33767850Y20179520D01*
X33745671Y20169030D01*
X33722572Y20160765D01*
X33698773Y20154804D01*
X33674505Y20151204D01*
X33650001Y20150000D01*
X32749999Y20150000D01*
X32725495Y20151204D01*
X32701227Y20154804D01*
X32677428Y20160765D01*
X32654329Y20169030D01*
X32632150Y20179520D01*
X32611107Y20192132D01*
X32591401Y20206747D01*
X32573223Y20223223D01*
X32556747Y20241401D01*
X32542132Y20261107D01*
X32529520Y20282150D01*
X32519030Y20304329D01*
X32510765Y20327428D01*
X32504804Y20351227D01*
X32501204Y20375495D01*
X32500000Y20399999D01*
X32500000Y21050001D01*
X32501204Y21074505D01*
X32504804Y21098773D01*
X32510765Y21122572D01*
X32519030Y21145671D01*
X32529520Y21167850D01*
X32542132Y21188893D01*
X32556747Y21208599D01*
X32573223Y21226777D01*
X32591401Y21243253D01*
X32611107Y21257868D01*
X32632150Y21270480D01*
X32654329Y21280970D01*
X32677428Y21289235D01*
X32701227Y21295196D01*
X32725495Y21298796D01*
X32749999Y21300000D01*
X33650001Y21300000D01*
X33674505Y21298796D01*
G37*
G36*
X33674505Y19248796D02*
G01*
X33698773Y19245196D01*
X33722572Y19239235D01*
X33745671Y19230970D01*
X33767850Y19220480D01*
X33788893Y19207868D01*
X33808599Y19193253D01*
X33826777Y19176777D01*
X33843253Y19158599D01*
X33857868Y19138893D01*
X33870480Y19117850D01*
X33880970Y19095671D01*
X33889235Y19072572D01*
X33895196Y19048773D01*
X33898796Y19024505D01*
X33900000Y19000001D01*
X33900000Y18349999D01*
X33898796Y18325495D01*
X33895196Y18301227D01*
X33889235Y18277428D01*
X33880970Y18254329D01*
X33870480Y18232150D01*
X33857868Y18211107D01*
X33843253Y18191401D01*
X33826777Y18173223D01*
X33808599Y18156747D01*
X33788893Y18142132D01*
X33767850Y18129520D01*
X33745671Y18119030D01*
X33722572Y18110765D01*
X33698773Y18104804D01*
X33674505Y18101204D01*
X33650001Y18100000D01*
X32749999Y18100000D01*
X32725495Y18101204D01*
X32701227Y18104804D01*
X32677428Y18110765D01*
X32654329Y18119030D01*
X32632150Y18129520D01*
X32611107Y18142132D01*
X32591401Y18156747D01*
X32573223Y18173223D01*
X32556747Y18191401D01*
X32542132Y18211107D01*
X32529520Y18232150D01*
X32519030Y18254329D01*
X32510765Y18277428D01*
X32504804Y18301227D01*
X32501204Y18325495D01*
X32500000Y18349999D01*
X32500000Y19000001D01*
X32501204Y19024505D01*
X32504804Y19048773D01*
X32510765Y19072572D01*
X32519030Y19095671D01*
X32529520Y19117850D01*
X32542132Y19138893D01*
X32556747Y19158599D01*
X32573223Y19176777D01*
X32591401Y19193253D01*
X32611107Y19207868D01*
X32632150Y19220480D01*
X32654329Y19230970D01*
X32677428Y19239235D01*
X32701227Y19245196D01*
X32725495Y19248796D01*
X32749999Y19250000D01*
X33650001Y19250000D01*
X33674505Y19248796D01*
G37*
G36*
X38324505Y3298796D02*
G01*
X38348773Y3295196D01*
X38372572Y3289235D01*
X38395671Y3280970D01*
X38417850Y3270480D01*
X38438893Y3257868D01*
X38458599Y3243253D01*
X38476777Y3226777D01*
X38493253Y3208599D01*
X38507868Y3188893D01*
X38520480Y3167850D01*
X38530970Y3145671D01*
X38539235Y3122572D01*
X38545196Y3098773D01*
X38548796Y3074505D01*
X38550000Y3050001D01*
X38550000Y2149999D01*
X38548796Y2125495D01*
X38545196Y2101227D01*
X38539235Y2077428D01*
X38530970Y2054329D01*
X38520480Y2032150D01*
X38507868Y2011107D01*
X38493253Y1991401D01*
X38476777Y1973223D01*
X38458599Y1956747D01*
X38438893Y1942132D01*
X38417850Y1929520D01*
X38395671Y1919030D01*
X38372572Y1910765D01*
X38348773Y1904804D01*
X38324505Y1901204D01*
X38300001Y1900000D01*
X37649999Y1900000D01*
X37625495Y1901204D01*
X37601227Y1904804D01*
X37577428Y1910765D01*
X37554329Y1919030D01*
X37532150Y1929520D01*
X37511107Y1942132D01*
X37491401Y1956747D01*
X37473223Y1973223D01*
X37456747Y1991401D01*
X37442132Y2011107D01*
X37429520Y2032150D01*
X37419030Y2054329D01*
X37410765Y2077428D01*
X37404804Y2101227D01*
X37401204Y2125495D01*
X37400000Y2149999D01*
X37400000Y3050001D01*
X37401204Y3074505D01*
X37404804Y3098773D01*
X37410765Y3122572D01*
X37419030Y3145671D01*
X37429520Y3167850D01*
X37442132Y3188893D01*
X37456747Y3208599D01*
X37473223Y3226777D01*
X37491401Y3243253D01*
X37511107Y3257868D01*
X37532150Y3270480D01*
X37554329Y3280970D01*
X37577428Y3289235D01*
X37601227Y3295196D01*
X37625495Y3298796D01*
X37649999Y3300000D01*
X38300001Y3300000D01*
X38324505Y3298796D01*
G37*
G36*
X40374505Y3298796D02*
G01*
X40398773Y3295196D01*
X40422572Y3289235D01*
X40445671Y3280970D01*
X40467850Y3270480D01*
X40488893Y3257868D01*
X40508599Y3243253D01*
X40526777Y3226777D01*
X40543253Y3208599D01*
X40557868Y3188893D01*
X40570480Y3167850D01*
X40580970Y3145671D01*
X40589235Y3122572D01*
X40595196Y3098773D01*
X40598796Y3074505D01*
X40600000Y3050001D01*
X40600000Y2149999D01*
X40598796Y2125495D01*
X40595196Y2101227D01*
X40589235Y2077428D01*
X40580970Y2054329D01*
X40570480Y2032150D01*
X40557868Y2011107D01*
X40543253Y1991401D01*
X40526777Y1973223D01*
X40508599Y1956747D01*
X40488893Y1942132D01*
X40467850Y1929520D01*
X40445671Y1919030D01*
X40422572Y1910765D01*
X40398773Y1904804D01*
X40374505Y1901204D01*
X40350001Y1900000D01*
X39699999Y1900000D01*
X39675495Y1901204D01*
X39651227Y1904804D01*
X39627428Y1910765D01*
X39604329Y1919030D01*
X39582150Y1929520D01*
X39561107Y1942132D01*
X39541401Y1956747D01*
X39523223Y1973223D01*
X39506747Y1991401D01*
X39492132Y2011107D01*
X39479520Y2032150D01*
X39469030Y2054329D01*
X39460765Y2077428D01*
X39454804Y2101227D01*
X39451204Y2125495D01*
X39450000Y2149999D01*
X39450000Y3050001D01*
X39451204Y3074505D01*
X39454804Y3098773D01*
X39460765Y3122572D01*
X39469030Y3145671D01*
X39479520Y3167850D01*
X39492132Y3188893D01*
X39506747Y3208599D01*
X39523223Y3226777D01*
X39541401Y3243253D01*
X39561107Y3257868D01*
X39582150Y3270480D01*
X39604329Y3280970D01*
X39627428Y3289235D01*
X39651227Y3295196D01*
X39675495Y3298796D01*
X39699999Y3300000D01*
X40350001Y3300000D01*
X40374505Y3298796D01*
G37*
G36*
X53374505Y26098796D02*
G01*
X53398773Y26095196D01*
X53422572Y26089235D01*
X53445671Y26080970D01*
X53467850Y26070480D01*
X53488893Y26057868D01*
X53508599Y26043253D01*
X53526777Y26026777D01*
X53543253Y26008599D01*
X53557868Y25988893D01*
X53570480Y25967850D01*
X53580970Y25945671D01*
X53589235Y25922572D01*
X53595196Y25898773D01*
X53598796Y25874505D01*
X53600000Y25850001D01*
X53600000Y25199999D01*
X53598796Y25175495D01*
X53595196Y25151227D01*
X53589235Y25127428D01*
X53580970Y25104329D01*
X53570480Y25082150D01*
X53557868Y25061107D01*
X53543253Y25041401D01*
X53526777Y25023223D01*
X53508599Y25006747D01*
X53488893Y24992132D01*
X53467850Y24979520D01*
X53445671Y24969030D01*
X53422572Y24960765D01*
X53398773Y24954804D01*
X53374505Y24951204D01*
X53350001Y24950000D01*
X52449999Y24950000D01*
X52425495Y24951204D01*
X52401227Y24954804D01*
X52377428Y24960765D01*
X52354329Y24969030D01*
X52332150Y24979520D01*
X52311107Y24992132D01*
X52291401Y25006747D01*
X52273223Y25023223D01*
X52256747Y25041401D01*
X52242132Y25061107D01*
X52229520Y25082150D01*
X52219030Y25104329D01*
X52210765Y25127428D01*
X52204804Y25151227D01*
X52201204Y25175495D01*
X52200000Y25199999D01*
X52200000Y25850001D01*
X52201204Y25874505D01*
X52204804Y25898773D01*
X52210765Y25922572D01*
X52219030Y25945671D01*
X52229520Y25967850D01*
X52242132Y25988893D01*
X52256747Y26008599D01*
X52273223Y26026777D01*
X52291401Y26043253D01*
X52311107Y26057868D01*
X52332150Y26070480D01*
X52354329Y26080970D01*
X52377428Y26089235D01*
X52401227Y26095196D01*
X52425495Y26098796D01*
X52449999Y26100000D01*
X53350001Y26100000D01*
X53374505Y26098796D01*
G37*
G36*
X53374505Y24048796D02*
G01*
X53398773Y24045196D01*
X53422572Y24039235D01*
X53445671Y24030970D01*
X53467850Y24020480D01*
X53488893Y24007868D01*
X53508599Y23993253D01*
X53526777Y23976777D01*
X53543253Y23958599D01*
X53557868Y23938893D01*
X53570480Y23917850D01*
X53580970Y23895671D01*
X53589235Y23872572D01*
X53595196Y23848773D01*
X53598796Y23824505D01*
X53600000Y23800001D01*
X53600000Y23149999D01*
X53598796Y23125495D01*
X53595196Y23101227D01*
X53589235Y23077428D01*
X53580970Y23054329D01*
X53570480Y23032150D01*
X53557868Y23011107D01*
X53543253Y22991401D01*
X53526777Y22973223D01*
X53508599Y22956747D01*
X53488893Y22942132D01*
X53467850Y22929520D01*
X53445671Y22919030D01*
X53422572Y22910765D01*
X53398773Y22904804D01*
X53374505Y22901204D01*
X53350001Y22900000D01*
X52449999Y22900000D01*
X52425495Y22901204D01*
X52401227Y22904804D01*
X52377428Y22910765D01*
X52354329Y22919030D01*
X52332150Y22929520D01*
X52311107Y22942132D01*
X52291401Y22956747D01*
X52273223Y22973223D01*
X52256747Y22991401D01*
X52242132Y23011107D01*
X52229520Y23032150D01*
X52219030Y23054329D01*
X52210765Y23077428D01*
X52204804Y23101227D01*
X52201204Y23125495D01*
X52200000Y23149999D01*
X52200000Y23800001D01*
X52201204Y23824505D01*
X52204804Y23848773D01*
X52210765Y23872572D01*
X52219030Y23895671D01*
X52229520Y23917850D01*
X52242132Y23938893D01*
X52256747Y23958599D01*
X52273223Y23976777D01*
X52291401Y23993253D01*
X52311107Y24007868D01*
X52332150Y24020480D01*
X52354329Y24030970D01*
X52377428Y24039235D01*
X52401227Y24045196D01*
X52425495Y24048796D01*
X52449999Y24050000D01*
X53350001Y24050000D01*
X53374505Y24048796D01*
G37*
G36*
X44224505Y5698796D02*
G01*
X44248773Y5695196D01*
X44272572Y5689235D01*
X44295671Y5680970D01*
X44317850Y5670480D01*
X44338893Y5657868D01*
X44358599Y5643253D01*
X44376777Y5626777D01*
X44393253Y5608599D01*
X44407868Y5588893D01*
X44420480Y5567850D01*
X44430970Y5545671D01*
X44439235Y5522572D01*
X44445196Y5498773D01*
X44448796Y5474505D01*
X44450000Y5450001D01*
X44450000Y4549999D01*
X44448796Y4525495D01*
X44445196Y4501227D01*
X44439235Y4477428D01*
X44430970Y4454329D01*
X44420480Y4432150D01*
X44407868Y4411107D01*
X44393253Y4391401D01*
X44376777Y4373223D01*
X44358599Y4356747D01*
X44338893Y4342132D01*
X44317850Y4329520D01*
X44295671Y4319030D01*
X44272572Y4310765D01*
X44248773Y4304804D01*
X44224505Y4301204D01*
X44200001Y4300000D01*
X43549999Y4300000D01*
X43525495Y4301204D01*
X43501227Y4304804D01*
X43477428Y4310765D01*
X43454329Y4319030D01*
X43432150Y4329520D01*
X43411107Y4342132D01*
X43391401Y4356747D01*
X43373223Y4373223D01*
X43356747Y4391401D01*
X43342132Y4411107D01*
X43329520Y4432150D01*
X43319030Y4454329D01*
X43310765Y4477428D01*
X43304804Y4501227D01*
X43301204Y4525495D01*
X43300000Y4549999D01*
X43300000Y5450001D01*
X43301204Y5474505D01*
X43304804Y5498773D01*
X43310765Y5522572D01*
X43319030Y5545671D01*
X43329520Y5567850D01*
X43342132Y5588893D01*
X43356747Y5608599D01*
X43373223Y5626777D01*
X43391401Y5643253D01*
X43411107Y5657868D01*
X43432150Y5670480D01*
X43454329Y5680970D01*
X43477428Y5689235D01*
X43501227Y5695196D01*
X43525495Y5698796D01*
X43549999Y5700000D01*
X44200001Y5700000D01*
X44224505Y5698796D01*
G37*
G36*
X46274505Y5698796D02*
G01*
X46298773Y5695196D01*
X46322572Y5689235D01*
X46345671Y5680970D01*
X46367850Y5670480D01*
X46388893Y5657868D01*
X46408599Y5643253D01*
X46426777Y5626777D01*
X46443253Y5608599D01*
X46457868Y5588893D01*
X46470480Y5567850D01*
X46480970Y5545671D01*
X46489235Y5522572D01*
X46495196Y5498773D01*
X46498796Y5474505D01*
X46500000Y5450001D01*
X46500000Y4549999D01*
X46498796Y4525495D01*
X46495196Y4501227D01*
X46489235Y4477428D01*
X46480970Y4454329D01*
X46470480Y4432150D01*
X46457868Y4411107D01*
X46443253Y4391401D01*
X46426777Y4373223D01*
X46408599Y4356747D01*
X46388893Y4342132D01*
X46367850Y4329520D01*
X46345671Y4319030D01*
X46322572Y4310765D01*
X46298773Y4304804D01*
X46274505Y4301204D01*
X46250001Y4300000D01*
X45599999Y4300000D01*
X45575495Y4301204D01*
X45551227Y4304804D01*
X45527428Y4310765D01*
X45504329Y4319030D01*
X45482150Y4329520D01*
X45461107Y4342132D01*
X45441401Y4356747D01*
X45423223Y4373223D01*
X45406747Y4391401D01*
X45392132Y4411107D01*
X45379520Y4432150D01*
X45369030Y4454329D01*
X45360765Y4477428D01*
X45354804Y4501227D01*
X45351204Y4525495D01*
X45350000Y4549999D01*
X45350000Y5450001D01*
X45351204Y5474505D01*
X45354804Y5498773D01*
X45360765Y5522572D01*
X45369030Y5545671D01*
X45379520Y5567850D01*
X45392132Y5588893D01*
X45406747Y5608599D01*
X45423223Y5626777D01*
X45441401Y5643253D01*
X45461107Y5657868D01*
X45482150Y5670480D01*
X45504329Y5680970D01*
X45527428Y5689235D01*
X45551227Y5695196D01*
X45575495Y5698796D01*
X45599999Y5700000D01*
X46250001Y5700000D01*
X46274505Y5698796D01*
G37*
G36*
X56874505Y10528796D02*
G01*
X56898773Y10525196D01*
X56922572Y10519235D01*
X56945671Y10510970D01*
X56967850Y10500480D01*
X56988893Y10487868D01*
X57008599Y10473253D01*
X57026777Y10456777D01*
X57043253Y10438599D01*
X57057868Y10418893D01*
X57070480Y10397850D01*
X57080970Y10375671D01*
X57089235Y10352572D01*
X57095196Y10328773D01*
X57098796Y10304505D01*
X57100000Y10280001D01*
X57100000Y9629999D01*
X57098796Y9605495D01*
X57095196Y9581227D01*
X57089235Y9557428D01*
X57080970Y9534329D01*
X57070480Y9512150D01*
X57057868Y9491107D01*
X57043253Y9471401D01*
X57026777Y9453223D01*
X57008599Y9436747D01*
X56988893Y9422132D01*
X56967850Y9409520D01*
X56945671Y9399030D01*
X56922572Y9390765D01*
X56898773Y9384804D01*
X56874505Y9381204D01*
X56850001Y9380000D01*
X55949999Y9380000D01*
X55925495Y9381204D01*
X55901227Y9384804D01*
X55877428Y9390765D01*
X55854329Y9399030D01*
X55832150Y9409520D01*
X55811107Y9422132D01*
X55791401Y9436747D01*
X55773223Y9453223D01*
X55756747Y9471401D01*
X55742132Y9491107D01*
X55729520Y9512150D01*
X55719030Y9534329D01*
X55710765Y9557428D01*
X55704804Y9581227D01*
X55701204Y9605495D01*
X55700000Y9629999D01*
X55700000Y10280001D01*
X55701204Y10304505D01*
X55704804Y10328773D01*
X55710765Y10352572D01*
X55719030Y10375671D01*
X55729520Y10397850D01*
X55742132Y10418893D01*
X55756747Y10438599D01*
X55773223Y10456777D01*
X55791401Y10473253D01*
X55811107Y10487868D01*
X55832150Y10500480D01*
X55854329Y10510970D01*
X55877428Y10519235D01*
X55901227Y10525196D01*
X55925495Y10528796D01*
X55949999Y10530000D01*
X56850001Y10530000D01*
X56874505Y10528796D01*
G37*
G36*
X56874505Y12578796D02*
G01*
X56898773Y12575196D01*
X56922572Y12569235D01*
X56945671Y12560970D01*
X56967850Y12550480D01*
X56988893Y12537868D01*
X57008599Y12523253D01*
X57026777Y12506777D01*
X57043253Y12488599D01*
X57057868Y12468893D01*
X57070480Y12447850D01*
X57080970Y12425671D01*
X57089235Y12402572D01*
X57095196Y12378773D01*
X57098796Y12354505D01*
X57100000Y12330001D01*
X57100000Y11679999D01*
X57098796Y11655495D01*
X57095196Y11631227D01*
X57089235Y11607428D01*
X57080970Y11584329D01*
X57070480Y11562150D01*
X57057868Y11541107D01*
X57043253Y11521401D01*
X57026777Y11503223D01*
X57008599Y11486747D01*
X56988893Y11472132D01*
X56967850Y11459520D01*
X56945671Y11449030D01*
X56922572Y11440765D01*
X56898773Y11434804D01*
X56874505Y11431204D01*
X56850001Y11430000D01*
X55949999Y11430000D01*
X55925495Y11431204D01*
X55901227Y11434804D01*
X55877428Y11440765D01*
X55854329Y11449030D01*
X55832150Y11459520D01*
X55811107Y11472132D01*
X55791401Y11486747D01*
X55773223Y11503223D01*
X55756747Y11521401D01*
X55742132Y11541107D01*
X55729520Y11562150D01*
X55719030Y11584329D01*
X55710765Y11607428D01*
X55704804Y11631227D01*
X55701204Y11655495D01*
X55700000Y11679999D01*
X55700000Y12330001D01*
X55701204Y12354505D01*
X55704804Y12378773D01*
X55710765Y12402572D01*
X55719030Y12425671D01*
X55729520Y12447850D01*
X55742132Y12468893D01*
X55756747Y12488599D01*
X55773223Y12506777D01*
X55791401Y12523253D01*
X55811107Y12537868D01*
X55832150Y12550480D01*
X55854329Y12560970D01*
X55877428Y12569235D01*
X55901227Y12575196D01*
X55925495Y12578796D01*
X55949999Y12580000D01*
X56850001Y12580000D01*
X56874505Y12578796D01*
G37*
G36*
X38674505Y19948796D02*
G01*
X38698773Y19945196D01*
X38722572Y19939235D01*
X38745671Y19930970D01*
X38767850Y19920480D01*
X38788893Y19907868D01*
X38808599Y19893253D01*
X38826777Y19876777D01*
X38843253Y19858599D01*
X38857868Y19838893D01*
X38870480Y19817850D01*
X38880970Y19795671D01*
X38889235Y19772572D01*
X38895196Y19748773D01*
X38898796Y19724505D01*
X38900000Y19700001D01*
X38900000Y19049999D01*
X38898796Y19025495D01*
X38895196Y19001227D01*
X38889235Y18977428D01*
X38880970Y18954329D01*
X38870480Y18932150D01*
X38857868Y18911107D01*
X38843253Y18891401D01*
X38826777Y18873223D01*
X38808599Y18856747D01*
X38788893Y18842132D01*
X38767850Y18829520D01*
X38745671Y18819030D01*
X38722572Y18810765D01*
X38698773Y18804804D01*
X38674505Y18801204D01*
X38650001Y18800000D01*
X37749999Y18800000D01*
X37725495Y18801204D01*
X37701227Y18804804D01*
X37677428Y18810765D01*
X37654329Y18819030D01*
X37632150Y18829520D01*
X37611107Y18842132D01*
X37591401Y18856747D01*
X37573223Y18873223D01*
X37556747Y18891401D01*
X37542132Y18911107D01*
X37529520Y18932150D01*
X37519030Y18954329D01*
X37510765Y18977428D01*
X37504804Y19001227D01*
X37501204Y19025495D01*
X37500000Y19049999D01*
X37500000Y19700001D01*
X37501204Y19724505D01*
X37504804Y19748773D01*
X37510765Y19772572D01*
X37519030Y19795671D01*
X37529520Y19817850D01*
X37542132Y19838893D01*
X37556747Y19858599D01*
X37573223Y19876777D01*
X37591401Y19893253D01*
X37611107Y19907868D01*
X37632150Y19920480D01*
X37654329Y19930970D01*
X37677428Y19939235D01*
X37701227Y19945196D01*
X37725495Y19948796D01*
X37749999Y19950000D01*
X38650001Y19950000D01*
X38674505Y19948796D01*
G37*
G36*
X38674505Y21998796D02*
G01*
X38698773Y21995196D01*
X38722572Y21989235D01*
X38745671Y21980970D01*
X38767850Y21970480D01*
X38788893Y21957868D01*
X38808599Y21943253D01*
X38826777Y21926777D01*
X38843253Y21908599D01*
X38857868Y21888893D01*
X38870480Y21867850D01*
X38880970Y21845671D01*
X38889235Y21822572D01*
X38895196Y21798773D01*
X38898796Y21774505D01*
X38900000Y21750001D01*
X38900000Y21099999D01*
X38898796Y21075495D01*
X38895196Y21051227D01*
X38889235Y21027428D01*
X38880970Y21004329D01*
X38870480Y20982150D01*
X38857868Y20961107D01*
X38843253Y20941401D01*
X38826777Y20923223D01*
X38808599Y20906747D01*
X38788893Y20892132D01*
X38767850Y20879520D01*
X38745671Y20869030D01*
X38722572Y20860765D01*
X38698773Y20854804D01*
X38674505Y20851204D01*
X38650001Y20850000D01*
X37749999Y20850000D01*
X37725495Y20851204D01*
X37701227Y20854804D01*
X37677428Y20860765D01*
X37654329Y20869030D01*
X37632150Y20879520D01*
X37611107Y20892132D01*
X37591401Y20906747D01*
X37573223Y20923223D01*
X37556747Y20941401D01*
X37542132Y20961107D01*
X37529520Y20982150D01*
X37519030Y21004329D01*
X37510765Y21027428D01*
X37504804Y21051227D01*
X37501204Y21075495D01*
X37500000Y21099999D01*
X37500000Y21750001D01*
X37501204Y21774505D01*
X37504804Y21798773D01*
X37510765Y21822572D01*
X37519030Y21845671D01*
X37529520Y21867850D01*
X37542132Y21888893D01*
X37556747Y21908599D01*
X37573223Y21926777D01*
X37591401Y21943253D01*
X37611107Y21957868D01*
X37632150Y21970480D01*
X37654329Y21980970D01*
X37677428Y21989235D01*
X37701227Y21995196D01*
X37725495Y21998796D01*
X37749999Y22000000D01*
X38650001Y22000000D01*
X38674505Y21998796D01*
G37*
G36*
X46574505Y17248796D02*
G01*
X46598773Y17245196D01*
X46622572Y17239235D01*
X46645671Y17230970D01*
X46667850Y17220480D01*
X46688893Y17207868D01*
X46708599Y17193253D01*
X46726777Y17176777D01*
X46743253Y17158599D01*
X46757868Y17138893D01*
X46770480Y17117850D01*
X46780970Y17095671D01*
X46789235Y17072572D01*
X46795196Y17048773D01*
X46798796Y17024505D01*
X46800000Y17000001D01*
X46800000Y16349999D01*
X46798796Y16325495D01*
X46795196Y16301227D01*
X46789235Y16277428D01*
X46780970Y16254329D01*
X46770480Y16232150D01*
X46757868Y16211107D01*
X46743253Y16191401D01*
X46726777Y16173223D01*
X46708599Y16156747D01*
X46688893Y16142132D01*
X46667850Y16129520D01*
X46645671Y16119030D01*
X46622572Y16110765D01*
X46598773Y16104804D01*
X46574505Y16101204D01*
X46550001Y16100000D01*
X45649999Y16100000D01*
X45625495Y16101204D01*
X45601227Y16104804D01*
X45577428Y16110765D01*
X45554329Y16119030D01*
X45532150Y16129520D01*
X45511107Y16142132D01*
X45491401Y16156747D01*
X45473223Y16173223D01*
X45456747Y16191401D01*
X45442132Y16211107D01*
X45429520Y16232150D01*
X45419030Y16254329D01*
X45410765Y16277428D01*
X45404804Y16301227D01*
X45401204Y16325495D01*
X45400000Y16349999D01*
X45400000Y17000001D01*
X45401204Y17024505D01*
X45404804Y17048773D01*
X45410765Y17072572D01*
X45419030Y17095671D01*
X45429520Y17117850D01*
X45442132Y17138893D01*
X45456747Y17158599D01*
X45473223Y17176777D01*
X45491401Y17193253D01*
X45511107Y17207868D01*
X45532150Y17220480D01*
X45554329Y17230970D01*
X45577428Y17239235D01*
X45601227Y17245196D01*
X45625495Y17248796D01*
X45649999Y17250000D01*
X46550001Y17250000D01*
X46574505Y17248796D01*
G37*
G36*
X46574505Y19298796D02*
G01*
X46598773Y19295196D01*
X46622572Y19289235D01*
X46645671Y19280970D01*
X46667850Y19270480D01*
X46688893Y19257868D01*
X46708599Y19243253D01*
X46726777Y19226777D01*
X46743253Y19208599D01*
X46757868Y19188893D01*
X46770480Y19167850D01*
X46780970Y19145671D01*
X46789235Y19122572D01*
X46795196Y19098773D01*
X46798796Y19074505D01*
X46800000Y19050001D01*
X46800000Y18399999D01*
X46798796Y18375495D01*
X46795196Y18351227D01*
X46789235Y18327428D01*
X46780970Y18304329D01*
X46770480Y18282150D01*
X46757868Y18261107D01*
X46743253Y18241401D01*
X46726777Y18223223D01*
X46708599Y18206747D01*
X46688893Y18192132D01*
X46667850Y18179520D01*
X46645671Y18169030D01*
X46622572Y18160765D01*
X46598773Y18154804D01*
X46574505Y18151204D01*
X46550001Y18150000D01*
X45649999Y18150000D01*
X45625495Y18151204D01*
X45601227Y18154804D01*
X45577428Y18160765D01*
X45554329Y18169030D01*
X45532150Y18179520D01*
X45511107Y18192132D01*
X45491401Y18206747D01*
X45473223Y18223223D01*
X45456747Y18241401D01*
X45442132Y18261107D01*
X45429520Y18282150D01*
X45419030Y18304329D01*
X45410765Y18327428D01*
X45404804Y18351227D01*
X45401204Y18375495D01*
X45400000Y18399999D01*
X45400000Y19050001D01*
X45401204Y19074505D01*
X45404804Y19098773D01*
X45410765Y19122572D01*
X45419030Y19145671D01*
X45429520Y19167850D01*
X45442132Y19188893D01*
X45456747Y19208599D01*
X45473223Y19226777D01*
X45491401Y19243253D01*
X45511107Y19257868D01*
X45532150Y19270480D01*
X45554329Y19280970D01*
X45577428Y19289235D01*
X45601227Y19295196D01*
X45625495Y19298796D01*
X45649999Y19300000D01*
X46550001Y19300000D01*
X46574505Y19298796D01*
G37*
G36*
X41574505Y24098796D02*
G01*
X41598773Y24095196D01*
X41622572Y24089235D01*
X41645671Y24080970D01*
X41667850Y24070480D01*
X41688893Y24057868D01*
X41708599Y24043253D01*
X41726777Y24026777D01*
X41743253Y24008599D01*
X41757868Y23988893D01*
X41770480Y23967850D01*
X41780970Y23945671D01*
X41789235Y23922572D01*
X41795196Y23898773D01*
X41798796Y23874505D01*
X41800000Y23850001D01*
X41800000Y23199999D01*
X41798796Y23175495D01*
X41795196Y23151227D01*
X41789235Y23127428D01*
X41780970Y23104329D01*
X41770480Y23082150D01*
X41757868Y23061107D01*
X41743253Y23041401D01*
X41726777Y23023223D01*
X41708599Y23006747D01*
X41688893Y22992132D01*
X41667850Y22979520D01*
X41645671Y22969030D01*
X41622572Y22960765D01*
X41598773Y22954804D01*
X41574505Y22951204D01*
X41550001Y22950000D01*
X40649999Y22950000D01*
X40625495Y22951204D01*
X40601227Y22954804D01*
X40577428Y22960765D01*
X40554329Y22969030D01*
X40532150Y22979520D01*
X40511107Y22992132D01*
X40491401Y23006747D01*
X40473223Y23023223D01*
X40456747Y23041401D01*
X40442132Y23061107D01*
X40429520Y23082150D01*
X40419030Y23104329D01*
X40410765Y23127428D01*
X40404804Y23151227D01*
X40401204Y23175495D01*
X40400000Y23199999D01*
X40400000Y23850001D01*
X40401204Y23874505D01*
X40404804Y23898773D01*
X40410765Y23922572D01*
X40419030Y23945671D01*
X40429520Y23967850D01*
X40442132Y23988893D01*
X40456747Y24008599D01*
X40473223Y24026777D01*
X40491401Y24043253D01*
X40511107Y24057868D01*
X40532150Y24070480D01*
X40554329Y24080970D01*
X40577428Y24089235D01*
X40601227Y24095196D01*
X40625495Y24098796D01*
X40649999Y24100000D01*
X41550001Y24100000D01*
X41574505Y24098796D01*
G37*
G36*
X41574505Y22048796D02*
G01*
X41598773Y22045196D01*
X41622572Y22039235D01*
X41645671Y22030970D01*
X41667850Y22020480D01*
X41688893Y22007868D01*
X41708599Y21993253D01*
X41726777Y21976777D01*
X41743253Y21958599D01*
X41757868Y21938893D01*
X41770480Y21917850D01*
X41780970Y21895671D01*
X41789235Y21872572D01*
X41795196Y21848773D01*
X41798796Y21824505D01*
X41800000Y21800001D01*
X41800000Y21149999D01*
X41798796Y21125495D01*
X41795196Y21101227D01*
X41789235Y21077428D01*
X41780970Y21054329D01*
X41770480Y21032150D01*
X41757868Y21011107D01*
X41743253Y20991401D01*
X41726777Y20973223D01*
X41708599Y20956747D01*
X41688893Y20942132D01*
X41667850Y20929520D01*
X41645671Y20919030D01*
X41622572Y20910765D01*
X41598773Y20904804D01*
X41574505Y20901204D01*
X41550001Y20900000D01*
X40649999Y20900000D01*
X40625495Y20901204D01*
X40601227Y20904804D01*
X40577428Y20910765D01*
X40554329Y20919030D01*
X40532150Y20929520D01*
X40511107Y20942132D01*
X40491401Y20956747D01*
X40473223Y20973223D01*
X40456747Y20991401D01*
X40442132Y21011107D01*
X40429520Y21032150D01*
X40419030Y21054329D01*
X40410765Y21077428D01*
X40404804Y21101227D01*
X40401204Y21125495D01*
X40400000Y21149999D01*
X40400000Y21800001D01*
X40401204Y21824505D01*
X40404804Y21848773D01*
X40410765Y21872572D01*
X40419030Y21895671D01*
X40429520Y21917850D01*
X40442132Y21938893D01*
X40456747Y21958599D01*
X40473223Y21976777D01*
X40491401Y21993253D01*
X40511107Y22007868D01*
X40532150Y22020480D01*
X40554329Y22030970D01*
X40577428Y22039235D01*
X40601227Y22045196D01*
X40625495Y22048796D01*
X40649999Y22050000D01*
X41550001Y22050000D01*
X41574505Y22048796D01*
G37*
G36*
X34174505Y16698796D02*
G01*
X34198773Y16695196D01*
X34222572Y16689235D01*
X34245671Y16680970D01*
X34267850Y16670480D01*
X34288893Y16657868D01*
X34308599Y16643253D01*
X34326777Y16626777D01*
X34343253Y16608599D01*
X34357868Y16588893D01*
X34370480Y16567850D01*
X34380970Y16545671D01*
X34389235Y16522572D01*
X34395196Y16498773D01*
X34398796Y16474505D01*
X34400000Y16450001D01*
X34400000Y15799999D01*
X34398796Y15775495D01*
X34395196Y15751227D01*
X34389235Y15727428D01*
X34380970Y15704329D01*
X34370480Y15682150D01*
X34357868Y15661107D01*
X34343253Y15641401D01*
X34326777Y15623223D01*
X34308599Y15606747D01*
X34288893Y15592132D01*
X34267850Y15579520D01*
X34245671Y15569030D01*
X34222572Y15560765D01*
X34198773Y15554804D01*
X34174505Y15551204D01*
X34150001Y15550000D01*
X33249999Y15550000D01*
X33225495Y15551204D01*
X33201227Y15554804D01*
X33177428Y15560765D01*
X33154329Y15569030D01*
X33132150Y15579520D01*
X33111107Y15592132D01*
X33091401Y15606747D01*
X33073223Y15623223D01*
X33056747Y15641401D01*
X33042132Y15661107D01*
X33029520Y15682150D01*
X33019030Y15704329D01*
X33010765Y15727428D01*
X33004804Y15751227D01*
X33001204Y15775495D01*
X33000000Y15799999D01*
X33000000Y16450001D01*
X33001204Y16474505D01*
X33004804Y16498773D01*
X33010765Y16522572D01*
X33019030Y16545671D01*
X33029520Y16567850D01*
X33042132Y16588893D01*
X33056747Y16608599D01*
X33073223Y16626777D01*
X33091401Y16643253D01*
X33111107Y16657868D01*
X33132150Y16670480D01*
X33154329Y16680970D01*
X33177428Y16689235D01*
X33201227Y16695196D01*
X33225495Y16698796D01*
X33249999Y16700000D01*
X34150001Y16700000D01*
X34174505Y16698796D01*
G37*
G36*
X34174505Y14648796D02*
G01*
X34198773Y14645196D01*
X34222572Y14639235D01*
X34245671Y14630970D01*
X34267850Y14620480D01*
X34288893Y14607868D01*
X34308599Y14593253D01*
X34326777Y14576777D01*
X34343253Y14558599D01*
X34357868Y14538893D01*
X34370480Y14517850D01*
X34380970Y14495671D01*
X34389235Y14472572D01*
X34395196Y14448773D01*
X34398796Y14424505D01*
X34400000Y14400001D01*
X34400000Y13749999D01*
X34398796Y13725495D01*
X34395196Y13701227D01*
X34389235Y13677428D01*
X34380970Y13654329D01*
X34370480Y13632150D01*
X34357868Y13611107D01*
X34343253Y13591401D01*
X34326777Y13573223D01*
X34308599Y13556747D01*
X34288893Y13542132D01*
X34267850Y13529520D01*
X34245671Y13519030D01*
X34222572Y13510765D01*
X34198773Y13504804D01*
X34174505Y13501204D01*
X34150001Y13500000D01*
X33249999Y13500000D01*
X33225495Y13501204D01*
X33201227Y13504804D01*
X33177428Y13510765D01*
X33154329Y13519030D01*
X33132150Y13529520D01*
X33111107Y13542132D01*
X33091401Y13556747D01*
X33073223Y13573223D01*
X33056747Y13591401D01*
X33042132Y13611107D01*
X33029520Y13632150D01*
X33019030Y13654329D01*
X33010765Y13677428D01*
X33004804Y13701227D01*
X33001204Y13725495D01*
X33000000Y13749999D01*
X33000000Y14400001D01*
X33001204Y14424505D01*
X33004804Y14448773D01*
X33010765Y14472572D01*
X33019030Y14495671D01*
X33029520Y14517850D01*
X33042132Y14538893D01*
X33056747Y14558599D01*
X33073223Y14576777D01*
X33091401Y14593253D01*
X33111107Y14607868D01*
X33132150Y14620480D01*
X33154329Y14630970D01*
X33177428Y14639235D01*
X33201227Y14645196D01*
X33225495Y14648796D01*
X33249999Y14650000D01*
X34150001Y14650000D01*
X34174505Y14648796D01*
G37*
M02*
