G04 #@! TF.GenerationSoftware,KiCad,Pcbnew,(5.1.5)-3*
G04 #@! TF.CreationDate,2020-02-22T22:04:57-05:00*
G04 #@! TF.ProjectId,Semiparametric-EQ,53656d69-7061-4726-916d-65747269632d,rev?*
G04 #@! TF.SameCoordinates,Original*
G04 #@! TF.FileFunction,Legend,Bot*
G04 #@! TF.FilePolarity,Positive*
%FSLAX46Y46*%
G04 Gerber Fmt 4.6, Leading zero omitted, Abs format (unit mm)*
G04 Created by KiCad (PCBNEW (5.1.5)-3) date 2020-02-22 22:04:57*
%MOMM*%
%LPD*%
G04 APERTURE LIST*
%ADD10C,0.120000*%
%ADD11C,0.150000*%
G04 APERTURE END LIST*
D10*
X4561252Y25790000D02*
X4038748Y25790000D01*
X4561252Y27210000D02*
X4038748Y27210000D01*
X10990000Y31261252D02*
X10990000Y30738748D01*
X12410000Y31261252D02*
X12410000Y30738748D01*
X13730000Y31561252D02*
X13730000Y31038748D01*
X15150000Y31561252D02*
X15150000Y31038748D01*
X12350000Y26161252D02*
X12350000Y25638748D01*
X10930000Y26161252D02*
X10930000Y25638748D01*
X18410000Y18161252D02*
X18410000Y17638748D01*
X16990000Y18161252D02*
X16990000Y17638748D01*
X29438748Y5910000D02*
X29961252Y5910000D01*
X29438748Y4490000D02*
X29961252Y4490000D01*
X34061252Y5910000D02*
X33538748Y5910000D01*
X34061252Y4490000D02*
X33538748Y4490000D01*
X53438748Y20090000D02*
X53961252Y20090000D01*
X53438748Y21510000D02*
X53961252Y21510000D01*
X48763748Y5710000D02*
X49286252Y5710000D01*
X48763748Y4290000D02*
X49286252Y4290000D01*
X49661252Y10790000D02*
X49138748Y10790000D01*
X49661252Y9370000D02*
X49138748Y9370000D01*
X52290000Y30261252D02*
X52290000Y29738748D01*
X53710000Y30261252D02*
X53710000Y29738748D01*
X49390000Y22038748D02*
X49390000Y22561252D01*
X50810000Y22038748D02*
X50810000Y22561252D01*
X25490000Y16061252D02*
X25490000Y15538748D01*
X26910000Y16061252D02*
X26910000Y15538748D01*
X26061252Y4490000D02*
X25538748Y4490000D01*
X26061252Y5910000D02*
X25538748Y5910000D01*
X39310000Y7018748D02*
X39310000Y7541252D01*
X40730000Y7018748D02*
X40730000Y7541252D01*
X20610000Y17638748D02*
X20610000Y18161252D01*
X19190000Y17638748D02*
X19190000Y18161252D01*
X32490000Y19961252D02*
X32490000Y19438748D01*
X33910000Y19961252D02*
X33910000Y19438748D01*
X39261252Y1890000D02*
X38738748Y1890000D01*
X39261252Y3310000D02*
X38738748Y3310000D01*
X52190000Y24238748D02*
X52190000Y24761252D01*
X53610000Y24238748D02*
X53610000Y24761252D01*
X45161252Y4290000D02*
X44638748Y4290000D01*
X45161252Y5710000D02*
X44638748Y5710000D01*
X57110000Y10718748D02*
X57110000Y11241252D01*
X55690000Y10718748D02*
X55690000Y11241252D01*
X38910000Y20138748D02*
X38910000Y20661252D01*
X37490000Y20138748D02*
X37490000Y20661252D01*
X46810000Y17438748D02*
X46810000Y17961252D01*
X45390000Y17438748D02*
X45390000Y17961252D01*
X40390000Y22238748D02*
X40390000Y22761252D01*
X41810000Y22238748D02*
X41810000Y22761252D01*
X32990000Y15361252D02*
X32990000Y14838748D01*
X34410000Y15361252D02*
X34410000Y14838748D01*
D11*
X1666666Y25947619D02*
X2000000Y26423809D01*
X2238095Y25947619D02*
X2238095Y26947619D01*
X1857142Y26947619D01*
X1761904Y26900000D01*
X1714285Y26852380D01*
X1666666Y26757142D01*
X1666666Y26614285D01*
X1714285Y26519047D01*
X1761904Y26471428D01*
X1857142Y26423809D01*
X2238095Y26423809D01*
X714285Y25947619D02*
X1285714Y25947619D01*
X1000000Y25947619D02*
X1000000Y26947619D01*
X1095238Y26804761D01*
X1190476Y26709523D01*
X1285714Y26661904D01*
X12252380Y34166666D02*
X11776190Y34500000D01*
X12252380Y34738095D02*
X11252380Y34738095D01*
X11252380Y34357142D01*
X11300000Y34261904D01*
X11347619Y34214285D01*
X11442857Y34166666D01*
X11585714Y34166666D01*
X11680952Y34214285D01*
X11728571Y34261904D01*
X11776190Y34357142D01*
X11776190Y34738095D01*
X11347619Y33785714D02*
X11300000Y33738095D01*
X11252380Y33642857D01*
X11252380Y33404761D01*
X11300000Y33309523D01*
X11347619Y33261904D01*
X11442857Y33214285D01*
X11538095Y33214285D01*
X11680952Y33261904D01*
X12252380Y33833333D01*
X12252380Y33214285D01*
X14757142Y34266666D02*
X14804761Y34314285D01*
X14852380Y34457142D01*
X14852380Y34552380D01*
X14804761Y34695238D01*
X14709523Y34790476D01*
X14614285Y34838095D01*
X14423809Y34885714D01*
X14280952Y34885714D01*
X14090476Y34838095D01*
X13995238Y34790476D01*
X13900000Y34695238D01*
X13852380Y34552380D01*
X13852380Y34457142D01*
X13900000Y34314285D01*
X13947619Y34266666D01*
X14852380Y33314285D02*
X14852380Y33885714D01*
X14852380Y33600000D02*
X13852380Y33600000D01*
X13995238Y33695238D01*
X14090476Y33790476D01*
X14138095Y33885714D01*
X13657142Y26066666D02*
X13704761Y26114285D01*
X13752380Y26257142D01*
X13752380Y26352380D01*
X13704761Y26495238D01*
X13609523Y26590476D01*
X13514285Y26638095D01*
X13323809Y26685714D01*
X13180952Y26685714D01*
X12990476Y26638095D01*
X12895238Y26590476D01*
X12800000Y26495238D01*
X12752380Y26352380D01*
X12752380Y26257142D01*
X12800000Y26114285D01*
X12847619Y26066666D01*
X12847619Y25685714D02*
X12800000Y25638095D01*
X12752380Y25542857D01*
X12752380Y25304761D01*
X12800000Y25209523D01*
X12847619Y25161904D01*
X12942857Y25114285D01*
X13038095Y25114285D01*
X13180952Y25161904D01*
X13752380Y25733333D01*
X13752380Y25114285D01*
X16407142Y18066666D02*
X16454761Y18114285D01*
X16502380Y18257142D01*
X16502380Y18352380D01*
X16454761Y18495238D01*
X16359523Y18590476D01*
X16264285Y18638095D01*
X16073809Y18685714D01*
X15930952Y18685714D01*
X15740476Y18638095D01*
X15645238Y18590476D01*
X15550000Y18495238D01*
X15502380Y18352380D01*
X15502380Y18257142D01*
X15550000Y18114285D01*
X15597619Y18066666D01*
X15502380Y17209523D02*
X15502380Y17400000D01*
X15550000Y17495238D01*
X15597619Y17542857D01*
X15740476Y17638095D01*
X15930952Y17685714D01*
X16311904Y17685714D01*
X16407142Y17638095D01*
X16454761Y17590476D01*
X16502380Y17495238D01*
X16502380Y17304761D01*
X16454761Y17209523D01*
X16407142Y17161904D01*
X16311904Y17114285D01*
X16073809Y17114285D01*
X15978571Y17161904D01*
X15930952Y17209523D01*
X15883333Y17304761D01*
X15883333Y17495238D01*
X15930952Y17590476D01*
X15978571Y17638095D01*
X16073809Y17685714D01*
X30066666Y3342857D02*
X30114285Y3295238D01*
X30257142Y3247619D01*
X30352380Y3247619D01*
X30495238Y3295238D01*
X30590476Y3390476D01*
X30638095Y3485714D01*
X30685714Y3676190D01*
X30685714Y3819047D01*
X30638095Y4009523D01*
X30590476Y4104761D01*
X30495238Y4200000D01*
X30352380Y4247619D01*
X30257142Y4247619D01*
X30114285Y4200000D01*
X30066666Y4152380D01*
X29733333Y4247619D02*
X29066666Y4247619D01*
X29495238Y3247619D01*
X33966666Y3442857D02*
X34014285Y3395238D01*
X34157142Y3347619D01*
X34252380Y3347619D01*
X34395238Y3395238D01*
X34490476Y3490476D01*
X34538095Y3585714D01*
X34585714Y3776190D01*
X34585714Y3919047D01*
X34538095Y4109523D01*
X34490476Y4204761D01*
X34395238Y4300000D01*
X34252380Y4347619D01*
X34157142Y4347619D01*
X34014285Y4300000D01*
X33966666Y4252380D01*
X33395238Y3919047D02*
X33490476Y3966666D01*
X33538095Y4014285D01*
X33585714Y4109523D01*
X33585714Y4157142D01*
X33538095Y4252380D01*
X33490476Y4300000D01*
X33395238Y4347619D01*
X33204761Y4347619D01*
X33109523Y4300000D01*
X33061904Y4252380D01*
X33014285Y4157142D01*
X33014285Y4109523D01*
X33061904Y4014285D01*
X33109523Y3966666D01*
X33204761Y3919047D01*
X33395238Y3919047D01*
X33490476Y3871428D01*
X33538095Y3823809D01*
X33585714Y3728571D01*
X33585714Y3538095D01*
X33538095Y3442857D01*
X33490476Y3395238D01*
X33395238Y3347619D01*
X33204761Y3347619D01*
X33109523Y3395238D01*
X33061904Y3442857D01*
X33014285Y3538095D01*
X33014285Y3728571D01*
X33061904Y3823809D01*
X33109523Y3871428D01*
X33204761Y3919047D01*
X52866666Y18742857D02*
X52914285Y18695238D01*
X53057142Y18647619D01*
X53152380Y18647619D01*
X53295238Y18695238D01*
X53390476Y18790476D01*
X53438095Y18885714D01*
X53485714Y19076190D01*
X53485714Y19219047D01*
X53438095Y19409523D01*
X53390476Y19504761D01*
X53295238Y19600000D01*
X53152380Y19647619D01*
X53057142Y19647619D01*
X52914285Y19600000D01*
X52866666Y19552380D01*
X52390476Y18647619D02*
X52200000Y18647619D01*
X52104761Y18695238D01*
X52057142Y18742857D01*
X51961904Y18885714D01*
X51914285Y19076190D01*
X51914285Y19457142D01*
X51961904Y19552380D01*
X52009523Y19600000D01*
X52104761Y19647619D01*
X52295238Y19647619D01*
X52390476Y19600000D01*
X52438095Y19552380D01*
X52485714Y19457142D01*
X52485714Y19219047D01*
X52438095Y19123809D01*
X52390476Y19076190D01*
X52295238Y19028571D01*
X52104761Y19028571D01*
X52009523Y19076190D01*
X51961904Y19123809D01*
X51914285Y19219047D01*
X52942857Y4742857D02*
X52990476Y4695238D01*
X53133333Y4647619D01*
X53228571Y4647619D01*
X53371428Y4695238D01*
X53466666Y4790476D01*
X53514285Y4885714D01*
X53561904Y5076190D01*
X53561904Y5219047D01*
X53514285Y5409523D01*
X53466666Y5504761D01*
X53371428Y5600000D01*
X53228571Y5647619D01*
X53133333Y5647619D01*
X52990476Y5600000D01*
X52942857Y5552380D01*
X51990476Y4647619D02*
X52561904Y4647619D01*
X52276190Y4647619D02*
X52276190Y5647619D01*
X52371428Y5504761D01*
X52466666Y5409523D01*
X52561904Y5361904D01*
X51038095Y4647619D02*
X51609523Y4647619D01*
X51323809Y4647619D02*
X51323809Y5647619D01*
X51419047Y5504761D01*
X51514285Y5409523D01*
X51609523Y5361904D01*
X50042857Y11372857D02*
X50090476Y11325238D01*
X50233333Y11277619D01*
X50328571Y11277619D01*
X50471428Y11325238D01*
X50566666Y11420476D01*
X50614285Y11515714D01*
X50661904Y11706190D01*
X50661904Y11849047D01*
X50614285Y12039523D01*
X50566666Y12134761D01*
X50471428Y12230000D01*
X50328571Y12277619D01*
X50233333Y12277619D01*
X50090476Y12230000D01*
X50042857Y12182380D01*
X49090476Y11277619D02*
X49661904Y11277619D01*
X49376190Y11277619D02*
X49376190Y12277619D01*
X49471428Y12134761D01*
X49566666Y12039523D01*
X49661904Y11991904D01*
X48757142Y12277619D02*
X48138095Y12277619D01*
X48471428Y11896666D01*
X48328571Y11896666D01*
X48233333Y11849047D01*
X48185714Y11801428D01*
X48138095Y11706190D01*
X48138095Y11468095D01*
X48185714Y11372857D01*
X48233333Y11325238D01*
X48328571Y11277619D01*
X48614285Y11277619D01*
X48709523Y11325238D01*
X48757142Y11372857D01*
X51707142Y30642857D02*
X51754761Y30690476D01*
X51802380Y30833333D01*
X51802380Y30928571D01*
X51754761Y31071428D01*
X51659523Y31166666D01*
X51564285Y31214285D01*
X51373809Y31261904D01*
X51230952Y31261904D01*
X51040476Y31214285D01*
X50945238Y31166666D01*
X50850000Y31071428D01*
X50802380Y30928571D01*
X50802380Y30833333D01*
X50850000Y30690476D01*
X50897619Y30642857D01*
X51802380Y29690476D02*
X51802380Y30261904D01*
X51802380Y29976190D02*
X50802380Y29976190D01*
X50945238Y30071428D01*
X51040476Y30166666D01*
X51088095Y30261904D01*
X51135714Y28833333D02*
X51802380Y28833333D01*
X50754761Y29071428D02*
X51469047Y29309523D01*
X51469047Y28690476D01*
X48757142Y21442857D02*
X48804761Y21490476D01*
X48852380Y21633333D01*
X48852380Y21728571D01*
X48804761Y21871428D01*
X48709523Y21966666D01*
X48614285Y22014285D01*
X48423809Y22061904D01*
X48280952Y22061904D01*
X48090476Y22014285D01*
X47995238Y21966666D01*
X47900000Y21871428D01*
X47852380Y21728571D01*
X47852380Y21633333D01*
X47900000Y21490476D01*
X47947619Y21442857D01*
X48852380Y20490476D02*
X48852380Y21061904D01*
X48852380Y20776190D02*
X47852380Y20776190D01*
X47995238Y20871428D01*
X48090476Y20966666D01*
X48138095Y21061904D01*
X47852380Y19585714D02*
X47852380Y20061904D01*
X48328571Y20109523D01*
X48280952Y20061904D01*
X48233333Y19966666D01*
X48233333Y19728571D01*
X48280952Y19633333D01*
X48328571Y19585714D01*
X48423809Y19538095D01*
X48661904Y19538095D01*
X48757142Y19585714D01*
X48804761Y19633333D01*
X48852380Y19728571D01*
X48852380Y19966666D01*
X48804761Y20061904D01*
X48757142Y20109523D01*
X25002380Y15966666D02*
X24526190Y16300000D01*
X25002380Y16538095D02*
X24002380Y16538095D01*
X24002380Y16157142D01*
X24050000Y16061904D01*
X24097619Y16014285D01*
X24192857Y15966666D01*
X24335714Y15966666D01*
X24430952Y16014285D01*
X24478571Y16061904D01*
X24526190Y16157142D01*
X24526190Y16538095D01*
X24002380Y15633333D02*
X24002380Y15014285D01*
X24383333Y15347619D01*
X24383333Y15204761D01*
X24430952Y15109523D01*
X24478571Y15061904D01*
X24573809Y15014285D01*
X24811904Y15014285D01*
X24907142Y15061904D01*
X24954761Y15109523D01*
X25002380Y15204761D01*
X25002380Y15490476D01*
X24954761Y15585714D01*
X24907142Y15633333D01*
X25966666Y3047619D02*
X26300000Y3523809D01*
X26538095Y3047619D02*
X26538095Y4047619D01*
X26157142Y4047619D01*
X26061904Y4000000D01*
X26014285Y3952380D01*
X25966666Y3857142D01*
X25966666Y3714285D01*
X26014285Y3619047D01*
X26061904Y3571428D01*
X26157142Y3523809D01*
X26538095Y3523809D01*
X25061904Y4047619D02*
X25538095Y4047619D01*
X25585714Y3571428D01*
X25538095Y3619047D01*
X25442857Y3666666D01*
X25204761Y3666666D01*
X25109523Y3619047D01*
X25061904Y3571428D01*
X25014285Y3476190D01*
X25014285Y3238095D01*
X25061904Y3142857D01*
X25109523Y3095238D01*
X25204761Y3047619D01*
X25442857Y3047619D01*
X25538095Y3095238D01*
X25585714Y3142857D01*
X42122380Y7446666D02*
X41646190Y7780000D01*
X42122380Y8018095D02*
X41122380Y8018095D01*
X41122380Y7637142D01*
X41170000Y7541904D01*
X41217619Y7494285D01*
X41312857Y7446666D01*
X41455714Y7446666D01*
X41550952Y7494285D01*
X41598571Y7541904D01*
X41646190Y7637142D01*
X41646190Y8018095D01*
X41122380Y6589523D02*
X41122380Y6780000D01*
X41170000Y6875238D01*
X41217619Y6922857D01*
X41360476Y7018095D01*
X41550952Y7065714D01*
X41931904Y7065714D01*
X42027142Y7018095D01*
X42074761Y6970476D01*
X42122380Y6875238D01*
X42122380Y6684761D01*
X42074761Y6589523D01*
X42027142Y6541904D01*
X41931904Y6494285D01*
X41693809Y6494285D01*
X41598571Y6541904D01*
X41550952Y6589523D01*
X41503333Y6684761D01*
X41503333Y6875238D01*
X41550952Y6970476D01*
X41598571Y7018095D01*
X41693809Y7065714D01*
X22002380Y18066666D02*
X21526190Y18400000D01*
X22002380Y18638095D02*
X21002380Y18638095D01*
X21002380Y18257142D01*
X21050000Y18161904D01*
X21097619Y18114285D01*
X21192857Y18066666D01*
X21335714Y18066666D01*
X21430952Y18114285D01*
X21478571Y18161904D01*
X21526190Y18257142D01*
X21526190Y18638095D01*
X21002380Y17733333D02*
X21002380Y17066666D01*
X22002380Y17495238D01*
X32002380Y19866666D02*
X31526190Y20200000D01*
X32002380Y20438095D02*
X31002380Y20438095D01*
X31002380Y20057142D01*
X31050000Y19961904D01*
X31097619Y19914285D01*
X31192857Y19866666D01*
X31335714Y19866666D01*
X31430952Y19914285D01*
X31478571Y19961904D01*
X31526190Y20057142D01*
X31526190Y20438095D01*
X32002380Y19390476D02*
X32002380Y19200000D01*
X31954761Y19104761D01*
X31907142Y19057142D01*
X31764285Y18961904D01*
X31573809Y18914285D01*
X31192857Y18914285D01*
X31097619Y18961904D01*
X31050000Y19009523D01*
X31002380Y19104761D01*
X31002380Y19295238D01*
X31050000Y19390476D01*
X31097619Y19438095D01*
X31192857Y19485714D01*
X31430952Y19485714D01*
X31526190Y19438095D01*
X31573809Y19390476D01*
X31621428Y19295238D01*
X31621428Y19104761D01*
X31573809Y19009523D01*
X31526190Y18961904D01*
X31430952Y18914285D01*
X39642857Y3797619D02*
X39976190Y4273809D01*
X40214285Y3797619D02*
X40214285Y4797619D01*
X39833333Y4797619D01*
X39738095Y4750000D01*
X39690476Y4702380D01*
X39642857Y4607142D01*
X39642857Y4464285D01*
X39690476Y4369047D01*
X39738095Y4321428D01*
X39833333Y4273809D01*
X40214285Y4273809D01*
X38690476Y3797619D02*
X39261904Y3797619D01*
X38976190Y3797619D02*
X38976190Y4797619D01*
X39071428Y4654761D01*
X39166666Y4559523D01*
X39261904Y4511904D01*
X38071428Y4797619D02*
X37976190Y4797619D01*
X37880952Y4750000D01*
X37833333Y4702380D01*
X37785714Y4607142D01*
X37738095Y4416666D01*
X37738095Y4178571D01*
X37785714Y3988095D01*
X37833333Y3892857D01*
X37880952Y3845238D01*
X37976190Y3797619D01*
X38071428Y3797619D01*
X38166666Y3845238D01*
X38214285Y3892857D01*
X38261904Y3988095D01*
X38309523Y4178571D01*
X38309523Y4416666D01*
X38261904Y4607142D01*
X38214285Y4702380D01*
X38166666Y4750000D01*
X38071428Y4797619D01*
X50747619Y25257142D02*
X51223809Y24923809D01*
X50747619Y24685714D02*
X51747619Y24685714D01*
X51747619Y25066666D01*
X51700000Y25161904D01*
X51652380Y25209523D01*
X51557142Y25257142D01*
X51414285Y25257142D01*
X51319047Y25209523D01*
X51271428Y25161904D01*
X51223809Y25066666D01*
X51223809Y24685714D01*
X50747619Y26209523D02*
X50747619Y25638095D01*
X50747619Y25923809D02*
X51747619Y25923809D01*
X51604761Y25828571D01*
X51509523Y25733333D01*
X51461904Y25638095D01*
X50747619Y27161904D02*
X50747619Y26590476D01*
X50747619Y26876190D02*
X51747619Y26876190D01*
X51604761Y26780952D01*
X51509523Y26685714D01*
X51461904Y26590476D01*
X45442857Y2847619D02*
X45776190Y3323809D01*
X46014285Y2847619D02*
X46014285Y3847619D01*
X45633333Y3847619D01*
X45538095Y3800000D01*
X45490476Y3752380D01*
X45442857Y3657142D01*
X45442857Y3514285D01*
X45490476Y3419047D01*
X45538095Y3371428D01*
X45633333Y3323809D01*
X46014285Y3323809D01*
X44490476Y2847619D02*
X45061904Y2847619D01*
X44776190Y2847619D02*
X44776190Y3847619D01*
X44871428Y3704761D01*
X44966666Y3609523D01*
X45061904Y3561904D01*
X43633333Y3847619D02*
X43823809Y3847619D01*
X43919047Y3800000D01*
X43966666Y3752380D01*
X44061904Y3609523D01*
X44109523Y3419047D01*
X44109523Y3038095D01*
X44061904Y2942857D01*
X44014285Y2895238D01*
X43919047Y2847619D01*
X43728571Y2847619D01*
X43633333Y2895238D01*
X43585714Y2942857D01*
X43538095Y3038095D01*
X43538095Y3276190D01*
X43585714Y3371428D01*
X43633333Y3419047D01*
X43728571Y3466666D01*
X43919047Y3466666D01*
X44014285Y3419047D01*
X44061904Y3371428D01*
X44109523Y3276190D01*
X58502380Y11622857D02*
X58026190Y11956190D01*
X58502380Y12194285D02*
X57502380Y12194285D01*
X57502380Y11813333D01*
X57550000Y11718095D01*
X57597619Y11670476D01*
X57692857Y11622857D01*
X57835714Y11622857D01*
X57930952Y11670476D01*
X57978571Y11718095D01*
X58026190Y11813333D01*
X58026190Y12194285D01*
X58502380Y10670476D02*
X58502380Y11241904D01*
X58502380Y10956190D02*
X57502380Y10956190D01*
X57645238Y11051428D01*
X57740476Y11146666D01*
X57788095Y11241904D01*
X57502380Y10337142D02*
X57502380Y9670476D01*
X58502380Y10099047D01*
X40302380Y21042857D02*
X39826190Y21376190D01*
X40302380Y21614285D02*
X39302380Y21614285D01*
X39302380Y21233333D01*
X39350000Y21138095D01*
X39397619Y21090476D01*
X39492857Y21042857D01*
X39635714Y21042857D01*
X39730952Y21090476D01*
X39778571Y21138095D01*
X39826190Y21233333D01*
X39826190Y21614285D01*
X40302380Y20090476D02*
X40302380Y20661904D01*
X40302380Y20376190D02*
X39302380Y20376190D01*
X39445238Y20471428D01*
X39540476Y20566666D01*
X39588095Y20661904D01*
X39730952Y19519047D02*
X39683333Y19614285D01*
X39635714Y19661904D01*
X39540476Y19709523D01*
X39492857Y19709523D01*
X39397619Y19661904D01*
X39350000Y19614285D01*
X39302380Y19519047D01*
X39302380Y19328571D01*
X39350000Y19233333D01*
X39397619Y19185714D01*
X39492857Y19138095D01*
X39540476Y19138095D01*
X39635714Y19185714D01*
X39683333Y19233333D01*
X39730952Y19328571D01*
X39730952Y19519047D01*
X39778571Y19614285D01*
X39826190Y19661904D01*
X39921428Y19709523D01*
X40111904Y19709523D01*
X40207142Y19661904D01*
X40254761Y19614285D01*
X40302380Y19519047D01*
X40302380Y19328571D01*
X40254761Y19233333D01*
X40207142Y19185714D01*
X40111904Y19138095D01*
X39921428Y19138095D01*
X39826190Y19185714D01*
X39778571Y19233333D01*
X39730952Y19328571D01*
X48202380Y18342857D02*
X47726190Y18676190D01*
X48202380Y18914285D02*
X47202380Y18914285D01*
X47202380Y18533333D01*
X47250000Y18438095D01*
X47297619Y18390476D01*
X47392857Y18342857D01*
X47535714Y18342857D01*
X47630952Y18390476D01*
X47678571Y18438095D01*
X47726190Y18533333D01*
X47726190Y18914285D01*
X48202380Y17390476D02*
X48202380Y17961904D01*
X48202380Y17676190D02*
X47202380Y17676190D01*
X47345238Y17771428D01*
X47440476Y17866666D01*
X47488095Y17961904D01*
X48202380Y16914285D02*
X48202380Y16723809D01*
X48154761Y16628571D01*
X48107142Y16580952D01*
X47964285Y16485714D01*
X47773809Y16438095D01*
X47392857Y16438095D01*
X47297619Y16485714D01*
X47250000Y16533333D01*
X47202380Y16628571D01*
X47202380Y16819047D01*
X47250000Y16914285D01*
X47297619Y16961904D01*
X47392857Y17009523D01*
X47630952Y17009523D01*
X47726190Y16961904D01*
X47773809Y16914285D01*
X47821428Y16819047D01*
X47821428Y16628571D01*
X47773809Y16533333D01*
X47726190Y16485714D01*
X47630952Y16438095D01*
X43107142Y23142857D02*
X43154761Y23190476D01*
X43202380Y23333333D01*
X43202380Y23428571D01*
X43154761Y23571428D01*
X43059523Y23666666D01*
X42964285Y23714285D01*
X42773809Y23761904D01*
X42630952Y23761904D01*
X42440476Y23714285D01*
X42345238Y23666666D01*
X42250000Y23571428D01*
X42202380Y23428571D01*
X42202380Y23333333D01*
X42250000Y23190476D01*
X42297619Y23142857D01*
X43202380Y22190476D02*
X43202380Y22761904D01*
X43202380Y22476190D02*
X42202380Y22476190D01*
X42345238Y22571428D01*
X42440476Y22666666D01*
X42488095Y22761904D01*
X42630952Y21619047D02*
X42583333Y21714285D01*
X42535714Y21761904D01*
X42440476Y21809523D01*
X42392857Y21809523D01*
X42297619Y21761904D01*
X42250000Y21714285D01*
X42202380Y21619047D01*
X42202380Y21428571D01*
X42250000Y21333333D01*
X42297619Y21285714D01*
X42392857Y21238095D01*
X42440476Y21238095D01*
X42535714Y21285714D01*
X42583333Y21333333D01*
X42630952Y21428571D01*
X42630952Y21619047D01*
X42678571Y21714285D01*
X42726190Y21761904D01*
X42821428Y21809523D01*
X43011904Y21809523D01*
X43107142Y21761904D01*
X43154761Y21714285D01*
X43202380Y21619047D01*
X43202380Y21428571D01*
X43154761Y21333333D01*
X43107142Y21285714D01*
X43011904Y21238095D01*
X42821428Y21238095D01*
X42726190Y21285714D01*
X42678571Y21333333D01*
X42630952Y21428571D01*
X32407142Y15742857D02*
X32454761Y15790476D01*
X32502380Y15933333D01*
X32502380Y16028571D01*
X32454761Y16171428D01*
X32359523Y16266666D01*
X32264285Y16314285D01*
X32073809Y16361904D01*
X31930952Y16361904D01*
X31740476Y16314285D01*
X31645238Y16266666D01*
X31550000Y16171428D01*
X31502380Y16028571D01*
X31502380Y15933333D01*
X31550000Y15790476D01*
X31597619Y15742857D01*
X32502380Y14790476D02*
X32502380Y15361904D01*
X32502380Y15076190D02*
X31502380Y15076190D01*
X31645238Y15171428D01*
X31740476Y15266666D01*
X31788095Y15361904D01*
X32502380Y14314285D02*
X32502380Y14123809D01*
X32454761Y14028571D01*
X32407142Y13980952D01*
X32264285Y13885714D01*
X32073809Y13838095D01*
X31692857Y13838095D01*
X31597619Y13885714D01*
X31550000Y13933333D01*
X31502380Y14028571D01*
X31502380Y14219047D01*
X31550000Y14314285D01*
X31597619Y14361904D01*
X31692857Y14409523D01*
X31930952Y14409523D01*
X32026190Y14361904D01*
X32073809Y14314285D01*
X32121428Y14219047D01*
X32121428Y14028571D01*
X32073809Y13933333D01*
X32026190Y13885714D01*
X31930952Y13838095D01*
M02*
