M48
; DRILL file {KiCad (5.1.5)-3} date 2/22/2020 10:04:59 PM
; FORMAT={-:-/ absolute / metric / decimal}
; #@! TF.CreationDate,2020-02-22T22:04:59-05:00
; #@! TF.GenerationSoftware,Kicad,Pcbnew,(5.1.5)-3
; #@! TF.FileFunction,Plated,1,2,PTH
FMAT,2
METRIC
T1C0.400
T2C0.800
T3C1.000
%
G90
G05
T1
X5.4Y18.9
X11.6Y32.1
X17.7Y19.0
X18.9Y10.4
X21.5Y27.675
X21.8Y22.6
X28.3Y23.2
X29.5Y14.3
X36.3Y24.7
X36.6Y28.9
X37.925Y2.6
X38.4Y24.95
X40.8Y10.4
X41.3Y23.6
X42.1Y4.9
X42.4Y11.5
X43.4Y29.1
X43.9Y26.0
X51.6Y14.4
T2
X7.5Y20.7
X7.5Y18.2
X47.7Y31.0
X47.7Y28.46
X47.7Y25.92
X47.7Y23.38
X55.32Y31.0
X55.32Y28.46
X55.32Y25.92
X55.32Y23.38
X26.0Y32.8
X26.0Y30.3
X9.24Y32.5
X9.24Y29.96
X9.24Y27.42
X9.24Y24.88
X16.86Y32.5
X16.86Y29.96
X16.86Y27.42
X16.86Y24.88
X35.8Y21.4
X35.8Y18.86
X35.8Y16.32
X35.8Y13.78
X43.42Y21.4
X43.42Y18.86
X43.42Y16.32
X43.42Y13.78
X23.5Y20.4
X23.5Y16.9
X12.7Y14.6
X17.7Y14.6
T3
X10.16Y7.62
X12.7Y7.62
X15.24Y7.62
X33.02Y33.02
X35.56Y33.02
X20.32Y5.08
X20.32Y2.54
X2.54Y22.86
X2.54Y20.32
X2.54Y17.78
X2.54Y15.24
X2.54Y12.7
X43.18Y7.62
X45.72Y7.62
X48.26Y7.62
X50.8Y7.62
X53.34Y7.62
X55.88Y7.62
X60.96Y15.24
X60.96Y12.7
X60.96Y10.16
X48.26Y2.54
X50.8Y2.54
X53.34Y2.54
X27.94Y2.54
X30.48Y2.54
X33.02Y2.54
X24.84Y7.62
X27.38Y7.62
X29.92Y7.62
X32.46Y7.62
X35.0Y7.62
X37.54Y7.62
X60.96Y25.4
X60.96Y22.86
X60.96Y20.32
X10.16Y2.54
X12.7Y2.54
X15.24Y2.54
T0
M30
