G04 #@! TF.GenerationSoftware,KiCad,Pcbnew,(5.1.5)-3*
G04 #@! TF.CreationDate,2020-02-27T01:05:18-05:00*
G04 #@! TF.ProjectId,power_supply,706f7765-725f-4737-9570-706c792e6b69,rev?*
G04 #@! TF.SameCoordinates,Original*
G04 #@! TF.FileFunction,Copper,L2,Bot*
G04 #@! TF.FilePolarity,Positive*
%FSLAX46Y46*%
G04 Gerber Fmt 4.6, Leading zero omitted, Abs format (unit mm)*
G04 Created by KiCad (PCBNEW (5.1.5)-3) date 2020-02-27 01:05:18*
%MOMM*%
%LPD*%
G04 APERTURE LIST*
%ADD10O,3.000000X4.000000*%
%ADD11R,2.200000X2.200000*%
%ADD12O,2.200000X2.200000*%
%ADD13R,3.300000X6.600000*%
%ADD14O,3.300000X6.600000*%
%ADD15R,2.600000X2.600000*%
%ADD16C,2.600000*%
%ADD17R,2.000000X2.000000*%
%ADD18C,2.000000*%
%ADD19C,2.780000*%
%ADD20R,1.700000X1.700000*%
%ADD21O,1.700000X1.700000*%
%ADD22O,2.500000X5.000000*%
%ADD23C,2.000000*%
%ADD24C,3.000000*%
%ADD25C,0.250000*%
G04 APERTURE END LIST*
D10*
X18050000Y39700000D03*
X26950000Y39700000D03*
X33300000Y39700000D03*
X11700000Y39700000D03*
X11700000Y72300000D03*
X33300000Y72300000D03*
D11*
X35750000Y27250000D03*
D12*
X35750000Y17090000D03*
X9000000Y27160000D03*
D11*
X9000000Y17000000D03*
D13*
X17000000Y91000000D03*
D14*
X27000000Y91000000D03*
D15*
X37000000Y11000000D03*
D16*
X42000000Y11000000D03*
X8000000Y11000000D03*
D15*
X3000000Y11000000D03*
D17*
X31000000Y21750000D03*
D18*
X26000000Y21750000D03*
X11750000Y32500000D03*
D17*
X16750000Y32500000D03*
D18*
X24750000Y28250000D03*
X19750000Y28250000D03*
X19750000Y36250000D03*
X24750000Y36250000D03*
D19*
X39500000Y25500000D03*
X42900000Y25500000D03*
X39500000Y35420000D03*
X42900000Y35420000D03*
X5400000Y35500000D03*
X2000000Y35500000D03*
X5400000Y25580000D03*
X2000000Y25580000D03*
D20*
X19750000Y9000000D03*
D21*
X22290000Y9000000D03*
X24830000Y9000000D03*
D17*
X32750000Y32500000D03*
D18*
X27750000Y32500000D03*
X14250000Y21750000D03*
D17*
X19250000Y21750000D03*
D22*
X38000000Y78300000D03*
X14600000Y78300000D03*
D23*
X28500000Y28250000D02*
X32750000Y32500000D01*
X24750000Y28250000D02*
X28500000Y28250000D01*
X31000000Y22500000D02*
X35750000Y27250000D01*
X31000000Y21750000D02*
X31000000Y22500000D01*
X35750000Y31670000D02*
X39500000Y35420000D01*
X35750000Y27250000D02*
X35750000Y31670000D01*
X34920000Y32500000D02*
X35750000Y31670000D01*
X32750000Y32500000D02*
X34920000Y32500000D01*
X39500000Y35420000D02*
X42900000Y35420000D01*
X19750000Y28250000D02*
X17000000Y25500000D01*
X17000000Y25500000D02*
X16000000Y25500000D01*
X14250000Y23750000D02*
X14250000Y21750000D01*
X16000000Y25500000D02*
X14250000Y23750000D01*
X11750000Y29910000D02*
X9000000Y27160000D01*
X11750000Y32500000D02*
X11750000Y29910000D01*
X2000000Y35500000D02*
X5400000Y35500000D01*
X8750000Y35500000D02*
X11750000Y32500000D01*
X5400000Y35500000D02*
X8750000Y35500000D01*
X9000000Y27160000D02*
X9000000Y24750000D01*
X11250000Y24750000D02*
X14250000Y21750000D01*
X9000000Y24750000D02*
X11250000Y24750000D01*
X37000000Y15840000D02*
X35750000Y17090000D01*
X37000000Y11000000D02*
X37000000Y15840000D01*
X8000000Y16000000D02*
X9000000Y17000000D01*
X8000000Y11000000D02*
X8000000Y16000000D01*
D24*
X18850000Y78300000D02*
X14600000Y78300000D01*
X23300000Y78300000D02*
X18850000Y78300000D01*
X27000000Y91000000D02*
X27000000Y82000000D01*
X27000000Y82000000D02*
X23300000Y78300000D01*
X33300000Y73600000D02*
X38000000Y78300000D01*
X33300000Y72300000D02*
X33300000Y73600000D01*
X9000000Y83000000D02*
X11700000Y85700000D01*
X11700000Y72300000D02*
X9000000Y75000000D01*
X11700000Y85700000D02*
X17000000Y91000000D01*
X9000000Y75000000D02*
X9000000Y83000000D01*
D23*
X2000000Y25580000D02*
X5400000Y25580000D01*
X5400000Y23614244D02*
X8014244Y21000000D01*
X5400000Y25580000D02*
X5400000Y23614244D01*
X8014244Y21000000D02*
X10000000Y21000000D01*
X10000000Y21000000D02*
X19750000Y11250000D01*
X19750000Y9000000D02*
X19750000Y11250000D01*
X24750000Y37500000D02*
X26950000Y39700000D01*
X24750000Y36250000D02*
X24750000Y37500000D01*
X18750001Y35250001D02*
X14449999Y35250001D01*
X19750000Y36250000D02*
X18750001Y35250001D01*
X14449999Y35250001D02*
X13100000Y36600000D01*
X13100000Y38300000D02*
X11700000Y39700000D01*
X13100000Y36600000D02*
X13100000Y38300000D01*
X42900000Y25500000D02*
X39500000Y25500000D01*
X39500000Y25500000D02*
X24830000Y10830000D01*
X24830000Y9000000D02*
X24830000Y10830000D01*
D25*
G36*
X44450000Y36547170D02*
G01*
X44387478Y36640741D01*
X44120741Y36907478D01*
X43807093Y37117051D01*
X43458585Y37261408D01*
X43088611Y37335000D01*
X42711389Y37335000D01*
X42341415Y37261408D01*
X41992907Y37117051D01*
X41735415Y36945000D01*
X40664585Y36945000D01*
X40407093Y37117051D01*
X40058585Y37261408D01*
X39688611Y37335000D01*
X39311389Y37335000D01*
X38941415Y37261408D01*
X38592907Y37117051D01*
X38279259Y36907478D01*
X38012522Y36640741D01*
X37802949Y36327093D01*
X37658592Y35978585D01*
X37598176Y35674852D01*
X35723190Y33799865D01*
X35506416Y33915733D01*
X35218952Y34002934D01*
X34994911Y34025000D01*
X34920000Y34032378D01*
X34845089Y34025000D01*
X33775788Y34025000D01*
X33750000Y34027540D01*
X32799121Y34027540D01*
X32750000Y34032378D01*
X32700879Y34027540D01*
X31750000Y34027540D01*
X31647082Y34017403D01*
X31548119Y33987383D01*
X31456914Y33938633D01*
X31376973Y33873027D01*
X31311367Y33793086D01*
X31262617Y33701881D01*
X31232597Y33602918D01*
X31222460Y33500000D01*
X31222460Y33129136D01*
X27868326Y29775000D01*
X24599801Y29775000D01*
X24525960Y29760312D01*
X24451048Y29752934D01*
X24379013Y29731083D01*
X24305174Y29716395D01*
X24235619Y29687585D01*
X24163584Y29665733D01*
X24097198Y29630249D01*
X24027642Y29601438D01*
X23965042Y29559610D01*
X23898656Y29524126D01*
X23840468Y29476373D01*
X23777869Y29434545D01*
X23724632Y29381308D01*
X23666445Y29333555D01*
X23618692Y29275368D01*
X23565455Y29222131D01*
X23523627Y29159532D01*
X23475874Y29101344D01*
X23440390Y29034958D01*
X23398562Y28972358D01*
X23369751Y28902802D01*
X23334267Y28836416D01*
X23312415Y28764381D01*
X23283605Y28694826D01*
X23268917Y28620987D01*
X23247066Y28548952D01*
X23239688Y28474040D01*
X23225000Y28400199D01*
X23225000Y28324911D01*
X23217622Y28250000D01*
X23225000Y28175089D01*
X23225000Y28099801D01*
X23239688Y28025960D01*
X23247066Y27951048D01*
X23268917Y27879013D01*
X23283605Y27805174D01*
X23312415Y27735619D01*
X23334267Y27663584D01*
X23369751Y27597198D01*
X23398562Y27527642D01*
X23440390Y27465042D01*
X23475874Y27398656D01*
X23523627Y27340468D01*
X23565455Y27277869D01*
X23618692Y27224632D01*
X23666445Y27166445D01*
X23724631Y27118693D01*
X23777869Y27065455D01*
X23840468Y27023627D01*
X23898656Y26975874D01*
X23965042Y26940390D01*
X24027642Y26898562D01*
X24097198Y26869751D01*
X24163584Y26834267D01*
X24235619Y26812415D01*
X24305174Y26783605D01*
X24379013Y26768917D01*
X24451048Y26747066D01*
X24525960Y26739688D01*
X24599801Y26725000D01*
X28425089Y26725000D01*
X28500000Y26717622D01*
X28798952Y26747066D01*
X28975895Y26800741D01*
X29086416Y26834267D01*
X29351344Y26975874D01*
X29583555Y27166445D01*
X29631317Y27224642D01*
X33379136Y30972460D01*
X33750000Y30972460D01*
X33775788Y30975000D01*
X34225001Y30975000D01*
X34225000Y28659698D01*
X34211367Y28643086D01*
X34162617Y28551881D01*
X34132597Y28452918D01*
X34122460Y28350000D01*
X34122460Y27779136D01*
X29974641Y23631315D01*
X29916445Y23583555D01*
X29725874Y23351344D01*
X29584267Y23086416D01*
X29576844Y23061944D01*
X29561367Y23043086D01*
X29512617Y22951881D01*
X29482597Y22852918D01*
X29472460Y22750000D01*
X29472460Y22549121D01*
X29467622Y22500000D01*
X29472460Y22450879D01*
X29472460Y20750000D01*
X29482597Y20647082D01*
X29512617Y20548119D01*
X29561367Y20456914D01*
X29626973Y20376973D01*
X29706914Y20311367D01*
X29798119Y20262617D01*
X29897082Y20232597D01*
X30000000Y20222460D01*
X30950879Y20222460D01*
X31000000Y20217622D01*
X31049121Y20222460D01*
X32000000Y20222460D01*
X32072973Y20229648D01*
X23804638Y11961312D01*
X23746446Y11913555D01*
X23555875Y11681344D01*
X23549019Y11668517D01*
X23414267Y11416415D01*
X23327066Y11128952D01*
X23297622Y10830000D01*
X23305001Y10755080D01*
X23305001Y10079236D01*
X23089070Y10249327D01*
X22884836Y10358477D01*
X22665000Y10270566D01*
X22665000Y9375000D01*
X22685000Y9375000D01*
X22685000Y8625000D01*
X22665000Y8625000D01*
X22665000Y7729434D01*
X22884836Y7641523D01*
X23089070Y7750673D01*
X23317448Y7930569D01*
X23506341Y8151563D01*
X23530901Y8195378D01*
X23555874Y8148657D01*
X23746445Y7916445D01*
X23978656Y7725874D01*
X24243584Y7584267D01*
X24531048Y7497066D01*
X24830000Y7467622D01*
X25128951Y7497066D01*
X25416415Y7584267D01*
X25681343Y7725874D01*
X25913555Y7916445D01*
X26104126Y8148656D01*
X26245733Y8413584D01*
X26332934Y8701048D01*
X26355000Y8925089D01*
X26355000Y10198326D01*
X33406723Y17250049D01*
X34125000Y17250049D01*
X34125000Y16929951D01*
X34187448Y16616005D01*
X34309943Y16320274D01*
X34487780Y16054123D01*
X34714123Y15827780D01*
X34980274Y15649943D01*
X35070936Y15612390D01*
X35475001Y15208325D01*
X35475000Y12775026D01*
X35406914Y12738633D01*
X35326973Y12673027D01*
X35261367Y12593086D01*
X35212617Y12501881D01*
X35182597Y12402918D01*
X35172460Y12300000D01*
X35172460Y9700000D01*
X35182597Y9597082D01*
X35212617Y9498119D01*
X35261367Y9406914D01*
X35326973Y9326973D01*
X35406914Y9261367D01*
X35498119Y9212617D01*
X35597082Y9182597D01*
X35700000Y9172460D01*
X38300000Y9172460D01*
X38402918Y9182597D01*
X38501881Y9212617D01*
X38593086Y9261367D01*
X38673027Y9326973D01*
X38738633Y9406914D01*
X38787383Y9498119D01*
X38788398Y9501466D01*
X41031796Y9501466D01*
X41183174Y9237748D01*
X41542668Y9112255D01*
X41919736Y9059306D01*
X42299889Y9080937D01*
X42668517Y9176316D01*
X42816826Y9237748D01*
X42968204Y9501466D01*
X42000000Y10469670D01*
X41031796Y9501466D01*
X38788398Y9501466D01*
X38817403Y9597082D01*
X38827540Y9700000D01*
X38827540Y11080264D01*
X40059306Y11080264D01*
X40080937Y10700111D01*
X40176316Y10331483D01*
X40237748Y10183174D01*
X40501466Y10031796D01*
X41469670Y11000000D01*
X42530330Y11000000D01*
X43498534Y10031796D01*
X43762252Y10183174D01*
X43887745Y10542668D01*
X43940694Y10919736D01*
X43919063Y11299889D01*
X43823684Y11668517D01*
X43762252Y11816826D01*
X43498534Y11968204D01*
X42530330Y11000000D01*
X41469670Y11000000D01*
X40501466Y11968204D01*
X40237748Y11816826D01*
X40112255Y11457332D01*
X40059306Y11080264D01*
X38827540Y11080264D01*
X38827540Y12300000D01*
X38817403Y12402918D01*
X38788399Y12498534D01*
X41031796Y12498534D01*
X42000000Y11530330D01*
X42968204Y12498534D01*
X42816826Y12762252D01*
X42457332Y12887745D01*
X42080264Y12940694D01*
X41700111Y12919063D01*
X41331483Y12823684D01*
X41183174Y12762252D01*
X41031796Y12498534D01*
X38788399Y12498534D01*
X38787383Y12501881D01*
X38738633Y12593086D01*
X38673027Y12673027D01*
X38593086Y12738633D01*
X38525000Y12775026D01*
X38525000Y15765089D01*
X38532378Y15840000D01*
X38516620Y16000000D01*
X38502934Y16138952D01*
X38415733Y16426416D01*
X38274126Y16691344D01*
X38083555Y16923555D01*
X38025362Y16971313D01*
X37227610Y17769064D01*
X37190057Y17859726D01*
X37012220Y18125877D01*
X36785877Y18352220D01*
X36519726Y18530057D01*
X36223995Y18652552D01*
X35910049Y18715000D01*
X35589951Y18715000D01*
X35276005Y18652552D01*
X34980274Y18530057D01*
X34714123Y18352220D01*
X34487780Y18125877D01*
X34309943Y17859726D01*
X34187448Y17563995D01*
X34125000Y17250049D01*
X33406723Y17250049D01*
X35365968Y19209294D01*
X38875000Y19209294D01*
X38875000Y18790706D01*
X38956663Y18380160D01*
X39116849Y17993435D01*
X39349405Y17645391D01*
X39645391Y17349405D01*
X39993435Y17116849D01*
X40380160Y16956663D01*
X40790706Y16875000D01*
X41209294Y16875000D01*
X41619840Y16956663D01*
X42006565Y17116849D01*
X42354609Y17349405D01*
X42650595Y17645391D01*
X42883151Y17993435D01*
X43043337Y18380160D01*
X43125000Y18790706D01*
X43125000Y19209294D01*
X43043337Y19619840D01*
X42883151Y20006565D01*
X42650595Y20354609D01*
X42354609Y20650595D01*
X42006565Y20883151D01*
X41619840Y21043337D01*
X41209294Y21125000D01*
X40790706Y21125000D01*
X40380160Y21043337D01*
X39993435Y20883151D01*
X39645391Y20650595D01*
X39349405Y20354609D01*
X39116849Y20006565D01*
X38956663Y19619840D01*
X38875000Y19209294D01*
X35365968Y19209294D01*
X39754851Y23598176D01*
X40058585Y23658592D01*
X40407093Y23802949D01*
X40664585Y23975000D01*
X41735415Y23975000D01*
X41992907Y23802949D01*
X42341415Y23658592D01*
X42711389Y23585000D01*
X43088611Y23585000D01*
X43458585Y23658592D01*
X43807093Y23802949D01*
X44120741Y24012522D01*
X44387478Y24279259D01*
X44450000Y24372830D01*
X44450000Y6026899D01*
X44438843Y5913108D01*
X44413606Y5829521D01*
X44372617Y5752432D01*
X44317436Y5684773D01*
X44250161Y5629119D01*
X44173361Y5587593D01*
X44089956Y5561775D01*
X43977927Y5550000D01*
X1026899Y5550000D01*
X913108Y5561157D01*
X829521Y5586394D01*
X752432Y5627383D01*
X684773Y5682564D01*
X629119Y5749839D01*
X587593Y5826639D01*
X561775Y5910044D01*
X550000Y6022073D01*
X550000Y9700000D01*
X1063937Y9700000D01*
X1076159Y9575910D01*
X1112354Y9456589D01*
X1171133Y9346622D01*
X1250236Y9250236D01*
X1346622Y9171133D01*
X1456589Y9112354D01*
X1575910Y9076159D01*
X1700000Y9063937D01*
X2466750Y9067000D01*
X2625000Y9225250D01*
X2625000Y10625000D01*
X3375000Y10625000D01*
X3375000Y9225250D01*
X3533250Y9067000D01*
X4300000Y9063937D01*
X4424090Y9076159D01*
X4543411Y9112354D01*
X4653378Y9171133D01*
X4749764Y9250236D01*
X4828867Y9346622D01*
X4887646Y9456589D01*
X4923841Y9575910D01*
X4936063Y9700000D01*
X4933000Y10466750D01*
X4774750Y10625000D01*
X3375000Y10625000D01*
X2625000Y10625000D01*
X1225250Y10625000D01*
X1067000Y10466750D01*
X1063937Y9700000D01*
X550000Y9700000D01*
X550000Y12300000D01*
X1063937Y12300000D01*
X1067000Y11533250D01*
X1225250Y11375000D01*
X2625000Y11375000D01*
X2625000Y12774750D01*
X3375000Y12774750D01*
X3375000Y11375000D01*
X4774750Y11375000D01*
X4933000Y11533250D01*
X4936063Y12300000D01*
X4923841Y12424090D01*
X4887646Y12543411D01*
X4828867Y12653378D01*
X4749764Y12749764D01*
X4653378Y12828867D01*
X4543411Y12887646D01*
X4424090Y12923841D01*
X4300000Y12936063D01*
X3533250Y12933000D01*
X3375000Y12774750D01*
X2625000Y12774750D01*
X2466750Y12933000D01*
X1700000Y12936063D01*
X1575910Y12923841D01*
X1456589Y12887646D01*
X1346622Y12828867D01*
X1250236Y12749764D01*
X1171133Y12653378D01*
X1112354Y12543411D01*
X1076159Y12424090D01*
X1063937Y12300000D01*
X550000Y12300000D01*
X550000Y19209294D01*
X1875000Y19209294D01*
X1875000Y18790706D01*
X1956663Y18380160D01*
X2116849Y17993435D01*
X2349405Y17645391D01*
X2645391Y17349405D01*
X2993435Y17116849D01*
X3380160Y16956663D01*
X3790706Y16875000D01*
X4209294Y16875000D01*
X4619840Y16956663D01*
X5006565Y17116849D01*
X5354609Y17349405D01*
X5650595Y17645391D01*
X5883151Y17993435D01*
X6043337Y18380160D01*
X6125000Y18790706D01*
X6125000Y19209294D01*
X6043337Y19619840D01*
X5883151Y20006565D01*
X5650595Y20354609D01*
X5354609Y20650595D01*
X5006565Y20883151D01*
X4619840Y21043337D01*
X4209294Y21125000D01*
X3790706Y21125000D01*
X3380160Y21043337D01*
X2993435Y20883151D01*
X2645391Y20650595D01*
X2349405Y20354609D01*
X2116849Y20006565D01*
X1956663Y19619840D01*
X1875000Y19209294D01*
X550000Y19209294D01*
X550000Y24321781D01*
X779259Y24092522D01*
X1092907Y23882949D01*
X1441415Y23738592D01*
X1811389Y23665000D01*
X2188611Y23665000D01*
X2558585Y23738592D01*
X2907093Y23882949D01*
X3164585Y24055000D01*
X3875001Y24055000D01*
X3875001Y23689164D01*
X3867622Y23614244D01*
X3897066Y23315292D01*
X3984267Y23027829D01*
X4034129Y22934545D01*
X4125875Y22762900D01*
X4316446Y22530689D01*
X4374638Y22482932D01*
X6882932Y19974637D01*
X6930689Y19916445D01*
X7162900Y19725874D01*
X7427828Y19584267D01*
X7648386Y19517362D01*
X7715291Y19497066D01*
X7743282Y19494309D01*
X7939333Y19475000D01*
X7939340Y19475000D01*
X8014243Y19467623D01*
X8089146Y19475000D01*
X9368326Y19475000D01*
X10235940Y18607386D01*
X10202918Y18617403D01*
X10100000Y18627540D01*
X7900000Y18627540D01*
X7797082Y18617403D01*
X7698119Y18587383D01*
X7606914Y18538633D01*
X7526973Y18473027D01*
X7461367Y18393086D01*
X7412617Y18301881D01*
X7382597Y18202918D01*
X7372460Y18100000D01*
X7372460Y17529134D01*
X6974638Y17131312D01*
X6916446Y17083555D01*
X6725875Y16851344D01*
X6693646Y16791048D01*
X6584267Y16586415D01*
X6497066Y16298952D01*
X6467622Y16000000D01*
X6475001Y15925080D01*
X6475000Y12002589D01*
X6382706Y11864461D01*
X6245134Y11532333D01*
X6175000Y11179747D01*
X6175000Y10820253D01*
X6245134Y10467667D01*
X6382706Y10135539D01*
X6582430Y9836631D01*
X6836631Y9582430D01*
X7135539Y9382706D01*
X7467667Y9245134D01*
X7820253Y9175000D01*
X8179747Y9175000D01*
X8532333Y9245134D01*
X8864461Y9382706D01*
X9163369Y9582430D01*
X9417570Y9836631D01*
X9617294Y10135539D01*
X9754866Y10467667D01*
X9825000Y10820253D01*
X9825000Y11179747D01*
X9754866Y11532333D01*
X9617294Y11864461D01*
X9525000Y12002589D01*
X9525000Y15368326D01*
X9529134Y15372460D01*
X10100000Y15372460D01*
X10202918Y15382597D01*
X10301881Y15412617D01*
X10393086Y15461367D01*
X10473027Y15526973D01*
X10538633Y15606914D01*
X10587383Y15698119D01*
X10617403Y15797082D01*
X10627540Y15900000D01*
X10627540Y18100000D01*
X10617403Y18202918D01*
X10607386Y18235940D01*
X18225001Y10618324D01*
X18225000Y8925090D01*
X18247066Y8701049D01*
X18334267Y8413585D01*
X18372460Y8342131D01*
X18372460Y8150000D01*
X18382597Y8047082D01*
X18412617Y7948119D01*
X18461367Y7856914D01*
X18526973Y7776973D01*
X18606914Y7711367D01*
X18698119Y7662617D01*
X18797082Y7632597D01*
X18900000Y7622460D01*
X19092130Y7622460D01*
X19163584Y7584267D01*
X19451048Y7497066D01*
X19750000Y7467622D01*
X20048951Y7497066D01*
X20336415Y7584267D01*
X20407869Y7622460D01*
X20600000Y7622460D01*
X20702918Y7632597D01*
X20801881Y7662617D01*
X20893086Y7711367D01*
X20973027Y7776973D01*
X21038633Y7856914D01*
X21087383Y7948119D01*
X21117403Y8047082D01*
X21122111Y8094877D01*
X21262552Y7930569D01*
X21490930Y7750673D01*
X21695164Y7641523D01*
X21915000Y7729434D01*
X21915000Y8625000D01*
X21895000Y8625000D01*
X21895000Y9375000D01*
X21915000Y9375000D01*
X21915000Y10270566D01*
X21695164Y10358477D01*
X21490930Y10249327D01*
X21275000Y10079236D01*
X21275000Y11175090D01*
X21282378Y11250001D01*
X21252934Y11548953D01*
X21216664Y11668517D01*
X21165733Y11836416D01*
X21024126Y12101344D01*
X20833555Y12333555D01*
X20775363Y12381312D01*
X11131317Y22025357D01*
X11083555Y22083555D01*
X10851344Y22274126D01*
X10586416Y22415733D01*
X10298952Y22502934D01*
X10074911Y22525000D01*
X10000000Y22532378D01*
X9925089Y22525000D01*
X8645919Y22525000D01*
X6925000Y24245918D01*
X6925000Y24415415D01*
X7097051Y24672907D01*
X7241408Y25021415D01*
X7315000Y25391389D01*
X7315000Y25768611D01*
X7241408Y26138585D01*
X7097051Y26487093D01*
X6887478Y26800741D01*
X6620741Y27067478D01*
X6307093Y27277051D01*
X5958585Y27421408D01*
X5588611Y27495000D01*
X5211389Y27495000D01*
X4841415Y27421408D01*
X4492907Y27277051D01*
X4235415Y27105000D01*
X3164585Y27105000D01*
X2907093Y27277051D01*
X2558585Y27421408D01*
X2188611Y27495000D01*
X1811389Y27495000D01*
X1441415Y27421408D01*
X1092907Y27277051D01*
X779259Y27067478D01*
X550000Y26838219D01*
X550000Y34241781D01*
X779259Y34012522D01*
X1092907Y33802949D01*
X1441415Y33658592D01*
X1811389Y33585000D01*
X2188611Y33585000D01*
X2558585Y33658592D01*
X2907093Y33802949D01*
X3164585Y33975000D01*
X4235415Y33975000D01*
X4492907Y33802949D01*
X4841415Y33658592D01*
X5211389Y33585000D01*
X5588611Y33585000D01*
X5958585Y33658592D01*
X6307093Y33802949D01*
X6564585Y33975000D01*
X8118326Y33975000D01*
X10225000Y31868324D01*
X10225001Y30541676D01*
X8320936Y28637610D01*
X8230274Y28600057D01*
X7964123Y28422220D01*
X7737780Y28195877D01*
X7559943Y27929726D01*
X7437448Y27633995D01*
X7375000Y27320049D01*
X7375000Y26999951D01*
X7437448Y26686005D01*
X7475000Y26595345D01*
X7475001Y24824920D01*
X7467622Y24750000D01*
X7497066Y24451048D01*
X7584267Y24163584D01*
X7725874Y23898656D01*
X7916445Y23666445D01*
X8148656Y23475874D01*
X8413584Y23334267D01*
X8701048Y23247066D01*
X8925089Y23225000D01*
X8925090Y23225000D01*
X9000000Y23217622D01*
X9074911Y23225000D01*
X10618326Y23225000D01*
X13065455Y20777869D01*
X13118698Y20724626D01*
X13166446Y20666445D01*
X13224627Y20618697D01*
X13277869Y20565455D01*
X13340468Y20523628D01*
X13398656Y20475874D01*
X13465042Y20440390D01*
X13527642Y20398562D01*
X13597198Y20369751D01*
X13663584Y20334267D01*
X13735619Y20312415D01*
X13805174Y20283605D01*
X13879013Y20268917D01*
X13951048Y20247066D01*
X14025960Y20239688D01*
X14099801Y20225000D01*
X14175089Y20225000D01*
X14250000Y20217622D01*
X14324911Y20225000D01*
X14400199Y20225000D01*
X14474040Y20239688D01*
X14548952Y20247066D01*
X14620986Y20268917D01*
X14694826Y20283605D01*
X14764381Y20312415D01*
X14836416Y20334267D01*
X14902802Y20369751D01*
X14972358Y20398562D01*
X15034958Y20440390D01*
X15101344Y20475874D01*
X15159532Y20523627D01*
X15222131Y20565455D01*
X15275368Y20618692D01*
X15333555Y20666445D01*
X15381308Y20724632D01*
X15406676Y20750000D01*
X17613937Y20750000D01*
X17626159Y20625910D01*
X17662354Y20506589D01*
X17721133Y20396622D01*
X17800236Y20300236D01*
X17896622Y20221133D01*
X18006589Y20162354D01*
X18125910Y20126159D01*
X18250000Y20113937D01*
X18716750Y20117000D01*
X18875000Y20275250D01*
X18875000Y21375000D01*
X19625000Y21375000D01*
X19625000Y20275250D01*
X19783250Y20117000D01*
X20250000Y20113937D01*
X20374090Y20126159D01*
X20493411Y20162354D01*
X20603378Y20221133D01*
X20699764Y20300236D01*
X20778867Y20396622D01*
X20818371Y20470530D01*
X25250860Y20470530D01*
X25364409Y20237196D01*
X25671755Y20142266D01*
X25991715Y20109121D01*
X26311994Y20139034D01*
X26620283Y20230855D01*
X26635591Y20237196D01*
X26749140Y20470530D01*
X26000000Y21219670D01*
X25250860Y20470530D01*
X20818371Y20470530D01*
X20837646Y20506589D01*
X20873841Y20625910D01*
X20886063Y20750000D01*
X20883000Y21216750D01*
X20724750Y21375000D01*
X19625000Y21375000D01*
X18875000Y21375000D01*
X17775250Y21375000D01*
X17617000Y21216750D01*
X17613937Y20750000D01*
X15406676Y20750000D01*
X15434545Y20777869D01*
X15476373Y20840468D01*
X15524126Y20898656D01*
X15559610Y20965042D01*
X15601438Y21027642D01*
X15630249Y21097198D01*
X15665733Y21163584D01*
X15687585Y21235619D01*
X15716395Y21305174D01*
X15731083Y21379013D01*
X15752934Y21451048D01*
X15760312Y21525960D01*
X15775000Y21599801D01*
X15775000Y21675090D01*
X15782378Y21750000D01*
X15781563Y21758285D01*
X24359121Y21758285D01*
X24389034Y21438006D01*
X24480855Y21129717D01*
X24487196Y21114409D01*
X24720530Y21000860D01*
X25469670Y21750000D01*
X26530330Y21750000D01*
X27279470Y21000860D01*
X27512804Y21114409D01*
X27607734Y21421755D01*
X27640879Y21741715D01*
X27610966Y22061994D01*
X27519145Y22370283D01*
X27512804Y22385591D01*
X27279470Y22499140D01*
X26530330Y21750000D01*
X25469670Y21750000D01*
X24720530Y22499140D01*
X24487196Y22385591D01*
X24392266Y22078245D01*
X24359121Y21758285D01*
X15781563Y21758285D01*
X15775000Y21824911D01*
X15775000Y22750000D01*
X17613937Y22750000D01*
X17617000Y22283250D01*
X17775250Y22125000D01*
X18875000Y22125000D01*
X18875000Y23224750D01*
X19625000Y23224750D01*
X19625000Y22125000D01*
X20724750Y22125000D01*
X20883000Y22283250D01*
X20886063Y22750000D01*
X20873841Y22874090D01*
X20837646Y22993411D01*
X20818372Y23029470D01*
X25250860Y23029470D01*
X26000000Y22280330D01*
X26749140Y23029470D01*
X26635591Y23262804D01*
X26328245Y23357734D01*
X26008285Y23390879D01*
X25688006Y23360966D01*
X25379717Y23269145D01*
X25364409Y23262804D01*
X25250860Y23029470D01*
X20818372Y23029470D01*
X20778867Y23103378D01*
X20699764Y23199764D01*
X20603378Y23278867D01*
X20493411Y23337646D01*
X20374090Y23373841D01*
X20250000Y23386063D01*
X19783250Y23383000D01*
X19625000Y23224750D01*
X18875000Y23224750D01*
X18716750Y23383000D01*
X18250000Y23386063D01*
X18125910Y23373841D01*
X18006589Y23337646D01*
X17896622Y23278867D01*
X17800236Y23199764D01*
X17721133Y23103378D01*
X17662354Y22993411D01*
X17626159Y22874090D01*
X17613937Y22750000D01*
X15775000Y22750000D01*
X15775000Y23118325D01*
X16631675Y23975000D01*
X16925089Y23975000D01*
X17000000Y23967622D01*
X17298952Y23997066D01*
X17469994Y24048951D01*
X17586416Y24084267D01*
X17851344Y24225874D01*
X18083555Y24416445D01*
X18131317Y24474643D01*
X20722128Y27065453D01*
X20722131Y27065455D01*
X20934545Y27277869D01*
X20976374Y27340471D01*
X21024125Y27398655D01*
X21059607Y27465038D01*
X21101438Y27527642D01*
X21130252Y27597205D01*
X21165732Y27663584D01*
X21187582Y27735613D01*
X21216395Y27805174D01*
X21231083Y27879013D01*
X21252934Y27951047D01*
X21260312Y28025959D01*
X21275000Y28099801D01*
X21275000Y28175096D01*
X21282377Y28249999D01*
X21275000Y28324902D01*
X21275000Y28400199D01*
X21260311Y28474043D01*
X21252934Y28548951D01*
X21231084Y28620982D01*
X21216395Y28694826D01*
X21187581Y28764390D01*
X21165732Y28836415D01*
X21130254Y28902789D01*
X21101438Y28972358D01*
X21059603Y29034969D01*
X21024125Y29101343D01*
X20976381Y29159520D01*
X20934545Y29222131D01*
X20881297Y29275379D01*
X20833554Y29333554D01*
X20775379Y29381297D01*
X20722131Y29434545D01*
X20659520Y29476381D01*
X20601343Y29524125D01*
X20534969Y29559603D01*
X20472358Y29601438D01*
X20402789Y29630254D01*
X20336415Y29665732D01*
X20264390Y29687581D01*
X20194826Y29716395D01*
X20120982Y29731084D01*
X20048951Y29752934D01*
X19974043Y29760311D01*
X19900199Y29775000D01*
X19824902Y29775000D01*
X19749999Y29782377D01*
X19675096Y29775000D01*
X19599801Y29775000D01*
X19525959Y29760312D01*
X19451047Y29752934D01*
X19379013Y29731083D01*
X19305174Y29716395D01*
X19235613Y29687582D01*
X19163584Y29665732D01*
X19097205Y29630252D01*
X19027642Y29601438D01*
X18965038Y29559607D01*
X18898655Y29524125D01*
X18840471Y29476374D01*
X18777869Y29434545D01*
X18565455Y29222131D01*
X18565453Y29222128D01*
X16368326Y27025000D01*
X16074911Y27025000D01*
X16000000Y27032378D01*
X15925089Y27025000D01*
X15701048Y27002934D01*
X15413584Y26915733D01*
X15148656Y26774126D01*
X14916445Y26583555D01*
X14868692Y26525368D01*
X13250000Y24906674D01*
X12381316Y25775358D01*
X12333555Y25833555D01*
X12101344Y26024126D01*
X11836416Y26165733D01*
X11548952Y26252934D01*
X11324911Y26275000D01*
X11250000Y26282378D01*
X11175089Y26275000D01*
X10525000Y26275000D01*
X10525000Y26528326D01*
X12775363Y28778688D01*
X12833555Y28826445D01*
X13024126Y29058656D01*
X13165733Y29323584D01*
X13252934Y29611048D01*
X13275000Y29835089D01*
X13275000Y29835096D01*
X13282377Y29909999D01*
X13275000Y29984902D01*
X13275000Y31500000D01*
X15113937Y31500000D01*
X15126159Y31375910D01*
X15162354Y31256589D01*
X15221133Y31146622D01*
X15300236Y31050236D01*
X15396622Y30971133D01*
X15506589Y30912354D01*
X15625910Y30876159D01*
X15750000Y30863937D01*
X16216750Y30867000D01*
X16375000Y31025250D01*
X16375000Y32125000D01*
X17125000Y32125000D01*
X17125000Y31025250D01*
X17283250Y30867000D01*
X17750000Y30863937D01*
X17874090Y30876159D01*
X17993411Y30912354D01*
X18103378Y30971133D01*
X18199764Y31050236D01*
X18278867Y31146622D01*
X18318371Y31220530D01*
X27000860Y31220530D01*
X27114409Y30987196D01*
X27421755Y30892266D01*
X27741715Y30859121D01*
X28061994Y30889034D01*
X28370283Y30980855D01*
X28385591Y30987196D01*
X28499140Y31220530D01*
X27750000Y31969670D01*
X27000860Y31220530D01*
X18318371Y31220530D01*
X18337646Y31256589D01*
X18373841Y31375910D01*
X18386063Y31500000D01*
X18383000Y31966750D01*
X18224750Y32125000D01*
X17125000Y32125000D01*
X16375000Y32125000D01*
X15275250Y32125000D01*
X15117000Y31966750D01*
X15113937Y31500000D01*
X13275000Y31500000D01*
X13275000Y32425089D01*
X13282378Y32500000D01*
X13281563Y32508285D01*
X26109121Y32508285D01*
X26139034Y32188006D01*
X26230855Y31879717D01*
X26237196Y31864409D01*
X26470530Y31750860D01*
X27219670Y32500000D01*
X28280330Y32500000D01*
X29029470Y31750860D01*
X29262804Y31864409D01*
X29357734Y32171755D01*
X29390879Y32491715D01*
X29360966Y32811994D01*
X29269145Y33120283D01*
X29262804Y33135591D01*
X29029470Y33249140D01*
X28280330Y32500000D01*
X27219670Y32500000D01*
X26470530Y33249140D01*
X26237196Y33135591D01*
X26142266Y32828245D01*
X26109121Y32508285D01*
X13281563Y32508285D01*
X13275000Y32574911D01*
X13275000Y32650199D01*
X13260312Y32724040D01*
X13252934Y32798952D01*
X13231083Y32870987D01*
X13216395Y32944826D01*
X13187585Y33014381D01*
X13165733Y33086416D01*
X13130249Y33152802D01*
X13101438Y33222358D01*
X13059610Y33284958D01*
X13024126Y33351344D01*
X12976372Y33409532D01*
X12934545Y33472131D01*
X12881308Y33525368D01*
X12833555Y33583555D01*
X12775368Y33631308D01*
X12722131Y33684545D01*
X9881316Y36525358D01*
X9833555Y36583555D01*
X9601344Y36774126D01*
X9336416Y36915733D01*
X9048952Y37002934D01*
X8824911Y37025000D01*
X8750000Y37032378D01*
X8675089Y37025000D01*
X6564585Y37025000D01*
X6307093Y37197051D01*
X5958585Y37341408D01*
X5588611Y37415000D01*
X5211389Y37415000D01*
X4841415Y37341408D01*
X4492907Y37197051D01*
X4235415Y37025000D01*
X3164585Y37025000D01*
X2907093Y37197051D01*
X2558585Y37341408D01*
X2188611Y37415000D01*
X1811389Y37415000D01*
X1441415Y37341408D01*
X1092907Y37197051D01*
X779259Y36987478D01*
X550000Y36758219D01*
X550000Y40299480D01*
X9675000Y40299480D01*
X9675000Y39100519D01*
X9704300Y38803031D01*
X9820092Y38421317D01*
X10008128Y38069527D01*
X10261182Y37761181D01*
X10569528Y37508127D01*
X10921318Y37320092D01*
X11303032Y37204300D01*
X11575000Y37177513D01*
X11575000Y36674911D01*
X11567622Y36600000D01*
X11597066Y36301048D01*
X11635275Y36175090D01*
X11684267Y36013585D01*
X11825874Y35748657D01*
X12016445Y35516445D01*
X12074642Y35468684D01*
X13318687Y34224639D01*
X13366444Y34166446D01*
X13598655Y33975875D01*
X13827831Y33853378D01*
X13863583Y33834268D01*
X14151047Y33747067D01*
X14449999Y33717623D01*
X14524910Y33725001D01*
X15156769Y33725001D01*
X15126159Y33624090D01*
X15113937Y33500000D01*
X15117000Y33033250D01*
X15275250Y32875000D01*
X16375000Y32875000D01*
X16375000Y32895000D01*
X17125000Y32895000D01*
X17125000Y32875000D01*
X18224750Y32875000D01*
X18383000Y33033250D01*
X18386063Y33500000D01*
X18373841Y33624090D01*
X18343231Y33725001D01*
X18675090Y33725001D01*
X18750001Y33717623D01*
X19048953Y33747067D01*
X19155771Y33779470D01*
X27000860Y33779470D01*
X27750000Y33030330D01*
X28499140Y33779470D01*
X28385591Y34012804D01*
X28078245Y34107734D01*
X27758285Y34140879D01*
X27438006Y34110966D01*
X27129717Y34019145D01*
X27114409Y34012804D01*
X27000860Y33779470D01*
X19155771Y33779470D01*
X19336417Y33834268D01*
X19601345Y33975875D01*
X19833556Y34166446D01*
X19881318Y34224644D01*
X20722125Y35065451D01*
X20722131Y35065455D01*
X20934545Y35277869D01*
X20976378Y35340477D01*
X21024125Y35398656D01*
X21059607Y35465037D01*
X21101438Y35527642D01*
X21130250Y35597200D01*
X21165733Y35663584D01*
X21187585Y35735620D01*
X21216395Y35805174D01*
X21231082Y35879011D01*
X21252934Y35951047D01*
X21260312Y36025961D01*
X21275000Y36099801D01*
X21275000Y36175090D01*
X21282378Y36249999D01*
X21275000Y36324910D01*
X21275000Y36400199D01*
X21260312Y36474041D01*
X21252934Y36548951D01*
X21231083Y36620984D01*
X21216395Y36694826D01*
X21187583Y36764384D01*
X21165733Y36836415D01*
X21130252Y36902796D01*
X21101438Y36972358D01*
X21059604Y37034967D01*
X21024125Y37101343D01*
X20976381Y37159520D01*
X20934545Y37222131D01*
X20881297Y37275379D01*
X20833554Y37333554D01*
X20775379Y37381297D01*
X20722131Y37434545D01*
X20659520Y37476381D01*
X20630740Y37500000D01*
X23217622Y37500000D01*
X23225000Y37425089D01*
X23225000Y36099801D01*
X23239688Y36025960D01*
X23247066Y35951049D01*
X23268917Y35879016D01*
X23283605Y35805174D01*
X23312417Y35735616D01*
X23334267Y35663585D01*
X23369749Y35597202D01*
X23398562Y35527642D01*
X23440392Y35465038D01*
X23475874Y35398657D01*
X23523625Y35340472D01*
X23565455Y35277869D01*
X23618691Y35224633D01*
X23666445Y35166445D01*
X23724632Y35118692D01*
X23777869Y35065455D01*
X23840468Y35023627D01*
X23898656Y34975874D01*
X23965042Y34940390D01*
X24027642Y34898562D01*
X24097198Y34869751D01*
X24163584Y34834267D01*
X24235619Y34812415D01*
X24305174Y34783605D01*
X24379013Y34768917D01*
X24451048Y34747066D01*
X24525960Y34739688D01*
X24599801Y34725000D01*
X24675089Y34725000D01*
X24750000Y34717622D01*
X24824910Y34725000D01*
X24900199Y34725000D01*
X24974040Y34739688D01*
X25048951Y34747066D01*
X25120984Y34768917D01*
X25194826Y34783605D01*
X25264384Y34812417D01*
X25336415Y34834267D01*
X25402798Y34869749D01*
X25472358Y34898562D01*
X25534962Y34940392D01*
X25601343Y34975874D01*
X25659528Y35023625D01*
X25722131Y35065455D01*
X25775370Y35118694D01*
X25833555Y35166445D01*
X25881309Y35224633D01*
X25934545Y35277869D01*
X25976373Y35340468D01*
X26024126Y35398656D01*
X26059610Y35465042D01*
X26101438Y35527642D01*
X26130249Y35597198D01*
X26165733Y35663584D01*
X26187585Y35735619D01*
X26216395Y35805174D01*
X26231083Y35879013D01*
X26252934Y35951048D01*
X26260312Y36025960D01*
X26275000Y36099801D01*
X26275000Y36868326D01*
X26605780Y37199105D01*
X26950000Y37165202D01*
X27346969Y37204300D01*
X27728683Y37320092D01*
X28080473Y37508127D01*
X28388819Y37761181D01*
X28641873Y38069527D01*
X28829908Y38421317D01*
X28945700Y38803032D01*
X28963924Y38988072D01*
X31162884Y38988072D01*
X31245293Y38575213D01*
X31406664Y38186365D01*
X31640794Y37836470D01*
X31938687Y37538975D01*
X32288894Y37305312D01*
X32601139Y37184738D01*
X32925000Y37261183D01*
X32925000Y39325000D01*
X33675000Y39325000D01*
X33675000Y37261183D01*
X33998861Y37184738D01*
X34311106Y37305312D01*
X34661313Y37538975D01*
X34959206Y37836470D01*
X35193336Y38186365D01*
X35354707Y38575213D01*
X35437116Y38988072D01*
X35285707Y39325000D01*
X33675000Y39325000D01*
X32925000Y39325000D01*
X31314293Y39325000D01*
X31162884Y38988072D01*
X28963924Y38988072D01*
X28975000Y39100520D01*
X28975000Y40299481D01*
X28963925Y40411928D01*
X31162884Y40411928D01*
X31314293Y40075000D01*
X32925000Y40075000D01*
X32925000Y42138817D01*
X33675000Y42138817D01*
X33675000Y40075000D01*
X35285707Y40075000D01*
X35437116Y40411928D01*
X35354707Y40824787D01*
X35193336Y41213635D01*
X34959206Y41563530D01*
X34661313Y41861025D01*
X34311106Y42094688D01*
X33998861Y42215262D01*
X33675000Y42138817D01*
X32925000Y42138817D01*
X32601139Y42215262D01*
X32288894Y42094688D01*
X31938687Y41861025D01*
X31640794Y41563530D01*
X31406664Y41213635D01*
X31245293Y40824787D01*
X31162884Y40411928D01*
X28963925Y40411928D01*
X28945700Y40596969D01*
X28829908Y40978683D01*
X28641873Y41330473D01*
X28388819Y41638819D01*
X28080473Y41891873D01*
X27728682Y42079908D01*
X27346968Y42195700D01*
X26950000Y42234798D01*
X26553031Y42195700D01*
X26171317Y42079908D01*
X25819527Y41891873D01*
X25511181Y41638819D01*
X25258127Y41330473D01*
X25070092Y40978682D01*
X24954300Y40596968D01*
X24925000Y40299480D01*
X24925000Y39831675D01*
X23724638Y38631312D01*
X23666446Y38583555D01*
X23475875Y38351344D01*
X23334267Y38086416D01*
X23334267Y38086415D01*
X23247066Y37798952D01*
X23217622Y37500000D01*
X20630740Y37500000D01*
X20601343Y37524125D01*
X20534967Y37559604D01*
X20472358Y37601438D01*
X20402796Y37630252D01*
X20336415Y37665733D01*
X20264384Y37687583D01*
X20194826Y37716395D01*
X20120984Y37731083D01*
X20048951Y37752934D01*
X19974041Y37760312D01*
X19900199Y37775000D01*
X19824910Y37775000D01*
X19749999Y37782378D01*
X19675088Y37775000D01*
X19647654Y37775000D01*
X19709206Y37836470D01*
X19943336Y38186365D01*
X20104707Y38575213D01*
X20187116Y38988072D01*
X20035707Y39325000D01*
X18425000Y39325000D01*
X18425000Y37261183D01*
X18570227Y37226903D01*
X18565455Y37222131D01*
X18565451Y37222125D01*
X18118327Y36775001D01*
X15081674Y36775001D01*
X14625000Y37231674D01*
X14625000Y38225089D01*
X14632378Y38300000D01*
X14602934Y38598953D01*
X14515733Y38886416D01*
X14500063Y38915733D01*
X14461397Y38988072D01*
X15912884Y38988072D01*
X15995293Y38575213D01*
X16156664Y38186365D01*
X16390794Y37836470D01*
X16688687Y37538975D01*
X17038894Y37305312D01*
X17351139Y37184738D01*
X17675000Y37261183D01*
X17675000Y39325000D01*
X16064293Y39325000D01*
X15912884Y38988072D01*
X14461397Y38988072D01*
X14374126Y39151344D01*
X14183555Y39383555D01*
X14125362Y39431312D01*
X13725000Y39831675D01*
X13725000Y40299481D01*
X13713925Y40411928D01*
X15912884Y40411928D01*
X16064293Y40075000D01*
X17675000Y40075000D01*
X17675000Y42138817D01*
X18425000Y42138817D01*
X18425000Y40075000D01*
X20035707Y40075000D01*
X20187116Y40411928D01*
X20104707Y40824787D01*
X19943336Y41213635D01*
X19709206Y41563530D01*
X19411313Y41861025D01*
X19061106Y42094688D01*
X18748861Y42215262D01*
X18425000Y42138817D01*
X17675000Y42138817D01*
X17351139Y42215262D01*
X17038894Y42094688D01*
X16688687Y41861025D01*
X16390794Y41563530D01*
X16156664Y41213635D01*
X15995293Y40824787D01*
X15912884Y40411928D01*
X13713925Y40411928D01*
X13695700Y40596969D01*
X13579908Y40978683D01*
X13391873Y41330473D01*
X13138819Y41638819D01*
X12830473Y41891873D01*
X12478682Y42079908D01*
X12096968Y42195700D01*
X11700000Y42234798D01*
X11303031Y42195700D01*
X10921317Y42079908D01*
X10569527Y41891873D01*
X10261181Y41638819D01*
X10008127Y41330473D01*
X9820092Y40978682D01*
X9704300Y40596968D01*
X9675000Y40299480D01*
X550000Y40299480D01*
X550000Y42709294D01*
X20375000Y42709294D01*
X20375000Y42290706D01*
X20456663Y41880160D01*
X20616849Y41493435D01*
X20849405Y41145391D01*
X21145391Y40849405D01*
X21493435Y40616849D01*
X21880160Y40456663D01*
X22290706Y40375000D01*
X22709294Y40375000D01*
X23119840Y40456663D01*
X23506565Y40616849D01*
X23854609Y40849405D01*
X24150595Y41145391D01*
X24383151Y41493435D01*
X24543337Y41880160D01*
X24625000Y42290706D01*
X24625000Y42709294D01*
X24543337Y43119840D01*
X24383151Y43506565D01*
X24150595Y43854609D01*
X23854609Y44150595D01*
X23506565Y44383151D01*
X23119840Y44543337D01*
X22709294Y44625000D01*
X22290706Y44625000D01*
X21880160Y44543337D01*
X21493435Y44383151D01*
X21145391Y44150595D01*
X20849405Y43854609D01*
X20616849Y43506565D01*
X20456663Y43119840D01*
X20375000Y42709294D01*
X550000Y42709294D01*
X550000Y44875000D01*
X44450000Y44875000D01*
X44450000Y36547170D01*
G37*
X44450000Y36547170D02*
X44387478Y36640741D01*
X44120741Y36907478D01*
X43807093Y37117051D01*
X43458585Y37261408D01*
X43088611Y37335000D01*
X42711389Y37335000D01*
X42341415Y37261408D01*
X41992907Y37117051D01*
X41735415Y36945000D01*
X40664585Y36945000D01*
X40407093Y37117051D01*
X40058585Y37261408D01*
X39688611Y37335000D01*
X39311389Y37335000D01*
X38941415Y37261408D01*
X38592907Y37117051D01*
X38279259Y36907478D01*
X38012522Y36640741D01*
X37802949Y36327093D01*
X37658592Y35978585D01*
X37598176Y35674852D01*
X35723190Y33799865D01*
X35506416Y33915733D01*
X35218952Y34002934D01*
X34994911Y34025000D01*
X34920000Y34032378D01*
X34845089Y34025000D01*
X33775788Y34025000D01*
X33750000Y34027540D01*
X32799121Y34027540D01*
X32750000Y34032378D01*
X32700879Y34027540D01*
X31750000Y34027540D01*
X31647082Y34017403D01*
X31548119Y33987383D01*
X31456914Y33938633D01*
X31376973Y33873027D01*
X31311367Y33793086D01*
X31262617Y33701881D01*
X31232597Y33602918D01*
X31222460Y33500000D01*
X31222460Y33129136D01*
X27868326Y29775000D01*
X24599801Y29775000D01*
X24525960Y29760312D01*
X24451048Y29752934D01*
X24379013Y29731083D01*
X24305174Y29716395D01*
X24235619Y29687585D01*
X24163584Y29665733D01*
X24097198Y29630249D01*
X24027642Y29601438D01*
X23965042Y29559610D01*
X23898656Y29524126D01*
X23840468Y29476373D01*
X23777869Y29434545D01*
X23724632Y29381308D01*
X23666445Y29333555D01*
X23618692Y29275368D01*
X23565455Y29222131D01*
X23523627Y29159532D01*
X23475874Y29101344D01*
X23440390Y29034958D01*
X23398562Y28972358D01*
X23369751Y28902802D01*
X23334267Y28836416D01*
X23312415Y28764381D01*
X23283605Y28694826D01*
X23268917Y28620987D01*
X23247066Y28548952D01*
X23239688Y28474040D01*
X23225000Y28400199D01*
X23225000Y28324911D01*
X23217622Y28250000D01*
X23225000Y28175089D01*
X23225000Y28099801D01*
X23239688Y28025960D01*
X23247066Y27951048D01*
X23268917Y27879013D01*
X23283605Y27805174D01*
X23312415Y27735619D01*
X23334267Y27663584D01*
X23369751Y27597198D01*
X23398562Y27527642D01*
X23440390Y27465042D01*
X23475874Y27398656D01*
X23523627Y27340468D01*
X23565455Y27277869D01*
X23618692Y27224632D01*
X23666445Y27166445D01*
X23724631Y27118693D01*
X23777869Y27065455D01*
X23840468Y27023627D01*
X23898656Y26975874D01*
X23965042Y26940390D01*
X24027642Y26898562D01*
X24097198Y26869751D01*
X24163584Y26834267D01*
X24235619Y26812415D01*
X24305174Y26783605D01*
X24379013Y26768917D01*
X24451048Y26747066D01*
X24525960Y26739688D01*
X24599801Y26725000D01*
X28425089Y26725000D01*
X28500000Y26717622D01*
X28798952Y26747066D01*
X28975895Y26800741D01*
X29086416Y26834267D01*
X29351344Y26975874D01*
X29583555Y27166445D01*
X29631317Y27224642D01*
X33379136Y30972460D01*
X33750000Y30972460D01*
X33775788Y30975000D01*
X34225001Y30975000D01*
X34225000Y28659698D01*
X34211367Y28643086D01*
X34162617Y28551881D01*
X34132597Y28452918D01*
X34122460Y28350000D01*
X34122460Y27779136D01*
X29974641Y23631315D01*
X29916445Y23583555D01*
X29725874Y23351344D01*
X29584267Y23086416D01*
X29576844Y23061944D01*
X29561367Y23043086D01*
X29512617Y22951881D01*
X29482597Y22852918D01*
X29472460Y22750000D01*
X29472460Y22549121D01*
X29467622Y22500000D01*
X29472460Y22450879D01*
X29472460Y20750000D01*
X29482597Y20647082D01*
X29512617Y20548119D01*
X29561367Y20456914D01*
X29626973Y20376973D01*
X29706914Y20311367D01*
X29798119Y20262617D01*
X29897082Y20232597D01*
X30000000Y20222460D01*
X30950879Y20222460D01*
X31000000Y20217622D01*
X31049121Y20222460D01*
X32000000Y20222460D01*
X32072973Y20229648D01*
X23804638Y11961312D01*
X23746446Y11913555D01*
X23555875Y11681344D01*
X23549019Y11668517D01*
X23414267Y11416415D01*
X23327066Y11128952D01*
X23297622Y10830000D01*
X23305001Y10755080D01*
X23305001Y10079236D01*
X23089070Y10249327D01*
X22884836Y10358477D01*
X22665000Y10270566D01*
X22665000Y9375000D01*
X22685000Y9375000D01*
X22685000Y8625000D01*
X22665000Y8625000D01*
X22665000Y7729434D01*
X22884836Y7641523D01*
X23089070Y7750673D01*
X23317448Y7930569D01*
X23506341Y8151563D01*
X23530901Y8195378D01*
X23555874Y8148657D01*
X23746445Y7916445D01*
X23978656Y7725874D01*
X24243584Y7584267D01*
X24531048Y7497066D01*
X24830000Y7467622D01*
X25128951Y7497066D01*
X25416415Y7584267D01*
X25681343Y7725874D01*
X25913555Y7916445D01*
X26104126Y8148656D01*
X26245733Y8413584D01*
X26332934Y8701048D01*
X26355000Y8925089D01*
X26355000Y10198326D01*
X33406723Y17250049D01*
X34125000Y17250049D01*
X34125000Y16929951D01*
X34187448Y16616005D01*
X34309943Y16320274D01*
X34487780Y16054123D01*
X34714123Y15827780D01*
X34980274Y15649943D01*
X35070936Y15612390D01*
X35475001Y15208325D01*
X35475000Y12775026D01*
X35406914Y12738633D01*
X35326973Y12673027D01*
X35261367Y12593086D01*
X35212617Y12501881D01*
X35182597Y12402918D01*
X35172460Y12300000D01*
X35172460Y9700000D01*
X35182597Y9597082D01*
X35212617Y9498119D01*
X35261367Y9406914D01*
X35326973Y9326973D01*
X35406914Y9261367D01*
X35498119Y9212617D01*
X35597082Y9182597D01*
X35700000Y9172460D01*
X38300000Y9172460D01*
X38402918Y9182597D01*
X38501881Y9212617D01*
X38593086Y9261367D01*
X38673027Y9326973D01*
X38738633Y9406914D01*
X38787383Y9498119D01*
X38788398Y9501466D01*
X41031796Y9501466D01*
X41183174Y9237748D01*
X41542668Y9112255D01*
X41919736Y9059306D01*
X42299889Y9080937D01*
X42668517Y9176316D01*
X42816826Y9237748D01*
X42968204Y9501466D01*
X42000000Y10469670D01*
X41031796Y9501466D01*
X38788398Y9501466D01*
X38817403Y9597082D01*
X38827540Y9700000D01*
X38827540Y11080264D01*
X40059306Y11080264D01*
X40080937Y10700111D01*
X40176316Y10331483D01*
X40237748Y10183174D01*
X40501466Y10031796D01*
X41469670Y11000000D01*
X42530330Y11000000D01*
X43498534Y10031796D01*
X43762252Y10183174D01*
X43887745Y10542668D01*
X43940694Y10919736D01*
X43919063Y11299889D01*
X43823684Y11668517D01*
X43762252Y11816826D01*
X43498534Y11968204D01*
X42530330Y11000000D01*
X41469670Y11000000D01*
X40501466Y11968204D01*
X40237748Y11816826D01*
X40112255Y11457332D01*
X40059306Y11080264D01*
X38827540Y11080264D01*
X38827540Y12300000D01*
X38817403Y12402918D01*
X38788399Y12498534D01*
X41031796Y12498534D01*
X42000000Y11530330D01*
X42968204Y12498534D01*
X42816826Y12762252D01*
X42457332Y12887745D01*
X42080264Y12940694D01*
X41700111Y12919063D01*
X41331483Y12823684D01*
X41183174Y12762252D01*
X41031796Y12498534D01*
X38788399Y12498534D01*
X38787383Y12501881D01*
X38738633Y12593086D01*
X38673027Y12673027D01*
X38593086Y12738633D01*
X38525000Y12775026D01*
X38525000Y15765089D01*
X38532378Y15840000D01*
X38516620Y16000000D01*
X38502934Y16138952D01*
X38415733Y16426416D01*
X38274126Y16691344D01*
X38083555Y16923555D01*
X38025362Y16971313D01*
X37227610Y17769064D01*
X37190057Y17859726D01*
X37012220Y18125877D01*
X36785877Y18352220D01*
X36519726Y18530057D01*
X36223995Y18652552D01*
X35910049Y18715000D01*
X35589951Y18715000D01*
X35276005Y18652552D01*
X34980274Y18530057D01*
X34714123Y18352220D01*
X34487780Y18125877D01*
X34309943Y17859726D01*
X34187448Y17563995D01*
X34125000Y17250049D01*
X33406723Y17250049D01*
X35365968Y19209294D01*
X38875000Y19209294D01*
X38875000Y18790706D01*
X38956663Y18380160D01*
X39116849Y17993435D01*
X39349405Y17645391D01*
X39645391Y17349405D01*
X39993435Y17116849D01*
X40380160Y16956663D01*
X40790706Y16875000D01*
X41209294Y16875000D01*
X41619840Y16956663D01*
X42006565Y17116849D01*
X42354609Y17349405D01*
X42650595Y17645391D01*
X42883151Y17993435D01*
X43043337Y18380160D01*
X43125000Y18790706D01*
X43125000Y19209294D01*
X43043337Y19619840D01*
X42883151Y20006565D01*
X42650595Y20354609D01*
X42354609Y20650595D01*
X42006565Y20883151D01*
X41619840Y21043337D01*
X41209294Y21125000D01*
X40790706Y21125000D01*
X40380160Y21043337D01*
X39993435Y20883151D01*
X39645391Y20650595D01*
X39349405Y20354609D01*
X39116849Y20006565D01*
X38956663Y19619840D01*
X38875000Y19209294D01*
X35365968Y19209294D01*
X39754851Y23598176D01*
X40058585Y23658592D01*
X40407093Y23802949D01*
X40664585Y23975000D01*
X41735415Y23975000D01*
X41992907Y23802949D01*
X42341415Y23658592D01*
X42711389Y23585000D01*
X43088611Y23585000D01*
X43458585Y23658592D01*
X43807093Y23802949D01*
X44120741Y24012522D01*
X44387478Y24279259D01*
X44450000Y24372830D01*
X44450000Y6026899D01*
X44438843Y5913108D01*
X44413606Y5829521D01*
X44372617Y5752432D01*
X44317436Y5684773D01*
X44250161Y5629119D01*
X44173361Y5587593D01*
X44089956Y5561775D01*
X43977927Y5550000D01*
X1026899Y5550000D01*
X913108Y5561157D01*
X829521Y5586394D01*
X752432Y5627383D01*
X684773Y5682564D01*
X629119Y5749839D01*
X587593Y5826639D01*
X561775Y5910044D01*
X550000Y6022073D01*
X550000Y9700000D01*
X1063937Y9700000D01*
X1076159Y9575910D01*
X1112354Y9456589D01*
X1171133Y9346622D01*
X1250236Y9250236D01*
X1346622Y9171133D01*
X1456589Y9112354D01*
X1575910Y9076159D01*
X1700000Y9063937D01*
X2466750Y9067000D01*
X2625000Y9225250D01*
X2625000Y10625000D01*
X3375000Y10625000D01*
X3375000Y9225250D01*
X3533250Y9067000D01*
X4300000Y9063937D01*
X4424090Y9076159D01*
X4543411Y9112354D01*
X4653378Y9171133D01*
X4749764Y9250236D01*
X4828867Y9346622D01*
X4887646Y9456589D01*
X4923841Y9575910D01*
X4936063Y9700000D01*
X4933000Y10466750D01*
X4774750Y10625000D01*
X3375000Y10625000D01*
X2625000Y10625000D01*
X1225250Y10625000D01*
X1067000Y10466750D01*
X1063937Y9700000D01*
X550000Y9700000D01*
X550000Y12300000D01*
X1063937Y12300000D01*
X1067000Y11533250D01*
X1225250Y11375000D01*
X2625000Y11375000D01*
X2625000Y12774750D01*
X3375000Y12774750D01*
X3375000Y11375000D01*
X4774750Y11375000D01*
X4933000Y11533250D01*
X4936063Y12300000D01*
X4923841Y12424090D01*
X4887646Y12543411D01*
X4828867Y12653378D01*
X4749764Y12749764D01*
X4653378Y12828867D01*
X4543411Y12887646D01*
X4424090Y12923841D01*
X4300000Y12936063D01*
X3533250Y12933000D01*
X3375000Y12774750D01*
X2625000Y12774750D01*
X2466750Y12933000D01*
X1700000Y12936063D01*
X1575910Y12923841D01*
X1456589Y12887646D01*
X1346622Y12828867D01*
X1250236Y12749764D01*
X1171133Y12653378D01*
X1112354Y12543411D01*
X1076159Y12424090D01*
X1063937Y12300000D01*
X550000Y12300000D01*
X550000Y19209294D01*
X1875000Y19209294D01*
X1875000Y18790706D01*
X1956663Y18380160D01*
X2116849Y17993435D01*
X2349405Y17645391D01*
X2645391Y17349405D01*
X2993435Y17116849D01*
X3380160Y16956663D01*
X3790706Y16875000D01*
X4209294Y16875000D01*
X4619840Y16956663D01*
X5006565Y17116849D01*
X5354609Y17349405D01*
X5650595Y17645391D01*
X5883151Y17993435D01*
X6043337Y18380160D01*
X6125000Y18790706D01*
X6125000Y19209294D01*
X6043337Y19619840D01*
X5883151Y20006565D01*
X5650595Y20354609D01*
X5354609Y20650595D01*
X5006565Y20883151D01*
X4619840Y21043337D01*
X4209294Y21125000D01*
X3790706Y21125000D01*
X3380160Y21043337D01*
X2993435Y20883151D01*
X2645391Y20650595D01*
X2349405Y20354609D01*
X2116849Y20006565D01*
X1956663Y19619840D01*
X1875000Y19209294D01*
X550000Y19209294D01*
X550000Y24321781D01*
X779259Y24092522D01*
X1092907Y23882949D01*
X1441415Y23738592D01*
X1811389Y23665000D01*
X2188611Y23665000D01*
X2558585Y23738592D01*
X2907093Y23882949D01*
X3164585Y24055000D01*
X3875001Y24055000D01*
X3875001Y23689164D01*
X3867622Y23614244D01*
X3897066Y23315292D01*
X3984267Y23027829D01*
X4034129Y22934545D01*
X4125875Y22762900D01*
X4316446Y22530689D01*
X4374638Y22482932D01*
X6882932Y19974637D01*
X6930689Y19916445D01*
X7162900Y19725874D01*
X7427828Y19584267D01*
X7648386Y19517362D01*
X7715291Y19497066D01*
X7743282Y19494309D01*
X7939333Y19475000D01*
X7939340Y19475000D01*
X8014243Y19467623D01*
X8089146Y19475000D01*
X9368326Y19475000D01*
X10235940Y18607386D01*
X10202918Y18617403D01*
X10100000Y18627540D01*
X7900000Y18627540D01*
X7797082Y18617403D01*
X7698119Y18587383D01*
X7606914Y18538633D01*
X7526973Y18473027D01*
X7461367Y18393086D01*
X7412617Y18301881D01*
X7382597Y18202918D01*
X7372460Y18100000D01*
X7372460Y17529134D01*
X6974638Y17131312D01*
X6916446Y17083555D01*
X6725875Y16851344D01*
X6693646Y16791048D01*
X6584267Y16586415D01*
X6497066Y16298952D01*
X6467622Y16000000D01*
X6475001Y15925080D01*
X6475000Y12002589D01*
X6382706Y11864461D01*
X6245134Y11532333D01*
X6175000Y11179747D01*
X6175000Y10820253D01*
X6245134Y10467667D01*
X6382706Y10135539D01*
X6582430Y9836631D01*
X6836631Y9582430D01*
X7135539Y9382706D01*
X7467667Y9245134D01*
X7820253Y9175000D01*
X8179747Y9175000D01*
X8532333Y9245134D01*
X8864461Y9382706D01*
X9163369Y9582430D01*
X9417570Y9836631D01*
X9617294Y10135539D01*
X9754866Y10467667D01*
X9825000Y10820253D01*
X9825000Y11179747D01*
X9754866Y11532333D01*
X9617294Y11864461D01*
X9525000Y12002589D01*
X9525000Y15368326D01*
X9529134Y15372460D01*
X10100000Y15372460D01*
X10202918Y15382597D01*
X10301881Y15412617D01*
X10393086Y15461367D01*
X10473027Y15526973D01*
X10538633Y15606914D01*
X10587383Y15698119D01*
X10617403Y15797082D01*
X10627540Y15900000D01*
X10627540Y18100000D01*
X10617403Y18202918D01*
X10607386Y18235940D01*
X18225001Y10618324D01*
X18225000Y8925090D01*
X18247066Y8701049D01*
X18334267Y8413585D01*
X18372460Y8342131D01*
X18372460Y8150000D01*
X18382597Y8047082D01*
X18412617Y7948119D01*
X18461367Y7856914D01*
X18526973Y7776973D01*
X18606914Y7711367D01*
X18698119Y7662617D01*
X18797082Y7632597D01*
X18900000Y7622460D01*
X19092130Y7622460D01*
X19163584Y7584267D01*
X19451048Y7497066D01*
X19750000Y7467622D01*
X20048951Y7497066D01*
X20336415Y7584267D01*
X20407869Y7622460D01*
X20600000Y7622460D01*
X20702918Y7632597D01*
X20801881Y7662617D01*
X20893086Y7711367D01*
X20973027Y7776973D01*
X21038633Y7856914D01*
X21087383Y7948119D01*
X21117403Y8047082D01*
X21122111Y8094877D01*
X21262552Y7930569D01*
X21490930Y7750673D01*
X21695164Y7641523D01*
X21915000Y7729434D01*
X21915000Y8625000D01*
X21895000Y8625000D01*
X21895000Y9375000D01*
X21915000Y9375000D01*
X21915000Y10270566D01*
X21695164Y10358477D01*
X21490930Y10249327D01*
X21275000Y10079236D01*
X21275000Y11175090D01*
X21282378Y11250001D01*
X21252934Y11548953D01*
X21216664Y11668517D01*
X21165733Y11836416D01*
X21024126Y12101344D01*
X20833555Y12333555D01*
X20775363Y12381312D01*
X11131317Y22025357D01*
X11083555Y22083555D01*
X10851344Y22274126D01*
X10586416Y22415733D01*
X10298952Y22502934D01*
X10074911Y22525000D01*
X10000000Y22532378D01*
X9925089Y22525000D01*
X8645919Y22525000D01*
X6925000Y24245918D01*
X6925000Y24415415D01*
X7097051Y24672907D01*
X7241408Y25021415D01*
X7315000Y25391389D01*
X7315000Y25768611D01*
X7241408Y26138585D01*
X7097051Y26487093D01*
X6887478Y26800741D01*
X6620741Y27067478D01*
X6307093Y27277051D01*
X5958585Y27421408D01*
X5588611Y27495000D01*
X5211389Y27495000D01*
X4841415Y27421408D01*
X4492907Y27277051D01*
X4235415Y27105000D01*
X3164585Y27105000D01*
X2907093Y27277051D01*
X2558585Y27421408D01*
X2188611Y27495000D01*
X1811389Y27495000D01*
X1441415Y27421408D01*
X1092907Y27277051D01*
X779259Y27067478D01*
X550000Y26838219D01*
X550000Y34241781D01*
X779259Y34012522D01*
X1092907Y33802949D01*
X1441415Y33658592D01*
X1811389Y33585000D01*
X2188611Y33585000D01*
X2558585Y33658592D01*
X2907093Y33802949D01*
X3164585Y33975000D01*
X4235415Y33975000D01*
X4492907Y33802949D01*
X4841415Y33658592D01*
X5211389Y33585000D01*
X5588611Y33585000D01*
X5958585Y33658592D01*
X6307093Y33802949D01*
X6564585Y33975000D01*
X8118326Y33975000D01*
X10225000Y31868324D01*
X10225001Y30541676D01*
X8320936Y28637610D01*
X8230274Y28600057D01*
X7964123Y28422220D01*
X7737780Y28195877D01*
X7559943Y27929726D01*
X7437448Y27633995D01*
X7375000Y27320049D01*
X7375000Y26999951D01*
X7437448Y26686005D01*
X7475000Y26595345D01*
X7475001Y24824920D01*
X7467622Y24750000D01*
X7497066Y24451048D01*
X7584267Y24163584D01*
X7725874Y23898656D01*
X7916445Y23666445D01*
X8148656Y23475874D01*
X8413584Y23334267D01*
X8701048Y23247066D01*
X8925089Y23225000D01*
X8925090Y23225000D01*
X9000000Y23217622D01*
X9074911Y23225000D01*
X10618326Y23225000D01*
X13065455Y20777869D01*
X13118698Y20724626D01*
X13166446Y20666445D01*
X13224627Y20618697D01*
X13277869Y20565455D01*
X13340468Y20523628D01*
X13398656Y20475874D01*
X13465042Y20440390D01*
X13527642Y20398562D01*
X13597198Y20369751D01*
X13663584Y20334267D01*
X13735619Y20312415D01*
X13805174Y20283605D01*
X13879013Y20268917D01*
X13951048Y20247066D01*
X14025960Y20239688D01*
X14099801Y20225000D01*
X14175089Y20225000D01*
X14250000Y20217622D01*
X14324911Y20225000D01*
X14400199Y20225000D01*
X14474040Y20239688D01*
X14548952Y20247066D01*
X14620986Y20268917D01*
X14694826Y20283605D01*
X14764381Y20312415D01*
X14836416Y20334267D01*
X14902802Y20369751D01*
X14972358Y20398562D01*
X15034958Y20440390D01*
X15101344Y20475874D01*
X15159532Y20523627D01*
X15222131Y20565455D01*
X15275368Y20618692D01*
X15333555Y20666445D01*
X15381308Y20724632D01*
X15406676Y20750000D01*
X17613937Y20750000D01*
X17626159Y20625910D01*
X17662354Y20506589D01*
X17721133Y20396622D01*
X17800236Y20300236D01*
X17896622Y20221133D01*
X18006589Y20162354D01*
X18125910Y20126159D01*
X18250000Y20113937D01*
X18716750Y20117000D01*
X18875000Y20275250D01*
X18875000Y21375000D01*
X19625000Y21375000D01*
X19625000Y20275250D01*
X19783250Y20117000D01*
X20250000Y20113937D01*
X20374090Y20126159D01*
X20493411Y20162354D01*
X20603378Y20221133D01*
X20699764Y20300236D01*
X20778867Y20396622D01*
X20818371Y20470530D01*
X25250860Y20470530D01*
X25364409Y20237196D01*
X25671755Y20142266D01*
X25991715Y20109121D01*
X26311994Y20139034D01*
X26620283Y20230855D01*
X26635591Y20237196D01*
X26749140Y20470530D01*
X26000000Y21219670D01*
X25250860Y20470530D01*
X20818371Y20470530D01*
X20837646Y20506589D01*
X20873841Y20625910D01*
X20886063Y20750000D01*
X20883000Y21216750D01*
X20724750Y21375000D01*
X19625000Y21375000D01*
X18875000Y21375000D01*
X17775250Y21375000D01*
X17617000Y21216750D01*
X17613937Y20750000D01*
X15406676Y20750000D01*
X15434545Y20777869D01*
X15476373Y20840468D01*
X15524126Y20898656D01*
X15559610Y20965042D01*
X15601438Y21027642D01*
X15630249Y21097198D01*
X15665733Y21163584D01*
X15687585Y21235619D01*
X15716395Y21305174D01*
X15731083Y21379013D01*
X15752934Y21451048D01*
X15760312Y21525960D01*
X15775000Y21599801D01*
X15775000Y21675090D01*
X15782378Y21750000D01*
X15781563Y21758285D01*
X24359121Y21758285D01*
X24389034Y21438006D01*
X24480855Y21129717D01*
X24487196Y21114409D01*
X24720530Y21000860D01*
X25469670Y21750000D01*
X26530330Y21750000D01*
X27279470Y21000860D01*
X27512804Y21114409D01*
X27607734Y21421755D01*
X27640879Y21741715D01*
X27610966Y22061994D01*
X27519145Y22370283D01*
X27512804Y22385591D01*
X27279470Y22499140D01*
X26530330Y21750000D01*
X25469670Y21750000D01*
X24720530Y22499140D01*
X24487196Y22385591D01*
X24392266Y22078245D01*
X24359121Y21758285D01*
X15781563Y21758285D01*
X15775000Y21824911D01*
X15775000Y22750000D01*
X17613937Y22750000D01*
X17617000Y22283250D01*
X17775250Y22125000D01*
X18875000Y22125000D01*
X18875000Y23224750D01*
X19625000Y23224750D01*
X19625000Y22125000D01*
X20724750Y22125000D01*
X20883000Y22283250D01*
X20886063Y22750000D01*
X20873841Y22874090D01*
X20837646Y22993411D01*
X20818372Y23029470D01*
X25250860Y23029470D01*
X26000000Y22280330D01*
X26749140Y23029470D01*
X26635591Y23262804D01*
X26328245Y23357734D01*
X26008285Y23390879D01*
X25688006Y23360966D01*
X25379717Y23269145D01*
X25364409Y23262804D01*
X25250860Y23029470D01*
X20818372Y23029470D01*
X20778867Y23103378D01*
X20699764Y23199764D01*
X20603378Y23278867D01*
X20493411Y23337646D01*
X20374090Y23373841D01*
X20250000Y23386063D01*
X19783250Y23383000D01*
X19625000Y23224750D01*
X18875000Y23224750D01*
X18716750Y23383000D01*
X18250000Y23386063D01*
X18125910Y23373841D01*
X18006589Y23337646D01*
X17896622Y23278867D01*
X17800236Y23199764D01*
X17721133Y23103378D01*
X17662354Y22993411D01*
X17626159Y22874090D01*
X17613937Y22750000D01*
X15775000Y22750000D01*
X15775000Y23118325D01*
X16631675Y23975000D01*
X16925089Y23975000D01*
X17000000Y23967622D01*
X17298952Y23997066D01*
X17469994Y24048951D01*
X17586416Y24084267D01*
X17851344Y24225874D01*
X18083555Y24416445D01*
X18131317Y24474643D01*
X20722128Y27065453D01*
X20722131Y27065455D01*
X20934545Y27277869D01*
X20976374Y27340471D01*
X21024125Y27398655D01*
X21059607Y27465038D01*
X21101438Y27527642D01*
X21130252Y27597205D01*
X21165732Y27663584D01*
X21187582Y27735613D01*
X21216395Y27805174D01*
X21231083Y27879013D01*
X21252934Y27951047D01*
X21260312Y28025959D01*
X21275000Y28099801D01*
X21275000Y28175096D01*
X21282377Y28249999D01*
X21275000Y28324902D01*
X21275000Y28400199D01*
X21260311Y28474043D01*
X21252934Y28548951D01*
X21231084Y28620982D01*
X21216395Y28694826D01*
X21187581Y28764390D01*
X21165732Y28836415D01*
X21130254Y28902789D01*
X21101438Y28972358D01*
X21059603Y29034969D01*
X21024125Y29101343D01*
X20976381Y29159520D01*
X20934545Y29222131D01*
X20881297Y29275379D01*
X20833554Y29333554D01*
X20775379Y29381297D01*
X20722131Y29434545D01*
X20659520Y29476381D01*
X20601343Y29524125D01*
X20534969Y29559603D01*
X20472358Y29601438D01*
X20402789Y29630254D01*
X20336415Y29665732D01*
X20264390Y29687581D01*
X20194826Y29716395D01*
X20120982Y29731084D01*
X20048951Y29752934D01*
X19974043Y29760311D01*
X19900199Y29775000D01*
X19824902Y29775000D01*
X19749999Y29782377D01*
X19675096Y29775000D01*
X19599801Y29775000D01*
X19525959Y29760312D01*
X19451047Y29752934D01*
X19379013Y29731083D01*
X19305174Y29716395D01*
X19235613Y29687582D01*
X19163584Y29665732D01*
X19097205Y29630252D01*
X19027642Y29601438D01*
X18965038Y29559607D01*
X18898655Y29524125D01*
X18840471Y29476374D01*
X18777869Y29434545D01*
X18565455Y29222131D01*
X18565453Y29222128D01*
X16368326Y27025000D01*
X16074911Y27025000D01*
X16000000Y27032378D01*
X15925089Y27025000D01*
X15701048Y27002934D01*
X15413584Y26915733D01*
X15148656Y26774126D01*
X14916445Y26583555D01*
X14868692Y26525368D01*
X13250000Y24906674D01*
X12381316Y25775358D01*
X12333555Y25833555D01*
X12101344Y26024126D01*
X11836416Y26165733D01*
X11548952Y26252934D01*
X11324911Y26275000D01*
X11250000Y26282378D01*
X11175089Y26275000D01*
X10525000Y26275000D01*
X10525000Y26528326D01*
X12775363Y28778688D01*
X12833555Y28826445D01*
X13024126Y29058656D01*
X13165733Y29323584D01*
X13252934Y29611048D01*
X13275000Y29835089D01*
X13275000Y29835096D01*
X13282377Y29909999D01*
X13275000Y29984902D01*
X13275000Y31500000D01*
X15113937Y31500000D01*
X15126159Y31375910D01*
X15162354Y31256589D01*
X15221133Y31146622D01*
X15300236Y31050236D01*
X15396622Y30971133D01*
X15506589Y30912354D01*
X15625910Y30876159D01*
X15750000Y30863937D01*
X16216750Y30867000D01*
X16375000Y31025250D01*
X16375000Y32125000D01*
X17125000Y32125000D01*
X17125000Y31025250D01*
X17283250Y30867000D01*
X17750000Y30863937D01*
X17874090Y30876159D01*
X17993411Y30912354D01*
X18103378Y30971133D01*
X18199764Y31050236D01*
X18278867Y31146622D01*
X18318371Y31220530D01*
X27000860Y31220530D01*
X27114409Y30987196D01*
X27421755Y30892266D01*
X27741715Y30859121D01*
X28061994Y30889034D01*
X28370283Y30980855D01*
X28385591Y30987196D01*
X28499140Y31220530D01*
X27750000Y31969670D01*
X27000860Y31220530D01*
X18318371Y31220530D01*
X18337646Y31256589D01*
X18373841Y31375910D01*
X18386063Y31500000D01*
X18383000Y31966750D01*
X18224750Y32125000D01*
X17125000Y32125000D01*
X16375000Y32125000D01*
X15275250Y32125000D01*
X15117000Y31966750D01*
X15113937Y31500000D01*
X13275000Y31500000D01*
X13275000Y32425089D01*
X13282378Y32500000D01*
X13281563Y32508285D01*
X26109121Y32508285D01*
X26139034Y32188006D01*
X26230855Y31879717D01*
X26237196Y31864409D01*
X26470530Y31750860D01*
X27219670Y32500000D01*
X28280330Y32500000D01*
X29029470Y31750860D01*
X29262804Y31864409D01*
X29357734Y32171755D01*
X29390879Y32491715D01*
X29360966Y32811994D01*
X29269145Y33120283D01*
X29262804Y33135591D01*
X29029470Y33249140D01*
X28280330Y32500000D01*
X27219670Y32500000D01*
X26470530Y33249140D01*
X26237196Y33135591D01*
X26142266Y32828245D01*
X26109121Y32508285D01*
X13281563Y32508285D01*
X13275000Y32574911D01*
X13275000Y32650199D01*
X13260312Y32724040D01*
X13252934Y32798952D01*
X13231083Y32870987D01*
X13216395Y32944826D01*
X13187585Y33014381D01*
X13165733Y33086416D01*
X13130249Y33152802D01*
X13101438Y33222358D01*
X13059610Y33284958D01*
X13024126Y33351344D01*
X12976372Y33409532D01*
X12934545Y33472131D01*
X12881308Y33525368D01*
X12833555Y33583555D01*
X12775368Y33631308D01*
X12722131Y33684545D01*
X9881316Y36525358D01*
X9833555Y36583555D01*
X9601344Y36774126D01*
X9336416Y36915733D01*
X9048952Y37002934D01*
X8824911Y37025000D01*
X8750000Y37032378D01*
X8675089Y37025000D01*
X6564585Y37025000D01*
X6307093Y37197051D01*
X5958585Y37341408D01*
X5588611Y37415000D01*
X5211389Y37415000D01*
X4841415Y37341408D01*
X4492907Y37197051D01*
X4235415Y37025000D01*
X3164585Y37025000D01*
X2907093Y37197051D01*
X2558585Y37341408D01*
X2188611Y37415000D01*
X1811389Y37415000D01*
X1441415Y37341408D01*
X1092907Y37197051D01*
X779259Y36987478D01*
X550000Y36758219D01*
X550000Y40299480D01*
X9675000Y40299480D01*
X9675000Y39100519D01*
X9704300Y38803031D01*
X9820092Y38421317D01*
X10008128Y38069527D01*
X10261182Y37761181D01*
X10569528Y37508127D01*
X10921318Y37320092D01*
X11303032Y37204300D01*
X11575000Y37177513D01*
X11575000Y36674911D01*
X11567622Y36600000D01*
X11597066Y36301048D01*
X11635275Y36175090D01*
X11684267Y36013585D01*
X11825874Y35748657D01*
X12016445Y35516445D01*
X12074642Y35468684D01*
X13318687Y34224639D01*
X13366444Y34166446D01*
X13598655Y33975875D01*
X13827831Y33853378D01*
X13863583Y33834268D01*
X14151047Y33747067D01*
X14449999Y33717623D01*
X14524910Y33725001D01*
X15156769Y33725001D01*
X15126159Y33624090D01*
X15113937Y33500000D01*
X15117000Y33033250D01*
X15275250Y32875000D01*
X16375000Y32875000D01*
X16375000Y32895000D01*
X17125000Y32895000D01*
X17125000Y32875000D01*
X18224750Y32875000D01*
X18383000Y33033250D01*
X18386063Y33500000D01*
X18373841Y33624090D01*
X18343231Y33725001D01*
X18675090Y33725001D01*
X18750001Y33717623D01*
X19048953Y33747067D01*
X19155771Y33779470D01*
X27000860Y33779470D01*
X27750000Y33030330D01*
X28499140Y33779470D01*
X28385591Y34012804D01*
X28078245Y34107734D01*
X27758285Y34140879D01*
X27438006Y34110966D01*
X27129717Y34019145D01*
X27114409Y34012804D01*
X27000860Y33779470D01*
X19155771Y33779470D01*
X19336417Y33834268D01*
X19601345Y33975875D01*
X19833556Y34166446D01*
X19881318Y34224644D01*
X20722125Y35065451D01*
X20722131Y35065455D01*
X20934545Y35277869D01*
X20976378Y35340477D01*
X21024125Y35398656D01*
X21059607Y35465037D01*
X21101438Y35527642D01*
X21130250Y35597200D01*
X21165733Y35663584D01*
X21187585Y35735620D01*
X21216395Y35805174D01*
X21231082Y35879011D01*
X21252934Y35951047D01*
X21260312Y36025961D01*
X21275000Y36099801D01*
X21275000Y36175090D01*
X21282378Y36249999D01*
X21275000Y36324910D01*
X21275000Y36400199D01*
X21260312Y36474041D01*
X21252934Y36548951D01*
X21231083Y36620984D01*
X21216395Y36694826D01*
X21187583Y36764384D01*
X21165733Y36836415D01*
X21130252Y36902796D01*
X21101438Y36972358D01*
X21059604Y37034967D01*
X21024125Y37101343D01*
X20976381Y37159520D01*
X20934545Y37222131D01*
X20881297Y37275379D01*
X20833554Y37333554D01*
X20775379Y37381297D01*
X20722131Y37434545D01*
X20659520Y37476381D01*
X20630740Y37500000D01*
X23217622Y37500000D01*
X23225000Y37425089D01*
X23225000Y36099801D01*
X23239688Y36025960D01*
X23247066Y35951049D01*
X23268917Y35879016D01*
X23283605Y35805174D01*
X23312417Y35735616D01*
X23334267Y35663585D01*
X23369749Y35597202D01*
X23398562Y35527642D01*
X23440392Y35465038D01*
X23475874Y35398657D01*
X23523625Y35340472D01*
X23565455Y35277869D01*
X23618691Y35224633D01*
X23666445Y35166445D01*
X23724632Y35118692D01*
X23777869Y35065455D01*
X23840468Y35023627D01*
X23898656Y34975874D01*
X23965042Y34940390D01*
X24027642Y34898562D01*
X24097198Y34869751D01*
X24163584Y34834267D01*
X24235619Y34812415D01*
X24305174Y34783605D01*
X24379013Y34768917D01*
X24451048Y34747066D01*
X24525960Y34739688D01*
X24599801Y34725000D01*
X24675089Y34725000D01*
X24750000Y34717622D01*
X24824910Y34725000D01*
X24900199Y34725000D01*
X24974040Y34739688D01*
X25048951Y34747066D01*
X25120984Y34768917D01*
X25194826Y34783605D01*
X25264384Y34812417D01*
X25336415Y34834267D01*
X25402798Y34869749D01*
X25472358Y34898562D01*
X25534962Y34940392D01*
X25601343Y34975874D01*
X25659528Y35023625D01*
X25722131Y35065455D01*
X25775370Y35118694D01*
X25833555Y35166445D01*
X25881309Y35224633D01*
X25934545Y35277869D01*
X25976373Y35340468D01*
X26024126Y35398656D01*
X26059610Y35465042D01*
X26101438Y35527642D01*
X26130249Y35597198D01*
X26165733Y35663584D01*
X26187585Y35735619D01*
X26216395Y35805174D01*
X26231083Y35879013D01*
X26252934Y35951048D01*
X26260312Y36025960D01*
X26275000Y36099801D01*
X26275000Y36868326D01*
X26605780Y37199105D01*
X26950000Y37165202D01*
X27346969Y37204300D01*
X27728683Y37320092D01*
X28080473Y37508127D01*
X28388819Y37761181D01*
X28641873Y38069527D01*
X28829908Y38421317D01*
X28945700Y38803032D01*
X28963924Y38988072D01*
X31162884Y38988072D01*
X31245293Y38575213D01*
X31406664Y38186365D01*
X31640794Y37836470D01*
X31938687Y37538975D01*
X32288894Y37305312D01*
X32601139Y37184738D01*
X32925000Y37261183D01*
X32925000Y39325000D01*
X33675000Y39325000D01*
X33675000Y37261183D01*
X33998861Y37184738D01*
X34311106Y37305312D01*
X34661313Y37538975D01*
X34959206Y37836470D01*
X35193336Y38186365D01*
X35354707Y38575213D01*
X35437116Y38988072D01*
X35285707Y39325000D01*
X33675000Y39325000D01*
X32925000Y39325000D01*
X31314293Y39325000D01*
X31162884Y38988072D01*
X28963924Y38988072D01*
X28975000Y39100520D01*
X28975000Y40299481D01*
X28963925Y40411928D01*
X31162884Y40411928D01*
X31314293Y40075000D01*
X32925000Y40075000D01*
X32925000Y42138817D01*
X33675000Y42138817D01*
X33675000Y40075000D01*
X35285707Y40075000D01*
X35437116Y40411928D01*
X35354707Y40824787D01*
X35193336Y41213635D01*
X34959206Y41563530D01*
X34661313Y41861025D01*
X34311106Y42094688D01*
X33998861Y42215262D01*
X33675000Y42138817D01*
X32925000Y42138817D01*
X32601139Y42215262D01*
X32288894Y42094688D01*
X31938687Y41861025D01*
X31640794Y41563530D01*
X31406664Y41213635D01*
X31245293Y40824787D01*
X31162884Y40411928D01*
X28963925Y40411928D01*
X28945700Y40596969D01*
X28829908Y40978683D01*
X28641873Y41330473D01*
X28388819Y41638819D01*
X28080473Y41891873D01*
X27728682Y42079908D01*
X27346968Y42195700D01*
X26950000Y42234798D01*
X26553031Y42195700D01*
X26171317Y42079908D01*
X25819527Y41891873D01*
X25511181Y41638819D01*
X25258127Y41330473D01*
X25070092Y40978682D01*
X24954300Y40596968D01*
X24925000Y40299480D01*
X24925000Y39831675D01*
X23724638Y38631312D01*
X23666446Y38583555D01*
X23475875Y38351344D01*
X23334267Y38086416D01*
X23334267Y38086415D01*
X23247066Y37798952D01*
X23217622Y37500000D01*
X20630740Y37500000D01*
X20601343Y37524125D01*
X20534967Y37559604D01*
X20472358Y37601438D01*
X20402796Y37630252D01*
X20336415Y37665733D01*
X20264384Y37687583D01*
X20194826Y37716395D01*
X20120984Y37731083D01*
X20048951Y37752934D01*
X19974041Y37760312D01*
X19900199Y37775000D01*
X19824910Y37775000D01*
X19749999Y37782378D01*
X19675088Y37775000D01*
X19647654Y37775000D01*
X19709206Y37836470D01*
X19943336Y38186365D01*
X20104707Y38575213D01*
X20187116Y38988072D01*
X20035707Y39325000D01*
X18425000Y39325000D01*
X18425000Y37261183D01*
X18570227Y37226903D01*
X18565455Y37222131D01*
X18565451Y37222125D01*
X18118327Y36775001D01*
X15081674Y36775001D01*
X14625000Y37231674D01*
X14625000Y38225089D01*
X14632378Y38300000D01*
X14602934Y38598953D01*
X14515733Y38886416D01*
X14500063Y38915733D01*
X14461397Y38988072D01*
X15912884Y38988072D01*
X15995293Y38575213D01*
X16156664Y38186365D01*
X16390794Y37836470D01*
X16688687Y37538975D01*
X17038894Y37305312D01*
X17351139Y37184738D01*
X17675000Y37261183D01*
X17675000Y39325000D01*
X16064293Y39325000D01*
X15912884Y38988072D01*
X14461397Y38988072D01*
X14374126Y39151344D01*
X14183555Y39383555D01*
X14125362Y39431312D01*
X13725000Y39831675D01*
X13725000Y40299481D01*
X13713925Y40411928D01*
X15912884Y40411928D01*
X16064293Y40075000D01*
X17675000Y40075000D01*
X17675000Y42138817D01*
X18425000Y42138817D01*
X18425000Y40075000D01*
X20035707Y40075000D01*
X20187116Y40411928D01*
X20104707Y40824787D01*
X19943336Y41213635D01*
X19709206Y41563530D01*
X19411313Y41861025D01*
X19061106Y42094688D01*
X18748861Y42215262D01*
X18425000Y42138817D01*
X17675000Y42138817D01*
X17351139Y42215262D01*
X17038894Y42094688D01*
X16688687Y41861025D01*
X16390794Y41563530D01*
X16156664Y41213635D01*
X15995293Y40824787D01*
X15912884Y40411928D01*
X13713925Y40411928D01*
X13695700Y40596969D01*
X13579908Y40978683D01*
X13391873Y41330473D01*
X13138819Y41638819D01*
X12830473Y41891873D01*
X12478682Y42079908D01*
X12096968Y42195700D01*
X11700000Y42234798D01*
X11303031Y42195700D01*
X10921317Y42079908D01*
X10569527Y41891873D01*
X10261181Y41638819D01*
X10008127Y41330473D01*
X9820092Y40978682D01*
X9704300Y40596968D01*
X9675000Y40299480D01*
X550000Y40299480D01*
X550000Y42709294D01*
X20375000Y42709294D01*
X20375000Y42290706D01*
X20456663Y41880160D01*
X20616849Y41493435D01*
X20849405Y41145391D01*
X21145391Y40849405D01*
X21493435Y40616849D01*
X21880160Y40456663D01*
X22290706Y40375000D01*
X22709294Y40375000D01*
X23119840Y40456663D01*
X23506565Y40616849D01*
X23854609Y40849405D01*
X24150595Y41145391D01*
X24383151Y41493435D01*
X24543337Y41880160D01*
X24625000Y42290706D01*
X24625000Y42709294D01*
X24543337Y43119840D01*
X24383151Y43506565D01*
X24150595Y43854609D01*
X23854609Y44150595D01*
X23506565Y44383151D01*
X23119840Y44543337D01*
X22709294Y44625000D01*
X22290706Y44625000D01*
X21880160Y44543337D01*
X21493435Y44383151D01*
X21145391Y44150595D01*
X20849405Y43854609D01*
X20616849Y43506565D01*
X20456663Y43119840D01*
X20375000Y42709294D01*
X550000Y42709294D01*
X550000Y44875000D01*
X44450000Y44875000D01*
X44450000Y36547170D01*
M02*
