G04 #@! TF.GenerationSoftware,KiCad,Pcbnew,(5.1.5)-3*
G04 #@! TF.CreationDate,2020-02-27T01:05:18-05:00*
G04 #@! TF.ProjectId,power_supply,706f7765-725f-4737-9570-706c792e6b69,rev?*
G04 #@! TF.SameCoordinates,Original*
G04 #@! TF.FileFunction,Soldermask,Bot*
G04 #@! TF.FilePolarity,Negative*
%FSLAX46Y46*%
G04 Gerber Fmt 4.6, Leading zero omitted, Abs format (unit mm)*
G04 Created by KiCad (PCBNEW (5.1.5)-3) date 2020-02-27 01:05:18*
%MOMM*%
%LPD*%
G04 APERTURE LIST*
%ADD10C,0.100000*%
G04 APERTURE END LIST*
D10*
G36*
X20651000Y8099000D02*
G01*
X18849000Y8099000D01*
X18849000Y9901000D01*
X20651000Y9901000D01*
X20651000Y8099000D01*
G37*
G36*
X22403512Y9896073D02*
G01*
X22552812Y9866376D01*
X22716784Y9798456D01*
X22864354Y9699853D01*
X22989853Y9574354D01*
X23088456Y9426784D01*
X23156376Y9262812D01*
X23191000Y9088741D01*
X23191000Y8911259D01*
X23156376Y8737188D01*
X23088456Y8573216D01*
X22989853Y8425646D01*
X22864354Y8300147D01*
X22716784Y8201544D01*
X22552812Y8133624D01*
X22403512Y8103927D01*
X22378742Y8099000D01*
X22201258Y8099000D01*
X22176488Y8103927D01*
X22027188Y8133624D01*
X21863216Y8201544D01*
X21715646Y8300147D01*
X21590147Y8425646D01*
X21491544Y8573216D01*
X21423624Y8737188D01*
X21389000Y8911259D01*
X21389000Y9088741D01*
X21423624Y9262812D01*
X21491544Y9426784D01*
X21590147Y9574354D01*
X21715646Y9699853D01*
X21863216Y9798456D01*
X22027188Y9866376D01*
X22176488Y9896073D01*
X22201258Y9901000D01*
X22378742Y9901000D01*
X22403512Y9896073D01*
G37*
G36*
X24943512Y9896073D02*
G01*
X25092812Y9866376D01*
X25256784Y9798456D01*
X25404354Y9699853D01*
X25529853Y9574354D01*
X25628456Y9426784D01*
X25696376Y9262812D01*
X25731000Y9088741D01*
X25731000Y8911259D01*
X25696376Y8737188D01*
X25628456Y8573216D01*
X25529853Y8425646D01*
X25404354Y8300147D01*
X25256784Y8201544D01*
X25092812Y8133624D01*
X24943512Y8103927D01*
X24918742Y8099000D01*
X24741258Y8099000D01*
X24716488Y8103927D01*
X24567188Y8133624D01*
X24403216Y8201544D01*
X24255646Y8300147D01*
X24130147Y8425646D01*
X24031544Y8573216D01*
X23963624Y8737188D01*
X23929000Y8911259D01*
X23929000Y9088741D01*
X23963624Y9262812D01*
X24031544Y9426784D01*
X24130147Y9574354D01*
X24255646Y9699853D01*
X24403216Y9798456D01*
X24567188Y9866376D01*
X24716488Y9896073D01*
X24741258Y9901000D01*
X24918742Y9901000D01*
X24943512Y9896073D01*
G37*
G36*
X42394072Y12299082D02*
G01*
X42639939Y12197241D01*
X42861212Y12049390D01*
X43049390Y11861212D01*
X43197241Y11639939D01*
X43299082Y11394072D01*
X43351000Y11133062D01*
X43351000Y10866938D01*
X43299082Y10605928D01*
X43197241Y10360061D01*
X43049390Y10138788D01*
X42861212Y9950610D01*
X42639939Y9802759D01*
X42639938Y9802758D01*
X42639937Y9802758D01*
X42394072Y9700918D01*
X42133063Y9649000D01*
X41866937Y9649000D01*
X41605928Y9700918D01*
X41360063Y9802758D01*
X41360062Y9802758D01*
X41360061Y9802759D01*
X41138788Y9950610D01*
X40950610Y10138788D01*
X40802759Y10360061D01*
X40700918Y10605928D01*
X40649000Y10866938D01*
X40649000Y11133062D01*
X40700918Y11394072D01*
X40802759Y11639939D01*
X40950610Y11861212D01*
X41138788Y12049390D01*
X41360061Y12197241D01*
X41605928Y12299082D01*
X41866937Y12351000D01*
X42133063Y12351000D01*
X42394072Y12299082D01*
G37*
G36*
X8394072Y12299082D02*
G01*
X8639939Y12197241D01*
X8861212Y12049390D01*
X9049390Y11861212D01*
X9197241Y11639939D01*
X9299082Y11394072D01*
X9351000Y11133062D01*
X9351000Y10866938D01*
X9299082Y10605928D01*
X9197241Y10360061D01*
X9049390Y10138788D01*
X8861212Y9950610D01*
X8639939Y9802759D01*
X8639938Y9802758D01*
X8639937Y9802758D01*
X8394072Y9700918D01*
X8133063Y9649000D01*
X7866937Y9649000D01*
X7605928Y9700918D01*
X7360063Y9802758D01*
X7360062Y9802758D01*
X7360061Y9802759D01*
X7138788Y9950610D01*
X6950610Y10138788D01*
X6802759Y10360061D01*
X6700918Y10605928D01*
X6649000Y10866938D01*
X6649000Y11133062D01*
X6700918Y11394072D01*
X6802759Y11639939D01*
X6950610Y11861212D01*
X7138788Y12049390D01*
X7360061Y12197241D01*
X7605928Y12299082D01*
X7866937Y12351000D01*
X8133063Y12351000D01*
X8394072Y12299082D01*
G37*
G36*
X4351000Y9649000D02*
G01*
X1649000Y9649000D01*
X1649000Y12351000D01*
X4351000Y12351000D01*
X4351000Y9649000D01*
G37*
G36*
X38351000Y9649000D02*
G01*
X35649000Y9649000D01*
X35649000Y12351000D01*
X38351000Y12351000D01*
X38351000Y9649000D01*
G37*
G36*
X10151000Y15849000D02*
G01*
X7849000Y15849000D01*
X7849000Y18151000D01*
X10151000Y18151000D01*
X10151000Y15849000D01*
G37*
G36*
X35974549Y18218884D02*
G01*
X36085734Y18196768D01*
X36295203Y18110003D01*
X36483720Y17984040D01*
X36644040Y17823720D01*
X36770003Y17635203D01*
X36856768Y17425734D01*
X36901000Y17203364D01*
X36901000Y16976636D01*
X36856768Y16754266D01*
X36770003Y16544797D01*
X36644040Y16356280D01*
X36483720Y16195960D01*
X36295203Y16069997D01*
X36085734Y15983232D01*
X35974549Y15961116D01*
X35863365Y15939000D01*
X35636635Y15939000D01*
X35525451Y15961116D01*
X35414266Y15983232D01*
X35204797Y16069997D01*
X35016280Y16195960D01*
X34855960Y16356280D01*
X34729997Y16544797D01*
X34643232Y16754266D01*
X34599000Y16976636D01*
X34599000Y17203364D01*
X34643232Y17425734D01*
X34729997Y17635203D01*
X34855960Y17823720D01*
X35016280Y17984040D01*
X35204797Y18110003D01*
X35414266Y18196768D01*
X35525451Y18218884D01*
X35636635Y18241000D01*
X35863365Y18241000D01*
X35974549Y18218884D01*
G37*
G36*
X4375256Y20608702D02*
G01*
X4481579Y20587553D01*
X4782042Y20463097D01*
X5052451Y20282415D01*
X5282415Y20052451D01*
X5463097Y19782042D01*
X5587553Y19481579D01*
X5651000Y19162609D01*
X5651000Y18837391D01*
X5587553Y18518421D01*
X5463097Y18217958D01*
X5282415Y17947549D01*
X5052451Y17717585D01*
X4782042Y17536903D01*
X4481579Y17412447D01*
X4375256Y17391298D01*
X4162611Y17349000D01*
X3837389Y17349000D01*
X3624744Y17391298D01*
X3518421Y17412447D01*
X3217958Y17536903D01*
X2947549Y17717585D01*
X2717585Y17947549D01*
X2536903Y18217958D01*
X2412447Y18518421D01*
X2349000Y18837391D01*
X2349000Y19162609D01*
X2412447Y19481579D01*
X2536903Y19782042D01*
X2717585Y20052451D01*
X2947549Y20282415D01*
X3217958Y20463097D01*
X3518421Y20587553D01*
X3624744Y20608702D01*
X3837389Y20651000D01*
X4162611Y20651000D01*
X4375256Y20608702D01*
G37*
G36*
X41375256Y20608702D02*
G01*
X41481579Y20587553D01*
X41782042Y20463097D01*
X42052451Y20282415D01*
X42282415Y20052451D01*
X42463097Y19782042D01*
X42587553Y19481579D01*
X42651000Y19162609D01*
X42651000Y18837391D01*
X42587553Y18518421D01*
X42463097Y18217958D01*
X42282415Y17947549D01*
X42052451Y17717585D01*
X41782042Y17536903D01*
X41481579Y17412447D01*
X41375256Y17391298D01*
X41162611Y17349000D01*
X40837389Y17349000D01*
X40624744Y17391298D01*
X40518421Y17412447D01*
X40217958Y17536903D01*
X39947549Y17717585D01*
X39717585Y17947549D01*
X39536903Y18217958D01*
X39412447Y18518421D01*
X39349000Y18837391D01*
X39349000Y19162609D01*
X39412447Y19481579D01*
X39536903Y19782042D01*
X39717585Y20052451D01*
X39947549Y20282415D01*
X40217958Y20463097D01*
X40518421Y20587553D01*
X40624744Y20608702D01*
X40837389Y20651000D01*
X41162611Y20651000D01*
X41375256Y20608702D01*
G37*
G36*
X32051000Y20699000D02*
G01*
X29949000Y20699000D01*
X29949000Y22801000D01*
X32051000Y22801000D01*
X32051000Y20699000D01*
G37*
G36*
X26306564Y22760611D02*
G01*
X26497833Y22681385D01*
X26497835Y22681384D01*
X26669973Y22566365D01*
X26816365Y22419973D01*
X26931385Y22247833D01*
X27010611Y22056564D01*
X27051000Y21853516D01*
X27051000Y21646484D01*
X27010611Y21443436D01*
X26931385Y21252167D01*
X26931384Y21252165D01*
X26816365Y21080027D01*
X26669973Y20933635D01*
X26497835Y20818616D01*
X26497834Y20818615D01*
X26497833Y20818615D01*
X26306564Y20739389D01*
X26103516Y20699000D01*
X25896484Y20699000D01*
X25693436Y20739389D01*
X25502167Y20818615D01*
X25502166Y20818615D01*
X25502165Y20818616D01*
X25330027Y20933635D01*
X25183635Y21080027D01*
X25068616Y21252165D01*
X25068615Y21252167D01*
X24989389Y21443436D01*
X24949000Y21646484D01*
X24949000Y21853516D01*
X24989389Y22056564D01*
X25068615Y22247833D01*
X25183635Y22419973D01*
X25330027Y22566365D01*
X25502165Y22681384D01*
X25502167Y22681385D01*
X25693436Y22760611D01*
X25896484Y22801000D01*
X26103516Y22801000D01*
X26306564Y22760611D01*
G37*
G36*
X14556564Y22760611D02*
G01*
X14747833Y22681385D01*
X14747835Y22681384D01*
X14919973Y22566365D01*
X15066365Y22419973D01*
X15181385Y22247833D01*
X15260611Y22056564D01*
X15301000Y21853516D01*
X15301000Y21646484D01*
X15260611Y21443436D01*
X15181385Y21252167D01*
X15181384Y21252165D01*
X15066365Y21080027D01*
X14919973Y20933635D01*
X14747835Y20818616D01*
X14747834Y20818615D01*
X14747833Y20818615D01*
X14556564Y20739389D01*
X14353516Y20699000D01*
X14146484Y20699000D01*
X13943436Y20739389D01*
X13752167Y20818615D01*
X13752166Y20818615D01*
X13752165Y20818616D01*
X13580027Y20933635D01*
X13433635Y21080027D01*
X13318616Y21252165D01*
X13318615Y21252167D01*
X13239389Y21443436D01*
X13199000Y21646484D01*
X13199000Y21853516D01*
X13239389Y22056564D01*
X13318615Y22247833D01*
X13433635Y22419973D01*
X13580027Y22566365D01*
X13752165Y22681384D01*
X13752167Y22681385D01*
X13943436Y22760611D01*
X14146484Y22801000D01*
X14353516Y22801000D01*
X14556564Y22760611D01*
G37*
G36*
X20301000Y20699000D02*
G01*
X18199000Y20699000D01*
X18199000Y22801000D01*
X20301000Y22801000D01*
X20301000Y20699000D01*
G37*
G36*
X43181125Y26913312D02*
G01*
X43320324Y26885623D01*
X43389433Y26856997D01*
X43582568Y26776998D01*
X43818583Y26619298D01*
X44019298Y26418583D01*
X44176998Y26182568D01*
X44285623Y25920323D01*
X44341000Y25641927D01*
X44341000Y25358073D01*
X44285623Y25079677D01*
X44176998Y24817432D01*
X44019298Y24581417D01*
X43818583Y24380702D01*
X43582568Y24223002D01*
X43428949Y24159371D01*
X43320324Y24114377D01*
X43181125Y24086688D01*
X43041927Y24059000D01*
X42758073Y24059000D01*
X42618875Y24086688D01*
X42479676Y24114377D01*
X42371051Y24159371D01*
X42217432Y24223002D01*
X41981417Y24380702D01*
X41780702Y24581417D01*
X41623002Y24817432D01*
X41514377Y25079677D01*
X41459000Y25358073D01*
X41459000Y25641927D01*
X41514377Y25920323D01*
X41623002Y26182568D01*
X41780702Y26418583D01*
X41981417Y26619298D01*
X42217432Y26776998D01*
X42410567Y26856997D01*
X42479676Y26885623D01*
X42618875Y26913312D01*
X42758073Y26941000D01*
X43041927Y26941000D01*
X43181125Y26913312D01*
G37*
G36*
X39781125Y26913312D02*
G01*
X39920324Y26885623D01*
X39989433Y26856997D01*
X40182568Y26776998D01*
X40418583Y26619298D01*
X40619298Y26418583D01*
X40776998Y26182568D01*
X40885623Y25920323D01*
X40941000Y25641927D01*
X40941000Y25358073D01*
X40885623Y25079677D01*
X40776998Y24817432D01*
X40619298Y24581417D01*
X40418583Y24380702D01*
X40182568Y24223002D01*
X40028949Y24159371D01*
X39920324Y24114377D01*
X39781125Y24086688D01*
X39641927Y24059000D01*
X39358073Y24059000D01*
X39218875Y24086688D01*
X39079676Y24114377D01*
X38971051Y24159371D01*
X38817432Y24223002D01*
X38581417Y24380702D01*
X38380702Y24581417D01*
X38223002Y24817432D01*
X38114377Y25079677D01*
X38059000Y25358073D01*
X38059000Y25641927D01*
X38114377Y25920323D01*
X38223002Y26182568D01*
X38380702Y26418583D01*
X38581417Y26619298D01*
X38817432Y26776998D01*
X39010567Y26856997D01*
X39079676Y26885623D01*
X39218875Y26913312D01*
X39358073Y26941000D01*
X39641927Y26941000D01*
X39781125Y26913312D01*
G37*
G36*
X5681125Y26993311D02*
G01*
X5820324Y26965623D01*
X5928949Y26920629D01*
X6082568Y26856998D01*
X6318583Y26699298D01*
X6519298Y26498583D01*
X6676998Y26262568D01*
X6710135Y26182568D01*
X6763708Y26053232D01*
X6785623Y26000323D01*
X6841000Y25721927D01*
X6841000Y25438073D01*
X6785623Y25159677D01*
X6676998Y24897432D01*
X6519298Y24661417D01*
X6318583Y24460702D01*
X6082568Y24303002D01*
X5928949Y24239371D01*
X5820324Y24194377D01*
X5681125Y24166689D01*
X5541927Y24139000D01*
X5258073Y24139000D01*
X5118875Y24166689D01*
X4979676Y24194377D01*
X4871051Y24239371D01*
X4717432Y24303002D01*
X4481417Y24460702D01*
X4280702Y24661417D01*
X4123002Y24897432D01*
X4014377Y25159677D01*
X3959000Y25438073D01*
X3959000Y25721927D01*
X4014377Y26000323D01*
X4036293Y26053232D01*
X4089865Y26182568D01*
X4123002Y26262568D01*
X4280702Y26498583D01*
X4481417Y26699298D01*
X4717432Y26856998D01*
X4871051Y26920629D01*
X4979676Y26965623D01*
X5118875Y26993311D01*
X5258073Y27021000D01*
X5541927Y27021000D01*
X5681125Y26993311D01*
G37*
G36*
X2281125Y26993311D02*
G01*
X2420324Y26965623D01*
X2528949Y26920629D01*
X2682568Y26856998D01*
X2918583Y26699298D01*
X3119298Y26498583D01*
X3276998Y26262568D01*
X3310135Y26182568D01*
X3363708Y26053232D01*
X3385623Y26000323D01*
X3441000Y25721927D01*
X3441000Y25438073D01*
X3385623Y25159677D01*
X3276998Y24897432D01*
X3119298Y24661417D01*
X2918583Y24460702D01*
X2682568Y24303002D01*
X2528949Y24239371D01*
X2420324Y24194377D01*
X2281125Y24166689D01*
X2141927Y24139000D01*
X1858073Y24139000D01*
X1718875Y24166689D01*
X1579676Y24194377D01*
X1471051Y24239371D01*
X1317432Y24303002D01*
X1081417Y24460702D01*
X880702Y24661417D01*
X723002Y24897432D01*
X614377Y25159677D01*
X559000Y25438073D01*
X559000Y25721927D01*
X614377Y26000323D01*
X636293Y26053232D01*
X689865Y26182568D01*
X723002Y26262568D01*
X880702Y26498583D01*
X1081417Y26699298D01*
X1317432Y26856998D01*
X1471051Y26920629D01*
X1579676Y26965623D01*
X1718875Y26993311D01*
X1858073Y27021000D01*
X2141927Y27021000D01*
X2281125Y26993311D01*
G37*
G36*
X9224549Y28288884D02*
G01*
X9335734Y28266768D01*
X9545203Y28180003D01*
X9733720Y28054040D01*
X9894040Y27893720D01*
X10020003Y27705203D01*
X10106768Y27495734D01*
X10151000Y27273364D01*
X10151000Y27046636D01*
X10106768Y26824266D01*
X10055004Y26699297D01*
X10021868Y26619298D01*
X10020003Y26614797D01*
X9894040Y26426280D01*
X9733720Y26265960D01*
X9545203Y26139997D01*
X9335734Y26053232D01*
X9224549Y26031116D01*
X9113365Y26009000D01*
X8886635Y26009000D01*
X8775451Y26031116D01*
X8664266Y26053232D01*
X8454797Y26139997D01*
X8266280Y26265960D01*
X8105960Y26426280D01*
X7979997Y26614797D01*
X7978133Y26619298D01*
X7944996Y26699297D01*
X7893232Y26824266D01*
X7849000Y27046636D01*
X7849000Y27273364D01*
X7893232Y27495734D01*
X7979997Y27705203D01*
X8105960Y27893720D01*
X8266280Y28054040D01*
X8454797Y28180003D01*
X8664266Y28266768D01*
X8775451Y28288884D01*
X8886635Y28311000D01*
X9113365Y28311000D01*
X9224549Y28288884D01*
G37*
G36*
X36901000Y26099000D02*
G01*
X34599000Y26099000D01*
X34599000Y28401000D01*
X36901000Y28401000D01*
X36901000Y26099000D01*
G37*
G36*
X25056564Y29260611D02*
G01*
X25247833Y29181385D01*
X25247835Y29181384D01*
X25419973Y29066365D01*
X25566365Y28919973D01*
X25681385Y28747833D01*
X25760611Y28556564D01*
X25801000Y28353516D01*
X25801000Y28146484D01*
X25760611Y27943436D01*
X25681385Y27752167D01*
X25681384Y27752165D01*
X25566365Y27580027D01*
X25419973Y27433635D01*
X25247835Y27318616D01*
X25247834Y27318615D01*
X25247833Y27318615D01*
X25056564Y27239389D01*
X24853516Y27199000D01*
X24646484Y27199000D01*
X24443436Y27239389D01*
X24252167Y27318615D01*
X24252166Y27318615D01*
X24252165Y27318616D01*
X24080027Y27433635D01*
X23933635Y27580027D01*
X23818616Y27752165D01*
X23818615Y27752167D01*
X23739389Y27943436D01*
X23699000Y28146484D01*
X23699000Y28353516D01*
X23739389Y28556564D01*
X23818615Y28747833D01*
X23933635Y28919973D01*
X24080027Y29066365D01*
X24252165Y29181384D01*
X24252167Y29181385D01*
X24443436Y29260611D01*
X24646484Y29301000D01*
X24853516Y29301000D01*
X25056564Y29260611D01*
G37*
G36*
X20056564Y29260611D02*
G01*
X20247833Y29181385D01*
X20247835Y29181384D01*
X20419973Y29066365D01*
X20566365Y28919973D01*
X20681385Y28747833D01*
X20760611Y28556564D01*
X20801000Y28353516D01*
X20801000Y28146484D01*
X20760611Y27943436D01*
X20681385Y27752167D01*
X20681384Y27752165D01*
X20566365Y27580027D01*
X20419973Y27433635D01*
X20247835Y27318616D01*
X20247834Y27318615D01*
X20247833Y27318615D01*
X20056564Y27239389D01*
X19853516Y27199000D01*
X19646484Y27199000D01*
X19443436Y27239389D01*
X19252167Y27318615D01*
X19252166Y27318615D01*
X19252165Y27318616D01*
X19080027Y27433635D01*
X18933635Y27580027D01*
X18818616Y27752165D01*
X18818615Y27752167D01*
X18739389Y27943436D01*
X18699000Y28146484D01*
X18699000Y28353516D01*
X18739389Y28556564D01*
X18818615Y28747833D01*
X18933635Y28919973D01*
X19080027Y29066365D01*
X19252165Y29181384D01*
X19252167Y29181385D01*
X19443436Y29260611D01*
X19646484Y29301000D01*
X19853516Y29301000D01*
X20056564Y29260611D01*
G37*
G36*
X28056564Y33510611D02*
G01*
X28247833Y33431385D01*
X28247835Y33431384D01*
X28419973Y33316365D01*
X28566365Y33169973D01*
X28681385Y32997833D01*
X28760611Y32806564D01*
X28801000Y32603516D01*
X28801000Y32396484D01*
X28760611Y32193436D01*
X28681385Y32002167D01*
X28681384Y32002165D01*
X28566365Y31830027D01*
X28419973Y31683635D01*
X28247835Y31568616D01*
X28247834Y31568615D01*
X28247833Y31568615D01*
X28056564Y31489389D01*
X27853516Y31449000D01*
X27646484Y31449000D01*
X27443436Y31489389D01*
X27252167Y31568615D01*
X27252166Y31568615D01*
X27252165Y31568616D01*
X27080027Y31683635D01*
X26933635Y31830027D01*
X26818616Y32002165D01*
X26818615Y32002167D01*
X26739389Y32193436D01*
X26699000Y32396484D01*
X26699000Y32603516D01*
X26739389Y32806564D01*
X26818615Y32997833D01*
X26933635Y33169973D01*
X27080027Y33316365D01*
X27252165Y33431384D01*
X27252167Y33431385D01*
X27443436Y33510611D01*
X27646484Y33551000D01*
X27853516Y33551000D01*
X28056564Y33510611D01*
G37*
G36*
X17801000Y31449000D02*
G01*
X15699000Y31449000D01*
X15699000Y33551000D01*
X17801000Y33551000D01*
X17801000Y31449000D01*
G37*
G36*
X12056564Y33510611D02*
G01*
X12247833Y33431385D01*
X12247835Y33431384D01*
X12419973Y33316365D01*
X12566365Y33169973D01*
X12681385Y32997833D01*
X12760611Y32806564D01*
X12801000Y32603516D01*
X12801000Y32396484D01*
X12760611Y32193436D01*
X12681385Y32002167D01*
X12681384Y32002165D01*
X12566365Y31830027D01*
X12419973Y31683635D01*
X12247835Y31568616D01*
X12247834Y31568615D01*
X12247833Y31568615D01*
X12056564Y31489389D01*
X11853516Y31449000D01*
X11646484Y31449000D01*
X11443436Y31489389D01*
X11252167Y31568615D01*
X11252166Y31568615D01*
X11252165Y31568616D01*
X11080027Y31683635D01*
X10933635Y31830027D01*
X10818616Y32002165D01*
X10818615Y32002167D01*
X10739389Y32193436D01*
X10699000Y32396484D01*
X10699000Y32603516D01*
X10739389Y32806564D01*
X10818615Y32997833D01*
X10933635Y33169973D01*
X11080027Y33316365D01*
X11252165Y33431384D01*
X11252167Y33431385D01*
X11443436Y33510611D01*
X11646484Y33551000D01*
X11853516Y33551000D01*
X12056564Y33510611D01*
G37*
G36*
X33801000Y31449000D02*
G01*
X31699000Y31449000D01*
X31699000Y33551000D01*
X33801000Y33551000D01*
X33801000Y31449000D01*
G37*
G36*
X43181125Y36833311D02*
G01*
X43320324Y36805623D01*
X43389433Y36776997D01*
X43582568Y36696998D01*
X43818583Y36539298D01*
X44019298Y36338583D01*
X44176998Y36102568D01*
X44285623Y35840323D01*
X44341000Y35561927D01*
X44341000Y35278073D01*
X44285623Y34999677D01*
X44176998Y34737432D01*
X44019298Y34501417D01*
X43818583Y34300702D01*
X43582568Y34143002D01*
X43428949Y34079371D01*
X43320324Y34034377D01*
X43181125Y34006688D01*
X43041927Y33979000D01*
X42758073Y33979000D01*
X42618875Y34006688D01*
X42479676Y34034377D01*
X42371051Y34079371D01*
X42217432Y34143002D01*
X41981417Y34300702D01*
X41780702Y34501417D01*
X41623002Y34737432D01*
X41514377Y34999677D01*
X41459000Y35278073D01*
X41459000Y35561927D01*
X41514377Y35840323D01*
X41623002Y36102568D01*
X41780702Y36338583D01*
X41981417Y36539298D01*
X42217432Y36696998D01*
X42410567Y36776997D01*
X42479676Y36805623D01*
X42618875Y36833311D01*
X42758073Y36861000D01*
X43041927Y36861000D01*
X43181125Y36833311D01*
G37*
G36*
X39781125Y36833311D02*
G01*
X39920324Y36805623D01*
X39989433Y36776997D01*
X40182568Y36696998D01*
X40418583Y36539298D01*
X40619298Y36338583D01*
X40776998Y36102568D01*
X40885623Y35840323D01*
X40941000Y35561927D01*
X40941000Y35278073D01*
X40885623Y34999677D01*
X40776998Y34737432D01*
X40619298Y34501417D01*
X40418583Y34300702D01*
X40182568Y34143002D01*
X40028949Y34079371D01*
X39920324Y34034377D01*
X39781125Y34006688D01*
X39641927Y33979000D01*
X39358073Y33979000D01*
X39218875Y34006688D01*
X39079676Y34034377D01*
X38971051Y34079371D01*
X38817432Y34143002D01*
X38581417Y34300702D01*
X38380702Y34501417D01*
X38223002Y34737432D01*
X38114377Y34999677D01*
X38059000Y35278073D01*
X38059000Y35561927D01*
X38114377Y35840323D01*
X38223002Y36102568D01*
X38380702Y36338583D01*
X38581417Y36539298D01*
X38817432Y36696998D01*
X39010567Y36776997D01*
X39079676Y36805623D01*
X39218875Y36833311D01*
X39358073Y36861000D01*
X39641927Y36861000D01*
X39781125Y36833311D01*
G37*
G36*
X2281125Y36913312D02*
G01*
X2420324Y36885623D01*
X2528949Y36840629D01*
X2682568Y36776998D01*
X2918583Y36619298D01*
X3119298Y36418583D01*
X3276998Y36182568D01*
X3310135Y36102568D01*
X3376050Y35943436D01*
X3385623Y35920323D01*
X3441000Y35641927D01*
X3441000Y35358073D01*
X3385623Y35079677D01*
X3276998Y34817432D01*
X3119298Y34581417D01*
X2918583Y34380702D01*
X2682568Y34223002D01*
X2528949Y34159371D01*
X2420324Y34114377D01*
X2281125Y34086688D01*
X2141927Y34059000D01*
X1858073Y34059000D01*
X1718875Y34086688D01*
X1579676Y34114377D01*
X1471051Y34159371D01*
X1317432Y34223002D01*
X1081417Y34380702D01*
X880702Y34581417D01*
X723002Y34817432D01*
X614377Y35079677D01*
X559000Y35358073D01*
X559000Y35641927D01*
X614377Y35920323D01*
X623951Y35943436D01*
X689865Y36102568D01*
X723002Y36182568D01*
X880702Y36418583D01*
X1081417Y36619298D01*
X1317432Y36776998D01*
X1471051Y36840629D01*
X1579676Y36885623D01*
X1718875Y36913312D01*
X1858073Y36941000D01*
X2141927Y36941000D01*
X2281125Y36913312D01*
G37*
G36*
X5681125Y36913312D02*
G01*
X5820324Y36885623D01*
X5928949Y36840629D01*
X6082568Y36776998D01*
X6318583Y36619298D01*
X6519298Y36418583D01*
X6676998Y36182568D01*
X6710135Y36102568D01*
X6776050Y35943436D01*
X6785623Y35920323D01*
X6841000Y35641927D01*
X6841000Y35358073D01*
X6785623Y35079677D01*
X6676998Y34817432D01*
X6519298Y34581417D01*
X6318583Y34380702D01*
X6082568Y34223002D01*
X5928949Y34159371D01*
X5820324Y34114377D01*
X5681125Y34086688D01*
X5541927Y34059000D01*
X5258073Y34059000D01*
X5118875Y34086688D01*
X4979676Y34114377D01*
X4871051Y34159371D01*
X4717432Y34223002D01*
X4481417Y34380702D01*
X4280702Y34581417D01*
X4123002Y34817432D01*
X4014377Y35079677D01*
X3959000Y35358073D01*
X3959000Y35641927D01*
X4014377Y35920323D01*
X4023951Y35943436D01*
X4089865Y36102568D01*
X4123002Y36182568D01*
X4280702Y36418583D01*
X4481417Y36619298D01*
X4717432Y36776998D01*
X4871051Y36840629D01*
X4979676Y36885623D01*
X5118875Y36913312D01*
X5258073Y36941000D01*
X5541927Y36941000D01*
X5681125Y36913312D01*
G37*
G36*
X25056564Y37260611D02*
G01*
X25247833Y37181385D01*
X25247835Y37181384D01*
X25419973Y37066365D01*
X25566365Y36919973D01*
X25661899Y36776997D01*
X25681385Y36747833D01*
X25760611Y36556564D01*
X25801000Y36353516D01*
X25801000Y36146484D01*
X25760611Y35943436D01*
X25717900Y35840323D01*
X25681384Y35752165D01*
X25566365Y35580027D01*
X25419973Y35433635D01*
X25247835Y35318616D01*
X25247834Y35318615D01*
X25247833Y35318615D01*
X25056564Y35239389D01*
X24853516Y35199000D01*
X24646484Y35199000D01*
X24443436Y35239389D01*
X24252167Y35318615D01*
X24252166Y35318615D01*
X24252165Y35318616D01*
X24080027Y35433635D01*
X23933635Y35580027D01*
X23818616Y35752165D01*
X23782100Y35840323D01*
X23739389Y35943436D01*
X23699000Y36146484D01*
X23699000Y36353516D01*
X23739389Y36556564D01*
X23818615Y36747833D01*
X23838102Y36776997D01*
X23933635Y36919973D01*
X24080027Y37066365D01*
X24252165Y37181384D01*
X24252167Y37181385D01*
X24443436Y37260611D01*
X24646484Y37301000D01*
X24853516Y37301000D01*
X25056564Y37260611D01*
G37*
G36*
X20056564Y37260611D02*
G01*
X20247833Y37181385D01*
X20247835Y37181384D01*
X20419973Y37066365D01*
X20566365Y36919973D01*
X20661899Y36776997D01*
X20681385Y36747833D01*
X20760611Y36556564D01*
X20801000Y36353516D01*
X20801000Y36146484D01*
X20760611Y35943436D01*
X20717900Y35840323D01*
X20681384Y35752165D01*
X20566365Y35580027D01*
X20419973Y35433635D01*
X20247835Y35318616D01*
X20247834Y35318615D01*
X20247833Y35318615D01*
X20056564Y35239389D01*
X19853516Y35199000D01*
X19646484Y35199000D01*
X19443436Y35239389D01*
X19252167Y35318615D01*
X19252166Y35318615D01*
X19252165Y35318616D01*
X19080027Y35433635D01*
X18933635Y35580027D01*
X18818616Y35752165D01*
X18782100Y35840323D01*
X18739389Y35943436D01*
X18699000Y36146484D01*
X18699000Y36353516D01*
X18739389Y36556564D01*
X18818615Y36747833D01*
X18838102Y36776997D01*
X18933635Y36919973D01*
X19080027Y37066365D01*
X19252165Y37181384D01*
X19252167Y37181385D01*
X19443436Y37260611D01*
X19646484Y37301000D01*
X19853516Y37301000D01*
X20056564Y37260611D01*
G37*
G36*
X33604048Y41728558D02*
G01*
X33896413Y41639870D01*
X33896415Y41639869D01*
X34165856Y41495850D01*
X34165858Y41495849D01*
X34165857Y41495849D01*
X34402029Y41302029D01*
X34471330Y41217585D01*
X34595850Y41065858D01*
X34677849Y40912447D01*
X34739870Y40796414D01*
X34828558Y40504049D01*
X34851000Y40276190D01*
X34851000Y39123810D01*
X34828558Y38895951D01*
X34739870Y38603586D01*
X34739869Y38603584D01*
X34595850Y38334142D01*
X34402029Y38097971D01*
X34165858Y37904150D01*
X33896416Y37760131D01*
X33896414Y37760130D01*
X33604049Y37671442D01*
X33300000Y37641496D01*
X32995952Y37671442D01*
X32703587Y37760130D01*
X32703585Y37760131D01*
X32434143Y37904150D01*
X32197972Y38097971D01*
X32004151Y38334142D01*
X31860130Y38603586D01*
X31771442Y38895951D01*
X31749000Y39123810D01*
X31749000Y40276189D01*
X31771442Y40504048D01*
X31860130Y40796413D01*
X31888238Y40849000D01*
X32004150Y41065856D01*
X32033622Y41101768D01*
X32197971Y41302029D01*
X32304426Y41389395D01*
X32434142Y41495850D01*
X32703584Y41639869D01*
X32703586Y41639870D01*
X32995951Y41728558D01*
X33300000Y41758504D01*
X33604048Y41728558D01*
G37*
G36*
X27254048Y41728558D02*
G01*
X27546413Y41639870D01*
X27546415Y41639869D01*
X27815856Y41495850D01*
X27815858Y41495849D01*
X27815857Y41495849D01*
X28052029Y41302029D01*
X28121330Y41217585D01*
X28245850Y41065858D01*
X28327849Y40912447D01*
X28389870Y40796414D01*
X28478558Y40504049D01*
X28501000Y40276190D01*
X28501000Y39123810D01*
X28478558Y38895951D01*
X28389870Y38603586D01*
X28389869Y38603584D01*
X28245850Y38334142D01*
X28052029Y38097971D01*
X27815858Y37904150D01*
X27546416Y37760131D01*
X27546414Y37760130D01*
X27254049Y37671442D01*
X26950000Y37641496D01*
X26645952Y37671442D01*
X26353587Y37760130D01*
X26353585Y37760131D01*
X26084143Y37904150D01*
X25847972Y38097971D01*
X25654151Y38334142D01*
X25510130Y38603586D01*
X25421442Y38895951D01*
X25399000Y39123810D01*
X25399000Y40276189D01*
X25421442Y40504048D01*
X25510130Y40796413D01*
X25538238Y40849000D01*
X25654150Y41065856D01*
X25683622Y41101768D01*
X25847971Y41302029D01*
X25954426Y41389395D01*
X26084142Y41495850D01*
X26353584Y41639869D01*
X26353586Y41639870D01*
X26645951Y41728558D01*
X26950000Y41758504D01*
X27254048Y41728558D01*
G37*
G36*
X18354048Y41728558D02*
G01*
X18646413Y41639870D01*
X18646415Y41639869D01*
X18915856Y41495850D01*
X18915858Y41495849D01*
X18915857Y41495849D01*
X19152029Y41302029D01*
X19221330Y41217585D01*
X19345850Y41065858D01*
X19427849Y40912447D01*
X19489870Y40796414D01*
X19578558Y40504049D01*
X19601000Y40276190D01*
X19601000Y39123810D01*
X19578558Y38895951D01*
X19489870Y38603586D01*
X19489869Y38603584D01*
X19345850Y38334142D01*
X19152029Y38097971D01*
X18915858Y37904150D01*
X18646416Y37760131D01*
X18646414Y37760130D01*
X18354049Y37671442D01*
X18050000Y37641496D01*
X17745952Y37671442D01*
X17453587Y37760130D01*
X17453585Y37760131D01*
X17184143Y37904150D01*
X16947972Y38097971D01*
X16754151Y38334142D01*
X16610130Y38603586D01*
X16521442Y38895951D01*
X16499000Y39123810D01*
X16499000Y40276189D01*
X16521442Y40504048D01*
X16610130Y40796413D01*
X16638238Y40849000D01*
X16754150Y41065856D01*
X16783622Y41101768D01*
X16947971Y41302029D01*
X17054426Y41389395D01*
X17184142Y41495850D01*
X17453584Y41639869D01*
X17453586Y41639870D01*
X17745951Y41728558D01*
X18050000Y41758504D01*
X18354048Y41728558D01*
G37*
G36*
X12004048Y41728558D02*
G01*
X12296413Y41639870D01*
X12296415Y41639869D01*
X12565856Y41495850D01*
X12565858Y41495849D01*
X12565857Y41495849D01*
X12802029Y41302029D01*
X12871330Y41217585D01*
X12995850Y41065858D01*
X13077849Y40912447D01*
X13139870Y40796414D01*
X13228558Y40504049D01*
X13251000Y40276190D01*
X13251000Y39123810D01*
X13228558Y38895951D01*
X13139870Y38603586D01*
X13139869Y38603584D01*
X12995850Y38334142D01*
X12802029Y38097971D01*
X12565858Y37904150D01*
X12296416Y37760131D01*
X12296414Y37760130D01*
X12004049Y37671442D01*
X11700000Y37641496D01*
X11395952Y37671442D01*
X11103587Y37760130D01*
X11103585Y37760131D01*
X10834143Y37904150D01*
X10597972Y38097971D01*
X10404151Y38334142D01*
X10260130Y38603586D01*
X10171442Y38895951D01*
X10149000Y39123810D01*
X10149000Y40276189D01*
X10171442Y40504048D01*
X10260130Y40796413D01*
X10288238Y40849000D01*
X10404150Y41065856D01*
X10433622Y41101768D01*
X10597971Y41302029D01*
X10704426Y41389395D01*
X10834142Y41495850D01*
X11103584Y41639869D01*
X11103586Y41639870D01*
X11395951Y41728558D01*
X11700000Y41758504D01*
X12004048Y41728558D01*
G37*
G36*
X22875256Y44108702D02*
G01*
X22981579Y44087553D01*
X23282042Y43963097D01*
X23552451Y43782415D01*
X23782415Y43552451D01*
X23963097Y43282042D01*
X24087553Y42981579D01*
X24151000Y42662609D01*
X24151000Y42337391D01*
X24087553Y42018421D01*
X23963097Y41717958D01*
X23782415Y41447549D01*
X23552451Y41217585D01*
X23282042Y41036903D01*
X22981579Y40912447D01*
X22875256Y40891298D01*
X22662611Y40849000D01*
X22337389Y40849000D01*
X22124744Y40891298D01*
X22018421Y40912447D01*
X21717958Y41036903D01*
X21447549Y41217585D01*
X21217585Y41447549D01*
X21036903Y41717958D01*
X20912447Y42018421D01*
X20849000Y42337391D01*
X20849000Y42662609D01*
X20912447Y42981579D01*
X21036903Y43282042D01*
X21217585Y43552451D01*
X21447549Y43782415D01*
X21717958Y43963097D01*
X22018421Y44087553D01*
X22124744Y44108702D01*
X22337389Y44151000D01*
X22662611Y44151000D01*
X22875256Y44108702D01*
G37*
G36*
X40500082Y58514090D02*
G01*
X40807432Y58420856D01*
X40980949Y58368220D01*
X40980951Y58368219D01*
X41424116Y58131343D01*
X41812558Y57812558D01*
X42131343Y57424116D01*
X42368219Y56980951D01*
X42514090Y56500082D01*
X42563343Y56000000D01*
X42514090Y55499918D01*
X42368219Y55019049D01*
X42131343Y54575884D01*
X41812558Y54187442D01*
X41424116Y53868657D01*
X40980951Y53631781D01*
X40980949Y53631780D01*
X40807432Y53579144D01*
X40500082Y53485910D01*
X40125324Y53449000D01*
X4874676Y53449000D01*
X4499918Y53485910D01*
X4192568Y53579144D01*
X4019051Y53631780D01*
X4019049Y53631781D01*
X3575884Y53868657D01*
X3187442Y54187442D01*
X2868657Y54575884D01*
X2631781Y55019049D01*
X2485910Y55499918D01*
X2436657Y56000000D01*
X2485910Y56500082D01*
X2631781Y56980951D01*
X2868657Y57424116D01*
X3187442Y57812558D01*
X3575884Y58131343D01*
X4019049Y58368219D01*
X4019051Y58368220D01*
X4192568Y58420856D01*
X4499918Y58514090D01*
X4874676Y58551000D01*
X40125324Y58551000D01*
X40500082Y58514090D01*
G37*
G36*
X22875256Y71108702D02*
G01*
X22981579Y71087553D01*
X23282042Y70963097D01*
X23552451Y70782415D01*
X23782415Y70552451D01*
X23963097Y70282042D01*
X24087553Y69981579D01*
X24151000Y69662609D01*
X24151000Y69337391D01*
X24087553Y69018421D01*
X23963097Y68717958D01*
X23782415Y68447549D01*
X23552451Y68217585D01*
X23282042Y68036903D01*
X22981579Y67912447D01*
X22875256Y67891298D01*
X22662611Y67849000D01*
X22337389Y67849000D01*
X22124744Y67891298D01*
X22018421Y67912447D01*
X21717958Y68036903D01*
X21447549Y68217585D01*
X21217585Y68447549D01*
X21036903Y68717958D01*
X20912447Y69018421D01*
X20849000Y69337391D01*
X20849000Y69662609D01*
X20912447Y69981579D01*
X21036903Y70282042D01*
X21217585Y70552451D01*
X21447549Y70782415D01*
X21717958Y70963097D01*
X22018421Y71087553D01*
X22124744Y71108702D01*
X22337389Y71151000D01*
X22662611Y71151000D01*
X22875256Y71108702D01*
G37*
G36*
X33604048Y74328558D02*
G01*
X33896413Y74239870D01*
X33896415Y74239869D01*
X34165856Y74095850D01*
X34165858Y74095849D01*
X34165857Y74095849D01*
X34402029Y73902029D01*
X34489395Y73795574D01*
X34595850Y73665858D01*
X34739869Y73396416D01*
X34739870Y73396414D01*
X34828558Y73104049D01*
X34851000Y72876190D01*
X34851000Y71723810D01*
X34828558Y71495951D01*
X34739870Y71203586D01*
X34739869Y71203584D01*
X34595850Y70934142D01*
X34402029Y70697971D01*
X34165858Y70504150D01*
X33896416Y70360131D01*
X33896414Y70360130D01*
X33604049Y70271442D01*
X33300000Y70241496D01*
X32995952Y70271442D01*
X32703587Y70360130D01*
X32703585Y70360131D01*
X32434143Y70504150D01*
X32197972Y70697971D01*
X32004151Y70934142D01*
X31860130Y71203586D01*
X31771442Y71495951D01*
X31749000Y71723810D01*
X31749000Y72876189D01*
X31771442Y73104048D01*
X31860130Y73396413D01*
X32004151Y73665857D01*
X32197971Y73902029D01*
X32304426Y73989395D01*
X32434142Y74095850D01*
X32703584Y74239869D01*
X32703586Y74239870D01*
X32995951Y74328558D01*
X33300000Y74358504D01*
X33604048Y74328558D01*
G37*
G36*
X12004048Y74328558D02*
G01*
X12296413Y74239870D01*
X12296415Y74239869D01*
X12565856Y74095850D01*
X12565858Y74095849D01*
X12565857Y74095849D01*
X12802029Y73902029D01*
X12889395Y73795574D01*
X12995850Y73665858D01*
X13139869Y73396416D01*
X13139870Y73396414D01*
X13228558Y73104049D01*
X13251000Y72876190D01*
X13251000Y71723810D01*
X13228558Y71495951D01*
X13139870Y71203586D01*
X13139869Y71203584D01*
X12995850Y70934142D01*
X12802029Y70697971D01*
X12565858Y70504150D01*
X12296416Y70360131D01*
X12296414Y70360130D01*
X12004049Y70271442D01*
X11700000Y70241496D01*
X11395952Y70271442D01*
X11103587Y70360130D01*
X11103585Y70360131D01*
X10834143Y70504150D01*
X10597972Y70697971D01*
X10404151Y70934142D01*
X10260130Y71203586D01*
X10171442Y71495951D01*
X10149000Y71723810D01*
X10149000Y72876189D01*
X10171442Y73104048D01*
X10260130Y73396413D01*
X10404151Y73665857D01*
X10597971Y73902029D01*
X10704426Y73989395D01*
X10834142Y74095850D01*
X11103584Y74239869D01*
X11103586Y74239870D01*
X11395951Y74328558D01*
X11700000Y74358504D01*
X12004048Y74328558D01*
G37*
G36*
X38255040Y80832175D02*
G01*
X38500280Y80757782D01*
X38726294Y80636975D01*
X38777899Y80594624D01*
X38924397Y80474397D01*
X39044624Y80327899D01*
X39086975Y80276294D01*
X39207782Y80050280D01*
X39282175Y79805040D01*
X39301000Y79613905D01*
X39301000Y76986095D01*
X39282175Y76794960D01*
X39207782Y76549720D01*
X39086975Y76323706D01*
X38924396Y76125604D01*
X38726293Y75963025D01*
X38500279Y75842218D01*
X38255039Y75767825D01*
X38000000Y75742706D01*
X37744960Y75767825D01*
X37499720Y75842218D01*
X37499718Y75842219D01*
X37273707Y75963024D01*
X37075604Y76125604D01*
X36913026Y76323706D01*
X36913025Y76323707D01*
X36792218Y76549721D01*
X36717825Y76794961D01*
X36699000Y76986096D01*
X36699001Y79613905D01*
X36717826Y79805040D01*
X36792219Y80050280D01*
X36913026Y80276294D01*
X36955377Y80327899D01*
X37075604Y80474397D01*
X37222102Y80594624D01*
X37273707Y80636975D01*
X37499721Y80757782D01*
X37744961Y80832175D01*
X38000000Y80857294D01*
X38255040Y80832175D01*
G37*
G36*
X14855040Y80832175D02*
G01*
X15100280Y80757782D01*
X15326294Y80636975D01*
X15377899Y80594624D01*
X15524397Y80474397D01*
X15644624Y80327899D01*
X15686975Y80276294D01*
X15807782Y80050280D01*
X15882175Y79805040D01*
X15901000Y79613905D01*
X15901000Y76986095D01*
X15882175Y76794960D01*
X15807782Y76549720D01*
X15686975Y76323706D01*
X15524396Y76125604D01*
X15326293Y75963025D01*
X15100279Y75842218D01*
X14855039Y75767825D01*
X14600000Y75742706D01*
X14344960Y75767825D01*
X14099720Y75842218D01*
X14099718Y75842219D01*
X13873707Y75963024D01*
X13675604Y76125604D01*
X13513026Y76323706D01*
X13513025Y76323707D01*
X13392218Y76549721D01*
X13317825Y76794961D01*
X13299000Y76986096D01*
X13299001Y79613905D01*
X13317826Y79805040D01*
X13392219Y80050280D01*
X13513026Y80276294D01*
X13555377Y80327899D01*
X13675604Y80474397D01*
X13822102Y80594624D01*
X13873707Y80636975D01*
X14099721Y80757782D01*
X14344961Y80832175D01*
X14600000Y80857294D01*
X14855040Y80832175D01*
G37*
G36*
X27333453Y94326388D02*
G01*
X27654093Y94229123D01*
X27654096Y94229122D01*
X27949595Y94071174D01*
X28208609Y93858609D01*
X28421174Y93599596D01*
X28579122Y93304097D01*
X28579122Y93304096D01*
X28579123Y93304094D01*
X28676388Y92983454D01*
X28701000Y92733561D01*
X28701000Y89266439D01*
X28676388Y89016546D01*
X28579123Y88695906D01*
X28579122Y88695903D01*
X28421174Y88400404D01*
X28208609Y88141391D01*
X27949596Y87928826D01*
X27654097Y87770878D01*
X27654094Y87770877D01*
X27333454Y87673612D01*
X27000000Y87640770D01*
X26666547Y87673612D01*
X26345907Y87770877D01*
X26345904Y87770878D01*
X26050405Y87928826D01*
X25791392Y88141391D01*
X25578827Y88400404D01*
X25420879Y88695903D01*
X25420878Y88695906D01*
X25323613Y89016546D01*
X25299001Y89266439D01*
X25299000Y92733560D01*
X25323612Y92983453D01*
X25420877Y93304093D01*
X25420878Y93304096D01*
X25578826Y93599595D01*
X25791391Y93858609D01*
X26050404Y94071174D01*
X26345903Y94229122D01*
X26345906Y94229123D01*
X26666546Y94326388D01*
X27000000Y94359230D01*
X27333453Y94326388D01*
G37*
G36*
X18701000Y87649000D02*
G01*
X15299000Y87649000D01*
X15299000Y94351000D01*
X18701000Y94351000D01*
X18701000Y87649000D01*
G37*
G36*
X4375256Y97608702D02*
G01*
X4481579Y97587553D01*
X4782042Y97463097D01*
X5052451Y97282415D01*
X5282415Y97052451D01*
X5463097Y96782042D01*
X5587553Y96481579D01*
X5651000Y96162609D01*
X5651000Y95837391D01*
X5587553Y95518421D01*
X5463097Y95217958D01*
X5282415Y94947549D01*
X5052451Y94717585D01*
X4782042Y94536903D01*
X4481579Y94412447D01*
X4375256Y94391298D01*
X4162611Y94349000D01*
X3837389Y94349000D01*
X3624744Y94391298D01*
X3518421Y94412447D01*
X3217958Y94536903D01*
X2947549Y94717585D01*
X2717585Y94947549D01*
X2536903Y95217958D01*
X2412447Y95518421D01*
X2349000Y95837391D01*
X2349000Y96162609D01*
X2412447Y96481579D01*
X2536903Y96782042D01*
X2717585Y97052451D01*
X2947549Y97282415D01*
X3217958Y97463097D01*
X3518421Y97587553D01*
X3624744Y97608702D01*
X3837389Y97651000D01*
X4162611Y97651000D01*
X4375256Y97608702D01*
G37*
G36*
X41375256Y97608702D02*
G01*
X41481579Y97587553D01*
X41782042Y97463097D01*
X42052451Y97282415D01*
X42282415Y97052451D01*
X42463097Y96782042D01*
X42587553Y96481579D01*
X42651000Y96162609D01*
X42651000Y95837391D01*
X42587553Y95518421D01*
X42463097Y95217958D01*
X42282415Y94947549D01*
X42052451Y94717585D01*
X41782042Y94536903D01*
X41481579Y94412447D01*
X41375256Y94391298D01*
X41162611Y94349000D01*
X40837389Y94349000D01*
X40624744Y94391298D01*
X40518421Y94412447D01*
X40217958Y94536903D01*
X39947549Y94717585D01*
X39717585Y94947549D01*
X39536903Y95217958D01*
X39412447Y95518421D01*
X39349000Y95837391D01*
X39349000Y96162609D01*
X39412447Y96481579D01*
X39536903Y96782042D01*
X39717585Y97052451D01*
X39947549Y97282415D01*
X40217958Y97463097D01*
X40518421Y97587553D01*
X40624744Y97608702D01*
X40837389Y97651000D01*
X41162611Y97651000D01*
X41375256Y97608702D01*
G37*
M02*
