G04 #@! TF.GenerationSoftware,KiCad,Pcbnew,(5.1.5)-3*
G04 #@! TF.CreationDate,2020-02-27T01:05:18-05:00*
G04 #@! TF.ProjectId,power_supply,706f7765-725f-4737-9570-706c792e6b69,rev?*
G04 #@! TF.SameCoordinates,Original*
G04 #@! TF.FileFunction,Copper,L1,Top*
G04 #@! TF.FilePolarity,Positive*
%FSLAX46Y46*%
G04 Gerber Fmt 4.6, Leading zero omitted, Abs format (unit mm)*
G04 Created by KiCad (PCBNEW (5.1.5)-3) date 2020-02-27 01:05:18*
%MOMM*%
%LPD*%
G04 APERTURE LIST*
%ADD10O,3.000000X4.000000*%
%ADD11R,2.200000X2.200000*%
%ADD12O,2.200000X2.200000*%
%ADD13R,3.300000X6.600000*%
%ADD14O,3.300000X6.600000*%
%ADD15R,2.600000X2.600000*%
%ADD16C,2.600000*%
%ADD17R,2.000000X2.000000*%
%ADD18C,2.000000*%
%ADD19C,2.780000*%
%ADD20R,1.700000X1.700000*%
%ADD21O,1.700000X1.700000*%
%ADD22O,2.500000X5.000000*%
G04 APERTURE END LIST*
D10*
X18050000Y39700000D03*
X26950000Y39700000D03*
X33300000Y39700000D03*
X11700000Y39700000D03*
X11700000Y72300000D03*
X33300000Y72300000D03*
D11*
X35750000Y27250000D03*
D12*
X35750000Y17090000D03*
X9000000Y27160000D03*
D11*
X9000000Y17000000D03*
D13*
X17000000Y91000000D03*
D14*
X27000000Y91000000D03*
D15*
X37000000Y11000000D03*
D16*
X42000000Y11000000D03*
X8000000Y11000000D03*
D15*
X3000000Y11000000D03*
D17*
X31000000Y21750000D03*
D18*
X26000000Y21750000D03*
X11750000Y32500000D03*
D17*
X16750000Y32500000D03*
D18*
X24750000Y28250000D03*
X19750000Y28250000D03*
X19750000Y36250000D03*
X24750000Y36250000D03*
D19*
X39500000Y25500000D03*
X42900000Y25500000D03*
X39500000Y35420000D03*
X42900000Y35420000D03*
X5400000Y35500000D03*
X2000000Y35500000D03*
X5400000Y25580000D03*
X2000000Y25580000D03*
D20*
X19750000Y9000000D03*
D21*
X22290000Y9000000D03*
X24830000Y9000000D03*
D17*
X32750000Y32500000D03*
D18*
X27750000Y32500000D03*
X14250000Y21750000D03*
D17*
X19250000Y21750000D03*
D22*
X38000000Y78300000D03*
X14600000Y78300000D03*
M02*
