M48
; DRILL file {KiCad (5.1.5)-3} date 2/27/2020 1:05:20 AM
; FORMAT={-:-/ absolute / metric / decimal}
; #@! TF.CreationDate,2020-02-27T01:05:20-05:00
; #@! TF.GenerationSoftware,Kicad,Pcbnew,(5.1.5)-3
; #@! TF.FileFunction,Plated,1,2,PTH
FMAT,2
METRIC
T1C0.800
T2C1.000
T3C1.100
T4C1.200
T5C1.300
T6C1.780
T7C1.800
T8C2.200
%
G90
G05
T1
X19.75Y36.25
X19.75Y28.25
X24.75Y36.25
X24.75Y28.25
T2
X19.75Y9.0
X22.29Y9.0
X24.83Y9.0
X11.75Y32.5
X16.75Y32.5
X27.75Y32.5
X32.75Y32.5
X26.0Y21.75
X31.0Y21.75
X14.25Y21.75
X19.25Y21.75
T3
X9.0Y27.16
X9.0Y17.0
X35.75Y27.25
X35.75Y17.09
T4
X11.7Y72.3
X11.7Y39.7
X18.05Y39.7
X26.95Y39.7
X33.3Y72.3
X33.3Y39.7
T5
X3.0Y11.0
X8.0Y11.0
X37.0Y11.0
X42.0Y11.0
T6
X2.0Y35.5
X2.0Y25.58
X5.4Y35.5
X5.4Y25.58
X39.5Y35.42
X39.5Y25.5
X42.9Y35.42
X42.9Y25.5
T7
X14.6Y78.3
X38.0Y78.3
T8
X17.0Y91.0
X27.0Y91.0
T0
M30
