G04 #@! TF.GenerationSoftware,KiCad,Pcbnew,(5.1.5)-3*
G04 #@! TF.CreationDate,2020-02-22T22:02:45-05:00*
G04 #@! TF.ProjectId,Preamplifier,50726561-6d70-46c6-9966-6965722e6b69,rev?*
G04 #@! TF.SameCoordinates,Original*
G04 #@! TF.FileFunction,Legend,Bot*
G04 #@! TF.FilePolarity,Positive*
%FSLAX46Y46*%
G04 Gerber Fmt 4.6, Leading zero omitted, Abs format (unit mm)*
G04 Created by KiCad (PCBNEW (5.1.5)-3) date 2020-02-22 22:02:45*
%MOMM*%
%LPD*%
G04 APERTURE LIST*
%ADD10C,0.150000*%
%ADD11C,0.120000*%
G04 APERTURE END LIST*
D10*
X54195238Y-49028571D02*
X54052380Y-49076190D01*
X54004761Y-49123809D01*
X53957142Y-49219047D01*
X53957142Y-49361904D01*
X54004761Y-49457142D01*
X54052380Y-49504761D01*
X54147619Y-49552380D01*
X54528571Y-49552380D01*
X54528571Y-48552380D01*
X54195238Y-48552380D01*
X54099999Y-48600000D01*
X54052380Y-48647619D01*
X54004761Y-48742857D01*
X54004761Y-48838095D01*
X54052380Y-48933333D01*
X54099999Y-48980952D01*
X54195238Y-49028571D01*
X54528571Y-49028571D01*
X53099999Y-49552380D02*
X53099999Y-49028571D01*
X53147619Y-48933333D01*
X53242857Y-48885714D01*
X53433333Y-48885714D01*
X53528571Y-48933333D01*
X53099999Y-49504761D02*
X53195238Y-49552380D01*
X53433333Y-49552380D01*
X53528571Y-49504761D01*
X53576190Y-49409523D01*
X53576190Y-49314285D01*
X53528571Y-49219047D01*
X53433333Y-49171428D01*
X53195238Y-49171428D01*
X53099999Y-49123809D01*
X52671428Y-49504761D02*
X52576190Y-49552380D01*
X52385714Y-49552380D01*
X52290476Y-49504761D01*
X52242857Y-49409523D01*
X52242857Y-49361904D01*
X52290476Y-49266666D01*
X52385714Y-49219047D01*
X52528571Y-49219047D01*
X52623809Y-49171428D01*
X52671428Y-49076190D01*
X52671428Y-49028571D01*
X52623809Y-48933333D01*
X52528571Y-48885714D01*
X52385714Y-48885714D01*
X52290476Y-48933333D01*
X51861904Y-49504761D02*
X51766666Y-49552380D01*
X51576190Y-49552380D01*
X51480952Y-49504761D01*
X51433333Y-49409523D01*
X51433333Y-49361904D01*
X51480952Y-49266666D01*
X51576190Y-49219047D01*
X51719047Y-49219047D01*
X51814285Y-49171428D01*
X51861904Y-49076190D01*
X51861904Y-49028571D01*
X51814285Y-48933333D01*
X51719047Y-48885714D01*
X51576190Y-48885714D01*
X51480952Y-48933333D01*
X49719047Y-48600000D02*
X49814285Y-48552380D01*
X49957142Y-48552380D01*
X50099999Y-48600000D01*
X50195238Y-48695238D01*
X50242857Y-48790476D01*
X50290476Y-48980952D01*
X50290476Y-49123809D01*
X50242857Y-49314285D01*
X50195238Y-49409523D01*
X50099999Y-49504761D01*
X49957142Y-49552380D01*
X49861904Y-49552380D01*
X49719047Y-49504761D01*
X49671428Y-49457142D01*
X49671428Y-49123809D01*
X49861904Y-49123809D01*
X48814285Y-48885714D02*
X48814285Y-49552380D01*
X49242857Y-48885714D02*
X49242857Y-49409523D01*
X49195238Y-49504761D01*
X49099999Y-49552380D01*
X48957142Y-49552380D01*
X48861904Y-49504761D01*
X48814285Y-49457142D01*
X48338095Y-49552380D02*
X48338095Y-48885714D01*
X48338095Y-48552380D02*
X48385714Y-48600000D01*
X48338095Y-48647619D01*
X48290476Y-48600000D01*
X48338095Y-48552380D01*
X48338095Y-48647619D01*
X48004761Y-48885714D02*
X47623809Y-48885714D01*
X47861904Y-48552380D02*
X47861904Y-49409523D01*
X47814285Y-49504761D01*
X47719047Y-49552380D01*
X47623809Y-49552380D01*
X46861904Y-49552380D02*
X46861904Y-49028571D01*
X46909523Y-48933333D01*
X47004761Y-48885714D01*
X47195238Y-48885714D01*
X47290476Y-48933333D01*
X46861904Y-49504761D02*
X46957142Y-49552380D01*
X47195238Y-49552380D01*
X47290476Y-49504761D01*
X47338095Y-49409523D01*
X47338095Y-49314285D01*
X47290476Y-49219047D01*
X47195238Y-49171428D01*
X46957142Y-49171428D01*
X46861904Y-49123809D01*
X46385714Y-49552380D02*
X46385714Y-48885714D01*
X46385714Y-49076190D02*
X46338095Y-48980952D01*
X46290476Y-48933333D01*
X46195238Y-48885714D01*
X46099999Y-48885714D01*
X45004761Y-49552380D02*
X45004761Y-48552380D01*
X44623809Y-48552380D01*
X44528571Y-48600000D01*
X44480952Y-48647619D01*
X44433333Y-48742857D01*
X44433333Y-48885714D01*
X44480952Y-48980952D01*
X44528571Y-49028571D01*
X44623809Y-49076190D01*
X45004761Y-49076190D01*
X44004761Y-49552380D02*
X44004761Y-48885714D01*
X44004761Y-49076190D02*
X43957142Y-48980952D01*
X43909523Y-48933333D01*
X43814285Y-48885714D01*
X43719047Y-48885714D01*
X43004761Y-49504761D02*
X43099999Y-49552380D01*
X43290476Y-49552380D01*
X43385714Y-49504761D01*
X43433333Y-49409523D01*
X43433333Y-49028571D01*
X43385714Y-48933333D01*
X43290476Y-48885714D01*
X43099999Y-48885714D01*
X43004761Y-48933333D01*
X42957142Y-49028571D01*
X42957142Y-49123809D01*
X43433333Y-49219047D01*
X42099999Y-49552380D02*
X42099999Y-49028571D01*
X42147619Y-48933333D01*
X42242857Y-48885714D01*
X42433333Y-48885714D01*
X42528571Y-48933333D01*
X42099999Y-49504761D02*
X42195238Y-49552380D01*
X42433333Y-49552380D01*
X42528571Y-49504761D01*
X42576190Y-49409523D01*
X42576190Y-49314285D01*
X42528571Y-49219047D01*
X42433333Y-49171428D01*
X42195238Y-49171428D01*
X42099999Y-49123809D01*
X41623809Y-49552380D02*
X41623809Y-48885714D01*
X41623809Y-48980952D02*
X41576190Y-48933333D01*
X41480952Y-48885714D01*
X41338095Y-48885714D01*
X41242857Y-48933333D01*
X41195238Y-49028571D01*
X41195238Y-49552380D01*
X41195238Y-49028571D02*
X41147619Y-48933333D01*
X41052380Y-48885714D01*
X40909523Y-48885714D01*
X40814285Y-48933333D01*
X40766666Y-49028571D01*
X40766666Y-49552380D01*
X40290476Y-48885714D02*
X40290476Y-49885714D01*
X40290476Y-48933333D02*
X40195238Y-48885714D01*
X40004761Y-48885714D01*
X39909523Y-48933333D01*
X39861904Y-48980952D01*
X39814285Y-49076190D01*
X39814285Y-49361904D01*
X39861904Y-49457142D01*
X39909523Y-49504761D01*
X40004761Y-49552380D01*
X40195238Y-49552380D01*
X40290476Y-49504761D01*
X38623809Y-49171428D02*
X37861904Y-49171428D01*
X36338095Y-48552380D02*
X36338095Y-49266666D01*
X36385714Y-49409523D01*
X36480952Y-49504761D01*
X36623809Y-49552380D01*
X36719047Y-49552380D01*
X35433333Y-49552380D02*
X35433333Y-49028571D01*
X35480952Y-48933333D01*
X35576190Y-48885714D01*
X35766666Y-48885714D01*
X35861904Y-48933333D01*
X35433333Y-49504761D02*
X35528571Y-49552380D01*
X35766666Y-49552380D01*
X35861904Y-49504761D01*
X35909523Y-49409523D01*
X35909523Y-49314285D01*
X35861904Y-49219047D01*
X35766666Y-49171428D01*
X35528571Y-49171428D01*
X35433333Y-49123809D01*
X34957142Y-49552380D02*
X34957142Y-48885714D01*
X34957142Y-48980952D02*
X34909523Y-48933333D01*
X34814285Y-48885714D01*
X34671428Y-48885714D01*
X34576190Y-48933333D01*
X34528571Y-49028571D01*
X34528571Y-49552380D01*
X34528571Y-49028571D02*
X34480952Y-48933333D01*
X34385714Y-48885714D01*
X34242857Y-48885714D01*
X34147619Y-48933333D01*
X34099999Y-49028571D01*
X34099999Y-49552380D01*
X33242857Y-49504761D02*
X33338095Y-49552380D01*
X33528571Y-49552380D01*
X33623809Y-49504761D01*
X33671428Y-49409523D01*
X33671428Y-49028571D01*
X33623809Y-48933333D01*
X33528571Y-48885714D01*
X33338095Y-48885714D01*
X33242857Y-48933333D01*
X33195238Y-49028571D01*
X33195238Y-49123809D01*
X33671428Y-49219047D01*
X32814285Y-49504761D02*
X32719047Y-49552380D01*
X32528571Y-49552380D01*
X32433333Y-49504761D01*
X32385714Y-49409523D01*
X32385714Y-49361904D01*
X32433333Y-49266666D01*
X32528571Y-49219047D01*
X32671428Y-49219047D01*
X32766666Y-49171428D01*
X32814285Y-49076190D01*
X32814285Y-49028571D01*
X32766666Y-48933333D01*
X32671428Y-48885714D01*
X32528571Y-48885714D01*
X32433333Y-48933333D01*
X31290476Y-48552380D02*
X31052380Y-49552380D01*
X30861904Y-48838095D01*
X30671428Y-49552380D01*
X30433333Y-48552380D01*
X29623809Y-49552380D02*
X29623809Y-49028571D01*
X29671428Y-48933333D01*
X29766666Y-48885714D01*
X29957142Y-48885714D01*
X30052380Y-48933333D01*
X29623809Y-49504761D02*
X29719047Y-49552380D01*
X29957142Y-49552380D01*
X30052380Y-49504761D01*
X30099999Y-49409523D01*
X30099999Y-49314285D01*
X30052380Y-49219047D01*
X29957142Y-49171428D01*
X29719047Y-49171428D01*
X29623809Y-49123809D01*
X29147619Y-48885714D02*
X29147619Y-49552380D01*
X29147619Y-48980952D02*
X29099999Y-48933333D01*
X29004761Y-48885714D01*
X28861904Y-48885714D01*
X28766666Y-48933333D01*
X28719047Y-49028571D01*
X28719047Y-49552380D01*
X27814285Y-48885714D02*
X27814285Y-49695238D01*
X27861904Y-49790476D01*
X27909523Y-49838095D01*
X28004761Y-49885714D01*
X28147619Y-49885714D01*
X28242857Y-49838095D01*
X27814285Y-49504761D02*
X27909523Y-49552380D01*
X28099999Y-49552380D01*
X28195238Y-49504761D01*
X28242857Y-49457142D01*
X28290476Y-49361904D01*
X28290476Y-49076190D01*
X28242857Y-48980952D01*
X28195238Y-48933333D01*
X28099999Y-48885714D01*
X27909523Y-48885714D01*
X27814285Y-48933333D01*
X26623809Y-48647619D02*
X26576190Y-48600000D01*
X26480952Y-48552380D01*
X26242857Y-48552380D01*
X26147619Y-48600000D01*
X26100000Y-48647619D01*
X26052380Y-48742857D01*
X26052380Y-48838095D01*
X26100000Y-48980952D01*
X26671428Y-49552380D01*
X26052380Y-49552380D01*
X25433333Y-48552380D02*
X25338095Y-48552380D01*
X25242857Y-48600000D01*
X25195238Y-48647619D01*
X25147619Y-48742857D01*
X25100000Y-48933333D01*
X25100000Y-49171428D01*
X25147619Y-49361904D01*
X25195238Y-49457142D01*
X25242857Y-49504761D01*
X25338095Y-49552380D01*
X25433333Y-49552380D01*
X25528571Y-49504761D01*
X25576190Y-49457142D01*
X25623809Y-49361904D01*
X25671428Y-49171428D01*
X25671428Y-48933333D01*
X25623809Y-48742857D01*
X25576190Y-48647619D01*
X25528571Y-48600000D01*
X25433333Y-48552380D01*
X24719047Y-48647619D02*
X24671428Y-48600000D01*
X24576190Y-48552380D01*
X24338095Y-48552380D01*
X24242857Y-48600000D01*
X24195238Y-48647619D01*
X24147619Y-48742857D01*
X24147619Y-48838095D01*
X24195238Y-48980952D01*
X24766666Y-49552380D01*
X24147619Y-49552380D01*
X23528571Y-48552380D02*
X23433333Y-48552380D01*
X23338095Y-48600000D01*
X23290476Y-48647619D01*
X23242857Y-48742857D01*
X23195238Y-48933333D01*
X23195238Y-49171428D01*
X23242857Y-49361904D01*
X23290476Y-49457142D01*
X23338095Y-49504761D01*
X23433333Y-49552380D01*
X23528571Y-49552380D01*
X23623809Y-49504761D01*
X23671428Y-49457142D01*
X23719047Y-49361904D01*
X23766666Y-49171428D01*
X23766666Y-48933333D01*
X23719047Y-48742857D01*
X23671428Y-48647619D01*
X23623809Y-48600000D01*
X23528571Y-48552380D01*
X21719047Y-49933333D02*
X21766666Y-49885714D01*
X21861904Y-49742857D01*
X21909523Y-49647619D01*
X21957142Y-49504761D01*
X22004761Y-49266666D01*
X22004761Y-49076190D01*
X21957142Y-48838095D01*
X21909523Y-48695238D01*
X21861904Y-48600000D01*
X21766666Y-48457142D01*
X21719047Y-48409523D01*
X21338095Y-49552380D02*
X21338095Y-48552380D01*
X21338095Y-48933333D02*
X21242857Y-48885714D01*
X21052380Y-48885714D01*
X20957142Y-48933333D01*
X20909523Y-48980952D01*
X20861904Y-49076190D01*
X20861904Y-49361904D01*
X20909523Y-49457142D01*
X20957142Y-49504761D01*
X21052380Y-49552380D01*
X21242857Y-49552380D01*
X21338095Y-49504761D01*
X20004761Y-49552380D02*
X20004761Y-49028571D01*
X20052380Y-48933333D01*
X20147619Y-48885714D01*
X20338095Y-48885714D01*
X20433333Y-48933333D01*
X20004761Y-49504761D02*
X20100000Y-49552380D01*
X20338095Y-49552380D01*
X20433333Y-49504761D01*
X20480952Y-49409523D01*
X20480952Y-49314285D01*
X20433333Y-49219047D01*
X20338095Y-49171428D01*
X20100000Y-49171428D01*
X20004761Y-49123809D01*
X19576190Y-49504761D02*
X19480952Y-49552380D01*
X19290476Y-49552380D01*
X19195238Y-49504761D01*
X19147619Y-49409523D01*
X19147619Y-49361904D01*
X19195238Y-49266666D01*
X19290476Y-49219047D01*
X19433333Y-49219047D01*
X19528571Y-49171428D01*
X19576190Y-49076190D01*
X19576190Y-49028571D01*
X19528571Y-48933333D01*
X19433333Y-48885714D01*
X19290476Y-48885714D01*
X19195238Y-48933333D01*
X18338095Y-49504761D02*
X18433333Y-49552380D01*
X18623809Y-49552380D01*
X18719047Y-49504761D01*
X18766666Y-49409523D01*
X18766666Y-49028571D01*
X18719047Y-48933333D01*
X18623809Y-48885714D01*
X18433333Y-48885714D01*
X18338095Y-48933333D01*
X18290476Y-49028571D01*
X18290476Y-49123809D01*
X18766666Y-49219047D01*
X17433333Y-49552380D02*
X17433333Y-48552380D01*
X17433333Y-49504761D02*
X17528571Y-49552380D01*
X17719047Y-49552380D01*
X17814285Y-49504761D01*
X17861904Y-49457142D01*
X17909523Y-49361904D01*
X17909523Y-49076190D01*
X17861904Y-48980952D01*
X17814285Y-48933333D01*
X17719047Y-48885714D01*
X17528571Y-48885714D01*
X17433333Y-48933333D01*
X16052380Y-49552380D02*
X16147619Y-49504761D01*
X16195238Y-49457142D01*
X16242857Y-49361904D01*
X16242857Y-49076190D01*
X16195238Y-48980952D01*
X16147619Y-48933333D01*
X16052380Y-48885714D01*
X15909523Y-48885714D01*
X15814285Y-48933333D01*
X15766666Y-48980952D01*
X15719047Y-49076190D01*
X15719047Y-49361904D01*
X15766666Y-49457142D01*
X15814285Y-49504761D01*
X15909523Y-49552380D01*
X16052380Y-49552380D01*
X15433333Y-48885714D02*
X15052380Y-48885714D01*
X15290476Y-49552380D02*
X15290476Y-48695238D01*
X15242857Y-48600000D01*
X15147619Y-48552380D01*
X15052380Y-48552380D01*
X14861904Y-48885714D02*
X14480952Y-48885714D01*
X14719047Y-49552380D02*
X14719047Y-48695238D01*
X14671428Y-48600000D01*
X14576190Y-48552380D01*
X14480952Y-48552380D01*
X13385714Y-49028571D02*
X13052380Y-49028571D01*
X12909523Y-49552380D02*
X13385714Y-49552380D01*
X13385714Y-48552380D01*
X12909523Y-48552380D01*
X12528571Y-49504761D02*
X12385714Y-49552380D01*
X12147619Y-49552380D01*
X12052380Y-49504761D01*
X12004761Y-49457142D01*
X11957142Y-49361904D01*
X11957142Y-49266666D01*
X12004761Y-49171428D01*
X12052380Y-49123809D01*
X12147619Y-49076190D01*
X12338095Y-49028571D01*
X12433333Y-48980952D01*
X12480952Y-48933333D01*
X12528571Y-48838095D01*
X12528571Y-48742857D01*
X12480952Y-48647619D01*
X12433333Y-48600000D01*
X12338095Y-48552380D01*
X12100000Y-48552380D01*
X11957142Y-48600000D01*
X11528571Y-49552380D02*
X11528571Y-48552380D01*
X11147619Y-48552380D01*
X11052380Y-48600000D01*
X11004761Y-48647619D01*
X10957142Y-48742857D01*
X10957142Y-48885714D01*
X11004761Y-48980952D01*
X11052380Y-49028571D01*
X11147619Y-49076190D01*
X11528571Y-49076190D01*
X9766666Y-49552380D02*
X9766666Y-48552380D01*
X9385714Y-48552380D01*
X9290476Y-48600000D01*
X9242857Y-48647619D01*
X9195238Y-48742857D01*
X9195238Y-48885714D01*
X9242857Y-48980952D01*
X9290476Y-49028571D01*
X9385714Y-49076190D01*
X9766666Y-49076190D01*
X8766666Y-49552380D02*
X8766666Y-48885714D01*
X8766666Y-49076190D02*
X8719047Y-48980952D01*
X8671428Y-48933333D01*
X8576190Y-48885714D01*
X8480952Y-48885714D01*
X8004761Y-49552380D02*
X8100000Y-49504761D01*
X8147619Y-49457142D01*
X8195238Y-49361904D01*
X8195238Y-49076190D01*
X8147619Y-48980952D01*
X8100000Y-48933333D01*
X8004761Y-48885714D01*
X7861904Y-48885714D01*
X7766666Y-48933333D01*
X7719047Y-48980952D01*
X7671428Y-49076190D01*
X7671428Y-49361904D01*
X7719047Y-49457142D01*
X7766666Y-49504761D01*
X7861904Y-49552380D01*
X8004761Y-49552380D01*
X7242857Y-48885714D02*
X7242857Y-49742857D01*
X7290476Y-49838095D01*
X7385714Y-49885714D01*
X7433333Y-49885714D01*
X7242857Y-48552380D02*
X7290476Y-48600000D01*
X7242857Y-48647619D01*
X7195238Y-48600000D01*
X7242857Y-48552380D01*
X7242857Y-48647619D01*
X6385714Y-49504761D02*
X6480952Y-49552380D01*
X6671428Y-49552380D01*
X6766666Y-49504761D01*
X6814285Y-49409523D01*
X6814285Y-49028571D01*
X6766666Y-48933333D01*
X6671428Y-48885714D01*
X6480952Y-48885714D01*
X6385714Y-48933333D01*
X6338095Y-49028571D01*
X6338095Y-49123809D01*
X6814285Y-49219047D01*
X5480952Y-49504761D02*
X5576190Y-49552380D01*
X5766666Y-49552380D01*
X5861904Y-49504761D01*
X5909523Y-49457142D01*
X5957142Y-49361904D01*
X5957142Y-49076190D01*
X5909523Y-48980952D01*
X5861904Y-48933333D01*
X5766666Y-48885714D01*
X5576190Y-48885714D01*
X5480952Y-48933333D01*
X5195238Y-48885714D02*
X4814285Y-48885714D01*
X5052380Y-48552380D02*
X5052380Y-49409523D01*
X5004761Y-49504761D01*
X4909523Y-49552380D01*
X4814285Y-49552380D01*
X3195238Y-49552380D02*
X3766666Y-49552380D01*
X3480952Y-49552380D02*
X3480952Y-48552380D01*
X3576190Y-48695238D01*
X3671428Y-48790476D01*
X3766666Y-48838095D01*
X2290476Y-48552380D02*
X2766666Y-48552380D01*
X2814285Y-49028571D01*
X2766666Y-48980952D01*
X2671428Y-48933333D01*
X2433333Y-48933333D01*
X2338095Y-48980952D01*
X2290476Y-49028571D01*
X2242857Y-49123809D01*
X2242857Y-49361904D01*
X2290476Y-49457142D01*
X2338095Y-49504761D01*
X2433333Y-49552380D01*
X2671428Y-49552380D01*
X2766666Y-49504761D01*
X2814285Y-49457142D01*
X1861904Y-48647619D02*
X1814285Y-48600000D01*
X1719047Y-48552380D01*
X1480952Y-48552380D01*
X1385714Y-48600000D01*
X1338095Y-48647619D01*
X1290476Y-48742857D01*
X1290476Y-48838095D01*
X1338095Y-48980952D01*
X1909523Y-49552380D01*
X1290476Y-49552380D01*
X957142Y-49933333D02*
X909523Y-49885714D01*
X814285Y-49742857D01*
X766666Y-49647619D01*
X719047Y-49504761D01*
X671428Y-49266666D01*
X671428Y-49076190D01*
X719047Y-48838095D01*
X766666Y-48695238D01*
X814285Y-48600000D01*
X909523Y-48457142D01*
X957142Y-48409523D01*
D11*
X83775000Y-82450000D02*
X87675000Y-82450000D01*
X83775000Y-80450000D02*
X87675000Y-80450000D01*
X83775000Y-82450000D02*
X83775000Y-80450000D01*
X88675000Y-82450000D02*
X92575000Y-82450000D01*
X88675000Y-80450000D02*
X92575000Y-80450000D01*
X88675000Y-82450000D02*
X88675000Y-80450000D01*
X43000000Y-76750000D02*
X39100000Y-76750000D01*
X43000000Y-78750000D02*
X39100000Y-78750000D01*
X43000000Y-76750000D02*
X43000000Y-78750000D01*
X85235000Y-90488748D02*
X85235000Y-91011252D01*
X83815000Y-90488748D02*
X83815000Y-91011252D01*
X10990000Y-76961252D02*
X10990000Y-76438748D01*
X12410000Y-76961252D02*
X12410000Y-76438748D01*
X7890000Y-83261252D02*
X7890000Y-82738748D01*
X9310000Y-83261252D02*
X9310000Y-82738748D01*
X40090000Y-84161252D02*
X40090000Y-83638748D01*
X41510000Y-84161252D02*
X41510000Y-83638748D01*
X38410000Y-91238748D02*
X38410000Y-91761252D01*
X36990000Y-91238748D02*
X36990000Y-91761252D01*
X87535000Y-89088748D02*
X87535000Y-89611252D01*
X86115000Y-89088748D02*
X86115000Y-89611252D01*
X82615000Y-96711252D02*
X82615000Y-96188748D01*
X84035000Y-96711252D02*
X84035000Y-96188748D01*
X67010000Y-89118748D02*
X67010000Y-89641252D01*
X65590000Y-89118748D02*
X65590000Y-89641252D01*
X53878748Y-64800000D02*
X54401252Y-64800000D01*
X53878748Y-63380000D02*
X54401252Y-63380000D01*
X50750000Y-72428748D02*
X50750000Y-72951252D01*
X52170000Y-72428748D02*
X52170000Y-72951252D01*
X79173748Y-64900000D02*
X79696252Y-64900000D01*
X79173748Y-63480000D02*
X79696252Y-63480000D01*
X69070000Y-66151252D02*
X69070000Y-65628748D01*
X67650000Y-66151252D02*
X67650000Y-65628748D01*
X62088748Y-89290000D02*
X62611252Y-89290000D01*
X62088748Y-90710000D02*
X62611252Y-90710000D01*
X46510000Y-52368748D02*
X46510000Y-52891252D01*
X45090000Y-52368748D02*
X45090000Y-52891252D01*
X29011252Y-65370000D02*
X28488748Y-65370000D01*
X29011252Y-66790000D02*
X28488748Y-66790000D01*
X20860000Y-63118748D02*
X20860000Y-63641252D01*
X19440000Y-63118748D02*
X19440000Y-63641252D01*
X5290000Y-91461252D02*
X5290000Y-90938748D01*
X6710000Y-91461252D02*
X6710000Y-90938748D01*
X6710000Y-87138748D02*
X6710000Y-87661252D01*
X5290000Y-87138748D02*
X5290000Y-87661252D01*
X74960000Y-94238748D02*
X74960000Y-94761252D01*
X73540000Y-94238748D02*
X73540000Y-94761252D01*
X2790000Y-77761252D02*
X2790000Y-77238748D01*
X4210000Y-77761252D02*
X4210000Y-77238748D01*
X67811252Y-95260000D02*
X67288748Y-95260000D01*
X67811252Y-93840000D02*
X67288748Y-93840000D01*
X69338748Y-86890000D02*
X69861252Y-86890000D01*
X69338748Y-88310000D02*
X69861252Y-88310000D01*
X67890000Y-90761252D02*
X67890000Y-90238748D01*
X69310000Y-90761252D02*
X69310000Y-90238748D01*
X73440000Y-90761252D02*
X73440000Y-90238748D01*
X74860000Y-90761252D02*
X74860000Y-90238748D01*
X39890000Y-96761252D02*
X39890000Y-96238748D01*
X41310000Y-96761252D02*
X41310000Y-96238748D01*
X32261252Y-84310000D02*
X31738748Y-84310000D01*
X32261252Y-82890000D02*
X31738748Y-82890000D01*
X8810000Y-92538748D02*
X8810000Y-93061252D01*
X7390000Y-92538748D02*
X7390000Y-93061252D01*
X77938748Y-88690000D02*
X78461252Y-88690000D01*
X77938748Y-90110000D02*
X78461252Y-90110000D01*
X48738748Y-87190000D02*
X49261252Y-87190000D01*
X48738748Y-88610000D02*
X49261252Y-88610000D01*
X16090000Y-83361252D02*
X16090000Y-82838748D01*
X17510000Y-83361252D02*
X17510000Y-82838748D01*
X10990000Y-80861252D02*
X10990000Y-80338748D01*
X12410000Y-80861252D02*
X12410000Y-80338748D01*
X87535000Y-93611252D02*
X87535000Y-93088748D01*
X86115000Y-93611252D02*
X86115000Y-93088748D01*
X92686252Y-86860000D02*
X92163748Y-86860000D01*
X92686252Y-85440000D02*
X92163748Y-85440000D01*
X85436252Y-86860000D02*
X84913748Y-86860000D01*
X85436252Y-85440000D02*
X84913748Y-85440000D01*
X21010000Y-54818748D02*
X21010000Y-55341252D01*
X19590000Y-54818748D02*
X19590000Y-55341252D01*
X40360000Y-62547936D02*
X40360000Y-63752064D01*
X38540000Y-62547936D02*
X38540000Y-63752064D01*
X99485000Y-77963748D02*
X99485000Y-78486252D01*
X98065000Y-77963748D02*
X98065000Y-78486252D01*
X91860000Y-70585436D02*
X91860000Y-71789564D01*
X90040000Y-70585436D02*
X90040000Y-71789564D01*
X94310000Y-70597936D02*
X94310000Y-71802064D01*
X92490000Y-70597936D02*
X92490000Y-71802064D01*
X62631252Y-87700000D02*
X62108748Y-87700000D01*
X62631252Y-86280000D02*
X62108748Y-86280000D01*
X58591252Y-87710000D02*
X58068748Y-87710000D01*
X58591252Y-86290000D02*
X58068748Y-86290000D01*
X36310000Y-52318748D02*
X36310000Y-52841252D01*
X34890000Y-52318748D02*
X34890000Y-52841252D01*
X31310000Y-51918748D02*
X31310000Y-52441252D01*
X29890000Y-51918748D02*
X29890000Y-52441252D01*
X56911252Y-83435000D02*
X56388748Y-83435000D01*
X56911252Y-82015000D02*
X56388748Y-82015000D01*
X26911252Y-63390000D02*
X26388748Y-63390000D01*
X26911252Y-61970000D02*
X26388748Y-61970000D01*
X54270000Y-70851252D02*
X54270000Y-70328748D01*
X52850000Y-70851252D02*
X52850000Y-70328748D01*
X61861252Y-99460000D02*
X61338748Y-99460000D01*
X61861252Y-98040000D02*
X61338748Y-98040000D01*
X30514564Y-71990000D02*
X29310436Y-71990000D01*
X30514564Y-70170000D02*
X29310436Y-70170000D01*
X25402064Y-71990000D02*
X24197936Y-71990000D01*
X25402064Y-70170000D02*
X24197936Y-70170000D01*
X67598748Y-69700000D02*
X68121252Y-69700000D01*
X67598748Y-68280000D02*
X68121252Y-68280000D01*
X72670000Y-56951252D02*
X72670000Y-56428748D01*
X71250000Y-56951252D02*
X71250000Y-56428748D01*
X80221252Y-70880000D02*
X79698748Y-70880000D01*
X80221252Y-72300000D02*
X79698748Y-72300000D01*
X67998748Y-71900000D02*
X68521252Y-71900000D01*
X67998748Y-70480000D02*
X68521252Y-70480000D01*
X80150000Y-67428748D02*
X80150000Y-67951252D01*
X81570000Y-67428748D02*
X81570000Y-67951252D01*
X79370000Y-67951252D02*
X79370000Y-67428748D01*
X77950000Y-67951252D02*
X77950000Y-67428748D01*
X33910000Y-96338748D02*
X33910000Y-96861252D01*
X32490000Y-96338748D02*
X32490000Y-96861252D01*
X20661252Y-71790000D02*
X20138748Y-71790000D01*
X20661252Y-70370000D02*
X20138748Y-70370000D01*
X23961252Y-65370000D02*
X23438748Y-65370000D01*
X23961252Y-66790000D02*
X23438748Y-66790000D01*
X41810000Y-88938748D02*
X41810000Y-89461252D01*
X40390000Y-88938748D02*
X40390000Y-89461252D01*
X49710000Y-90838748D02*
X49710000Y-91361252D01*
X48290000Y-90838748D02*
X48290000Y-91361252D01*
X50161252Y-93390000D02*
X49638748Y-93390000D01*
X50161252Y-94810000D02*
X49638748Y-94810000D01*
D10*
X86538095Y-80052380D02*
X86538095Y-79052380D01*
X86300000Y-79052380D01*
X86157142Y-79100000D01*
X86061904Y-79195238D01*
X86014285Y-79290476D01*
X85966666Y-79480952D01*
X85966666Y-79623809D01*
X86014285Y-79814285D01*
X86061904Y-79909523D01*
X86157142Y-80004761D01*
X86300000Y-80052380D01*
X86538095Y-80052380D01*
X85109523Y-79052380D02*
X85300000Y-79052380D01*
X85395238Y-79100000D01*
X85442857Y-79147619D01*
X85538095Y-79290476D01*
X85585714Y-79480952D01*
X85585714Y-79861904D01*
X85538095Y-79957142D01*
X85490476Y-80004761D01*
X85395238Y-80052380D01*
X85204761Y-80052380D01*
X85109523Y-80004761D01*
X85061904Y-79957142D01*
X85014285Y-79861904D01*
X85014285Y-79623809D01*
X85061904Y-79528571D01*
X85109523Y-79480952D01*
X85204761Y-79433333D01*
X85395238Y-79433333D01*
X85490476Y-79480952D01*
X85538095Y-79528571D01*
X85585714Y-79623809D01*
X91538095Y-80052380D02*
X91538095Y-79052380D01*
X91300000Y-79052380D01*
X91157142Y-79100000D01*
X91061904Y-79195238D01*
X91014285Y-79290476D01*
X90966666Y-79480952D01*
X90966666Y-79623809D01*
X91014285Y-79814285D01*
X91061904Y-79909523D01*
X91157142Y-80004761D01*
X91300000Y-80052380D01*
X91538095Y-80052380D01*
X90061904Y-79052380D02*
X90538095Y-79052380D01*
X90585714Y-79528571D01*
X90538095Y-79480952D01*
X90442857Y-79433333D01*
X90204761Y-79433333D01*
X90109523Y-79480952D01*
X90061904Y-79528571D01*
X90014285Y-79623809D01*
X90014285Y-79861904D01*
X90061904Y-79957142D01*
X90109523Y-80004761D01*
X90204761Y-80052380D01*
X90442857Y-80052380D01*
X90538095Y-80004761D01*
X90585714Y-79957142D01*
X41488095Y-76202380D02*
X41488095Y-75202380D01*
X41250000Y-75202380D01*
X41107142Y-75250000D01*
X41011904Y-75345238D01*
X40964285Y-75440476D01*
X40916666Y-75630952D01*
X40916666Y-75773809D01*
X40964285Y-75964285D01*
X41011904Y-76059523D01*
X41107142Y-76154761D01*
X41250000Y-76202380D01*
X41488095Y-76202380D01*
X40535714Y-75297619D02*
X40488095Y-75250000D01*
X40392857Y-75202380D01*
X40154761Y-75202380D01*
X40059523Y-75250000D01*
X40011904Y-75297619D01*
X39964285Y-75392857D01*
X39964285Y-75488095D01*
X40011904Y-75630952D01*
X40583333Y-76202380D01*
X39964285Y-76202380D01*
X83327380Y-90107142D02*
X82851190Y-89773809D01*
X83327380Y-89535714D02*
X82327380Y-89535714D01*
X82327380Y-89916666D01*
X82375000Y-90011904D01*
X82422619Y-90059523D01*
X82517857Y-90107142D01*
X82660714Y-90107142D01*
X82755952Y-90059523D01*
X82803571Y-90011904D01*
X82851190Y-89916666D01*
X82851190Y-89535714D01*
X83327380Y-91059523D02*
X83327380Y-90488095D01*
X83327380Y-90773809D02*
X82327380Y-90773809D01*
X82470238Y-90678571D01*
X82565476Y-90583333D01*
X82613095Y-90488095D01*
X83327380Y-91535714D02*
X83327380Y-91726190D01*
X83279761Y-91821428D01*
X83232142Y-91869047D01*
X83089285Y-91964285D01*
X82898809Y-92011904D01*
X82517857Y-92011904D01*
X82422619Y-91964285D01*
X82375000Y-91916666D01*
X82327380Y-91821428D01*
X82327380Y-91630952D01*
X82375000Y-91535714D01*
X82422619Y-91488095D01*
X82517857Y-91440476D01*
X82755952Y-91440476D01*
X82851190Y-91488095D01*
X82898809Y-91535714D01*
X82946428Y-91630952D01*
X82946428Y-91821428D01*
X82898809Y-91916666D01*
X82851190Y-91964285D01*
X82755952Y-92011904D01*
X10257142Y-75657142D02*
X10304761Y-75609523D01*
X10352380Y-75466666D01*
X10352380Y-75371428D01*
X10304761Y-75228571D01*
X10209523Y-75133333D01*
X10114285Y-75085714D01*
X9923809Y-75038095D01*
X9780952Y-75038095D01*
X9590476Y-75085714D01*
X9495238Y-75133333D01*
X9400000Y-75228571D01*
X9352380Y-75371428D01*
X9352380Y-75466666D01*
X9400000Y-75609523D01*
X9447619Y-75657142D01*
X10352380Y-76609523D02*
X10352380Y-76038095D01*
X10352380Y-76323809D02*
X9352380Y-76323809D01*
X9495238Y-76228571D01*
X9590476Y-76133333D01*
X9638095Y-76038095D01*
X9447619Y-76990476D02*
X9400000Y-77038095D01*
X9352380Y-77133333D01*
X9352380Y-77371428D01*
X9400000Y-77466666D01*
X9447619Y-77514285D01*
X9542857Y-77561904D01*
X9638095Y-77561904D01*
X9780952Y-77514285D01*
X10352380Y-76942857D01*
X10352380Y-77561904D01*
X10607142Y-82357142D02*
X10654761Y-82309523D01*
X10702380Y-82166666D01*
X10702380Y-82071428D01*
X10654761Y-81928571D01*
X10559523Y-81833333D01*
X10464285Y-81785714D01*
X10273809Y-81738095D01*
X10130952Y-81738095D01*
X9940476Y-81785714D01*
X9845238Y-81833333D01*
X9750000Y-81928571D01*
X9702380Y-82071428D01*
X9702380Y-82166666D01*
X9750000Y-82309523D01*
X9797619Y-82357142D01*
X10702380Y-83309523D02*
X10702380Y-82738095D01*
X10702380Y-83023809D02*
X9702380Y-83023809D01*
X9845238Y-82928571D01*
X9940476Y-82833333D01*
X9988095Y-82738095D01*
X9702380Y-83642857D02*
X9702380Y-84261904D01*
X10083333Y-83928571D01*
X10083333Y-84071428D01*
X10130952Y-84166666D01*
X10178571Y-84214285D01*
X10273809Y-84261904D01*
X10511904Y-84261904D01*
X10607142Y-84214285D01*
X10654761Y-84166666D01*
X10702380Y-84071428D01*
X10702380Y-83785714D01*
X10654761Y-83690476D01*
X10607142Y-83642857D01*
X42807142Y-83257142D02*
X42854761Y-83209523D01*
X42902380Y-83066666D01*
X42902380Y-82971428D01*
X42854761Y-82828571D01*
X42759523Y-82733333D01*
X42664285Y-82685714D01*
X42473809Y-82638095D01*
X42330952Y-82638095D01*
X42140476Y-82685714D01*
X42045238Y-82733333D01*
X41950000Y-82828571D01*
X41902380Y-82971428D01*
X41902380Y-83066666D01*
X41950000Y-83209523D01*
X41997619Y-83257142D01*
X42902380Y-84209523D02*
X42902380Y-83638095D01*
X42902380Y-83923809D02*
X41902380Y-83923809D01*
X42045238Y-83828571D01*
X42140476Y-83733333D01*
X42188095Y-83638095D01*
X41902380Y-85114285D02*
X41902380Y-84638095D01*
X42378571Y-84590476D01*
X42330952Y-84638095D01*
X42283333Y-84733333D01*
X42283333Y-84971428D01*
X42330952Y-85066666D01*
X42378571Y-85114285D01*
X42473809Y-85161904D01*
X42711904Y-85161904D01*
X42807142Y-85114285D01*
X42854761Y-85066666D01*
X42902380Y-84971428D01*
X42902380Y-84733333D01*
X42854761Y-84638095D01*
X42807142Y-84590476D01*
X37957142Y-87457142D02*
X38004761Y-87409523D01*
X38052380Y-87266666D01*
X38052380Y-87171428D01*
X38004761Y-87028571D01*
X37909523Y-86933333D01*
X37814285Y-86885714D01*
X37623809Y-86838095D01*
X37480952Y-86838095D01*
X37290476Y-86885714D01*
X37195238Y-86933333D01*
X37100000Y-87028571D01*
X37052380Y-87171428D01*
X37052380Y-87266666D01*
X37100000Y-87409523D01*
X37147619Y-87457142D01*
X38052380Y-88409523D02*
X38052380Y-87838095D01*
X38052380Y-88123809D02*
X37052380Y-88123809D01*
X37195238Y-88028571D01*
X37290476Y-87933333D01*
X37338095Y-87838095D01*
X37052380Y-89266666D02*
X37052380Y-89076190D01*
X37100000Y-88980952D01*
X37147619Y-88933333D01*
X37290476Y-88838095D01*
X37480952Y-88790476D01*
X37861904Y-88790476D01*
X37957142Y-88838095D01*
X38004761Y-88885714D01*
X38052380Y-88980952D01*
X38052380Y-89171428D01*
X38004761Y-89266666D01*
X37957142Y-89314285D01*
X37861904Y-89361904D01*
X37623809Y-89361904D01*
X37528571Y-89314285D01*
X37480952Y-89266666D01*
X37433333Y-89171428D01*
X37433333Y-88980952D01*
X37480952Y-88885714D01*
X37528571Y-88838095D01*
X37623809Y-88790476D01*
X88857142Y-86657142D02*
X88904761Y-86609523D01*
X88952380Y-86466666D01*
X88952380Y-86371428D01*
X88904761Y-86228571D01*
X88809523Y-86133333D01*
X88714285Y-86085714D01*
X88523809Y-86038095D01*
X88380952Y-86038095D01*
X88190476Y-86085714D01*
X88095238Y-86133333D01*
X88000000Y-86228571D01*
X87952380Y-86371428D01*
X87952380Y-86466666D01*
X88000000Y-86609523D01*
X88047619Y-86657142D01*
X88952380Y-87609523D02*
X88952380Y-87038095D01*
X88952380Y-87323809D02*
X87952380Y-87323809D01*
X88095238Y-87228571D01*
X88190476Y-87133333D01*
X88238095Y-87038095D01*
X88380952Y-88180952D02*
X88333333Y-88085714D01*
X88285714Y-88038095D01*
X88190476Y-87990476D01*
X88142857Y-87990476D01*
X88047619Y-88038095D01*
X88000000Y-88085714D01*
X87952380Y-88180952D01*
X87952380Y-88371428D01*
X88000000Y-88466666D01*
X88047619Y-88514285D01*
X88142857Y-88561904D01*
X88190476Y-88561904D01*
X88285714Y-88514285D01*
X88333333Y-88466666D01*
X88380952Y-88371428D01*
X88380952Y-88180952D01*
X88428571Y-88085714D01*
X88476190Y-88038095D01*
X88571428Y-87990476D01*
X88761904Y-87990476D01*
X88857142Y-88038095D01*
X88904761Y-88085714D01*
X88952380Y-88180952D01*
X88952380Y-88371428D01*
X88904761Y-88466666D01*
X88857142Y-88514285D01*
X88761904Y-88561904D01*
X88571428Y-88561904D01*
X88476190Y-88514285D01*
X88428571Y-88466666D01*
X88380952Y-88371428D01*
X85332142Y-95807142D02*
X85379761Y-95759523D01*
X85427380Y-95616666D01*
X85427380Y-95521428D01*
X85379761Y-95378571D01*
X85284523Y-95283333D01*
X85189285Y-95235714D01*
X84998809Y-95188095D01*
X84855952Y-95188095D01*
X84665476Y-95235714D01*
X84570238Y-95283333D01*
X84475000Y-95378571D01*
X84427380Y-95521428D01*
X84427380Y-95616666D01*
X84475000Y-95759523D01*
X84522619Y-95807142D01*
X85427380Y-96759523D02*
X85427380Y-96188095D01*
X85427380Y-96473809D02*
X84427380Y-96473809D01*
X84570238Y-96378571D01*
X84665476Y-96283333D01*
X84713095Y-96188095D01*
X85427380Y-97235714D02*
X85427380Y-97426190D01*
X85379761Y-97521428D01*
X85332142Y-97569047D01*
X85189285Y-97664285D01*
X84998809Y-97711904D01*
X84617857Y-97711904D01*
X84522619Y-97664285D01*
X84475000Y-97616666D01*
X84427380Y-97521428D01*
X84427380Y-97330952D01*
X84475000Y-97235714D01*
X84522619Y-97188095D01*
X84617857Y-97140476D01*
X84855952Y-97140476D01*
X84951190Y-97188095D01*
X84998809Y-97235714D01*
X85046428Y-97330952D01*
X85046428Y-97521428D01*
X84998809Y-97616666D01*
X84951190Y-97664285D01*
X84855952Y-97711904D01*
X65257142Y-88657142D02*
X65304761Y-88609523D01*
X65352380Y-88466666D01*
X65352380Y-88371428D01*
X65304761Y-88228571D01*
X65209523Y-88133333D01*
X65114285Y-88085714D01*
X64923809Y-88038095D01*
X64780952Y-88038095D01*
X64590476Y-88085714D01*
X64495238Y-88133333D01*
X64400000Y-88228571D01*
X64352380Y-88371428D01*
X64352380Y-88466666D01*
X64400000Y-88609523D01*
X64447619Y-88657142D01*
X64447619Y-89038095D02*
X64400000Y-89085714D01*
X64352380Y-89180952D01*
X64352380Y-89419047D01*
X64400000Y-89514285D01*
X64447619Y-89561904D01*
X64542857Y-89609523D01*
X64638095Y-89609523D01*
X64780952Y-89561904D01*
X65352380Y-88990476D01*
X65352380Y-89609523D01*
X64447619Y-89990476D02*
X64400000Y-90038095D01*
X64352380Y-90133333D01*
X64352380Y-90371428D01*
X64400000Y-90466666D01*
X64447619Y-90514285D01*
X64542857Y-90561904D01*
X64638095Y-90561904D01*
X64780952Y-90514285D01*
X65352380Y-89942857D01*
X65352380Y-90561904D01*
X54782857Y-66097142D02*
X54830476Y-66144761D01*
X54973333Y-66192380D01*
X55068571Y-66192380D01*
X55211428Y-66144761D01*
X55306666Y-66049523D01*
X55354285Y-65954285D01*
X55401904Y-65763809D01*
X55401904Y-65620952D01*
X55354285Y-65430476D01*
X55306666Y-65335238D01*
X55211428Y-65240000D01*
X55068571Y-65192380D01*
X54973333Y-65192380D01*
X54830476Y-65240000D01*
X54782857Y-65287619D01*
X54401904Y-65287619D02*
X54354285Y-65240000D01*
X54259047Y-65192380D01*
X54020952Y-65192380D01*
X53925714Y-65240000D01*
X53878095Y-65287619D01*
X53830476Y-65382857D01*
X53830476Y-65478095D01*
X53878095Y-65620952D01*
X54449523Y-66192380D01*
X53830476Y-66192380D01*
X53497142Y-65192380D02*
X52878095Y-65192380D01*
X53211428Y-65573333D01*
X53068571Y-65573333D01*
X52973333Y-65620952D01*
X52925714Y-65668571D01*
X52878095Y-65763809D01*
X52878095Y-66001904D01*
X52925714Y-66097142D01*
X52973333Y-66144761D01*
X53068571Y-66192380D01*
X53354285Y-66192380D01*
X53449523Y-66144761D01*
X53497142Y-66097142D01*
X53557142Y-72057142D02*
X53604761Y-72009523D01*
X53652380Y-71866666D01*
X53652380Y-71771428D01*
X53604761Y-71628571D01*
X53509523Y-71533333D01*
X53414285Y-71485714D01*
X53223809Y-71438095D01*
X53080952Y-71438095D01*
X52890476Y-71485714D01*
X52795238Y-71533333D01*
X52700000Y-71628571D01*
X52652380Y-71771428D01*
X52652380Y-71866666D01*
X52700000Y-72009523D01*
X52747619Y-72057142D01*
X52747619Y-72438095D02*
X52700000Y-72485714D01*
X52652380Y-72580952D01*
X52652380Y-72819047D01*
X52700000Y-72914285D01*
X52747619Y-72961904D01*
X52842857Y-73009523D01*
X52938095Y-73009523D01*
X53080952Y-72961904D01*
X53652380Y-72390476D01*
X53652380Y-73009523D01*
X52985714Y-73866666D02*
X53652380Y-73866666D01*
X52604761Y-73628571D02*
X53319047Y-73390476D01*
X53319047Y-74009523D01*
X80077857Y-62957142D02*
X80125476Y-63004761D01*
X80268333Y-63052380D01*
X80363571Y-63052380D01*
X80506428Y-63004761D01*
X80601666Y-62909523D01*
X80649285Y-62814285D01*
X80696904Y-62623809D01*
X80696904Y-62480952D01*
X80649285Y-62290476D01*
X80601666Y-62195238D01*
X80506428Y-62100000D01*
X80363571Y-62052380D01*
X80268333Y-62052380D01*
X80125476Y-62100000D01*
X80077857Y-62147619D01*
X79696904Y-62147619D02*
X79649285Y-62100000D01*
X79554047Y-62052380D01*
X79315952Y-62052380D01*
X79220714Y-62100000D01*
X79173095Y-62147619D01*
X79125476Y-62242857D01*
X79125476Y-62338095D01*
X79173095Y-62480952D01*
X79744523Y-63052380D01*
X79125476Y-63052380D01*
X78220714Y-62052380D02*
X78696904Y-62052380D01*
X78744523Y-62528571D01*
X78696904Y-62480952D01*
X78601666Y-62433333D01*
X78363571Y-62433333D01*
X78268333Y-62480952D01*
X78220714Y-62528571D01*
X78173095Y-62623809D01*
X78173095Y-62861904D01*
X78220714Y-62957142D01*
X78268333Y-63004761D01*
X78363571Y-63052380D01*
X78601666Y-63052380D01*
X78696904Y-63004761D01*
X78744523Y-62957142D01*
X70367142Y-65247142D02*
X70414761Y-65199523D01*
X70462380Y-65056666D01*
X70462380Y-64961428D01*
X70414761Y-64818571D01*
X70319523Y-64723333D01*
X70224285Y-64675714D01*
X70033809Y-64628095D01*
X69890952Y-64628095D01*
X69700476Y-64675714D01*
X69605238Y-64723333D01*
X69510000Y-64818571D01*
X69462380Y-64961428D01*
X69462380Y-65056666D01*
X69510000Y-65199523D01*
X69557619Y-65247142D01*
X69557619Y-65628095D02*
X69510000Y-65675714D01*
X69462380Y-65770952D01*
X69462380Y-66009047D01*
X69510000Y-66104285D01*
X69557619Y-66151904D01*
X69652857Y-66199523D01*
X69748095Y-66199523D01*
X69890952Y-66151904D01*
X70462380Y-65580476D01*
X70462380Y-66199523D01*
X69462380Y-66532857D02*
X69462380Y-67199523D01*
X70462380Y-66770952D01*
X59442857Y-90757142D02*
X59490476Y-90804761D01*
X59633333Y-90852380D01*
X59728571Y-90852380D01*
X59871428Y-90804761D01*
X59966666Y-90709523D01*
X60014285Y-90614285D01*
X60061904Y-90423809D01*
X60061904Y-90280952D01*
X60014285Y-90090476D01*
X59966666Y-89995238D01*
X59871428Y-89900000D01*
X59728571Y-89852380D01*
X59633333Y-89852380D01*
X59490476Y-89900000D01*
X59442857Y-89947619D01*
X59109523Y-89852380D02*
X58490476Y-89852380D01*
X58823809Y-90233333D01*
X58680952Y-90233333D01*
X58585714Y-90280952D01*
X58538095Y-90328571D01*
X58490476Y-90423809D01*
X58490476Y-90661904D01*
X58538095Y-90757142D01*
X58585714Y-90804761D01*
X58680952Y-90852380D01*
X58966666Y-90852380D01*
X59061904Y-90804761D01*
X59109523Y-90757142D01*
X57871428Y-89852380D02*
X57776190Y-89852380D01*
X57680952Y-89900000D01*
X57633333Y-89947619D01*
X57585714Y-90042857D01*
X57538095Y-90233333D01*
X57538095Y-90471428D01*
X57585714Y-90661904D01*
X57633333Y-90757142D01*
X57680952Y-90804761D01*
X57776190Y-90852380D01*
X57871428Y-90852380D01*
X57966666Y-90804761D01*
X58014285Y-90757142D01*
X58061904Y-90661904D01*
X58109523Y-90471428D01*
X58109523Y-90233333D01*
X58061904Y-90042857D01*
X58014285Y-89947619D01*
X57966666Y-89900000D01*
X57871428Y-89852380D01*
X48942857Y-54157142D02*
X48990476Y-54204761D01*
X49133333Y-54252380D01*
X49228571Y-54252380D01*
X49371428Y-54204761D01*
X49466666Y-54109523D01*
X49514285Y-54014285D01*
X49561904Y-53823809D01*
X49561904Y-53680952D01*
X49514285Y-53490476D01*
X49466666Y-53395238D01*
X49371428Y-53300000D01*
X49228571Y-53252380D01*
X49133333Y-53252380D01*
X48990476Y-53300000D01*
X48942857Y-53347619D01*
X48609523Y-53252380D02*
X47990476Y-53252380D01*
X48323809Y-53633333D01*
X48180952Y-53633333D01*
X48085714Y-53680952D01*
X48038095Y-53728571D01*
X47990476Y-53823809D01*
X47990476Y-54061904D01*
X48038095Y-54157142D01*
X48085714Y-54204761D01*
X48180952Y-54252380D01*
X48466666Y-54252380D01*
X48561904Y-54204761D01*
X48609523Y-54157142D01*
X47657142Y-53252380D02*
X47038095Y-53252380D01*
X47371428Y-53633333D01*
X47228571Y-53633333D01*
X47133333Y-53680952D01*
X47085714Y-53728571D01*
X47038095Y-53823809D01*
X47038095Y-54061904D01*
X47085714Y-54157142D01*
X47133333Y-54204761D01*
X47228571Y-54252380D01*
X47514285Y-54252380D01*
X47609523Y-54204761D01*
X47657142Y-54157142D01*
X29392857Y-64787142D02*
X29440476Y-64834761D01*
X29583333Y-64882380D01*
X29678571Y-64882380D01*
X29821428Y-64834761D01*
X29916666Y-64739523D01*
X29964285Y-64644285D01*
X30011904Y-64453809D01*
X30011904Y-64310952D01*
X29964285Y-64120476D01*
X29916666Y-64025238D01*
X29821428Y-63930000D01*
X29678571Y-63882380D01*
X29583333Y-63882380D01*
X29440476Y-63930000D01*
X29392857Y-63977619D01*
X29059523Y-63882380D02*
X28440476Y-63882380D01*
X28773809Y-64263333D01*
X28630952Y-64263333D01*
X28535714Y-64310952D01*
X28488095Y-64358571D01*
X28440476Y-64453809D01*
X28440476Y-64691904D01*
X28488095Y-64787142D01*
X28535714Y-64834761D01*
X28630952Y-64882380D01*
X28916666Y-64882380D01*
X29011904Y-64834761D01*
X29059523Y-64787142D01*
X27583333Y-63882380D02*
X27773809Y-63882380D01*
X27869047Y-63930000D01*
X27916666Y-63977619D01*
X28011904Y-64120476D01*
X28059523Y-64310952D01*
X28059523Y-64691904D01*
X28011904Y-64787142D01*
X27964285Y-64834761D01*
X27869047Y-64882380D01*
X27678571Y-64882380D01*
X27583333Y-64834761D01*
X27535714Y-64787142D01*
X27488095Y-64691904D01*
X27488095Y-64453809D01*
X27535714Y-64358571D01*
X27583333Y-64310952D01*
X27678571Y-64263333D01*
X27869047Y-64263333D01*
X27964285Y-64310952D01*
X28011904Y-64358571D01*
X28059523Y-64453809D01*
X18857142Y-62737142D02*
X18904761Y-62689523D01*
X18952380Y-62546666D01*
X18952380Y-62451428D01*
X18904761Y-62308571D01*
X18809523Y-62213333D01*
X18714285Y-62165714D01*
X18523809Y-62118095D01*
X18380952Y-62118095D01*
X18190476Y-62165714D01*
X18095238Y-62213333D01*
X18000000Y-62308571D01*
X17952380Y-62451428D01*
X17952380Y-62546666D01*
X18000000Y-62689523D01*
X18047619Y-62737142D01*
X17952380Y-63070476D02*
X17952380Y-63689523D01*
X18333333Y-63356190D01*
X18333333Y-63499047D01*
X18380952Y-63594285D01*
X18428571Y-63641904D01*
X18523809Y-63689523D01*
X18761904Y-63689523D01*
X18857142Y-63641904D01*
X18904761Y-63594285D01*
X18952380Y-63499047D01*
X18952380Y-63213333D01*
X18904761Y-63118095D01*
X18857142Y-63070476D01*
X17952380Y-64022857D02*
X17952380Y-64689523D01*
X18952380Y-64260952D01*
X8152380Y-89933333D02*
X7676190Y-89600000D01*
X8152380Y-89361904D02*
X7152380Y-89361904D01*
X7152380Y-89742857D01*
X7200000Y-89838095D01*
X7247619Y-89885714D01*
X7342857Y-89933333D01*
X7485714Y-89933333D01*
X7580952Y-89885714D01*
X7628571Y-89838095D01*
X7676190Y-89742857D01*
X7676190Y-89361904D01*
X8152380Y-90885714D02*
X8152380Y-90314285D01*
X8152380Y-90600000D02*
X7152380Y-90600000D01*
X7295238Y-90504761D01*
X7390476Y-90409523D01*
X7438095Y-90314285D01*
X8152380Y-87333333D02*
X7676190Y-87000000D01*
X8152380Y-86761904D02*
X7152380Y-86761904D01*
X7152380Y-87142857D01*
X7200000Y-87238095D01*
X7247619Y-87285714D01*
X7342857Y-87333333D01*
X7485714Y-87333333D01*
X7580952Y-87285714D01*
X7628571Y-87238095D01*
X7676190Y-87142857D01*
X7676190Y-86761904D01*
X7247619Y-87714285D02*
X7200000Y-87761904D01*
X7152380Y-87857142D01*
X7152380Y-88095238D01*
X7200000Y-88190476D01*
X7247619Y-88238095D01*
X7342857Y-88285714D01*
X7438095Y-88285714D01*
X7580952Y-88238095D01*
X8152380Y-87666666D01*
X8152380Y-88285714D01*
X73052380Y-94333333D02*
X72576190Y-94000000D01*
X73052380Y-93761904D02*
X72052380Y-93761904D01*
X72052380Y-94142857D01*
X72100000Y-94238095D01*
X72147619Y-94285714D01*
X72242857Y-94333333D01*
X72385714Y-94333333D01*
X72480952Y-94285714D01*
X72528571Y-94238095D01*
X72576190Y-94142857D01*
X72576190Y-93761904D01*
X72052380Y-94666666D02*
X72052380Y-95285714D01*
X72433333Y-94952380D01*
X72433333Y-95095238D01*
X72480952Y-95190476D01*
X72528571Y-95238095D01*
X72623809Y-95285714D01*
X72861904Y-95285714D01*
X72957142Y-95238095D01*
X73004761Y-95190476D01*
X73052380Y-95095238D01*
X73052380Y-94809523D01*
X73004761Y-94714285D01*
X72957142Y-94666666D01*
X3952380Y-74333333D02*
X3476190Y-74000000D01*
X3952380Y-73761904D02*
X2952380Y-73761904D01*
X2952380Y-74142857D01*
X3000000Y-74238095D01*
X3047619Y-74285714D01*
X3142857Y-74333333D01*
X3285714Y-74333333D01*
X3380952Y-74285714D01*
X3428571Y-74238095D01*
X3476190Y-74142857D01*
X3476190Y-73761904D01*
X3285714Y-75190476D02*
X3952380Y-75190476D01*
X2904761Y-74952380D02*
X3619047Y-74714285D01*
X3619047Y-75333333D01*
X66666666Y-96852380D02*
X67000000Y-96376190D01*
X67238095Y-96852380D02*
X67238095Y-95852380D01*
X66857142Y-95852380D01*
X66761904Y-95900000D01*
X66714285Y-95947619D01*
X66666666Y-96042857D01*
X66666666Y-96185714D01*
X66714285Y-96280952D01*
X66761904Y-96328571D01*
X66857142Y-96376190D01*
X67238095Y-96376190D01*
X65761904Y-95852380D02*
X66238095Y-95852380D01*
X66285714Y-96328571D01*
X66238095Y-96280952D01*
X66142857Y-96233333D01*
X65904761Y-96233333D01*
X65809523Y-96280952D01*
X65761904Y-96328571D01*
X65714285Y-96423809D01*
X65714285Y-96661904D01*
X65761904Y-96757142D01*
X65809523Y-96804761D01*
X65904761Y-96852380D01*
X66142857Y-96852380D01*
X66238095Y-96804761D01*
X66285714Y-96757142D01*
X69766666Y-86352380D02*
X70100000Y-85876190D01*
X70338095Y-86352380D02*
X70338095Y-85352380D01*
X69957142Y-85352380D01*
X69861904Y-85400000D01*
X69814285Y-85447619D01*
X69766666Y-85542857D01*
X69766666Y-85685714D01*
X69814285Y-85780952D01*
X69861904Y-85828571D01*
X69957142Y-85876190D01*
X70338095Y-85876190D01*
X69195238Y-85780952D02*
X69290476Y-85733333D01*
X69338095Y-85685714D01*
X69385714Y-85590476D01*
X69385714Y-85542857D01*
X69338095Y-85447619D01*
X69290476Y-85400000D01*
X69195238Y-85352380D01*
X69004761Y-85352380D01*
X68909523Y-85400000D01*
X68861904Y-85447619D01*
X68814285Y-85542857D01*
X68814285Y-85590476D01*
X68861904Y-85685714D01*
X68909523Y-85733333D01*
X69004761Y-85780952D01*
X69195238Y-85780952D01*
X69290476Y-85828571D01*
X69338095Y-85876190D01*
X69385714Y-85971428D01*
X69385714Y-86161904D01*
X69338095Y-86257142D01*
X69290476Y-86304761D01*
X69195238Y-86352380D01*
X69004761Y-86352380D01*
X68909523Y-86304761D01*
X68861904Y-86257142D01*
X68814285Y-86161904D01*
X68814285Y-85971428D01*
X68861904Y-85876190D01*
X68909523Y-85828571D01*
X69004761Y-85780952D01*
X70852380Y-89433333D02*
X70376190Y-89100000D01*
X70852380Y-88861904D02*
X69852380Y-88861904D01*
X69852380Y-89242857D01*
X69900000Y-89338095D01*
X69947619Y-89385714D01*
X70042857Y-89433333D01*
X70185714Y-89433333D01*
X70280952Y-89385714D01*
X70328571Y-89338095D01*
X70376190Y-89242857D01*
X70376190Y-88861904D01*
X70852380Y-89909523D02*
X70852380Y-90100000D01*
X70804761Y-90195238D01*
X70757142Y-90242857D01*
X70614285Y-90338095D01*
X70423809Y-90385714D01*
X70042857Y-90385714D01*
X69947619Y-90338095D01*
X69900000Y-90290476D01*
X69852380Y-90195238D01*
X69852380Y-90004761D01*
X69900000Y-89909523D01*
X69947619Y-89861904D01*
X70042857Y-89814285D01*
X70280952Y-89814285D01*
X70376190Y-89861904D01*
X70423809Y-89909523D01*
X70471428Y-90004761D01*
X70471428Y-90195238D01*
X70423809Y-90290476D01*
X70376190Y-90338095D01*
X70280952Y-90385714D01*
X74652380Y-86457142D02*
X74176190Y-86123809D01*
X74652380Y-85885714D02*
X73652380Y-85885714D01*
X73652380Y-86266666D01*
X73700000Y-86361904D01*
X73747619Y-86409523D01*
X73842857Y-86457142D01*
X73985714Y-86457142D01*
X74080952Y-86409523D01*
X74128571Y-86361904D01*
X74176190Y-86266666D01*
X74176190Y-85885714D01*
X74652380Y-87409523D02*
X74652380Y-86838095D01*
X74652380Y-87123809D02*
X73652380Y-87123809D01*
X73795238Y-87028571D01*
X73890476Y-86933333D01*
X73938095Y-86838095D01*
X73652380Y-88028571D02*
X73652380Y-88123809D01*
X73700000Y-88219047D01*
X73747619Y-88266666D01*
X73842857Y-88314285D01*
X74033333Y-88361904D01*
X74271428Y-88361904D01*
X74461904Y-88314285D01*
X74557142Y-88266666D01*
X74604761Y-88219047D01*
X74652380Y-88123809D01*
X74652380Y-88028571D01*
X74604761Y-87933333D01*
X74557142Y-87885714D01*
X74461904Y-87838095D01*
X74271428Y-87790476D01*
X74033333Y-87790476D01*
X73842857Y-87838095D01*
X73747619Y-87885714D01*
X73700000Y-87933333D01*
X73652380Y-88028571D01*
X41252380Y-92557142D02*
X40776190Y-92223809D01*
X41252380Y-91985714D02*
X40252380Y-91985714D01*
X40252380Y-92366666D01*
X40300000Y-92461904D01*
X40347619Y-92509523D01*
X40442857Y-92557142D01*
X40585714Y-92557142D01*
X40680952Y-92509523D01*
X40728571Y-92461904D01*
X40776190Y-92366666D01*
X40776190Y-91985714D01*
X41252380Y-93509523D02*
X41252380Y-92938095D01*
X41252380Y-93223809D02*
X40252380Y-93223809D01*
X40395238Y-93128571D01*
X40490476Y-93033333D01*
X40538095Y-92938095D01*
X40347619Y-93890476D02*
X40300000Y-93938095D01*
X40252380Y-94033333D01*
X40252380Y-94271428D01*
X40300000Y-94366666D01*
X40347619Y-94414285D01*
X40442857Y-94461904D01*
X40538095Y-94461904D01*
X40680952Y-94414285D01*
X41252380Y-93842857D01*
X41252380Y-94461904D01*
X32642857Y-82402380D02*
X32976190Y-81926190D01*
X33214285Y-82402380D02*
X33214285Y-81402380D01*
X32833333Y-81402380D01*
X32738095Y-81450000D01*
X32690476Y-81497619D01*
X32642857Y-81592857D01*
X32642857Y-81735714D01*
X32690476Y-81830952D01*
X32738095Y-81878571D01*
X32833333Y-81926190D01*
X33214285Y-81926190D01*
X31690476Y-82402380D02*
X32261904Y-82402380D01*
X31976190Y-82402380D02*
X31976190Y-81402380D01*
X32071428Y-81545238D01*
X32166666Y-81640476D01*
X32261904Y-81688095D01*
X31357142Y-81402380D02*
X30738095Y-81402380D01*
X31071428Y-81783333D01*
X30928571Y-81783333D01*
X30833333Y-81830952D01*
X30785714Y-81878571D01*
X30738095Y-81973809D01*
X30738095Y-82211904D01*
X30785714Y-82307142D01*
X30833333Y-82354761D01*
X30928571Y-82402380D01*
X31214285Y-82402380D01*
X31309523Y-82354761D01*
X31357142Y-82307142D01*
X8252380Y-95457142D02*
X7776190Y-95123809D01*
X8252380Y-94885714D02*
X7252380Y-94885714D01*
X7252380Y-95266666D01*
X7300000Y-95361904D01*
X7347619Y-95409523D01*
X7442857Y-95457142D01*
X7585714Y-95457142D01*
X7680952Y-95409523D01*
X7728571Y-95361904D01*
X7776190Y-95266666D01*
X7776190Y-94885714D01*
X8252380Y-96409523D02*
X8252380Y-95838095D01*
X8252380Y-96123809D02*
X7252380Y-96123809D01*
X7395238Y-96028571D01*
X7490476Y-95933333D01*
X7538095Y-95838095D01*
X7585714Y-97266666D02*
X8252380Y-97266666D01*
X7204761Y-97028571D02*
X7919047Y-96790476D01*
X7919047Y-97409523D01*
X78942857Y-88152380D02*
X79276190Y-87676190D01*
X79514285Y-88152380D02*
X79514285Y-87152380D01*
X79133333Y-87152380D01*
X79038095Y-87200000D01*
X78990476Y-87247619D01*
X78942857Y-87342857D01*
X78942857Y-87485714D01*
X78990476Y-87580952D01*
X79038095Y-87628571D01*
X79133333Y-87676190D01*
X79514285Y-87676190D01*
X77990476Y-88152380D02*
X78561904Y-88152380D01*
X78276190Y-88152380D02*
X78276190Y-87152380D01*
X78371428Y-87295238D01*
X78466666Y-87390476D01*
X78561904Y-87438095D01*
X77133333Y-87152380D02*
X77323809Y-87152380D01*
X77419047Y-87200000D01*
X77466666Y-87247619D01*
X77561904Y-87390476D01*
X77609523Y-87580952D01*
X77609523Y-87961904D01*
X77561904Y-88057142D01*
X77514285Y-88104761D01*
X77419047Y-88152380D01*
X77228571Y-88152380D01*
X77133333Y-88104761D01*
X77085714Y-88057142D01*
X77038095Y-87961904D01*
X77038095Y-87723809D01*
X77085714Y-87628571D01*
X77133333Y-87580952D01*
X77228571Y-87533333D01*
X77419047Y-87533333D01*
X77514285Y-87580952D01*
X77561904Y-87628571D01*
X77609523Y-87723809D01*
X49742857Y-86652380D02*
X50076190Y-86176190D01*
X50314285Y-86652380D02*
X50314285Y-85652380D01*
X49933333Y-85652380D01*
X49838095Y-85700000D01*
X49790476Y-85747619D01*
X49742857Y-85842857D01*
X49742857Y-85985714D01*
X49790476Y-86080952D01*
X49838095Y-86128571D01*
X49933333Y-86176190D01*
X50314285Y-86176190D01*
X48790476Y-86652380D02*
X49361904Y-86652380D01*
X49076190Y-86652380D02*
X49076190Y-85652380D01*
X49171428Y-85795238D01*
X49266666Y-85890476D01*
X49361904Y-85938095D01*
X48457142Y-85652380D02*
X47790476Y-85652380D01*
X48219047Y-86652380D01*
X17997619Y-83742857D02*
X18473809Y-84076190D01*
X17997619Y-84314285D02*
X18997619Y-84314285D01*
X18997619Y-83933333D01*
X18950000Y-83838095D01*
X18902380Y-83790476D01*
X18807142Y-83742857D01*
X18664285Y-83742857D01*
X18569047Y-83790476D01*
X18521428Y-83838095D01*
X18473809Y-83933333D01*
X18473809Y-84314285D01*
X18902380Y-83361904D02*
X18950000Y-83314285D01*
X18997619Y-83219047D01*
X18997619Y-82980952D01*
X18950000Y-82885714D01*
X18902380Y-82838095D01*
X18807142Y-82790476D01*
X18711904Y-82790476D01*
X18569047Y-82838095D01*
X17997619Y-83409523D01*
X17997619Y-82790476D01*
X18997619Y-82171428D02*
X18997619Y-82076190D01*
X18950000Y-81980952D01*
X18902380Y-81933333D01*
X18807142Y-81885714D01*
X18616666Y-81838095D01*
X18378571Y-81838095D01*
X18188095Y-81885714D01*
X18092857Y-81933333D01*
X18045238Y-81980952D01*
X17997619Y-82076190D01*
X17997619Y-82171428D01*
X18045238Y-82266666D01*
X18092857Y-82314285D01*
X18188095Y-82361904D01*
X18378571Y-82409523D01*
X18616666Y-82409523D01*
X18807142Y-82361904D01*
X18902380Y-82314285D01*
X18950000Y-82266666D01*
X18997619Y-82171428D01*
X10452380Y-79157142D02*
X9976190Y-78823809D01*
X10452380Y-78585714D02*
X9452380Y-78585714D01*
X9452380Y-78966666D01*
X9500000Y-79061904D01*
X9547619Y-79109523D01*
X9642857Y-79157142D01*
X9785714Y-79157142D01*
X9880952Y-79109523D01*
X9928571Y-79061904D01*
X9976190Y-78966666D01*
X9976190Y-78585714D01*
X9547619Y-79538095D02*
X9500000Y-79585714D01*
X9452380Y-79680952D01*
X9452380Y-79919047D01*
X9500000Y-80014285D01*
X9547619Y-80061904D01*
X9642857Y-80109523D01*
X9738095Y-80109523D01*
X9880952Y-80061904D01*
X10452380Y-79490476D01*
X10452380Y-80109523D01*
X10452380Y-81061904D02*
X10452380Y-80490476D01*
X10452380Y-80776190D02*
X9452380Y-80776190D01*
X9595238Y-80680952D01*
X9690476Y-80585714D01*
X9738095Y-80490476D01*
X87452380Y-96057142D02*
X86976190Y-95723809D01*
X87452380Y-95485714D02*
X86452380Y-95485714D01*
X86452380Y-95866666D01*
X86500000Y-95961904D01*
X86547619Y-96009523D01*
X86642857Y-96057142D01*
X86785714Y-96057142D01*
X86880952Y-96009523D01*
X86928571Y-95961904D01*
X86976190Y-95866666D01*
X86976190Y-95485714D01*
X86547619Y-96438095D02*
X86500000Y-96485714D01*
X86452380Y-96580952D01*
X86452380Y-96819047D01*
X86500000Y-96914285D01*
X86547619Y-96961904D01*
X86642857Y-97009523D01*
X86738095Y-97009523D01*
X86880952Y-96961904D01*
X87452380Y-96390476D01*
X87452380Y-97009523D01*
X86785714Y-97866666D02*
X87452380Y-97866666D01*
X86404761Y-97628571D02*
X87119047Y-97390476D01*
X87119047Y-98009523D01*
X96442857Y-86752380D02*
X96776190Y-86276190D01*
X97014285Y-86752380D02*
X97014285Y-85752380D01*
X96633333Y-85752380D01*
X96538095Y-85800000D01*
X96490476Y-85847619D01*
X96442857Y-85942857D01*
X96442857Y-86085714D01*
X96490476Y-86180952D01*
X96538095Y-86228571D01*
X96633333Y-86276190D01*
X97014285Y-86276190D01*
X96061904Y-85847619D02*
X96014285Y-85800000D01*
X95919047Y-85752380D01*
X95680952Y-85752380D01*
X95585714Y-85800000D01*
X95538095Y-85847619D01*
X95490476Y-85942857D01*
X95490476Y-86038095D01*
X95538095Y-86180952D01*
X96109523Y-86752380D01*
X95490476Y-86752380D01*
X95157142Y-85752380D02*
X94490476Y-85752380D01*
X94919047Y-86752380D01*
X82342857Y-86652380D02*
X82676190Y-86176190D01*
X82914285Y-86652380D02*
X82914285Y-85652380D01*
X82533333Y-85652380D01*
X82438095Y-85700000D01*
X82390476Y-85747619D01*
X82342857Y-85842857D01*
X82342857Y-85985714D01*
X82390476Y-86080952D01*
X82438095Y-86128571D01*
X82533333Y-86176190D01*
X82914285Y-86176190D01*
X81961904Y-85747619D02*
X81914285Y-85700000D01*
X81819047Y-85652380D01*
X81580952Y-85652380D01*
X81485714Y-85700000D01*
X81438095Y-85747619D01*
X81390476Y-85842857D01*
X81390476Y-85938095D01*
X81438095Y-86080952D01*
X82009523Y-86652380D01*
X81390476Y-86652380D01*
X80819047Y-86080952D02*
X80914285Y-86033333D01*
X80961904Y-85985714D01*
X81009523Y-85890476D01*
X81009523Y-85842857D01*
X80961904Y-85747619D01*
X80914285Y-85700000D01*
X80819047Y-85652380D01*
X80628571Y-85652380D01*
X80533333Y-85700000D01*
X80485714Y-85747619D01*
X80438095Y-85842857D01*
X80438095Y-85890476D01*
X80485714Y-85985714D01*
X80533333Y-86033333D01*
X80628571Y-86080952D01*
X80819047Y-86080952D01*
X80914285Y-86128571D01*
X80961904Y-86176190D01*
X81009523Y-86271428D01*
X81009523Y-86461904D01*
X80961904Y-86557142D01*
X80914285Y-86604761D01*
X80819047Y-86652380D01*
X80628571Y-86652380D01*
X80533333Y-86604761D01*
X80485714Y-86557142D01*
X80438095Y-86461904D01*
X80438095Y-86271428D01*
X80485714Y-86176190D01*
X80533333Y-86128571D01*
X80628571Y-86080952D01*
X19102380Y-54437142D02*
X18626190Y-54103809D01*
X19102380Y-53865714D02*
X18102380Y-53865714D01*
X18102380Y-54246666D01*
X18150000Y-54341904D01*
X18197619Y-54389523D01*
X18292857Y-54437142D01*
X18435714Y-54437142D01*
X18530952Y-54389523D01*
X18578571Y-54341904D01*
X18626190Y-54246666D01*
X18626190Y-53865714D01*
X18197619Y-54818095D02*
X18150000Y-54865714D01*
X18102380Y-54960952D01*
X18102380Y-55199047D01*
X18150000Y-55294285D01*
X18197619Y-55341904D01*
X18292857Y-55389523D01*
X18388095Y-55389523D01*
X18530952Y-55341904D01*
X19102380Y-54770476D01*
X19102380Y-55389523D01*
X19102380Y-55865714D02*
X19102380Y-56056190D01*
X19054761Y-56151428D01*
X19007142Y-56199047D01*
X18864285Y-56294285D01*
X18673809Y-56341904D01*
X18292857Y-56341904D01*
X18197619Y-56294285D01*
X18150000Y-56246666D01*
X18102380Y-56151428D01*
X18102380Y-55960952D01*
X18150000Y-55865714D01*
X18197619Y-55818095D01*
X18292857Y-55770476D01*
X18530952Y-55770476D01*
X18626190Y-55818095D01*
X18673809Y-55865714D01*
X18721428Y-55960952D01*
X18721428Y-56151428D01*
X18673809Y-56246666D01*
X18626190Y-56294285D01*
X18530952Y-56341904D01*
X38082380Y-62507142D02*
X37606190Y-62173809D01*
X38082380Y-61935714D02*
X37082380Y-61935714D01*
X37082380Y-62316666D01*
X37130000Y-62411904D01*
X37177619Y-62459523D01*
X37272857Y-62507142D01*
X37415714Y-62507142D01*
X37510952Y-62459523D01*
X37558571Y-62411904D01*
X37606190Y-62316666D01*
X37606190Y-61935714D01*
X37082380Y-62840476D02*
X37082380Y-63459523D01*
X37463333Y-63126190D01*
X37463333Y-63269047D01*
X37510952Y-63364285D01*
X37558571Y-63411904D01*
X37653809Y-63459523D01*
X37891904Y-63459523D01*
X37987142Y-63411904D01*
X38034761Y-63364285D01*
X38082380Y-63269047D01*
X38082380Y-62983333D01*
X38034761Y-62888095D01*
X37987142Y-62840476D01*
X37082380Y-64078571D02*
X37082380Y-64173809D01*
X37130000Y-64269047D01*
X37177619Y-64316666D01*
X37272857Y-64364285D01*
X37463333Y-64411904D01*
X37701428Y-64411904D01*
X37891904Y-64364285D01*
X37987142Y-64316666D01*
X38034761Y-64269047D01*
X38082380Y-64173809D01*
X38082380Y-64078571D01*
X38034761Y-63983333D01*
X37987142Y-63935714D01*
X37891904Y-63888095D01*
X37701428Y-63840476D01*
X37463333Y-63840476D01*
X37272857Y-63888095D01*
X37177619Y-63935714D01*
X37130000Y-63983333D01*
X37082380Y-64078571D01*
X99452380Y-74157142D02*
X98976190Y-73823809D01*
X99452380Y-73585714D02*
X98452380Y-73585714D01*
X98452380Y-73966666D01*
X98500000Y-74061904D01*
X98547619Y-74109523D01*
X98642857Y-74157142D01*
X98785714Y-74157142D01*
X98880952Y-74109523D01*
X98928571Y-74061904D01*
X98976190Y-73966666D01*
X98976190Y-73585714D01*
X98452380Y-74490476D02*
X98452380Y-75109523D01*
X98833333Y-74776190D01*
X98833333Y-74919047D01*
X98880952Y-75014285D01*
X98928571Y-75061904D01*
X99023809Y-75109523D01*
X99261904Y-75109523D01*
X99357142Y-75061904D01*
X99404761Y-75014285D01*
X99452380Y-74919047D01*
X99452380Y-74633333D01*
X99404761Y-74538095D01*
X99357142Y-74490476D01*
X98547619Y-75490476D02*
X98500000Y-75538095D01*
X98452380Y-75633333D01*
X98452380Y-75871428D01*
X98500000Y-75966666D01*
X98547619Y-76014285D01*
X98642857Y-76061904D01*
X98738095Y-76061904D01*
X98880952Y-76014285D01*
X99452380Y-75442857D01*
X99452380Y-76061904D01*
X91452380Y-66557142D02*
X90976190Y-66223809D01*
X91452380Y-65985714D02*
X90452380Y-65985714D01*
X90452380Y-66366666D01*
X90500000Y-66461904D01*
X90547619Y-66509523D01*
X90642857Y-66557142D01*
X90785714Y-66557142D01*
X90880952Y-66509523D01*
X90928571Y-66461904D01*
X90976190Y-66366666D01*
X90976190Y-65985714D01*
X90452380Y-66890476D02*
X90452380Y-67509523D01*
X90833333Y-67176190D01*
X90833333Y-67319047D01*
X90880952Y-67414285D01*
X90928571Y-67461904D01*
X91023809Y-67509523D01*
X91261904Y-67509523D01*
X91357142Y-67461904D01*
X91404761Y-67414285D01*
X91452380Y-67319047D01*
X91452380Y-67033333D01*
X91404761Y-66938095D01*
X91357142Y-66890476D01*
X90452380Y-67842857D02*
X90452380Y-68461904D01*
X90833333Y-68128571D01*
X90833333Y-68271428D01*
X90880952Y-68366666D01*
X90928571Y-68414285D01*
X91023809Y-68461904D01*
X91261904Y-68461904D01*
X91357142Y-68414285D01*
X91404761Y-68366666D01*
X91452380Y-68271428D01*
X91452380Y-67985714D01*
X91404761Y-67890476D01*
X91357142Y-67842857D01*
X93852380Y-66557142D02*
X93376190Y-66223809D01*
X93852380Y-65985714D02*
X92852380Y-65985714D01*
X92852380Y-66366666D01*
X92900000Y-66461904D01*
X92947619Y-66509523D01*
X93042857Y-66557142D01*
X93185714Y-66557142D01*
X93280952Y-66509523D01*
X93328571Y-66461904D01*
X93376190Y-66366666D01*
X93376190Y-65985714D01*
X92852380Y-66890476D02*
X92852380Y-67509523D01*
X93233333Y-67176190D01*
X93233333Y-67319047D01*
X93280952Y-67414285D01*
X93328571Y-67461904D01*
X93423809Y-67509523D01*
X93661904Y-67509523D01*
X93757142Y-67461904D01*
X93804761Y-67414285D01*
X93852380Y-67319047D01*
X93852380Y-67033333D01*
X93804761Y-66938095D01*
X93757142Y-66890476D01*
X93185714Y-68366666D02*
X93852380Y-68366666D01*
X92804761Y-68128571D02*
X93519047Y-67890476D01*
X93519047Y-68509523D01*
X63012857Y-88952380D02*
X63346190Y-88476190D01*
X63584285Y-88952380D02*
X63584285Y-87952380D01*
X63203333Y-87952380D01*
X63108095Y-88000000D01*
X63060476Y-88047619D01*
X63012857Y-88142857D01*
X63012857Y-88285714D01*
X63060476Y-88380952D01*
X63108095Y-88428571D01*
X63203333Y-88476190D01*
X63584285Y-88476190D01*
X62679523Y-87952380D02*
X62060476Y-87952380D01*
X62393809Y-88333333D01*
X62250952Y-88333333D01*
X62155714Y-88380952D01*
X62108095Y-88428571D01*
X62060476Y-88523809D01*
X62060476Y-88761904D01*
X62108095Y-88857142D01*
X62155714Y-88904761D01*
X62250952Y-88952380D01*
X62536666Y-88952380D01*
X62631904Y-88904761D01*
X62679523Y-88857142D01*
X61155714Y-87952380D02*
X61631904Y-87952380D01*
X61679523Y-88428571D01*
X61631904Y-88380952D01*
X61536666Y-88333333D01*
X61298571Y-88333333D01*
X61203333Y-88380952D01*
X61155714Y-88428571D01*
X61108095Y-88523809D01*
X61108095Y-88761904D01*
X61155714Y-88857142D01*
X61203333Y-88904761D01*
X61298571Y-88952380D01*
X61536666Y-88952380D01*
X61631904Y-88904761D01*
X61679523Y-88857142D01*
X58972857Y-89152380D02*
X59306190Y-88676190D01*
X59544285Y-89152380D02*
X59544285Y-88152380D01*
X59163333Y-88152380D01*
X59068095Y-88200000D01*
X59020476Y-88247619D01*
X58972857Y-88342857D01*
X58972857Y-88485714D01*
X59020476Y-88580952D01*
X59068095Y-88628571D01*
X59163333Y-88676190D01*
X59544285Y-88676190D01*
X58639523Y-88152380D02*
X58020476Y-88152380D01*
X58353809Y-88533333D01*
X58210952Y-88533333D01*
X58115714Y-88580952D01*
X58068095Y-88628571D01*
X58020476Y-88723809D01*
X58020476Y-88961904D01*
X58068095Y-89057142D01*
X58115714Y-89104761D01*
X58210952Y-89152380D01*
X58496666Y-89152380D01*
X58591904Y-89104761D01*
X58639523Y-89057142D01*
X57163333Y-88152380D02*
X57353809Y-88152380D01*
X57449047Y-88200000D01*
X57496666Y-88247619D01*
X57591904Y-88390476D01*
X57639523Y-88580952D01*
X57639523Y-88961904D01*
X57591904Y-89057142D01*
X57544285Y-89104761D01*
X57449047Y-89152380D01*
X57258571Y-89152380D01*
X57163333Y-89104761D01*
X57115714Y-89057142D01*
X57068095Y-88961904D01*
X57068095Y-88723809D01*
X57115714Y-88628571D01*
X57163333Y-88580952D01*
X57258571Y-88533333D01*
X57449047Y-88533333D01*
X57544285Y-88580952D01*
X57591904Y-88628571D01*
X57639523Y-88723809D01*
X36252380Y-55357142D02*
X35776190Y-55023809D01*
X36252380Y-54785714D02*
X35252380Y-54785714D01*
X35252380Y-55166666D01*
X35300000Y-55261904D01*
X35347619Y-55309523D01*
X35442857Y-55357142D01*
X35585714Y-55357142D01*
X35680952Y-55309523D01*
X35728571Y-55261904D01*
X35776190Y-55166666D01*
X35776190Y-54785714D01*
X35252380Y-55690476D02*
X35252380Y-56309523D01*
X35633333Y-55976190D01*
X35633333Y-56119047D01*
X35680952Y-56214285D01*
X35728571Y-56261904D01*
X35823809Y-56309523D01*
X36061904Y-56309523D01*
X36157142Y-56261904D01*
X36204761Y-56214285D01*
X36252380Y-56119047D01*
X36252380Y-55833333D01*
X36204761Y-55738095D01*
X36157142Y-55690476D01*
X35252380Y-56642857D02*
X35252380Y-57309523D01*
X36252380Y-56880952D01*
X30952380Y-55057142D02*
X30476190Y-54723809D01*
X30952380Y-54485714D02*
X29952380Y-54485714D01*
X29952380Y-54866666D01*
X30000000Y-54961904D01*
X30047619Y-55009523D01*
X30142857Y-55057142D01*
X30285714Y-55057142D01*
X30380952Y-55009523D01*
X30428571Y-54961904D01*
X30476190Y-54866666D01*
X30476190Y-54485714D01*
X29952380Y-55390476D02*
X29952380Y-56009523D01*
X30333333Y-55676190D01*
X30333333Y-55819047D01*
X30380952Y-55914285D01*
X30428571Y-55961904D01*
X30523809Y-56009523D01*
X30761904Y-56009523D01*
X30857142Y-55961904D01*
X30904761Y-55914285D01*
X30952380Y-55819047D01*
X30952380Y-55533333D01*
X30904761Y-55438095D01*
X30857142Y-55390476D01*
X30380952Y-56580952D02*
X30333333Y-56485714D01*
X30285714Y-56438095D01*
X30190476Y-56390476D01*
X30142857Y-56390476D01*
X30047619Y-56438095D01*
X30000000Y-56485714D01*
X29952380Y-56580952D01*
X29952380Y-56771428D01*
X30000000Y-56866666D01*
X30047619Y-56914285D01*
X30142857Y-56961904D01*
X30190476Y-56961904D01*
X30285714Y-56914285D01*
X30333333Y-56866666D01*
X30380952Y-56771428D01*
X30380952Y-56580952D01*
X30428571Y-56485714D01*
X30476190Y-56438095D01*
X30571428Y-56390476D01*
X30761904Y-56390476D01*
X30857142Y-56438095D01*
X30904761Y-56485714D01*
X30952380Y-56580952D01*
X30952380Y-56771428D01*
X30904761Y-56866666D01*
X30857142Y-56914285D01*
X30761904Y-56961904D01*
X30571428Y-56961904D01*
X30476190Y-56914285D01*
X30428571Y-56866666D01*
X30380952Y-56771428D01*
X60642857Y-83052380D02*
X60976190Y-82576190D01*
X61214285Y-83052380D02*
X61214285Y-82052380D01*
X60833333Y-82052380D01*
X60738095Y-82100000D01*
X60690476Y-82147619D01*
X60642857Y-82242857D01*
X60642857Y-82385714D01*
X60690476Y-82480952D01*
X60738095Y-82528571D01*
X60833333Y-82576190D01*
X61214285Y-82576190D01*
X60309523Y-82052380D02*
X59690476Y-82052380D01*
X60023809Y-82433333D01*
X59880952Y-82433333D01*
X59785714Y-82480952D01*
X59738095Y-82528571D01*
X59690476Y-82623809D01*
X59690476Y-82861904D01*
X59738095Y-82957142D01*
X59785714Y-83004761D01*
X59880952Y-83052380D01*
X60166666Y-83052380D01*
X60261904Y-83004761D01*
X60309523Y-82957142D01*
X59214285Y-83052380D02*
X59023809Y-83052380D01*
X58928571Y-83004761D01*
X58880952Y-82957142D01*
X58785714Y-82814285D01*
X58738095Y-82623809D01*
X58738095Y-82242857D01*
X58785714Y-82147619D01*
X58833333Y-82100000D01*
X58928571Y-82052380D01*
X59119047Y-82052380D01*
X59214285Y-82100000D01*
X59261904Y-82147619D01*
X59309523Y-82242857D01*
X59309523Y-82480952D01*
X59261904Y-82576190D01*
X59214285Y-82623809D01*
X59119047Y-82671428D01*
X58928571Y-82671428D01*
X58833333Y-82623809D01*
X58785714Y-82576190D01*
X58738095Y-82480952D01*
X23942857Y-63152380D02*
X24276190Y-62676190D01*
X24514285Y-63152380D02*
X24514285Y-62152380D01*
X24133333Y-62152380D01*
X24038095Y-62200000D01*
X23990476Y-62247619D01*
X23942857Y-62342857D01*
X23942857Y-62485714D01*
X23990476Y-62580952D01*
X24038095Y-62628571D01*
X24133333Y-62676190D01*
X24514285Y-62676190D01*
X23085714Y-62485714D02*
X23085714Y-63152380D01*
X23323809Y-62104761D02*
X23561904Y-62819047D01*
X22942857Y-62819047D01*
X22038095Y-63152380D02*
X22609523Y-63152380D01*
X22323809Y-63152380D02*
X22323809Y-62152380D01*
X22419047Y-62295238D01*
X22514285Y-62390476D01*
X22609523Y-62438095D01*
X55662380Y-69947142D02*
X55186190Y-69613809D01*
X55662380Y-69375714D02*
X54662380Y-69375714D01*
X54662380Y-69756666D01*
X54710000Y-69851904D01*
X54757619Y-69899523D01*
X54852857Y-69947142D01*
X54995714Y-69947142D01*
X55090952Y-69899523D01*
X55138571Y-69851904D01*
X55186190Y-69756666D01*
X55186190Y-69375714D01*
X54995714Y-70804285D02*
X55662380Y-70804285D01*
X54614761Y-70566190D02*
X55329047Y-70328095D01*
X55329047Y-70947142D01*
X54757619Y-71280476D02*
X54710000Y-71328095D01*
X54662380Y-71423333D01*
X54662380Y-71661428D01*
X54710000Y-71756666D01*
X54757619Y-71804285D01*
X54852857Y-71851904D01*
X54948095Y-71851904D01*
X55090952Y-71804285D01*
X55662380Y-71232857D01*
X55662380Y-71851904D01*
X62242857Y-97552380D02*
X62576190Y-97076190D01*
X62814285Y-97552380D02*
X62814285Y-96552380D01*
X62433333Y-96552380D01*
X62338095Y-96600000D01*
X62290476Y-96647619D01*
X62242857Y-96742857D01*
X62242857Y-96885714D01*
X62290476Y-96980952D01*
X62338095Y-97028571D01*
X62433333Y-97076190D01*
X62814285Y-97076190D01*
X61385714Y-96885714D02*
X61385714Y-97552380D01*
X61623809Y-96504761D02*
X61861904Y-97219047D01*
X61242857Y-97219047D01*
X60957142Y-96552380D02*
X60338095Y-96552380D01*
X60671428Y-96933333D01*
X60528571Y-96933333D01*
X60433333Y-96980952D01*
X60385714Y-97028571D01*
X60338095Y-97123809D01*
X60338095Y-97361904D01*
X60385714Y-97457142D01*
X60433333Y-97504761D01*
X60528571Y-97552380D01*
X60814285Y-97552380D01*
X60909523Y-97504761D01*
X60957142Y-97457142D01*
X30742857Y-73652380D02*
X31076190Y-73176190D01*
X31314285Y-73652380D02*
X31314285Y-72652380D01*
X30933333Y-72652380D01*
X30838095Y-72700000D01*
X30790476Y-72747619D01*
X30742857Y-72842857D01*
X30742857Y-72985714D01*
X30790476Y-73080952D01*
X30838095Y-73128571D01*
X30933333Y-73176190D01*
X31314285Y-73176190D01*
X29885714Y-72985714D02*
X29885714Y-73652380D01*
X30123809Y-72604761D02*
X30361904Y-73319047D01*
X29742857Y-73319047D01*
X28933333Y-72985714D02*
X28933333Y-73652380D01*
X29171428Y-72604761D02*
X29409523Y-73319047D01*
X28790476Y-73319047D01*
X25542857Y-73452380D02*
X25876190Y-72976190D01*
X26114285Y-73452380D02*
X26114285Y-72452380D01*
X25733333Y-72452380D01*
X25638095Y-72500000D01*
X25590476Y-72547619D01*
X25542857Y-72642857D01*
X25542857Y-72785714D01*
X25590476Y-72880952D01*
X25638095Y-72928571D01*
X25733333Y-72976190D01*
X26114285Y-72976190D01*
X24685714Y-72785714D02*
X24685714Y-73452380D01*
X24923809Y-72404761D02*
X25161904Y-73119047D01*
X24542857Y-73119047D01*
X23685714Y-72452380D02*
X24161904Y-72452380D01*
X24209523Y-72928571D01*
X24161904Y-72880952D01*
X24066666Y-72833333D01*
X23828571Y-72833333D01*
X23733333Y-72880952D01*
X23685714Y-72928571D01*
X23638095Y-73023809D01*
X23638095Y-73261904D01*
X23685714Y-73357142D01*
X23733333Y-73404761D01*
X23828571Y-73452380D01*
X24066666Y-73452380D01*
X24161904Y-73404761D01*
X24209523Y-73357142D01*
X68502857Y-71092380D02*
X68836190Y-70616190D01*
X69074285Y-71092380D02*
X69074285Y-70092380D01*
X68693333Y-70092380D01*
X68598095Y-70140000D01*
X68550476Y-70187619D01*
X68502857Y-70282857D01*
X68502857Y-70425714D01*
X68550476Y-70520952D01*
X68598095Y-70568571D01*
X68693333Y-70616190D01*
X69074285Y-70616190D01*
X67645714Y-70425714D02*
X67645714Y-71092380D01*
X67883809Y-70044761D02*
X68121904Y-70759047D01*
X67502857Y-70759047D01*
X67217142Y-70092380D02*
X66550476Y-70092380D01*
X66979047Y-71092380D01*
X74152380Y-58057142D02*
X73676190Y-57723809D01*
X74152380Y-57485714D02*
X73152380Y-57485714D01*
X73152380Y-57866666D01*
X73200000Y-57961904D01*
X73247619Y-58009523D01*
X73342857Y-58057142D01*
X73485714Y-58057142D01*
X73580952Y-58009523D01*
X73628571Y-57961904D01*
X73676190Y-57866666D01*
X73676190Y-57485714D01*
X73152380Y-58961904D02*
X73152380Y-58485714D01*
X73628571Y-58438095D01*
X73580952Y-58485714D01*
X73533333Y-58580952D01*
X73533333Y-58819047D01*
X73580952Y-58914285D01*
X73628571Y-58961904D01*
X73723809Y-59009523D01*
X73961904Y-59009523D01*
X74057142Y-58961904D01*
X74104761Y-58914285D01*
X74152380Y-58819047D01*
X74152380Y-58580952D01*
X74104761Y-58485714D01*
X74057142Y-58438095D01*
X73485714Y-59866666D02*
X74152380Y-59866666D01*
X73104761Y-59628571D02*
X73819047Y-59390476D01*
X73819047Y-60009523D01*
X80602857Y-70552380D02*
X80936190Y-70076190D01*
X81174285Y-70552380D02*
X81174285Y-69552380D01*
X80793333Y-69552380D01*
X80698095Y-69600000D01*
X80650476Y-69647619D01*
X80602857Y-69742857D01*
X80602857Y-69885714D01*
X80650476Y-69980952D01*
X80698095Y-70028571D01*
X80793333Y-70076190D01*
X81174285Y-70076190D01*
X79698095Y-69552380D02*
X80174285Y-69552380D01*
X80221904Y-70028571D01*
X80174285Y-69980952D01*
X80079047Y-69933333D01*
X79840952Y-69933333D01*
X79745714Y-69980952D01*
X79698095Y-70028571D01*
X79650476Y-70123809D01*
X79650476Y-70361904D01*
X79698095Y-70457142D01*
X79745714Y-70504761D01*
X79840952Y-70552380D01*
X80079047Y-70552380D01*
X80174285Y-70504761D01*
X80221904Y-70457142D01*
X79317142Y-69552380D02*
X78650476Y-69552380D01*
X79079047Y-70552380D01*
X68902857Y-73292380D02*
X69236190Y-72816190D01*
X69474285Y-73292380D02*
X69474285Y-72292380D01*
X69093333Y-72292380D01*
X68998095Y-72340000D01*
X68950476Y-72387619D01*
X68902857Y-72482857D01*
X68902857Y-72625714D01*
X68950476Y-72720952D01*
X68998095Y-72768571D01*
X69093333Y-72816190D01*
X69474285Y-72816190D01*
X67998095Y-72292380D02*
X68474285Y-72292380D01*
X68521904Y-72768571D01*
X68474285Y-72720952D01*
X68379047Y-72673333D01*
X68140952Y-72673333D01*
X68045714Y-72720952D01*
X67998095Y-72768571D01*
X67950476Y-72863809D01*
X67950476Y-73101904D01*
X67998095Y-73197142D01*
X68045714Y-73244761D01*
X68140952Y-73292380D01*
X68379047Y-73292380D01*
X68474285Y-73244761D01*
X68521904Y-73197142D01*
X67379047Y-72720952D02*
X67474285Y-72673333D01*
X67521904Y-72625714D01*
X67569523Y-72530476D01*
X67569523Y-72482857D01*
X67521904Y-72387619D01*
X67474285Y-72340000D01*
X67379047Y-72292380D01*
X67188571Y-72292380D01*
X67093333Y-72340000D01*
X67045714Y-72387619D01*
X66998095Y-72482857D01*
X66998095Y-72530476D01*
X67045714Y-72625714D01*
X67093333Y-72673333D01*
X67188571Y-72720952D01*
X67379047Y-72720952D01*
X67474285Y-72768571D01*
X67521904Y-72816190D01*
X67569523Y-72911428D01*
X67569523Y-73101904D01*
X67521904Y-73197142D01*
X67474285Y-73244761D01*
X67379047Y-73292380D01*
X67188571Y-73292380D01*
X67093333Y-73244761D01*
X67045714Y-73197142D01*
X66998095Y-73101904D01*
X66998095Y-72911428D01*
X67045714Y-72816190D01*
X67093333Y-72768571D01*
X67188571Y-72720952D01*
X82352380Y-64057142D02*
X81876190Y-63723809D01*
X82352380Y-63485714D02*
X81352380Y-63485714D01*
X81352380Y-63866666D01*
X81400000Y-63961904D01*
X81447619Y-64009523D01*
X81542857Y-64057142D01*
X81685714Y-64057142D01*
X81780952Y-64009523D01*
X81828571Y-63961904D01*
X81876190Y-63866666D01*
X81876190Y-63485714D01*
X81352380Y-64961904D02*
X81352380Y-64485714D01*
X81828571Y-64438095D01*
X81780952Y-64485714D01*
X81733333Y-64580952D01*
X81733333Y-64819047D01*
X81780952Y-64914285D01*
X81828571Y-64961904D01*
X81923809Y-65009523D01*
X82161904Y-65009523D01*
X82257142Y-64961904D01*
X82304761Y-64914285D01*
X82352380Y-64819047D01*
X82352380Y-64580952D01*
X82304761Y-64485714D01*
X82257142Y-64438095D01*
X82352380Y-65485714D02*
X82352380Y-65676190D01*
X82304761Y-65771428D01*
X82257142Y-65819047D01*
X82114285Y-65914285D01*
X81923809Y-65961904D01*
X81542857Y-65961904D01*
X81447619Y-65914285D01*
X81400000Y-65866666D01*
X81352380Y-65771428D01*
X81352380Y-65580952D01*
X81400000Y-65485714D01*
X81447619Y-65438095D01*
X81542857Y-65390476D01*
X81780952Y-65390476D01*
X81876190Y-65438095D01*
X81923809Y-65485714D01*
X81971428Y-65580952D01*
X81971428Y-65771428D01*
X81923809Y-65866666D01*
X81876190Y-65914285D01*
X81780952Y-65961904D01*
X77452380Y-66957142D02*
X76976190Y-66623809D01*
X77452380Y-66385714D02*
X76452380Y-66385714D01*
X76452380Y-66766666D01*
X76500000Y-66861904D01*
X76547619Y-66909523D01*
X76642857Y-66957142D01*
X76785714Y-66957142D01*
X76880952Y-66909523D01*
X76928571Y-66861904D01*
X76976190Y-66766666D01*
X76976190Y-66385714D01*
X76452380Y-67814285D02*
X76452380Y-67623809D01*
X76500000Y-67528571D01*
X76547619Y-67480952D01*
X76690476Y-67385714D01*
X76880952Y-67338095D01*
X77261904Y-67338095D01*
X77357142Y-67385714D01*
X77404761Y-67433333D01*
X77452380Y-67528571D01*
X77452380Y-67719047D01*
X77404761Y-67814285D01*
X77357142Y-67861904D01*
X77261904Y-67909523D01*
X77023809Y-67909523D01*
X76928571Y-67861904D01*
X76880952Y-67814285D01*
X76833333Y-67719047D01*
X76833333Y-67528571D01*
X76880952Y-67433333D01*
X76928571Y-67385714D01*
X77023809Y-67338095D01*
X76452380Y-68528571D02*
X76452380Y-68623809D01*
X76500000Y-68719047D01*
X76547619Y-68766666D01*
X76642857Y-68814285D01*
X76833333Y-68861904D01*
X77071428Y-68861904D01*
X77261904Y-68814285D01*
X77357142Y-68766666D01*
X77404761Y-68719047D01*
X77452380Y-68623809D01*
X77452380Y-68528571D01*
X77404761Y-68433333D01*
X77357142Y-68385714D01*
X77261904Y-68338095D01*
X77071428Y-68290476D01*
X76833333Y-68290476D01*
X76642857Y-68338095D01*
X76547619Y-68385714D01*
X76500000Y-68433333D01*
X76452380Y-68528571D01*
X32002380Y-94457142D02*
X31526190Y-94123809D01*
X32002380Y-93885714D02*
X31002380Y-93885714D01*
X31002380Y-94266666D01*
X31050000Y-94361904D01*
X31097619Y-94409523D01*
X31192857Y-94457142D01*
X31335714Y-94457142D01*
X31430952Y-94409523D01*
X31478571Y-94361904D01*
X31526190Y-94266666D01*
X31526190Y-93885714D01*
X31002380Y-95314285D02*
X31002380Y-95123809D01*
X31050000Y-95028571D01*
X31097619Y-94980952D01*
X31240476Y-94885714D01*
X31430952Y-94838095D01*
X31811904Y-94838095D01*
X31907142Y-94885714D01*
X31954761Y-94933333D01*
X32002380Y-95028571D01*
X32002380Y-95219047D01*
X31954761Y-95314285D01*
X31907142Y-95361904D01*
X31811904Y-95409523D01*
X31573809Y-95409523D01*
X31478571Y-95361904D01*
X31430952Y-95314285D01*
X31383333Y-95219047D01*
X31383333Y-95028571D01*
X31430952Y-94933333D01*
X31478571Y-94885714D01*
X31573809Y-94838095D01*
X32002380Y-96361904D02*
X32002380Y-95790476D01*
X32002380Y-96076190D02*
X31002380Y-96076190D01*
X31145238Y-95980952D01*
X31240476Y-95885714D01*
X31288095Y-95790476D01*
X18142857Y-73352380D02*
X18476190Y-72876190D01*
X18714285Y-73352380D02*
X18714285Y-72352380D01*
X18333333Y-72352380D01*
X18238095Y-72400000D01*
X18190476Y-72447619D01*
X18142857Y-72542857D01*
X18142857Y-72685714D01*
X18190476Y-72780952D01*
X18238095Y-72828571D01*
X18333333Y-72876190D01*
X18714285Y-72876190D01*
X17285714Y-72352380D02*
X17476190Y-72352380D01*
X17571428Y-72400000D01*
X17619047Y-72447619D01*
X17714285Y-72590476D01*
X17761904Y-72780952D01*
X17761904Y-73161904D01*
X17714285Y-73257142D01*
X17666666Y-73304761D01*
X17571428Y-73352380D01*
X17380952Y-73352380D01*
X17285714Y-73304761D01*
X17238095Y-73257142D01*
X17190476Y-73161904D01*
X17190476Y-72923809D01*
X17238095Y-72828571D01*
X17285714Y-72780952D01*
X17380952Y-72733333D01*
X17571428Y-72733333D01*
X17666666Y-72780952D01*
X17714285Y-72828571D01*
X17761904Y-72923809D01*
X16809523Y-72447619D02*
X16761904Y-72400000D01*
X16666666Y-72352380D01*
X16428571Y-72352380D01*
X16333333Y-72400000D01*
X16285714Y-72447619D01*
X16238095Y-72542857D01*
X16238095Y-72638095D01*
X16285714Y-72780952D01*
X16857142Y-73352380D01*
X16238095Y-73352380D01*
X24342857Y-64882380D02*
X24676190Y-64406190D01*
X24914285Y-64882380D02*
X24914285Y-63882380D01*
X24533333Y-63882380D01*
X24438095Y-63930000D01*
X24390476Y-63977619D01*
X24342857Y-64072857D01*
X24342857Y-64215714D01*
X24390476Y-64310952D01*
X24438095Y-64358571D01*
X24533333Y-64406190D01*
X24914285Y-64406190D01*
X23485714Y-63882380D02*
X23676190Y-63882380D01*
X23771428Y-63930000D01*
X23819047Y-63977619D01*
X23914285Y-64120476D01*
X23961904Y-64310952D01*
X23961904Y-64691904D01*
X23914285Y-64787142D01*
X23866666Y-64834761D01*
X23771428Y-64882380D01*
X23580952Y-64882380D01*
X23485714Y-64834761D01*
X23438095Y-64787142D01*
X23390476Y-64691904D01*
X23390476Y-64453809D01*
X23438095Y-64358571D01*
X23485714Y-64310952D01*
X23580952Y-64263333D01*
X23771428Y-64263333D01*
X23866666Y-64310952D01*
X23914285Y-64358571D01*
X23961904Y-64453809D01*
X23057142Y-63882380D02*
X22438095Y-63882380D01*
X22771428Y-64263333D01*
X22628571Y-64263333D01*
X22533333Y-64310952D01*
X22485714Y-64358571D01*
X22438095Y-64453809D01*
X22438095Y-64691904D01*
X22485714Y-64787142D01*
X22533333Y-64834761D01*
X22628571Y-64882380D01*
X22914285Y-64882380D01*
X23009523Y-64834761D01*
X23057142Y-64787142D01*
X39902380Y-88557142D02*
X39426190Y-88223809D01*
X39902380Y-87985714D02*
X38902380Y-87985714D01*
X38902380Y-88366666D01*
X38950000Y-88461904D01*
X38997619Y-88509523D01*
X39092857Y-88557142D01*
X39235714Y-88557142D01*
X39330952Y-88509523D01*
X39378571Y-88461904D01*
X39426190Y-88366666D01*
X39426190Y-87985714D01*
X38902380Y-89414285D02*
X38902380Y-89223809D01*
X38950000Y-89128571D01*
X38997619Y-89080952D01*
X39140476Y-88985714D01*
X39330952Y-88938095D01*
X39711904Y-88938095D01*
X39807142Y-88985714D01*
X39854761Y-89033333D01*
X39902380Y-89128571D01*
X39902380Y-89319047D01*
X39854761Y-89414285D01*
X39807142Y-89461904D01*
X39711904Y-89509523D01*
X39473809Y-89509523D01*
X39378571Y-89461904D01*
X39330952Y-89414285D01*
X39283333Y-89319047D01*
X39283333Y-89128571D01*
X39330952Y-89033333D01*
X39378571Y-88985714D01*
X39473809Y-88938095D01*
X39235714Y-90366666D02*
X39902380Y-90366666D01*
X38854761Y-90128571D02*
X39569047Y-89890476D01*
X39569047Y-90509523D01*
X47752380Y-91957142D02*
X47276190Y-91623809D01*
X47752380Y-91385714D02*
X46752380Y-91385714D01*
X46752380Y-91766666D01*
X46800000Y-91861904D01*
X46847619Y-91909523D01*
X46942857Y-91957142D01*
X47085714Y-91957142D01*
X47180952Y-91909523D01*
X47228571Y-91861904D01*
X47276190Y-91766666D01*
X47276190Y-91385714D01*
X46752380Y-92814285D02*
X46752380Y-92623809D01*
X46800000Y-92528571D01*
X46847619Y-92480952D01*
X46990476Y-92385714D01*
X47180952Y-92338095D01*
X47561904Y-92338095D01*
X47657142Y-92385714D01*
X47704761Y-92433333D01*
X47752380Y-92528571D01*
X47752380Y-92719047D01*
X47704761Y-92814285D01*
X47657142Y-92861904D01*
X47561904Y-92909523D01*
X47323809Y-92909523D01*
X47228571Y-92861904D01*
X47180952Y-92814285D01*
X47133333Y-92719047D01*
X47133333Y-92528571D01*
X47180952Y-92433333D01*
X47228571Y-92385714D01*
X47323809Y-92338095D01*
X46752380Y-93814285D02*
X46752380Y-93338095D01*
X47228571Y-93290476D01*
X47180952Y-93338095D01*
X47133333Y-93433333D01*
X47133333Y-93671428D01*
X47180952Y-93766666D01*
X47228571Y-93814285D01*
X47323809Y-93861904D01*
X47561904Y-93861904D01*
X47657142Y-93814285D01*
X47704761Y-93766666D01*
X47752380Y-93671428D01*
X47752380Y-93433333D01*
X47704761Y-93338095D01*
X47657142Y-93290476D01*
X49542857Y-96252380D02*
X49876190Y-95776190D01*
X50114285Y-96252380D02*
X50114285Y-95252380D01*
X49733333Y-95252380D01*
X49638095Y-95300000D01*
X49590476Y-95347619D01*
X49542857Y-95442857D01*
X49542857Y-95585714D01*
X49590476Y-95680952D01*
X49638095Y-95728571D01*
X49733333Y-95776190D01*
X50114285Y-95776190D01*
X48590476Y-96252380D02*
X49161904Y-96252380D01*
X48876190Y-96252380D02*
X48876190Y-95252380D01*
X48971428Y-95395238D01*
X49066666Y-95490476D01*
X49161904Y-95538095D01*
X47638095Y-96252380D02*
X48209523Y-96252380D01*
X47923809Y-96252380D02*
X47923809Y-95252380D01*
X48019047Y-95395238D01*
X48114285Y-95490476D01*
X48209523Y-95538095D01*
M02*
