M48
; DRILL file {KiCad (5.1.5)-3} date 2/22/2020 10:02:42 PM
; FORMAT={-:-/ absolute / metric / decimal}
; #@! TF.CreationDate,2020-02-22T22:02:42-05:00
; #@! TF.GenerationSoftware,Kicad,Pcbnew,(5.1.5)-3
; #@! TF.FileFunction,Plated,1,2,PTH
FMAT,2
METRIC
T1C0.400
T2C0.750
T3C0.800
T4C0.900
T5C1.000
T6C1.100
T7C1.200
%
G90
G05
T1
X2.9Y-63.88
X3.5Y-78.525
X9.9Y-76.5
X11.9Y-83.2
X11.9Y-84.2
X12.2Y-88.8
X13.7Y-89.45
X13.7Y-90.8
X14.95Y-72.58
X17.05Y-85.6
X18.65Y-85.8
X19.35Y-92.3
X19.5Y-71.08
X20.05Y-80.0
X20.3Y-56.105
X21.6Y-87.45
X23.2Y-71.18
X24.25Y-64.25
X28.275Y-80.975
X29.9Y-87.7
X31.4Y-95.2
X33.1Y-95.55
X38.0Y-83.0
X39.4Y-61.65
X39.8Y-81.9
X40.5Y-52.58
X40.5Y-55.78
X40.6Y-95.475
X41.1Y-90.225
X41.3Y-80.7
X44.57Y-93.172
X44.85Y-66.25
X45.0Y-75.0
X46.0Y-81.0
X47.3Y-93.55
X51.56Y-61.09
X51.672Y-68.502
X53.65Y-75.125
X54.2Y-78.475
X59.25Y-68.3
X61.1Y-63.35
X61.16Y-70.89
X61.325Y-90.0
X62.96Y-61.77
X65.26Y-74.49
X66.3Y-88.4
X68.26Y-66.89
X68.6Y-87.5
X71.56Y-57.89
X73.8Y-60.6
X76.4Y-80.9
X77.435Y-76.315
X77.76Y-74.39
X79.2Y-84.025
X80.2Y-79.4
X82.4Y-84.025
X83.75Y-74.3
X88.51Y-85.62
T2
X61.45Y-96.85
X62.72Y-96.85
X63.99Y-96.85
X84.475Y-84.02
X85.745Y-84.02
X87.015Y-84.02
X90.095Y-84.02
X91.365Y-84.02
X92.635Y-84.02
T3
X88.775Y-76.75
X91.275Y-76.75
X60.06Y-78.99
X65.06Y-78.99
X17.8Y-87.6
X17.8Y-90.1
X76.4Y-91.8
X76.4Y-93.8
X64.16Y-63.99
X64.16Y-66.53
X64.16Y-69.07
X64.16Y-71.61
X71.78Y-63.99
X71.78Y-66.53
X71.78Y-69.07
X71.78Y-71.61
X75.56Y-63.99
X75.56Y-66.53
X75.56Y-69.07
X75.56Y-71.61
X83.18Y-63.99
X83.18Y-66.53
X83.18Y-69.07
X83.18Y-71.61
X81.225Y-89.75
X81.225Y-92.29
X81.225Y-94.83
X81.225Y-97.37
X88.845Y-89.75
X88.845Y-92.29
X88.845Y-94.83
X88.845Y-97.37
X68.06Y-78.99
X73.06Y-78.99
X50.55Y-76.55
X50.55Y-80.05
X6.5Y-76.5
X6.5Y-79.04
X6.5Y-81.58
X6.5Y-84.12
X14.12Y-76.5
X14.12Y-79.04
X14.12Y-81.58
X14.12Y-84.12
X49.36Y-63.99
X49.36Y-66.53
X49.36Y-69.07
X49.36Y-71.61
X56.98Y-63.99
X56.98Y-66.53
X56.98Y-69.07
X56.98Y-71.61
X31.9Y-86.1
X31.9Y-91.1
X70.7Y-91.6
X70.7Y-93.6
X35.7Y-82.9
X35.7Y-85.44
X35.7Y-87.98
X35.7Y-90.52
X43.32Y-82.9
X43.32Y-85.44
X43.32Y-87.98
X43.32Y-90.52
X56.86Y-74.69
X56.86Y-79.69
X13.0Y-57.6
X15.5Y-57.6
X88.8Y-60.2
X88.8Y-62.7
X27.7Y-86.1
X27.7Y-91.1
X20.13Y-60.48
X20.13Y-68.1
X22.67Y-60.48
X22.67Y-68.1
X25.21Y-60.48
X25.21Y-68.1
X27.75Y-60.48
X27.75Y-68.1
X42.7Y-61.23
X42.7Y-64.73
X66.35Y-84.68
X66.35Y-92.3
X46.6Y-85.9
X51.6Y-85.9
X36.93Y-77.7
X44.55Y-77.7
X20.1Y-73.65
X20.1Y-77.15
X55.63Y-84.7
X55.63Y-92.32
X58.17Y-84.7
X58.17Y-92.32
X60.71Y-84.7
X60.71Y-92.32
X63.25Y-84.7
X63.25Y-92.32
X33.7Y-70.33
X33.7Y-73.83
X42.7Y-70.33
X42.7Y-73.83
X46.6Y-90.1
X51.6Y-90.1
X68.46Y-74.99
X73.46Y-74.99
X26.83Y-78.85
X34.45Y-78.85
X33.7Y-61.23
X33.7Y-64.73
X10.0Y-88.0
X10.0Y-93.0
T4
X50.8Y-97.46
X53.34Y-97.46
X55.88Y-97.46
X58.42Y-97.46
T5
X43.18Y-94.92
X43.18Y-97.46
X45.72Y-94.92
X45.72Y-97.46
X78.74Y-51.74
X78.74Y-54.28
X10.16Y-51.74
X12.7Y-51.74
X15.24Y-51.74
X9.46Y-97.46
X12.0Y-97.46
X88.9Y-51.74
X88.9Y-54.28
X71.12Y-84.76
X73.66Y-84.76
X58.42Y-51.74
X58.42Y-54.28
X83.82Y-51.74
X83.82Y-54.28
X83.82Y-56.82
X68.58Y-97.46
X71.12Y-97.46
X73.66Y-97.46
X17.78Y-97.46
X20.32Y-97.46
X22.86Y-97.46
X25.4Y-97.46
X27.94Y-97.46
X30.48Y-97.46
X43.18Y-51.74
X43.18Y-54.28
X43.18Y-56.82
X48.26Y-51.74
X50.8Y-51.74
X53.34Y-51.74
X38.1Y-51.74
X38.1Y-54.28
X20.32Y-51.74
X22.86Y-51.74
X69.21Y-55.64
X71.71Y-50.64
X74.21Y-55.64
X27.94Y-51.74
X27.94Y-54.28
X27.94Y-56.82
X23.5Y-81.3
X23.5Y-83.84
X23.5Y-86.38
X23.5Y-88.92
X23.5Y-91.46
X96.52Y-77.14
X96.52Y-79.68
X96.52Y-82.22
X33.02Y-51.74
X33.02Y-54.28
X33.02Y-56.82
X61.76Y-55.69
X64.26Y-50.69
X66.76Y-55.69
X35.56Y-94.92
X35.56Y-97.46
X38.1Y-94.92
X38.1Y-97.46
X3.0Y-88.46
X3.0Y-91.0
X96.52Y-66.98
X96.52Y-69.52
X96.52Y-72.06
X96.52Y-59.36
X96.52Y-61.9
T6
X8.33Y-66.68
X15.95Y-66.68
X8.33Y-63.28
X15.95Y-63.28
X8.35Y-70.28
X15.97Y-70.28
X5.2Y-62.91
X5.2Y-70.53
T7
X47.05Y-55.93
X59.317Y-59.217
T0
M30
