G04 #@! TF.GenerationSoftware,KiCad,Pcbnew,(5.1.5)-3*
G04 #@! TF.CreationDate,2020-02-17T21:39:41-05:00*
G04 #@! TF.ProjectId,Preamplifier,50726561-6d70-46c6-9966-6965722e6b69,rev?*
G04 #@! TF.SameCoordinates,Original*
G04 #@! TF.FileFunction,Soldermask,Top*
G04 #@! TF.FilePolarity,Negative*
%FSLAX46Y46*%
G04 Gerber Fmt 4.6, Leading zero omitted, Abs format (unit mm)*
G04 Created by KiCad (PCBNEW (5.1.5)-3) date 2020-02-17 21:39:41*
%MOMM*%
%LPD*%
G04 APERTURE LIST*
%ADD10C,0.100000*%
G04 APERTURE END LIST*
D10*
G36*
X58697395Y-96545546D02*
G01*
X58870466Y-96617234D01*
X58870467Y-96617235D01*
X59026227Y-96721310D01*
X59158690Y-96853773D01*
X59158691Y-96853775D01*
X59262766Y-97009534D01*
X59334454Y-97182605D01*
X59371000Y-97366333D01*
X59371000Y-97553667D01*
X59334454Y-97737395D01*
X59262766Y-97910466D01*
X59211081Y-97987818D01*
X59158690Y-98066227D01*
X59026227Y-98198690D01*
X58947818Y-98251081D01*
X58870466Y-98302766D01*
X58697395Y-98374454D01*
X58513667Y-98411000D01*
X58326333Y-98411000D01*
X58142605Y-98374454D01*
X57969534Y-98302766D01*
X57892182Y-98251081D01*
X57813773Y-98198690D01*
X57681310Y-98066227D01*
X57628919Y-97987818D01*
X57577234Y-97910466D01*
X57505546Y-97737395D01*
X57469000Y-97553667D01*
X57469000Y-97366333D01*
X57505546Y-97182605D01*
X57577234Y-97009534D01*
X57681309Y-96853775D01*
X57681310Y-96853773D01*
X57813773Y-96721310D01*
X57969533Y-96617235D01*
X57969534Y-96617234D01*
X58142605Y-96545546D01*
X58326333Y-96509000D01*
X58513667Y-96509000D01*
X58697395Y-96545546D01*
G37*
G36*
X56831000Y-98411000D02*
G01*
X54929000Y-98411000D01*
X54929000Y-96509000D01*
X56831000Y-96509000D01*
X56831000Y-98411000D01*
G37*
G36*
X53617395Y-96545546D02*
G01*
X53790466Y-96617234D01*
X53790467Y-96617235D01*
X53946227Y-96721310D01*
X54078690Y-96853773D01*
X54078691Y-96853775D01*
X54182766Y-97009534D01*
X54254454Y-97182605D01*
X54291000Y-97366333D01*
X54291000Y-97553667D01*
X54254454Y-97737395D01*
X54182766Y-97910466D01*
X54131081Y-97987818D01*
X54078690Y-98066227D01*
X53946227Y-98198690D01*
X53867818Y-98251081D01*
X53790466Y-98302766D01*
X53617395Y-98374454D01*
X53433667Y-98411000D01*
X53246333Y-98411000D01*
X53062605Y-98374454D01*
X52889534Y-98302766D01*
X52812182Y-98251081D01*
X52733773Y-98198690D01*
X52601310Y-98066227D01*
X52548919Y-97987818D01*
X52497234Y-97910466D01*
X52425546Y-97737395D01*
X52389000Y-97553667D01*
X52389000Y-97366333D01*
X52425546Y-97182605D01*
X52497234Y-97009534D01*
X52601309Y-96853775D01*
X52601310Y-96853773D01*
X52733773Y-96721310D01*
X52889533Y-96617235D01*
X52889534Y-96617234D01*
X53062605Y-96545546D01*
X53246333Y-96509000D01*
X53433667Y-96509000D01*
X53617395Y-96545546D01*
G37*
G36*
X51751000Y-98411000D02*
G01*
X49849000Y-98411000D01*
X49849000Y-96509000D01*
X51751000Y-96509000D01*
X51751000Y-98411000D01*
G37*
G36*
X71233512Y-96563927D02*
G01*
X71382812Y-96593624D01*
X71546784Y-96661544D01*
X71694354Y-96760147D01*
X71819853Y-96885646D01*
X71918456Y-97033216D01*
X71986376Y-97197188D01*
X72016073Y-97346488D01*
X72020162Y-97367043D01*
X72021000Y-97371259D01*
X72021000Y-97548741D01*
X71986376Y-97722812D01*
X71918456Y-97886784D01*
X71819853Y-98034354D01*
X71694354Y-98159853D01*
X71546784Y-98258456D01*
X71382812Y-98326376D01*
X71233512Y-98356073D01*
X71208742Y-98361000D01*
X71031258Y-98361000D01*
X71006488Y-98356073D01*
X70857188Y-98326376D01*
X70693216Y-98258456D01*
X70545646Y-98159853D01*
X70420147Y-98034354D01*
X70321544Y-97886784D01*
X70253624Y-97722812D01*
X70219000Y-97548741D01*
X70219000Y-97371259D01*
X70219839Y-97367043D01*
X70223927Y-97346488D01*
X70253624Y-97197188D01*
X70321544Y-97033216D01*
X70420147Y-96885646D01*
X70545646Y-96760147D01*
X70693216Y-96661544D01*
X70857188Y-96593624D01*
X71006488Y-96563927D01*
X71031258Y-96559000D01*
X71208742Y-96559000D01*
X71233512Y-96563927D01*
G37*
G36*
X18681000Y-98361000D02*
G01*
X16879000Y-98361000D01*
X16879000Y-96559000D01*
X18681000Y-96559000D01*
X18681000Y-98361000D01*
G37*
G36*
X20433512Y-96563927D02*
G01*
X20582812Y-96593624D01*
X20746784Y-96661544D01*
X20894354Y-96760147D01*
X21019853Y-96885646D01*
X21118456Y-97033216D01*
X21186376Y-97197188D01*
X21216073Y-97346488D01*
X21220162Y-97367043D01*
X21221000Y-97371259D01*
X21221000Y-97548741D01*
X21186376Y-97722812D01*
X21118456Y-97886784D01*
X21019853Y-98034354D01*
X20894354Y-98159853D01*
X20746784Y-98258456D01*
X20582812Y-98326376D01*
X20433512Y-98356073D01*
X20408742Y-98361000D01*
X20231258Y-98361000D01*
X20206488Y-98356073D01*
X20057188Y-98326376D01*
X19893216Y-98258456D01*
X19745646Y-98159853D01*
X19620147Y-98034354D01*
X19521544Y-97886784D01*
X19453624Y-97722812D01*
X19419000Y-97548741D01*
X19419000Y-97371259D01*
X19419839Y-97367043D01*
X19423927Y-97346488D01*
X19453624Y-97197188D01*
X19521544Y-97033216D01*
X19620147Y-96885646D01*
X19745646Y-96760147D01*
X19893216Y-96661544D01*
X20057188Y-96593624D01*
X20206488Y-96563927D01*
X20231258Y-96559000D01*
X20408742Y-96559000D01*
X20433512Y-96563927D01*
G37*
G36*
X22973512Y-96563927D02*
G01*
X23122812Y-96593624D01*
X23286784Y-96661544D01*
X23434354Y-96760147D01*
X23559853Y-96885646D01*
X23658456Y-97033216D01*
X23726376Y-97197188D01*
X23756073Y-97346488D01*
X23760162Y-97367043D01*
X23761000Y-97371259D01*
X23761000Y-97548741D01*
X23726376Y-97722812D01*
X23658456Y-97886784D01*
X23559853Y-98034354D01*
X23434354Y-98159853D01*
X23286784Y-98258456D01*
X23122812Y-98326376D01*
X22973512Y-98356073D01*
X22948742Y-98361000D01*
X22771258Y-98361000D01*
X22746488Y-98356073D01*
X22597188Y-98326376D01*
X22433216Y-98258456D01*
X22285646Y-98159853D01*
X22160147Y-98034354D01*
X22061544Y-97886784D01*
X21993624Y-97722812D01*
X21959000Y-97548741D01*
X21959000Y-97371259D01*
X21959839Y-97367043D01*
X21963927Y-97346488D01*
X21993624Y-97197188D01*
X22061544Y-97033216D01*
X22160147Y-96885646D01*
X22285646Y-96760147D01*
X22433216Y-96661544D01*
X22597188Y-96593624D01*
X22746488Y-96563927D01*
X22771258Y-96559000D01*
X22948742Y-96559000D01*
X22973512Y-96563927D01*
G37*
G36*
X25513512Y-96563927D02*
G01*
X25662812Y-96593624D01*
X25826784Y-96661544D01*
X25974354Y-96760147D01*
X26099853Y-96885646D01*
X26198456Y-97033216D01*
X26266376Y-97197188D01*
X26296073Y-97346488D01*
X26300162Y-97367043D01*
X26301000Y-97371259D01*
X26301000Y-97548741D01*
X26266376Y-97722812D01*
X26198456Y-97886784D01*
X26099853Y-98034354D01*
X25974354Y-98159853D01*
X25826784Y-98258456D01*
X25662812Y-98326376D01*
X25513512Y-98356073D01*
X25488742Y-98361000D01*
X25311258Y-98361000D01*
X25286488Y-98356073D01*
X25137188Y-98326376D01*
X24973216Y-98258456D01*
X24825646Y-98159853D01*
X24700147Y-98034354D01*
X24601544Y-97886784D01*
X24533624Y-97722812D01*
X24499000Y-97548741D01*
X24499000Y-97371259D01*
X24499839Y-97367043D01*
X24503927Y-97346488D01*
X24533624Y-97197188D01*
X24601544Y-97033216D01*
X24700147Y-96885646D01*
X24825646Y-96760147D01*
X24973216Y-96661544D01*
X25137188Y-96593624D01*
X25286488Y-96563927D01*
X25311258Y-96559000D01*
X25488742Y-96559000D01*
X25513512Y-96563927D01*
G37*
G36*
X28053512Y-96563927D02*
G01*
X28202812Y-96593624D01*
X28366784Y-96661544D01*
X28514354Y-96760147D01*
X28639853Y-96885646D01*
X28738456Y-97033216D01*
X28806376Y-97197188D01*
X28836073Y-97346488D01*
X28840162Y-97367043D01*
X28841000Y-97371259D01*
X28841000Y-97548741D01*
X28806376Y-97722812D01*
X28738456Y-97886784D01*
X28639853Y-98034354D01*
X28514354Y-98159853D01*
X28366784Y-98258456D01*
X28202812Y-98326376D01*
X28053512Y-98356073D01*
X28028742Y-98361000D01*
X27851258Y-98361000D01*
X27826488Y-98356073D01*
X27677188Y-98326376D01*
X27513216Y-98258456D01*
X27365646Y-98159853D01*
X27240147Y-98034354D01*
X27141544Y-97886784D01*
X27073624Y-97722812D01*
X27039000Y-97548741D01*
X27039000Y-97371259D01*
X27039839Y-97367043D01*
X27043927Y-97346488D01*
X27073624Y-97197188D01*
X27141544Y-97033216D01*
X27240147Y-96885646D01*
X27365646Y-96760147D01*
X27513216Y-96661544D01*
X27677188Y-96593624D01*
X27826488Y-96563927D01*
X27851258Y-96559000D01*
X28028742Y-96559000D01*
X28053512Y-96563927D01*
G37*
G36*
X30593512Y-96563927D02*
G01*
X30742812Y-96593624D01*
X30906784Y-96661544D01*
X31054354Y-96760147D01*
X31179853Y-96885646D01*
X31278456Y-97033216D01*
X31346376Y-97197188D01*
X31376073Y-97346488D01*
X31380162Y-97367043D01*
X31381000Y-97371259D01*
X31381000Y-97548741D01*
X31346376Y-97722812D01*
X31278456Y-97886784D01*
X31179853Y-98034354D01*
X31054354Y-98159853D01*
X30906784Y-98258456D01*
X30742812Y-98326376D01*
X30593512Y-98356073D01*
X30568742Y-98361000D01*
X30391258Y-98361000D01*
X30366488Y-98356073D01*
X30217188Y-98326376D01*
X30053216Y-98258456D01*
X29905646Y-98159853D01*
X29780147Y-98034354D01*
X29681544Y-97886784D01*
X29613624Y-97722812D01*
X29579000Y-97548741D01*
X29579000Y-97371259D01*
X29579839Y-97367043D01*
X29583927Y-97346488D01*
X29613624Y-97197188D01*
X29681544Y-97033216D01*
X29780147Y-96885646D01*
X29905646Y-96760147D01*
X30053216Y-96661544D01*
X30217188Y-96593624D01*
X30366488Y-96563927D01*
X30391258Y-96559000D01*
X30568742Y-96559000D01*
X30593512Y-96563927D01*
G37*
G36*
X73773512Y-96563927D02*
G01*
X73922812Y-96593624D01*
X74086784Y-96661544D01*
X74234354Y-96760147D01*
X74359853Y-96885646D01*
X74458456Y-97033216D01*
X74526376Y-97197188D01*
X74556073Y-97346488D01*
X74560162Y-97367043D01*
X74561000Y-97371259D01*
X74561000Y-97548741D01*
X74526376Y-97722812D01*
X74458456Y-97886784D01*
X74359853Y-98034354D01*
X74234354Y-98159853D01*
X74086784Y-98258456D01*
X73922812Y-98326376D01*
X73773512Y-98356073D01*
X73748742Y-98361000D01*
X73571258Y-98361000D01*
X73546488Y-98356073D01*
X73397188Y-98326376D01*
X73233216Y-98258456D01*
X73085646Y-98159853D01*
X72960147Y-98034354D01*
X72861544Y-97886784D01*
X72793624Y-97722812D01*
X72759000Y-97548741D01*
X72759000Y-97371259D01*
X72759839Y-97367043D01*
X72763927Y-97346488D01*
X72793624Y-97197188D01*
X72861544Y-97033216D01*
X72960147Y-96885646D01*
X73085646Y-96760147D01*
X73233216Y-96661544D01*
X73397188Y-96593624D01*
X73546488Y-96563927D01*
X73571258Y-96559000D01*
X73748742Y-96559000D01*
X73773512Y-96563927D01*
G37*
G36*
X35673512Y-96563927D02*
G01*
X35822812Y-96593624D01*
X35986784Y-96661544D01*
X36134354Y-96760147D01*
X36259853Y-96885646D01*
X36358456Y-97033216D01*
X36426376Y-97197188D01*
X36456073Y-97346488D01*
X36460162Y-97367043D01*
X36461000Y-97371259D01*
X36461000Y-97548741D01*
X36426376Y-97722812D01*
X36358456Y-97886784D01*
X36259853Y-98034354D01*
X36134354Y-98159853D01*
X35986784Y-98258456D01*
X35822812Y-98326376D01*
X35673512Y-98356073D01*
X35648742Y-98361000D01*
X35471258Y-98361000D01*
X35446488Y-98356073D01*
X35297188Y-98326376D01*
X35133216Y-98258456D01*
X34985646Y-98159853D01*
X34860147Y-98034354D01*
X34761544Y-97886784D01*
X34693624Y-97722812D01*
X34659000Y-97548741D01*
X34659000Y-97371259D01*
X34659839Y-97367043D01*
X34663927Y-97346488D01*
X34693624Y-97197188D01*
X34761544Y-97033216D01*
X34860147Y-96885646D01*
X34985646Y-96760147D01*
X35133216Y-96661544D01*
X35297188Y-96593624D01*
X35446488Y-96563927D01*
X35471258Y-96559000D01*
X35648742Y-96559000D01*
X35673512Y-96563927D01*
G37*
G36*
X69481000Y-98361000D02*
G01*
X67679000Y-98361000D01*
X67679000Y-96559000D01*
X69481000Y-96559000D01*
X69481000Y-98361000D01*
G37*
G36*
X45833512Y-96563927D02*
G01*
X45982812Y-96593624D01*
X46146784Y-96661544D01*
X46294354Y-96760147D01*
X46419853Y-96885646D01*
X46518456Y-97033216D01*
X46586376Y-97197188D01*
X46616073Y-97346488D01*
X46620162Y-97367043D01*
X46621000Y-97371259D01*
X46621000Y-97548741D01*
X46586376Y-97722812D01*
X46518456Y-97886784D01*
X46419853Y-98034354D01*
X46294354Y-98159853D01*
X46146784Y-98258456D01*
X45982812Y-98326376D01*
X45833512Y-98356073D01*
X45808742Y-98361000D01*
X45631258Y-98361000D01*
X45606488Y-98356073D01*
X45457188Y-98326376D01*
X45293216Y-98258456D01*
X45145646Y-98159853D01*
X45020147Y-98034354D01*
X44921544Y-97886784D01*
X44853624Y-97722812D01*
X44819000Y-97548741D01*
X44819000Y-97371259D01*
X44819839Y-97367043D01*
X44823927Y-97346488D01*
X44853624Y-97197188D01*
X44921544Y-97033216D01*
X45020147Y-96885646D01*
X45145646Y-96760147D01*
X45293216Y-96661544D01*
X45457188Y-96593624D01*
X45606488Y-96563927D01*
X45631258Y-96559000D01*
X45808742Y-96559000D01*
X45833512Y-96563927D01*
G37*
G36*
X43293512Y-96563927D02*
G01*
X43442812Y-96593624D01*
X43606784Y-96661544D01*
X43754354Y-96760147D01*
X43879853Y-96885646D01*
X43978456Y-97033216D01*
X44046376Y-97197188D01*
X44076073Y-97346488D01*
X44080162Y-97367043D01*
X44081000Y-97371259D01*
X44081000Y-97548741D01*
X44046376Y-97722812D01*
X43978456Y-97886784D01*
X43879853Y-98034354D01*
X43754354Y-98159853D01*
X43606784Y-98258456D01*
X43442812Y-98326376D01*
X43293512Y-98356073D01*
X43268742Y-98361000D01*
X43091258Y-98361000D01*
X43066488Y-98356073D01*
X42917188Y-98326376D01*
X42753216Y-98258456D01*
X42605646Y-98159853D01*
X42480147Y-98034354D01*
X42381544Y-97886784D01*
X42313624Y-97722812D01*
X42279000Y-97548741D01*
X42279000Y-97371259D01*
X42279839Y-97367043D01*
X42283927Y-97346488D01*
X42313624Y-97197188D01*
X42381544Y-97033216D01*
X42480147Y-96885646D01*
X42605646Y-96760147D01*
X42753216Y-96661544D01*
X42917188Y-96593624D01*
X43066488Y-96563927D01*
X43091258Y-96559000D01*
X43268742Y-96559000D01*
X43293512Y-96563927D01*
G37*
G36*
X9573512Y-96563927D02*
G01*
X9722812Y-96593624D01*
X9886784Y-96661544D01*
X10034354Y-96760147D01*
X10159853Y-96885646D01*
X10258456Y-97033216D01*
X10326376Y-97197188D01*
X10356073Y-97346488D01*
X10360162Y-97367043D01*
X10361000Y-97371259D01*
X10361000Y-97548741D01*
X10326376Y-97722812D01*
X10258456Y-97886784D01*
X10159853Y-98034354D01*
X10034354Y-98159853D01*
X9886784Y-98258456D01*
X9722812Y-98326376D01*
X9573512Y-98356073D01*
X9548742Y-98361000D01*
X9371258Y-98361000D01*
X9346488Y-98356073D01*
X9197188Y-98326376D01*
X9033216Y-98258456D01*
X8885646Y-98159853D01*
X8760147Y-98034354D01*
X8661544Y-97886784D01*
X8593624Y-97722812D01*
X8559000Y-97548741D01*
X8559000Y-97371259D01*
X8559839Y-97367043D01*
X8563927Y-97346488D01*
X8593624Y-97197188D01*
X8661544Y-97033216D01*
X8760147Y-96885646D01*
X8885646Y-96760147D01*
X9033216Y-96661544D01*
X9197188Y-96593624D01*
X9346488Y-96563927D01*
X9371258Y-96559000D01*
X9548742Y-96559000D01*
X9573512Y-96563927D01*
G37*
G36*
X38213512Y-96563927D02*
G01*
X38362812Y-96593624D01*
X38526784Y-96661544D01*
X38674354Y-96760147D01*
X38799853Y-96885646D01*
X38898456Y-97033216D01*
X38966376Y-97197188D01*
X38996073Y-97346488D01*
X39000162Y-97367043D01*
X39001000Y-97371259D01*
X39001000Y-97548741D01*
X38966376Y-97722812D01*
X38898456Y-97886784D01*
X38799853Y-98034354D01*
X38674354Y-98159853D01*
X38526784Y-98258456D01*
X38362812Y-98326376D01*
X38213512Y-98356073D01*
X38188742Y-98361000D01*
X38011258Y-98361000D01*
X37986488Y-98356073D01*
X37837188Y-98326376D01*
X37673216Y-98258456D01*
X37525646Y-98159853D01*
X37400147Y-98034354D01*
X37301544Y-97886784D01*
X37233624Y-97722812D01*
X37199000Y-97548741D01*
X37199000Y-97371259D01*
X37199839Y-97367043D01*
X37203927Y-97346488D01*
X37233624Y-97197188D01*
X37301544Y-97033216D01*
X37400147Y-96885646D01*
X37525646Y-96760147D01*
X37673216Y-96661544D01*
X37837188Y-96593624D01*
X37986488Y-96563927D01*
X38011258Y-96559000D01*
X38188742Y-96559000D01*
X38213512Y-96563927D01*
G37*
G36*
X12901000Y-98361000D02*
G01*
X11099000Y-98361000D01*
X11099000Y-96559000D01*
X12901000Y-96559000D01*
X12901000Y-98361000D01*
G37*
G36*
X81473228Y-96551703D02*
G01*
X81628100Y-96615853D01*
X81767481Y-96708985D01*
X81886015Y-96827519D01*
X81979147Y-96966900D01*
X82043297Y-97121772D01*
X82076000Y-97286184D01*
X82076000Y-97453816D01*
X82043297Y-97618228D01*
X81979147Y-97773100D01*
X81886015Y-97912481D01*
X81767481Y-98031015D01*
X81628100Y-98124147D01*
X81473228Y-98188297D01*
X81308816Y-98221000D01*
X81141184Y-98221000D01*
X80976772Y-98188297D01*
X80821900Y-98124147D01*
X80682519Y-98031015D01*
X80563985Y-97912481D01*
X80470853Y-97773100D01*
X80406703Y-97618228D01*
X80374000Y-97453816D01*
X80374000Y-97286184D01*
X80406703Y-97121772D01*
X80470853Y-96966900D01*
X80563985Y-96827519D01*
X80682519Y-96708985D01*
X80821900Y-96615853D01*
X80976772Y-96551703D01*
X81141184Y-96519000D01*
X81308816Y-96519000D01*
X81473228Y-96551703D01*
G37*
G36*
X89093228Y-96551703D02*
G01*
X89248100Y-96615853D01*
X89387481Y-96708985D01*
X89506015Y-96827519D01*
X89599147Y-96966900D01*
X89663297Y-97121772D01*
X89696000Y-97286184D01*
X89696000Y-97453816D01*
X89663297Y-97618228D01*
X89599147Y-97773100D01*
X89506015Y-97912481D01*
X89387481Y-98031015D01*
X89248100Y-98124147D01*
X89093228Y-98188297D01*
X88928816Y-98221000D01*
X88761184Y-98221000D01*
X88596772Y-98188297D01*
X88441900Y-98124147D01*
X88302519Y-98031015D01*
X88183985Y-97912481D01*
X88090853Y-97773100D01*
X88026703Y-97618228D01*
X87994000Y-97453816D01*
X87994000Y-97286184D01*
X88026703Y-97121772D01*
X88090853Y-96966900D01*
X88183985Y-96827519D01*
X88302519Y-96708985D01*
X88441900Y-96615853D01*
X88596772Y-96551703D01*
X88761184Y-96519000D01*
X88928816Y-96519000D01*
X89093228Y-96551703D01*
G37*
G36*
X64102915Y-96057334D02*
G01*
X64211491Y-96090271D01*
X64211494Y-96090272D01*
X64247600Y-96109571D01*
X64311556Y-96143756D01*
X64399264Y-96215736D01*
X64471244Y-96303443D01*
X64505429Y-96367399D01*
X64524728Y-96403505D01*
X64524729Y-96403508D01*
X64557666Y-96512084D01*
X64566000Y-96596702D01*
X64566000Y-97103297D01*
X64557666Y-97187916D01*
X64525252Y-97294767D01*
X64524728Y-97296495D01*
X64514761Y-97315141D01*
X64471244Y-97396557D01*
X64399264Y-97484264D01*
X64311557Y-97556244D01*
X64252981Y-97587553D01*
X64211495Y-97609728D01*
X64211492Y-97609729D01*
X64102916Y-97642666D01*
X63990000Y-97653787D01*
X63877085Y-97642666D01*
X63768509Y-97609729D01*
X63768506Y-97609728D01*
X63727020Y-97587553D01*
X63668444Y-97556244D01*
X63580737Y-97484264D01*
X63508757Y-97396557D01*
X63465239Y-97315141D01*
X63451625Y-97294766D01*
X63434298Y-97277439D01*
X63413924Y-97263826D01*
X63391285Y-97254448D01*
X63367252Y-97249668D01*
X63342748Y-97249668D01*
X63318715Y-97254448D01*
X63296076Y-97263826D01*
X63275701Y-97277440D01*
X63258374Y-97294767D01*
X63244761Y-97315141D01*
X63201244Y-97396557D01*
X63129264Y-97484264D01*
X63041557Y-97556244D01*
X62982981Y-97587553D01*
X62941495Y-97609728D01*
X62941492Y-97609729D01*
X62832916Y-97642666D01*
X62720000Y-97653787D01*
X62607085Y-97642666D01*
X62498509Y-97609729D01*
X62498506Y-97609728D01*
X62457020Y-97587553D01*
X62398444Y-97556244D01*
X62310737Y-97484264D01*
X62247622Y-97407359D01*
X62230297Y-97390034D01*
X62209923Y-97376420D01*
X62187284Y-97367043D01*
X62163250Y-97362263D01*
X62138746Y-97362263D01*
X62114713Y-97367044D01*
X62092074Y-97376421D01*
X62071700Y-97390035D01*
X62054373Y-97407362D01*
X62040759Y-97427736D01*
X62031382Y-97450375D01*
X62026000Y-97486660D01*
X62026000Y-97651000D01*
X60874000Y-97651000D01*
X60874000Y-96049000D01*
X62026000Y-96049000D01*
X62026000Y-96213341D01*
X62028402Y-96237727D01*
X62035515Y-96261176D01*
X62047066Y-96282787D01*
X62062611Y-96301729D01*
X62081553Y-96317274D01*
X62103164Y-96328825D01*
X62126613Y-96335938D01*
X62150999Y-96338340D01*
X62175385Y-96335938D01*
X62198834Y-96328825D01*
X62220445Y-96317274D01*
X62239387Y-96301729D01*
X62247608Y-96292657D01*
X62310736Y-96215736D01*
X62398443Y-96143756D01*
X62462399Y-96109571D01*
X62498505Y-96090272D01*
X62498508Y-96090271D01*
X62607084Y-96057334D01*
X62720000Y-96046213D01*
X62832915Y-96057334D01*
X62941491Y-96090271D01*
X62941494Y-96090272D01*
X62977600Y-96109571D01*
X63041556Y-96143756D01*
X63129264Y-96215736D01*
X63201244Y-96303443D01*
X63244761Y-96384859D01*
X63258375Y-96405234D01*
X63275702Y-96422561D01*
X63296076Y-96436174D01*
X63318715Y-96445552D01*
X63342748Y-96450332D01*
X63367252Y-96450332D01*
X63391285Y-96445552D01*
X63413924Y-96436174D01*
X63434299Y-96422560D01*
X63451626Y-96405233D01*
X63465239Y-96384860D01*
X63508756Y-96303444D01*
X63580736Y-96215736D01*
X63668443Y-96143756D01*
X63732399Y-96109571D01*
X63768505Y-96090272D01*
X63768508Y-96090271D01*
X63877084Y-96057334D01*
X63990000Y-96046213D01*
X64102915Y-96057334D01*
G37*
G36*
X96375256Y-94391298D02*
G01*
X96481579Y-94412447D01*
X96782042Y-94536903D01*
X97052451Y-94717585D01*
X97282415Y-94947549D01*
X97463097Y-95217958D01*
X97577584Y-95494353D01*
X97587553Y-95518422D01*
X97651000Y-95837389D01*
X97651000Y-96162611D01*
X97622986Y-96303444D01*
X97587553Y-96481579D01*
X97558506Y-96551705D01*
X97488254Y-96721309D01*
X97463097Y-96782042D01*
X97282415Y-97052451D01*
X97052451Y-97282415D01*
X96782042Y-97463097D01*
X96782041Y-97463098D01*
X96782040Y-97463098D01*
X96725156Y-97486660D01*
X96481579Y-97587553D01*
X96375256Y-97608702D01*
X96162611Y-97651000D01*
X95837389Y-97651000D01*
X95624744Y-97608702D01*
X95518421Y-97587553D01*
X95274844Y-97486660D01*
X95217960Y-97463098D01*
X95217959Y-97463098D01*
X95217958Y-97463097D01*
X94947549Y-97282415D01*
X94717585Y-97052451D01*
X94536903Y-96782042D01*
X94511747Y-96721309D01*
X94441494Y-96551705D01*
X94412447Y-96481579D01*
X94377014Y-96303444D01*
X94349000Y-96162611D01*
X94349000Y-95837389D01*
X94412447Y-95518422D01*
X94422417Y-95494353D01*
X94536903Y-95217958D01*
X94717585Y-94947549D01*
X94947549Y-94717585D01*
X95217958Y-94536903D01*
X95518421Y-94412447D01*
X95624744Y-94391298D01*
X95837389Y-94349000D01*
X96162611Y-94349000D01*
X96375256Y-94391298D01*
G37*
G36*
X4375256Y-94391298D02*
G01*
X4481579Y-94412447D01*
X4782042Y-94536903D01*
X5052451Y-94717585D01*
X5282415Y-94947549D01*
X5463097Y-95217958D01*
X5577584Y-95494353D01*
X5587553Y-95518422D01*
X5651000Y-95837389D01*
X5651000Y-96162611D01*
X5622986Y-96303444D01*
X5587553Y-96481579D01*
X5558506Y-96551705D01*
X5488254Y-96721309D01*
X5463097Y-96782042D01*
X5282415Y-97052451D01*
X5052451Y-97282415D01*
X4782042Y-97463097D01*
X4782041Y-97463098D01*
X4782040Y-97463098D01*
X4725156Y-97486660D01*
X4481579Y-97587553D01*
X4375256Y-97608702D01*
X4162611Y-97651000D01*
X3837389Y-97651000D01*
X3624744Y-97608702D01*
X3518421Y-97587553D01*
X3274844Y-97486660D01*
X3217960Y-97463098D01*
X3217959Y-97463098D01*
X3217958Y-97463097D01*
X2947549Y-97282415D01*
X2717585Y-97052451D01*
X2536903Y-96782042D01*
X2511747Y-96721309D01*
X2441494Y-96551705D01*
X2412447Y-96481579D01*
X2377014Y-96303444D01*
X2349000Y-96162611D01*
X2349000Y-95837389D01*
X2412447Y-95518422D01*
X2422417Y-95494353D01*
X2536903Y-95217958D01*
X2717585Y-94947549D01*
X2947549Y-94717585D01*
X3217958Y-94536903D01*
X3518421Y-94412447D01*
X3624744Y-94391298D01*
X3837389Y-94349000D01*
X4162611Y-94349000D01*
X4375256Y-94391298D01*
G37*
G36*
X39001000Y-95821000D02*
G01*
X37199000Y-95821000D01*
X37199000Y-94019000D01*
X39001000Y-94019000D01*
X39001000Y-95821000D01*
G37*
G36*
X35673512Y-94023927D02*
G01*
X35822812Y-94053624D01*
X35986784Y-94121544D01*
X36134354Y-94220147D01*
X36259853Y-94345646D01*
X36358456Y-94493216D01*
X36426376Y-94657188D01*
X36461000Y-94831259D01*
X36461000Y-95008741D01*
X36426376Y-95182812D01*
X36358456Y-95346784D01*
X36259853Y-95494354D01*
X36134354Y-95619853D01*
X35986784Y-95718456D01*
X35822812Y-95786376D01*
X35673512Y-95816073D01*
X35648742Y-95821000D01*
X35471258Y-95821000D01*
X35446488Y-95816073D01*
X35297188Y-95786376D01*
X35133216Y-95718456D01*
X34985646Y-95619853D01*
X34860147Y-95494354D01*
X34761544Y-95346784D01*
X34693624Y-95182812D01*
X34659000Y-95008741D01*
X34659000Y-94831259D01*
X34693624Y-94657188D01*
X34761544Y-94493216D01*
X34860147Y-94345646D01*
X34985646Y-94220147D01*
X35133216Y-94121544D01*
X35297188Y-94053624D01*
X35446488Y-94023927D01*
X35471258Y-94019000D01*
X35648742Y-94019000D01*
X35673512Y-94023927D01*
G37*
G36*
X43293512Y-94023927D02*
G01*
X43442812Y-94053624D01*
X43606784Y-94121544D01*
X43754354Y-94220147D01*
X43879853Y-94345646D01*
X43978456Y-94493216D01*
X44046376Y-94657188D01*
X44081000Y-94831259D01*
X44081000Y-95008741D01*
X44046376Y-95182812D01*
X43978456Y-95346784D01*
X43879853Y-95494354D01*
X43754354Y-95619853D01*
X43606784Y-95718456D01*
X43442812Y-95786376D01*
X43293512Y-95816073D01*
X43268742Y-95821000D01*
X43091258Y-95821000D01*
X43066488Y-95816073D01*
X42917188Y-95786376D01*
X42753216Y-95718456D01*
X42605646Y-95619853D01*
X42480147Y-95494354D01*
X42381544Y-95346784D01*
X42313624Y-95182812D01*
X42279000Y-95008741D01*
X42279000Y-94831259D01*
X42313624Y-94657188D01*
X42381544Y-94493216D01*
X42480147Y-94345646D01*
X42605646Y-94220147D01*
X42753216Y-94121544D01*
X42917188Y-94053624D01*
X43066488Y-94023927D01*
X43091258Y-94019000D01*
X43268742Y-94019000D01*
X43293512Y-94023927D01*
G37*
G36*
X46621000Y-95821000D02*
G01*
X44819000Y-95821000D01*
X44819000Y-94019000D01*
X46621000Y-94019000D01*
X46621000Y-95821000D01*
G37*
G36*
X81473228Y-94011703D02*
G01*
X81628100Y-94075853D01*
X81767481Y-94168985D01*
X81886015Y-94287519D01*
X81979147Y-94426900D01*
X82043297Y-94581772D01*
X82076000Y-94746184D01*
X82076000Y-94913816D01*
X82043297Y-95078228D01*
X81979147Y-95233100D01*
X81886015Y-95372481D01*
X81767481Y-95491015D01*
X81628100Y-95584147D01*
X81473228Y-95648297D01*
X81308816Y-95681000D01*
X81141184Y-95681000D01*
X80976772Y-95648297D01*
X80821900Y-95584147D01*
X80682519Y-95491015D01*
X80563985Y-95372481D01*
X80470853Y-95233100D01*
X80406703Y-95078228D01*
X80374000Y-94913816D01*
X80374000Y-94746184D01*
X80406703Y-94581772D01*
X80470853Y-94426900D01*
X80563985Y-94287519D01*
X80682519Y-94168985D01*
X80821900Y-94075853D01*
X80976772Y-94011703D01*
X81141184Y-93979000D01*
X81308816Y-93979000D01*
X81473228Y-94011703D01*
G37*
G36*
X89093228Y-94011703D02*
G01*
X89248100Y-94075853D01*
X89387481Y-94168985D01*
X89506015Y-94287519D01*
X89599147Y-94426900D01*
X89663297Y-94581772D01*
X89696000Y-94746184D01*
X89696000Y-94913816D01*
X89663297Y-95078228D01*
X89599147Y-95233100D01*
X89506015Y-95372481D01*
X89387481Y-95491015D01*
X89248100Y-95584147D01*
X89093228Y-95648297D01*
X88928816Y-95681000D01*
X88761184Y-95681000D01*
X88596772Y-95648297D01*
X88441900Y-95584147D01*
X88302519Y-95491015D01*
X88183985Y-95372481D01*
X88090853Y-95233100D01*
X88026703Y-95078228D01*
X87994000Y-94913816D01*
X87994000Y-94746184D01*
X88026703Y-94581772D01*
X88090853Y-94426900D01*
X88183985Y-94287519D01*
X88302519Y-94168985D01*
X88441900Y-94075853D01*
X88596772Y-94011703D01*
X88761184Y-93979000D01*
X88928816Y-93979000D01*
X89093228Y-94011703D01*
G37*
G36*
X53288674Y-94203465D02*
G01*
X53326367Y-94214899D01*
X53361103Y-94233466D01*
X53391548Y-94258452D01*
X53416534Y-94288897D01*
X53435101Y-94323633D01*
X53446535Y-94361326D01*
X53451000Y-94406661D01*
X53451000Y-95243339D01*
X53446535Y-95288674D01*
X53435101Y-95326367D01*
X53416534Y-95361103D01*
X53391548Y-95391548D01*
X53361103Y-95416534D01*
X53326367Y-95435101D01*
X53288674Y-95446535D01*
X53243339Y-95451000D01*
X52156661Y-95451000D01*
X52111326Y-95446535D01*
X52073633Y-95435101D01*
X52038897Y-95416534D01*
X52008452Y-95391548D01*
X51983466Y-95361103D01*
X51964899Y-95326367D01*
X51953465Y-95288674D01*
X51949000Y-95243339D01*
X51949000Y-94406661D01*
X51953465Y-94361326D01*
X51964899Y-94323633D01*
X51983466Y-94288897D01*
X52008452Y-94258452D01*
X52038897Y-94233466D01*
X52073633Y-94214899D01*
X52111326Y-94203465D01*
X52156661Y-94199000D01*
X53243339Y-94199000D01*
X53288674Y-94203465D01*
G37*
G36*
X77251000Y-94651000D02*
G01*
X75549000Y-94651000D01*
X75549000Y-92949000D01*
X77251000Y-92949000D01*
X77251000Y-94651000D01*
G37*
G36*
X71551000Y-94451000D02*
G01*
X69849000Y-94451000D01*
X69849000Y-92749000D01*
X71551000Y-92749000D01*
X71551000Y-94451000D01*
G37*
G36*
X10248228Y-92181703D02*
G01*
X10403100Y-92245853D01*
X10542481Y-92338985D01*
X10661015Y-92457519D01*
X10754147Y-92596900D01*
X10818297Y-92751772D01*
X10851000Y-92916184D01*
X10851000Y-93083816D01*
X10818297Y-93248228D01*
X10754147Y-93403100D01*
X10661015Y-93542481D01*
X10542481Y-93661015D01*
X10403100Y-93754147D01*
X10248228Y-93818297D01*
X10083816Y-93851000D01*
X9916184Y-93851000D01*
X9751772Y-93818297D01*
X9596900Y-93754147D01*
X9457519Y-93661015D01*
X9338985Y-93542481D01*
X9245853Y-93403100D01*
X9181703Y-93248228D01*
X9149000Y-93083816D01*
X9149000Y-92916184D01*
X9181703Y-92751772D01*
X9245853Y-92596900D01*
X9338985Y-92457519D01*
X9457519Y-92338985D01*
X9596900Y-92245853D01*
X9751772Y-92181703D01*
X9916184Y-92149000D01*
X10083816Y-92149000D01*
X10248228Y-92181703D01*
G37*
G36*
X53288674Y-92153465D02*
G01*
X53326367Y-92164899D01*
X53361103Y-92183466D01*
X53391548Y-92208452D01*
X53416534Y-92238897D01*
X53435101Y-92273633D01*
X53446535Y-92311326D01*
X53451000Y-92356661D01*
X53451000Y-93193339D01*
X53446535Y-93238674D01*
X53435101Y-93276367D01*
X53416534Y-93311103D01*
X53391548Y-93341548D01*
X53361103Y-93366534D01*
X53326367Y-93385101D01*
X53288674Y-93396535D01*
X53243339Y-93401000D01*
X52156661Y-93401000D01*
X52111326Y-93396535D01*
X52073633Y-93385101D01*
X52038897Y-93366534D01*
X52008452Y-93341548D01*
X51983466Y-93311103D01*
X51964899Y-93276367D01*
X51953465Y-93238674D01*
X51949000Y-93193339D01*
X51949000Y-92356661D01*
X51953465Y-92311326D01*
X51964899Y-92273633D01*
X51983466Y-92238897D01*
X52008452Y-92208452D01*
X52038897Y-92183466D01*
X52073633Y-92164899D01*
X52111326Y-92153465D01*
X52156661Y-92149000D01*
X53243339Y-92149000D01*
X53288674Y-92153465D01*
G37*
G36*
X55878228Y-91501703D02*
G01*
X56033100Y-91565853D01*
X56172481Y-91658985D01*
X56291015Y-91777519D01*
X56384147Y-91916900D01*
X56448297Y-92071772D01*
X56481000Y-92236184D01*
X56481000Y-92403816D01*
X56448297Y-92568228D01*
X56384147Y-92723100D01*
X56291015Y-92862481D01*
X56172481Y-92981015D01*
X56033100Y-93074147D01*
X55878228Y-93138297D01*
X55713816Y-93171000D01*
X55546184Y-93171000D01*
X55381772Y-93138297D01*
X55226900Y-93074147D01*
X55087519Y-92981015D01*
X54968985Y-92862481D01*
X54875853Y-92723100D01*
X54811703Y-92568228D01*
X54779000Y-92403816D01*
X54779000Y-92236184D01*
X54811703Y-92071772D01*
X54875853Y-91916900D01*
X54968985Y-91777519D01*
X55087519Y-91658985D01*
X55226900Y-91565853D01*
X55381772Y-91501703D01*
X55546184Y-91469000D01*
X55713816Y-91469000D01*
X55878228Y-91501703D01*
G37*
G36*
X58418228Y-91501703D02*
G01*
X58573100Y-91565853D01*
X58712481Y-91658985D01*
X58831015Y-91777519D01*
X58924147Y-91916900D01*
X58988297Y-92071772D01*
X59021000Y-92236184D01*
X59021000Y-92403816D01*
X58988297Y-92568228D01*
X58924147Y-92723100D01*
X58831015Y-92862481D01*
X58712481Y-92981015D01*
X58573100Y-93074147D01*
X58418228Y-93138297D01*
X58253816Y-93171000D01*
X58086184Y-93171000D01*
X57921772Y-93138297D01*
X57766900Y-93074147D01*
X57627519Y-92981015D01*
X57508985Y-92862481D01*
X57415853Y-92723100D01*
X57351703Y-92568228D01*
X57319000Y-92403816D01*
X57319000Y-92236184D01*
X57351703Y-92071772D01*
X57415853Y-91916900D01*
X57508985Y-91777519D01*
X57627519Y-91658985D01*
X57766900Y-91565853D01*
X57921772Y-91501703D01*
X58086184Y-91469000D01*
X58253816Y-91469000D01*
X58418228Y-91501703D01*
G37*
G36*
X60958228Y-91501703D02*
G01*
X61113100Y-91565853D01*
X61252481Y-91658985D01*
X61371015Y-91777519D01*
X61464147Y-91916900D01*
X61528297Y-92071772D01*
X61561000Y-92236184D01*
X61561000Y-92403816D01*
X61528297Y-92568228D01*
X61464147Y-92723100D01*
X61371015Y-92862481D01*
X61252481Y-92981015D01*
X61113100Y-93074147D01*
X60958228Y-93138297D01*
X60793816Y-93171000D01*
X60626184Y-93171000D01*
X60461772Y-93138297D01*
X60306900Y-93074147D01*
X60167519Y-92981015D01*
X60048985Y-92862481D01*
X59955853Y-92723100D01*
X59891703Y-92568228D01*
X59859000Y-92403816D01*
X59859000Y-92236184D01*
X59891703Y-92071772D01*
X59955853Y-91916900D01*
X60048985Y-91777519D01*
X60167519Y-91658985D01*
X60306900Y-91565853D01*
X60461772Y-91501703D01*
X60626184Y-91469000D01*
X60793816Y-91469000D01*
X60958228Y-91501703D01*
G37*
G36*
X63498228Y-91501703D02*
G01*
X63653100Y-91565853D01*
X63792481Y-91658985D01*
X63911015Y-91777519D01*
X64004147Y-91916900D01*
X64068297Y-92071772D01*
X64101000Y-92236184D01*
X64101000Y-92403816D01*
X64068297Y-92568228D01*
X64004147Y-92723100D01*
X63911015Y-92862481D01*
X63792481Y-92981015D01*
X63653100Y-93074147D01*
X63498228Y-93138297D01*
X63333816Y-93171000D01*
X63166184Y-93171000D01*
X63001772Y-93138297D01*
X62846900Y-93074147D01*
X62707519Y-92981015D01*
X62588985Y-92862481D01*
X62495853Y-92723100D01*
X62431703Y-92568228D01*
X62399000Y-92403816D01*
X62399000Y-92236184D01*
X62431703Y-92071772D01*
X62495853Y-91916900D01*
X62588985Y-91777519D01*
X62707519Y-91658985D01*
X62846900Y-91565853D01*
X63001772Y-91501703D01*
X63166184Y-91469000D01*
X63333816Y-91469000D01*
X63498228Y-91501703D01*
G37*
G36*
X67201000Y-93151000D02*
G01*
X65499000Y-93151000D01*
X65499000Y-91449000D01*
X67201000Y-91449000D01*
X67201000Y-93151000D01*
G37*
G36*
X89093228Y-91471703D02*
G01*
X89248100Y-91535853D01*
X89387481Y-91628985D01*
X89506015Y-91747519D01*
X89599147Y-91886900D01*
X89663297Y-92041772D01*
X89696000Y-92206184D01*
X89696000Y-92373816D01*
X89663297Y-92538228D01*
X89599147Y-92693100D01*
X89506015Y-92832481D01*
X89387481Y-92951015D01*
X89248100Y-93044147D01*
X89093228Y-93108297D01*
X88928816Y-93141000D01*
X88761184Y-93141000D01*
X88596772Y-93108297D01*
X88441900Y-93044147D01*
X88302519Y-92951015D01*
X88183985Y-92832481D01*
X88090853Y-92693100D01*
X88026703Y-92538228D01*
X87994000Y-92373816D01*
X87994000Y-92206184D01*
X88026703Y-92041772D01*
X88090853Y-91886900D01*
X88183985Y-91747519D01*
X88302519Y-91628985D01*
X88441900Y-91535853D01*
X88596772Y-91471703D01*
X88761184Y-91439000D01*
X88928816Y-91439000D01*
X89093228Y-91471703D01*
G37*
G36*
X81473228Y-91471703D02*
G01*
X81628100Y-91535853D01*
X81767481Y-91628985D01*
X81886015Y-91747519D01*
X81979147Y-91886900D01*
X82043297Y-92041772D01*
X82076000Y-92206184D01*
X82076000Y-92373816D01*
X82043297Y-92538228D01*
X81979147Y-92693100D01*
X81886015Y-92832481D01*
X81767481Y-92951015D01*
X81628100Y-93044147D01*
X81473228Y-93108297D01*
X81308816Y-93141000D01*
X81141184Y-93141000D01*
X80976772Y-93108297D01*
X80821900Y-93044147D01*
X80682519Y-92951015D01*
X80563985Y-92832481D01*
X80470853Y-92693100D01*
X80406703Y-92538228D01*
X80374000Y-92373816D01*
X80374000Y-92206184D01*
X80406703Y-92041772D01*
X80470853Y-91886900D01*
X80563985Y-91747519D01*
X80682519Y-91628985D01*
X80821900Y-91535853D01*
X80976772Y-91471703D01*
X81141184Y-91439000D01*
X81308816Y-91439000D01*
X81473228Y-91471703D01*
G37*
G36*
X76648228Y-90981703D02*
G01*
X76803100Y-91045853D01*
X76942481Y-91138985D01*
X77061015Y-91257519D01*
X77154147Y-91396900D01*
X77218297Y-91551772D01*
X77251000Y-91716184D01*
X77251000Y-91883816D01*
X77218297Y-92048228D01*
X77154147Y-92203100D01*
X77061015Y-92342481D01*
X76942481Y-92461015D01*
X76803100Y-92554147D01*
X76648228Y-92618297D01*
X76483816Y-92651000D01*
X76316184Y-92651000D01*
X76151772Y-92618297D01*
X75996900Y-92554147D01*
X75857519Y-92461015D01*
X75738985Y-92342481D01*
X75645853Y-92203100D01*
X75581703Y-92048228D01*
X75549000Y-91883816D01*
X75549000Y-91716184D01*
X75581703Y-91551772D01*
X75645853Y-91396900D01*
X75738985Y-91257519D01*
X75857519Y-91138985D01*
X75996900Y-91045853D01*
X76151772Y-90981703D01*
X76316184Y-90949000D01*
X76483816Y-90949000D01*
X76648228Y-90981703D01*
G37*
G36*
X70948228Y-90781703D02*
G01*
X71103100Y-90845853D01*
X71242481Y-90938985D01*
X71361015Y-91057519D01*
X71454147Y-91196900D01*
X71518297Y-91351772D01*
X71551000Y-91516184D01*
X71551000Y-91683816D01*
X71518297Y-91848228D01*
X71454147Y-92003100D01*
X71361015Y-92142481D01*
X71242481Y-92261015D01*
X71103100Y-92354147D01*
X70948228Y-92418297D01*
X70783816Y-92451000D01*
X70616184Y-92451000D01*
X70451772Y-92418297D01*
X70296900Y-92354147D01*
X70157519Y-92261015D01*
X70038985Y-92142481D01*
X69945853Y-92003100D01*
X69881703Y-91848228D01*
X69849000Y-91683816D01*
X69849000Y-91516184D01*
X69881703Y-91351772D01*
X69945853Y-91196900D01*
X70038985Y-91057519D01*
X70157519Y-90938985D01*
X70296900Y-90845853D01*
X70451772Y-90781703D01*
X70616184Y-90749000D01*
X70783816Y-90749000D01*
X70948228Y-90781703D01*
G37*
G36*
X23613512Y-90563927D02*
G01*
X23762812Y-90593624D01*
X23926784Y-90661544D01*
X24074354Y-90760147D01*
X24199853Y-90885646D01*
X24298456Y-91033216D01*
X24366376Y-91197188D01*
X24394443Y-91338295D01*
X24401000Y-91371258D01*
X24401000Y-91548742D01*
X24397596Y-91565853D01*
X24366376Y-91722812D01*
X24298456Y-91886784D01*
X24199853Y-92034354D01*
X24074354Y-92159853D01*
X23926784Y-92258456D01*
X23762812Y-92326376D01*
X23623194Y-92354147D01*
X23588742Y-92361000D01*
X23411258Y-92361000D01*
X23376806Y-92354147D01*
X23237188Y-92326376D01*
X23073216Y-92258456D01*
X22925646Y-92159853D01*
X22800147Y-92034354D01*
X22701544Y-91886784D01*
X22633624Y-91722812D01*
X22602404Y-91565853D01*
X22599000Y-91548742D01*
X22599000Y-91371258D01*
X22605557Y-91338295D01*
X22633624Y-91197188D01*
X22701544Y-91033216D01*
X22800147Y-90885646D01*
X22925646Y-90760147D01*
X23073216Y-90661544D01*
X23237188Y-90593624D01*
X23386488Y-90563927D01*
X23411258Y-90559000D01*
X23588742Y-90559000D01*
X23613512Y-90563927D01*
G37*
G36*
X32148228Y-90281703D02*
G01*
X32303100Y-90345853D01*
X32442481Y-90438985D01*
X32561015Y-90557519D01*
X32654147Y-90696900D01*
X32718297Y-90851772D01*
X32751000Y-91016184D01*
X32751000Y-91183816D01*
X32718297Y-91348228D01*
X32654147Y-91503100D01*
X32561015Y-91642481D01*
X32442481Y-91761015D01*
X32303100Y-91854147D01*
X32148228Y-91918297D01*
X31983816Y-91951000D01*
X31816184Y-91951000D01*
X31651772Y-91918297D01*
X31496900Y-91854147D01*
X31357519Y-91761015D01*
X31238985Y-91642481D01*
X31145853Y-91503100D01*
X31081703Y-91348228D01*
X31049000Y-91183816D01*
X31049000Y-91016184D01*
X31081703Y-90851772D01*
X31145853Y-90696900D01*
X31238985Y-90557519D01*
X31357519Y-90438985D01*
X31496900Y-90345853D01*
X31651772Y-90281703D01*
X31816184Y-90249000D01*
X31983816Y-90249000D01*
X32148228Y-90281703D01*
G37*
G36*
X27948228Y-90281703D02*
G01*
X28103100Y-90345853D01*
X28242481Y-90438985D01*
X28361015Y-90557519D01*
X28454147Y-90696900D01*
X28518297Y-90851772D01*
X28551000Y-91016184D01*
X28551000Y-91183816D01*
X28518297Y-91348228D01*
X28454147Y-91503100D01*
X28361015Y-91642481D01*
X28242481Y-91761015D01*
X28103100Y-91854147D01*
X27948228Y-91918297D01*
X27783816Y-91951000D01*
X27616184Y-91951000D01*
X27451772Y-91918297D01*
X27296900Y-91854147D01*
X27157519Y-91761015D01*
X27038985Y-91642481D01*
X26945853Y-91503100D01*
X26881703Y-91348228D01*
X26849000Y-91183816D01*
X26849000Y-91016184D01*
X26881703Y-90851772D01*
X26945853Y-90696900D01*
X27038985Y-90557519D01*
X27157519Y-90438985D01*
X27296900Y-90345853D01*
X27451772Y-90281703D01*
X27616184Y-90249000D01*
X27783816Y-90249000D01*
X27948228Y-90281703D01*
G37*
G36*
X3901000Y-91901000D02*
G01*
X2099000Y-91901000D01*
X2099000Y-90099000D01*
X3901000Y-90099000D01*
X3901000Y-91901000D01*
G37*
G36*
X35948228Y-89701703D02*
G01*
X36103100Y-89765853D01*
X36242481Y-89858985D01*
X36361015Y-89977519D01*
X36454147Y-90116900D01*
X36518297Y-90271772D01*
X36551000Y-90436184D01*
X36551000Y-90603816D01*
X36518297Y-90768228D01*
X36454147Y-90923100D01*
X36361015Y-91062481D01*
X36242481Y-91181015D01*
X36103100Y-91274147D01*
X35948228Y-91338297D01*
X35783816Y-91371000D01*
X35616184Y-91371000D01*
X35451772Y-91338297D01*
X35296900Y-91274147D01*
X35157519Y-91181015D01*
X35038985Y-91062481D01*
X34945853Y-90923100D01*
X34881703Y-90768228D01*
X34849000Y-90603816D01*
X34849000Y-90436184D01*
X34881703Y-90271772D01*
X34945853Y-90116900D01*
X35038985Y-89977519D01*
X35157519Y-89858985D01*
X35296900Y-89765853D01*
X35451772Y-89701703D01*
X35616184Y-89669000D01*
X35783816Y-89669000D01*
X35948228Y-89701703D01*
G37*
G36*
X43568228Y-89701703D02*
G01*
X43723100Y-89765853D01*
X43862481Y-89858985D01*
X43981015Y-89977519D01*
X44074147Y-90116900D01*
X44138297Y-90271772D01*
X44171000Y-90436184D01*
X44171000Y-90603816D01*
X44138297Y-90768228D01*
X44074147Y-90923100D01*
X43981015Y-91062481D01*
X43862481Y-91181015D01*
X43723100Y-91274147D01*
X43568228Y-91338297D01*
X43403816Y-91371000D01*
X43236184Y-91371000D01*
X43071772Y-91338297D01*
X42916900Y-91274147D01*
X42777519Y-91181015D01*
X42658985Y-91062481D01*
X42565853Y-90923100D01*
X42501703Y-90768228D01*
X42469000Y-90603816D01*
X42469000Y-90436184D01*
X42501703Y-90271772D01*
X42565853Y-90116900D01*
X42658985Y-89977519D01*
X42777519Y-89858985D01*
X42916900Y-89765853D01*
X43071772Y-89701703D01*
X43236184Y-89669000D01*
X43403816Y-89669000D01*
X43568228Y-89701703D01*
G37*
G36*
X46848228Y-89281703D02*
G01*
X47003100Y-89345853D01*
X47142481Y-89438985D01*
X47261015Y-89557519D01*
X47354147Y-89696900D01*
X47418297Y-89851772D01*
X47451000Y-90016184D01*
X47451000Y-90183816D01*
X47418297Y-90348228D01*
X47354147Y-90503100D01*
X47261015Y-90642481D01*
X47142481Y-90761015D01*
X47003100Y-90854147D01*
X46848228Y-90918297D01*
X46683816Y-90951000D01*
X46516184Y-90951000D01*
X46351772Y-90918297D01*
X46196900Y-90854147D01*
X46057519Y-90761015D01*
X45938985Y-90642481D01*
X45845853Y-90503100D01*
X45781703Y-90348228D01*
X45749000Y-90183816D01*
X45749000Y-90016184D01*
X45781703Y-89851772D01*
X45845853Y-89696900D01*
X45938985Y-89557519D01*
X46057519Y-89438985D01*
X46196900Y-89345853D01*
X46351772Y-89281703D01*
X46516184Y-89249000D01*
X46683816Y-89249000D01*
X46848228Y-89281703D01*
G37*
G36*
X51848228Y-89281703D02*
G01*
X52003100Y-89345853D01*
X52142481Y-89438985D01*
X52261015Y-89557519D01*
X52354147Y-89696900D01*
X52418297Y-89851772D01*
X52451000Y-90016184D01*
X52451000Y-90183816D01*
X52418297Y-90348228D01*
X52354147Y-90503100D01*
X52261015Y-90642481D01*
X52142481Y-90761015D01*
X52003100Y-90854147D01*
X51848228Y-90918297D01*
X51683816Y-90951000D01*
X51516184Y-90951000D01*
X51351772Y-90918297D01*
X51196900Y-90854147D01*
X51057519Y-90761015D01*
X50938985Y-90642481D01*
X50845853Y-90503100D01*
X50781703Y-90348228D01*
X50749000Y-90183816D01*
X50749000Y-90016184D01*
X50781703Y-89851772D01*
X50845853Y-89696900D01*
X50938985Y-89557519D01*
X51057519Y-89438985D01*
X51196900Y-89345853D01*
X51351772Y-89281703D01*
X51516184Y-89249000D01*
X51683816Y-89249000D01*
X51848228Y-89281703D01*
G37*
G36*
X18048228Y-89281703D02*
G01*
X18203100Y-89345853D01*
X18342481Y-89438985D01*
X18461015Y-89557519D01*
X18554147Y-89696900D01*
X18618297Y-89851772D01*
X18651000Y-90016184D01*
X18651000Y-90183816D01*
X18618297Y-90348228D01*
X18554147Y-90503100D01*
X18461015Y-90642481D01*
X18342481Y-90761015D01*
X18203100Y-90854147D01*
X18048228Y-90918297D01*
X17883816Y-90951000D01*
X17716184Y-90951000D01*
X17551772Y-90918297D01*
X17396900Y-90854147D01*
X17257519Y-90761015D01*
X17138985Y-90642481D01*
X17045853Y-90503100D01*
X16981703Y-90348228D01*
X16949000Y-90183816D01*
X16949000Y-90016184D01*
X16981703Y-89851772D01*
X17045853Y-89696900D01*
X17138985Y-89557519D01*
X17257519Y-89438985D01*
X17396900Y-89345853D01*
X17551772Y-89281703D01*
X17716184Y-89249000D01*
X17883816Y-89249000D01*
X18048228Y-89281703D01*
G37*
G36*
X82076000Y-90601000D02*
G01*
X80374000Y-90601000D01*
X80374000Y-88899000D01*
X82076000Y-88899000D01*
X82076000Y-90601000D01*
G37*
G36*
X89093228Y-88931703D02*
G01*
X89248100Y-88995853D01*
X89387481Y-89088985D01*
X89506015Y-89207519D01*
X89599147Y-89346900D01*
X89663297Y-89501772D01*
X89696000Y-89666184D01*
X89696000Y-89833816D01*
X89663297Y-89998228D01*
X89599147Y-90153100D01*
X89506015Y-90292481D01*
X89387481Y-90411015D01*
X89248100Y-90504147D01*
X89093228Y-90568297D01*
X88928816Y-90601000D01*
X88761184Y-90601000D01*
X88596772Y-90568297D01*
X88441900Y-90504147D01*
X88302519Y-90411015D01*
X88183985Y-90292481D01*
X88090853Y-90153100D01*
X88026703Y-89998228D01*
X87994000Y-89833816D01*
X87994000Y-89666184D01*
X88026703Y-89501772D01*
X88090853Y-89346900D01*
X88183985Y-89207519D01*
X88302519Y-89088985D01*
X88441900Y-88995853D01*
X88596772Y-88931703D01*
X88761184Y-88899000D01*
X88928816Y-88899000D01*
X89093228Y-88931703D01*
G37*
G36*
X23613512Y-88023927D02*
G01*
X23762812Y-88053624D01*
X23926784Y-88121544D01*
X24074354Y-88220147D01*
X24199853Y-88345646D01*
X24298456Y-88493216D01*
X24366376Y-88657188D01*
X24394443Y-88798295D01*
X24400949Y-88831000D01*
X24401000Y-88831259D01*
X24401000Y-89008741D01*
X24366376Y-89182812D01*
X24298456Y-89346784D01*
X24199853Y-89494354D01*
X24074354Y-89619853D01*
X23926784Y-89718456D01*
X23762812Y-89786376D01*
X23613512Y-89816073D01*
X23588742Y-89821000D01*
X23411258Y-89821000D01*
X23386488Y-89816073D01*
X23237188Y-89786376D01*
X23073216Y-89718456D01*
X22925646Y-89619853D01*
X22800147Y-89494354D01*
X22701544Y-89346784D01*
X22633624Y-89182812D01*
X22599000Y-89008741D01*
X22599000Y-88831259D01*
X22599052Y-88831000D01*
X22605557Y-88798295D01*
X22633624Y-88657188D01*
X22701544Y-88493216D01*
X22800147Y-88345646D01*
X22925646Y-88220147D01*
X23073216Y-88121544D01*
X23237188Y-88053624D01*
X23386488Y-88023927D01*
X23411258Y-88019000D01*
X23588742Y-88019000D01*
X23613512Y-88023927D01*
G37*
G36*
X3113512Y-87563927D02*
G01*
X3262812Y-87593624D01*
X3426784Y-87661544D01*
X3574354Y-87760147D01*
X3699853Y-87885646D01*
X3798456Y-88033216D01*
X3866376Y-88197188D01*
X3901000Y-88371259D01*
X3901000Y-88548741D01*
X3866376Y-88722812D01*
X3798456Y-88886784D01*
X3699853Y-89034354D01*
X3574354Y-89159853D01*
X3426784Y-89258456D01*
X3262812Y-89326376D01*
X3113512Y-89356073D01*
X3088742Y-89361000D01*
X2911258Y-89361000D01*
X2886488Y-89356073D01*
X2737188Y-89326376D01*
X2573216Y-89258456D01*
X2425646Y-89159853D01*
X2300147Y-89034354D01*
X2201544Y-88886784D01*
X2133624Y-88722812D01*
X2099000Y-88548741D01*
X2099000Y-88371259D01*
X2133624Y-88197188D01*
X2201544Y-88033216D01*
X2300147Y-87885646D01*
X2425646Y-87760147D01*
X2573216Y-87661544D01*
X2737188Y-87593624D01*
X2886488Y-87563927D01*
X2911258Y-87559000D01*
X3088742Y-87559000D01*
X3113512Y-87563927D01*
G37*
G36*
X10851000Y-88851000D02*
G01*
X9149000Y-88851000D01*
X9149000Y-87149000D01*
X10851000Y-87149000D01*
X10851000Y-88851000D01*
G37*
G36*
X35948228Y-87161703D02*
G01*
X36103100Y-87225853D01*
X36242481Y-87318985D01*
X36361015Y-87437519D01*
X36454147Y-87576900D01*
X36518297Y-87731772D01*
X36551000Y-87896184D01*
X36551000Y-88063816D01*
X36518297Y-88228228D01*
X36454147Y-88383100D01*
X36361015Y-88522481D01*
X36242481Y-88641015D01*
X36103100Y-88734147D01*
X35948228Y-88798297D01*
X35783816Y-88831000D01*
X35616184Y-88831000D01*
X35451772Y-88798297D01*
X35296900Y-88734147D01*
X35157519Y-88641015D01*
X35038985Y-88522481D01*
X34945853Y-88383100D01*
X34881703Y-88228228D01*
X34849000Y-88063816D01*
X34849000Y-87896184D01*
X34881703Y-87731772D01*
X34945853Y-87576900D01*
X35038985Y-87437519D01*
X35157519Y-87318985D01*
X35296900Y-87225853D01*
X35451772Y-87161703D01*
X35616184Y-87129000D01*
X35783816Y-87129000D01*
X35948228Y-87161703D01*
G37*
G36*
X43568228Y-87161703D02*
G01*
X43723100Y-87225853D01*
X43862481Y-87318985D01*
X43981015Y-87437519D01*
X44074147Y-87576900D01*
X44138297Y-87731772D01*
X44171000Y-87896184D01*
X44171000Y-88063816D01*
X44138297Y-88228228D01*
X44074147Y-88383100D01*
X43981015Y-88522481D01*
X43862481Y-88641015D01*
X43723100Y-88734147D01*
X43568228Y-88798297D01*
X43403816Y-88831000D01*
X43236184Y-88831000D01*
X43071772Y-88798297D01*
X42916900Y-88734147D01*
X42777519Y-88641015D01*
X42658985Y-88522481D01*
X42565853Y-88383100D01*
X42501703Y-88228228D01*
X42469000Y-88063816D01*
X42469000Y-87896184D01*
X42501703Y-87731772D01*
X42565853Y-87576900D01*
X42658985Y-87437519D01*
X42777519Y-87318985D01*
X42916900Y-87225853D01*
X43071772Y-87161703D01*
X43236184Y-87129000D01*
X43403816Y-87129000D01*
X43568228Y-87161703D01*
G37*
G36*
X18651000Y-88451000D02*
G01*
X16949000Y-88451000D01*
X16949000Y-86749000D01*
X18651000Y-86749000D01*
X18651000Y-88451000D01*
G37*
G36*
X23613512Y-85483927D02*
G01*
X23762812Y-85513624D01*
X23926784Y-85581544D01*
X24074354Y-85680147D01*
X24199853Y-85805646D01*
X24298456Y-85953216D01*
X24366376Y-86117188D01*
X24394443Y-86258295D01*
X24400949Y-86291000D01*
X24401000Y-86291259D01*
X24401000Y-86468741D01*
X24366376Y-86642812D01*
X24298456Y-86806784D01*
X24199853Y-86954354D01*
X24074354Y-87079853D01*
X23926784Y-87178456D01*
X23762812Y-87246376D01*
X23613512Y-87276073D01*
X23588742Y-87281000D01*
X23411258Y-87281000D01*
X23386488Y-87276073D01*
X23237188Y-87246376D01*
X23073216Y-87178456D01*
X22925646Y-87079853D01*
X22800147Y-86954354D01*
X22701544Y-86806784D01*
X22633624Y-86642812D01*
X22599000Y-86468741D01*
X22599000Y-86291259D01*
X22599052Y-86291000D01*
X22605557Y-86258295D01*
X22633624Y-86117188D01*
X22701544Y-85953216D01*
X22800147Y-85805646D01*
X22925646Y-85680147D01*
X23073216Y-85581544D01*
X23237188Y-85513624D01*
X23386488Y-85483927D01*
X23411258Y-85479000D01*
X23588742Y-85479000D01*
X23613512Y-85483927D01*
G37*
G36*
X32148228Y-85281703D02*
G01*
X32303100Y-85345853D01*
X32442481Y-85438985D01*
X32561015Y-85557519D01*
X32654147Y-85696900D01*
X32718297Y-85851772D01*
X32751000Y-86016184D01*
X32751000Y-86183816D01*
X32718297Y-86348228D01*
X32654147Y-86503100D01*
X32561015Y-86642481D01*
X32442481Y-86761015D01*
X32303100Y-86854147D01*
X32148228Y-86918297D01*
X31983816Y-86951000D01*
X31816184Y-86951000D01*
X31651772Y-86918297D01*
X31496900Y-86854147D01*
X31357519Y-86761015D01*
X31238985Y-86642481D01*
X31145853Y-86503100D01*
X31081703Y-86348228D01*
X31049000Y-86183816D01*
X31049000Y-86016184D01*
X31081703Y-85851772D01*
X31145853Y-85696900D01*
X31238985Y-85557519D01*
X31357519Y-85438985D01*
X31496900Y-85345853D01*
X31651772Y-85281703D01*
X31816184Y-85249000D01*
X31983816Y-85249000D01*
X32148228Y-85281703D01*
G37*
G36*
X27948228Y-85281703D02*
G01*
X28103100Y-85345853D01*
X28242481Y-85438985D01*
X28361015Y-85557519D01*
X28454147Y-85696900D01*
X28518297Y-85851772D01*
X28551000Y-86016184D01*
X28551000Y-86183816D01*
X28518297Y-86348228D01*
X28454147Y-86503100D01*
X28361015Y-86642481D01*
X28242481Y-86761015D01*
X28103100Y-86854147D01*
X27948228Y-86918297D01*
X27783816Y-86951000D01*
X27616184Y-86951000D01*
X27451772Y-86918297D01*
X27296900Y-86854147D01*
X27157519Y-86761015D01*
X27038985Y-86642481D01*
X26945853Y-86503100D01*
X26881703Y-86348228D01*
X26849000Y-86183816D01*
X26849000Y-86016184D01*
X26881703Y-85851772D01*
X26945853Y-85696900D01*
X27038985Y-85557519D01*
X27157519Y-85438985D01*
X27296900Y-85345853D01*
X27451772Y-85281703D01*
X27616184Y-85249000D01*
X27783816Y-85249000D01*
X27948228Y-85281703D01*
G37*
G36*
X46848228Y-85081703D02*
G01*
X47003100Y-85145853D01*
X47142481Y-85238985D01*
X47261015Y-85357519D01*
X47354147Y-85496900D01*
X47418297Y-85651772D01*
X47451000Y-85816184D01*
X47451000Y-85983816D01*
X47418297Y-86148228D01*
X47354147Y-86303100D01*
X47261015Y-86442481D01*
X47142481Y-86561015D01*
X47003100Y-86654147D01*
X46848228Y-86718297D01*
X46683816Y-86751000D01*
X46516184Y-86751000D01*
X46351772Y-86718297D01*
X46196900Y-86654147D01*
X46057519Y-86561015D01*
X45938985Y-86442481D01*
X45845853Y-86303100D01*
X45781703Y-86148228D01*
X45749000Y-85983816D01*
X45749000Y-85816184D01*
X45781703Y-85651772D01*
X45845853Y-85496900D01*
X45938985Y-85357519D01*
X46057519Y-85238985D01*
X46196900Y-85145853D01*
X46351772Y-85081703D01*
X46516184Y-85049000D01*
X46683816Y-85049000D01*
X46848228Y-85081703D01*
G37*
G36*
X51848228Y-85081703D02*
G01*
X52003100Y-85145853D01*
X52142481Y-85238985D01*
X52261015Y-85357519D01*
X52354147Y-85496900D01*
X52418297Y-85651772D01*
X52451000Y-85816184D01*
X52451000Y-85983816D01*
X52418297Y-86148228D01*
X52354147Y-86303100D01*
X52261015Y-86442481D01*
X52142481Y-86561015D01*
X52003100Y-86654147D01*
X51848228Y-86718297D01*
X51683816Y-86751000D01*
X51516184Y-86751000D01*
X51351772Y-86718297D01*
X51196900Y-86654147D01*
X51057519Y-86561015D01*
X50938985Y-86442481D01*
X50845853Y-86303100D01*
X50781703Y-86148228D01*
X50749000Y-85983816D01*
X50749000Y-85816184D01*
X50781703Y-85651772D01*
X50845853Y-85496900D01*
X50938985Y-85357519D01*
X51057519Y-85238985D01*
X51196900Y-85145853D01*
X51351772Y-85081703D01*
X51516184Y-85049000D01*
X51683816Y-85049000D01*
X51848228Y-85081703D01*
G37*
G36*
X43568228Y-84621703D02*
G01*
X43723100Y-84685853D01*
X43862481Y-84778985D01*
X43981015Y-84897519D01*
X44074147Y-85036900D01*
X44138297Y-85191772D01*
X44171000Y-85356184D01*
X44171000Y-85523816D01*
X44138297Y-85688228D01*
X44074147Y-85843100D01*
X43981015Y-85982481D01*
X43862481Y-86101015D01*
X43723100Y-86194147D01*
X43568228Y-86258297D01*
X43403816Y-86291000D01*
X43236184Y-86291000D01*
X43071772Y-86258297D01*
X42916900Y-86194147D01*
X42777519Y-86101015D01*
X42658985Y-85982481D01*
X42565853Y-85843100D01*
X42501703Y-85688228D01*
X42469000Y-85523816D01*
X42469000Y-85356184D01*
X42501703Y-85191772D01*
X42565853Y-85036900D01*
X42658985Y-84897519D01*
X42777519Y-84778985D01*
X42916900Y-84685853D01*
X43071772Y-84621703D01*
X43236184Y-84589000D01*
X43403816Y-84589000D01*
X43568228Y-84621703D01*
G37*
G36*
X35948228Y-84621703D02*
G01*
X36103100Y-84685853D01*
X36242481Y-84778985D01*
X36361015Y-84897519D01*
X36454147Y-85036900D01*
X36518297Y-85191772D01*
X36551000Y-85356184D01*
X36551000Y-85523816D01*
X36518297Y-85688228D01*
X36454147Y-85843100D01*
X36361015Y-85982481D01*
X36242481Y-86101015D01*
X36103100Y-86194147D01*
X35948228Y-86258297D01*
X35783816Y-86291000D01*
X35616184Y-86291000D01*
X35451772Y-86258297D01*
X35296900Y-86194147D01*
X35157519Y-86101015D01*
X35038985Y-85982481D01*
X34945853Y-85843100D01*
X34881703Y-85688228D01*
X34849000Y-85523816D01*
X34849000Y-85356184D01*
X34881703Y-85191772D01*
X34945853Y-85036900D01*
X35038985Y-84897519D01*
X35157519Y-84778985D01*
X35296900Y-84685853D01*
X35451772Y-84621703D01*
X35616184Y-84589000D01*
X35783816Y-84589000D01*
X35948228Y-84621703D01*
G37*
G36*
X4088674Y-84903465D02*
G01*
X4126367Y-84914899D01*
X4161103Y-84933466D01*
X4191548Y-84958452D01*
X4216534Y-84988897D01*
X4235101Y-85023633D01*
X4246535Y-85061326D01*
X4251000Y-85106661D01*
X4251000Y-85943339D01*
X4246535Y-85988674D01*
X4235101Y-86026367D01*
X4216534Y-86061103D01*
X4191548Y-86091548D01*
X4161103Y-86116534D01*
X4126367Y-86135101D01*
X4088674Y-86146535D01*
X4043339Y-86151000D01*
X2956661Y-86151000D01*
X2911326Y-86146535D01*
X2873633Y-86135101D01*
X2838897Y-86116534D01*
X2808452Y-86091548D01*
X2783466Y-86061103D01*
X2764899Y-86026367D01*
X2753465Y-85988674D01*
X2749000Y-85943339D01*
X2749000Y-85106661D01*
X2753465Y-85061326D01*
X2764899Y-85023633D01*
X2783466Y-84988897D01*
X2808452Y-84958452D01*
X2838897Y-84933466D01*
X2873633Y-84914899D01*
X2911326Y-84903465D01*
X2956661Y-84899000D01*
X4043339Y-84899000D01*
X4088674Y-84903465D01*
G37*
G36*
X71233512Y-83863927D02*
G01*
X71382812Y-83893624D01*
X71546784Y-83961544D01*
X71694354Y-84060147D01*
X71819853Y-84185646D01*
X71918456Y-84333216D01*
X71986376Y-84497188D01*
X72021000Y-84671259D01*
X72021000Y-84848741D01*
X71986376Y-85022812D01*
X71918456Y-85186784D01*
X71819853Y-85334354D01*
X71694354Y-85459853D01*
X71546784Y-85558456D01*
X71382812Y-85626376D01*
X71255139Y-85651771D01*
X71208742Y-85661000D01*
X71031258Y-85661000D01*
X70984861Y-85651771D01*
X70857188Y-85626376D01*
X70693216Y-85558456D01*
X70545646Y-85459853D01*
X70420147Y-85334354D01*
X70321544Y-85186784D01*
X70253624Y-85022812D01*
X70219000Y-84848741D01*
X70219000Y-84671259D01*
X70253624Y-84497188D01*
X70321544Y-84333216D01*
X70420147Y-84185646D01*
X70545646Y-84060147D01*
X70693216Y-83961544D01*
X70857188Y-83893624D01*
X71006488Y-83863927D01*
X71031258Y-83859000D01*
X71208742Y-83859000D01*
X71233512Y-83863927D01*
G37*
G36*
X74561000Y-85661000D02*
G01*
X72759000Y-85661000D01*
X72759000Y-83859000D01*
X74561000Y-83859000D01*
X74561000Y-85661000D01*
G37*
G36*
X60958228Y-83881703D02*
G01*
X61113100Y-83945853D01*
X61252481Y-84038985D01*
X61371015Y-84157519D01*
X61464147Y-84296900D01*
X61528297Y-84451772D01*
X61561000Y-84616184D01*
X61561000Y-84783816D01*
X61528297Y-84948228D01*
X61464147Y-85103100D01*
X61371015Y-85242481D01*
X61252481Y-85361015D01*
X61113100Y-85454147D01*
X60958228Y-85518297D01*
X60793816Y-85551000D01*
X60626184Y-85551000D01*
X60461772Y-85518297D01*
X60306900Y-85454147D01*
X60167519Y-85361015D01*
X60048985Y-85242481D01*
X59955853Y-85103100D01*
X59891703Y-84948228D01*
X59859000Y-84783816D01*
X59859000Y-84616184D01*
X59891703Y-84451772D01*
X59955853Y-84296900D01*
X60048985Y-84157519D01*
X60167519Y-84038985D01*
X60306900Y-83945853D01*
X60461772Y-83881703D01*
X60626184Y-83849000D01*
X60793816Y-83849000D01*
X60958228Y-83881703D01*
G37*
G36*
X55878228Y-83881703D02*
G01*
X56033100Y-83945853D01*
X56172481Y-84038985D01*
X56291015Y-84157519D01*
X56384147Y-84296900D01*
X56448297Y-84451772D01*
X56481000Y-84616184D01*
X56481000Y-84783816D01*
X56448297Y-84948228D01*
X56384147Y-85103100D01*
X56291015Y-85242481D01*
X56172481Y-85361015D01*
X56033100Y-85454147D01*
X55878228Y-85518297D01*
X55713816Y-85551000D01*
X55546184Y-85551000D01*
X55381772Y-85518297D01*
X55226900Y-85454147D01*
X55087519Y-85361015D01*
X54968985Y-85242481D01*
X54875853Y-85103100D01*
X54811703Y-84948228D01*
X54779000Y-84783816D01*
X54779000Y-84616184D01*
X54811703Y-84451772D01*
X54875853Y-84296900D01*
X54968985Y-84157519D01*
X55087519Y-84038985D01*
X55226900Y-83945853D01*
X55381772Y-83881703D01*
X55546184Y-83849000D01*
X55713816Y-83849000D01*
X55878228Y-83881703D01*
G37*
G36*
X58418228Y-83881703D02*
G01*
X58573100Y-83945853D01*
X58712481Y-84038985D01*
X58831015Y-84157519D01*
X58924147Y-84296900D01*
X58988297Y-84451772D01*
X59021000Y-84616184D01*
X59021000Y-84783816D01*
X58988297Y-84948228D01*
X58924147Y-85103100D01*
X58831015Y-85242481D01*
X58712481Y-85361015D01*
X58573100Y-85454147D01*
X58418228Y-85518297D01*
X58253816Y-85551000D01*
X58086184Y-85551000D01*
X57921772Y-85518297D01*
X57766900Y-85454147D01*
X57627519Y-85361015D01*
X57508985Y-85242481D01*
X57415853Y-85103100D01*
X57351703Y-84948228D01*
X57319000Y-84783816D01*
X57319000Y-84616184D01*
X57351703Y-84451772D01*
X57415853Y-84296900D01*
X57508985Y-84157519D01*
X57627519Y-84038985D01*
X57766900Y-83945853D01*
X57921772Y-83881703D01*
X58086184Y-83849000D01*
X58253816Y-83849000D01*
X58418228Y-83881703D01*
G37*
G36*
X64101000Y-85551000D02*
G01*
X62399000Y-85551000D01*
X62399000Y-83849000D01*
X64101000Y-83849000D01*
X64101000Y-85551000D01*
G37*
G36*
X66598228Y-83861703D02*
G01*
X66753100Y-83925853D01*
X66892481Y-84018985D01*
X67011015Y-84137519D01*
X67104147Y-84276900D01*
X67168297Y-84431772D01*
X67201000Y-84596184D01*
X67201000Y-84763816D01*
X67168297Y-84928228D01*
X67104147Y-85083100D01*
X67011015Y-85222481D01*
X66892481Y-85341015D01*
X66753100Y-85434147D01*
X66598228Y-85498297D01*
X66433816Y-85531000D01*
X66266184Y-85531000D01*
X66101772Y-85498297D01*
X65946900Y-85434147D01*
X65807519Y-85341015D01*
X65688985Y-85222481D01*
X65595853Y-85083100D01*
X65531703Y-84928228D01*
X65499000Y-84763816D01*
X65499000Y-84596184D01*
X65531703Y-84431772D01*
X65595853Y-84276900D01*
X65688985Y-84137519D01*
X65807519Y-84018985D01*
X65946900Y-83925853D01*
X66101772Y-83861703D01*
X66266184Y-83829000D01*
X66433816Y-83829000D01*
X66598228Y-83861703D01*
G37*
G36*
X14368228Y-83301703D02*
G01*
X14523100Y-83365853D01*
X14662481Y-83458985D01*
X14781015Y-83577519D01*
X14874147Y-83716900D01*
X14938297Y-83871772D01*
X14971000Y-84036184D01*
X14971000Y-84203816D01*
X14938297Y-84368228D01*
X14874147Y-84523100D01*
X14781015Y-84662481D01*
X14662481Y-84781015D01*
X14523100Y-84874147D01*
X14368228Y-84938297D01*
X14203816Y-84971000D01*
X14036184Y-84971000D01*
X13871772Y-84938297D01*
X13716900Y-84874147D01*
X13577519Y-84781015D01*
X13458985Y-84662481D01*
X13365853Y-84523100D01*
X13301703Y-84368228D01*
X13269000Y-84203816D01*
X13269000Y-84036184D01*
X13301703Y-83871772D01*
X13365853Y-83716900D01*
X13458985Y-83577519D01*
X13577519Y-83458985D01*
X13716900Y-83365853D01*
X13871772Y-83301703D01*
X14036184Y-83269000D01*
X14203816Y-83269000D01*
X14368228Y-83301703D01*
G37*
G36*
X6748228Y-83301703D02*
G01*
X6903100Y-83365853D01*
X7042481Y-83458985D01*
X7161015Y-83577519D01*
X7254147Y-83716900D01*
X7318297Y-83871772D01*
X7351000Y-84036184D01*
X7351000Y-84203816D01*
X7318297Y-84368228D01*
X7254147Y-84523100D01*
X7161015Y-84662481D01*
X7042481Y-84781015D01*
X6903100Y-84874147D01*
X6748228Y-84938297D01*
X6583816Y-84971000D01*
X6416184Y-84971000D01*
X6251772Y-84938297D01*
X6096900Y-84874147D01*
X5957519Y-84781015D01*
X5838985Y-84662481D01*
X5745853Y-84523100D01*
X5681703Y-84368228D01*
X5649000Y-84203816D01*
X5649000Y-84036184D01*
X5681703Y-83871772D01*
X5745853Y-83716900D01*
X5838985Y-83577519D01*
X5957519Y-83458985D01*
X6096900Y-83365853D01*
X6251772Y-83301703D01*
X6416184Y-83269000D01*
X6583816Y-83269000D01*
X6748228Y-83301703D01*
G37*
G36*
X92747915Y-83227334D02*
G01*
X92856491Y-83260271D01*
X92856494Y-83260272D01*
X92892600Y-83279571D01*
X92956556Y-83313756D01*
X93044264Y-83385736D01*
X93116244Y-83473443D01*
X93150429Y-83537399D01*
X93169728Y-83573505D01*
X93169729Y-83573508D01*
X93202666Y-83682084D01*
X93211000Y-83766702D01*
X93211000Y-84273297D01*
X93202666Y-84357916D01*
X93170252Y-84464767D01*
X93169728Y-84466495D01*
X93159761Y-84485141D01*
X93116244Y-84566557D01*
X93044264Y-84654264D01*
X92956557Y-84726244D01*
X92892601Y-84760429D01*
X92856495Y-84779728D01*
X92856492Y-84779729D01*
X92747916Y-84812666D01*
X92635000Y-84823787D01*
X92522085Y-84812666D01*
X92413509Y-84779729D01*
X92413506Y-84779728D01*
X92377400Y-84760429D01*
X92313444Y-84726244D01*
X92225737Y-84654264D01*
X92153757Y-84566557D01*
X92110239Y-84485141D01*
X92096625Y-84464766D01*
X92079298Y-84447439D01*
X92058924Y-84433826D01*
X92036285Y-84424448D01*
X92012252Y-84419668D01*
X91987748Y-84419668D01*
X91963715Y-84424448D01*
X91941076Y-84433826D01*
X91920701Y-84447440D01*
X91903374Y-84464767D01*
X91889761Y-84485141D01*
X91846244Y-84566557D01*
X91774264Y-84654264D01*
X91686557Y-84726244D01*
X91622601Y-84760429D01*
X91586495Y-84779728D01*
X91586492Y-84779729D01*
X91477916Y-84812666D01*
X91365000Y-84823787D01*
X91252085Y-84812666D01*
X91143509Y-84779729D01*
X91143506Y-84779728D01*
X91107400Y-84760429D01*
X91043444Y-84726244D01*
X90955737Y-84654264D01*
X90892622Y-84577359D01*
X90875297Y-84560034D01*
X90854923Y-84546420D01*
X90832284Y-84537043D01*
X90808250Y-84532263D01*
X90783746Y-84532263D01*
X90759713Y-84537044D01*
X90737074Y-84546421D01*
X90716700Y-84560035D01*
X90699373Y-84577362D01*
X90685759Y-84597736D01*
X90676382Y-84620375D01*
X90671000Y-84656660D01*
X90671000Y-84821000D01*
X89519000Y-84821000D01*
X89519000Y-83219000D01*
X90671000Y-83219000D01*
X90671000Y-83383341D01*
X90673402Y-83407727D01*
X90680515Y-83431176D01*
X90692066Y-83452787D01*
X90707611Y-83471729D01*
X90726553Y-83487274D01*
X90748164Y-83498825D01*
X90771613Y-83505938D01*
X90795999Y-83508340D01*
X90820385Y-83505938D01*
X90843834Y-83498825D01*
X90865445Y-83487274D01*
X90884387Y-83471729D01*
X90892608Y-83462657D01*
X90955736Y-83385736D01*
X91043443Y-83313756D01*
X91107399Y-83279571D01*
X91143505Y-83260272D01*
X91143508Y-83260271D01*
X91252084Y-83227334D01*
X91365000Y-83216213D01*
X91477915Y-83227334D01*
X91586491Y-83260271D01*
X91586494Y-83260272D01*
X91622600Y-83279571D01*
X91686556Y-83313756D01*
X91774264Y-83385736D01*
X91846244Y-83473443D01*
X91889761Y-83554859D01*
X91903375Y-83575234D01*
X91920702Y-83592561D01*
X91941076Y-83606174D01*
X91963715Y-83615552D01*
X91987748Y-83620332D01*
X92012252Y-83620332D01*
X92036285Y-83615552D01*
X92058924Y-83606174D01*
X92079299Y-83592560D01*
X92096626Y-83575233D01*
X92110239Y-83554860D01*
X92153756Y-83473444D01*
X92225736Y-83385736D01*
X92313443Y-83313756D01*
X92377399Y-83279571D01*
X92413505Y-83260272D01*
X92413508Y-83260271D01*
X92522084Y-83227334D01*
X92635000Y-83216213D01*
X92747915Y-83227334D01*
G37*
G36*
X87127915Y-83227334D02*
G01*
X87236491Y-83260271D01*
X87236494Y-83260272D01*
X87272600Y-83279571D01*
X87336556Y-83313756D01*
X87424264Y-83385736D01*
X87496244Y-83473443D01*
X87530429Y-83537399D01*
X87549728Y-83573505D01*
X87549729Y-83573508D01*
X87582666Y-83682084D01*
X87591000Y-83766702D01*
X87591000Y-84273297D01*
X87582666Y-84357916D01*
X87550252Y-84464767D01*
X87549728Y-84466495D01*
X87539761Y-84485141D01*
X87496244Y-84566557D01*
X87424264Y-84654264D01*
X87336557Y-84726244D01*
X87272601Y-84760429D01*
X87236495Y-84779728D01*
X87236492Y-84779729D01*
X87127916Y-84812666D01*
X87015000Y-84823787D01*
X86902085Y-84812666D01*
X86793509Y-84779729D01*
X86793506Y-84779728D01*
X86757400Y-84760429D01*
X86693444Y-84726244D01*
X86605737Y-84654264D01*
X86533757Y-84566557D01*
X86490239Y-84485141D01*
X86476625Y-84464766D01*
X86459298Y-84447439D01*
X86438924Y-84433826D01*
X86416285Y-84424448D01*
X86392252Y-84419668D01*
X86367748Y-84419668D01*
X86343715Y-84424448D01*
X86321076Y-84433826D01*
X86300701Y-84447440D01*
X86283374Y-84464767D01*
X86269761Y-84485141D01*
X86226244Y-84566557D01*
X86154264Y-84654264D01*
X86066557Y-84726244D01*
X86002601Y-84760429D01*
X85966495Y-84779728D01*
X85966492Y-84779729D01*
X85857916Y-84812666D01*
X85745000Y-84823787D01*
X85632085Y-84812666D01*
X85523509Y-84779729D01*
X85523506Y-84779728D01*
X85487400Y-84760429D01*
X85423444Y-84726244D01*
X85335737Y-84654264D01*
X85272622Y-84577359D01*
X85255297Y-84560034D01*
X85234923Y-84546420D01*
X85212284Y-84537043D01*
X85188250Y-84532263D01*
X85163746Y-84532263D01*
X85139713Y-84537044D01*
X85117074Y-84546421D01*
X85096700Y-84560035D01*
X85079373Y-84577362D01*
X85065759Y-84597736D01*
X85056382Y-84620375D01*
X85051000Y-84656660D01*
X85051000Y-84821000D01*
X83899000Y-84821000D01*
X83899000Y-83219000D01*
X85051000Y-83219000D01*
X85051000Y-83383341D01*
X85053402Y-83407727D01*
X85060515Y-83431176D01*
X85072066Y-83452787D01*
X85087611Y-83471729D01*
X85106553Y-83487274D01*
X85128164Y-83498825D01*
X85151613Y-83505938D01*
X85175999Y-83508340D01*
X85200385Y-83505938D01*
X85223834Y-83498825D01*
X85245445Y-83487274D01*
X85264387Y-83471729D01*
X85272608Y-83462657D01*
X85335736Y-83385736D01*
X85423443Y-83313756D01*
X85487399Y-83279571D01*
X85523505Y-83260272D01*
X85523508Y-83260271D01*
X85632084Y-83227334D01*
X85745000Y-83216213D01*
X85857915Y-83227334D01*
X85966491Y-83260271D01*
X85966494Y-83260272D01*
X86002600Y-83279571D01*
X86066556Y-83313756D01*
X86154264Y-83385736D01*
X86226244Y-83473443D01*
X86269761Y-83554859D01*
X86283375Y-83575234D01*
X86300702Y-83592561D01*
X86321076Y-83606174D01*
X86343715Y-83615552D01*
X86367748Y-83620332D01*
X86392252Y-83620332D01*
X86416285Y-83615552D01*
X86438924Y-83606174D01*
X86459299Y-83592560D01*
X86476626Y-83575233D01*
X86490239Y-83554860D01*
X86533756Y-83473444D01*
X86605736Y-83385736D01*
X86693443Y-83313756D01*
X86757399Y-83279571D01*
X86793505Y-83260272D01*
X86793508Y-83260271D01*
X86902084Y-83227334D01*
X87015000Y-83216213D01*
X87127915Y-83227334D01*
G37*
G36*
X23613512Y-82943927D02*
G01*
X23762812Y-82973624D01*
X23926784Y-83041544D01*
X24074354Y-83140147D01*
X24199853Y-83265646D01*
X24298456Y-83413216D01*
X24366376Y-83577188D01*
X24387241Y-83682086D01*
X24401000Y-83751258D01*
X24401000Y-83928742D01*
X24397596Y-83945853D01*
X24366376Y-84102812D01*
X24298456Y-84266784D01*
X24199853Y-84414354D01*
X24074354Y-84539853D01*
X23926784Y-84638456D01*
X23762812Y-84706376D01*
X23613512Y-84736073D01*
X23588742Y-84741000D01*
X23411258Y-84741000D01*
X23386488Y-84736073D01*
X23237188Y-84706376D01*
X23073216Y-84638456D01*
X22925646Y-84539853D01*
X22800147Y-84414354D01*
X22701544Y-84266784D01*
X22633624Y-84102812D01*
X22602404Y-83945853D01*
X22599000Y-83928742D01*
X22599000Y-83751258D01*
X22612759Y-83682086D01*
X22633624Y-83577188D01*
X22701544Y-83413216D01*
X22800147Y-83265646D01*
X22925646Y-83140147D01*
X23073216Y-83041544D01*
X23237188Y-82973624D01*
X23386488Y-82943927D01*
X23411258Y-82939000D01*
X23588742Y-82939000D01*
X23613512Y-82943927D01*
G37*
G36*
X4088674Y-82853465D02*
G01*
X4126367Y-82864899D01*
X4161103Y-82883466D01*
X4191548Y-82908452D01*
X4216534Y-82938897D01*
X4235101Y-82973633D01*
X4246535Y-83011326D01*
X4251000Y-83056661D01*
X4251000Y-83893339D01*
X4246535Y-83938674D01*
X4235101Y-83976367D01*
X4216534Y-84011103D01*
X4191548Y-84041548D01*
X4161103Y-84066534D01*
X4126367Y-84085101D01*
X4088674Y-84096535D01*
X4043339Y-84101000D01*
X2956661Y-84101000D01*
X2911326Y-84096535D01*
X2873633Y-84085101D01*
X2838897Y-84066534D01*
X2808452Y-84041548D01*
X2783466Y-84011103D01*
X2764899Y-83976367D01*
X2753465Y-83938674D01*
X2749000Y-83893339D01*
X2749000Y-83056661D01*
X2753465Y-83011326D01*
X2764899Y-82973633D01*
X2783466Y-82938897D01*
X2808452Y-82908452D01*
X2838897Y-82883466D01*
X2873633Y-82864899D01*
X2911326Y-82853465D01*
X2956661Y-82849000D01*
X4043339Y-82849000D01*
X4088674Y-82853465D01*
G37*
G36*
X36551000Y-83751000D02*
G01*
X34849000Y-83751000D01*
X34849000Y-82049000D01*
X36551000Y-82049000D01*
X36551000Y-83751000D01*
G37*
G36*
X43568228Y-82081703D02*
G01*
X43723100Y-82145853D01*
X43862481Y-82238985D01*
X43981015Y-82357519D01*
X44074147Y-82496900D01*
X44138297Y-82651772D01*
X44171000Y-82816184D01*
X44171000Y-82983816D01*
X44138297Y-83148228D01*
X44074147Y-83303100D01*
X43981015Y-83442481D01*
X43862481Y-83561015D01*
X43723100Y-83654147D01*
X43568228Y-83718297D01*
X43403816Y-83751000D01*
X43236184Y-83751000D01*
X43071772Y-83718297D01*
X42916900Y-83654147D01*
X42777519Y-83561015D01*
X42658985Y-83442481D01*
X42565853Y-83303100D01*
X42501703Y-83148228D01*
X42469000Y-82983816D01*
X42469000Y-82816184D01*
X42501703Y-82651772D01*
X42565853Y-82496900D01*
X42658985Y-82357519D01*
X42777519Y-82238985D01*
X42916900Y-82145853D01*
X43071772Y-82081703D01*
X43236184Y-82049000D01*
X43403816Y-82049000D01*
X43568228Y-82081703D01*
G37*
G36*
X17488674Y-81953465D02*
G01*
X17526367Y-81964899D01*
X17561103Y-81983466D01*
X17591548Y-82008452D01*
X17616534Y-82038897D01*
X17635101Y-82073633D01*
X17646535Y-82111326D01*
X17651000Y-82156661D01*
X17651000Y-82993339D01*
X17646535Y-83038674D01*
X17635101Y-83076367D01*
X17616534Y-83111103D01*
X17591548Y-83141548D01*
X17561103Y-83166534D01*
X17526367Y-83185101D01*
X17488674Y-83196535D01*
X17443339Y-83201000D01*
X16356661Y-83201000D01*
X16311326Y-83196535D01*
X16273633Y-83185101D01*
X16238897Y-83166534D01*
X16208452Y-83141548D01*
X16183466Y-83111103D01*
X16164899Y-83076367D01*
X16153465Y-83038674D01*
X16149000Y-82993339D01*
X16149000Y-82156661D01*
X16153465Y-82111326D01*
X16164899Y-82073633D01*
X16183466Y-82038897D01*
X16208452Y-82008452D01*
X16238897Y-81983466D01*
X16273633Y-81964899D01*
X16311326Y-81953465D01*
X16356661Y-81949000D01*
X17443339Y-81949000D01*
X17488674Y-81953465D01*
G37*
G36*
X96633512Y-81323927D02*
G01*
X96782812Y-81353624D01*
X96946784Y-81421544D01*
X97094354Y-81520147D01*
X97219853Y-81645646D01*
X97318456Y-81793216D01*
X97386376Y-81957188D01*
X97421000Y-82131259D01*
X97421000Y-82308741D01*
X97386376Y-82482812D01*
X97318456Y-82646784D01*
X97219853Y-82794354D01*
X97094354Y-82919853D01*
X96946784Y-83018456D01*
X96782812Y-83086376D01*
X96633512Y-83116073D01*
X96608742Y-83121000D01*
X96431258Y-83121000D01*
X96406488Y-83116073D01*
X96257188Y-83086376D01*
X96093216Y-83018456D01*
X95945646Y-82919853D01*
X95820147Y-82794354D01*
X95721544Y-82646784D01*
X95653624Y-82482812D01*
X95619000Y-82308741D01*
X95619000Y-82131259D01*
X95653624Y-81957188D01*
X95721544Y-81793216D01*
X95820147Y-81645646D01*
X95945646Y-81520147D01*
X96093216Y-81421544D01*
X96257188Y-81353624D01*
X96406488Y-81323927D01*
X96431258Y-81319000D01*
X96608742Y-81319000D01*
X96633512Y-81323927D01*
G37*
G36*
X14368228Y-80761703D02*
G01*
X14523100Y-80825853D01*
X14662481Y-80918985D01*
X14781015Y-81037519D01*
X14874147Y-81176900D01*
X14938297Y-81331772D01*
X14971000Y-81496184D01*
X14971000Y-81663816D01*
X14938297Y-81828228D01*
X14874147Y-81983100D01*
X14781015Y-82122481D01*
X14662481Y-82241015D01*
X14523100Y-82334147D01*
X14368228Y-82398297D01*
X14203816Y-82431000D01*
X14036184Y-82431000D01*
X13871772Y-82398297D01*
X13716900Y-82334147D01*
X13577519Y-82241015D01*
X13458985Y-82122481D01*
X13365853Y-81983100D01*
X13301703Y-81828228D01*
X13269000Y-81663816D01*
X13269000Y-81496184D01*
X13301703Y-81331772D01*
X13365853Y-81176900D01*
X13458985Y-81037519D01*
X13577519Y-80918985D01*
X13716900Y-80825853D01*
X13871772Y-80761703D01*
X14036184Y-80729000D01*
X14203816Y-80729000D01*
X14368228Y-80761703D01*
G37*
G36*
X6748228Y-80761703D02*
G01*
X6903100Y-80825853D01*
X7042481Y-80918985D01*
X7161015Y-81037519D01*
X7254147Y-81176900D01*
X7318297Y-81331772D01*
X7351000Y-81496184D01*
X7351000Y-81663816D01*
X7318297Y-81828228D01*
X7254147Y-81983100D01*
X7161015Y-82122481D01*
X7042481Y-82241015D01*
X6903100Y-82334147D01*
X6748228Y-82398297D01*
X6583816Y-82431000D01*
X6416184Y-82431000D01*
X6251772Y-82398297D01*
X6096900Y-82334147D01*
X5957519Y-82241015D01*
X5838985Y-82122481D01*
X5745853Y-81983100D01*
X5681703Y-81828228D01*
X5649000Y-81663816D01*
X5649000Y-81496184D01*
X5681703Y-81331772D01*
X5745853Y-81176900D01*
X5838985Y-81037519D01*
X5957519Y-80918985D01*
X6096900Y-80825853D01*
X6251772Y-80761703D01*
X6416184Y-80729000D01*
X6583816Y-80729000D01*
X6748228Y-80761703D01*
G37*
G36*
X24401000Y-82201000D02*
G01*
X22599000Y-82201000D01*
X22599000Y-80399000D01*
X24401000Y-80399000D01*
X24401000Y-82201000D01*
G37*
G36*
X17488674Y-79903465D02*
G01*
X17526367Y-79914899D01*
X17561103Y-79933466D01*
X17591548Y-79958452D01*
X17616534Y-79988897D01*
X17635101Y-80023633D01*
X17646535Y-80061326D01*
X17651000Y-80106661D01*
X17651000Y-80943339D01*
X17646535Y-80988674D01*
X17635101Y-81026367D01*
X17616534Y-81061103D01*
X17591548Y-81091548D01*
X17561103Y-81116534D01*
X17526367Y-81135101D01*
X17488674Y-81146535D01*
X17443339Y-81151000D01*
X16356661Y-81151000D01*
X16311326Y-81146535D01*
X16273633Y-81135101D01*
X16238897Y-81116534D01*
X16208452Y-81091548D01*
X16183466Y-81061103D01*
X16164899Y-81026367D01*
X16153465Y-80988674D01*
X16149000Y-80943339D01*
X16149000Y-80106661D01*
X16153465Y-80061326D01*
X16164899Y-80023633D01*
X16183466Y-79988897D01*
X16208452Y-79958452D01*
X16238897Y-79933466D01*
X16273633Y-79914899D01*
X16311326Y-79903465D01*
X16356661Y-79899000D01*
X17443339Y-79899000D01*
X17488674Y-79903465D01*
G37*
G36*
X51401000Y-80901000D02*
G01*
X49699000Y-80901000D01*
X49699000Y-79199000D01*
X51401000Y-79199000D01*
X51401000Y-80901000D01*
G37*
G36*
X96633512Y-78783927D02*
G01*
X96782812Y-78813624D01*
X96946784Y-78881544D01*
X97094354Y-78980147D01*
X97219853Y-79105646D01*
X97318456Y-79253216D01*
X97386376Y-79417188D01*
X97421000Y-79591259D01*
X97421000Y-79768741D01*
X97386376Y-79942812D01*
X97318456Y-80106784D01*
X97219853Y-80254354D01*
X97094354Y-80379853D01*
X96946784Y-80478456D01*
X96782812Y-80546376D01*
X96633512Y-80576073D01*
X96608742Y-80581000D01*
X96431258Y-80581000D01*
X96406488Y-80576073D01*
X96257188Y-80546376D01*
X96093216Y-80478456D01*
X95945646Y-80379853D01*
X95820147Y-80254354D01*
X95721544Y-80106784D01*
X95653624Y-79942812D01*
X95619000Y-79768741D01*
X95619000Y-79591259D01*
X95653624Y-79417188D01*
X95721544Y-79253216D01*
X95820147Y-79105646D01*
X95945646Y-78980147D01*
X96093216Y-78881544D01*
X96257188Y-78813624D01*
X96406488Y-78783927D01*
X96431258Y-78779000D01*
X96608742Y-78779000D01*
X96633512Y-78783927D01*
G37*
G36*
X57108228Y-78871703D02*
G01*
X57263100Y-78935853D01*
X57402481Y-79028985D01*
X57521015Y-79147519D01*
X57614147Y-79286900D01*
X57678297Y-79441772D01*
X57711000Y-79606184D01*
X57711000Y-79773816D01*
X57678297Y-79938228D01*
X57614147Y-80093100D01*
X57521015Y-80232481D01*
X57402481Y-80351015D01*
X57263100Y-80444147D01*
X57108228Y-80508297D01*
X56943816Y-80541000D01*
X56776184Y-80541000D01*
X56611772Y-80508297D01*
X56456900Y-80444147D01*
X56317519Y-80351015D01*
X56198985Y-80232481D01*
X56105853Y-80093100D01*
X56041703Y-79938228D01*
X56009000Y-79773816D01*
X56009000Y-79606184D01*
X56041703Y-79441772D01*
X56105853Y-79286900D01*
X56198985Y-79147519D01*
X56317519Y-79028985D01*
X56456900Y-78935853D01*
X56611772Y-78871703D01*
X56776184Y-78839000D01*
X56943816Y-78839000D01*
X57108228Y-78871703D01*
G37*
G36*
X6748228Y-78221703D02*
G01*
X6903100Y-78285853D01*
X7042481Y-78378985D01*
X7161015Y-78497519D01*
X7254147Y-78636900D01*
X7318297Y-78791772D01*
X7351000Y-78956184D01*
X7351000Y-79123816D01*
X7318297Y-79288228D01*
X7254147Y-79443100D01*
X7161015Y-79582481D01*
X7042481Y-79701015D01*
X6903100Y-79794147D01*
X6748228Y-79858297D01*
X6583816Y-79891000D01*
X6416184Y-79891000D01*
X6251772Y-79858297D01*
X6096900Y-79794147D01*
X5957519Y-79701015D01*
X5838985Y-79582481D01*
X5745853Y-79443100D01*
X5681703Y-79288228D01*
X5649000Y-79123816D01*
X5649000Y-78956184D01*
X5681703Y-78791772D01*
X5745853Y-78636900D01*
X5838985Y-78497519D01*
X5957519Y-78378985D01*
X6096900Y-78285853D01*
X6251772Y-78221703D01*
X6416184Y-78189000D01*
X6583816Y-78189000D01*
X6748228Y-78221703D01*
G37*
G36*
X14368228Y-78221703D02*
G01*
X14523100Y-78285853D01*
X14662481Y-78378985D01*
X14781015Y-78497519D01*
X14874147Y-78636900D01*
X14938297Y-78791772D01*
X14971000Y-78956184D01*
X14971000Y-79123816D01*
X14938297Y-79288228D01*
X14874147Y-79443100D01*
X14781015Y-79582481D01*
X14662481Y-79701015D01*
X14523100Y-79794147D01*
X14368228Y-79858297D01*
X14203816Y-79891000D01*
X14036184Y-79891000D01*
X13871772Y-79858297D01*
X13716900Y-79794147D01*
X13577519Y-79701015D01*
X13458985Y-79582481D01*
X13365853Y-79443100D01*
X13301703Y-79288228D01*
X13269000Y-79123816D01*
X13269000Y-78956184D01*
X13301703Y-78791772D01*
X13365853Y-78636900D01*
X13458985Y-78497519D01*
X13577519Y-78378985D01*
X13716900Y-78285853D01*
X13871772Y-78221703D01*
X14036184Y-78189000D01*
X14203816Y-78189000D01*
X14368228Y-78221703D01*
G37*
G36*
X60308228Y-78171703D02*
G01*
X60463100Y-78235853D01*
X60602481Y-78328985D01*
X60721015Y-78447519D01*
X60814147Y-78586900D01*
X60878297Y-78741772D01*
X60911000Y-78906184D01*
X60911000Y-79073816D01*
X60878297Y-79238228D01*
X60814147Y-79393100D01*
X60721015Y-79532481D01*
X60602481Y-79651015D01*
X60463100Y-79744147D01*
X60308228Y-79808297D01*
X60143816Y-79841000D01*
X59976184Y-79841000D01*
X59811772Y-79808297D01*
X59656900Y-79744147D01*
X59517519Y-79651015D01*
X59398985Y-79532481D01*
X59305853Y-79393100D01*
X59241703Y-79238228D01*
X59209000Y-79073816D01*
X59209000Y-78906184D01*
X59241703Y-78741772D01*
X59305853Y-78586900D01*
X59398985Y-78447519D01*
X59517519Y-78328985D01*
X59656900Y-78235853D01*
X59811772Y-78171703D01*
X59976184Y-78139000D01*
X60143816Y-78139000D01*
X60308228Y-78171703D01*
G37*
G36*
X65308228Y-78171703D02*
G01*
X65463100Y-78235853D01*
X65602481Y-78328985D01*
X65721015Y-78447519D01*
X65814147Y-78586900D01*
X65878297Y-78741772D01*
X65911000Y-78906184D01*
X65911000Y-79073816D01*
X65878297Y-79238228D01*
X65814147Y-79393100D01*
X65721015Y-79532481D01*
X65602481Y-79651015D01*
X65463100Y-79744147D01*
X65308228Y-79808297D01*
X65143816Y-79841000D01*
X64976184Y-79841000D01*
X64811772Y-79808297D01*
X64656900Y-79744147D01*
X64517519Y-79651015D01*
X64398985Y-79532481D01*
X64305853Y-79393100D01*
X64241703Y-79238228D01*
X64209000Y-79073816D01*
X64209000Y-78906184D01*
X64241703Y-78741772D01*
X64305853Y-78586900D01*
X64398985Y-78447519D01*
X64517519Y-78328985D01*
X64656900Y-78235853D01*
X64811772Y-78171703D01*
X64976184Y-78139000D01*
X65143816Y-78139000D01*
X65308228Y-78171703D01*
G37*
G36*
X73308228Y-78171703D02*
G01*
X73463100Y-78235853D01*
X73602481Y-78328985D01*
X73721015Y-78447519D01*
X73814147Y-78586900D01*
X73878297Y-78741772D01*
X73911000Y-78906184D01*
X73911000Y-79073816D01*
X73878297Y-79238228D01*
X73814147Y-79393100D01*
X73721015Y-79532481D01*
X73602481Y-79651015D01*
X73463100Y-79744147D01*
X73308228Y-79808297D01*
X73143816Y-79841000D01*
X72976184Y-79841000D01*
X72811772Y-79808297D01*
X72656900Y-79744147D01*
X72517519Y-79651015D01*
X72398985Y-79532481D01*
X72305853Y-79393100D01*
X72241703Y-79238228D01*
X72209000Y-79073816D01*
X72209000Y-78906184D01*
X72241703Y-78741772D01*
X72305853Y-78586900D01*
X72398985Y-78447519D01*
X72517519Y-78328985D01*
X72656900Y-78235853D01*
X72811772Y-78171703D01*
X72976184Y-78139000D01*
X73143816Y-78139000D01*
X73308228Y-78171703D01*
G37*
G36*
X68308228Y-78171703D02*
G01*
X68463100Y-78235853D01*
X68602481Y-78328985D01*
X68721015Y-78447519D01*
X68814147Y-78586900D01*
X68878297Y-78741772D01*
X68911000Y-78906184D01*
X68911000Y-79073816D01*
X68878297Y-79238228D01*
X68814147Y-79393100D01*
X68721015Y-79532481D01*
X68602481Y-79651015D01*
X68463100Y-79744147D01*
X68308228Y-79808297D01*
X68143816Y-79841000D01*
X67976184Y-79841000D01*
X67811772Y-79808297D01*
X67656900Y-79744147D01*
X67517519Y-79651015D01*
X67398985Y-79532481D01*
X67305853Y-79393100D01*
X67241703Y-79238228D01*
X67209000Y-79073816D01*
X67209000Y-78906184D01*
X67241703Y-78741772D01*
X67305853Y-78586900D01*
X67398985Y-78447519D01*
X67517519Y-78328985D01*
X67656900Y-78235853D01*
X67811772Y-78171703D01*
X67976184Y-78139000D01*
X68143816Y-78139000D01*
X68308228Y-78171703D01*
G37*
G36*
X35301000Y-79701000D02*
G01*
X33599000Y-79701000D01*
X33599000Y-77999000D01*
X35301000Y-77999000D01*
X35301000Y-79701000D01*
G37*
G36*
X27078228Y-78031703D02*
G01*
X27233100Y-78095853D01*
X27372481Y-78188985D01*
X27491015Y-78307519D01*
X27584147Y-78446900D01*
X27648297Y-78601772D01*
X27681000Y-78766184D01*
X27681000Y-78933816D01*
X27648297Y-79098228D01*
X27584147Y-79253100D01*
X27491015Y-79392481D01*
X27372481Y-79511015D01*
X27233100Y-79604147D01*
X27078228Y-79668297D01*
X26913816Y-79701000D01*
X26746184Y-79701000D01*
X26581772Y-79668297D01*
X26426900Y-79604147D01*
X26287519Y-79511015D01*
X26168985Y-79392481D01*
X26075853Y-79253100D01*
X26011703Y-79098228D01*
X25979000Y-78933816D01*
X25979000Y-78766184D01*
X26011703Y-78601772D01*
X26075853Y-78446900D01*
X26168985Y-78307519D01*
X26287519Y-78188985D01*
X26426900Y-78095853D01*
X26581772Y-78031703D01*
X26746184Y-77999000D01*
X26913816Y-77999000D01*
X27078228Y-78031703D01*
G37*
G36*
X4088674Y-77903465D02*
G01*
X4126367Y-77914899D01*
X4161103Y-77933466D01*
X4191548Y-77958452D01*
X4216534Y-77988897D01*
X4235101Y-78023633D01*
X4246535Y-78061326D01*
X4251000Y-78106661D01*
X4251000Y-78943339D01*
X4246535Y-78988674D01*
X4235101Y-79026367D01*
X4216534Y-79061103D01*
X4191548Y-79091548D01*
X4161103Y-79116534D01*
X4126367Y-79135101D01*
X4088674Y-79146535D01*
X4043339Y-79151000D01*
X2956661Y-79151000D01*
X2911326Y-79146535D01*
X2873633Y-79135101D01*
X2838897Y-79116534D01*
X2808452Y-79091548D01*
X2783466Y-79061103D01*
X2764899Y-79026367D01*
X2753465Y-78988674D01*
X2749000Y-78943339D01*
X2749000Y-78106661D01*
X2753465Y-78061326D01*
X2764899Y-78023633D01*
X2783466Y-77988897D01*
X2808452Y-77958452D01*
X2838897Y-77933466D01*
X2873633Y-77914899D01*
X2911326Y-77903465D01*
X2956661Y-77899000D01*
X4043339Y-77899000D01*
X4088674Y-77903465D01*
G37*
G36*
X45401000Y-78551000D02*
G01*
X43699000Y-78551000D01*
X43699000Y-76849000D01*
X45401000Y-76849000D01*
X45401000Y-78551000D01*
G37*
G36*
X37178228Y-76881703D02*
G01*
X37333100Y-76945853D01*
X37472481Y-77038985D01*
X37591015Y-77157519D01*
X37684147Y-77296900D01*
X37748297Y-77451772D01*
X37781000Y-77616184D01*
X37781000Y-77783816D01*
X37748297Y-77948228D01*
X37684147Y-78103100D01*
X37591015Y-78242481D01*
X37472481Y-78361015D01*
X37333100Y-78454147D01*
X37178228Y-78518297D01*
X37013816Y-78551000D01*
X36846184Y-78551000D01*
X36681772Y-78518297D01*
X36526900Y-78454147D01*
X36387519Y-78361015D01*
X36268985Y-78242481D01*
X36175853Y-78103100D01*
X36111703Y-77948228D01*
X36079000Y-77783816D01*
X36079000Y-77616184D01*
X36111703Y-77451772D01*
X36175853Y-77296900D01*
X36268985Y-77157519D01*
X36387519Y-77038985D01*
X36526900Y-76945853D01*
X36681772Y-76881703D01*
X36846184Y-76849000D01*
X37013816Y-76849000D01*
X37178228Y-76881703D01*
G37*
G36*
X97421000Y-78041000D02*
G01*
X95619000Y-78041000D01*
X95619000Y-76239000D01*
X97421000Y-76239000D01*
X97421000Y-78041000D01*
G37*
G36*
X20951000Y-78001000D02*
G01*
X19249000Y-78001000D01*
X19249000Y-76299000D01*
X20951000Y-76299000D01*
X20951000Y-78001000D01*
G37*
G36*
X91523228Y-75931703D02*
G01*
X91678100Y-75995853D01*
X91817481Y-76088985D01*
X91936015Y-76207519D01*
X92029147Y-76346900D01*
X92093297Y-76501772D01*
X92126000Y-76666184D01*
X92126000Y-76833816D01*
X92093297Y-76998228D01*
X92029147Y-77153100D01*
X91936015Y-77292481D01*
X91817481Y-77411015D01*
X91678100Y-77504147D01*
X91523228Y-77568297D01*
X91358816Y-77601000D01*
X91191184Y-77601000D01*
X91026772Y-77568297D01*
X90871900Y-77504147D01*
X90732519Y-77411015D01*
X90613985Y-77292481D01*
X90520853Y-77153100D01*
X90456703Y-76998228D01*
X90424000Y-76833816D01*
X90424000Y-76666184D01*
X90456703Y-76501772D01*
X90520853Y-76346900D01*
X90613985Y-76207519D01*
X90732519Y-76088985D01*
X90871900Y-75995853D01*
X91026772Y-75931703D01*
X91191184Y-75899000D01*
X91358816Y-75899000D01*
X91523228Y-75931703D01*
G37*
G36*
X89626000Y-77601000D02*
G01*
X87924000Y-77601000D01*
X87924000Y-75899000D01*
X89626000Y-75899000D01*
X89626000Y-77601000D01*
G37*
G36*
X50798228Y-75731703D02*
G01*
X50953100Y-75795853D01*
X51092481Y-75888985D01*
X51211015Y-76007519D01*
X51304147Y-76146900D01*
X51368297Y-76301772D01*
X51401000Y-76466184D01*
X51401000Y-76633816D01*
X51368297Y-76798228D01*
X51304147Y-76953100D01*
X51211015Y-77092481D01*
X51092481Y-77211015D01*
X50953100Y-77304147D01*
X50798228Y-77368297D01*
X50633816Y-77401000D01*
X50466184Y-77401000D01*
X50301772Y-77368297D01*
X50146900Y-77304147D01*
X50007519Y-77211015D01*
X49888985Y-77092481D01*
X49795853Y-76953100D01*
X49731703Y-76798228D01*
X49699000Y-76633816D01*
X49699000Y-76466184D01*
X49731703Y-76301772D01*
X49795853Y-76146900D01*
X49888985Y-76007519D01*
X50007519Y-75888985D01*
X50146900Y-75795853D01*
X50301772Y-75731703D01*
X50466184Y-75699000D01*
X50633816Y-75699000D01*
X50798228Y-75731703D01*
G37*
G36*
X14368228Y-75681703D02*
G01*
X14523100Y-75745853D01*
X14662481Y-75838985D01*
X14781015Y-75957519D01*
X14874147Y-76096900D01*
X14938297Y-76251772D01*
X14971000Y-76416184D01*
X14971000Y-76583816D01*
X14938297Y-76748228D01*
X14874147Y-76903100D01*
X14781015Y-77042481D01*
X14662481Y-77161015D01*
X14523100Y-77254147D01*
X14368228Y-77318297D01*
X14203816Y-77351000D01*
X14036184Y-77351000D01*
X13871772Y-77318297D01*
X13716900Y-77254147D01*
X13577519Y-77161015D01*
X13458985Y-77042481D01*
X13365853Y-76903100D01*
X13301703Y-76748228D01*
X13269000Y-76583816D01*
X13269000Y-76416184D01*
X13301703Y-76251772D01*
X13365853Y-76096900D01*
X13458985Y-75957519D01*
X13577519Y-75838985D01*
X13716900Y-75745853D01*
X13871772Y-75681703D01*
X14036184Y-75649000D01*
X14203816Y-75649000D01*
X14368228Y-75681703D01*
G37*
G36*
X7351000Y-77351000D02*
G01*
X5649000Y-77351000D01*
X5649000Y-75649000D01*
X7351000Y-75649000D01*
X7351000Y-77351000D01*
G37*
G36*
X4088674Y-75853465D02*
G01*
X4126367Y-75864899D01*
X4161103Y-75883466D01*
X4191548Y-75908452D01*
X4216534Y-75938897D01*
X4235101Y-75973633D01*
X4246535Y-76011326D01*
X4251000Y-76056661D01*
X4251000Y-76893339D01*
X4246535Y-76938674D01*
X4235101Y-76976367D01*
X4216534Y-77011103D01*
X4191548Y-77041548D01*
X4161103Y-77066534D01*
X4126367Y-77085101D01*
X4088674Y-77096535D01*
X4043339Y-77101000D01*
X2956661Y-77101000D01*
X2911326Y-77096535D01*
X2873633Y-77085101D01*
X2838897Y-77066534D01*
X2808452Y-77041548D01*
X2783466Y-77011103D01*
X2764899Y-76976367D01*
X2753465Y-76938674D01*
X2749000Y-76893339D01*
X2749000Y-76056661D01*
X2753465Y-76011326D01*
X2764899Y-75973633D01*
X2783466Y-75938897D01*
X2808452Y-75908452D01*
X2838897Y-75883466D01*
X2873633Y-75864899D01*
X2911326Y-75853465D01*
X2956661Y-75849000D01*
X4043339Y-75849000D01*
X4088674Y-75853465D01*
G37*
G36*
X84448674Y-75693465D02*
G01*
X84486367Y-75704899D01*
X84521103Y-75723466D01*
X84551548Y-75748452D01*
X84576534Y-75778897D01*
X84595101Y-75813633D01*
X84606535Y-75851326D01*
X84611000Y-75896661D01*
X84611000Y-76733339D01*
X84606535Y-76778674D01*
X84595101Y-76816367D01*
X84576534Y-76851103D01*
X84551548Y-76881548D01*
X84521103Y-76906534D01*
X84486367Y-76925101D01*
X84448674Y-76936535D01*
X84403339Y-76941000D01*
X83316661Y-76941000D01*
X83271326Y-76936535D01*
X83233633Y-76925101D01*
X83198897Y-76906534D01*
X83168452Y-76881548D01*
X83143466Y-76851103D01*
X83124899Y-76816367D01*
X83113465Y-76778674D01*
X83109000Y-76733339D01*
X83109000Y-75896661D01*
X83113465Y-75851326D01*
X83124899Y-75813633D01*
X83143466Y-75778897D01*
X83168452Y-75748452D01*
X83198897Y-75723466D01*
X83233633Y-75704899D01*
X83271326Y-75693465D01*
X83316661Y-75689000D01*
X84403339Y-75689000D01*
X84448674Y-75693465D01*
G37*
G36*
X82348674Y-75693465D02*
G01*
X82386367Y-75704899D01*
X82421103Y-75723466D01*
X82451548Y-75748452D01*
X82476534Y-75778897D01*
X82495101Y-75813633D01*
X82506535Y-75851326D01*
X82511000Y-75896661D01*
X82511000Y-76733339D01*
X82506535Y-76778674D01*
X82495101Y-76816367D01*
X82476534Y-76851103D01*
X82451548Y-76881548D01*
X82421103Y-76906534D01*
X82386367Y-76925101D01*
X82348674Y-76936535D01*
X82303339Y-76941000D01*
X81216661Y-76941000D01*
X81171326Y-76936535D01*
X81133633Y-76925101D01*
X81098897Y-76906534D01*
X81068452Y-76881548D01*
X81043466Y-76851103D01*
X81024899Y-76816367D01*
X81013465Y-76778674D01*
X81009000Y-76733339D01*
X81009000Y-75896661D01*
X81013465Y-75851326D01*
X81024899Y-75813633D01*
X81043466Y-75778897D01*
X81068452Y-75748452D01*
X81098897Y-75723466D01*
X81133633Y-75704899D01*
X81171326Y-75693465D01*
X81216661Y-75689000D01*
X82303339Y-75689000D01*
X82348674Y-75693465D01*
G37*
G36*
X80248674Y-75693465D02*
G01*
X80286367Y-75704899D01*
X80321103Y-75723466D01*
X80351548Y-75748452D01*
X80376534Y-75778897D01*
X80395101Y-75813633D01*
X80406535Y-75851326D01*
X80411000Y-75896661D01*
X80411000Y-76733339D01*
X80406535Y-76778674D01*
X80395101Y-76816367D01*
X80376534Y-76851103D01*
X80351548Y-76881548D01*
X80321103Y-76906534D01*
X80286367Y-76925101D01*
X80248674Y-76936535D01*
X80203339Y-76941000D01*
X79116661Y-76941000D01*
X79071326Y-76936535D01*
X79033633Y-76925101D01*
X78998897Y-76906534D01*
X78968452Y-76881548D01*
X78943466Y-76851103D01*
X78924899Y-76816367D01*
X78913465Y-76778674D01*
X78909000Y-76733339D01*
X78909000Y-75896661D01*
X78913465Y-75851326D01*
X78924899Y-75813633D01*
X78943466Y-75778897D01*
X78968452Y-75748452D01*
X78998897Y-75723466D01*
X79033633Y-75704899D01*
X79071326Y-75693465D01*
X79116661Y-75689000D01*
X80203339Y-75689000D01*
X80248674Y-75693465D01*
G37*
G36*
X68708228Y-74171703D02*
G01*
X68863100Y-74235853D01*
X69002481Y-74328985D01*
X69121015Y-74447519D01*
X69214147Y-74586900D01*
X69278297Y-74741772D01*
X69311000Y-74906184D01*
X69311000Y-75073816D01*
X69278297Y-75238228D01*
X69214147Y-75393100D01*
X69121015Y-75532481D01*
X69002481Y-75651015D01*
X68863100Y-75744147D01*
X68708228Y-75808297D01*
X68543816Y-75841000D01*
X68376184Y-75841000D01*
X68211772Y-75808297D01*
X68056900Y-75744147D01*
X67917519Y-75651015D01*
X67798985Y-75532481D01*
X67705853Y-75393100D01*
X67641703Y-75238228D01*
X67609000Y-75073816D01*
X67609000Y-74906184D01*
X67641703Y-74741772D01*
X67705853Y-74586900D01*
X67798985Y-74447519D01*
X67917519Y-74328985D01*
X68056900Y-74235853D01*
X68211772Y-74171703D01*
X68376184Y-74139000D01*
X68543816Y-74139000D01*
X68708228Y-74171703D01*
G37*
G36*
X73708228Y-74171703D02*
G01*
X73863100Y-74235853D01*
X74002481Y-74328985D01*
X74121015Y-74447519D01*
X74214147Y-74586900D01*
X74278297Y-74741772D01*
X74311000Y-74906184D01*
X74311000Y-75073816D01*
X74278297Y-75238228D01*
X74214147Y-75393100D01*
X74121015Y-75532481D01*
X74002481Y-75651015D01*
X73863100Y-75744147D01*
X73708228Y-75808297D01*
X73543816Y-75841000D01*
X73376184Y-75841000D01*
X73211772Y-75808297D01*
X73056900Y-75744147D01*
X72917519Y-75651015D01*
X72798985Y-75532481D01*
X72705853Y-75393100D01*
X72641703Y-75238228D01*
X72609000Y-75073816D01*
X72609000Y-74906184D01*
X72641703Y-74741772D01*
X72705853Y-74586900D01*
X72798985Y-74447519D01*
X72917519Y-74328985D01*
X73056900Y-74235853D01*
X73211772Y-74171703D01*
X73376184Y-74139000D01*
X73543816Y-74139000D01*
X73708228Y-74171703D01*
G37*
G36*
X57108228Y-73871703D02*
G01*
X57263100Y-73935853D01*
X57402481Y-74028985D01*
X57521015Y-74147519D01*
X57614147Y-74286900D01*
X57678297Y-74441772D01*
X57711000Y-74606184D01*
X57711000Y-74773816D01*
X57678297Y-74938228D01*
X57614147Y-75093100D01*
X57521015Y-75232481D01*
X57402481Y-75351015D01*
X57263100Y-75444147D01*
X57108228Y-75508297D01*
X56943816Y-75541000D01*
X56776184Y-75541000D01*
X56611772Y-75508297D01*
X56456900Y-75444147D01*
X56317519Y-75351015D01*
X56198985Y-75232481D01*
X56105853Y-75093100D01*
X56041703Y-74938228D01*
X56009000Y-74773816D01*
X56009000Y-74606184D01*
X56041703Y-74441772D01*
X56105853Y-74286900D01*
X56198985Y-74147519D01*
X56317519Y-74028985D01*
X56456900Y-73935853D01*
X56611772Y-73871703D01*
X56776184Y-73839000D01*
X56943816Y-73839000D01*
X57108228Y-73871703D01*
G37*
G36*
X63598674Y-73743465D02*
G01*
X63636367Y-73754899D01*
X63671103Y-73773466D01*
X63701548Y-73798452D01*
X63726534Y-73828897D01*
X63745101Y-73863633D01*
X63756535Y-73901326D01*
X63761000Y-73946661D01*
X63761000Y-75033339D01*
X63756535Y-75078674D01*
X63745101Y-75116367D01*
X63726534Y-75151103D01*
X63701548Y-75181548D01*
X63671103Y-75206534D01*
X63636367Y-75225101D01*
X63598674Y-75236535D01*
X63553339Y-75241000D01*
X62716661Y-75241000D01*
X62671326Y-75236535D01*
X62633633Y-75225101D01*
X62598897Y-75206534D01*
X62568452Y-75181548D01*
X62543466Y-75151103D01*
X62524899Y-75116367D01*
X62513465Y-75078674D01*
X62509000Y-75033339D01*
X62509000Y-73946661D01*
X62513465Y-73901326D01*
X62524899Y-73863633D01*
X62543466Y-73828897D01*
X62568452Y-73798452D01*
X62598897Y-73773466D01*
X62633633Y-73754899D01*
X62671326Y-73743465D01*
X62716661Y-73739000D01*
X63553339Y-73739000D01*
X63598674Y-73743465D01*
G37*
G36*
X65648674Y-73743465D02*
G01*
X65686367Y-73754899D01*
X65721103Y-73773466D01*
X65751548Y-73798452D01*
X65776534Y-73828897D01*
X65795101Y-73863633D01*
X65806535Y-73901326D01*
X65811000Y-73946661D01*
X65811000Y-75033339D01*
X65806535Y-75078674D01*
X65795101Y-75116367D01*
X65776534Y-75151103D01*
X65751548Y-75181548D01*
X65721103Y-75206534D01*
X65686367Y-75225101D01*
X65648674Y-75236535D01*
X65603339Y-75241000D01*
X64766661Y-75241000D01*
X64721326Y-75236535D01*
X64683633Y-75225101D01*
X64648897Y-75206534D01*
X64618452Y-75181548D01*
X64593466Y-75151103D01*
X64574899Y-75116367D01*
X64563465Y-75078674D01*
X64559000Y-75033339D01*
X64559000Y-73946661D01*
X64563465Y-73901326D01*
X64574899Y-73863633D01*
X64593466Y-73828897D01*
X64618452Y-73798452D01*
X64648897Y-73773466D01*
X64683633Y-73754899D01*
X64721326Y-73743465D01*
X64766661Y-73739000D01*
X65603339Y-73739000D01*
X65648674Y-73743465D01*
G37*
G36*
X61748674Y-73993465D02*
G01*
X61786367Y-74004899D01*
X61821103Y-74023466D01*
X61851548Y-74048452D01*
X61876534Y-74078897D01*
X61895101Y-74113633D01*
X61906535Y-74151326D01*
X61911000Y-74196661D01*
X61911000Y-75033339D01*
X61906535Y-75078674D01*
X61895101Y-75116367D01*
X61876534Y-75151103D01*
X61851548Y-75181548D01*
X61821103Y-75206534D01*
X61786367Y-75225101D01*
X61748674Y-75236535D01*
X61703339Y-75241000D01*
X60616661Y-75241000D01*
X60571326Y-75236535D01*
X60533633Y-75225101D01*
X60498897Y-75206534D01*
X60468452Y-75181548D01*
X60443466Y-75151103D01*
X60424899Y-75116367D01*
X60413465Y-75078674D01*
X60409000Y-75033339D01*
X60409000Y-74196661D01*
X60413465Y-74151326D01*
X60424899Y-74113633D01*
X60443466Y-74078897D01*
X60468452Y-74048452D01*
X60498897Y-74023466D01*
X60533633Y-74004899D01*
X60571326Y-73993465D01*
X60616661Y-73989000D01*
X61703339Y-73989000D01*
X61748674Y-73993465D01*
G37*
G36*
X78048674Y-73643465D02*
G01*
X78086367Y-73654899D01*
X78121103Y-73673466D01*
X78151548Y-73698452D01*
X78176534Y-73728897D01*
X78195101Y-73763633D01*
X78206535Y-73801326D01*
X78211000Y-73846661D01*
X78211000Y-74933339D01*
X78206535Y-74978674D01*
X78195101Y-75016367D01*
X78176534Y-75051103D01*
X78151548Y-75081548D01*
X78121103Y-75106534D01*
X78086367Y-75125101D01*
X78048674Y-75136535D01*
X78003339Y-75141000D01*
X77166661Y-75141000D01*
X77121326Y-75136535D01*
X77083633Y-75125101D01*
X77048897Y-75106534D01*
X77018452Y-75081548D01*
X76993466Y-75051103D01*
X76974899Y-75016367D01*
X76963465Y-74978674D01*
X76959000Y-74933339D01*
X76959000Y-73846661D01*
X76963465Y-73801326D01*
X76974899Y-73763633D01*
X76993466Y-73728897D01*
X77018452Y-73698452D01*
X77048897Y-73673466D01*
X77083633Y-73654899D01*
X77121326Y-73643465D01*
X77166661Y-73639000D01*
X78003339Y-73639000D01*
X78048674Y-73643465D01*
G37*
G36*
X75998674Y-73643465D02*
G01*
X76036367Y-73654899D01*
X76071103Y-73673466D01*
X76101548Y-73698452D01*
X76126534Y-73728897D01*
X76145101Y-73763633D01*
X76156535Y-73801326D01*
X76161000Y-73846661D01*
X76161000Y-74933339D01*
X76156535Y-74978674D01*
X76145101Y-75016367D01*
X76126534Y-75051103D01*
X76101548Y-75081548D01*
X76071103Y-75106534D01*
X76036367Y-75125101D01*
X75998674Y-75136535D01*
X75953339Y-75141000D01*
X75116661Y-75141000D01*
X75071326Y-75136535D01*
X75033633Y-75125101D01*
X74998897Y-75106534D01*
X74968452Y-75081548D01*
X74943466Y-75051103D01*
X74924899Y-75016367D01*
X74913465Y-74978674D01*
X74909000Y-74933339D01*
X74909000Y-73846661D01*
X74913465Y-73801326D01*
X74924899Y-73763633D01*
X74943466Y-73728897D01*
X74968452Y-73698452D01*
X74998897Y-73673466D01*
X75033633Y-73654899D01*
X75071326Y-73643465D01*
X75116661Y-73639000D01*
X75953339Y-73639000D01*
X75998674Y-73643465D01*
G37*
G36*
X80248674Y-73643465D02*
G01*
X80286367Y-73654899D01*
X80321103Y-73673466D01*
X80351548Y-73698452D01*
X80376534Y-73728897D01*
X80395101Y-73763633D01*
X80406535Y-73801326D01*
X80411000Y-73846661D01*
X80411000Y-74683339D01*
X80406535Y-74728674D01*
X80395101Y-74766367D01*
X80376534Y-74801103D01*
X80351548Y-74831548D01*
X80321103Y-74856534D01*
X80286367Y-74875101D01*
X80248674Y-74886535D01*
X80203339Y-74891000D01*
X79116661Y-74891000D01*
X79071326Y-74886535D01*
X79033633Y-74875101D01*
X78998897Y-74856534D01*
X78968452Y-74831548D01*
X78943466Y-74801103D01*
X78924899Y-74766367D01*
X78913465Y-74728674D01*
X78909000Y-74683339D01*
X78909000Y-73846661D01*
X78913465Y-73801326D01*
X78924899Y-73763633D01*
X78943466Y-73728897D01*
X78968452Y-73698452D01*
X78998897Y-73673466D01*
X79033633Y-73654899D01*
X79071326Y-73643465D01*
X79116661Y-73639000D01*
X80203339Y-73639000D01*
X80248674Y-73643465D01*
G37*
G36*
X84448674Y-73643465D02*
G01*
X84486367Y-73654899D01*
X84521103Y-73673466D01*
X84551548Y-73698452D01*
X84576534Y-73728897D01*
X84595101Y-73763633D01*
X84606535Y-73801326D01*
X84611000Y-73846661D01*
X84611000Y-74683339D01*
X84606535Y-74728674D01*
X84595101Y-74766367D01*
X84576534Y-74801103D01*
X84551548Y-74831548D01*
X84521103Y-74856534D01*
X84486367Y-74875101D01*
X84448674Y-74886535D01*
X84403339Y-74891000D01*
X83316661Y-74891000D01*
X83271326Y-74886535D01*
X83233633Y-74875101D01*
X83198897Y-74856534D01*
X83168452Y-74831548D01*
X83143466Y-74801103D01*
X83124899Y-74766367D01*
X83113465Y-74728674D01*
X83109000Y-74683339D01*
X83109000Y-73846661D01*
X83113465Y-73801326D01*
X83124899Y-73763633D01*
X83143466Y-73728897D01*
X83168452Y-73698452D01*
X83198897Y-73673466D01*
X83233633Y-73654899D01*
X83271326Y-73643465D01*
X83316661Y-73639000D01*
X84403339Y-73639000D01*
X84448674Y-73643465D01*
G37*
G36*
X82348674Y-73643465D02*
G01*
X82386367Y-73654899D01*
X82421103Y-73673466D01*
X82451548Y-73698452D01*
X82476534Y-73728897D01*
X82495101Y-73763633D01*
X82506535Y-73801326D01*
X82511000Y-73846661D01*
X82511000Y-74683339D01*
X82506535Y-74728674D01*
X82495101Y-74766367D01*
X82476534Y-74801103D01*
X82451548Y-74831548D01*
X82421103Y-74856534D01*
X82386367Y-74875101D01*
X82348674Y-74886535D01*
X82303339Y-74891000D01*
X81216661Y-74891000D01*
X81171326Y-74886535D01*
X81133633Y-74875101D01*
X81098897Y-74856534D01*
X81068452Y-74831548D01*
X81043466Y-74801103D01*
X81024899Y-74766367D01*
X81013465Y-74728674D01*
X81009000Y-74683339D01*
X81009000Y-73846661D01*
X81013465Y-73801326D01*
X81024899Y-73763633D01*
X81043466Y-73728897D01*
X81068452Y-73698452D01*
X81098897Y-73673466D01*
X81133633Y-73654899D01*
X81171326Y-73643465D01*
X81216661Y-73639000D01*
X82303339Y-73639000D01*
X82348674Y-73643465D01*
G37*
G36*
X34551000Y-74681000D02*
G01*
X32849000Y-74681000D01*
X32849000Y-72979000D01*
X34551000Y-72979000D01*
X34551000Y-74681000D01*
G37*
G36*
X43551000Y-74681000D02*
G01*
X41849000Y-74681000D01*
X41849000Y-72979000D01*
X43551000Y-72979000D01*
X43551000Y-74681000D01*
G37*
G36*
X20348228Y-72831703D02*
G01*
X20503100Y-72895853D01*
X20642481Y-72988985D01*
X20761015Y-73107519D01*
X20854147Y-73246900D01*
X20918297Y-73401772D01*
X20951000Y-73566184D01*
X20951000Y-73733816D01*
X20918297Y-73898228D01*
X20854147Y-74053100D01*
X20761015Y-74192481D01*
X20642481Y-74311015D01*
X20503100Y-74404147D01*
X20348228Y-74468297D01*
X20183816Y-74501000D01*
X20016184Y-74501000D01*
X19851772Y-74468297D01*
X19696900Y-74404147D01*
X19557519Y-74311015D01*
X19438985Y-74192481D01*
X19345853Y-74053100D01*
X19281703Y-73898228D01*
X19249000Y-73733816D01*
X19249000Y-73566184D01*
X19281703Y-73401772D01*
X19345853Y-73246900D01*
X19438985Y-73107519D01*
X19557519Y-72988985D01*
X19696900Y-72895853D01*
X19851772Y-72831703D01*
X20016184Y-72799000D01*
X20183816Y-72799000D01*
X20348228Y-72831703D01*
G37*
G36*
X61748674Y-71943465D02*
G01*
X61786367Y-71954899D01*
X61821103Y-71973466D01*
X61851548Y-71998452D01*
X61876534Y-72028897D01*
X61895101Y-72063633D01*
X61906535Y-72101326D01*
X61911000Y-72146661D01*
X61911000Y-72983339D01*
X61906535Y-73028674D01*
X61895101Y-73066367D01*
X61876534Y-73101103D01*
X61851548Y-73131548D01*
X61821103Y-73156534D01*
X61786367Y-73175101D01*
X61748674Y-73186535D01*
X61703339Y-73191000D01*
X60616661Y-73191000D01*
X60571326Y-73186535D01*
X60533633Y-73175101D01*
X60498897Y-73156534D01*
X60468452Y-73131548D01*
X60443466Y-73101103D01*
X60424899Y-73066367D01*
X60413465Y-73028674D01*
X60409000Y-72983339D01*
X60409000Y-72146661D01*
X60413465Y-72101326D01*
X60424899Y-72063633D01*
X60443466Y-72028897D01*
X60468452Y-71998452D01*
X60498897Y-71973466D01*
X60533633Y-71954899D01*
X60571326Y-71943465D01*
X60616661Y-71939000D01*
X61703339Y-71939000D01*
X61748674Y-71943465D01*
G37*
G36*
X97421000Y-72961000D02*
G01*
X95619000Y-72961000D01*
X95619000Y-71159000D01*
X97421000Y-71159000D01*
X97421000Y-72961000D01*
G37*
G36*
X49608228Y-70791703D02*
G01*
X49763100Y-70855853D01*
X49902481Y-70948985D01*
X50021015Y-71067519D01*
X50114147Y-71206900D01*
X50178297Y-71361772D01*
X50211000Y-71526184D01*
X50211000Y-71693816D01*
X50178297Y-71858228D01*
X50114147Y-72013100D01*
X50021015Y-72152481D01*
X49902481Y-72271015D01*
X49763100Y-72364147D01*
X49608228Y-72428297D01*
X49443816Y-72461000D01*
X49276184Y-72461000D01*
X49111772Y-72428297D01*
X48956900Y-72364147D01*
X48817519Y-72271015D01*
X48698985Y-72152481D01*
X48605853Y-72013100D01*
X48541703Y-71858228D01*
X48509000Y-71693816D01*
X48509000Y-71526184D01*
X48541703Y-71361772D01*
X48605853Y-71206900D01*
X48698985Y-71067519D01*
X48817519Y-70948985D01*
X48956900Y-70855853D01*
X49111772Y-70791703D01*
X49276184Y-70759000D01*
X49443816Y-70759000D01*
X49608228Y-70791703D01*
G37*
G36*
X83428228Y-70791703D02*
G01*
X83583100Y-70855853D01*
X83722481Y-70948985D01*
X83841015Y-71067519D01*
X83934147Y-71206900D01*
X83998297Y-71361772D01*
X84031000Y-71526184D01*
X84031000Y-71693816D01*
X83998297Y-71858228D01*
X83934147Y-72013100D01*
X83841015Y-72152481D01*
X83722481Y-72271015D01*
X83583100Y-72364147D01*
X83428228Y-72428297D01*
X83263816Y-72461000D01*
X83096184Y-72461000D01*
X82931772Y-72428297D01*
X82776900Y-72364147D01*
X82637519Y-72271015D01*
X82518985Y-72152481D01*
X82425853Y-72013100D01*
X82361703Y-71858228D01*
X82329000Y-71693816D01*
X82329000Y-71526184D01*
X82361703Y-71361772D01*
X82425853Y-71206900D01*
X82518985Y-71067519D01*
X82637519Y-70948985D01*
X82776900Y-70855853D01*
X82931772Y-70791703D01*
X83096184Y-70759000D01*
X83263816Y-70759000D01*
X83428228Y-70791703D01*
G37*
G36*
X57228228Y-70791703D02*
G01*
X57383100Y-70855853D01*
X57522481Y-70948985D01*
X57641015Y-71067519D01*
X57734147Y-71206900D01*
X57798297Y-71361772D01*
X57831000Y-71526184D01*
X57831000Y-71693816D01*
X57798297Y-71858228D01*
X57734147Y-72013100D01*
X57641015Y-72152481D01*
X57522481Y-72271015D01*
X57383100Y-72364147D01*
X57228228Y-72428297D01*
X57063816Y-72461000D01*
X56896184Y-72461000D01*
X56731772Y-72428297D01*
X56576900Y-72364147D01*
X56437519Y-72271015D01*
X56318985Y-72152481D01*
X56225853Y-72013100D01*
X56161703Y-71858228D01*
X56129000Y-71693816D01*
X56129000Y-71526184D01*
X56161703Y-71361772D01*
X56225853Y-71206900D01*
X56318985Y-71067519D01*
X56437519Y-70948985D01*
X56576900Y-70855853D01*
X56731772Y-70791703D01*
X56896184Y-70759000D01*
X57063816Y-70759000D01*
X57228228Y-70791703D01*
G37*
G36*
X64408228Y-70791703D02*
G01*
X64563100Y-70855853D01*
X64702481Y-70948985D01*
X64821015Y-71067519D01*
X64914147Y-71206900D01*
X64978297Y-71361772D01*
X65011000Y-71526184D01*
X65011000Y-71693816D01*
X64978297Y-71858228D01*
X64914147Y-72013100D01*
X64821015Y-72152481D01*
X64702481Y-72271015D01*
X64563100Y-72364147D01*
X64408228Y-72428297D01*
X64243816Y-72461000D01*
X64076184Y-72461000D01*
X63911772Y-72428297D01*
X63756900Y-72364147D01*
X63617519Y-72271015D01*
X63498985Y-72152481D01*
X63405853Y-72013100D01*
X63341703Y-71858228D01*
X63309000Y-71693816D01*
X63309000Y-71526184D01*
X63341703Y-71361772D01*
X63405853Y-71206900D01*
X63498985Y-71067519D01*
X63617519Y-70948985D01*
X63756900Y-70855853D01*
X63911772Y-70791703D01*
X64076184Y-70759000D01*
X64243816Y-70759000D01*
X64408228Y-70791703D01*
G37*
G36*
X72028228Y-70791703D02*
G01*
X72183100Y-70855853D01*
X72322481Y-70948985D01*
X72441015Y-71067519D01*
X72534147Y-71206900D01*
X72598297Y-71361772D01*
X72631000Y-71526184D01*
X72631000Y-71693816D01*
X72598297Y-71858228D01*
X72534147Y-72013100D01*
X72441015Y-72152481D01*
X72322481Y-72271015D01*
X72183100Y-72364147D01*
X72028228Y-72428297D01*
X71863816Y-72461000D01*
X71696184Y-72461000D01*
X71531772Y-72428297D01*
X71376900Y-72364147D01*
X71237519Y-72271015D01*
X71118985Y-72152481D01*
X71025853Y-72013100D01*
X70961703Y-71858228D01*
X70929000Y-71693816D01*
X70929000Y-71526184D01*
X70961703Y-71361772D01*
X71025853Y-71206900D01*
X71118985Y-71067519D01*
X71237519Y-70948985D01*
X71376900Y-70855853D01*
X71531772Y-70791703D01*
X71696184Y-70759000D01*
X71863816Y-70759000D01*
X72028228Y-70791703D01*
G37*
G36*
X75808228Y-70791703D02*
G01*
X75963100Y-70855853D01*
X76102481Y-70948985D01*
X76221015Y-71067519D01*
X76314147Y-71206900D01*
X76378297Y-71361772D01*
X76411000Y-71526184D01*
X76411000Y-71693816D01*
X76378297Y-71858228D01*
X76314147Y-72013100D01*
X76221015Y-72152481D01*
X76102481Y-72271015D01*
X75963100Y-72364147D01*
X75808228Y-72428297D01*
X75643816Y-72461000D01*
X75476184Y-72461000D01*
X75311772Y-72428297D01*
X75156900Y-72364147D01*
X75017519Y-72271015D01*
X74898985Y-72152481D01*
X74805853Y-72013100D01*
X74741703Y-71858228D01*
X74709000Y-71693816D01*
X74709000Y-71526184D01*
X74741703Y-71361772D01*
X74805853Y-71206900D01*
X74898985Y-71067519D01*
X75017519Y-70948985D01*
X75156900Y-70855853D01*
X75311772Y-70791703D01*
X75476184Y-70759000D01*
X75643816Y-70759000D01*
X75808228Y-70791703D01*
G37*
G36*
X6351000Y-71681000D02*
G01*
X4049000Y-71681000D01*
X4049000Y-69379000D01*
X6351000Y-69379000D01*
X6351000Y-71681000D01*
G37*
G36*
X61748674Y-70193465D02*
G01*
X61786367Y-70204899D01*
X61821103Y-70223466D01*
X61851548Y-70248452D01*
X61876534Y-70278897D01*
X61895101Y-70313633D01*
X61906535Y-70351326D01*
X61911000Y-70396661D01*
X61911000Y-71233339D01*
X61906535Y-71278674D01*
X61895101Y-71316367D01*
X61876534Y-71351103D01*
X61851548Y-71381548D01*
X61821103Y-71406534D01*
X61786367Y-71425101D01*
X61748674Y-71436535D01*
X61703339Y-71441000D01*
X60616661Y-71441000D01*
X60571326Y-71436535D01*
X60533633Y-71425101D01*
X60498897Y-71406534D01*
X60468452Y-71381548D01*
X60443466Y-71351103D01*
X60424899Y-71316367D01*
X60413465Y-71278674D01*
X60409000Y-71233339D01*
X60409000Y-70396661D01*
X60413465Y-70351326D01*
X60424899Y-70313633D01*
X60443466Y-70278897D01*
X60468452Y-70248452D01*
X60498897Y-70223466D01*
X60533633Y-70204899D01*
X60571326Y-70193465D01*
X60616661Y-70189000D01*
X61703339Y-70189000D01*
X61748674Y-70193465D01*
G37*
G36*
X16194549Y-69151116D02*
G01*
X16305734Y-69173232D01*
X16330134Y-69183339D01*
X16508422Y-69257188D01*
X16515203Y-69259997D01*
X16703720Y-69385960D01*
X16864040Y-69546280D01*
X16987476Y-69731015D01*
X16990004Y-69734799D01*
X17011841Y-69787519D01*
X17076768Y-69944266D01*
X17121000Y-70166636D01*
X17121000Y-70393364D01*
X17076768Y-70615734D01*
X16990003Y-70825203D01*
X16864040Y-71013720D01*
X16703720Y-71174040D01*
X16515203Y-71300003D01*
X16305734Y-71386768D01*
X16263690Y-71395131D01*
X16083365Y-71431000D01*
X15856635Y-71431000D01*
X15676310Y-71395131D01*
X15634266Y-71386768D01*
X15424797Y-71300003D01*
X15236280Y-71174040D01*
X15075960Y-71013720D01*
X14949997Y-70825203D01*
X14863232Y-70615734D01*
X14819000Y-70393364D01*
X14819000Y-70166636D01*
X14863232Y-69944266D01*
X14928159Y-69787519D01*
X14949996Y-69734799D01*
X14952524Y-69731015D01*
X15075960Y-69546280D01*
X15236280Y-69385960D01*
X15424797Y-69259997D01*
X15431579Y-69257188D01*
X15609866Y-69183339D01*
X15634266Y-69173232D01*
X15745451Y-69151116D01*
X15856635Y-69129000D01*
X16083365Y-69129000D01*
X16194549Y-69151116D01*
G37*
G36*
X9501000Y-71431000D02*
G01*
X7199000Y-71431000D01*
X7199000Y-69129000D01*
X9501000Y-69129000D01*
X9501000Y-71431000D01*
G37*
G36*
X33948228Y-69511703D02*
G01*
X34103100Y-69575853D01*
X34242481Y-69668985D01*
X34361015Y-69787519D01*
X34454147Y-69926900D01*
X34518297Y-70081772D01*
X34551000Y-70246184D01*
X34551000Y-70413816D01*
X34518297Y-70578228D01*
X34454147Y-70733100D01*
X34361015Y-70872481D01*
X34242481Y-70991015D01*
X34103100Y-71084147D01*
X33948228Y-71148297D01*
X33783816Y-71181000D01*
X33616184Y-71181000D01*
X33451772Y-71148297D01*
X33296900Y-71084147D01*
X33157519Y-70991015D01*
X33038985Y-70872481D01*
X32945853Y-70733100D01*
X32881703Y-70578228D01*
X32849000Y-70413816D01*
X32849000Y-70246184D01*
X32881703Y-70081772D01*
X32945853Y-69926900D01*
X33038985Y-69787519D01*
X33157519Y-69668985D01*
X33296900Y-69575853D01*
X33451772Y-69511703D01*
X33616184Y-69479000D01*
X33783816Y-69479000D01*
X33948228Y-69511703D01*
G37*
G36*
X42948228Y-69511703D02*
G01*
X43103100Y-69575853D01*
X43242481Y-69668985D01*
X43361015Y-69787519D01*
X43454147Y-69926900D01*
X43518297Y-70081772D01*
X43551000Y-70246184D01*
X43551000Y-70413816D01*
X43518297Y-70578228D01*
X43454147Y-70733100D01*
X43361015Y-70872481D01*
X43242481Y-70991015D01*
X43103100Y-71084147D01*
X42948228Y-71148297D01*
X42783816Y-71181000D01*
X42616184Y-71181000D01*
X42451772Y-71148297D01*
X42296900Y-71084147D01*
X42157519Y-70991015D01*
X42038985Y-70872481D01*
X41945853Y-70733100D01*
X41881703Y-70578228D01*
X41849000Y-70413816D01*
X41849000Y-70246184D01*
X41881703Y-70081772D01*
X41945853Y-69926900D01*
X42038985Y-69787519D01*
X42157519Y-69668985D01*
X42296900Y-69575853D01*
X42451772Y-69511703D01*
X42616184Y-69479000D01*
X42783816Y-69479000D01*
X42948228Y-69511703D01*
G37*
G36*
X96633512Y-68623927D02*
G01*
X96782812Y-68653624D01*
X96946784Y-68721544D01*
X97094354Y-68820147D01*
X97219853Y-68945646D01*
X97318456Y-69093216D01*
X97386376Y-69257188D01*
X97421000Y-69431259D01*
X97421000Y-69608741D01*
X97386376Y-69782812D01*
X97318456Y-69946784D01*
X97219853Y-70094354D01*
X97094354Y-70219853D01*
X96946784Y-70318456D01*
X96782812Y-70386376D01*
X96644863Y-70413815D01*
X96608742Y-70421000D01*
X96431258Y-70421000D01*
X96395137Y-70413815D01*
X96257188Y-70386376D01*
X96093216Y-70318456D01*
X95945646Y-70219853D01*
X95820147Y-70094354D01*
X95721544Y-69946784D01*
X95653624Y-69782812D01*
X95619000Y-69608741D01*
X95619000Y-69431259D01*
X95653624Y-69257188D01*
X95721544Y-69093216D01*
X95820147Y-68945646D01*
X95945646Y-68820147D01*
X96093216Y-68721544D01*
X96257188Y-68653624D01*
X96406488Y-68623927D01*
X96431258Y-68619000D01*
X96608742Y-68619000D01*
X96633512Y-68623927D01*
G37*
G36*
X64408228Y-68251703D02*
G01*
X64563100Y-68315853D01*
X64702481Y-68408985D01*
X64821015Y-68527519D01*
X64914147Y-68666900D01*
X64978297Y-68821772D01*
X65011000Y-68986184D01*
X65011000Y-69153816D01*
X64978297Y-69318228D01*
X64914147Y-69473100D01*
X64821015Y-69612481D01*
X64702481Y-69731015D01*
X64563100Y-69824147D01*
X64408228Y-69888297D01*
X64243816Y-69921000D01*
X64076184Y-69921000D01*
X63911772Y-69888297D01*
X63756900Y-69824147D01*
X63617519Y-69731015D01*
X63498985Y-69612481D01*
X63405853Y-69473100D01*
X63341703Y-69318228D01*
X63309000Y-69153816D01*
X63309000Y-68986184D01*
X63341703Y-68821772D01*
X63405853Y-68666900D01*
X63498985Y-68527519D01*
X63617519Y-68408985D01*
X63756900Y-68315853D01*
X63911772Y-68251703D01*
X64076184Y-68219000D01*
X64243816Y-68219000D01*
X64408228Y-68251703D01*
G37*
G36*
X72028228Y-68251703D02*
G01*
X72183100Y-68315853D01*
X72322481Y-68408985D01*
X72441015Y-68527519D01*
X72534147Y-68666900D01*
X72598297Y-68821772D01*
X72631000Y-68986184D01*
X72631000Y-69153816D01*
X72598297Y-69318228D01*
X72534147Y-69473100D01*
X72441015Y-69612481D01*
X72322481Y-69731015D01*
X72183100Y-69824147D01*
X72028228Y-69888297D01*
X71863816Y-69921000D01*
X71696184Y-69921000D01*
X71531772Y-69888297D01*
X71376900Y-69824147D01*
X71237519Y-69731015D01*
X71118985Y-69612481D01*
X71025853Y-69473100D01*
X70961703Y-69318228D01*
X70929000Y-69153816D01*
X70929000Y-68986184D01*
X70961703Y-68821772D01*
X71025853Y-68666900D01*
X71118985Y-68527519D01*
X71237519Y-68408985D01*
X71376900Y-68315853D01*
X71531772Y-68251703D01*
X71696184Y-68219000D01*
X71863816Y-68219000D01*
X72028228Y-68251703D01*
G37*
G36*
X57228228Y-68251703D02*
G01*
X57383100Y-68315853D01*
X57522481Y-68408985D01*
X57641015Y-68527519D01*
X57734147Y-68666900D01*
X57798297Y-68821772D01*
X57831000Y-68986184D01*
X57831000Y-69153816D01*
X57798297Y-69318228D01*
X57734147Y-69473100D01*
X57641015Y-69612481D01*
X57522481Y-69731015D01*
X57383100Y-69824147D01*
X57228228Y-69888297D01*
X57063816Y-69921000D01*
X56896184Y-69921000D01*
X56731772Y-69888297D01*
X56576900Y-69824147D01*
X56437519Y-69731015D01*
X56318985Y-69612481D01*
X56225853Y-69473100D01*
X56161703Y-69318228D01*
X56129000Y-69153816D01*
X56129000Y-68986184D01*
X56161703Y-68821772D01*
X56225853Y-68666900D01*
X56318985Y-68527519D01*
X56437519Y-68408985D01*
X56576900Y-68315853D01*
X56731772Y-68251703D01*
X56896184Y-68219000D01*
X57063816Y-68219000D01*
X57228228Y-68251703D01*
G37*
G36*
X83428228Y-68251703D02*
G01*
X83583100Y-68315853D01*
X83722481Y-68408985D01*
X83841015Y-68527519D01*
X83934147Y-68666900D01*
X83998297Y-68821772D01*
X84031000Y-68986184D01*
X84031000Y-69153816D01*
X83998297Y-69318228D01*
X83934147Y-69473100D01*
X83841015Y-69612481D01*
X83722481Y-69731015D01*
X83583100Y-69824147D01*
X83428228Y-69888297D01*
X83263816Y-69921000D01*
X83096184Y-69921000D01*
X82931772Y-69888297D01*
X82776900Y-69824147D01*
X82637519Y-69731015D01*
X82518985Y-69612481D01*
X82425853Y-69473100D01*
X82361703Y-69318228D01*
X82329000Y-69153816D01*
X82329000Y-68986184D01*
X82361703Y-68821772D01*
X82425853Y-68666900D01*
X82518985Y-68527519D01*
X82637519Y-68408985D01*
X82776900Y-68315853D01*
X82931772Y-68251703D01*
X83096184Y-68219000D01*
X83263816Y-68219000D01*
X83428228Y-68251703D01*
G37*
G36*
X75808228Y-68251703D02*
G01*
X75963100Y-68315853D01*
X76102481Y-68408985D01*
X76221015Y-68527519D01*
X76314147Y-68666900D01*
X76378297Y-68821772D01*
X76411000Y-68986184D01*
X76411000Y-69153816D01*
X76378297Y-69318228D01*
X76314147Y-69473100D01*
X76221015Y-69612481D01*
X76102481Y-69731015D01*
X75963100Y-69824147D01*
X75808228Y-69888297D01*
X75643816Y-69921000D01*
X75476184Y-69921000D01*
X75311772Y-69888297D01*
X75156900Y-69824147D01*
X75017519Y-69731015D01*
X74898985Y-69612481D01*
X74805853Y-69473100D01*
X74741703Y-69318228D01*
X74709000Y-69153816D01*
X74709000Y-68986184D01*
X74741703Y-68821772D01*
X74805853Y-68666900D01*
X74898985Y-68527519D01*
X75017519Y-68408985D01*
X75156900Y-68315853D01*
X75311772Y-68251703D01*
X75476184Y-68219000D01*
X75643816Y-68219000D01*
X75808228Y-68251703D01*
G37*
G36*
X49608228Y-68251703D02*
G01*
X49763100Y-68315853D01*
X49902481Y-68408985D01*
X50021015Y-68527519D01*
X50114147Y-68666900D01*
X50178297Y-68821772D01*
X50211000Y-68986184D01*
X50211000Y-69153816D01*
X50178297Y-69318228D01*
X50114147Y-69473100D01*
X50021015Y-69612481D01*
X49902481Y-69731015D01*
X49763100Y-69824147D01*
X49608228Y-69888297D01*
X49443816Y-69921000D01*
X49276184Y-69921000D01*
X49111772Y-69888297D01*
X48956900Y-69824147D01*
X48817519Y-69731015D01*
X48698985Y-69612481D01*
X48605853Y-69473100D01*
X48541703Y-69318228D01*
X48509000Y-69153816D01*
X48509000Y-68986184D01*
X48541703Y-68821772D01*
X48605853Y-68666900D01*
X48698985Y-68527519D01*
X48817519Y-68408985D01*
X48956900Y-68315853D01*
X49111772Y-68251703D01*
X49276184Y-68219000D01*
X49443816Y-68219000D01*
X49608228Y-68251703D01*
G37*
G36*
X61748674Y-68143465D02*
G01*
X61786367Y-68154899D01*
X61821103Y-68173466D01*
X61851548Y-68198452D01*
X61876534Y-68228897D01*
X61895101Y-68263633D01*
X61906535Y-68301326D01*
X61911000Y-68346661D01*
X61911000Y-69183339D01*
X61906535Y-69228674D01*
X61895101Y-69266367D01*
X61876534Y-69301103D01*
X61851548Y-69331548D01*
X61821103Y-69356534D01*
X61786367Y-69375101D01*
X61748674Y-69386535D01*
X61703339Y-69391000D01*
X60616661Y-69391000D01*
X60571326Y-69386535D01*
X60533633Y-69375101D01*
X60498897Y-69356534D01*
X60468452Y-69331548D01*
X60443466Y-69301103D01*
X60424899Y-69266367D01*
X60413465Y-69228674D01*
X60409000Y-69183339D01*
X60409000Y-68346661D01*
X60413465Y-68301326D01*
X60424899Y-68263633D01*
X60443466Y-68228897D01*
X60468452Y-68198452D01*
X60498897Y-68173466D01*
X60533633Y-68154899D01*
X60571326Y-68143465D01*
X60616661Y-68139000D01*
X61703339Y-68139000D01*
X61748674Y-68143465D01*
G37*
G36*
X22918228Y-67281703D02*
G01*
X23073100Y-67345853D01*
X23212481Y-67438985D01*
X23331015Y-67557519D01*
X23424147Y-67696900D01*
X23488297Y-67851772D01*
X23521000Y-68016184D01*
X23521000Y-68183816D01*
X23488297Y-68348228D01*
X23424147Y-68503100D01*
X23331015Y-68642481D01*
X23212481Y-68761015D01*
X23073100Y-68854147D01*
X22918228Y-68918297D01*
X22753816Y-68951000D01*
X22586184Y-68951000D01*
X22421772Y-68918297D01*
X22266900Y-68854147D01*
X22127519Y-68761015D01*
X22008985Y-68642481D01*
X21915853Y-68503100D01*
X21851703Y-68348228D01*
X21819000Y-68183816D01*
X21819000Y-68016184D01*
X21851703Y-67851772D01*
X21915853Y-67696900D01*
X22008985Y-67557519D01*
X22127519Y-67438985D01*
X22266900Y-67345853D01*
X22421772Y-67281703D01*
X22586184Y-67249000D01*
X22753816Y-67249000D01*
X22918228Y-67281703D01*
G37*
G36*
X20378228Y-67281703D02*
G01*
X20533100Y-67345853D01*
X20672481Y-67438985D01*
X20791015Y-67557519D01*
X20884147Y-67696900D01*
X20948297Y-67851772D01*
X20981000Y-68016184D01*
X20981000Y-68183816D01*
X20948297Y-68348228D01*
X20884147Y-68503100D01*
X20791015Y-68642481D01*
X20672481Y-68761015D01*
X20533100Y-68854147D01*
X20378228Y-68918297D01*
X20213816Y-68951000D01*
X20046184Y-68951000D01*
X19881772Y-68918297D01*
X19726900Y-68854147D01*
X19587519Y-68761015D01*
X19468985Y-68642481D01*
X19375853Y-68503100D01*
X19311703Y-68348228D01*
X19279000Y-68183816D01*
X19279000Y-68016184D01*
X19311703Y-67851772D01*
X19375853Y-67696900D01*
X19468985Y-67557519D01*
X19587519Y-67438985D01*
X19726900Y-67345853D01*
X19881772Y-67281703D01*
X20046184Y-67249000D01*
X20213816Y-67249000D01*
X20378228Y-67281703D01*
G37*
G36*
X27998228Y-67281703D02*
G01*
X28153100Y-67345853D01*
X28292481Y-67438985D01*
X28411015Y-67557519D01*
X28504147Y-67696900D01*
X28568297Y-67851772D01*
X28601000Y-68016184D01*
X28601000Y-68183816D01*
X28568297Y-68348228D01*
X28504147Y-68503100D01*
X28411015Y-68642481D01*
X28292481Y-68761015D01*
X28153100Y-68854147D01*
X27998228Y-68918297D01*
X27833816Y-68951000D01*
X27666184Y-68951000D01*
X27501772Y-68918297D01*
X27346900Y-68854147D01*
X27207519Y-68761015D01*
X27088985Y-68642481D01*
X26995853Y-68503100D01*
X26931703Y-68348228D01*
X26899000Y-68183816D01*
X26899000Y-68016184D01*
X26931703Y-67851772D01*
X26995853Y-67696900D01*
X27088985Y-67557519D01*
X27207519Y-67438985D01*
X27346900Y-67345853D01*
X27501772Y-67281703D01*
X27666184Y-67249000D01*
X27833816Y-67249000D01*
X27998228Y-67281703D01*
G37*
G36*
X25458228Y-67281703D02*
G01*
X25613100Y-67345853D01*
X25752481Y-67438985D01*
X25871015Y-67557519D01*
X25964147Y-67696900D01*
X26028297Y-67851772D01*
X26061000Y-68016184D01*
X26061000Y-68183816D01*
X26028297Y-68348228D01*
X25964147Y-68503100D01*
X25871015Y-68642481D01*
X25752481Y-68761015D01*
X25613100Y-68854147D01*
X25458228Y-68918297D01*
X25293816Y-68951000D01*
X25126184Y-68951000D01*
X24961772Y-68918297D01*
X24806900Y-68854147D01*
X24667519Y-68761015D01*
X24548985Y-68642481D01*
X24455853Y-68503100D01*
X24391703Y-68348228D01*
X24359000Y-68183816D01*
X24359000Y-68016184D01*
X24391703Y-67851772D01*
X24455853Y-67696900D01*
X24548985Y-67557519D01*
X24667519Y-67438985D01*
X24806900Y-67345853D01*
X24961772Y-67281703D01*
X25126184Y-67249000D01*
X25293816Y-67249000D01*
X25458228Y-67281703D01*
G37*
G36*
X96633512Y-66083927D02*
G01*
X96782812Y-66113624D01*
X96946784Y-66181544D01*
X97094354Y-66280147D01*
X97219853Y-66405646D01*
X97318456Y-66553216D01*
X97386376Y-66717188D01*
X97421000Y-66891259D01*
X97421000Y-67068741D01*
X97386376Y-67242812D01*
X97318456Y-67406784D01*
X97219853Y-67554354D01*
X97094354Y-67679853D01*
X96946784Y-67778456D01*
X96782812Y-67846376D01*
X96633512Y-67876073D01*
X96608742Y-67881000D01*
X96431258Y-67881000D01*
X96406488Y-67876073D01*
X96257188Y-67846376D01*
X96093216Y-67778456D01*
X95945646Y-67679853D01*
X95820147Y-67554354D01*
X95721544Y-67406784D01*
X95653624Y-67242812D01*
X95619000Y-67068741D01*
X95619000Y-66891259D01*
X95653624Y-66717188D01*
X95721544Y-66553216D01*
X95820147Y-66405646D01*
X95945646Y-66280147D01*
X96093216Y-66181544D01*
X96257188Y-66113624D01*
X96406488Y-66083927D01*
X96431258Y-66079000D01*
X96608742Y-66079000D01*
X96633512Y-66083927D01*
G37*
G36*
X8540367Y-65548295D02*
G01*
X8665734Y-65573232D01*
X8875203Y-65659997D01*
X9063720Y-65785960D01*
X9224040Y-65946280D01*
X9350003Y-66134797D01*
X9436768Y-66344266D01*
X9448977Y-66405646D01*
X9479914Y-66561173D01*
X9481000Y-66566636D01*
X9481000Y-66793364D01*
X9436768Y-67015734D01*
X9350003Y-67225203D01*
X9224040Y-67413720D01*
X9063720Y-67574040D01*
X8875203Y-67700003D01*
X8665734Y-67786768D01*
X8554549Y-67808884D01*
X8443365Y-67831000D01*
X8216635Y-67831000D01*
X8105451Y-67808884D01*
X7994266Y-67786768D01*
X7784797Y-67700003D01*
X7596280Y-67574040D01*
X7435960Y-67413720D01*
X7309997Y-67225203D01*
X7223232Y-67015734D01*
X7179000Y-66793364D01*
X7179000Y-66566636D01*
X7180087Y-66561173D01*
X7211023Y-66405646D01*
X7223232Y-66344266D01*
X7309997Y-66134797D01*
X7435960Y-65946280D01*
X7596280Y-65785960D01*
X7784797Y-65659997D01*
X7994266Y-65573232D01*
X8119633Y-65548295D01*
X8216635Y-65529000D01*
X8443365Y-65529000D01*
X8540367Y-65548295D01*
G37*
G36*
X17101000Y-67831000D02*
G01*
X14799000Y-67831000D01*
X14799000Y-65529000D01*
X17101000Y-65529000D01*
X17101000Y-67831000D01*
G37*
G36*
X61748674Y-66293465D02*
G01*
X61786367Y-66304899D01*
X61821103Y-66323466D01*
X61851548Y-66348452D01*
X61876534Y-66378897D01*
X61895101Y-66413633D01*
X61906535Y-66451326D01*
X61911000Y-66496661D01*
X61911000Y-67333339D01*
X61906535Y-67378674D01*
X61895101Y-67416367D01*
X61876534Y-67451103D01*
X61851548Y-67481548D01*
X61821103Y-67506534D01*
X61786367Y-67525101D01*
X61748674Y-67536535D01*
X61703339Y-67541000D01*
X60616661Y-67541000D01*
X60571326Y-67536535D01*
X60533633Y-67525101D01*
X60498897Y-67506534D01*
X60468452Y-67481548D01*
X60443466Y-67451103D01*
X60424899Y-67416367D01*
X60413465Y-67378674D01*
X60409000Y-67333339D01*
X60409000Y-66496661D01*
X60413465Y-66451326D01*
X60424899Y-66413633D01*
X60443466Y-66378897D01*
X60468452Y-66348452D01*
X60498897Y-66323466D01*
X60533633Y-66304899D01*
X60571326Y-66293465D01*
X60616661Y-66289000D01*
X61703339Y-66289000D01*
X61748674Y-66293465D01*
G37*
G36*
X49608228Y-65711703D02*
G01*
X49763100Y-65775853D01*
X49902481Y-65868985D01*
X50021015Y-65987519D01*
X50114147Y-66126900D01*
X50178297Y-66281772D01*
X50211000Y-66446184D01*
X50211000Y-66613816D01*
X50178297Y-66778228D01*
X50114147Y-66933100D01*
X50021015Y-67072481D01*
X49902481Y-67191015D01*
X49763100Y-67284147D01*
X49608228Y-67348297D01*
X49443816Y-67381000D01*
X49276184Y-67381000D01*
X49111772Y-67348297D01*
X48956900Y-67284147D01*
X48817519Y-67191015D01*
X48698985Y-67072481D01*
X48605853Y-66933100D01*
X48541703Y-66778228D01*
X48509000Y-66613816D01*
X48509000Y-66446184D01*
X48541703Y-66281772D01*
X48605853Y-66126900D01*
X48698985Y-65987519D01*
X48817519Y-65868985D01*
X48956900Y-65775853D01*
X49111772Y-65711703D01*
X49276184Y-65679000D01*
X49443816Y-65679000D01*
X49608228Y-65711703D01*
G37*
G36*
X83428228Y-65711703D02*
G01*
X83583100Y-65775853D01*
X83722481Y-65868985D01*
X83841015Y-65987519D01*
X83934147Y-66126900D01*
X83998297Y-66281772D01*
X84031000Y-66446184D01*
X84031000Y-66613816D01*
X83998297Y-66778228D01*
X83934147Y-66933100D01*
X83841015Y-67072481D01*
X83722481Y-67191015D01*
X83583100Y-67284147D01*
X83428228Y-67348297D01*
X83263816Y-67381000D01*
X83096184Y-67381000D01*
X82931772Y-67348297D01*
X82776900Y-67284147D01*
X82637519Y-67191015D01*
X82518985Y-67072481D01*
X82425853Y-66933100D01*
X82361703Y-66778228D01*
X82329000Y-66613816D01*
X82329000Y-66446184D01*
X82361703Y-66281772D01*
X82425853Y-66126900D01*
X82518985Y-65987519D01*
X82637519Y-65868985D01*
X82776900Y-65775853D01*
X82931772Y-65711703D01*
X83096184Y-65679000D01*
X83263816Y-65679000D01*
X83428228Y-65711703D01*
G37*
G36*
X75808228Y-65711703D02*
G01*
X75963100Y-65775853D01*
X76102481Y-65868985D01*
X76221015Y-65987519D01*
X76314147Y-66126900D01*
X76378297Y-66281772D01*
X76411000Y-66446184D01*
X76411000Y-66613816D01*
X76378297Y-66778228D01*
X76314147Y-66933100D01*
X76221015Y-67072481D01*
X76102481Y-67191015D01*
X75963100Y-67284147D01*
X75808228Y-67348297D01*
X75643816Y-67381000D01*
X75476184Y-67381000D01*
X75311772Y-67348297D01*
X75156900Y-67284147D01*
X75017519Y-67191015D01*
X74898985Y-67072481D01*
X74805853Y-66933100D01*
X74741703Y-66778228D01*
X74709000Y-66613816D01*
X74709000Y-66446184D01*
X74741703Y-66281772D01*
X74805853Y-66126900D01*
X74898985Y-65987519D01*
X75017519Y-65868985D01*
X75156900Y-65775853D01*
X75311772Y-65711703D01*
X75476184Y-65679000D01*
X75643816Y-65679000D01*
X75808228Y-65711703D01*
G37*
G36*
X64408228Y-65711703D02*
G01*
X64563100Y-65775853D01*
X64702481Y-65868985D01*
X64821015Y-65987519D01*
X64914147Y-66126900D01*
X64978297Y-66281772D01*
X65011000Y-66446184D01*
X65011000Y-66613816D01*
X64978297Y-66778228D01*
X64914147Y-66933100D01*
X64821015Y-67072481D01*
X64702481Y-67191015D01*
X64563100Y-67284147D01*
X64408228Y-67348297D01*
X64243816Y-67381000D01*
X64076184Y-67381000D01*
X63911772Y-67348297D01*
X63756900Y-67284147D01*
X63617519Y-67191015D01*
X63498985Y-67072481D01*
X63405853Y-66933100D01*
X63341703Y-66778228D01*
X63309000Y-66613816D01*
X63309000Y-66446184D01*
X63341703Y-66281772D01*
X63405853Y-66126900D01*
X63498985Y-65987519D01*
X63617519Y-65868985D01*
X63756900Y-65775853D01*
X63911772Y-65711703D01*
X64076184Y-65679000D01*
X64243816Y-65679000D01*
X64408228Y-65711703D01*
G37*
G36*
X72028228Y-65711703D02*
G01*
X72183100Y-65775853D01*
X72322481Y-65868985D01*
X72441015Y-65987519D01*
X72534147Y-66126900D01*
X72598297Y-66281772D01*
X72631000Y-66446184D01*
X72631000Y-66613816D01*
X72598297Y-66778228D01*
X72534147Y-66933100D01*
X72441015Y-67072481D01*
X72322481Y-67191015D01*
X72183100Y-67284147D01*
X72028228Y-67348297D01*
X71863816Y-67381000D01*
X71696184Y-67381000D01*
X71531772Y-67348297D01*
X71376900Y-67284147D01*
X71237519Y-67191015D01*
X71118985Y-67072481D01*
X71025853Y-66933100D01*
X70961703Y-66778228D01*
X70929000Y-66613816D01*
X70929000Y-66446184D01*
X70961703Y-66281772D01*
X71025853Y-66126900D01*
X71118985Y-65987519D01*
X71237519Y-65868985D01*
X71376900Y-65775853D01*
X71531772Y-65711703D01*
X71696184Y-65679000D01*
X71863816Y-65679000D01*
X72028228Y-65711703D01*
G37*
G36*
X57228228Y-65711703D02*
G01*
X57383100Y-65775853D01*
X57522481Y-65868985D01*
X57641015Y-65987519D01*
X57734147Y-66126900D01*
X57798297Y-66281772D01*
X57831000Y-66446184D01*
X57831000Y-66613816D01*
X57798297Y-66778228D01*
X57734147Y-66933100D01*
X57641015Y-67072481D01*
X57522481Y-67191015D01*
X57383100Y-67284147D01*
X57228228Y-67348297D01*
X57063816Y-67381000D01*
X56896184Y-67381000D01*
X56731772Y-67348297D01*
X56576900Y-67284147D01*
X56437519Y-67191015D01*
X56318985Y-67072481D01*
X56225853Y-66933100D01*
X56161703Y-66778228D01*
X56129000Y-66613816D01*
X56129000Y-66446184D01*
X56161703Y-66281772D01*
X56225853Y-66126900D01*
X56318985Y-65987519D01*
X56437519Y-65868985D01*
X56576900Y-65775853D01*
X56731772Y-65711703D01*
X56896184Y-65679000D01*
X57063816Y-65679000D01*
X57228228Y-65711703D01*
G37*
G36*
X42948228Y-63911703D02*
G01*
X43103100Y-63975853D01*
X43242481Y-64068985D01*
X43361015Y-64187519D01*
X43454147Y-64326900D01*
X43518297Y-64481772D01*
X43551000Y-64646184D01*
X43551000Y-64813816D01*
X43518297Y-64978228D01*
X43454147Y-65133100D01*
X43361015Y-65272481D01*
X43242481Y-65391015D01*
X43103100Y-65484147D01*
X42948228Y-65548297D01*
X42783816Y-65581000D01*
X42616184Y-65581000D01*
X42451772Y-65548297D01*
X42296900Y-65484147D01*
X42157519Y-65391015D01*
X42038985Y-65272481D01*
X41945853Y-65133100D01*
X41881703Y-64978228D01*
X41849000Y-64813816D01*
X41849000Y-64646184D01*
X41881703Y-64481772D01*
X41945853Y-64326900D01*
X42038985Y-64187519D01*
X42157519Y-64068985D01*
X42296900Y-63975853D01*
X42451772Y-63911703D01*
X42616184Y-63879000D01*
X42783816Y-63879000D01*
X42948228Y-63911703D01*
G37*
G36*
X33948228Y-63911703D02*
G01*
X34103100Y-63975853D01*
X34242481Y-64068985D01*
X34361015Y-64187519D01*
X34454147Y-64326900D01*
X34518297Y-64481772D01*
X34551000Y-64646184D01*
X34551000Y-64813816D01*
X34518297Y-64978228D01*
X34454147Y-65133100D01*
X34361015Y-65272481D01*
X34242481Y-65391015D01*
X34103100Y-65484147D01*
X33948228Y-65548297D01*
X33783816Y-65581000D01*
X33616184Y-65581000D01*
X33451772Y-65548297D01*
X33296900Y-65484147D01*
X33157519Y-65391015D01*
X33038985Y-65272481D01*
X32945853Y-65133100D01*
X32881703Y-64978228D01*
X32849000Y-64813816D01*
X32849000Y-64646184D01*
X32881703Y-64481772D01*
X32945853Y-64326900D01*
X33038985Y-64187519D01*
X33157519Y-64068985D01*
X33296900Y-63975853D01*
X33451772Y-63911703D01*
X33616184Y-63879000D01*
X33783816Y-63879000D01*
X33948228Y-63911703D01*
G37*
G36*
X61748674Y-64243465D02*
G01*
X61786367Y-64254899D01*
X61821103Y-64273466D01*
X61851548Y-64298452D01*
X61876534Y-64328897D01*
X61895101Y-64363633D01*
X61906535Y-64401326D01*
X61911000Y-64446661D01*
X61911000Y-65283339D01*
X61906535Y-65328674D01*
X61895101Y-65366367D01*
X61876534Y-65401103D01*
X61851548Y-65431548D01*
X61821103Y-65456534D01*
X61786367Y-65475101D01*
X61748674Y-65486535D01*
X61703339Y-65491000D01*
X60616661Y-65491000D01*
X60571326Y-65486535D01*
X60533633Y-65475101D01*
X60498897Y-65456534D01*
X60468452Y-65431548D01*
X60443466Y-65401103D01*
X60424899Y-65366367D01*
X60413465Y-65328674D01*
X60409000Y-65283339D01*
X60409000Y-64446661D01*
X60413465Y-64401326D01*
X60424899Y-64363633D01*
X60443466Y-64328897D01*
X60468452Y-64298452D01*
X60498897Y-64273466D01*
X60533633Y-64254899D01*
X60571326Y-64243465D01*
X60616661Y-64239000D01*
X61703339Y-64239000D01*
X61748674Y-64243465D01*
G37*
G36*
X65011000Y-64841000D02*
G01*
X63309000Y-64841000D01*
X63309000Y-63139000D01*
X65011000Y-63139000D01*
X65011000Y-64841000D01*
G37*
G36*
X57228228Y-63171703D02*
G01*
X57383100Y-63235853D01*
X57522481Y-63328985D01*
X57641015Y-63447519D01*
X57734147Y-63586900D01*
X57798297Y-63741772D01*
X57831000Y-63906184D01*
X57831000Y-64073816D01*
X57798297Y-64238228D01*
X57734147Y-64393100D01*
X57641015Y-64532481D01*
X57522481Y-64651015D01*
X57383100Y-64744147D01*
X57228228Y-64808297D01*
X57063816Y-64841000D01*
X56896184Y-64841000D01*
X56731772Y-64808297D01*
X56576900Y-64744147D01*
X56437519Y-64651015D01*
X56318985Y-64532481D01*
X56225853Y-64393100D01*
X56161703Y-64238228D01*
X56129000Y-64073816D01*
X56129000Y-63906184D01*
X56161703Y-63741772D01*
X56225853Y-63586900D01*
X56318985Y-63447519D01*
X56437519Y-63328985D01*
X56576900Y-63235853D01*
X56731772Y-63171703D01*
X56896184Y-63139000D01*
X57063816Y-63139000D01*
X57228228Y-63171703D01*
G37*
G36*
X50211000Y-64841000D02*
G01*
X48509000Y-64841000D01*
X48509000Y-63139000D01*
X50211000Y-63139000D01*
X50211000Y-64841000D01*
G37*
G36*
X76411000Y-64841000D02*
G01*
X74709000Y-64841000D01*
X74709000Y-63139000D01*
X76411000Y-63139000D01*
X76411000Y-64841000D01*
G37*
G36*
X72028228Y-63171703D02*
G01*
X72183100Y-63235853D01*
X72322481Y-63328985D01*
X72441015Y-63447519D01*
X72534147Y-63586900D01*
X72598297Y-63741772D01*
X72631000Y-63906184D01*
X72631000Y-64073816D01*
X72598297Y-64238228D01*
X72534147Y-64393100D01*
X72441015Y-64532481D01*
X72322481Y-64651015D01*
X72183100Y-64744147D01*
X72028228Y-64808297D01*
X71863816Y-64841000D01*
X71696184Y-64841000D01*
X71531772Y-64808297D01*
X71376900Y-64744147D01*
X71237519Y-64651015D01*
X71118985Y-64532481D01*
X71025853Y-64393100D01*
X70961703Y-64238228D01*
X70929000Y-64073816D01*
X70929000Y-63906184D01*
X70961703Y-63741772D01*
X71025853Y-63586900D01*
X71118985Y-63447519D01*
X71237519Y-63328985D01*
X71376900Y-63235853D01*
X71531772Y-63171703D01*
X71696184Y-63139000D01*
X71863816Y-63139000D01*
X72028228Y-63171703D01*
G37*
G36*
X83428228Y-63171703D02*
G01*
X83583100Y-63235853D01*
X83722481Y-63328985D01*
X83841015Y-63447519D01*
X83934147Y-63586900D01*
X83998297Y-63741772D01*
X84031000Y-63906184D01*
X84031000Y-64073816D01*
X83998297Y-64238228D01*
X83934147Y-64393100D01*
X83841015Y-64532481D01*
X83722481Y-64651015D01*
X83583100Y-64744147D01*
X83428228Y-64808297D01*
X83263816Y-64841000D01*
X83096184Y-64841000D01*
X82931772Y-64808297D01*
X82776900Y-64744147D01*
X82637519Y-64651015D01*
X82518985Y-64532481D01*
X82425853Y-64393100D01*
X82361703Y-64238228D01*
X82329000Y-64073816D01*
X82329000Y-63906184D01*
X82361703Y-63741772D01*
X82425853Y-63586900D01*
X82518985Y-63447519D01*
X82637519Y-63328985D01*
X82776900Y-63235853D01*
X82931772Y-63171703D01*
X83096184Y-63139000D01*
X83263816Y-63139000D01*
X83428228Y-63171703D01*
G37*
G36*
X17101000Y-64431000D02*
G01*
X14799000Y-64431000D01*
X14799000Y-62129000D01*
X17101000Y-62129000D01*
X17101000Y-64431000D01*
G37*
G36*
X8554549Y-62151116D02*
G01*
X8665734Y-62173232D01*
X8875203Y-62259997D01*
X9063720Y-62385960D01*
X9224040Y-62546280D01*
X9350003Y-62734797D01*
X9350004Y-62734799D01*
X9375416Y-62796150D01*
X9436768Y-62944266D01*
X9452502Y-63023365D01*
X9481000Y-63166635D01*
X9481000Y-63393365D01*
X9458884Y-63504549D01*
X9436768Y-63615734D01*
X9350003Y-63825203D01*
X9224040Y-64013720D01*
X9063720Y-64174040D01*
X8875203Y-64300003D01*
X8665734Y-64386768D01*
X8563935Y-64407017D01*
X8443365Y-64431000D01*
X8216635Y-64431000D01*
X8096065Y-64407017D01*
X7994266Y-64386768D01*
X7784797Y-64300003D01*
X7596280Y-64174040D01*
X7435960Y-64013720D01*
X7309997Y-63825203D01*
X7223232Y-63615734D01*
X7201116Y-63504549D01*
X7179000Y-63393365D01*
X7179000Y-63166635D01*
X7207498Y-63023365D01*
X7223232Y-62944266D01*
X7284584Y-62796150D01*
X7309996Y-62734799D01*
X7309997Y-62734797D01*
X7435960Y-62546280D01*
X7596280Y-62385960D01*
X7784797Y-62259997D01*
X7994266Y-62173232D01*
X8105451Y-62151116D01*
X8216635Y-62129000D01*
X8443365Y-62129000D01*
X8554549Y-62151116D01*
G37*
G36*
X5424549Y-61781116D02*
G01*
X5535734Y-61803232D01*
X5745203Y-61889997D01*
X5933720Y-62015960D01*
X6094040Y-62176280D01*
X6220003Y-62364797D01*
X6306768Y-62574266D01*
X6328884Y-62685451D01*
X6338700Y-62734797D01*
X6351000Y-62796636D01*
X6351000Y-63023364D01*
X6308734Y-63235852D01*
X6306768Y-63245733D01*
X6223186Y-63447520D01*
X6220003Y-63455203D01*
X6094040Y-63643720D01*
X5933720Y-63804040D01*
X5745203Y-63930003D01*
X5535734Y-64016768D01*
X5424549Y-64038884D01*
X5313365Y-64061000D01*
X5086635Y-64061000D01*
X4975451Y-64038884D01*
X4864266Y-64016768D01*
X4654797Y-63930003D01*
X4466280Y-63804040D01*
X4305960Y-63643720D01*
X4179997Y-63455203D01*
X4176815Y-63447520D01*
X4093232Y-63245733D01*
X4091267Y-63235852D01*
X4049000Y-63023364D01*
X4049000Y-62796636D01*
X4061301Y-62734797D01*
X4071116Y-62685451D01*
X4093232Y-62574266D01*
X4179997Y-62364797D01*
X4305960Y-62176280D01*
X4466280Y-62015960D01*
X4654797Y-61889997D01*
X4864266Y-61803232D01*
X4975451Y-61781116D01*
X5086635Y-61759000D01*
X5313365Y-61759000D01*
X5424549Y-61781116D01*
G37*
G36*
X89651000Y-63551000D02*
G01*
X87949000Y-63551000D01*
X87949000Y-61849000D01*
X89651000Y-61849000D01*
X89651000Y-63551000D01*
G37*
G36*
X96633512Y-61003927D02*
G01*
X96782812Y-61033624D01*
X96946784Y-61101544D01*
X97094354Y-61200147D01*
X97219853Y-61325646D01*
X97318456Y-61473216D01*
X97386376Y-61637188D01*
X97410605Y-61759000D01*
X97419404Y-61803232D01*
X97421000Y-61811259D01*
X97421000Y-61988741D01*
X97386376Y-62162812D01*
X97318456Y-62326784D01*
X97219853Y-62474354D01*
X97094354Y-62599853D01*
X96946784Y-62698456D01*
X96782812Y-62766376D01*
X96633512Y-62796073D01*
X96608742Y-62801000D01*
X96431258Y-62801000D01*
X96406488Y-62796073D01*
X96257188Y-62766376D01*
X96093216Y-62698456D01*
X95945646Y-62599853D01*
X95820147Y-62474354D01*
X95721544Y-62326784D01*
X95653624Y-62162812D01*
X95619000Y-61988741D01*
X95619000Y-61811259D01*
X95620597Y-61803232D01*
X95629395Y-61759000D01*
X95653624Y-61637188D01*
X95721544Y-61473216D01*
X95820147Y-61325646D01*
X95945646Y-61200147D01*
X96093216Y-61101544D01*
X96257188Y-61033624D01*
X96406488Y-61003927D01*
X96431258Y-60999000D01*
X96608742Y-60999000D01*
X96633512Y-61003927D01*
G37*
G36*
X43551000Y-62081000D02*
G01*
X41849000Y-62081000D01*
X41849000Y-60379000D01*
X43551000Y-60379000D01*
X43551000Y-62081000D01*
G37*
G36*
X34551000Y-62081000D02*
G01*
X32849000Y-62081000D01*
X32849000Y-60379000D01*
X34551000Y-60379000D01*
X34551000Y-62081000D01*
G37*
G36*
X22918228Y-59661703D02*
G01*
X23073100Y-59725853D01*
X23212481Y-59818985D01*
X23331015Y-59937519D01*
X23424147Y-60076900D01*
X23488297Y-60231772D01*
X23521000Y-60396184D01*
X23521000Y-60563816D01*
X23488297Y-60728228D01*
X23424147Y-60883100D01*
X23331015Y-61022481D01*
X23212481Y-61141015D01*
X23073100Y-61234147D01*
X22918228Y-61298297D01*
X22753816Y-61331000D01*
X22586184Y-61331000D01*
X22421772Y-61298297D01*
X22266900Y-61234147D01*
X22127519Y-61141015D01*
X22008985Y-61022481D01*
X21915853Y-60883100D01*
X21851703Y-60728228D01*
X21819000Y-60563816D01*
X21819000Y-60396184D01*
X21851703Y-60231772D01*
X21915853Y-60076900D01*
X22008985Y-59937519D01*
X22127519Y-59818985D01*
X22266900Y-59725853D01*
X22421772Y-59661703D01*
X22586184Y-59629000D01*
X22753816Y-59629000D01*
X22918228Y-59661703D01*
G37*
G36*
X25458228Y-59661703D02*
G01*
X25613100Y-59725853D01*
X25752481Y-59818985D01*
X25871015Y-59937519D01*
X25964147Y-60076900D01*
X26028297Y-60231772D01*
X26061000Y-60396184D01*
X26061000Y-60563816D01*
X26028297Y-60728228D01*
X25964147Y-60883100D01*
X25871015Y-61022481D01*
X25752481Y-61141015D01*
X25613100Y-61234147D01*
X25458228Y-61298297D01*
X25293816Y-61331000D01*
X25126184Y-61331000D01*
X24961772Y-61298297D01*
X24806900Y-61234147D01*
X24667519Y-61141015D01*
X24548985Y-61022481D01*
X24455853Y-60883100D01*
X24391703Y-60728228D01*
X24359000Y-60563816D01*
X24359000Y-60396184D01*
X24391703Y-60231772D01*
X24455853Y-60076900D01*
X24548985Y-59937519D01*
X24667519Y-59818985D01*
X24806900Y-59725853D01*
X24961772Y-59661703D01*
X25126184Y-59629000D01*
X25293816Y-59629000D01*
X25458228Y-59661703D01*
G37*
G36*
X28601000Y-61331000D02*
G01*
X26899000Y-61331000D01*
X26899000Y-59629000D01*
X28601000Y-59629000D01*
X28601000Y-61331000D01*
G37*
G36*
X20378228Y-59661703D02*
G01*
X20533100Y-59725853D01*
X20672481Y-59818985D01*
X20791015Y-59937519D01*
X20884147Y-60076900D01*
X20948297Y-60231772D01*
X20981000Y-60396184D01*
X20981000Y-60563816D01*
X20948297Y-60728228D01*
X20884147Y-60883100D01*
X20791015Y-61022481D01*
X20672481Y-61141015D01*
X20533100Y-61234147D01*
X20378228Y-61298297D01*
X20213816Y-61331000D01*
X20046184Y-61331000D01*
X19881772Y-61298297D01*
X19726900Y-61234147D01*
X19587519Y-61141015D01*
X19468985Y-61022481D01*
X19375853Y-60883100D01*
X19311703Y-60728228D01*
X19279000Y-60563816D01*
X19279000Y-60396184D01*
X19311703Y-60231772D01*
X19375853Y-60076900D01*
X19468985Y-59937519D01*
X19587519Y-59818985D01*
X19726900Y-59725853D01*
X19881772Y-59661703D01*
X20046184Y-59629000D01*
X20213816Y-59629000D01*
X20378228Y-59661703D01*
G37*
G36*
X89048228Y-59381703D02*
G01*
X89203100Y-59445853D01*
X89342481Y-59538985D01*
X89461015Y-59657519D01*
X89554147Y-59796900D01*
X89618297Y-59951772D01*
X89651000Y-60116184D01*
X89651000Y-60283816D01*
X89618297Y-60448228D01*
X89554147Y-60603100D01*
X89461015Y-60742481D01*
X89342481Y-60861015D01*
X89203100Y-60954147D01*
X89048228Y-61018297D01*
X88883816Y-61051000D01*
X88716184Y-61051000D01*
X88551772Y-61018297D01*
X88396900Y-60954147D01*
X88257519Y-60861015D01*
X88138985Y-60742481D01*
X88045853Y-60603100D01*
X87981703Y-60448228D01*
X87949000Y-60283816D01*
X87949000Y-60116184D01*
X87981703Y-59951772D01*
X88045853Y-59796900D01*
X88138985Y-59657519D01*
X88257519Y-59538985D01*
X88396900Y-59445853D01*
X88551772Y-59381703D01*
X88716184Y-59349000D01*
X88883816Y-59349000D01*
X89048228Y-59381703D01*
G37*
G36*
X59594605Y-57996661D02*
G01*
X59682161Y-58014077D01*
X59909829Y-58108380D01*
X60114724Y-58245287D01*
X60288973Y-58419536D01*
X60315342Y-58459000D01*
X60425881Y-58624433D01*
X60520183Y-58852099D01*
X60566180Y-59083339D01*
X60568258Y-59093789D01*
X60568258Y-59340215D01*
X60520183Y-59581905D01*
X60425880Y-59809573D01*
X60288973Y-60014468D01*
X60114724Y-60188717D01*
X59909829Y-60325624D01*
X59909828Y-60325625D01*
X59909827Y-60325625D01*
X59682161Y-60419927D01*
X59440472Y-60468002D01*
X59194044Y-60468002D01*
X58952355Y-60419927D01*
X58724689Y-60325625D01*
X58724688Y-60325625D01*
X58724687Y-60325624D01*
X58519792Y-60188717D01*
X58345543Y-60014468D01*
X58208636Y-59809573D01*
X58114333Y-59581905D01*
X58066258Y-59340215D01*
X58066258Y-59093789D01*
X58068337Y-59083339D01*
X58114333Y-58852099D01*
X58208635Y-58624433D01*
X58319174Y-58459000D01*
X58345543Y-58419536D01*
X58519792Y-58245287D01*
X58724687Y-58108380D01*
X58952355Y-58014077D01*
X59039911Y-57996661D01*
X59194044Y-57966002D01*
X59440472Y-57966002D01*
X59594605Y-57996661D01*
G37*
G36*
X97421000Y-60261000D02*
G01*
X95619000Y-60261000D01*
X95619000Y-58459000D01*
X97421000Y-58459000D01*
X97421000Y-60261000D01*
G37*
G36*
X69398674Y-57793465D02*
G01*
X69436367Y-57804899D01*
X69471103Y-57823466D01*
X69501548Y-57848452D01*
X69526534Y-57878897D01*
X69545101Y-57913633D01*
X69556535Y-57951326D01*
X69561000Y-57996661D01*
X69561000Y-59083339D01*
X69556535Y-59128674D01*
X69545101Y-59166367D01*
X69526534Y-59201103D01*
X69501548Y-59231548D01*
X69471103Y-59256534D01*
X69436367Y-59275101D01*
X69398674Y-59286535D01*
X69353339Y-59291000D01*
X68516661Y-59291000D01*
X68471326Y-59286535D01*
X68433633Y-59275101D01*
X68398897Y-59256534D01*
X68368452Y-59231548D01*
X68343466Y-59201103D01*
X68324899Y-59166367D01*
X68313465Y-59128674D01*
X68309000Y-59083339D01*
X68309000Y-57996661D01*
X68313465Y-57951326D01*
X68324899Y-57913633D01*
X68343466Y-57878897D01*
X68368452Y-57848452D01*
X68398897Y-57823466D01*
X68433633Y-57804899D01*
X68471326Y-57793465D01*
X68516661Y-57789000D01*
X69353339Y-57789000D01*
X69398674Y-57793465D01*
G37*
G36*
X67348674Y-57793465D02*
G01*
X67386367Y-57804899D01*
X67421103Y-57823466D01*
X67451548Y-57848452D01*
X67476534Y-57878897D01*
X67495101Y-57913633D01*
X67506535Y-57951326D01*
X67511000Y-57996661D01*
X67511000Y-59083339D01*
X67506535Y-59128674D01*
X67495101Y-59166367D01*
X67476534Y-59201103D01*
X67451548Y-59231548D01*
X67421103Y-59256534D01*
X67386367Y-59275101D01*
X67348674Y-59286535D01*
X67303339Y-59291000D01*
X66466661Y-59291000D01*
X66421326Y-59286535D01*
X66383633Y-59275101D01*
X66348897Y-59256534D01*
X66318452Y-59231548D01*
X66293466Y-59201103D01*
X66274899Y-59166367D01*
X66263465Y-59128674D01*
X66259000Y-59083339D01*
X66259000Y-57996661D01*
X66263465Y-57951326D01*
X66274899Y-57913633D01*
X66293466Y-57878897D01*
X66318452Y-57848452D01*
X66348897Y-57823466D01*
X66383633Y-57804899D01*
X66421326Y-57793465D01*
X66466661Y-57789000D01*
X67303339Y-57789000D01*
X67348674Y-57793465D01*
G37*
G36*
X13851000Y-58451000D02*
G01*
X12149000Y-58451000D01*
X12149000Y-56749000D01*
X13851000Y-56749000D01*
X13851000Y-58451000D01*
G37*
G36*
X15748228Y-56781703D02*
G01*
X15903100Y-56845853D01*
X16042481Y-56938985D01*
X16161015Y-57057519D01*
X16254147Y-57196900D01*
X16318297Y-57351772D01*
X16351000Y-57516184D01*
X16351000Y-57683816D01*
X16318297Y-57848228D01*
X16254147Y-58003100D01*
X16161015Y-58142481D01*
X16042481Y-58261015D01*
X15903100Y-58354147D01*
X15748228Y-58418297D01*
X15583816Y-58451000D01*
X15416184Y-58451000D01*
X15251772Y-58418297D01*
X15096900Y-58354147D01*
X14957519Y-58261015D01*
X14838985Y-58142481D01*
X14745853Y-58003100D01*
X14681703Y-57848228D01*
X14649000Y-57683816D01*
X14649000Y-57516184D01*
X14681703Y-57351772D01*
X14745853Y-57196900D01*
X14838985Y-57057519D01*
X14957519Y-56938985D01*
X15096900Y-56845853D01*
X15251772Y-56781703D01*
X15416184Y-56749000D01*
X15583816Y-56749000D01*
X15748228Y-56781703D01*
G37*
G36*
X83933512Y-55923927D02*
G01*
X84082812Y-55953624D01*
X84246784Y-56021544D01*
X84394354Y-56120147D01*
X84519853Y-56245646D01*
X84618456Y-56393216D01*
X84686376Y-56557188D01*
X84721000Y-56731259D01*
X84721000Y-56908741D01*
X84686376Y-57082812D01*
X84618456Y-57246784D01*
X84519853Y-57394354D01*
X84394354Y-57519853D01*
X84246784Y-57618456D01*
X84082812Y-57686376D01*
X83933512Y-57716073D01*
X83908742Y-57721000D01*
X83731258Y-57721000D01*
X83706488Y-57716073D01*
X83557188Y-57686376D01*
X83393216Y-57618456D01*
X83245646Y-57519853D01*
X83120147Y-57394354D01*
X83021544Y-57246784D01*
X82953624Y-57082812D01*
X82919000Y-56908741D01*
X82919000Y-56731259D01*
X82953624Y-56557188D01*
X83021544Y-56393216D01*
X83120147Y-56245646D01*
X83245646Y-56120147D01*
X83393216Y-56021544D01*
X83557188Y-55953624D01*
X83706488Y-55923927D01*
X83731258Y-55919000D01*
X83908742Y-55919000D01*
X83933512Y-55923927D01*
G37*
G36*
X28053512Y-55923927D02*
G01*
X28202812Y-55953624D01*
X28366784Y-56021544D01*
X28514354Y-56120147D01*
X28639853Y-56245646D01*
X28738456Y-56393216D01*
X28806376Y-56557188D01*
X28841000Y-56731259D01*
X28841000Y-56908741D01*
X28806376Y-57082812D01*
X28738456Y-57246784D01*
X28639853Y-57394354D01*
X28514354Y-57519853D01*
X28366784Y-57618456D01*
X28202812Y-57686376D01*
X28053512Y-57716073D01*
X28028742Y-57721000D01*
X27851258Y-57721000D01*
X27826488Y-57716073D01*
X27677188Y-57686376D01*
X27513216Y-57618456D01*
X27365646Y-57519853D01*
X27240147Y-57394354D01*
X27141544Y-57246784D01*
X27073624Y-57082812D01*
X27039000Y-56908741D01*
X27039000Y-56731259D01*
X27073624Y-56557188D01*
X27141544Y-56393216D01*
X27240147Y-56245646D01*
X27365646Y-56120147D01*
X27513216Y-56021544D01*
X27677188Y-55953624D01*
X27826488Y-55923927D01*
X27851258Y-55919000D01*
X28028742Y-55919000D01*
X28053512Y-55923927D01*
G37*
G36*
X43293512Y-55923927D02*
G01*
X43442812Y-55953624D01*
X43606784Y-56021544D01*
X43754354Y-56120147D01*
X43879853Y-56245646D01*
X43978456Y-56393216D01*
X44046376Y-56557188D01*
X44081000Y-56731259D01*
X44081000Y-56908741D01*
X44046376Y-57082812D01*
X43978456Y-57246784D01*
X43879853Y-57394354D01*
X43754354Y-57519853D01*
X43606784Y-57618456D01*
X43442812Y-57686376D01*
X43293512Y-57716073D01*
X43268742Y-57721000D01*
X43091258Y-57721000D01*
X43066488Y-57716073D01*
X42917188Y-57686376D01*
X42753216Y-57618456D01*
X42605646Y-57519853D01*
X42480147Y-57394354D01*
X42381544Y-57246784D01*
X42313624Y-57082812D01*
X42279000Y-56908741D01*
X42279000Y-56731259D01*
X42313624Y-56557188D01*
X42381544Y-56393216D01*
X42480147Y-56245646D01*
X42605646Y-56120147D01*
X42753216Y-56021544D01*
X42917188Y-55953624D01*
X43066488Y-55923927D01*
X43091258Y-55919000D01*
X43268742Y-55919000D01*
X43293512Y-55923927D01*
G37*
G36*
X33133512Y-55923927D02*
G01*
X33282812Y-55953624D01*
X33446784Y-56021544D01*
X33594354Y-56120147D01*
X33719853Y-56245646D01*
X33818456Y-56393216D01*
X33886376Y-56557188D01*
X33921000Y-56731259D01*
X33921000Y-56908741D01*
X33886376Y-57082812D01*
X33818456Y-57246784D01*
X33719853Y-57394354D01*
X33594354Y-57519853D01*
X33446784Y-57618456D01*
X33282812Y-57686376D01*
X33133512Y-57716073D01*
X33108742Y-57721000D01*
X32931258Y-57721000D01*
X32906488Y-57716073D01*
X32757188Y-57686376D01*
X32593216Y-57618456D01*
X32445646Y-57519853D01*
X32320147Y-57394354D01*
X32221544Y-57246784D01*
X32153624Y-57082812D01*
X32119000Y-56908741D01*
X32119000Y-56731259D01*
X32153624Y-56557188D01*
X32221544Y-56393216D01*
X32320147Y-56245646D01*
X32445646Y-56120147D01*
X32593216Y-56021544D01*
X32757188Y-55953624D01*
X32906488Y-55923927D01*
X32931258Y-55919000D01*
X33108742Y-55919000D01*
X33133512Y-55923927D01*
G37*
G36*
X61966031Y-54154207D02*
G01*
X62164145Y-54214305D01*
X62164148Y-54214306D01*
X62230030Y-54249521D01*
X62346729Y-54311897D01*
X62506765Y-54443235D01*
X62638103Y-54603271D01*
X62638104Y-54603273D01*
X62735694Y-54785851D01*
X62735694Y-54785852D01*
X62735695Y-54785854D01*
X62795793Y-54983968D01*
X62803285Y-55060038D01*
X62811000Y-55138369D01*
X62811000Y-56241631D01*
X62810604Y-56245647D01*
X62795793Y-56396032D01*
X62746906Y-56557188D01*
X62735694Y-56594149D01*
X62683939Y-56690975D01*
X62638103Y-56776729D01*
X62506765Y-56936765D01*
X62346729Y-57068103D01*
X62268274Y-57110038D01*
X62164149Y-57165694D01*
X62164146Y-57165695D01*
X61966032Y-57225793D01*
X61760000Y-57246085D01*
X61553969Y-57225793D01*
X61355855Y-57165695D01*
X61355852Y-57165694D01*
X61251727Y-57110038D01*
X61173272Y-57068103D01*
X61013236Y-56936765D01*
X60881898Y-56776729D01*
X60857593Y-56731258D01*
X60784305Y-56594147D01*
X60724207Y-56396030D01*
X60709000Y-56241631D01*
X60709000Y-55138370D01*
X60720789Y-55018674D01*
X60724207Y-54983969D01*
X60784305Y-54785855D01*
X60784306Y-54785852D01*
X60826570Y-54706782D01*
X60881897Y-54603271D01*
X61013235Y-54443235D01*
X61173271Y-54311897D01*
X61266815Y-54261897D01*
X61355851Y-54214306D01*
X61355854Y-54214305D01*
X61553968Y-54154207D01*
X61760000Y-54133915D01*
X61966031Y-54154207D01*
G37*
G36*
X66966031Y-54154207D02*
G01*
X67164145Y-54214305D01*
X67164148Y-54214306D01*
X67230030Y-54249521D01*
X67346729Y-54311897D01*
X67506765Y-54443235D01*
X67638103Y-54603271D01*
X67638104Y-54603273D01*
X67735694Y-54785851D01*
X67735694Y-54785852D01*
X67735695Y-54785854D01*
X67795793Y-54983968D01*
X67803285Y-55060038D01*
X67811000Y-55138369D01*
X67811000Y-56241631D01*
X67810604Y-56245647D01*
X67795793Y-56396032D01*
X67746906Y-56557188D01*
X67735694Y-56594149D01*
X67683939Y-56690975D01*
X67638103Y-56776729D01*
X67506765Y-56936765D01*
X67346729Y-57068103D01*
X67268274Y-57110038D01*
X67164149Y-57165694D01*
X67164146Y-57165695D01*
X66966032Y-57225793D01*
X66760000Y-57246085D01*
X66553969Y-57225793D01*
X66355855Y-57165695D01*
X66355852Y-57165694D01*
X66251727Y-57110038D01*
X66173272Y-57068103D01*
X66013236Y-56936765D01*
X65881898Y-56776729D01*
X65857593Y-56731258D01*
X65784305Y-56594147D01*
X65724207Y-56396030D01*
X65709000Y-56241631D01*
X65709000Y-55138370D01*
X65720789Y-55018674D01*
X65724207Y-54983969D01*
X65784305Y-54785855D01*
X65784306Y-54785852D01*
X65826570Y-54706782D01*
X65881897Y-54603271D01*
X66013235Y-54443235D01*
X66173271Y-54311897D01*
X66266815Y-54261897D01*
X66355851Y-54214306D01*
X66355854Y-54214305D01*
X66553968Y-54154207D01*
X66760000Y-54133915D01*
X66966031Y-54154207D01*
G37*
G36*
X23588674Y-55983465D02*
G01*
X23626367Y-55994899D01*
X23661103Y-56013466D01*
X23691548Y-56038452D01*
X23716534Y-56068897D01*
X23735101Y-56103633D01*
X23746535Y-56141326D01*
X23751000Y-56186661D01*
X23751000Y-57023339D01*
X23746535Y-57068674D01*
X23735101Y-57106367D01*
X23716534Y-57141103D01*
X23691548Y-57171548D01*
X23661103Y-57196534D01*
X23626367Y-57215101D01*
X23588674Y-57226535D01*
X23543339Y-57231000D01*
X22456661Y-57231000D01*
X22411326Y-57226535D01*
X22373633Y-57215101D01*
X22338897Y-57196534D01*
X22308452Y-57171548D01*
X22283466Y-57141103D01*
X22264899Y-57106367D01*
X22253465Y-57068674D01*
X22249000Y-57023339D01*
X22249000Y-56186661D01*
X22253465Y-56141326D01*
X22264899Y-56103633D01*
X22283466Y-56068897D01*
X22308452Y-56038452D01*
X22338897Y-56013466D01*
X22373633Y-55994899D01*
X22411326Y-55983465D01*
X22456661Y-55979000D01*
X23543339Y-55979000D01*
X23588674Y-55983465D01*
G37*
G36*
X69416031Y-54104207D02*
G01*
X69614145Y-54164305D01*
X69614148Y-54164306D01*
X69664571Y-54191258D01*
X69796729Y-54261897D01*
X69956765Y-54393235D01*
X70088103Y-54553271D01*
X70088104Y-54553273D01*
X70185694Y-54735851D01*
X70185694Y-54735852D01*
X70185695Y-54735854D01*
X70245793Y-54933968D01*
X70261000Y-55088370D01*
X70261000Y-56191630D01*
X70245793Y-56346032D01*
X70231479Y-56393218D01*
X70185694Y-56544149D01*
X70158970Y-56594146D01*
X70088103Y-56726729D01*
X69956765Y-56886765D01*
X69796729Y-57018103D01*
X69722986Y-57057519D01*
X69614149Y-57115694D01*
X69614146Y-57115695D01*
X69416032Y-57175793D01*
X69210000Y-57196085D01*
X69003969Y-57175793D01*
X68805855Y-57115695D01*
X68805852Y-57115694D01*
X68697015Y-57057519D01*
X68623272Y-57018103D01*
X68463236Y-56886765D01*
X68331898Y-56726729D01*
X68309184Y-56684234D01*
X68234305Y-56544147D01*
X68174207Y-56346030D01*
X68159000Y-56191631D01*
X68159000Y-55088370D01*
X68169282Y-54983971D01*
X68174207Y-54933969D01*
X68234305Y-54735855D01*
X68234306Y-54735852D01*
X68305171Y-54603273D01*
X68331897Y-54553271D01*
X68463235Y-54393235D01*
X68623271Y-54261897D01*
X68755428Y-54191258D01*
X68805851Y-54164306D01*
X68805854Y-54164305D01*
X69003968Y-54104207D01*
X69210000Y-54083915D01*
X69416031Y-54104207D01*
G37*
G36*
X74416031Y-54104207D02*
G01*
X74614145Y-54164305D01*
X74614148Y-54164306D01*
X74664571Y-54191258D01*
X74796729Y-54261897D01*
X74956765Y-54393235D01*
X75088103Y-54553271D01*
X75088104Y-54553273D01*
X75185694Y-54735851D01*
X75185694Y-54735852D01*
X75185695Y-54735854D01*
X75245793Y-54933968D01*
X75261000Y-55088370D01*
X75261000Y-56191630D01*
X75245793Y-56346032D01*
X75231479Y-56393218D01*
X75185694Y-56544149D01*
X75158970Y-56594146D01*
X75088103Y-56726729D01*
X74956765Y-56886765D01*
X74796729Y-57018103D01*
X74722986Y-57057519D01*
X74614149Y-57115694D01*
X74614146Y-57115695D01*
X74416032Y-57175793D01*
X74210000Y-57196085D01*
X74003969Y-57175793D01*
X73805855Y-57115695D01*
X73805852Y-57115694D01*
X73697015Y-57057519D01*
X73623272Y-57018103D01*
X73463236Y-56886765D01*
X73331898Y-56726729D01*
X73309184Y-56684234D01*
X73234305Y-56544147D01*
X73174207Y-56346030D01*
X73159000Y-56191631D01*
X73159000Y-55088370D01*
X73169282Y-54983971D01*
X73174207Y-54933969D01*
X73234305Y-54735855D01*
X73234306Y-54735852D01*
X73305171Y-54603273D01*
X73331897Y-54553271D01*
X73463235Y-54393235D01*
X73623271Y-54261897D01*
X73755428Y-54191258D01*
X73805851Y-54164306D01*
X73805854Y-54164305D01*
X74003968Y-54104207D01*
X74210000Y-54083915D01*
X74416031Y-54104207D01*
G37*
G36*
X47414903Y-54727075D02*
G01*
X47556809Y-54785854D01*
X47642571Y-54821378D01*
X47847466Y-54958285D01*
X48021715Y-55132534D01*
X48121863Y-55282416D01*
X48158623Y-55337431D01*
X48252925Y-55565097D01*
X48301000Y-55806786D01*
X48301000Y-56053214D01*
X48252925Y-56294903D01*
X48212203Y-56393216D01*
X48158622Y-56522571D01*
X48021715Y-56727466D01*
X47847466Y-56901715D01*
X47642571Y-57038622D01*
X47642570Y-57038623D01*
X47642569Y-57038623D01*
X47414903Y-57132925D01*
X47173214Y-57181000D01*
X46926786Y-57181000D01*
X46685097Y-57132925D01*
X46457431Y-57038623D01*
X46457430Y-57038623D01*
X46457429Y-57038622D01*
X46252534Y-56901715D01*
X46078285Y-56727466D01*
X45941378Y-56522571D01*
X45887798Y-56393216D01*
X45847075Y-56294903D01*
X45799000Y-56053214D01*
X45799000Y-55806786D01*
X45847075Y-55565097D01*
X45941377Y-55337431D01*
X45978137Y-55282416D01*
X46078285Y-55132534D01*
X46252534Y-54958285D01*
X46457429Y-54821378D01*
X46543192Y-54785854D01*
X46685097Y-54727075D01*
X46926786Y-54679000D01*
X47173214Y-54679000D01*
X47414903Y-54727075D01*
G37*
G36*
X96375256Y-52391298D02*
G01*
X96481579Y-52412447D01*
X96782042Y-52536903D01*
X97052451Y-52717585D01*
X97282415Y-52947549D01*
X97463097Y-53217958D01*
X97544145Y-53413624D01*
X97587553Y-53518422D01*
X97651000Y-53837389D01*
X97651000Y-54162611D01*
X97621305Y-54311897D01*
X97587553Y-54481579D01*
X97463097Y-54782042D01*
X97282415Y-55052451D01*
X97052451Y-55282415D01*
X96782042Y-55463097D01*
X96481579Y-55587553D01*
X96375256Y-55608702D01*
X96162611Y-55651000D01*
X95837389Y-55651000D01*
X95624744Y-55608702D01*
X95518421Y-55587553D01*
X95217958Y-55463097D01*
X94947549Y-55282415D01*
X94717585Y-55052451D01*
X94536903Y-54782042D01*
X94412447Y-54481579D01*
X94378695Y-54311897D01*
X94349000Y-54162611D01*
X94349000Y-53837389D01*
X94412447Y-53518422D01*
X94455856Y-53413624D01*
X94536903Y-53217958D01*
X94717585Y-52947549D01*
X94947549Y-52717585D01*
X95217958Y-52536903D01*
X95518421Y-52412447D01*
X95624744Y-52391298D01*
X95837389Y-52349000D01*
X96162611Y-52349000D01*
X96375256Y-52391298D01*
G37*
G36*
X4375256Y-52391298D02*
G01*
X4481579Y-52412447D01*
X4782042Y-52536903D01*
X5052451Y-52717585D01*
X5282415Y-52947549D01*
X5463097Y-53217958D01*
X5544145Y-53413624D01*
X5587553Y-53518422D01*
X5651000Y-53837389D01*
X5651000Y-54162611D01*
X5621305Y-54311897D01*
X5587553Y-54481579D01*
X5463097Y-54782042D01*
X5282415Y-55052451D01*
X5052451Y-55282415D01*
X4782042Y-55463097D01*
X4481579Y-55587553D01*
X4375256Y-55608702D01*
X4162611Y-55651000D01*
X3837389Y-55651000D01*
X3624744Y-55608702D01*
X3518421Y-55587553D01*
X3217958Y-55463097D01*
X2947549Y-55282415D01*
X2717585Y-55052451D01*
X2536903Y-54782042D01*
X2412447Y-54481579D01*
X2378695Y-54311897D01*
X2349000Y-54162611D01*
X2349000Y-53837389D01*
X2412447Y-53518422D01*
X2455856Y-53413624D01*
X2536903Y-53217958D01*
X2717585Y-52947549D01*
X2947549Y-52717585D01*
X3217958Y-52536903D01*
X3518421Y-52412447D01*
X3624744Y-52391298D01*
X3837389Y-52349000D01*
X4162611Y-52349000D01*
X4375256Y-52391298D01*
G37*
G36*
X28053512Y-53383927D02*
G01*
X28202812Y-53413624D01*
X28366784Y-53481544D01*
X28514354Y-53580147D01*
X28639853Y-53705646D01*
X28738456Y-53853216D01*
X28806376Y-54017188D01*
X28841000Y-54191259D01*
X28841000Y-54368741D01*
X28806376Y-54542812D01*
X28738456Y-54706784D01*
X28639853Y-54854354D01*
X28514354Y-54979853D01*
X28366784Y-55078456D01*
X28202812Y-55146376D01*
X28055035Y-55175770D01*
X28028742Y-55181000D01*
X27851258Y-55181000D01*
X27824965Y-55175770D01*
X27677188Y-55146376D01*
X27513216Y-55078456D01*
X27365646Y-54979853D01*
X27240147Y-54854354D01*
X27141544Y-54706784D01*
X27073624Y-54542812D01*
X27039000Y-54368741D01*
X27039000Y-54191259D01*
X27073624Y-54017188D01*
X27141544Y-53853216D01*
X27240147Y-53705646D01*
X27365646Y-53580147D01*
X27513216Y-53481544D01*
X27677188Y-53413624D01*
X27826488Y-53383927D01*
X27851258Y-53379000D01*
X28028742Y-53379000D01*
X28053512Y-53383927D01*
G37*
G36*
X23588674Y-53933465D02*
G01*
X23626367Y-53944899D01*
X23661103Y-53963466D01*
X23691548Y-53988452D01*
X23716534Y-54018897D01*
X23735101Y-54053633D01*
X23746535Y-54091326D01*
X23751000Y-54136661D01*
X23751000Y-54973339D01*
X23746535Y-55018674D01*
X23735101Y-55056367D01*
X23716534Y-55091103D01*
X23691548Y-55121548D01*
X23661103Y-55146534D01*
X23626367Y-55165101D01*
X23588674Y-55176535D01*
X23543339Y-55181000D01*
X22456661Y-55181000D01*
X22411326Y-55176535D01*
X22373633Y-55165101D01*
X22338897Y-55146534D01*
X22308452Y-55121548D01*
X22283466Y-55091103D01*
X22264899Y-55056367D01*
X22253465Y-55018674D01*
X22249000Y-54973339D01*
X22249000Y-54136661D01*
X22253465Y-54091326D01*
X22264899Y-54053633D01*
X22283466Y-54018897D01*
X22308452Y-53988452D01*
X22338897Y-53963466D01*
X22373633Y-53944899D01*
X22411326Y-53933465D01*
X22456661Y-53929000D01*
X23543339Y-53929000D01*
X23588674Y-53933465D01*
G37*
G36*
X33133512Y-53383927D02*
G01*
X33282812Y-53413624D01*
X33446784Y-53481544D01*
X33594354Y-53580147D01*
X33719853Y-53705646D01*
X33818456Y-53853216D01*
X33886376Y-54017188D01*
X33921000Y-54191259D01*
X33921000Y-54368741D01*
X33886376Y-54542812D01*
X33818456Y-54706784D01*
X33719853Y-54854354D01*
X33594354Y-54979853D01*
X33446784Y-55078456D01*
X33282812Y-55146376D01*
X33135035Y-55175770D01*
X33108742Y-55181000D01*
X32931258Y-55181000D01*
X32904965Y-55175770D01*
X32757188Y-55146376D01*
X32593216Y-55078456D01*
X32445646Y-54979853D01*
X32320147Y-54854354D01*
X32221544Y-54706784D01*
X32153624Y-54542812D01*
X32119000Y-54368741D01*
X32119000Y-54191259D01*
X32153624Y-54017188D01*
X32221544Y-53853216D01*
X32320147Y-53705646D01*
X32445646Y-53580147D01*
X32593216Y-53481544D01*
X32757188Y-53413624D01*
X32906488Y-53383927D01*
X32931258Y-53379000D01*
X33108742Y-53379000D01*
X33133512Y-53383927D01*
G37*
G36*
X38213512Y-53383927D02*
G01*
X38362812Y-53413624D01*
X38526784Y-53481544D01*
X38674354Y-53580147D01*
X38799853Y-53705646D01*
X38898456Y-53853216D01*
X38966376Y-54017188D01*
X39001000Y-54191259D01*
X39001000Y-54368741D01*
X38966376Y-54542812D01*
X38898456Y-54706784D01*
X38799853Y-54854354D01*
X38674354Y-54979853D01*
X38526784Y-55078456D01*
X38362812Y-55146376D01*
X38215035Y-55175770D01*
X38188742Y-55181000D01*
X38011258Y-55181000D01*
X37984965Y-55175770D01*
X37837188Y-55146376D01*
X37673216Y-55078456D01*
X37525646Y-54979853D01*
X37400147Y-54854354D01*
X37301544Y-54706784D01*
X37233624Y-54542812D01*
X37199000Y-54368741D01*
X37199000Y-54191259D01*
X37233624Y-54017188D01*
X37301544Y-53853216D01*
X37400147Y-53705646D01*
X37525646Y-53580147D01*
X37673216Y-53481544D01*
X37837188Y-53413624D01*
X37986488Y-53383927D01*
X38011258Y-53379000D01*
X38188742Y-53379000D01*
X38213512Y-53383927D01*
G37*
G36*
X43293512Y-53383927D02*
G01*
X43442812Y-53413624D01*
X43606784Y-53481544D01*
X43754354Y-53580147D01*
X43879853Y-53705646D01*
X43978456Y-53853216D01*
X44046376Y-54017188D01*
X44081000Y-54191259D01*
X44081000Y-54368741D01*
X44046376Y-54542812D01*
X43978456Y-54706784D01*
X43879853Y-54854354D01*
X43754354Y-54979853D01*
X43606784Y-55078456D01*
X43442812Y-55146376D01*
X43295035Y-55175770D01*
X43268742Y-55181000D01*
X43091258Y-55181000D01*
X43064965Y-55175770D01*
X42917188Y-55146376D01*
X42753216Y-55078456D01*
X42605646Y-54979853D01*
X42480147Y-54854354D01*
X42381544Y-54706784D01*
X42313624Y-54542812D01*
X42279000Y-54368741D01*
X42279000Y-54191259D01*
X42313624Y-54017188D01*
X42381544Y-53853216D01*
X42480147Y-53705646D01*
X42605646Y-53580147D01*
X42753216Y-53481544D01*
X42917188Y-53413624D01*
X43066488Y-53383927D01*
X43091258Y-53379000D01*
X43268742Y-53379000D01*
X43293512Y-53383927D01*
G37*
G36*
X78853512Y-53383927D02*
G01*
X79002812Y-53413624D01*
X79166784Y-53481544D01*
X79314354Y-53580147D01*
X79439853Y-53705646D01*
X79538456Y-53853216D01*
X79606376Y-54017188D01*
X79641000Y-54191259D01*
X79641000Y-54368741D01*
X79606376Y-54542812D01*
X79538456Y-54706784D01*
X79439853Y-54854354D01*
X79314354Y-54979853D01*
X79166784Y-55078456D01*
X79002812Y-55146376D01*
X78855035Y-55175770D01*
X78828742Y-55181000D01*
X78651258Y-55181000D01*
X78624965Y-55175770D01*
X78477188Y-55146376D01*
X78313216Y-55078456D01*
X78165646Y-54979853D01*
X78040147Y-54854354D01*
X77941544Y-54706784D01*
X77873624Y-54542812D01*
X77839000Y-54368741D01*
X77839000Y-54191259D01*
X77873624Y-54017188D01*
X77941544Y-53853216D01*
X78040147Y-53705646D01*
X78165646Y-53580147D01*
X78313216Y-53481544D01*
X78477188Y-53413624D01*
X78626488Y-53383927D01*
X78651258Y-53379000D01*
X78828742Y-53379000D01*
X78853512Y-53383927D01*
G37*
G36*
X83933512Y-53383927D02*
G01*
X84082812Y-53413624D01*
X84246784Y-53481544D01*
X84394354Y-53580147D01*
X84519853Y-53705646D01*
X84618456Y-53853216D01*
X84686376Y-54017188D01*
X84721000Y-54191259D01*
X84721000Y-54368741D01*
X84686376Y-54542812D01*
X84618456Y-54706784D01*
X84519853Y-54854354D01*
X84394354Y-54979853D01*
X84246784Y-55078456D01*
X84082812Y-55146376D01*
X83935035Y-55175770D01*
X83908742Y-55181000D01*
X83731258Y-55181000D01*
X83704965Y-55175770D01*
X83557188Y-55146376D01*
X83393216Y-55078456D01*
X83245646Y-54979853D01*
X83120147Y-54854354D01*
X83021544Y-54706784D01*
X82953624Y-54542812D01*
X82919000Y-54368741D01*
X82919000Y-54191259D01*
X82953624Y-54017188D01*
X83021544Y-53853216D01*
X83120147Y-53705646D01*
X83245646Y-53580147D01*
X83393216Y-53481544D01*
X83557188Y-53413624D01*
X83706488Y-53383927D01*
X83731258Y-53379000D01*
X83908742Y-53379000D01*
X83933512Y-53383927D01*
G37*
G36*
X89013512Y-53383927D02*
G01*
X89162812Y-53413624D01*
X89326784Y-53481544D01*
X89474354Y-53580147D01*
X89599853Y-53705646D01*
X89698456Y-53853216D01*
X89766376Y-54017188D01*
X89801000Y-54191259D01*
X89801000Y-54368741D01*
X89766376Y-54542812D01*
X89698456Y-54706784D01*
X89599853Y-54854354D01*
X89474354Y-54979853D01*
X89326784Y-55078456D01*
X89162812Y-55146376D01*
X89015035Y-55175770D01*
X88988742Y-55181000D01*
X88811258Y-55181000D01*
X88784965Y-55175770D01*
X88637188Y-55146376D01*
X88473216Y-55078456D01*
X88325646Y-54979853D01*
X88200147Y-54854354D01*
X88101544Y-54706784D01*
X88033624Y-54542812D01*
X87999000Y-54368741D01*
X87999000Y-54191259D01*
X88033624Y-54017188D01*
X88101544Y-53853216D01*
X88200147Y-53705646D01*
X88325646Y-53580147D01*
X88473216Y-53481544D01*
X88637188Y-53413624D01*
X88786488Y-53383927D01*
X88811258Y-53379000D01*
X88988742Y-53379000D01*
X89013512Y-53383927D01*
G37*
G36*
X58533512Y-53383927D02*
G01*
X58682812Y-53413624D01*
X58846784Y-53481544D01*
X58994354Y-53580147D01*
X59119853Y-53705646D01*
X59218456Y-53853216D01*
X59286376Y-54017188D01*
X59321000Y-54191259D01*
X59321000Y-54368741D01*
X59286376Y-54542812D01*
X59218456Y-54706784D01*
X59119853Y-54854354D01*
X58994354Y-54979853D01*
X58846784Y-55078456D01*
X58682812Y-55146376D01*
X58535035Y-55175770D01*
X58508742Y-55181000D01*
X58331258Y-55181000D01*
X58304965Y-55175770D01*
X58157188Y-55146376D01*
X57993216Y-55078456D01*
X57845646Y-54979853D01*
X57720147Y-54854354D01*
X57621544Y-54706784D01*
X57553624Y-54542812D01*
X57519000Y-54368741D01*
X57519000Y-54191259D01*
X57553624Y-54017188D01*
X57621544Y-53853216D01*
X57720147Y-53705646D01*
X57845646Y-53580147D01*
X57993216Y-53481544D01*
X58157188Y-53413624D01*
X58306488Y-53383927D01*
X58331258Y-53379000D01*
X58508742Y-53379000D01*
X58533512Y-53383927D01*
G37*
G36*
X79641000Y-52641000D02*
G01*
X77839000Y-52641000D01*
X77839000Y-50839000D01*
X79641000Y-50839000D01*
X79641000Y-52641000D01*
G37*
G36*
X20433512Y-50843927D02*
G01*
X20582812Y-50873624D01*
X20746784Y-50941544D01*
X20894354Y-51040147D01*
X21019853Y-51165646D01*
X21118456Y-51313216D01*
X21186376Y-51477188D01*
X21221000Y-51651259D01*
X21221000Y-51828741D01*
X21186376Y-52002812D01*
X21118456Y-52166784D01*
X21019853Y-52314354D01*
X20894354Y-52439853D01*
X20746784Y-52538456D01*
X20582812Y-52606376D01*
X20433512Y-52636073D01*
X20408742Y-52641000D01*
X20231258Y-52641000D01*
X20206488Y-52636073D01*
X20057188Y-52606376D01*
X19893216Y-52538456D01*
X19745646Y-52439853D01*
X19620147Y-52314354D01*
X19521544Y-52166784D01*
X19453624Y-52002812D01*
X19419000Y-51828741D01*
X19419000Y-51651259D01*
X19453624Y-51477188D01*
X19521544Y-51313216D01*
X19620147Y-51165646D01*
X19745646Y-51040147D01*
X19893216Y-50941544D01*
X20057188Y-50873624D01*
X20206488Y-50843927D01*
X20231258Y-50839000D01*
X20408742Y-50839000D01*
X20433512Y-50843927D01*
G37*
G36*
X23761000Y-52641000D02*
G01*
X21959000Y-52641000D01*
X21959000Y-50839000D01*
X23761000Y-50839000D01*
X23761000Y-52641000D01*
G37*
G36*
X59321000Y-52641000D02*
G01*
X57519000Y-52641000D01*
X57519000Y-50839000D01*
X59321000Y-50839000D01*
X59321000Y-52641000D01*
G37*
G36*
X28841000Y-52641000D02*
G01*
X27039000Y-52641000D01*
X27039000Y-50839000D01*
X28841000Y-50839000D01*
X28841000Y-52641000D01*
G37*
G36*
X44081000Y-52641000D02*
G01*
X42279000Y-52641000D01*
X42279000Y-50839000D01*
X44081000Y-50839000D01*
X44081000Y-52641000D01*
G37*
G36*
X53453512Y-50843927D02*
G01*
X53602812Y-50873624D01*
X53766784Y-50941544D01*
X53914354Y-51040147D01*
X54039853Y-51165646D01*
X54138456Y-51313216D01*
X54206376Y-51477188D01*
X54241000Y-51651259D01*
X54241000Y-51828741D01*
X54206376Y-52002812D01*
X54138456Y-52166784D01*
X54039853Y-52314354D01*
X53914354Y-52439853D01*
X53766784Y-52538456D01*
X53602812Y-52606376D01*
X53453512Y-52636073D01*
X53428742Y-52641000D01*
X53251258Y-52641000D01*
X53226488Y-52636073D01*
X53077188Y-52606376D01*
X52913216Y-52538456D01*
X52765646Y-52439853D01*
X52640147Y-52314354D01*
X52541544Y-52166784D01*
X52473624Y-52002812D01*
X52439000Y-51828741D01*
X52439000Y-51651259D01*
X52473624Y-51477188D01*
X52541544Y-51313216D01*
X52640147Y-51165646D01*
X52765646Y-51040147D01*
X52913216Y-50941544D01*
X53077188Y-50873624D01*
X53226488Y-50843927D01*
X53251258Y-50839000D01*
X53428742Y-50839000D01*
X53453512Y-50843927D01*
G37*
G36*
X50913512Y-50843927D02*
G01*
X51062812Y-50873624D01*
X51226784Y-50941544D01*
X51374354Y-51040147D01*
X51499853Y-51165646D01*
X51598456Y-51313216D01*
X51666376Y-51477188D01*
X51701000Y-51651259D01*
X51701000Y-51828741D01*
X51666376Y-52002812D01*
X51598456Y-52166784D01*
X51499853Y-52314354D01*
X51374354Y-52439853D01*
X51226784Y-52538456D01*
X51062812Y-52606376D01*
X50913512Y-52636073D01*
X50888742Y-52641000D01*
X50711258Y-52641000D01*
X50686488Y-52636073D01*
X50537188Y-52606376D01*
X50373216Y-52538456D01*
X50225646Y-52439853D01*
X50100147Y-52314354D01*
X50001544Y-52166784D01*
X49933624Y-52002812D01*
X49899000Y-51828741D01*
X49899000Y-51651259D01*
X49933624Y-51477188D01*
X50001544Y-51313216D01*
X50100147Y-51165646D01*
X50225646Y-51040147D01*
X50373216Y-50941544D01*
X50537188Y-50873624D01*
X50686488Y-50843927D01*
X50711258Y-50839000D01*
X50888742Y-50839000D01*
X50913512Y-50843927D01*
G37*
G36*
X49161000Y-52641000D02*
G01*
X47359000Y-52641000D01*
X47359000Y-50839000D01*
X49161000Y-50839000D01*
X49161000Y-52641000D01*
G37*
G36*
X84721000Y-52641000D02*
G01*
X82919000Y-52641000D01*
X82919000Y-50839000D01*
X84721000Y-50839000D01*
X84721000Y-52641000D01*
G37*
G36*
X33921000Y-52641000D02*
G01*
X32119000Y-52641000D01*
X32119000Y-50839000D01*
X33921000Y-50839000D01*
X33921000Y-52641000D01*
G37*
G36*
X89801000Y-52641000D02*
G01*
X87999000Y-52641000D01*
X87999000Y-50839000D01*
X89801000Y-50839000D01*
X89801000Y-52641000D01*
G37*
G36*
X39001000Y-52641000D02*
G01*
X37199000Y-52641000D01*
X37199000Y-50839000D01*
X39001000Y-50839000D01*
X39001000Y-52641000D01*
G37*
G36*
X11061000Y-52641000D02*
G01*
X9259000Y-52641000D01*
X9259000Y-50839000D01*
X11061000Y-50839000D01*
X11061000Y-52641000D01*
G37*
G36*
X12813512Y-50843927D02*
G01*
X12962812Y-50873624D01*
X13126784Y-50941544D01*
X13274354Y-51040147D01*
X13399853Y-51165646D01*
X13498456Y-51313216D01*
X13566376Y-51477188D01*
X13601000Y-51651259D01*
X13601000Y-51828741D01*
X13566376Y-52002812D01*
X13498456Y-52166784D01*
X13399853Y-52314354D01*
X13274354Y-52439853D01*
X13126784Y-52538456D01*
X12962812Y-52606376D01*
X12813512Y-52636073D01*
X12788742Y-52641000D01*
X12611258Y-52641000D01*
X12586488Y-52636073D01*
X12437188Y-52606376D01*
X12273216Y-52538456D01*
X12125646Y-52439853D01*
X12000147Y-52314354D01*
X11901544Y-52166784D01*
X11833624Y-52002812D01*
X11799000Y-51828741D01*
X11799000Y-51651259D01*
X11833624Y-51477188D01*
X11901544Y-51313216D01*
X12000147Y-51165646D01*
X12125646Y-51040147D01*
X12273216Y-50941544D01*
X12437188Y-50873624D01*
X12586488Y-50843927D01*
X12611258Y-50839000D01*
X12788742Y-50839000D01*
X12813512Y-50843927D01*
G37*
G36*
X15353512Y-50843927D02*
G01*
X15502812Y-50873624D01*
X15666784Y-50941544D01*
X15814354Y-51040147D01*
X15939853Y-51165646D01*
X16038456Y-51313216D01*
X16106376Y-51477188D01*
X16141000Y-51651259D01*
X16141000Y-51828741D01*
X16106376Y-52002812D01*
X16038456Y-52166784D01*
X15939853Y-52314354D01*
X15814354Y-52439853D01*
X15666784Y-52538456D01*
X15502812Y-52606376D01*
X15353512Y-52636073D01*
X15328742Y-52641000D01*
X15151258Y-52641000D01*
X15126488Y-52636073D01*
X14977188Y-52606376D01*
X14813216Y-52538456D01*
X14665646Y-52439853D01*
X14540147Y-52314354D01*
X14441544Y-52166784D01*
X14373624Y-52002812D01*
X14339000Y-51828741D01*
X14339000Y-51651259D01*
X14373624Y-51477188D01*
X14441544Y-51313216D01*
X14540147Y-51165646D01*
X14665646Y-51040147D01*
X14813216Y-50941544D01*
X14977188Y-50873624D01*
X15126488Y-50843927D01*
X15151258Y-50839000D01*
X15328742Y-50839000D01*
X15353512Y-50843927D01*
G37*
G36*
X64466031Y-49154207D02*
G01*
X64664145Y-49214305D01*
X64664148Y-49214306D01*
X64730030Y-49249521D01*
X64846729Y-49311897D01*
X65006765Y-49443235D01*
X65138103Y-49603271D01*
X65138104Y-49603273D01*
X65235694Y-49785851D01*
X65235694Y-49785852D01*
X65235695Y-49785854D01*
X65295793Y-49983968D01*
X65311000Y-50138370D01*
X65311000Y-51241630D01*
X65295793Y-51396032D01*
X65235695Y-51594146D01*
X65235694Y-51594149D01*
X65205168Y-51651258D01*
X65138103Y-51776729D01*
X65006765Y-51936765D01*
X64846729Y-52068103D01*
X64760975Y-52113939D01*
X64664149Y-52165694D01*
X64664146Y-52165695D01*
X64466032Y-52225793D01*
X64260000Y-52246085D01*
X64053969Y-52225793D01*
X63855855Y-52165695D01*
X63855852Y-52165694D01*
X63759026Y-52113939D01*
X63673272Y-52068103D01*
X63513236Y-51936765D01*
X63381898Y-51776729D01*
X63355172Y-51726728D01*
X63284305Y-51594147D01*
X63224207Y-51396030D01*
X63209000Y-51241631D01*
X63209000Y-50138370D01*
X63224207Y-49983971D01*
X63224207Y-49983969D01*
X63284305Y-49785855D01*
X63284306Y-49785852D01*
X63319521Y-49719970D01*
X63381897Y-49603271D01*
X63513235Y-49443235D01*
X63673271Y-49311897D01*
X63766815Y-49261897D01*
X63855851Y-49214306D01*
X63855854Y-49214305D01*
X64053968Y-49154207D01*
X64260000Y-49133915D01*
X64466031Y-49154207D01*
G37*
G36*
X71916031Y-49104207D02*
G01*
X72114145Y-49164305D01*
X72114148Y-49164306D01*
X72180030Y-49199521D01*
X72296729Y-49261897D01*
X72456765Y-49393235D01*
X72588103Y-49553271D01*
X72588104Y-49553273D01*
X72685694Y-49735851D01*
X72685694Y-49735852D01*
X72685695Y-49735854D01*
X72745793Y-49933968D01*
X72761000Y-50088370D01*
X72761000Y-51191630D01*
X72745793Y-51346032D01*
X72706006Y-51477189D01*
X72685694Y-51544149D01*
X72658970Y-51594146D01*
X72588103Y-51726729D01*
X72456765Y-51886765D01*
X72296729Y-52018103D01*
X72210975Y-52063939D01*
X72114149Y-52115694D01*
X72114146Y-52115695D01*
X71916032Y-52175793D01*
X71710000Y-52196085D01*
X71503969Y-52175793D01*
X71305855Y-52115695D01*
X71305852Y-52115694D01*
X71209026Y-52063939D01*
X71123272Y-52018103D01*
X70963236Y-51886765D01*
X70831898Y-51726729D01*
X70809184Y-51684235D01*
X70734305Y-51544147D01*
X70674207Y-51346030D01*
X70659000Y-51191631D01*
X70659000Y-50088370D01*
X70669282Y-49983971D01*
X70674207Y-49933969D01*
X70734305Y-49735855D01*
X70734306Y-49735852D01*
X70805171Y-49603273D01*
X70831897Y-49553271D01*
X70963235Y-49393235D01*
X71123271Y-49261897D01*
X71212310Y-49214305D01*
X71305851Y-49164306D01*
X71305854Y-49164305D01*
X71503968Y-49104207D01*
X71710000Y-49083915D01*
X71916031Y-49104207D01*
G37*
M02*
